<?xml version="1.0" encoding="UTF-8" standalone="no"?>
<!-- Created with Inkscape (http://www.inkscape.org/) -->

<svg
   xmlns:dc="http://purl.org/dc/elements/1.1/"
   xmlns:cc="http://creativecommons.org/ns#"
   xmlns:rdf="http://www.w3.org/1999/02/22-rdf-syntax-ns#"
   xmlns:svg="http://www.w3.org/2000/svg"
   xmlns="http://www.w3.org/2000/svg"
   xmlns:xlink="http://www.w3.org/1999/xlink"
   xmlns:sodipodi="http://sodipodi.sourceforge.net/DTD/sodipodi-0.dtd"
   xmlns:inkscape="http://www.inkscape.org/namespaces/inkscape"
   width="40.639999mm"
   height="128.5mm"
   viewBox="0 0 40.639999 128.5"
   version="1.1"
   id="svg951"
   inkscape:version="0.92.5 (2060ec1f9f, 2020-04-08)"
   sodipodi:docname="MIDI_Monitor.svg">
  <defs
     id="defs945">
    <linearGradient
       inkscape:collect="always"
       id="linearGradient1635">
      <stop
         style="stop-color:#2c2c58;stop-opacity:1"
         offset="0"
         id="stop1631" />
      <stop
         style="stop-color:#37375a;stop-opacity:1"
         offset="1"
         id="stop1633" />
    </linearGradient>
    <linearGradient
       inkscape:collect="always"
       xlink:href="#linearGradient1109"
       id="linearGradient4954"
       gradientUnits="userSpaceOnUse"
       x1="110.74702"
       y1="130.87947"
       x2="111.50298"
       y2="242.57143"
       gradientTransform="matrix(0.887875,0,0,0.99973639,-74.944509,43.002034)" />
    <linearGradient
       inkscape:collect="always"
       id="linearGradient1109">
      <stop
         style="stop-color:#333131;stop-opacity:1"
         offset="0"
         id="stop1105" />
      <stop
         style="stop-color:#292727;stop-opacity:1"
         offset="1"
         id="stop1107" />
    </linearGradient>
    <linearGradient
       inkscape:collect="always"
       xlink:href="#linearGradient1635"
       id="linearGradient1637"
       x1="25.4"
       y1="35.405956"
       x2="25.4"
       y2="14.428279"
       gradientUnits="userSpaceOnUse"
       gradientTransform="matrix(0.79499582,0,0,1.2719935,0.12710467,-1.8489532)" />
    <clipPath
       id="clipPath899"
       clipPathUnits="userSpaceOnUse">
      <path
         inkscape:connector-curvature="0"
         id="path897"
         d="M 0,472.252 H 223.2 V 0 H 0 Z" />
    </clipPath>
  </defs>
  <sodipodi:namedview
     id="base"
     pagecolor="#ffffff"
     bordercolor="#666666"
     borderopacity="1.0"
     inkscape:pageopacity="0.0"
     inkscape:pageshadow="2"
     inkscape:zoom="1.4"
     inkscape:cx="-7.0011939"
     inkscape:cy="231.46156"
     inkscape:document-units="mm"
     inkscape:current-layer="g895"
     showgrid="false"
     inkscape:window-width="1920"
     inkscape:window-height="1033"
     inkscape:window-x="0"
     inkscape:window-y="0"
     inkscape:window-maximized="1"
     showguides="true"
     inkscape:guide-bbox="true"
     inkscape:snap-bbox="true"
     inkscape:snap-bbox-midpoints="true"
     inkscape:snap-text-baseline="true">
    <sodipodi:guide
       position="20.320001,80.130956"
       orientation="1,0"
       id="guide1625"
       inkscape:locked="false"
       inkscape:label=""
       inkscape:color="rgb(0,0,255)" />
    <sodipodi:guide
       position="-21.922619,62"
       orientation="0,1"
       id="guide1641"
       inkscape:locked="false"
       inkscape:label=""
       inkscape:color="rgb(0,0,255)" />
    <sodipodi:guide
       position="-17.197916,46.000001"
       orientation="0,1"
       id="guide1643"
       inkscape:locked="false"
       inkscape:label=""
       inkscape:color="rgb(0,0,255)" />
    <sodipodi:guide
       position="-21.544642,30.000002"
       orientation="0,1"
       id="guide1645"
       inkscape:locked="false"
       inkscape:label=""
       inkscape:color="rgb(0,0,255)" />
    <sodipodi:guide
       position="-29.860118,14.000003"
       orientation="0,1"
       id="guide1647"
       inkscape:locked="false"
       inkscape:label=""
       inkscape:color="rgb(0,0,255)" />
    <sodipodi:guide
       position="28.320001,71.76187"
       orientation="1,0"
       id="guide1777"
       inkscape:locked="false"
       inkscape:label=""
       inkscape:color="rgb(0,0,255)" />
    <sodipodi:guide
       position="12.320001,67.218288"
       orientation="1,0"
       id="guide1779"
       inkscape:locked="false"
       inkscape:label=""
       inkscape:color="rgb(0,0,255)" />
    <sodipodi:guide
       position="10.320001,73.436603"
       orientation="0,1"
       id="guide1834"
       inkscape:locked="false"
       inkscape:label=""
       inkscape:color="rgb(0,0,255)" />
    <sodipodi:guide
       position="-7.9370002,120"
       orientation="0,1"
       id="guide1892"
       inkscape:locked="false"
       inkscape:label=""
       inkscape:color="rgb(0,0,255)" />
    <sodipodi:guide
       position="8.3200008,98.05357"
       orientation="0,1"
       id="guide1894"
       inkscape:locked="false"
       inkscape:label=""
       inkscape:color="rgb(0,0,255)" />
  </sodipodi:namedview>
  <metadata
     id="metadata948">
    <rdf:RDF>
      <cc:Work
         rdf:about="">
        <dc:format>image/svg+xml</dc:format>
        <dc:type
           rdf:resource="http://purl.org/dc/dcmitype/StillImage" />
        <dc:title />
      </cc:Work>
    </rdf:RDF>
  </metadata>
  <g
     inkscape:label="BG"
     inkscape:groupmode="layer"
     id="layer1"
     transform="translate(0,-168.5)"
     style="display:inline">
    <path
       inkscape:connector-curvature="0"
       id="path1099"
       d="M 4.4721358e-7,168.49999 H 40.64 V 297 H 4.4721358e-7 Z"
       style="display:inline;fill:url(#linearGradient4954);fill-opacity:1;stroke:#6e6e6e;stroke-width:0;stroke-miterlimit:4;stroke-dasharray:none;stroke-opacity:1" />
  </g>
  <g
     inkscape:groupmode="layer"
     id="layer2"
     inkscape:label="Layer 1"
     style="display:inline">
    <rect
       style="opacity:1;fill:url(#linearGradient1637);fill-opacity:1;stroke:#000000;stroke-width:0.2001666;stroke-linecap:butt;stroke-linejoin:miter;stroke-miterlimit:4;stroke-dasharray:none;stroke-opacity:1"
       id="rect1627"
       width="31.799833"
       height="31.799833"
       x="4.420084"
       y="14.546516"
       rx="1.1171036" />
    <g
       aria-label="MIDI INS"
       style="font-style:normal;font-variant:normal;font-weight:normal;font-stretch:normal;font-size:2.82222223px;line-height:100%;font-family:DIN;-inkscape-font-specification:DIN;text-align:center;letter-spacing:0px;word-spacing:0px;writing-mode:lr-tb;text-anchor:middle;fill:#f4da98;fill-opacity:1;stroke:none;stroke-width:0.26458332px;stroke-linecap:butt;stroke-linejoin:miter;stroke-opacity:1"
       id="text1828"
       transform="translate(1.9999997,1.9999977)">
      <path
         d="m 6.3271656,54.193699 v -2.2606 h -0.3429 l -0.6477,1.406525 -0.6603999,-1.406525 h -0.3429 v 2.2606 h 0.3429 v -1.5113 l 0.5333999,1.101725 h 0.254 l 0.5207,-1.101725 v 1.5113 z"
         style="font-size:3.17499995px;fill:#f4da98;fill-opacity:1;stroke-width:0.26458332px"
         id="path1973"
         inkscape:connector-curvature="0" />
      <path
         d="m 7.255853,54.193699 v -2.2606 h -0.3429 v 2.2606 z"
         style="font-size:3.17499995px;fill:#f4da98;fill-opacity:1;stroke-width:0.26458332px"
         id="path1975"
         inkscape:connector-curvature="0" />
      <path
         d="m 9.4558798,53.047524 q 0,-0.123825 -0.00318,-0.244475 0,-0.12065 -0.01905,-0.23495 -0.01905,-0.117475 -0.066675,-0.22225 -0.047625,-0.10795 -0.1397,-0.200025 -0.10795,-0.10795 -0.257175,-0.15875 -0.149225,-0.05398 -0.327025,-0.05398 h -0.79375 v 2.2606 h 0.79375 q 0.1778,0 0.327025,-0.0508 0.149225,-0.05398 0.257175,-0.161925 0.092075,-0.09208 0.1397,-0.2032 0.047625,-0.111125 0.066675,-0.231775 0.01905,-0.12065 0.01905,-0.24765 0.00318,-0.127 0.00318,-0.250825 z m -0.3429,0 q 0,0.23495 -0.015875,0.41275 -0.015875,0.174625 -0.104775,0.27305 -0.1397,0.1524 -0.384175,0.1524 h -0.415925 v -1.64465 h 0.415925 q 0.244475,0 0.384175,0.1524 0.0889,0.09842 0.104775,0.26035 0.015875,0.15875 0.015875,0.3937 z"
         style="font-size:3.17499995px;fill:#f4da98;fill-opacity:1;stroke-width:0.26458332px"
         id="path1977"
         inkscape:connector-curvature="0" />
      <path
         d="m 10.30683,54.193699 v -2.2606 H 9.9639295 v 2.2606 z"
         style="font-size:3.17499995px;fill:#f4da98;fill-opacity:1;stroke-width:0.26458332px"
         id="path1979"
         inkscape:connector-curvature="0" />
      <path
         d="m 12.005951,54.193699 v -2.2606 h -0.3429 v 2.2606 z"
         style="font-size:3.17499995px;fill:#f4da98;fill-opacity:1;stroke-width:0.26458332px"
         id="path1981"
         inkscape:connector-curvature="0" />
      <path
         d="m 14.301228,54.193699 v -2.2606 h -0.3429 v 1.5875 l -1.044575,-1.5875 h -0.314325 v 2.2606 h 0.3429 v -1.590675 l 1.044575,1.590675 z"
         style="font-size:3.17499995px;fill:#f4da98;fill-opacity:1;stroke-width:0.26458332px"
         id="path1983"
         inkscape:connector-curvature="0" />
      <path
         d="m 16.306736,53.549174 q 0,-0.14605 -0.04763,-0.263525 -0.04445,-0.117475 -0.136525,-0.200025 -0.07302,-0.0635 -0.168275,-0.1016 -0.09525,-0.04127 -0.254,-0.06667 l -0.257175,-0.0381 q -0.1651,-0.0254 -0.254,-0.104775 -0.04445,-0.04127 -0.06668,-0.09208 -0.01905,-0.05397 -0.01905,-0.117475 0,-0.1524 0.104775,-0.250825 0.10795,-0.1016 0.307975,-0.1016 0.142875,0 0.263525,0.0381 0.123825,0.03493 0.2286,0.136525 l 0.219075,-0.2159 q -0.14605,-0.136525 -0.31115,-0.19685 -0.1651,-0.06032 -0.390525,-0.06032 -0.1778,0 -0.3175,0.04763 -0.1397,0.04762 -0.238125,0.136525 -0.09525,0.0889 -0.149225,0.212725 -0.0508,0.12065 -0.0508,0.2667 0,0.276225 0.1651,0.4318 0.1524,0.142875 0.428625,0.180975 l 0.2667,0.0381 q 0.1016,0.01588 0.1524,0.03493 0.0508,0.01905 0.09525,0.06032 0.0889,0.07937 0.0889,0.23495 0,0.1651 -0.123825,0.257175 -0.12065,0.0889 -0.3429,0.0889 -0.174625,0 -0.314325,-0.04445 -0.1397,-0.04762 -0.263525,-0.17145 l -0.2286,0.225425 q 0.161925,0.1651 0.352425,0.231775 0.1905,0.06668 0.447675,0.06668 0.1778,0 0.327025,-0.04445 0.149225,-0.04445 0.257175,-0.130175 0.10795,-0.08573 0.168275,-0.20955 0.06033,-0.123825 0.06033,-0.2794 z"
         style="font-size:3.17499995px;fill:#f4da98;fill-opacity:1;stroke-width:0.26458332px"
         id="path1985"
         inkscape:connector-curvature="0" />
    </g>
    <g
       aria-label="1"
       style="font-style:normal;font-variant:normal;font-weight:normal;font-stretch:normal;font-size:2.82222223px;line-height:100%;font-family:DIN;-inkscape-font-specification:DIN;text-align:center;letter-spacing:0px;word-spacing:0px;writing-mode:lr-tb;text-anchor:middle;display:inline;fill:#f4da98;fill-opacity:1;stroke:none;stroke-width:0.26458332px;stroke-linecap:butt;stroke-linejoin:miter;stroke-opacity:1"
       id="text1838-8"
       transform="translate(1.9999997,1.9999977)">
      <path
         d="m 10.660079,58.096378 v -2.009422 h -0.287867 l -0.3922888,0.338667 v 0.318911 l 0.3922888,-0.344311 v 1.696155 z"
         style="fill:#f4da98;fill-opacity:1;stroke-width:0.26458332px"
         id="path1941"
         inkscape:connector-curvature="0" />
    </g>
    <g
       aria-label="2"
       style="font-style:normal;font-variant:normal;font-weight:normal;font-stretch:normal;font-size:2.82222223px;line-height:100%;font-family:DIN;-inkscape-font-specification:DIN;text-align:center;letter-spacing:0px;word-spacing:0px;writing-mode:lr-tb;text-anchor:middle;display:inline;fill:#f4da98;fill-opacity:1;stroke:none;stroke-width:0.26458332px;stroke-linecap:butt;stroke-linejoin:miter;stroke-opacity:1"
       id="text1842-9"
       transform="translate(1.9999997,1.9999977)">
      <path
         d="m 10.904201,74.104843 v -0.256822 h -0.818445 l 0.629356,-0.770467 q 0.09313,-0.112889 0.141111,-0.206022 0.04798,-0.09596 0.04798,-0.2286 0,-0.129822 -0.04233,-0.234244 -0.04233,-0.104423 -0.118533,-0.1778 -0.0762,-0.07338 -0.183444,-0.112889 -0.107245,-0.03951 -0.237067,-0.03951 -0.127,0 -0.234245,0.04233 -0.107244,0.03951 -0.1862662,0.112889 -0.0762,0.07338 -0.1213556,0.180622 -0.042333,0.104422 -0.042333,0.231422 H 10.02649 q 0,-0.08467 0.0254,-0.143933 0.0254,-0.05927 0.06491,-0.09596 0.04233,-0.03669 0.09596,-0.05362 0.05362,-0.01693 0.110067,-0.01693 0.141111,0 0.217311,0.08467 0.0762,0.08467 0.0762,0.220134 0,0.0762 -0.0254,0.138289 -0.0254,0.05927 -0.08184,0.129822 l -0.7732893,0.9398 v 0.256822 z"
         style="fill:#f4da98;fill-opacity:1;stroke-width:0.26458332px"
         id="path1938"
         inkscape:connector-curvature="0" />
    </g>
    <g
       aria-label="3"
       style="font-style:normal;font-variant:normal;font-weight:normal;font-stretch:normal;font-size:2.82222223px;line-height:100%;font-family:DIN;-inkscape-font-specification:DIN;text-align:center;letter-spacing:0px;word-spacing:0px;writing-mode:lr-tb;text-anchor:middle;display:inline;fill:#f4da98;fill-opacity:1;stroke:none;stroke-width:0.26458332px;stroke-linecap:butt;stroke-linejoin:miter;stroke-opacity:1"
       id="text1846-0"
       transform="translate(1.9999997,1.9999977)">
      <path
         d="m 10.935245,89.53193 q 0,-0.186267 -0.0762,-0.301978 -0.0762,-0.115711 -0.206022,-0.172155 0.118533,-0.05644 0.183444,-0.160867 0.06773,-0.107244 0.06773,-0.268111 0,-0.124178 -0.04516,-0.225778 -0.04233,-0.104422 -0.121356,-0.1778 -0.0762,-0.0762 -0.183444,-0.115711 -0.107244,-0.04233 -0.234244,-0.04233 -0.121356,0 -0.225778,0.03951 -0.1044224,0.03669 -0.1834447,0.107244 -0.079022,0.07056 -0.127,0.172156 -0.047978,0.1016 -0.053622,0.2286 h 0.2878667 q 0.01129,-0.135467 0.09031,-0.211667 0.07902,-0.0762 0.211667,-0.0762 0.124177,0 0.208844,0.07902 0.08749,0.07902 0.08749,0.231423 0,0.138289 -0.07338,0.222955 -0.07338,0.08185 -0.231422,0.08185 h -0.04798 v 0.251177 h 0.04798 q 0.169333,0 0.251178,0.09031 0.08467,0.08749 0.08467,0.239888 0,0.160867 -0.09313,0.248356 -0.09313,0.08467 -0.234244,0.08467 -0.06209,0 -0.121356,-0.01693 -0.05644,-0.01693 -0.1016,-0.05362 -0.04233,-0.03951 -0.07338,-0.09595 Q 9.99544,89.633542 9.992618,89.551703 H 9.7047561 q 0.00282,0.146755 0.053622,0.254 0.053622,0.107244 0.1382889,0.1778 0.084667,0.06773 0.191911,0.1016 0.110067,0.03104 0.231423,0.03104 0.127,0 0.237066,-0.03669 0.112889,-0.03669 0.194734,-0.110066 0.08467,-0.07338 0.132644,-0.183445 0.0508,-0.110067 0.0508,-0.254 z"
         style="fill:#f4da98;fill-opacity:1;stroke-width:0.26458332px"
         id="path1935"
         inkscape:connector-curvature="0" />
    </g>
    <g
       aria-label="4"
       style="font-style:normal;font-variant:normal;font-weight:normal;font-stretch:normal;font-size:2.82222223px;line-height:100%;font-family:DIN;-inkscape-font-specification:DIN;text-align:center;letter-spacing:0px;word-spacing:0px;writing-mode:lr-tb;text-anchor:middle;display:inline;fill:#f4da98;fill-opacity:1;stroke:none;stroke-width:0.26458332px;stroke-linecap:butt;stroke-linejoin:miter;stroke-opacity:1"
       id="text1850-3"
       transform="translate(1.9999997,1.9999977)">
      <path
         d="m 10.973346,105.7944 v -0.26811 h -0.214489 v -0.46849 h -0.2794 v 0.46849 H 9.9799233 l 0.7055557,-1.43933 h -0.310445 l -0.7083774,1.43933 v 0.26811 h 0.8128004 v 0.30198 h 0.2794 v -0.30198 z"
         style="fill:#f4da98;fill-opacity:1;stroke-width:0.26458332px"
         id="path1932"
         inkscape:connector-curvature="0" />
    </g>
    <g
       transform="matrix(0.35277777,0,0,-0.35277777,-19,147.6)"
       inkscape:label="aw_sideall"
       id="g891"
       style="fill:#f4da98;fill-opacity:1">
      <g
         id="g893"
         style="fill:#f4da98;fill-opacity:1">
        <g
           clip-path="url(#clipPath899)"
           id="g895"
           style="fill:#f4da98;fill-opacity:1">
          <g
             transform="translate(70.0237,106.1619)"
             id="g901"
             style="fill:#f4da98;fill-opacity:1">
            <path
               inkscape:connector-curvature="0"
               id="path903"
               style="fill:#f4da98;fill-opacity:1;fill-rule:nonzero;stroke:none"
               d="m 0,0 c -2.29,1.068 -4.566,2.225 -6.827,3.473 -2.411,3.347 -4.79,6.772 -7.141,10.264 1.962,-1.81 3.944,-3.534 5.937,-5.212 C -5.344,5.531 -2.666,2.695 0,0 M 7.974,-3.345 C 6.165,-2.674 4.366,-1.942 2.573,-1.161 0.84,0.551 -0.899,2.322 -2.644,4.16 0.853,1.456 4.394,-1.039 7.974,-3.345 m 11.869,-6.845 c -2.497,-0.134 -4.986,-0.168 -7.466,-0.094 -2.587,2.258 -5.196,4.656 -7.82,7.186 2.415,-0.983 4.844,-1.866 7.286,-2.654 2.646,-1.586 5.313,-3.067 8,-4.438 m 7.822,0.748 c -1.95,-0.273 -3.896,-0.476 -5.838,-0.624 -1.977,0.975 -3.943,2.007 -5.898,3.099 3.882,-1.072 7.796,-1.893 11.736,-2.475 m 3.504,-0.452 c 2.542,-0.28 5.095,-0.457 7.657,-0.533 -2.114,-1.203 -4.237,-2.36 -6.38,-3.419 -0.335,-0.165 -0.671,-0.318 -1.006,-0.48 -2.639,1.031 -5.262,2.167 -7.866,3.402 2.525,0.239 5.057,0.58 7.595,1.03 m 14.868,3.861 c -1.832,-1.203 -3.681,-2.341 -5.539,-3.436 -1.961,0.025 -3.915,0.112 -5.864,0.257 3.832,0.822 7.636,1.889 11.403,3.179 m 3.822,1.397 c 2.285,0.882 4.554,1.849 6.807,2.898 -2.227,-2.541 -4.488,-4.997 -6.779,-7.371 -2.48,-0.219 -4.958,-0.34 -7.432,-0.361 2.493,1.512 4.961,3.127 7.404,4.834 M 62.634,5.368 C 61.2,3.589 59.753,1.842 58.29,0.134 c -1.657,-0.811 -3.326,-1.569 -5.002,-2.29 3.164,2.351 6.283,4.855 9.346,7.524 m 4.375,3.947 c 1.887,1.766 3.75,3.594 5.591,5.478 -1.827,-3.375 -3.7,-6.69 -5.612,-9.949 -2.113,-1.262 -4.25,-2.43 -6.4,-3.543 2.173,2.592 4.314,5.263 6.421,8.014 m 3.999,5.351 c 2.142,2.959 4.23,5.986 6.265,9.075 -0.966,-1.915 -1.945,-3.813 -2.938,-5.695 -1.177,-1.253 -2.361,-2.489 -3.558,-3.692 0.076,0.105 0.155,0.207 0.231,0.312 m 11.131,16.767 c 1.409,2.309 2.791,4.647 4.141,7.018 -0.366,-1.058 -0.722,-2.119 -1.096,-3.173 -1.007,-2.839 -2.05,-5.656 -3.111,-8.462 -1.685,-2.03 -3.398,-3.998 -5.131,-5.921 0.613,1.192 1.229,2.38 1.831,3.586 1.149,2.3 2.265,4.621 3.366,6.952 m 7.357,16.643 c -0.467,-1.456 -0.945,-2.908 -1.426,-4.359 -0.614,-1.128 -1.239,-2.246 -1.866,-3.361 1.124,2.558 2.225,5.13 3.292,7.72 m 4.674,11.929 c 0.993,2.671 1.949,5.36 2.883,8.058 -0.816,-3.958 -1.681,-7.916 -2.592,-11.875 -1.189,-2.463 -2.407,-4.902 -3.656,-7.313 1.174,3.694 2.288,7.406 3.365,11.13 m 4.953,18.623 c -0.175,-0.945 -0.357,-1.889 -0.537,-2.834 -0.24,-0.742 -0.481,-1.483 -0.725,-2.223 0.43,1.683 0.852,3.369 1.262,5.057 M 92.088,46.261 c -0.834,-3.331 -1.71,-6.649 -2.607,-9.959 -1.774,-2.412 -3.584,-4.754 -5.422,-7.041 0.7,1.888 1.394,3.78 2.068,5.683 0.988,2.784 1.938,5.583 2.869,8.387 1.52,2.795 3.002,5.625 4.441,8.495 -0.443,-1.855 -0.884,-3.71 -1.349,-5.565 m 3.927,-2.36 c -1.296,-6.683 -2.708,-13.361 -4.24,-20.03 -2.159,-2.055 -4.351,-4.03 -6.577,-5.918 1.833,5.93 3.568,11.897 5.196,17.9 1.915,2.609 3.785,5.299 5.621,8.048 M 86.091,1.112 c -2.5,-1.209 -5.02,-2.323 -7.558,-3.33 2.153,6.096 4.19,12.24 6.125,18.423 2.273,1.888 4.515,3.857 6.72,5.916 C 89.745,15.107 87.982,8.103 86.091,1.112 m 8.388,3.335 c -1.703,-8.3 -3.561,-16.613 -5.587,-24.935 -2.774,-0.475 -5.562,-0.831 -8.358,-1.081 2.272,7.31 4.41,14.64 6.403,21.985 2.538,1.241 5.053,2.586 7.542,4.031 m 3.533,-23.998 c -1.847,-9.688 -3.875,-19.407 -6.121,-29.16 -3.005,0.39 -6.01,0.893 -9.014,1.512 2.445,8.616 4.731,17.229 6.834,25.832 2.781,0.493 5.549,1.102 8.301,1.816 M 81.898,-46.989 c -3.014,0.647 -6.025,1.408 -9.031,2.284 2.591,7.342 5.036,14.709 7.346,22.097 2.819,0.241 5.629,0.595 8.427,1.062 -2.077,-8.474 -4.333,-16.957 -6.742,-25.443 m -9.993,2.565 c -2.999,0.9 -5.992,1.914 -8.977,3.042 2.703,6.075 5.293,12.206 7.771,18.389 0.177,-0.001 0.354,-0.007 0.531,-0.007 2.641,0 5.278,0.1 7.907,0.298 -2.276,-7.262 -4.683,-14.504 -7.232,-21.722 m -9.915,3.394 c -2.975,1.15 -5.942,2.411 -8.897,3.788 -0.091,0.042 -0.183,0.087 -0.274,0.13 2.792,4.797 5.503,9.671 8.123,14.623 2.898,-0.284 5.795,-0.446 8.687,-0.49 -2.437,-6.069 -4.985,-12.086 -7.639,-18.051 m -10.077,4.348 c -2.919,1.391 -5.923,2.941 -9.003,4.666 2.838,3.535 5.617,7.176 8.337,10.92 2.873,-0.549 5.748,-0.979 8.622,-1.29 -2.567,-4.84 -5.224,-9.604 -7.956,-14.296 m -9.046,-14.797 c -3.14,2.686 -6.258,5.479 -9.347,8.391 2.972,3.318 5.889,6.749 8.75,10.285 3.125,-1.755 6.174,-3.331 9.134,-4.745 -2.766,-4.722 -5.61,-9.369 -8.537,-13.931 m -10.077,9.073 c -3.155,2.995 -6.278,6.12 -9.374,9.348 2.94,2.027 5.839,4.185 8.703,6.449 3.15,-2.077 6.244,-3.973 9.267,-5.696 -2.811,-3.472 -5.677,-6.841 -8.596,-10.101 m -14.904,15.254 c -1.475,1.623 -2.939,3.272 -4.395,4.942 2.846,0.791 5.689,1.715 8.526,2.77 3.12,-2.375 6.198,-4.57 9.223,-6.59 -2.805,-2.209 -5.645,-4.318 -8.524,-6.299 -1.618,1.698 -3.23,3.416 -4.83,5.177 m -2.724,-10.061 c -0.7,-0.424 -1.404,-0.822 -2.106,-1.232 -1.616,2.362 -3.227,4.741 -4.826,7.16 -1.502,2.272 -2.993,4.572 -4.475,6.89 2.888,0.497 5.777,1.129 8.665,1.899 1.565,-1.802 3.139,-3.582 4.726,-5.329 1.566,-1.724 3.143,-3.406 4.726,-5.069 -2.217,-1.504 -4.451,-2.951 -6.71,-4.319 M 3.17,-43.717 c -3.088,5.907 -6.168,11.95 -9.237,18.148 2.914,0.191 5.833,0.525 8.752,0.994 1.561,-2.443 3.129,-4.869 4.711,-7.262 1.589,-2.403 3.189,-4.767 4.794,-7.114 -2.994,-1.719 -6.001,-3.316 -9.02,-4.766 M -6.942,-48.04 c -1.551,3.782 -3.095,7.576 -4.627,11.393 -1.459,3.636 -2.907,7.294 -4.35,10.964 1.274,-0.054 2.548,-0.09 3.825,-0.09 1.646,0 3.294,0.052 4.943,0.141 3.127,-6.323 6.267,-12.482 9.414,-18.504 -3.057,-1.44 -6.126,-2.739 -9.205,-3.904 m -8.532,42.026 c 2.745,-0.977 5.511,-1.814 8.294,-2.523 3.051,-5.14 6.145,-10.182 9.285,-15.12 -2.887,-0.45 -5.774,-0.766 -8.656,-0.943 -2.986,6.051 -5.961,12.253 -8.923,18.586 m 18.44,-3.484 c -2.841,3.599 -5.646,7.292 -8.41,11.081 2.468,-1.304 4.955,-2.498 7.456,-3.592 2.951,-2.91 5.882,-5.645 8.789,-8.212 -2.623,0.125 -5.235,0.365 -7.835,0.723 m 8.729,-12.152 c -2.839,-0.742 -5.68,-1.351 -8.521,-1.827 -3.038,4.77 -6.032,9.638 -8.987,14.597 2.735,-0.652 5.487,-1.173 8.254,-1.566 3.042,-3.843 6.126,-7.58 9.254,-11.204 m 9.384,2.93 c -2.765,-1.01 -5.535,-1.893 -8.307,-2.65 -3.01,3.476 -5.978,7.058 -8.907,10.737 2.701,-0.339 5.415,-0.558 8.14,-0.649 3.057,-2.659 6.084,-5.132 9.074,-7.438 m 1.101,0.414 c -2.836,2.172 -5.706,4.499 -8.604,6.99 0.476,-0.008 0.951,-0.021 1.428,-0.021 2.204,0 4.415,0.087 6.632,0.249 2.841,-1.394 5.704,-2.667 8.588,-3.819 -2.675,-1.254 -5.357,-2.385 -8.044,-3.399 m 18.095,-0.113 c -2.697,-2.432 -5.437,-4.745 -8.211,-6.957 -2.938,1.954 -5.924,4.065 -8.953,6.356 2.796,1.073 5.586,2.275 8.369,3.604 2.911,-1.125 5.844,-2.125 8.795,-3.003 m 0.873,0.795 c -2.821,0.822 -5.623,1.762 -8.407,2.811 0.05,0.025 0.099,0.047 0.148,0.071 2.645,1.307 5.265,2.743 7.864,4.267 0.132,-0.002 0.264,-0.009 0.396,-0.01 0.174,-0.001 0.346,-0.001 0.519,-0.001 2.379,0 4.763,0.097 7.148,0.278 -2.52,-2.571 -5.075,-5.048 -7.668,-7.416 m 9.024,-3.256 c -2.658,-3.647 -5.375,-7.192 -8.146,-10.638 -2.964,1.685 -5.996,3.535 -9.084,5.562 2.865,2.293 5.693,4.692 8.476,7.219 2.447,-0.701 4.903,-1.336 7.375,-1.866 0.46,-0.099 0.92,-0.185 1.379,-0.277 m 8.226,11.896 c -2.471,-3.758 -4.999,-7.427 -7.583,-11.001 -0.605,0.119 -1.209,0.23 -1.813,0.359 -2.253,0.484 -4.493,1.061 -6.725,1.687 2.732,2.511 5.422,5.136 8.071,7.871 2.685,0.247 5.369,0.611 8.05,1.084 m 0.758,1.15 c -2.572,-0.48 -5.148,-0.853 -7.724,-1.122 2.534,2.656 5.027,5.421 7.482,8.281 2.378,1.17 4.732,2.443 7.066,3.793 -2.219,-3.732 -4.497,-7.38 -6.824,-10.952 M 74.755,8.672 c -2.088,-4.851 -4.266,-9.639 -6.514,-14.374 -2.564,-0.727 -5.137,-1.355 -7.716,-1.873 2.464,3.809 4.863,7.719 7.206,11.707 2.368,1.421 4.709,2.939 7.024,4.54 m 0.727,1.724 C 73.28,8.836 71.05,7.366 68.8,5.97 c 2.172,3.754 4.291,7.581 6.353,11.485 1.978,2.109 3.922,4.295 5.841,6.54 -1.767,-4.578 -3.604,-9.112 -5.512,-13.599 m 1.562,1.136 c 2.05,4.87 4.02,9.794 5.904,14.77 1.973,2.382 3.906,4.846 5.809,7.369 -1.566,-5.665 -3.221,-11.298 -4.97,-16.896 -2.217,-1.834 -4.466,-3.581 -6.743,-5.243 m 0.257,-14.217 c -2.575,-0.986 -5.166,-1.863 -7.769,-2.637 2.345,4.963 4.599,9.993 6.767,15.082 2.345,1.67 4.665,3.42 6.949,5.269 C 81.369,9.083 79.383,3.179 77.301,-2.685 m 0.784,-0.775 c 2.569,0.995 5.121,2.087 7.651,3.288 -1.958,-7.181 -4.052,-14.345 -6.278,-21.491 -2.78,-0.22 -5.568,-0.328 -8.361,-0.324 2.44,6.126 4.772,12.302 6.988,18.527 M 60.372,-21.422 c -2.827,0.295 -5.655,0.697 -8.481,1.223 2.681,3.72 5.304,7.538 7.863,11.455 2.642,0.504 5.279,1.11 7.905,1.83 -2.346,-4.902 -4.775,-9.74 -7.287,-14.508 m 8.578,14.886 c 2.649,0.763 5.286,1.637 7.907,2.617 -2.171,-6.067 -4.448,-12.088 -6.832,-18.06 -2.858,0.032 -5.72,0.18 -8.583,0.448 2.591,4.927 5.094,9.927 7.508,14.995 M -15.125,7.301 c 2.518,-1.644 5.056,-3.173 7.613,-4.591 2.965,-4.112 5.98,-8.104 9.035,-11.997 -2.702,0.417 -5.389,0.958 -8.06,1.626 -2.903,4.897 -5.767,9.882 -8.588,14.962 m 2.178,6.865 c -1.031,0.946 -2.055,1.921 -3.077,2.904 v -2.02 c 2.363,-3.551 4.749,-7.045 7.173,-10.448 -2.357,1.361 -4.699,2.816 -7.022,4.373 -0.05,0.034 -0.101,0.069 -0.151,0.105 V 6.874 c 2.668,-4.803 5.369,-9.534 8.109,-14.176 -2.72,0.726 -5.425,1.574 -8.109,2.559 v -2.439 c 2.784,-5.942 5.579,-11.777 8.385,-17.468 -2.801,-0.138 -5.596,-0.139 -8.385,-0.017 v -3.457 c 1.172,-2.974 2.344,-5.946 3.527,-8.895 1.53,-3.812 3.072,-7.6 4.62,-11.377 -2.708,-0.999 -5.425,-1.874 -8.147,-2.66 v -1.049 c 2.851,0.813 5.696,1.728 8.531,2.776 0.39,-0.949 0.785,-1.887 1.175,-2.833 h 1.082 c -0.439,1.064 -0.883,2.12 -1.321,3.186 3.105,1.176 6.2,2.5 9.283,3.954 1.26,-2.404 2.522,-4.78 3.784,-7.14 h 1.13 c -1.338,2.498 -2.674,5.016 -4.01,7.564 3.056,1.469 6.1,3.077 9.13,4.819 2.901,-4.221 5.829,-8.347 8.783,-12.383 h 1.233 c -3.079,4.194 -6.129,8.493 -9.151,12.89 0.685,0.4 1.372,0.79 2.055,1.204 2.321,1.406 4.618,2.892 6.895,4.441 3.154,-3.292 6.336,-6.477 9.551,-9.528 -2.805,-3.108 -5.666,-6.101 -8.565,-9.007 h 1.395 c 2.67,2.696 5.311,5.457 7.9,8.325 3.066,-2.888 6.159,-5.658 9.276,-8.325 h 1.532 c -0.01,0.009 -0.021,0.017 -0.031,0.025 2.976,4.635 5.867,9.359 8.677,14.159 0.12,-0.056 0.241,-0.115 0.36,-0.17 2.96,-1.379 5.932,-2.634 8.913,-3.786 -1.534,-3.429 -3.113,-6.835 -4.717,-10.228 h 1.111 c 1.543,3.272 3.06,6.558 4.538,9.863 3.01,-1.139 6.029,-2.155 9.053,-3.063 -0.805,-2.271 -1.649,-4.534 -2.482,-6.8 h 1.064 c 0.796,2.169 1.606,4.336 2.377,6.51 3.027,-0.884 6.06,-1.647 9.096,-2.299 -0.401,-1.404 -0.812,-2.807 -1.221,-4.211 h 1.041 c 0.388,1.333 0.779,2.667 1.159,4 3.022,-0.625 6.047,-1.131 9.071,-1.526 -0.191,-0.824 -0.392,-1.649 -0.586,-2.474 h 1.026 c 0.184,0.782 0.375,1.564 0.556,2.345 2.17,-0.265 4.339,-0.449 6.507,-0.596 v 0.996 c -2.095,0.144 -4.192,0.323 -6.289,0.578 2.276,9.891 4.33,19.747 6.196,29.571 0.031,0.009 0.062,0.019 0.093,0.027 v 5.965 c -0.315,-1.73 -0.63,-3.459 -0.958,-5.191 -2.735,-0.722 -5.487,-1.323 -8.251,-1.825 2.059,8.484 3.949,16.958 5.673,25.417 1.185,0.706 2.364,1.433 3.536,2.182 v 1.186 c -1.082,-0.702 -2.17,-1.388 -3.264,-2.05 1.17,5.796 2.254,11.584 3.264,17.363 v 5.883 C 97.855,21.731 96.374,13.754 94.751,5.764 92.291,4.312 89.804,2.961 87.294,1.711 c 1.937,7.204 3.727,14.423 5.391,21.652 2.202,2.103 4.366,4.292 6.491,6.561 v 1.464 c -1.998,-2.161 -4.026,-4.261 -6.094,-6.274 1.584,6.975 3.044,13.957 4.37,20.946 0.161,0.247 0.327,0.484 0.487,0.731 0.419,0.649 0.825,1.313 1.237,1.969 v 1.906 c -0.405,-0.652 -0.804,-1.31 -1.215,-1.956 0.423,2.284 0.82,4.57 1.215,6.855 v 6.072 c -0.203,-1.267 -0.399,-2.533 -0.613,-3.802 -0.642,-3.797 -1.336,-7.593 -2.055,-11.388 -1.751,-2.683 -3.543,-5.296 -5.369,-7.849 0.656,2.468 1.298,4.941 1.919,7.421 0.821,3.279 1.597,6.558 2.353,9.837 1.293,2.683 2.543,5.401 3.765,8.141 v 2.466 c -0.899,-2.052 -1.811,-4.094 -2.749,-6.116 0.98,4.429 1.889,8.857 2.749,13.284 v 9.626 C 97.384,75.563 95.411,67.905 93.215,60.306 89.618,50.64 85.626,41.16 81.256,31.904 77.745,26.153 74.062,20.588 70.199,15.252 68.905,13.465 67.592,11.72 66.272,9.995 60.818,4.896 55.179,0.305 49.392,-3.745 44.318,-5.696 39.174,-7.25 33.975,-8.34 33.027,-8.538 32.08,-8.716 31.133,-8.885 24.765,-8.173 18.463,-6.826 12.248,-4.829 5.575,-0.821 -0.963,3.879 -7.351,9.259 c -2.884,3.215 -5.777,6.613 -8.673,10.192 v -1.58 c 1.026,-1.256 2.052,-2.495 3.077,-3.705" />
          </g>
          <g
             transform="translate(153.651,396.7811)"
             id="g905"
             style="fill:#f4da98;fill-opacity:1">
            <path
               inkscape:connector-curvature="0"
               id="path907"
               style="fill:#f4da98;fill-opacity:1;fill-rule:nonzero;stroke:none"
               d="M 0,0 C 0.549,-1.693 1.088,-3.392 1.619,-5.095 0.075,-0.926 -1.504,3.218 -3.146,7.318 -3.43,8.104 -3.714,8.891 -4.003,9.675 -2.639,6.472 -1.305,3.246 0,0 M 5.507,-9.081 C 6.344,-12.045 7.143,-15.028 7.92,-18.02 5.694,-11.822 3.369,-5.697 0.939,0.35 0.138,2.816 -0.685,5.268 -1.525,7.712 0.905,2.176 3.249,-3.421 5.507,-9.081 M 0.445,10.687 c -1.18,3.527 -2.392,7.038 -3.661,10.518 3.651,-7.226 7.161,-14.578 10.531,-22.06 1.093,-3.79 2.119,-7.607 3.104,-11.44 -3.172,7.79 -6.496,15.448 -9.974,22.982 m 14.321,-41.676 c -2.63,7.521 -5.4,14.931 -8.312,22.234 -1.037,3.67 -2.133,7.312 -3.262,10.937 3.126,-7.075 6.117,-14.262 8.98,-21.563 0.917,-3.85 1.785,-7.719 2.594,-11.608 m -4.28,2.542 c 0.776,-3.319 1.524,-6.651 2.228,-10.002 -1.619,5.46 -3.301,10.876 -5.074,16.228 -0.83,3.079 -1.694,6.139 -2.582,9.187 1.885,-5.081 3.682,-10.228 5.428,-15.413 M -0.65,-2.861 c 6.548,-19.381 11.946,-39.45 16.199,-60.097 v 8.986 c -0.936,3.836 -1.908,7.648 -2.919,11.435 -0.26,1.165 -0.514,2.334 -0.782,3.495 1.083,-3.664 2.137,-7.347 3.151,-11.058 0.188,-1.025 0.366,-2.054 0.55,-3.08 v 5.55 c -0.585,3.11 -1.19,6.212 -1.837,9.295 0.628,-1.988 1.228,-3.997 1.837,-6 v 3.422 c -1.327,4.283 -2.686,8.543 -4.105,12.757 -0.819,3.5 -1.673,6.983 -2.572,10.445 2.33,-6.142 4.543,-12.375 6.677,-18.672 v 6.468 c -0.278,1.318 -0.553,2.638 -0.842,3.953 0.284,-0.753 0.56,-1.513 0.842,-2.269 v 2.866 c -0.797,2.104 -1.603,4.199 -2.42,6.285 -0.95,3.986 -1.946,7.955 -3.01,11.896 1.854,-4.256 3.663,-8.554 5.43,-12.895 v 2.62 c -2.356,5.721 -4.782,11.372 -7.291,16.945 -0.007,0.024 -0.013,0.048 -0.02,0.072 L 8.228,-0.445 C 4.878,6.991 1.377,14.286 -2.248,21.471 h -2.145 c 0.284,-0.778 0.571,-1.553 0.851,-2.332 -0.378,0.783 -0.775,1.551 -1.157,2.332 H -5.812 C -4.002,17.777 -2.216,14.064 -0.483,10.31 0.61,7.042 1.671,3.756 2.688,0.449 0,6.844 -2.804,13.156 -5.719,19.394 -5.981,20.09 -6.26,20.776 -6.525,21.471 h -1.288 c 0.388,-0.82 0.783,-1.636 1.168,-2.459 0.56,-1.492 1.107,-2.992 1.652,-4.494 -1.019,2.331 -2.058,4.646 -3.11,6.953 h -2.09 c 0.487,-1.114 0.985,-2.221 1.465,-3.34 2.839,-6.9 5.539,-13.894 8.078,-20.992" />
          </g>
          <g
             transform="translate(102.7406,393.8872)"
             id="g909"
             style="fill:#f4da98;fill-opacity:1">
            <path
               inkscape:connector-curvature="0"
               id="path911-3"
               style="fill:#f4da98;fill-opacity:1;fill-rule:nonzero;stroke:none"
               d="m 0,0 h -0.11 c -0.285,0.036 -0.489,0.182 -0.611,0.439 -0.025,0.065 -0.042,0.127 -0.047,0.187 -0.004,0.06 0,0.12 0.015,0.182 l 0.266,0.976 c 0.222,0.904 0.466,1.671 0.732,2.303 0.111,0.251 0.22,0.505 0.325,0.761 0.254,0.605 0.52,1.203 0.795,1.797 L 1.424,6.79 C 1.462,6.881 1.507,6.966 1.557,7.047 1.606,7.129 1.676,7.197 1.765,7.251 1.79,7.267 1.81,7.289 1.824,7.317 1.838,7.345 1.85,7.371 1.857,7.396 1.865,7.419 1.871,7.441 1.877,7.462 1.991,7.687 2.164,7.809 2.397,7.829 2.769,7.861 3.021,7.723 3.156,7.414 3.238,7.233 3.288,7.05 3.305,6.864 3.31,6.195 3.272,5.506 3.193,4.797 3.346,4.904 3.441,5.029 3.482,5.173 3.623,5.48 3.792,5.77 3.988,6.041 4.09,6.184 4.183,6.326 4.268,6.467 4.352,6.608 4.445,6.74 4.549,6.863 4.713,7.051 4.846,7.26 4.946,7.489 5.014,7.629 5.109,7.755 5.233,7.866 5.388,8.02 5.524,8.186 5.643,8.364 5.713,8.477 5.79,8.587 5.875,8.695 5.924,8.746 5.969,8.801 6.011,8.857 6.167,9.059 6.338,9.25 6.522,9.435 6.677,9.582 6.837,9.663 7.003,9.677 7.036,9.68 7.111,9.679 7.229,9.672 7.347,9.666 7.48,9.579 7.629,9.411 7.719,9.298 7.77,9.179 7.78,9.053 7.787,8.98 7.777,8.902 7.751,8.819 L 7.593,8.223 C 7.487,7.739 7.344,7.271 7.162,6.82 6.972,6.329 6.818,5.828 6.702,5.319 6.586,4.811 6.455,4.356 6.309,3.956 6.265,3.851 6.225,3.743 6.187,3.633 L 6.15,3.479 C 6.062,3.117 5.971,2.577 5.881,1.86 5.894,1.714 5.887,1.573 5.862,1.437 5.837,1.301 5.756,1.183 5.616,1.083 5.522,1.022 5.425,0.986 5.325,0.978 5.266,0.973 5.181,0.982 5.071,1.006 4.962,1.03 4.866,1.132 4.783,1.312 L 4.739,1.369 C 4.648,1.481 4.593,1.667 4.569,1.926 4.543,2.238 4.61,2.639 4.775,3.128 l 0.1,0.351 C 4.89,3.546 4.907,3.611 4.929,3.674 4.974,3.845 5.009,4.019 5.033,4.195 5.055,4.484 5.131,4.762 5.262,5.028 5.335,5.181 5.384,5.35 5.408,5.533 L 5.457,5.778 C 5.013,5.277 4.645,4.736 4.354,4.155 4.258,3.966 4.156,3.783 4.051,3.607 L 3.869,3.27 C 3.752,3.012 3.602,2.778 3.419,2.567 3.221,2.383 3.025,2.282 2.833,2.266 2.614,2.246 2.396,2.332 2.179,2.52 2.092,2.592 2.034,2.681 2.005,2.786 1.997,2.878 1.979,2.969 1.951,3.057 1.923,3.145 1.905,3.235 1.896,3.328 1.889,3.421 1.891,3.517 1.902,3.615 1.913,3.713 1.912,3.842 1.898,4 1.889,4.04 1.881,4.083 1.877,4.13 1.868,4.229 1.872,4.333 1.89,4.442 1.817,4.429 1.776,4.398 1.768,4.351 1.715,4.111 1.631,3.884 1.516,3.667 1.419,3.477 1.341,3.278 1.282,3.068 1.224,2.859 1.152,2.627 1.067,2.372 0.961,2.055 0.829,1.615 0.671,1.052 0.63,0.901 0.532,0.649 0.375,0.294 0.305,0.114 0.18,0.016 0,0" />
          </g>
          <g
             transform="translate(110.2992,395.3823)"
             id="g913"
             style="fill:#f4da98;fill-opacity:1">
            <path
               inkscape:connector-curvature="0"
               id="path915-6"
               style="fill:#f4da98;fill-opacity:1;fill-rule:nonzero;stroke:none"
               d="m 0,0 c -0.061,-0.005 -0.146,0.01 -0.261,0.047 -0.113,0.037 -0.209,0.156 -0.287,0.356 -0.017,0.052 -0.029,0.105 -0.033,0.158 -0.009,0.093 0.007,0.188 0.045,0.285 0.082,0.215 0.119,0.432 0.113,0.653 0.018,0.262 0.075,0.521 0.173,0.778 0.102,0.37 0.162,0.743 0.184,1.119 0.034,0.365 0.078,0.633 0.129,0.805 0.042,0.131 0.075,0.264 0.096,0.4 C 0.222,5.182 0.374,5.737 0.616,6.267 0.708,6.509 0.881,6.642 1.133,6.664 1.312,6.68 1.477,6.637 1.626,6.537 1.74,6.459 1.803,6.347 1.815,6.202 1.821,6.135 1.814,6.058 1.796,5.969 1.512,4.94 1.329,4.201 1.247,3.752 1.191,3.467 1.127,3.184 1.051,2.902 0.939,2.498 0.881,2.084 0.879,1.663 0.875,1.542 0.852,1.43 0.808,1.325 0.734,1.158 0.7,0.988 0.702,0.814 0.68,0.524 0.552,0.302 0.317,0.148 0.212,0.058 0.105,0.009 0,0" />
          </g>
          <g
             transform="translate(113.4173,397.4814)"
             id="g917"
             style="fill:#f4da98;fill-opacity:1">
            <path
               inkscape:connector-curvature="0"
               id="path919-7"
               style="fill:#f4da98;fill-opacity:1;fill-rule:nonzero;stroke:none"
               d="m 0,0 c 0.047,0.004 0.085,0.024 0.115,0.061 0.209,0.206 0.543,0.522 1.001,0.95 L 1.31,1.209 c 0.09,0.108 0.189,0.204 0.296,0.287 0.174,0.142 0.331,0.3 0.47,0.473 0.073,0.086 0.15,0.17 0.23,0.251 C 2.416,2.33 2.468,2.428 2.46,2.515 2.454,2.587 2.41,2.67 2.328,2.764 1.699,3.452 1.258,3.868 1.005,4.013 0.935,4.047 0.867,4.084 0.804,4.126 L 0.815,3.997 C 0.827,3.857 0.815,3.759 0.78,3.702 0.683,3.586 0.637,3.435 0.64,3.249 0.563,2.66 0.43,2.082 0.239,1.517 0.18,1.351 0.147,1.181 0.143,1.007 0.148,0.867 0.117,0.733 0.048,0.607 -0.038,0.432 -0.07,0.232 -0.051,0.006 Z m -1.334,-2.998 c -0.126,-0.01 -0.254,0.032 -0.383,0.128 -0.15,0.12 -0.235,0.29 -0.255,0.509 -0.008,0.107 0.012,0.209 0.064,0.307 0.162,0.289 0.26,0.592 0.292,0.909 0.024,0.176 0.061,0.347 0.11,0.511 0.05,0.166 0.091,0.33 0.123,0.493 0.038,0.251 0.108,0.492 0.208,0.721 0.027,0.076 0.036,0.157 0.029,0.243 -0.01,0.12 0.009,0.232 0.061,0.337 0.138,0.26 0.207,0.54 0.207,0.841 0.014,0.155 0.057,0.31 0.13,0.463 0.055,0.146 0.092,0.293 0.112,0.442 0.031,0.19 0.091,0.376 0.183,0.558 0.011,0.021 0.018,0.048 0.022,0.082 0.004,0.034 0.019,0.062 0.043,0.084 0.025,0.022 0.035,0.051 0.033,0.083 L -0.39,3.881 c -0.011,0.14 0.031,0.27 0.126,0.393 0.096,0.122 0.231,0.191 0.404,0.206 0.027,0.002 0.051,0.006 0.074,0.011 0.023,0.006 0.047,0.026 0.07,0.061 C 0.236,4.568 0.19,4.591 0.147,4.621 0.057,4.673 -0.038,4.715 -0.134,4.747 -0.155,4.751 -0.189,4.767 -0.238,4.792 -0.288,4.819 -0.346,4.85 -0.412,4.888 -0.479,4.925 -0.541,4.962 -0.598,4.997 l -0.177,0.085 c -0.261,0.151 -0.402,0.339 -0.421,0.565 -0.015,0.16 0.03,0.334 0.134,0.524 0.071,0.107 0.176,0.166 0.316,0.179 0.1,0.008 0.195,-0.01 0.285,-0.056 C -0.271,6.197 -0.079,6.103 0.116,6.013 0.388,5.896 0.65,5.765 0.903,5.62 1.278,5.385 1.637,5.126 1.976,4.841 L 2.515,4.417 C 2.952,4.073 3.305,3.645 3.57,3.133 3.628,3.011 3.663,2.883 3.675,2.751 3.685,2.631 3.675,2.51 3.646,2.387 3.574,1.985 3.426,1.635 3.201,1.334 2.977,1.033 2.721,0.753 2.437,0.495 2.331,0.392 2.219,0.298 2.1,0.214 1.904,0.07 1.729,-0.1 1.571,-0.294 1.506,-0.38 1.425,-0.451 1.329,-0.506 1.188,-0.585 1.031,-0.729 0.855,-0.939 0.724,-1.118 0.563,-1.269 0.373,-1.393 0.297,-1.439 0.237,-1.508 0.195,-1.599 0.153,-1.689 0.067,-1.794 -0.063,-1.913 -0.357,-2.22 -0.656,-2.516 -0.96,-2.804 -1.083,-2.922 -1.208,-2.986 -1.334,-2.998" />
          </g>
          <g
             transform="translate(117.1019,395.9775)"
             id="g921"
             style="fill:#f4da98;fill-opacity:1">
            <path
               inkscape:connector-curvature="0"
               id="path923-5"
               style="fill:#f4da98;fill-opacity:1;fill-rule:nonzero;stroke:none"
               d="m 0,0 c -0.059,-0.005 -0.146,0.01 -0.26,0.047 -0.113,0.037 -0.209,0.156 -0.287,0.356 -0.017,0.053 -0.029,0.105 -0.033,0.158 -0.009,0.093 0.006,0.188 0.045,0.285 0.081,0.215 0.119,0.432 0.113,0.653 0.018,0.262 0.075,0.521 0.173,0.778 0.102,0.37 0.162,0.743 0.184,1.119 0.034,0.365 0.078,0.633 0.129,0.805 0.042,0.131 0.075,0.264 0.096,0.4 C 0.223,5.182 0.375,5.737 0.616,6.267 0.709,6.509 0.882,6.642 1.134,6.664 1.313,6.68 1.478,6.637 1.627,6.537 1.741,6.459 1.804,6.347 1.816,6.202 1.822,6.135 1.816,6.058 1.797,5.969 1.512,4.94 1.329,4.202 1.248,3.752 1.193,3.467 1.128,3.184 1.052,2.902 0.939,2.498 0.882,2.084 0.879,1.663 0.876,1.542 0.853,1.43 0.808,1.325 0.735,1.158 0.7,0.988 0.702,0.814 0.681,0.524 0.553,0.302 0.318,0.148 0.213,0.058 0.107,0.009 0,0" />
          </g>
          <g
             transform="translate(96.6859,384.3232)"
             id="g925"
             style="fill:#f4da98;fill-opacity:1">
            <path
               inkscape:connector-curvature="0"
               id="path927-3"
               style="fill:#f4da98;fill-opacity:1;fill-rule:nonzero;stroke:none"
               d="m 0,0 h -0.11 c -0.285,0.036 -0.488,0.182 -0.611,0.439 -0.025,0.065 -0.041,0.126 -0.047,0.186 -0.004,0.06 0,0.121 0.015,0.183 l 0.266,0.976 c 0.221,0.904 0.466,1.671 0.731,2.303 0.112,0.251 0.221,0.504 0.325,0.761 0.255,0.605 0.521,1.203 0.797,1.797 L 1.424,6.79 C 1.463,6.88 1.507,6.966 1.557,7.047 1.606,7.128 1.676,7.197 1.765,7.251 1.79,7.267 1.81,7.289 1.824,7.317 1.839,7.345 1.85,7.371 1.857,7.395 1.865,7.419 1.871,7.442 1.877,7.462 1.99,7.687 2.164,7.808 2.396,7.829 2.769,7.861 3.021,7.723 3.155,7.414 3.238,7.233 3.288,7.05 3.305,6.864 3.31,6.195 3.272,5.507 3.194,4.797 3.346,4.903 3.441,5.029 3.482,5.173 3.623,5.48 3.792,5.769 3.988,6.041 4.09,6.183 4.183,6.325 4.268,6.466 4.353,6.608 4.446,6.74 4.549,6.863 4.714,7.051 4.846,7.26 4.946,7.489 5.014,7.629 5.11,7.754 5.234,7.866 5.389,8.021 5.524,8.186 5.643,8.364 5.713,8.477 5.79,8.587 5.874,8.695 5.924,8.746 5.969,8.8 6.011,8.858 6.167,9.059 6.338,9.251 6.522,9.435 6.677,9.582 6.837,9.663 7.003,9.677 7.036,9.68 7.111,9.678 7.229,9.672 7.347,9.666 7.479,9.579 7.629,9.411 7.719,9.298 7.77,9.178 7.78,9.052 7.787,8.979 7.777,8.901 7.751,8.819 L 7.592,8.223 C 7.487,7.739 7.344,7.271 7.163,6.82 6.972,6.328 6.818,5.828 6.702,5.32 6.586,4.811 6.455,4.356 6.309,3.955 6.265,3.851 6.224,3.743 6.187,3.633 L 6.15,3.479 C 6.062,3.117 5.972,2.577 5.88,1.86 5.893,1.713 5.887,1.572 5.862,1.437 5.837,1.3 5.756,1.183 5.617,1.084 5.521,1.022 5.425,0.986 5.325,0.978 5.265,0.972 5.181,0.982 5.071,1.006 4.962,1.03 4.866,1.132 4.783,1.312 L 4.739,1.369 C 4.648,1.481 4.592,1.667 4.569,1.925 4.542,2.238 4.61,2.639 4.775,3.128 l 0.1,0.351 C 4.89,3.546 4.907,3.612 4.929,3.673 4.974,3.845 5.009,4.018 5.033,4.194 5.055,4.484 5.131,4.762 5.262,5.028 5.335,5.181 5.385,5.35 5.408,5.533 L 5.457,5.777 C 5.013,5.277 4.645,4.737 4.354,4.155 4.257,3.966 4.156,3.784 4.051,3.607 L 3.87,3.27 C 3.752,3.012 3.602,2.778 3.419,2.568 3.221,2.383 3.025,2.283 2.833,2.266 2.614,2.247 2.396,2.331 2.179,2.52 2.092,2.592 2.034,2.681 2.005,2.786 1.997,2.878 1.979,2.969 1.951,3.057 1.923,3.145 1.905,3.235 1.897,3.328 1.889,3.421 1.891,3.517 1.902,3.614 1.914,3.713 1.913,3.842 1.898,4 1.889,4.04 1.881,4.083 1.877,4.129 1.868,4.229 1.873,4.333 1.89,4.441 1.817,4.429 1.776,4.398 1.768,4.351 1.715,4.112 1.631,3.883 1.517,3.667 1.419,3.477 1.341,3.278 1.282,3.068 1.224,2.859 1.151,2.627 1.067,2.373 0.961,2.055 0.829,1.615 0.671,1.053 0.631,0.902 0.532,0.649 0.376,0.293 0.305,0.114 0.18,0.016 0,0" />
          </g>
          <g
             transform="translate(105.6146,388.5078)"
             id="g929"
             style="fill:#f4da98;fill-opacity:1">
            <path
               inkscape:connector-curvature="0"
               id="path931"
               style="fill:#f4da98;fill-opacity:1;fill-rule:nonzero;stroke:none"
               d="m 0,0 0.01,0.011 c 0.061,0.051 0.116,0.103 0.161,0.155 0.047,0.05 0.073,0.109 0.081,0.177 0.036,0.19 0.101,0.374 0.192,0.549 0.063,0.119 0.115,0.242 0.154,0.369 0.039,0.128 0.08,0.254 0.123,0.378 0.112,0.317 0.167,0.5 0.162,0.546 C 0.874,2.292 0.796,2.378 0.649,2.445 0.58,2.48 0.515,2.494 0.456,2.489 0.376,2.482 0.305,2.436 0.241,2.35 0.179,2.264 0.118,2.172 0.06,2.073 -0.016,1.939 -0.095,1.812 -0.178,1.691 -0.319,1.471 -0.38,1.245 -0.359,1.013 -0.351,0.906 -0.324,0.801 -0.281,0.698 -0.234,0.542 -0.174,0.386 -0.101,0.232 Z m 0.157,-1.904 c -0.013,-0.001 -0.072,-0.005 -0.175,-0.01 -0.103,-0.006 -0.235,0.064 -0.395,0.211 -0.279,0.284 -0.498,0.609 -0.657,0.976 -0.274,0.525 -0.463,1.081 -0.568,1.667 -0.004,0.04 -0.009,0.077 -0.019,0.109 l -0.009,0.1 c -0.018,0.206 0.036,0.391 0.162,0.556 0.109,0.117 0.16,0.232 0.15,0.344 L -1.356,2.08 c 0,0.086 0.026,0.162 0.081,0.227 l 0.186,0.277 c 0.162,0.289 0.374,0.539 0.637,0.749 0.069,0.052 0.127,0.118 0.174,0.196 C -0.242,3.579 -0.2,3.626 -0.15,3.67 0.046,3.875 0.233,3.985 0.413,4 0.566,4.014 0.749,3.954 0.961,3.818 1.375,3.6 1.72,3.295 1.995,2.905 2.071,2.798 2.118,2.681 2.136,2.555 2.178,2.07 2.108,1.603 1.927,1.152 L 1.7,0.65 C 1.491,0.204 1.348,-0.144 1.269,-0.391 1.231,-0.569 1.161,-0.732 1.061,-0.881 1.05,-0.902 1.039,-0.923 1.031,-0.944 1.023,-0.965 1.011,-0.986 0.992,-1.008 0.807,-1.191 0.659,-1.405 0.547,-1.649 0.459,-1.804 0.33,-1.889 0.157,-1.904" />
          </g>
          <g
             transform="translate(110.5111,385.6631)"
             id="g933"
             style="fill:#f4da98;fill-opacity:1">
            <path
               inkscape:connector-curvature="0"
               id="path935"
               style="fill:#f4da98;fill-opacity:1;fill-rule:nonzero;stroke:none"
               d="M 0,0 C -0.266,-0.023 -0.469,0.12 -0.609,0.429 -0.61,0.436 -0.616,0.45 -0.629,0.472 -0.641,0.495 -0.647,0.522 -0.65,0.556 l -0.01,0.11 C -0.679,0.878 -0.727,1.081 -0.804,1.275 -0.881,1.469 -0.936,1.666 -0.966,1.863 -0.993,2.095 -1.056,2.317 -1.154,2.529 -1.188,2.613 -1.21,2.702 -1.218,2.795 L -1.244,2.973 C -1.282,3.178 -1.36,3.505 -1.48,3.957 -1.642,3.742 -1.731,3.537 -1.747,3.34 -1.802,3.115 -1.868,2.896 -1.945,2.681 -2.023,2.467 -2.088,2.253 -2.136,2.042 -2.212,1.761 -2.396,1.607 -2.688,1.582 L -2.758,1.576 C -3.026,1.593 -3.206,1.734 -3.297,2 c -0.016,0.046 -0.027,0.089 -0.031,0.128 -0.005,0.06 0.004,0.118 0.025,0.173 0.092,0.249 0.157,0.499 0.196,0.75 0.034,0.218 0.114,0.519 0.237,0.904 0.123,0.386 0.182,0.639 0.179,0.759 -0.003,0.12 0.019,0.236 0.07,0.347 l 0.023,0.083 c 0.027,0.082 0.069,0.138 0.125,0.166 0.059,0.028 0.086,0.063 0.082,0.103 -0.002,0.025 -0.016,0.055 -0.043,0.086 -0.026,0.031 -0.041,0.063 -0.044,0.097 -0.005,0.073 0.057,0.162 0.188,0.267 0.128,0.072 0.186,0.177 0.174,0.316 -10e-4,0.007 0.021,0.022 0.065,0.046 0.084,0.041 0.183,0.067 0.295,0.076 0.591,0.052 0.984,-0.335 1.176,-1.162 0.035,-0.171 0.112,-0.405 0.232,-0.702 0.049,-0.103 0.091,-0.203 0.127,-0.3 L -0.066,3.749 0.005,3.735 C 0.014,3.943 0.055,4.137 0.13,4.318 0.204,4.499 0.246,4.686 0.256,4.881 L 0.27,4.953 C 0.364,5.168 0.445,5.393 0.512,5.626 0.584,5.947 0.708,6.252 0.884,6.542 0.965,6.683 1.015,6.838 1.033,7.007 1.069,7.211 1.155,7.459 1.29,7.752 1.357,7.899 1.417,8.051 1.471,8.209 1.52,8.334 1.598,8.442 1.704,8.531 1.897,8.689 2.057,8.773 2.184,8.784 2.303,8.794 2.454,8.744 2.638,8.633 2.744,8.562 2.804,8.457 2.816,8.318 2.823,8.231 2.814,8.147 2.788,8.064 L 2.741,7.91 C 2.641,7.606 2.522,7.312 2.387,7.025 2.224,6.676 2.088,6.316 1.979,5.945 1.917,5.746 1.851,5.549 1.78,5.356 1.737,5.238 1.701,5.115 1.672,4.985 1.629,4.787 1.56,4.594 1.462,4.405 1.429,4.335 1.412,4.252 1.413,4.159 1.411,4.105 1.402,4.052 1.387,3.996 L 1.187,3.196 0.944,2.292 C 0.905,2.127 0.864,1.926 0.821,1.688 0.778,1.45 0.71,1.069 0.615,0.546 0.558,0.213 0.353,0.031 0,0" />
          </g>
          <g
             transform="translate(112.9408,386.5791)"
             id="g937"
             style="fill:#f4da98;fill-opacity:1">
            <path
               inkscape:connector-curvature="0"
               id="path939"
               style="fill:#f4da98;fill-opacity:1;fill-rule:nonzero;stroke:none"
               d="m 0,0 c -0.06,-0.005 -0.146,0.011 -0.261,0.047 -0.113,0.037 -0.208,0.156 -0.286,0.356 -0.018,0.052 -0.029,0.105 -0.034,0.158 -0.008,0.093 0.007,0.188 0.046,0.285 0.081,0.215 0.119,0.432 0.113,0.653 0.017,0.262 0.074,0.521 0.173,0.778 0.102,0.37 0.162,0.743 0.183,1.119 0.035,0.365 0.079,0.634 0.13,0.805 0.041,0.131 0.074,0.264 0.095,0.4 C 0.223,5.182 0.375,5.737 0.616,6.268 0.708,6.51 0.882,6.642 1.134,6.664 1.312,6.68 1.478,6.637 1.627,6.537 1.74,6.459 1.804,6.348 1.816,6.202 1.822,6.135 1.815,6.058 1.796,5.969 1.512,4.94 1.329,4.201 1.248,3.752 1.192,3.467 1.127,3.183 1.051,2.902 0.939,2.498 0.882,2.084 0.879,1.663 0.875,1.542 0.853,1.429 0.808,1.325 0.735,1.158 0.7,0.988 0.702,0.814 0.681,0.524 0.553,0.302 0.318,0.148 0.212,0.059 0.106,0.009 0,0" />
          </g>
          <g
             transform="translate(115.2093,385.894)"
             id="g941"
             style="fill:#f4da98;fill-opacity:1">
            <path
               inkscape:connector-curvature="0"
               id="path943"
               style="fill:#f4da98;fill-opacity:1;fill-rule:nonzero;stroke:none"
               d="m 0,0 c -0.054,-0.004 -0.135,0.005 -0.244,0.028 -0.109,0.024 -0.202,0.137 -0.28,0.337 -0.026,0.065 -0.041,0.127 -0.046,0.187 -0.008,0.087 0.002,0.171 0.027,0.253 0.075,0.214 0.106,0.435 0.093,0.661 0.007,0.235 0.047,0.466 0.12,0.693 l 0.022,0.092 c 0.087,0.376 0.14,0.753 0.158,1.133 0.016,0.38 0.045,0.643 0.086,0.791 C -0.024,4.322 0,4.467 0.008,4.608 0.058,5.187 0.192,5.751 0.412,6.3 0.462,6.424 0.501,6.551 0.529,6.681 0.564,6.885 0.634,7.092 0.735,7.302 L 0.486,7.28 C 0.341,7.267 0.21,7.236 0.094,7.186 -0.061,7.111 -0.224,7.067 -0.396,7.052 -0.575,7.036 -0.727,7.07 -0.847,7.153 c -0.163,0.1 -0.252,0.242 -0.268,0.429 -0.01,0.105 0.011,0.219 0.06,0.341 0.049,0.121 0.145,0.225 0.284,0.31 0.244,0.122 0.475,0.193 0.694,0.212 C 0.01,8.453 0.092,8.47 0.17,8.497 0.554,8.617 0.946,8.722 1.347,8.811 1.826,8.913 2.18,9.004 2.407,9.084 2.608,9.155 2.812,9.2 3.018,9.218 L 3.317,9.234 C 3.674,9.205 3.872,9.048 3.91,8.764 3.938,8.371 3.779,8.117 3.436,8 3.083,7.901 2.728,7.824 2.372,7.766 2.259,7.75 2.171,7.713 2.104,7.658 2.04,7.601 1.985,7.515 1.942,7.397 1.8,6.963 1.685,6.521 1.596,6.072 1.547,5.8 1.432,5.278 1.251,4.506 1.205,4.281 1.164,4.053 1.131,3.823 1.089,3.531 1.038,3.242 0.976,2.956 0.877,2.546 0.834,2.131 0.844,1.71 0.848,1.59 0.828,1.475 0.784,1.363 0.718,1.197 0.689,1.024 0.699,0.844 0.684,0.555 0.563,0.324 0.338,0.15 0.226,0.059 0.112,0.01 0,0" />
          </g>
          <g
             transform="translate(119.222,389.6982)"
             id="g945"
             style="fill:#f4da98;fill-opacity:1">
            <path
               inkscape:connector-curvature="0"
               id="path947"
               style="fill:#f4da98;fill-opacity:1;fill-rule:nonzero;stroke:none"
               d="m 0,0 0.01,0.011 c 0.062,0.051 0.116,0.103 0.162,0.155 0.046,0.05 0.072,0.109 0.08,0.177 0.037,0.191 0.101,0.374 0.192,0.549 0.064,0.119 0.115,0.242 0.154,0.369 0.039,0.128 0.08,0.254 0.123,0.378 0.112,0.318 0.167,0.5 0.163,0.546 C 0.874,2.292 0.796,2.378 0.65,2.446 0.58,2.48 0.515,2.495 0.456,2.489 0.376,2.482 0.305,2.436 0.242,2.35 0.179,2.264 0.118,2.172 0.06,2.073 -0.016,1.939 -0.095,1.812 -0.178,1.691 -0.319,1.471 -0.38,1.245 -0.359,1.013 -0.351,0.906 -0.324,0.801 -0.281,0.698 -0.234,0.542 -0.174,0.386 -0.1,0.232 Z m 0.157,-1.904 c -0.013,-0.001 -0.071,-0.004 -0.175,-0.01 -0.103,-0.005 -0.235,0.064 -0.394,0.211 -0.279,0.284 -0.499,0.609 -0.658,0.977 -0.274,0.524 -0.463,1.08 -0.568,1.666 -0.004,0.04 -0.009,0.077 -0.019,0.11 l -0.009,0.099 c -0.018,0.206 0.036,0.391 0.163,0.556 0.109,0.117 0.159,0.232 0.149,0.344 L -1.356,2.08 c 0,0.087 0.026,0.163 0.081,0.227 l 0.186,0.278 c 0.162,0.288 0.375,0.538 0.637,0.748 0.069,0.053 0.127,0.118 0.174,0.196 0.036,0.05 0.078,0.097 0.129,0.142 0.195,0.204 0.383,0.314 0.562,0.33 C 0.566,4.014 0.749,3.954 0.961,3.818 1.375,3.6 1.72,3.295 1.995,2.905 2.071,2.798 2.118,2.681 2.136,2.556 2.179,2.071 2.109,1.603 1.927,1.152 L 1.7,0.651 C 1.491,0.204 1.349,-0.143 1.27,-0.391 1.231,-0.569 1.162,-0.732 1.062,-0.881 1.05,-0.902 1.04,-0.923 1.032,-0.944 1.023,-0.965 1.011,-0.986 0.992,-1.008 0.808,-1.191 0.659,-1.405 0.547,-1.648 0.46,-1.804 0.33,-1.889 0.157,-1.904" />
          </g>
          <g
             transform="translate(123.2621,392.1792)"
             id="g949"
             style="fill:#f4da98;fill-opacity:1">
            <path
               inkscape:connector-curvature="0"
               id="path951"
               style="fill:#f4da98;fill-opacity:1;fill-rule:nonzero;stroke:none"
               d="M 0,0 C 0.771,0.596 1.499,1.252 2.187,1.968 2.267,2.042 2.344,2.119 2.417,2.199 2.102,2.279 1.808,2.317 1.534,2.313 L 1.384,2.31 C 1.284,2.301 1.18,2.282 1.072,2.253 0.964,2.223 0.864,2.201 0.772,2.186 0.572,2.169 0.462,2.059 0.439,1.855 0.398,1.477 0.297,1.11 0.135,0.755 0.021,0.531 -0.024,0.279 0,0 m -1.685,-5.768 c -0.099,-0.009 -0.209,0.022 -0.328,0.091 -0.207,0.136 -0.321,0.34 -0.344,0.613 -0.008,0.079 -0.005,0.164 0.007,0.251 0.067,0.314 0.129,0.63 0.188,0.951 0.136,0.74 0.285,1.48 0.449,2.217 l 0.165,0.747 c 0.1,0.471 0.209,0.935 0.33,1.394 0.044,0.178 0.082,0.355 0.114,0.532 0.043,0.265 0.111,0.525 0.203,0.781 0.009,0.041 0.012,0.078 0.009,0.111 -0.003,0.04 -0.018,0.102 -0.045,0.186 -0.055,0.09 -0.088,0.204 -0.101,0.344 -0.006,0.072 0.005,0.154 0.034,0.243 0.029,0.09 0.132,0.199 0.308,0.328 0.201,0.145 0.416,0.248 0.645,0.308 0.334,0.089 0.694,0.15 1.078,0.185 C 1.213,3.53 1.403,3.54 1.597,3.543 1.717,3.547 1.84,3.555 1.966,3.565 2.455,3.561 2.925,3.465 3.377,3.277 3.411,3.26 3.449,3.247 3.49,3.237 3.816,3.111 3.992,2.899 4.019,2.601 4.033,2.428 3.992,2.247 3.895,2.058 3.697,1.712 3.452,1.417 3.16,1.17 3.091,1.111 3.026,1.048 2.965,0.983 2.639,0.66 2.305,0.346 1.964,0.042 1.783,-0.115 1.606,-0.277 1.434,-0.446 1.075,-0.786 0.859,-0.97 0.785,-1 0.71,-1.03 0.649,-1.081 0.603,-1.151 0.87,-1.389 1.16,-1.564 1.472,-1.678 1.687,-1.767 1.89,-1.872 2.081,-1.996 2.358,-2.179 2.647,-2.348 2.949,-2.502 3.139,-2.599 3.242,-2.757 3.262,-2.977 3.273,-3.116 3.242,-3.253 3.167,-3.387 3.036,-3.579 2.852,-3.685 2.612,-3.706 2.473,-3.718 2.353,-3.682 2.251,-3.597 c -0.266,0.217 -0.557,0.396 -0.87,0.536 -0.265,0.124 -0.52,0.276 -0.762,0.456 -0.036,0.03 -0.076,0.048 -0.12,0.054 -0.045,0.006 -0.082,0.016 -0.113,0.03 -0.032,0.014 -0.068,0.026 -0.109,0.036 -0.221,0.081 -0.375,0.192 -0.461,0.331 -0.054,0.082 -0.152,0.134 -0.294,0.155 -0.109,-0.21 -0.17,-0.43 -0.183,-0.658 L -0.706,-2.942 -1.003,-4.263 C -1.039,-4.454 -1.06,-4.64 -1.064,-4.821 -1.087,-5.097 -1.18,-5.339 -1.343,-5.547 l -0.01,-0.001 c -0.094,-0.136 -0.206,-0.209 -0.332,-0.22" />
          </g>
        </g>
      </g>
    </g>
  </g>
</svg>
