<?xml version="1.0" encoding="UTF-8" standalone="no"?>
<!-- Created with Inkscape (http://www.inkscape.org/) -->

<svg
   xmlns:dc="http://purl.org/dc/elements/1.1/"
   xmlns:cc="http://creativecommons.org/ns#"
   xmlns:rdf="http://www.w3.org/1999/02/22-rdf-syntax-ns#"
   xmlns:svg="http://www.w3.org/2000/svg"
   xmlns="http://www.w3.org/2000/svg"
   xmlns:xlink="http://www.w3.org/1999/xlink"
   xmlns:sodipodi="http://sodipodi.sourceforge.net/DTD/sodipodi-0.dtd"
   xmlns:inkscape="http://www.inkscape.org/namespaces/inkscape"
   version="1.1"
   id="svg2"
   xml:space="preserve"
   width="20.32mm"
   height="128.5mm"
   viewBox="0 0 76.8 485.66931"
   sodipodi:docname="MIDI_CV.svg"
   inkscape:version="0.92.5 (2060ec1f9f, 2020-04-08)"><metadata
     id="metadata8"><rdf:RDF><cc:Work
         rdf:about=""><dc:format>image/svg+xml</dc:format><dc:type
           rdf:resource="http://purl.org/dc/dcmitype/StillImage" /><dc:title /></cc:Work></rdf:RDF></metadata><defs
     id="defs6"><linearGradient
       inkscape:collect="always"
       xlink:href="#linearGradient1109"
       id="linearGradient4954"
       gradientUnits="userSpaceOnUse"
       x1="110.74702"
       y1="130.87947"
       x2="111.50298"
       y2="242.57143"
       gradientTransform="matrix(1.6778741,0,0,3.7785313,-141.62743,-474.32299)" /><linearGradient
       inkscape:collect="always"
       id="linearGradient1109"><stop
         style="stop-color:#333131;stop-opacity:1"
         offset="0"
         id="stop1105" /><stop
         style="stop-color:#292727;stop-opacity:1"
         offset="1"
         id="stop1107" /></linearGradient><clipPath
       id="clipPath918"
       clipPathUnits="userSpaceOnUse"><path
         inkscape:connector-curvature="0"
         id="path916"
         d="M 0,472.252 H 165.6 V 0 H 0 Z" /></clipPath><clipPath
       id="clipPath1074"
       clipPathUnits="userSpaceOnUse"><path
         inkscape:connector-curvature="0"
         id="path1072"
         d="M 0,472.252 H 165.6 V 0 H 0 Z" /></clipPath><clipPath
       id="clipPath982"
       clipPathUnits="userSpaceOnUse"><path
         inkscape:connector-curvature="0"
         id="path980-3"
         d="M 0,500 H 200 V 0 H 0 Z" /></clipPath></defs><sodipodi:namedview
     pagecolor="#ffffff"
     bordercolor="#666666"
     borderopacity="1"
     objecttolerance="10"
     gridtolerance="10"
     guidetolerance="10"
     inkscape:pageopacity="0"
     inkscape:pageshadow="2"
     inkscape:window-width="1920"
     inkscape:window-height="1033"
     id="namedview4"
     showgrid="false"
     inkscape:zoom="1.6360509"
     inkscape:cx="-52.396509"
     inkscape:cy="260.20299"
     inkscape:window-x="0"
     inkscape:window-y="0"
     inkscape:window-maximized="1"
     inkscape:current-layer="layer3"
     inkscape:document-units="mm"
     units="mm"
     showguides="true"
     inkscape:guide-bbox="true"
     inkscape:snap-bbox="true"
     inkscape:snap-bbox-midpoints="true"
     inkscape:snap-text-baseline="true"
     inkscape:bbox-nodes="true"
     inkscape:snap-bbox-edge-midpoints="true"><sodipodi:guide
       position="123.61018,453.54333"
       orientation="0,1"
       id="guide928"
       inkscape:locked="false"
       inkscape:label=""
       inkscape:color="rgb(0,0,255)" /><sodipodi:guide
       position="195.35595,30.236222"
       orientation="0,1"
       id="guide930"
       inkscape:locked="false"
       inkscape:label=""
       inkscape:color="rgb(0,0,255)" /><sodipodi:guide
       position="121.02314,98.267722"
       orientation="0,1"
       id="guide934"
       inkscape:locked="false"
       inkscape:label=""
       inkscape:color="rgb(0,0,255)" /><sodipodi:guide
       position="168.08769,143.62206"
       orientation="0,1"
       id="guide936"
       inkscape:locked="false"
       inkscape:label=""
       inkscape:color="rgb(0,0,255)" /><sodipodi:guide
       position="-103.90875,234.33072"
       orientation="0,1"
       id="guide942"
       inkscape:locked="false"
       inkscape:label=""
       inkscape:color="rgb(0,0,255)" /><sodipodi:guide
       position="-19.559295,393.07089"
       orientation="0,1"
       id="guide946"
       inkscape:locked="false"
       inkscape:label=""
       inkscape:color="rgb(0,0,255)" /><sodipodi:guide
       position="19.233053,417.63783"
       orientation="0,1"
       id="guide893"
       inkscape:locked="false"
       inkscape:label=""
       inkscape:color="rgb(0,0,255)" /><sodipodi:guide
       position="-66.01262,52.913389"
       orientation="0,1"
       id="guide898"
       inkscape:locked="false"
       inkscape:label=""
       inkscape:color="rgb(0,0,255)" /><sodipodi:guide
       position="38.400002,330.0631"
       orientation="1,0"
       id="guide932"
       inkscape:locked="false"
       inkscape:label=""
       inkscape:color="rgb(0,0,255)" /><sodipodi:guide
       position="-31.47824,294.80317"
       orientation="0,1"
       id="guide1252"
       inkscape:locked="false"
       inkscape:label=""
       inkscape:color="rgb(0,0,255)" /><sodipodi:guide
       position="-72.124899,340.15749"
       orientation="0,1"
       id="guide1341"
       inkscape:locked="false"
       inkscape:label=""
       inkscape:color="rgb(0,0,255)" /></sodipodi:namedview><g
     inkscape:groupmode="layer"
     id="layer2"
     inkscape:label="BG"
     style="display:inline"
     transform="translate(0,-4.924933e-6)"><path
       inkscape:connector-curvature="0"
       id="path1099"
       d="M 3.3333341e-7,-8.280696e-6 H 76.800003 V 485.66931 H 3.3333341e-7 Z"
       style="display:inline;fill:url(#linearGradient4954);fill-opacity:1;stroke:#6e6e6e;stroke-width:0;stroke-miterlimit:4;stroke-dasharray:none;stroke-opacity:1" /></g><g
     inkscape:groupmode="layer"
     id="layer1"
     inkscape:label="Layer 2"
     style="display:inline"><g
       transform="matrix(1.3333334,0,0,-1.3333334,-154.81956,576.2282)"
       inkscape:label="side_midiCV_channel"
       id="g974"
       style="fill:#f4da98;fill-opacity:1"><g
         id="g976"
         style="fill:#f4da98;fill-opacity:1"><g
           clip-path="url(#clipPath982)"
           id="g978"
           style="fill:#f4da98;fill-opacity:1"><g
             transform="translate(127.9717,145.4198)"
             id="g984"
             style="fill:#f4da98;fill-opacity:1"><path
               inkscape:connector-curvature="0"
               id="path986-6"
               style="fill:#f4da98;fill-opacity:1;fill-rule:nonzero;stroke:none"
               d="m 0,0 c 2.531,-2.638 5.097,-5.143 7.696,-7.501 2.455,-11.91 4.896,-23.842 7.341,-35.767 -2.874,1.163 -5.729,2.467 -8.559,3.926 C 4.347,-26.188 2.185,-13.079 0,0 M -6.777,39.904 C -4.542,36.283 -2.264,32.782 0.057,29.406 2.49,17.667 4.926,5.935 7.35,-5.821 4.768,-3.435 2.218,-0.915 -0.295,1.751 -2.429,14.507 -4.592,27.221 -6.777,39.904 m 0.95,22.752 c 2.078,-4.101 4.201,-8.09 6.363,-11.981 2.498,-10.218 5.007,-20.421 7.53,-30.602 -2.399,3.114 -4.753,6.367 -7.07,9.73 -2.271,10.957 -4.544,21.911 -6.823,32.853 m 0.679,15.641 c 1.89,-4.287 3.797,-8.458 5.721,-12.509 2.403,-8.6 4.826,-17.167 7.274,-25.691 -2.161,3.55 -4.286,7.193 -6.37,10.941 -2.218,9.072 -4.426,18.158 -6.625,27.259 m 0.883,8.754 c 1.546,-3.868 3.114,-7.686 4.703,-11.458 2.159,-6.909 4.342,-13.773 6.551,-20.59 -1.837,3.61 -3.663,7.32 -5.475,11.134 -1.941,6.948 -3.868,13.918 -5.779,20.914 m -6.516,24.177 c 0.957,-2.799 1.923,-5.582 2.897,-8.349 1.661,-5.58 3.338,-11.132 5.032,-16.656 -1.292,3.216 -2.573,6.456 -3.835,9.739 -1.373,5.075 -2.737,10.165 -4.094,15.266 M 0.003,81.291 C 1.361,77.352 2.725,73.448 4.096,69.586 3.184,71.687 2.278,73.8 1.38,75.932 c -0.999,3.197 -1.992,6.405 -2.98,9.622 0.533,-1.425 1.066,-2.847 1.603,-4.263 M 8.66,56.93 C 10.776,51.168 12.909,45.511 15.054,39.927 13.303,43.041 11.56,46.233 9.827,49.519 7.991,55.128 6.171,60.767 4.369,66.439 5.781,63.228 7.215,60.067 8.66,56.93 m 9.056,-18.787 c 1.764,-3.976 3.544,-7.922 5.348,-11.813 -1.568,2.536 -3.132,5.133 -4.691,7.797 -1.554,3.98 -3.102,7.996 -4.642,12.068 1.316,-2.711 2.643,-5.399 3.985,-8.052 M 29,17.072 c -0.556,0.837 -1.111,1.674 -1.666,2.527 -0.47,0.984 -0.932,1.984 -1.398,2.974 1.015,-1.849 2.035,-3.684 3.064,-5.501 M 35.5,5.93 c 2.148,-3.563 4.327,-7.053 6.53,-10.485 -1.929,1.959 -3.845,3.959 -5.734,6.043 C 34.343,5.301 32.408,9.153 30.498,13.059 32.163,10.618 33.83,8.238 35.5,5.93 m 8.352,-20.86 c -2.529,1.769 -5.029,3.648 -7.499,5.641 -2.629,5.983 -5.245,12.081 -7.844,18.303 2.287,-2.788 4.603,-5.496 6.955,-8.094 2.754,-5.375 5.55,-10.659 8.388,-15.85 m 0.588,-14.665 c -2.724,1.047 -5.428,2.219 -8.108,3.533 -2.812,7.494 -5.595,15.048 -8.341,22.675 2.483,-2.296 5.001,-4.471 7.55,-6.534 2.949,-6.708 5.917,-13.259 8.899,-19.674 m 0.001,-20.399 c -2.902,0.172 -5.796,0.484 -8.678,0.937 -2.8,8.859 -5.572,17.769 -8.321,26.717 2.674,-1.618 5.373,-3.101 8.095,-4.449 2.932,-7.808 5.9,-15.543 8.904,-23.205 m -18.473,3.039 c -2.623,10.271 -5.234,20.561 -7.831,30.871 2.644,-1.959 5.317,-3.784 8.017,-5.467 2.808,-9.151 5.64,-18.26 8.502,-27.317 -2.91,0.494 -5.806,1.131 -8.688,1.913 m -9.498,33.387 c -2.652,2.057 -5.273,4.262 -7.862,6.601 C 6.25,4.468 3.88,15.88 1.514,27.3 3.849,23.981 6.229,20.794 8.646,17.724 11.24,7.272 13.85,-3.155 16.47,-13.568 m 0.28,23.139 c -2.433,2.746 -4.827,5.615 -7.184,8.602 -2.417,9.74 -4.819,19.501 -7.213,29.274 2.135,-3.745 4.306,-7.399 6.519,-10.941 2.601,-9.021 5.226,-18 7.878,-26.935 m -0.454,17.412 c -2.203,3.216 -4.37,6.53 -6.503,9.938 -2.275,7.893 -4.528,15.822 -6.764,23.78 1.944,-3.969 3.902,-7.83 5.873,-11.57 2.436,-7.438 4.899,-14.823 7.394,-22.148 m 8.596,-11.828 c -2.207,2.86 -4.379,5.823 -6.522,8.863 -2.273,6.634 -4.521,13.315 -6.745,20.041 1.938,-3.556 3.886,-7.012 5.843,-10.36 2.458,-6.294 4.933,-12.475 7.424,-18.544 M 20.587,28.47 c 1.948,-3.208 3.902,-6.326 5.862,-9.339 2.356,-4.94 4.746,-9.806 7.168,-14.603 -2.182,2.502 -4.337,5.086 -6.462,7.754 -2.201,5.314 -4.392,10.699 -6.568,16.188 m -1.056,-7.823 c 2.216,-3.06 4.472,-6.009 6.756,-8.879 2.771,-6.691 5.56,-13.256 8.367,-19.675 -2.499,2.079 -4.965,4.279 -7.401,6.587 -2.605,7.262 -5.178,14.587 -7.722,21.967 M 18.973,5.634 c 2.438,-2.622 4.91,-5.128 7.418,-7.512 2.838,-7.909 5.711,-15.749 8.621,-23.516 -2.696,1.369 -5.368,2.869 -8.015,4.507 -2.699,8.799 -5.375,17.637 -8.024,26.521 m -8.207,27.902 c 2.198,-3.426 4.433,-6.752 6.705,-9.978 2.688,-7.841 5.41,-15.615 8.166,-23.324 -2.472,2.408 -4.912,4.927 -7.314,7.57 -2.54,8.542 -5.063,17.112 -7.557,25.732 m 14.935,-53.608 c -2.68,1.707 -5.332,3.555 -7.955,5.538 -2.544,10.103 -5.078,20.219 -7.597,30.359 2.39,-2.963 4.817,-5.81 7.283,-8.53 2.728,-9.171 5.487,-18.288 8.269,-27.367 M 16.149,-43.71 c -2.399,11.702 -4.795,23.408 -7.203,35.095 2.609,-2.312 5.249,-4.49 7.92,-6.52 2.65,-10.528 5.316,-21.033 7.993,-31.519 -2.921,0.831 -5.825,1.816 -8.71,2.944 m -3.591,-33.836 c -1.94,12.359 -3.897,24.696 -5.886,36.988 2.847,-1.442 5.716,-2.735 8.606,-3.883 2.26,-11.028 4.516,-22.063 6.768,-33.105 h 1.02 c -2.221,10.894 -4.446,21.782 -6.677,32.664 2.9,-1.112 5.82,-2.075 8.756,-2.891 2.539,-9.943 5.091,-19.867 7.654,-29.773 h 1.033 c -2.538,9.808 -5.065,19.634 -7.58,29.478 2.9,-0.768 5.814,-1.394 8.742,-1.875 2.871,-9.078 5.763,-18.12 8.689,-27.103 -0.681,-0.182 -1.363,-0.331 -2.044,-0.5 h 3.988 c 0.067,0.019 0.134,0.039 0.201,0.058 v 1.05 c -0.392,-0.114 -0.784,-0.245 -1.176,-0.354 -2.88,8.84 -5.727,17.737 -8.554,26.669 2.903,-0.44 5.819,-0.735 8.742,-0.893 0.328,-0.835 0.66,-1.66 0.988,-2.493 v 3.458 c -0.098,0.005 -0.196,0.002 -0.295,0.007 -2.929,7.468 -5.825,15.009 -8.687,22.617 2.713,-1.296 5.448,-2.454 8.204,-3.48 0.259,-0.556 0.519,-1.105 0.778,-1.659 v 2.439 c -0.016,0.005 -0.032,0.01 -0.048,0.016 -2.864,6.146 -5.715,12.426 -8.55,18.842 2.533,-1.987 5.095,-3.864 7.689,-5.62 0.3,-0.545 0.607,-1.077 0.909,-1.62 v 2.206 c -0.048,0.034 -0.096,0.068 -0.145,0.101 -2.607,4.732 -5.179,9.544 -7.715,14.432 1.968,-2.097 3.949,-4.153 5.959,-6.119 0.239,-0.232 0.48,-0.451 0.719,-0.682 0.391,-0.595 0.789,-1.172 1.182,-1.763 v 2.021 c -0.136,0.131 -0.274,0.256 -0.411,0.388 -1.055,1.605 -2.105,3.223 -3.148,4.857 1.187,-1.515 2.373,-2.993 3.559,-4.445 v 1.58 C 42.67,-2.03 39.509,2.091 36.353,6.452 30.216,16.629 24.303,27.34 18.618,38.576 12.475,52.422 6.578,66.781 0.936,81.651 -3.377,94.167 -7.617,107.08 -11.772,120.398 v -9.333 c 0.474,-1.777 0.94,-3.565 1.415,-5.34 -0.475,1.292 -0.944,2.597 -1.415,3.9 v -2.915 c 1.361,-3.724 2.734,-7.419 4.133,-11.059 2.176,-8.045 4.373,-16.055 6.588,-24.035 -1.836,3.994 -3.655,8.109 -5.459,12.325 -1.761,7.309 -3.513,14.63 -5.262,21.957 v -4.296 c 0.952,-3.979 1.898,-7.966 2.853,-11.94 -0.956,2.311 -1.907,4.659 -2.853,7.036 v -2.663 c 1.426,-3.535 2.86,-7.018 4.309,-10.407 2.35,-9.753 4.712,-19.489 7.085,-29.209 -2.128,3.932 -4.213,7.972 -6.258,12.111 -1.71,8.202 -3.422,16.398 -5.136,24.591 v -4.893 c 1.118,-5.353 2.237,-10.702 3.354,-16.057 -1.132,2.352 -2.248,4.742 -3.354,7.155 v -2.344 c 1.377,-2.971 2.766,-5.911 4.183,-8.782 2.377,-11.406 4.749,-22.822 7.118,-34.245 -2.278,3.385 -4.519,6.878 -6.713,10.504 L -7.215,42.44 c -1.502,8.701 -3.031,17.364 -4.557,26.031 V 62.753 C -3.655,16.475 4.12,-30.297 11.545,-77.546 Z" /></g><g
             transform="translate(142.2117,399.1465)"
             id="g1020"
             style="fill:#f4da98;fill-opacity:1"><path
               inkscape:connector-curvature="0"
               id="path1022"
               style="fill:#f4da98;fill-opacity:1;fill-rule:nonzero;stroke:none"
               d="M 0,0 C -0.039,-0.003 -0.134,0 -0.282,0.01 -0.43,0.021 -0.623,0.086 -0.861,0.205 -1.21,0.362 -1.531,0.56 -1.826,0.799 -2.122,1.037 -2.363,1.346 -2.55,1.724 -2.648,1.93 -2.707,2.143 -2.727,2.361 -2.734,2.454 -2.736,2.548 -2.73,2.643 c 0.02,0.529 0.105,1.045 0.255,1.546 0.049,0.207 0.148,0.382 0.296,0.529 -0.001,0.007 0.007,0.016 0.022,0.032 0.015,0.015 0.036,0.035 0.059,0.061 0.026,0.025 0.04,0.051 0.044,0.079 0.087,0.381 0.245,0.72 0.474,1.015 0.142,0.206 0.267,0.428 0.373,0.665 0.139,0.326 0.368,0.504 0.686,0.532 0.133,0.011 0.226,0.01 0.282,-0.001 0.054,-0.012 0.111,-0.016 0.171,-0.01 0.06,0.005 0.119,0.017 0.177,0.035 0.116,0.058 0.223,0.09 0.323,0.099 C 0.711,7.249 0.985,7.093 1.257,6.755 1.608,6.317 1.88,5.826 2.067,5.28 2.037,5.251 1.998,5.127 1.949,4.908 1.922,4.766 1.889,4.631 1.85,4.503 1.811,4.376 1.753,4.289 1.677,4.242 1.612,4.217 1.543,4.2 1.471,4.194 1.345,4.183 1.202,4.219 1.044,4.303 0.887,4.386 0.78,4.515 0.725,4.691 0.659,4.973 0.54,5.223 0.367,5.442 0.246,5.6 0.152,5.678 0.085,5.68 0.02,5.674 -0.066,5.585 -0.172,5.415 -0.25,5.309 -0.3,5.189 -0.322,5.061 -0.335,4.899 -0.39,4.764 -0.487,4.655 -0.745,4.392 -0.911,4.065 -0.984,3.678 -1.009,3.575 -1.043,3.469 -1.086,3.358 -1.131,3.247 -1.166,3.132 -1.192,3.013 -1.219,2.893 -1.227,2.776 -1.217,2.664 c 0.01,-0.113 0.053,-0.216 0.128,-0.31 0.367,-0.45 0.743,-0.658 1.128,-0.625 l 0.24,0.022 c 0.092,0.008 0.159,0.037 0.202,0.088 0.213,0.246 0.355,0.54 0.425,0.88 0.046,0.017 0.088,0.028 0.128,0.032 L 1.145,2.75 C 1.239,2.745 1.419,2.637 1.685,2.426 1.865,2.274 2.057,2.121 2.258,1.964 2.223,1.827 2.181,1.693 2.132,1.562 1.871,0.876 1.4,0.443 0.72,0.264 0.66,0.258 0.621,0.251 0.602,0.243 0.406,0.1 0.205,0.019 0,0" /></g><g
             transform="translate(146.4431,398.7441)"
             id="g1024"
             style="fill:#f4da98;fill-opacity:1"><path
               inkscape:connector-curvature="0"
               id="path1026"
               style="fill:#f4da98;fill-opacity:1;fill-rule:nonzero;stroke:none"
               d="M 0,0 C -0.412,-0.036 -0.703,0.189 -0.872,0.677 -0.93,0.871 -0.967,1.066 -0.983,1.259 l -0.014,0.149 c -0.011,0.126 -0.025,0.248 -0.042,0.367 l -0.014,0.15 C -1.07,2.131 -1.078,2.34 -1.076,2.55 c 0.001,0.211 -0.008,0.429 -0.028,0.656 -0.036,0.404 -0.041,0.81 -0.015,1.213 -0.002,0.013 10e-4,0.022 0.007,0.03 -0.007,0.073 0.001,0.145 0.021,0.213 0.048,0.219 0.063,0.441 0.042,0.666 -0.023,0.347 -0.03,0.697 -0.021,1.052 l 0.006,0.392 c 0.001,0.061 0.009,0.119 0.025,0.173 0.052,0.245 0.175,0.41 0.368,0.494 0.051,0.025 0.107,0.04 0.166,0.045 0.14,0.012 0.282,-0.027 0.428,-0.119 C 0.067,7.274 0.146,7.153 0.16,7 L 0.161,6.759 0.146,6.356 C 0.134,6.262 0.133,6.168 0.141,6.075 L 0.162,5.946 C 0.182,5.881 0.194,5.812 0.2,5.738 0.211,5.612 0.195,5.487 0.152,5.363 0.138,5.308 0.133,5.251 0.138,5.19 L 0.143,5.142 C 0.18,4.716 0.177,4.174 0.134,3.515 0.127,3.206 0.134,2.896 0.155,2.583 L 0.181,2.174 C 0.354,2.41 0.473,2.661 0.537,2.928 0.578,3.071 0.629,3.207 0.692,3.332 l 0.049,0.125 c 0.02,0.083 0.053,0.159 0.1,0.231 0.077,0.12 0.133,0.251 0.167,0.395 C 1.022,4.15 1.042,4.22 1.07,4.289 1.261,4.861 1.442,5.349 1.614,5.752 1.715,5.981 1.805,6.214 1.885,6.448 2.015,6.875 2.2,7.279 2.44,7.661 2.523,7.789 2.596,7.924 2.656,8.066 2.718,8.209 2.796,8.352 2.89,8.494 2.992,8.623 3.096,8.743 3.2,8.853 3.305,8.962 3.417,9.021 3.536,9.032 3.615,9.039 3.696,9.026 3.78,8.993 3.962,8.901 4.062,8.764 4.078,8.578 L 4.079,8.447 C 4.075,8.186 4.01,7.942 3.882,7.718 3.716,7.469 3.579,7.202 3.471,6.918 3.382,6.703 3.279,6.493 3.163,6.289 2.881,5.776 2.663,5.238 2.512,4.677 2.436,4.402 2.349,4.13 2.252,3.86 2.186,3.7 2.126,3.538 2.073,3.373 1.958,3.009 1.818,2.651 1.655,2.303 1.548,2.072 1.452,1.836 1.366,1.595 1.296,1.401 1.219,1.207 1.136,1.013 0.98,0.645 0.741,0.355 0.418,0.146 0.272,0.06 0.133,0.012 0,0" /></g><g
             transform="translate(137.2948,407.7607)"
             id="g1028"
             style="fill:#f4da98;fill-opacity:1"><path
               inkscape:connector-curvature="0"
               id="path1030"
               style="fill:#f4da98;fill-opacity:1;fill-rule:nonzero;stroke:none"
               d="m 0,0 -0.11,0.001 c -0.285,0.035 -0.489,0.182 -0.611,0.438 -0.025,0.065 -0.042,0.127 -0.047,0.187 -0.004,0.06 0,0.12 0.015,0.182 l 0.266,0.976 c 0.222,0.904 0.466,1.671 0.732,2.303 0.111,0.251 0.22,0.505 0.325,0.762 0.254,0.604 0.52,1.203 0.795,1.796 L 1.424,6.79 C 1.462,6.881 1.507,6.967 1.557,7.048 1.606,7.129 1.676,7.197 1.765,7.252 1.79,7.268 1.81,7.289 1.824,7.317 1.838,7.346 1.85,7.371 1.857,7.396 1.865,7.419 1.871,7.441 1.877,7.462 1.991,7.687 2.164,7.809 2.397,7.829 2.769,7.861 3.021,7.724 3.156,7.414 3.238,7.233 3.288,7.051 3.305,6.864 3.31,6.195 3.272,5.507 3.193,4.797 3.346,4.904 3.441,5.029 3.482,5.174 3.623,5.48 3.792,5.77 3.988,6.041 4.09,6.184 4.183,6.326 4.268,6.467 4.352,6.608 4.445,6.74 4.549,6.863 4.713,7.051 4.846,7.261 4.946,7.489 5.014,7.63 5.109,7.755 5.233,7.866 5.388,8.021 5.524,8.187 5.643,8.364 5.713,8.477 5.79,8.588 5.875,8.695 5.924,8.746 5.969,8.801 6.011,8.857 6.167,9.059 6.338,9.251 6.522,9.435 6.677,9.582 6.837,9.663 7.003,9.678 7.036,9.681 7.111,9.679 7.229,9.672 7.347,9.666 7.48,9.579 7.629,9.411 7.719,9.299 7.77,9.179 7.78,9.053 7.787,8.98 7.777,8.902 7.751,8.819 L 7.593,8.223 C 7.487,7.739 7.344,7.271 7.162,6.82 6.972,6.329 6.818,5.828 6.702,5.319 6.586,4.811 6.455,4.356 6.309,3.956 6.265,3.851 6.225,3.743 6.187,3.634 L 6.15,3.479 C 6.062,3.117 5.971,2.577 5.881,1.86 5.894,1.714 5.887,1.573 5.862,1.437 5.837,1.301 5.756,1.184 5.616,1.084 5.522,1.022 5.425,0.986 5.325,0.979 5.266,0.973 5.181,0.982 5.071,1.007 4.962,1.03 4.866,1.133 4.783,1.312 L 4.739,1.369 C 4.648,1.481 4.593,1.667 4.569,1.926 4.543,2.238 4.61,2.639 4.775,3.129 l 0.1,0.35 C 4.89,3.547 4.907,3.611 4.929,3.674 4.974,3.846 5.009,4.019 5.033,4.195 5.055,4.484 5.131,4.763 5.262,5.028 5.335,5.182 5.384,5.35 5.408,5.533 L 5.457,5.778 C 5.013,5.277 4.645,4.736 4.354,4.155 4.258,3.967 4.156,3.783 4.051,3.607 L 3.869,3.27 C 3.752,3.012 3.602,2.778 3.419,2.567 3.221,2.384 3.025,2.282 2.833,2.266 2.614,2.246 2.396,2.332 2.179,2.52 2.092,2.593 2.034,2.682 2.005,2.786 1.997,2.879 1.979,2.969 1.951,3.058 1.923,3.145 1.905,3.235 1.896,3.328 1.889,3.422 1.891,3.517 1.902,3.615 1.913,3.713 1.912,3.842 1.898,4.001 1.889,4.04 1.881,4.083 1.877,4.13 1.868,4.229 1.872,4.334 1.89,4.442 1.817,4.429 1.776,4.398 1.768,4.351 1.715,4.111 1.631,3.884 1.516,3.667 1.419,3.478 1.341,3.278 1.282,3.068 1.224,2.859 1.152,2.627 1.067,2.372 0.961,2.056 0.829,1.615 0.671,1.053 0.63,0.901 0.532,0.649 0.375,0.294 0.305,0.114 0.18,0.017 0,0" /></g><g
             transform="translate(144.8533,409.2559)"
             id="g1032"
             style="fill:#f4da98;fill-opacity:1"><path
               inkscape:connector-curvature="0"
               id="path1034"
               style="fill:#f4da98;fill-opacity:1;fill-rule:nonzero;stroke:none"
               d="m 0,0 c -0.061,-0.005 -0.146,0.011 -0.261,0.047 -0.113,0.038 -0.209,0.156 -0.287,0.356 -0.017,0.052 -0.029,0.105 -0.033,0.159 -0.009,0.092 0.007,0.187 0.045,0.285 0.082,0.214 0.119,0.431 0.113,0.652 0.018,0.263 0.075,0.522 0.173,0.778 0.102,0.37 0.162,0.744 0.184,1.119 0.034,0.366 0.078,0.633 0.129,0.805 0.042,0.131 0.075,0.265 0.096,0.401 0.063,0.58 0.215,1.135 0.457,1.666 C 0.708,6.51 0.881,6.643 1.133,6.664 1.312,6.68 1.477,6.638 1.626,6.537 1.74,6.46 1.803,6.348 1.815,6.202 1.821,6.135 1.814,6.058 1.796,5.969 1.512,4.94 1.329,4.201 1.247,3.753 1.191,3.467 1.127,3.184 1.051,2.902 0.939,2.498 0.881,2.085 0.879,1.663 0.875,1.542 0.852,1.43 0.808,1.325 0.734,1.158 0.7,0.988 0.702,0.814 0.68,0.524 0.552,0.303 0.317,0.148 0.212,0.059 0.105,0.01 0,0" /></g><g
             transform="translate(147.9715,411.3555)"
             id="g1036"
             style="fill:#f4da98;fill-opacity:1"><path
               inkscape:connector-curvature="0"
               id="path1038"
               style="fill:#f4da98;fill-opacity:1;fill-rule:nonzero;stroke:none"
               d="m 0,0 c 0.047,0.004 0.085,0.023 0.115,0.061 0.209,0.206 0.543,0.522 1.001,0.95 L 1.31,1.209 c 0.09,0.107 0.189,0.204 0.296,0.287 0.174,0.142 0.331,0.3 0.47,0.473 0.073,0.086 0.15,0.17 0.23,0.251 C 2.416,2.329 2.468,2.428 2.46,2.515 2.454,2.587 2.41,2.67 2.328,2.764 1.699,3.451 1.258,3.867 1.005,4.013 0.935,4.047 0.867,4.084 0.804,4.126 L 0.815,3.996 C 0.827,3.856 0.815,3.759 0.78,3.702 0.683,3.586 0.637,3.435 0.64,3.248 0.563,2.659 0.43,2.082 0.239,1.517 0.18,1.351 0.147,1.181 0.143,1.007 0.148,0.866 0.117,0.733 0.048,0.606 -0.038,0.432 -0.07,0.231 -0.051,0.006 Z m -1.334,-2.998 c -0.126,-0.011 -0.254,0.031 -0.383,0.128 -0.15,0.12 -0.235,0.29 -0.255,0.509 -0.008,0.107 0.012,0.209 0.064,0.307 0.162,0.288 0.26,0.591 0.292,0.908 0.024,0.177 0.061,0.347 0.11,0.512 0.05,0.165 0.091,0.329 0.123,0.493 0.038,0.25 0.108,0.492 0.208,0.721 0.027,0.076 0.036,0.157 0.029,0.243 -0.01,0.119 0.009,0.232 0.061,0.337 0.138,0.26 0.207,0.54 0.207,0.841 0.014,0.155 0.057,0.31 0.13,0.463 0.055,0.145 0.092,0.293 0.112,0.441 0.031,0.191 0.091,0.376 0.183,0.559 0.011,0.021 0.018,0.048 0.022,0.082 0.004,0.034 0.019,0.061 0.043,0.084 0.025,0.022 0.035,0.051 0.033,0.083 L -0.39,3.881 c -0.011,0.14 0.031,0.27 0.126,0.392 0.096,0.123 0.231,0.192 0.404,0.206 0.027,0.002 0.051,0.006 0.074,0.012 0.023,0.005 0.047,0.026 0.07,0.061 C 0.236,4.568 0.19,4.591 0.147,4.62 0.057,4.673 -0.038,4.715 -0.134,4.746 -0.155,4.751 -0.189,4.767 -0.238,4.792 -0.288,4.818 -0.346,4.85 -0.412,4.888 -0.479,4.925 -0.541,4.962 -0.598,4.997 l -0.177,0.084 c -0.261,0.151 -0.402,0.34 -0.421,0.566 -0.015,0.16 0.03,0.334 0.134,0.524 0.071,0.106 0.176,0.166 0.316,0.179 0.1,0.008 0.195,-0.01 0.285,-0.056 C -0.271,6.196 -0.079,6.103 0.116,6.013 0.388,5.896 0.65,5.765 0.903,5.62 1.278,5.385 1.637,5.126 1.976,4.841 L 2.515,4.416 C 2.952,4.073 3.305,3.645 3.57,3.133 3.628,3.011 3.663,2.883 3.675,2.751 3.685,2.631 3.675,2.51 3.646,2.387 3.574,1.985 3.426,1.635 3.201,1.334 2.977,1.033 2.721,0.753 2.437,0.494 2.331,0.392 2.219,0.298 2.1,0.214 1.904,0.069 1.729,-0.1 1.571,-0.294 1.506,-0.38 1.425,-0.451 1.329,-0.507 1.188,-0.585 1.031,-0.729 0.855,-0.939 0.724,-1.118 0.563,-1.27 0.373,-1.393 0.297,-1.439 0.237,-1.509 0.195,-1.599 0.153,-1.689 0.067,-1.795 -0.063,-1.913 -0.357,-2.22 -0.656,-2.517 -0.96,-2.804 -1.083,-2.922 -1.208,-2.986 -1.334,-2.998" /></g><g
             transform="translate(151.6561,409.8516)"
             id="g1040"
             style="fill:#f4da98;fill-opacity:1"><path
               inkscape:connector-curvature="0"
               id="path1042"
               style="fill:#f4da98;fill-opacity:1;fill-rule:nonzero;stroke:none"
               d="m 0,0 c -0.059,-0.006 -0.146,0.01 -0.26,0.047 -0.113,0.037 -0.209,0.155 -0.287,0.356 -0.017,0.052 -0.029,0.105 -0.033,0.158 -0.009,0.092 0.006,0.187 0.045,0.285 0.081,0.215 0.119,0.432 0.113,0.652 0.018,0.263 0.075,0.522 0.173,0.778 0.102,0.37 0.162,0.744 0.184,1.12 0.034,0.365 0.078,0.633 0.129,0.805 0.042,0.131 0.075,0.264 0.096,0.4 C 0.223,5.182 0.375,5.737 0.616,6.267 0.709,6.509 0.882,6.642 1.134,6.664 1.313,6.68 1.478,6.637 1.627,6.536 1.741,6.459 1.804,6.347 1.816,6.201 1.822,6.135 1.816,6.058 1.797,5.969 1.512,4.94 1.329,4.201 1.248,3.752 1.193,3.467 1.128,3.184 1.052,2.902 0.939,2.497 0.882,2.084 0.879,1.662 0.876,1.541 0.853,1.43 0.808,1.325 0.735,1.158 0.7,0.987 0.702,0.813 0.681,0.524 0.553,0.302 0.318,0.148 0.213,0.058 0.107,0.009 0,0" /></g></g></g></g></g><g
     inkscape:groupmode="layer"
     id="layer3"
     inkscape:label="Layer 1"
     style="display:inline"><g
   aria-label="P"
   style="font-style:normal;font-variant:normal;font-weight:normal;font-stretch:normal;font-size:10.66666698px;line-height:1.25;font-family:DIN;-inkscape-font-specification:DIN;text-align:center;writing-mode:lr-tb;text-anchor:middle;display:inline;fill:none;fill-opacity:1;stroke:#292727;stroke-width:3.7795279;stroke-miterlimit:4;stroke-dasharray:none;stroke-opacity:1"
   id="text1111-2"
   transform="translate(136.28465,13.87444)"><path
     d="m -69.228644,320.67949 q 0,-0.49067 -0.170666,-0.91734 -0.170667,-0.42666 -0.490667,-0.72533 -0.32,-0.30933 -0.768,-0.48 -0.448,-0.18133 -1.002667,-0.18133 h -2.88 v 7.59466 h 1.152 v -2.98666 h 1.728 q 0.554667,0 1.002667,-0.17067 0.448,-0.18133 0.768,-0.48 0.32,-0.30933 0.490667,-0.72533 0.170666,-0.42667 0.170666,-0.928 z m -1.152,0 q 0,0.608 -0.373333,0.93866 -0.362667,0.32 -0.970667,0.32 h -1.664 v -2.528 h 1.664 q 0.608,0 0.970667,0.33067 0.373333,0.33067 0.373333,0.93867 z"
     id="path1148-5"
     inkscape:connector-curvature="0"
     style="fill:none;fill-opacity:1;stroke:#292727;stroke-width:3.7795279;stroke-miterlimit:4;stroke-dasharray:none;stroke-opacity:1" /></g><g
   aria-label="1"
   style="font-style:normal;font-variant:normal;font-weight:normal;font-stretch:normal;font-size:10.66666698px;line-height:1.25;font-family:DIN;-inkscape-font-specification:DIN;text-align:center;writing-mode:lr-tb;text-anchor:middle;display:inline;fill:none;fill-opacity:1;stroke:#292727;stroke-width:3.7795279;stroke-miterlimit:4;stroke-dasharray:none;stroke-opacity:1"
   id="text1115-4"
   transform="translate(128.65501,25.44222)"><path
     d="m -63.886515,326.40237 v -7.59466 h -1.088001 l -1.482666,1.28 v 1.20533 l 1.482666,-1.30133 v 6.41066 z"
     id="path1145-0"
     inkscape:connector-curvature="0"
     style="fill:none;fill-opacity:1;stroke:#292727;stroke-width:3.7795279;stroke-miterlimit:4;stroke-dasharray:none;stroke-opacity:1" /></g><g
   aria-label="G"
   style="font-style:normal;font-variant:normal;font-weight:normal;font-stretch:normal;font-size:10.66666698px;line-height:1.25;font-family:DIN;-inkscape-font-specification:DIN;text-align:center;writing-mode:lr-tb;text-anchor:middle;display:inline;fill:none;fill-opacity:1;stroke:#292727;stroke-width:3.7795279;stroke-miterlimit:4;stroke-dasharray:none;stroke-opacity:1"
   id="text1119-5"
   transform="translate(143.27179,49.07198)"><path
     d="m -76.119786,333.18295 v -1.16266 h -2.773333 v 0.98133 h 1.621333 v 0.42667 q 0,0.37333 -0.08533,0.66133 -0.08533,0.288 -0.298667,0.53333 -0.224,0.256 -0.544,0.39467 -0.32,0.13867 -0.693333,0.13867 -0.341334,0 -0.629334,-0.11734 -0.288,-0.128 -0.490666,-0.34133 -0.138667,-0.14933 -0.234667,-0.32 -0.08533,-0.18133 -0.138667,-0.43733 -0.04267,-0.26667 -0.064,-0.65067 -0.02133,-0.384 -0.02133,-0.96 0,-0.576 0.02133,-0.94933 0.02133,-0.384 0.064,-0.64 0.05333,-0.26667 0.138667,-0.43734 0.096,-0.18133 0.234667,-0.33066 0.202666,-0.21334 0.490666,-0.34134 0.288,-0.128 0.629334,-0.128 0.64,0 1.045333,0.352 0.405333,0.34134 0.554667,0.97067 h 1.162666 q -0.08533,-0.49067 -0.298666,-0.91733 -0.213334,-0.42667 -0.565334,-0.74667 -0.341333,-0.32 -0.821333,-0.50133 -0.469333,-0.192 -1.077333,-0.192 -0.608,0 -1.109334,0.21333 -0.490666,0.20267 -0.885333,0.59733 -0.277333,0.27734 -0.426667,0.58667 -0.149333,0.30933 -0.224,0.672 -0.064,0.36267 -0.07467,0.81067 -0.01067,0.43733 -0.01067,0.98133 0,0.544 0.01067,0.992 0.01067,0.43733 0.07467,0.8 0.07467,0.36267 0.224,0.672 0.149334,0.30933 0.426667,0.58667 0.394667,0.39466 0.896,0.608 0.501333,0.20266 1.098667,0.20266 0.608,0 1.130666,-0.20266 0.522667,-0.20267 0.96,-0.66134 0.373334,-0.40533 0.522667,-0.90666 0.16,-0.50134 0.16,-1.23734 z"
     id="path1142-9"
     inkscape:connector-curvature="0"
     style="fill:none;fill-opacity:1;stroke:#292727;stroke-width:3.7795279;stroke-miterlimit:4;stroke-dasharray:none;stroke-opacity:1" /></g><g
   aria-label="2"
   style="font-style:normal;font-variant:normal;font-weight:normal;font-stretch:normal;font-size:10.66666698px;line-height:1.25;font-family:DIN;-inkscape-font-specification:DIN;text-align:center;writing-mode:lr-tb;text-anchor:middle;display:inline;fill:none;fill-opacity:1;stroke:#292727;stroke-width:3.7795279;stroke-miterlimit:4;stroke-dasharray:none;stroke-opacity:1"
   id="text1123-4"
   transform="translate(125.30335,64.77771)"><path
     d="m -58.695347,332.45322 v -0.97067 h -3.093333 l 2.378667,-2.912 q 0.352,-0.42667 0.533333,-0.77867 0.181333,-0.36266 0.181333,-0.864 0,-0.49066 -0.16,-0.88533 -0.16,-0.39467 -0.448,-0.672 -0.288,-0.27733 -0.693333,-0.42667 -0.405333,-0.14933 -0.896,-0.14933 -0.48,0 -0.885334,0.16 -0.405333,0.14933 -0.704,0.42667 -0.288,0.27733 -0.458666,0.68266 -0.16,0.39467 -0.16,0.87467 h 1.088 q 0,-0.32 0.096,-0.544 0.096,-0.224 0.245333,-0.36267 0.16,-0.13866 0.362667,-0.20266 0.202667,-0.064 0.416,-0.064 0.533333,0 0.821333,0.32 0.288,0.32 0.288,0.832 0,0.288 -0.096,0.52266 -0.096,0.224 -0.309333,0.49067 l -2.922667,3.552 v 0.97067 z"
     id="path1139-6"
     inkscape:connector-curvature="0"
     style="fill:none;fill-opacity:1;stroke:#292727;stroke-width:3.7795279;stroke-miterlimit:4;stroke-dasharray:none;stroke-opacity:1" /></g><g
   aria-label="V"
   style="font-style:normal;font-variant:normal;font-weight:normal;font-stretch:normal;font-size:10.66666698px;line-height:1.25;font-family:DIN;-inkscape-font-specification:DIN;text-align:center;writing-mode:lr-tb;text-anchor:middle;display:inline;fill:none;fill-opacity:1;stroke:#292727;stroke-width:3.7795279;stroke-miterlimit:4;stroke-dasharray:none;stroke-opacity:1"
   id="text1127-9"
   transform="translate(139.38729,75.62546)"><path
     d="m -72.032626,347.33313 h -1.216 l -1.749333,5.52533 -1.749334,-5.52533 h -1.194666 l 2.496,7.59467 h 0.896 z"
     id="path1136-2"
     inkscape:connector-curvature="0"
     style="fill:none;fill-opacity:1;stroke:#292727;stroke-width:3.7795279;stroke-miterlimit:4;stroke-dasharray:none;stroke-opacity:1" /></g><g
   aria-label="3"
   style="font-style:normal;font-variant:normal;font-weight:normal;font-stretch:normal;font-size:10.66666698px;line-height:1.25;font-family:DIN;-inkscape-font-specification:DIN;text-align:center;writing-mode:lr-tb;text-anchor:middle;display:inline;fill:none;fill-opacity:1;stroke:#292727;stroke-width:3.7795279;stroke-miterlimit:4;stroke-dasharray:none;stroke-opacity:1"
   id="text1131-2"
   transform="translate(117.19815,88.70598)"><path
     d="m -50.472816,351.71396 q 0,-0.704 -0.288,-1.14134 -0.288,-0.43733 -0.778666,-0.65066 0.448,-0.21334 0.693333,-0.608 0.256,-0.40534 0.256,-1.01334 0,-0.46933 -0.170667,-0.85333 -0.16,-0.39467 -0.458666,-0.672 -0.288,-0.288 -0.693334,-0.43733 -0.405333,-0.16 -0.885333,-0.16 -0.458667,0 -0.853333,0.14933 -0.394667,0.13867 -0.693334,0.40533 -0.298666,0.26667 -0.48,0.65067 -0.181333,0.384 -0.202666,0.864 h 1.088 q 0.04267,-0.512 0.341333,-0.8 0.298667,-0.288 0.8,-0.288 0.469333,0 0.789333,0.29867 0.330667,0.29866 0.330667,0.87466 0,0.52267 -0.277333,0.84267 -0.277334,0.30933 -0.874667,0.30933 h -0.181333 v 0.94934 h 0.181333 q 0.64,0 0.949333,0.34133 0.32,0.33067 0.32,0.90667 0,0.608 -0.352,0.93866 -0.352,0.32 -0.885333,0.32 -0.234667,0 -0.458667,-0.064 -0.213333,-0.064 -0.384,-0.20266 -0.16,-0.14934 -0.277333,-0.36267 -0.106667,-0.21333 -0.117333,-0.52267 h -1.088 q 0.01067,0.55467 0.202666,0.96 0.202667,0.40534 0.522667,0.672 0.32,0.256 0.725333,0.384 0.416,0.11734 0.874667,0.11734 0.48,0 0.896,-0.13867 0.426667,-0.13867 0.736,-0.416 0.32,-0.27733 0.501333,-0.69333 0.192,-0.416 0.192,-0.96 z"
     id="path1133-4"
     inkscape:connector-curvature="0"
     style="fill:none;fill-opacity:1;stroke:#292727;stroke-width:3.7795279;stroke-miterlimit:4;stroke-dasharray:none;stroke-opacity:1" /></g><g
   aria-label="OUTS"
   style="font-style:normal;font-variant:normal;font-weight:normal;font-stretch:normal;font-size:3.17499995px;line-height:100%;font-family:DIN;-inkscape-font-specification:DIN;text-align:center;letter-spacing:0px;word-spacing:0px;writing-mode:lr-tb;text-anchor:middle;display:inline;fill:#f4da98;fill-opacity:1;stroke:#292727;stroke-width:1;stroke-linecap:butt;stroke-linejoin:miter;stroke-miterlimit:4;stroke-dasharray:none;stroke-opacity:1"
   id="text940-1"
   transform="matrix(3.7795278,0,0,3.7795278,94.103133,-447.66014)"><path
     d="m -16.920475,200.32084 q 0,-0.16192 -0.0032,-0.2921 -0.0032,-0.13335 -0.02223,-0.2413 -0.01905,-0.10795 -0.0635,-0.20002 -0.04445,-0.0921 -0.127,-0.17463 -0.117475,-0.11747 -0.2667,-0.1778 -0.149225,-0.0635 -0.3302,-0.0635 -0.180975,0 -0.3302,0.0635 -0.14605,0.0603 -0.263525,0.1778 -0.08255,0.0825 -0.127,0.17463 -0.04445,0.0921 -0.06668,0.20002 -0.01905,0.10795 -0.02222,0.2413 -0.0032,0.13018 -0.0032,0.2921 0,0.16193 0.0032,0.29528 0.0032,0.13017 0.02222,0.23812 0.02223,0.10795 0.06668,0.20003 0.04445,0.0921 0.127,0.17462 0.117475,0.11748 0.263525,0.18098 0.149225,0.0603 0.3302,0.0603 0.180975,0 0.3302,-0.0603 0.149225,-0.0635 0.2667,-0.18098 0.08255,-0.0825 0.127,-0.17462 0.04445,-0.0921 0.0635,-0.20003 0.01905,-0.10795 0.02223,-0.23812 0.0032,-0.13335 0.0032,-0.29528 z m -0.3429,0 q 0,0.17145 -0.0064,0.28575 -0.0032,0.11113 -0.01905,0.1905 -0.0127,0.0762 -0.04127,0.13018 -0.0254,0.0508 -0.06668,0.0952 -0.06032,0.0635 -0.149225,0.1016 -0.08573,0.0381 -0.187325,0.0381 -0.1016,0 -0.1905,-0.0381 -0.08573,-0.0381 -0.14605,-0.1016 -0.04127,-0.0444 -0.06985,-0.0952 -0.0254,-0.054 -0.04127,-0.13018 -0.0127,-0.0794 -0.01905,-0.1905 -0.0032,-0.1143 -0.0032,-0.28575 0,-0.17145 0.0032,-0.28257 0.0063,-0.1143 0.01905,-0.1905 0.01587,-0.0794 0.04127,-0.13018 0.02858,-0.054 0.06985,-0.0984 0.06033,-0.0635 0.14605,-0.1016 0.0889,-0.0381 0.1905,-0.0381 0.1016,0 0.187325,0.0381 0.0889,0.0381 0.149225,0.1016 0.04127,0.0445 0.06668,0.0984 0.02858,0.0508 0.04127,0.13018 0.01588,0.0762 0.01905,0.1905 0.0064,0.11112 0.0064,0.28257 z"
     style="fill:#f4da98;fill-opacity:1;stroke:#292727;stroke-width:1;stroke-miterlimit:4;stroke-dasharray:none;stroke-opacity:1"
     id="path942-2"
     inkscape:connector-curvature="0" /><path
     d="m -14.823437,200.68914 v -1.4986 h -0.3429 v 1.48273 q 0,0.2286 -0.130175,0.35877 -0.127,0.13018 -0.339725,0.13018 -0.212725,0 -0.339725,-0.13018 -0.127,-0.13017 -0.127,-0.35877 v -1.48273 h -0.3429 v 1.4986 q 0,0.17463 0.06033,0.32068 0.0635,0.14287 0.17145,0.24447 0.10795,0.1016 0.257175,0.15875 0.149225,0.0572 0.320675,0.0572 0.17145,0 0.320675,-0.0572 0.149225,-0.0572 0.257175,-0.15875 0.111125,-0.1016 0.17145,-0.24447 0.0635,-0.14605 0.0635,-0.32068 z"
     style="fill:#f4da98;fill-opacity:1;stroke:#292727;stroke-width:1;stroke-miterlimit:4;stroke-dasharray:none;stroke-opacity:1"
     id="path944-7"
     inkscape:connector-curvature="0" /><path
     d="m -12.877857,199.49852 v -0.30798 h -1.5875 v 0.30798 h 0.6223 v 1.95262 h 0.3429 v -1.95262 z"
     style="fill:#f4da98;fill-opacity:1;stroke:#292727;stroke-width:1;stroke-miterlimit:4;stroke-dasharray:none;stroke-opacity:1"
     id="path946-0"
     inkscape:connector-curvature="0" /><path
     d="m -11.072721,200.80662 q 0,-0.14605 -0.04763,-0.26353 -0.04445,-0.11747 -0.136525,-0.20002 -0.07302,-0.0635 -0.168275,-0.1016 -0.09525,-0.0413 -0.254,-0.0667 l -0.257175,-0.0381 q -0.1651,-0.0254 -0.254,-0.10477 -0.04445,-0.0413 -0.06667,-0.0921 -0.01905,-0.054 -0.01905,-0.11747 0,-0.1524 0.104775,-0.25083 0.10795,-0.1016 0.307975,-0.1016 0.142875,0 0.263525,0.0381 0.123825,0.0349 0.2286,0.13653 l 0.219075,-0.2159 q -0.14605,-0.13653 -0.31115,-0.19685 -0.1651,-0.0603 -0.390525,-0.0603 -0.1778,0 -0.3175,0.0476 -0.1397,0.0476 -0.238125,0.13652 -0.09525,0.0889 -0.149225,0.21273 -0.0508,0.12065 -0.0508,0.2667 0,0.27622 0.1651,0.4318 0.1524,0.14287 0.428625,0.18097 l 0.2667,0.0381 q 0.1016,0.0159 0.1524,0.0349 0.0508,0.019 0.09525,0.0603 0.0889,0.0794 0.0889,0.23495 0,0.1651 -0.123825,0.25718 -0.12065,0.0889 -0.3429,0.0889 -0.174625,0 -0.314325,-0.0444 -0.1397,-0.0476 -0.263525,-0.17145 l -0.2286,0.22542 q 0.161925,0.1651 0.352425,0.23178 0.1905,0.0667 0.447675,0.0667 0.1778,0 0.327025,-0.0445 0.149225,-0.0444 0.257175,-0.13017 0.10795,-0.0857 0.168275,-0.20955 0.06033,-0.12383 0.06033,-0.2794 z"
     style="fill:#f4da98;fill-opacity:1;stroke:#292727;stroke-width:1;stroke-miterlimit:4;stroke-dasharray:none;stroke-opacity:1"
     id="path948-9"
     inkscape:connector-curvature="0" /></g><path
   style="display:inline;fill:#f4da98;fill-opacity:1;stroke:none;stroke-width:0;stroke-miterlimit:4;stroke-dasharray:none;stroke-opacity:1"
   inkscape:transform-center-x="7.4234112"
   inkscape:transform-center-y="5.2919366"
   d="m 59.187404,432.75594 a 20.787404,20.787404 0 0 1 -20.7874,20.7874 20.787404,20.787404 0 0 1 -20.787404,-20.7874 20.787404,20.787404 0 0 1 20.787404,-20.78741 20.787404,20.787404 0 0 1 20.7874,20.78741 z"
   id="path4964-1"
   inkscape:connector-curvature="0" /><path
   style="display:inline;fill:#f4da98;fill-opacity:1;stroke:none;stroke-width:0;stroke-miterlimit:4;stroke-dasharray:none;stroke-opacity:1"
   inkscape:transform-center-x="7.4234112"
   inkscape:transform-center-y="5.2919366"
   d="m 59.187402,387.4016 a 20.787404,20.787404 0 0 1 -20.7874,20.78741 20.787404,20.787404 0 0 1 -20.7874,-20.78741 20.787404,20.787404 0 0 1 20.7874,-20.78742 20.787404,20.787404 0 0 1 20.7874,20.78742 z"
   id="path4964-2"
   inkscape:connector-curvature="0" /><path
   style="display:inline;fill:#f4da98;fill-opacity:1;stroke:none;stroke-width:0;stroke-miterlimit:4;stroke-dasharray:none;stroke-opacity:1"
   inkscape:transform-center-x="7.4234112"
   inkscape:transform-center-y="5.2919366"
   d="m 59.187407,342.04727 a 20.787404,20.787404 0 0 1 -20.78741,20.78741 20.787404,20.787404 0 0 1 -20.7874,-20.78741 20.787404,20.787404 0 0 1 20.7874,-20.78741 20.787404,20.787404 0 0 1 20.78741,20.78741 z"
   id="path4964-7"
   inkscape:connector-curvature="0" /><g
   aria-label="OUTS"
   style="font-style:normal;font-variant:normal;font-weight:normal;font-stretch:normal;font-size:3.17499995px;line-height:100%;font-family:DIN;-inkscape-font-specification:DIN;text-align:center;letter-spacing:0px;word-spacing:0px;writing-mode:lr-tb;text-anchor:middle;display:inline;fill:#f4da98;fill-opacity:1;stroke:none;stroke-width:0.26458332px;stroke-linecap:butt;stroke-linejoin:miter;stroke-opacity:1"
   id="text940"
   transform="matrix(3.7795278,0,0,3.7795278,94.156083,-447.66014)"><path
     d="m -16.920475,200.32084 q 0,-0.16192 -0.0032,-0.2921 -0.0032,-0.13335 -0.02223,-0.2413 -0.01905,-0.10795 -0.0635,-0.20002 -0.04445,-0.0921 -0.127,-0.17463 -0.117475,-0.11747 -0.2667,-0.1778 -0.149225,-0.0635 -0.3302,-0.0635 -0.180975,0 -0.3302,0.0635 -0.14605,0.0603 -0.263525,0.1778 -0.08255,0.0825 -0.127,0.17463 -0.04445,0.0921 -0.06668,0.20002 -0.01905,0.10795 -0.02222,0.2413 -0.0032,0.13018 -0.0032,0.2921 0,0.16193 0.0032,0.29528 0.0032,0.13017 0.02222,0.23812 0.02223,0.10795 0.06668,0.20003 0.04445,0.0921 0.127,0.17462 0.117475,0.11748 0.263525,0.18098 0.149225,0.0603 0.3302,0.0603 0.180975,0 0.3302,-0.0603 0.149225,-0.0635 0.2667,-0.18098 0.08255,-0.0825 0.127,-0.17462 0.04445,-0.0921 0.0635,-0.20003 0.01905,-0.10795 0.02223,-0.23812 0.0032,-0.13335 0.0032,-0.29528 z m -0.3429,0 q 0,0.17145 -0.0064,0.28575 -0.0032,0.11113 -0.01905,0.1905 -0.0127,0.0762 -0.04127,0.13018 -0.0254,0.0508 -0.06668,0.0952 -0.06032,0.0635 -0.149225,0.1016 -0.08573,0.0381 -0.187325,0.0381 -0.1016,0 -0.1905,-0.0381 -0.08573,-0.0381 -0.14605,-0.1016 -0.04127,-0.0444 -0.06985,-0.0952 -0.0254,-0.054 -0.04127,-0.13018 -0.0127,-0.0794 -0.01905,-0.1905 -0.0032,-0.1143 -0.0032,-0.28575 0,-0.17145 0.0032,-0.28257 0.0063,-0.1143 0.01905,-0.1905 0.01587,-0.0794 0.04127,-0.13018 0.02858,-0.054 0.06985,-0.0984 0.06033,-0.0635 0.14605,-0.1016 0.0889,-0.0381 0.1905,-0.0381 0.1016,0 0.187325,0.0381 0.0889,0.0381 0.149225,0.1016 0.04127,0.0445 0.06668,0.0984 0.02858,0.0508 0.04127,0.13018 0.01588,0.0762 0.01905,0.1905 0.0064,0.11112 0.0064,0.28257 z"
     style="fill:#f4da98;fill-opacity:1;stroke-width:0.26458332px"
     id="path942"
     inkscape:connector-curvature="0" /><path
     d="m -14.823437,200.68914 v -1.4986 h -0.3429 v 1.48273 q 0,0.2286 -0.130175,0.35877 -0.127,0.13018 -0.339725,0.13018 -0.212725,0 -0.339725,-0.13018 -0.127,-0.13017 -0.127,-0.35877 v -1.48273 h -0.3429 v 1.4986 q 0,0.17463 0.06033,0.32068 0.0635,0.14287 0.17145,0.24447 0.10795,0.1016 0.257175,0.15875 0.149225,0.0572 0.320675,0.0572 0.17145,0 0.320675,-0.0572 0.149225,-0.0572 0.257175,-0.15875 0.111125,-0.1016 0.17145,-0.24447 0.0635,-0.14605 0.0635,-0.32068 z"
     style="fill:#f4da98;fill-opacity:1;stroke-width:0.26458332px"
     id="path944"
     inkscape:connector-curvature="0" /><path
     d="m -12.877857,199.49852 v -0.30798 h -1.5875 v 0.30798 h 0.6223 v 1.95262 h 0.3429 v -1.95262 z"
     style="fill:#f4da98;fill-opacity:1;stroke-width:0.26458332px"
     id="path946"
     inkscape:connector-curvature="0" /><path
     d="m -11.072721,200.80662 q 0,-0.14605 -0.04763,-0.26353 -0.04445,-0.11747 -0.136525,-0.20002 -0.07302,-0.0635 -0.168275,-0.1016 -0.09525,-0.0413 -0.254,-0.0667 l -0.257175,-0.0381 q -0.1651,-0.0254 -0.254,-0.10477 -0.04445,-0.0413 -0.06667,-0.0921 -0.01905,-0.054 -0.01905,-0.11747 0,-0.1524 0.104775,-0.25083 0.10795,-0.1016 0.307975,-0.1016 0.142875,0 0.263525,0.0381 0.123825,0.0349 0.2286,0.13653 l 0.219075,-0.2159 q -0.14605,-0.13653 -0.31115,-0.19685 -0.1651,-0.0603 -0.390525,-0.0603 -0.1778,0 -0.3175,0.0476 -0.1397,0.0476 -0.238125,0.13652 -0.09525,0.0889 -0.149225,0.21273 -0.0508,0.12065 -0.0508,0.2667 0,0.27622 0.1651,0.4318 0.1524,0.14287 0.428625,0.18097 l 0.2667,0.0381 q 0.1016,0.0159 0.1524,0.0349 0.0508,0.019 0.09525,0.0603 0.0889,0.0794 0.0889,0.23495 0,0.1651 -0.123825,0.25718 -0.12065,0.0889 -0.3429,0.0889 -0.174625,0 -0.314325,-0.0444 -0.1397,-0.0476 -0.263525,-0.17145 l -0.2286,0.22542 q 0.161925,0.1651 0.352425,0.23178 0.1905,0.0667 0.447675,0.0667 0.1778,0 0.327025,-0.0445 0.149225,-0.0444 0.257175,-0.13017 0.10795,-0.0857 0.168275,-0.20955 0.06033,-0.12383 0.06033,-0.2794 z"
     style="fill:#f4da98;fill-opacity:1;stroke-width:0.26458332px"
     id="path948"
     inkscape:connector-curvature="0" /></g><g
   aria-label="MODE"
   style="font-style:normal;font-variant:normal;font-weight:normal;font-stretch:normal;font-size:12px;line-height:100%;font-family:DIN;-inkscape-font-specification:DIN;text-align:center;letter-spacing:0px;word-spacing:0px;writing-mode:lr-tb;text-anchor:middle;fill:#f4da98;fill-opacity:1;stroke:none;stroke-width:1px;stroke-linecap:butt;stroke-linejoin:miter;stroke-opacity:1"
   id="text893"
   transform="translate(81.077338,-114.03406)"><path
     d="m -50.723336,365.30066 v -8.544 h -1.296 l -2.448,5.316 -2.496,-5.316 h -1.296 v 8.544 h 1.296 v -5.712 l 2.016,4.164 h 0.96 l 1.968,-4.164 v 5.712 z"
     id="path895"
     inkscape:connector-curvature="0" /><path
     d="m -42.677336,361.02866 q 0,-0.612 -0.012,-1.104 -0.012,-0.504 -0.084,-0.912 -0.072,-0.408 -0.24,-0.756 -0.168,-0.348 -0.48,-0.66 -0.444,-0.444 -1.008,-0.672 -0.564,-0.24 -1.248,-0.24 -0.684,0 -1.248,0.24 -0.552,0.228 -0.996,0.672 -0.312,0.312 -0.48,0.66 -0.168,0.348 -0.252,0.756 -0.072,0.408 -0.084,0.912 -0.012,0.492 -0.012,1.104 0,0.612 0.012,1.116 0.012,0.492 0.084,0.9 0.084,0.408 0.252,0.756 0.168,0.348 0.48,0.66 0.444,0.444 0.996,0.684 0.564,0.228 1.248,0.228 0.684,0 1.248,-0.228 0.564,-0.24 1.008,-0.684 0.312,-0.312 0.48,-0.66 0.168,-0.348 0.24,-0.756 0.072,-0.408 0.084,-0.9 0.012,-0.504 0.012,-1.116 z m -1.296,0 q 0,0.648 -0.024,1.08 -0.012,0.42 -0.072,0.72 -0.048,0.288 -0.156,0.492 -0.096,0.192 -0.252,0.36 -0.228,0.24 -0.564,0.384 -0.324,0.144 -0.708,0.144 -0.384,0 -0.72,-0.144 -0.324,-0.144 -0.552,-0.384 -0.156,-0.168 -0.264,-0.36 -0.096,-0.204 -0.156,-0.492 -0.048,-0.3 -0.072,-0.72 -0.012,-0.432 -0.012,-1.08 0,-0.648 0.012,-1.068 0.024,-0.432 0.072,-0.72 0.06,-0.3 0.156,-0.492 0.108,-0.204 0.264,-0.372 0.228,-0.24 0.552,-0.384 0.336,-0.144 0.72,-0.144 0.384,0 0.708,0.144 0.336,0.144 0.564,0.384 0.156,0.168 0.252,0.372 0.108,0.192 0.156,0.492 0.06,0.288 0.072,0.72 0.024,0.42 0.024,1.068 z"
     id="path897"
     inkscape:connector-curvature="0" /><path
     d="m -34.679523,360.96866 q 0,-0.468 -0.012,-0.924 0,-0.456 -0.072,-0.888 -0.072,-0.444 -0.252,-0.84 -0.18,-0.408 -0.528,-0.756 -0.408,-0.408 -0.972,-0.6 -0.564,-0.204 -1.236,-0.204 h -3 v 8.544 h 3 q 0.672,0 1.236,-0.192 0.564,-0.204 0.972,-0.612 0.348,-0.348 0.528,-0.768 0.18,-0.42 0.252,-0.876 0.072,-0.456 0.072,-0.936 0.012,-0.48 0.012,-0.948 z m -1.296,0 q 0,0.888 -0.06,1.56 -0.06,0.66 -0.396,1.032 -0.528,0.576 -1.452,0.576 h -1.572 v -6.216 h 1.572 q 0.924,0 1.452,0.576 0.336,0.372 0.396,0.984 0.06,0.6 0.06,1.488 z"
     id="path899"
     inkscape:connector-curvature="0" /><path
     d="m -27.299336,365.30066 v -1.164 h -4.164 v -2.568 h 3.552 v -1.152 h -3.552 v -2.496 h 4.164 v -1.164 h -5.46 v 8.544 z"
     id="path901"
     inkscape:connector-curvature="0" /></g><flowRoot
   xml:space="preserve"
   id="flowRoot918"
   style="font-style:normal;font-variant:normal;font-weight:normal;font-stretch:normal;font-size:13.33333302px;line-height:1.25;font-family:DIN;-inkscape-font-specification:DIN;text-align:center;writing-mode:lr-tb;text-anchor:middle;fill:#0000ff;fill-opacity:1;stroke:none;stroke-width:3.77952766;stroke-miterlimit:4;stroke-dasharray:none;stroke-opacity:1"><flowRegion
     id="flowRegion920"><rect
       id="rect922"
       width="36.737289"
       height="15.991526"
       x="-212.21187"
       y="46.982834" /></flowRegion><flowPara
     id="flowPara924" /></flowRoot><g
   aria-label="P"
   style="font-style:normal;font-variant:normal;font-weight:normal;font-stretch:normal;font-size:10.66666698px;line-height:1.25;font-family:DIN;-inkscape-font-specification:DIN;text-align:center;writing-mode:lr-tb;text-anchor:middle;fill:#f4da98;fill-opacity:1;stroke:none;stroke-width:3.77952766;stroke-miterlimit:4;stroke-dasharray:none;stroke-opacity:1"
   id="text1111"
   transform="translate(136.28465,13.87444)"><path
     d="m -69.228644,320.67949 q 0,-0.49067 -0.170666,-0.91734 -0.170667,-0.42666 -0.490667,-0.72533 -0.32,-0.30933 -0.768,-0.48 -0.448,-0.18133 -1.002667,-0.18133 h -2.88 v 7.59466 h 1.152 v -2.98666 h 1.728 q 0.554667,0 1.002667,-0.17067 0.448,-0.18133 0.768,-0.48 0.32,-0.30933 0.490667,-0.72533 0.170666,-0.42667 0.170666,-0.928 z m -1.152,0 q 0,0.608 -0.373333,0.93866 -0.362667,0.32 -0.970667,0.32 h -1.664 v -2.528 h 1.664 q 0.608,0 0.970667,0.33067 0.373333,0.33067 0.373333,0.93867 z"
     id="path1148"
     inkscape:connector-curvature="0" /></g><g
   aria-label="1"
   style="font-style:normal;font-variant:normal;font-weight:normal;font-stretch:normal;font-size:10.66666698px;line-height:1.25;font-family:DIN;-inkscape-font-specification:DIN;text-align:center;writing-mode:lr-tb;text-anchor:middle;fill:#f4da98;fill-opacity:1;stroke:none;stroke-width:3.77952766;stroke-miterlimit:4;stroke-dasharray:none;stroke-opacity:1"
   id="text1115"
   transform="translate(128.65501,25.44222)"><path
     d="m -63.886515,326.40237 v -7.59466 h -1.088001 l -1.482666,1.28 v 1.20533 l 1.482666,-1.30133 v 6.41066 z"
     id="path1145"
     inkscape:connector-curvature="0" /></g><g
   aria-label="G"
   style="font-style:normal;font-variant:normal;font-weight:normal;font-stretch:normal;font-size:10.66666698px;line-height:1.25;font-family:DIN;-inkscape-font-specification:DIN;text-align:center;writing-mode:lr-tb;text-anchor:middle;fill:#f4da98;fill-opacity:1;stroke:none;stroke-width:3.77952766;stroke-miterlimit:4;stroke-dasharray:none;stroke-opacity:1"
   id="text1119"
   transform="translate(143.27179,49.071978)"><path
     d="m -76.119786,333.18295 v -1.16266 h -2.773333 v 0.98133 h 1.621333 v 0.42667 q 0,0.37333 -0.08533,0.66133 -0.08533,0.288 -0.298667,0.53333 -0.224,0.256 -0.544,0.39467 -0.32,0.13867 -0.693333,0.13867 -0.341334,0 -0.629334,-0.11734 -0.288,-0.128 -0.490666,-0.34133 -0.138667,-0.14933 -0.234667,-0.32 -0.08533,-0.18133 -0.138667,-0.43733 -0.04267,-0.26667 -0.064,-0.65067 -0.02133,-0.384 -0.02133,-0.96 0,-0.576 0.02133,-0.94933 0.02133,-0.384 0.064,-0.64 0.05333,-0.26667 0.138667,-0.43734 0.096,-0.18133 0.234667,-0.33066 0.202666,-0.21334 0.490666,-0.34134 0.288,-0.128 0.629334,-0.128 0.64,0 1.045333,0.352 0.405333,0.34134 0.554667,0.97067 h 1.162666 q -0.08533,-0.49067 -0.298666,-0.91733 -0.213334,-0.42667 -0.565334,-0.74667 -0.341333,-0.32 -0.821333,-0.50133 -0.469333,-0.192 -1.077333,-0.192 -0.608,0 -1.109334,0.21333 -0.490666,0.20267 -0.885333,0.59733 -0.277333,0.27734 -0.426667,0.58667 -0.149333,0.30933 -0.224,0.672 -0.064,0.36267 -0.07467,0.81067 -0.01067,0.43733 -0.01067,0.98133 0,0.544 0.01067,0.992 0.01067,0.43733 0.07467,0.8 0.07467,0.36267 0.224,0.672 0.149334,0.30933 0.426667,0.58667 0.394667,0.39466 0.896,0.608 0.501333,0.20266 1.098667,0.20266 0.608,0 1.130666,-0.20266 0.522667,-0.20267 0.96,-0.66134 0.373334,-0.40533 0.522667,-0.90666 0.16,-0.50134 0.16,-1.23734 z"
     id="path1142"
     inkscape:connector-curvature="0" /></g><g
   aria-label="2"
   style="font-style:normal;font-variant:normal;font-weight:normal;font-stretch:normal;font-size:10.66666698px;line-height:1.25;font-family:DIN;-inkscape-font-specification:DIN;text-align:center;writing-mode:lr-tb;text-anchor:middle;fill:#f4da98;fill-opacity:1;stroke:none;stroke-width:3.77952766;stroke-miterlimit:4;stroke-dasharray:none;stroke-opacity:1"
   id="text1123"
   transform="translate(125.30335,64.777713)"><path
     d="m -58.695347,332.45322 v -0.97067 h -3.093333 l 2.378667,-2.912 q 0.352,-0.42667 0.533333,-0.77867 0.181333,-0.36266 0.181333,-0.864 0,-0.49066 -0.16,-0.88533 -0.16,-0.39467 -0.448,-0.672 -0.288,-0.27733 -0.693333,-0.42667 -0.405333,-0.14933 -0.896,-0.14933 -0.48,0 -0.885334,0.16 -0.405333,0.14933 -0.704,0.42667 -0.288,0.27733 -0.458666,0.68266 -0.16,0.39467 -0.16,0.87467 h 1.088 q 0,-0.32 0.096,-0.544 0.096,-0.224 0.245333,-0.36267 0.16,-0.13866 0.362667,-0.20266 0.202667,-0.064 0.416,-0.064 0.533333,0 0.821333,0.32 0.288,0.32 0.288,0.832 0,0.288 -0.096,0.52266 -0.096,0.224 -0.309333,0.49067 l -2.922667,3.552 v 0.97067 z"
     id="path1139"
     inkscape:connector-curvature="0" /></g><g
   aria-label="V"
   style="font-style:normal;font-variant:normal;font-weight:normal;font-stretch:normal;font-size:10.66666698px;line-height:1.25;font-family:DIN;-inkscape-font-specification:DIN;text-align:center;writing-mode:lr-tb;text-anchor:middle;fill:#f4da98;fill-opacity:1;stroke:none;stroke-width:3.77952766;stroke-miterlimit:4;stroke-dasharray:none;stroke-opacity:1"
   id="text1127"
   transform="translate(139.38729,75.625466)"><path
     d="m -72.032626,347.33313 h -1.216 l -1.749333,5.52533 -1.749334,-5.52533 h -1.194666 l 2.496,7.59467 h 0.896 z"
     id="path1136"
     inkscape:connector-curvature="0" /></g><g
   aria-label="3"
   style="font-style:normal;font-variant:normal;font-weight:normal;font-stretch:normal;font-size:10.66666698px;line-height:1.25;font-family:DIN;-inkscape-font-specification:DIN;text-align:center;writing-mode:lr-tb;text-anchor:middle;fill:#f4da98;fill-opacity:1;stroke:none;stroke-width:3.77952766;stroke-miterlimit:4;stroke-dasharray:none;stroke-opacity:1"
   id="text1131"
   transform="translate(117.19815,88.705971)"><path
     d="m -50.472816,351.71396 q 0,-0.704 -0.288,-1.14134 -0.288,-0.43733 -0.778666,-0.65066 0.448,-0.21334 0.693333,-0.608 0.256,-0.40534 0.256,-1.01334 0,-0.46933 -0.170667,-0.85333 -0.16,-0.39467 -0.458666,-0.672 -0.288,-0.288 -0.693334,-0.43733 -0.405333,-0.16 -0.885333,-0.16 -0.458667,0 -0.853333,0.14933 -0.394667,0.13867 -0.693334,0.40533 -0.298666,0.26667 -0.48,0.65067 -0.181333,0.384 -0.202666,0.864 h 1.088 q 0.04267,-0.512 0.341333,-0.8 0.298667,-0.288 0.8,-0.288 0.469333,0 0.789333,0.29867 0.330667,0.29866 0.330667,0.87466 0,0.52267 -0.277333,0.84267 -0.277334,0.30933 -0.874667,0.30933 h -0.181333 v 0.94934 h 0.181333 q 0.64,0 0.949333,0.34133 0.32,0.33067 0.32,0.90667 0,0.608 -0.352,0.93866 -0.352,0.32 -0.885333,0.32 -0.234667,0 -0.458667,-0.064 -0.213333,-0.064 -0.384,-0.20266 -0.16,-0.14934 -0.277333,-0.36267 -0.106667,-0.21333 -0.117333,-0.52267 h -1.088 q 0.01067,0.55467 0.202666,0.96 0.202667,0.40534 0.522667,0.672 0.32,0.256 0.725333,0.384 0.416,0.11734 0.874667,0.11734 0.48,0 0.896,-0.13867 0.426667,-0.13867 0.736,-0.416 0.32,-0.27733 0.501333,-0.69333 0.192,-0.416 0.192,-0.96 z"
     id="path1133"
     inkscape:connector-curvature="0" /></g><text
   xml:space="preserve"
   style="font-style:normal;font-variant:normal;font-weight:normal;font-stretch:normal;font-size:10.66666698px;line-height:1.25;font-family:DIN;-inkscape-font-specification:DIN;text-align:center;writing-mode:lr-tb;text-anchor:middle;fill:#292727;fill-opacity:1;stroke:none;stroke-width:3.77952766;stroke-miterlimit:4;stroke-dasharray:none;stroke-opacity:1"
   x="-98.110184"
   y="222.02522"
   id="text1201"><tspan
     sodipodi:role="line"
     id="tspan1199"
     x="-98.110184"
     y="232.24745" /></text>



<g
   aria-label="CC"
   style="font-style:normal;font-variant:normal;font-weight:normal;font-stretch:normal;font-size:10.66666698px;line-height:1.25;font-family:DIN;-inkscape-font-specification:DIN;text-align:center;writing-mode:lr-tb;text-anchor:middle;fill:#f4da98;fill-opacity:1;stroke:none;stroke-width:3.77952766;stroke-miterlimit:4;stroke-dasharray:none;stroke-opacity:1"
   id="text1221"
   transform="translate(99.590093,22.785805)"><path
     d="m -41.819411,265.13459 h -1.162667 q -0.138667,0.576 -0.522667,0.93866 -0.384,0.36267 -1.024,0.36267 -0.341333,0 -0.629333,-0.11733 -0.288,-0.128 -0.490667,-0.34134 -0.138666,-0.14933 -0.234666,-0.32 -0.08533,-0.18133 -0.138667,-0.43733 -0.04267,-0.26667 -0.064,-0.65067 -0.02133,-0.384 -0.02133,-0.96 0,-0.576 0.02133,-0.96 0.02133,-0.384 0.064,-0.64 0.05333,-0.26666 0.138667,-0.43733 0.096,-0.18133 0.234666,-0.33067 0.202667,-0.21333 0.490667,-0.33066 0.288,-0.128 0.629333,-0.128 0.64,0 1.013334,0.36266 0.384,0.36267 0.522666,0.93867 h 1.173334 q -0.202667,-1.14133 -0.928,-1.73867 -0.725334,-0.59733 -1.781334,-0.59733 -0.597333,0 -1.098666,0.21333 -0.501334,0.20267 -0.896,0.59734 -0.277334,0.27733 -0.426667,0.58666 -0.149333,0.30934 -0.224,0.672 -0.064,0.36267 -0.07467,0.81067 -0.01067,0.43733 -0.01067,0.98133 0,0.544 0.01067,0.992 0.01067,0.43734 0.07467,0.8 0.07467,0.36267 0.224,0.672 0.149333,0.30934 0.426667,0.58667 0.394666,0.39467 0.896,0.608 0.501333,0.20267 1.098666,0.20267 0.512,0 0.96,-0.14934 0.458667,-0.14933 0.810667,-0.448 0.362667,-0.29866 0.597333,-0.736 0.245334,-0.43733 0.341334,-1.00266 z"
     id="path1231"
     inkscape:connector-curvature="0" /><path
     d="m -35.120762,265.13459 h -1.162667 q -0.138666,0.576 -0.522666,0.93866 -0.384,0.36267 -1.024,0.36267 -0.341334,0 -0.629334,-0.11733 -0.288,-0.128 -0.490666,-0.34134 -0.138667,-0.14933 -0.234667,-0.32 -0.08533,-0.18133 -0.138667,-0.43733 -0.04267,-0.26667 -0.064,-0.65067 -0.02133,-0.384 -0.02133,-0.96 0,-0.576 0.02133,-0.96 0.02133,-0.384 0.064,-0.64 0.05333,-0.26666 0.138667,-0.43733 0.096,-0.18133 0.234667,-0.33067 0.202666,-0.21333 0.490666,-0.33066 0.288,-0.128 0.629334,-0.128 0.64,0 1.013333,0.36266 0.384,0.36267 0.522667,0.93867 h 1.173333 q -0.202666,-1.14133 -0.928,-1.73867 -0.725333,-0.59733 -1.781333,-0.59733 -0.597334,0 -1.098667,0.21333 -0.501333,0.20267 -0.896,0.59734 -0.277333,0.27733 -0.426667,0.58666 -0.149333,0.30934 -0.224,0.672 -0.064,0.36267 -0.07467,0.81067 -0.01067,0.43733 -0.01067,0.98133 0,0.544 0.01067,0.992 0.01067,0.43734 0.07467,0.8 0.07467,0.36267 0.224,0.672 0.149334,0.30934 0.426667,0.58667 0.394667,0.39467 0.896,0.608 0.501333,0.20267 1.098667,0.20267 0.512,0 0.96,-0.14934 0.458666,-0.14933 0.810667,-0.448 0.362666,-0.29866 0.597333,-0.736 0.245333,-0.43733 0.341333,-1.00266 z"
     id="path1233"
     inkscape:connector-curvature="0" /></g><flowRoot
   xml:space="preserve"
   id="flowRoot1223"
   style="font-style:normal;font-variant:normal;font-weight:normal;font-stretch:normal;font-size:10.66666698px;line-height:1.25;font-family:DIN;-inkscape-font-specification:DIN;text-align:center;writing-mode:lr-tb;text-anchor:middle;fill:#f4da98;fill-opacity:1;stroke:none;stroke-width:3.77952766;stroke-miterlimit:4;stroke-dasharray:none;stroke-opacity:1"><flowRegion
     id="flowRegion1225"><rect
       id="rect1227"
       width="77.580513"
       height="73.906784"
       x="-131.60594"
       y="206.24979" /></flowRegion><flowPara
     id="flowPara1229" /></flowRoot><flowRoot
   xml:space="preserve"
   id="flowRoot1277"
   style="font-style:normal;font-variant:normal;font-weight:normal;font-stretch:normal;font-size:10.66666698px;line-height:1.25;font-family:DIN;-inkscape-font-specification:DIN;text-align:center;writing-mode:lr-tb;text-anchor:middle;fill:#f4da98;fill-opacity:1;stroke:none;stroke-width:3.77952766;stroke-miterlimit:4;stroke-dasharray:none;stroke-opacity:1"><flowRegion
     id="flowRegion1279"><rect
       id="rect1281"
       width="74.569809"
       height="70.291214"
       x="-152.50137"
       y="212.45041" /></flowRegion><flowPara
     id="flowPara1283" /></flowRoot><text
   xml:space="preserve"
   style="font-style:normal;font-variant:normal;font-weight:normal;font-stretch:normal;font-size:12px;line-height:1.25;font-family:DIN;-inkscape-font-specification:DIN;text-align:center;writing-mode:lr-tb;text-anchor:middle;fill:#f4da98;fill-opacity:1;stroke:none;stroke-width:3.77952766;stroke-miterlimit:4;stroke-dasharray:none;stroke-opacity:1"
   x="-67.639839"
   y="171.24132"
   id="text1318"><tspan
     sodipodi:role="line"
     id="tspan1316"
     x="-67.639839"
     y="182.74132" /></text>



<g
   aria-label="1"
   style="font-style:normal;font-variant:normal;font-weight:normal;font-stretch:normal;font-size:10.66666698px;line-height:1.25;font-family:DIN;-inkscape-font-specification:DIN;text-align:center;writing-mode:lr-tb;text-anchor:middle;fill:#f4da98;fill-opacity:1;stroke:none;stroke-width:3.77952766;stroke-miterlimit:4;stroke-dasharray:none;stroke-opacity:1"
   id="text1322"
   transform="translate(123.08456,42.209517)"><path
     d="m -65.399226,164.10997 v -7.59467 h -1.088 l -1.482667,1.28 v 1.20534 l 1.482667,-1.30134 v 6.41067 z"
     id="path1338"
     inkscape:connector-curvature="0" /></g><g
   aria-label="2"
   style="font-style:normal;font-variant:normal;font-weight:normal;font-stretch:normal;font-size:10.66666698px;line-height:1.25;font-family:DIN;-inkscape-font-specification:DIN;text-align:center;writing-mode:lr-tb;text-anchor:middle;fill:#f4da98;fill-opacity:1;stroke:none;stroke-width:3.77952766;stroke-miterlimit:4;stroke-dasharray:none;stroke-opacity:1"
   id="text1326"
   transform="translate(117.73555,38.898287)"><path
     d="m -59.127548,179.4532 v -0.97067 h -3.093334 l 2.378667,-2.912 q 0.352,-0.42666 0.533334,-0.77866 0.181333,-0.36267 0.181333,-0.864 0,-0.49067 -0.16,-0.88534 -0.16,-0.39466 -0.448,-0.672 -0.288,-0.27733 -0.693334,-0.42666 -0.405333,-0.14934 -0.896,-0.14934 -0.48,0 -0.885333,0.16 -0.405333,0.14934 -0.704,0.42667 -0.288,0.27733 -0.458667,0.68267 -0.16,0.39466 -0.16,0.87466 h 1.088 q 0,-0.32 0.096,-0.544 0.096,-0.224 0.245334,-0.36266 0.16,-0.13867 0.362666,-0.20267 0.202667,-0.064 0.416,-0.064 0.533334,0 0.821334,0.32 0.288,0.32 0.288,0.832 0,0.288 -0.096,0.52267 -0.096,0.224 -0.309334,0.49066 l -2.922666,3.552 v 0.97067 z"
     id="path1335"
     inkscape:connector-curvature="0" /></g><g
   aria-label="3"
   style="font-style:normal;font-variant:normal;font-weight:normal;font-stretch:normal;font-size:10.66666698px;line-height:1.25;font-family:DIN;-inkscape-font-specification:DIN;text-align:center;writing-mode:lr-tb;text-anchor:middle;fill:#f4da98;fill-opacity:1;stroke:none;stroke-width:3.77952766;stroke-miterlimit:4;stroke-dasharray:none;stroke-opacity:1"
   id="text1330"
   transform="translate(99.04137,46.544262)"><path
     d="m -40.316035,181.64189 q 0,-0.704 -0.288,-1.14133 -0.288,-0.43734 -0.778667,-0.65067 0.448,-0.21333 0.693333,-0.608 0.256,-0.40533 0.256,-1.01333 0,-0.46934 -0.170666,-0.85334 -0.16,-0.39466 -0.458667,-0.672 -0.288,-0.288 -0.693333,-0.43733 -0.405334,-0.16 -0.885334,-0.16 -0.458666,0 -0.853333,0.14933 -0.394667,0.13867 -0.693333,0.40534 -0.298667,0.26666 -0.48,0.65066 -0.181334,0.384 -0.202667,0.864 h 1.088 q 0.04267,-0.512 0.341333,-0.8 0.298667,-0.288 0.8,-0.288 0.469334,0 0.789334,0.29867 0.330666,0.29867 0.330666,0.87467 0,0.52266 -0.277333,0.84266 -0.277333,0.30934 -0.874667,0.30934 h -0.181333 v 0.94933 h 0.181333 q 0.64,0 0.949334,0.34133 0.32,0.33067 0.32,0.90667 0,0.608 -0.352,0.93867 -0.352,0.32 -0.885334,0.32 -0.234666,0 -0.458666,-0.064 -0.213334,-0.064 -0.384,-0.20267 -0.16,-0.14933 -0.277334,-0.36267 -0.106666,-0.21333 -0.117333,-0.52266 h -1.088 q 0.01067,0.55466 0.202667,0.96 0.202666,0.40533 0.522666,0.672 0.32,0.256 0.725334,0.384 0.416,0.11733 0.874666,0.11733 0.48,0 0.896,-0.13867 0.426667,-0.13866 0.736,-0.416 0.32,-0.27733 0.501334,-0.69333 0.192,-0.416 0.192,-0.96 z"
     id="path1332"
     inkscape:connector-curvature="0" /></g><g
   aria-label="LEARN"
   style="font-style:normal;font-variant:normal;font-weight:normal;font-stretch:normal;font-size:12px;line-height:1.25;font-family:DIN;-inkscape-font-specification:DIN;text-align:center;writing-mode:lr-tb;text-anchor:middle;display:inline;fill:#f4da98;fill-opacity:1;stroke:none;stroke-width:3.77952766;stroke-miterlimit:4;stroke-dasharray:none;stroke-opacity:1"
   id="text1360"
   transform="translate(118.77646,21.102858)"><path
     d="m -92.922439,110.68097 v -1.164 h -4.116 v -7.38 h -1.296 v 8.544 z"
     id="path1362"
     inkscape:connector-curvature="0" /><path
     d="m -85.986447,110.68097 v -1.164 h -4.164 v -2.568 h 3.552 v -1.152 h -3.552 v -2.496 h 4.164 v -1.164 h -5.46 v 8.544 z"
     id="path1364"
     inkscape:connector-curvature="0" /><path
     d="m -77.922462,110.68097 -3.132,-8.544 h -1.044 l -3.132,8.544 h 1.38 l 0.588,-1.716 h 3.372 l 0.588,1.716 z m -2.328,-2.82 h -2.628 l 1.332,-3.792 z"
     id="path1366"
     inkscape:connector-curvature="0" /><path
     d="m -70.482485,110.68097 -1.968,-3.78 q 0.72,-0.204 1.212,-0.768 0.492,-0.576 0.492,-1.5 0,-0.54 -0.192,-0.996 -0.18,-0.468 -0.528,-0.792 -0.348,-0.336 -0.84,-0.516 -0.48,-0.192 -1.092,-0.192 h -3.312 v 8.544 h 1.296 v -3.6 h 1.62 l 1.8,3.6 z m -1.56,-6.036 q 0,0.636 -0.408,0.984 -0.396,0.348 -1.044,0.348 h -1.92 v -2.676 h 1.92 q 0.648,0 1.044,0.36 0.408,0.348 0.408,0.984 z"
     id="path1368"
     inkscape:connector-curvature="0" /><path
     d="m -62.418499,110.68097 v -8.544 h -1.296 v 6 l -3.948,-6 h -1.188 v 8.544 h 1.296 v -6.012 l 3.948,6.012 z"
     id="path1370"
     inkscape:connector-curvature="0" /></g><g
   aria-label="IN"
   style="font-style:normal;font-variant:normal;font-weight:normal;font-stretch:normal;font-size:12px;line-height:1.25;font-family:DIN;-inkscape-font-specification:DIN;text-align:center;writing-mode:lr-tb;text-anchor:middle;fill:#f4da98;fill-opacity:1;stroke:none;stroke-width:3.77952766;stroke-miterlimit:4;stroke-dasharray:none;stroke-opacity:1"
   id="text1381"
   transform="translate(73.408471,7.0020413)"><path
     d="m -38.692462,61.029449 v -8.544 h -1.296 v 8.544 z"
     id="path1383"
     inkscape:connector-curvature="0" /><path
     d="m -30.028477,61.029449 v -8.544 h -1.296 v 6 l -3.948,-6 h -1.188 v 8.544 h 1.296 v -6.012 l 3.948,6.012 z"
     id="path1385"
     inkscape:connector-curvature="0" /></g><g
   aria-label="VOICE"
   style="font-style:normal;font-variant:normal;font-weight:normal;font-stretch:normal;font-size:12px;line-height:1.25;font-family:DIN;-inkscape-font-specification:DIN;text-align:center;writing-mode:lr-tb;text-anchor:middle;fill:#f4da98;fill-opacity:1;stroke:none;stroke-width:3.77952766;stroke-miterlimit:4;stroke-dasharray:none;stroke-opacity:1"
   id="text962"><path
     d="m 28.758034,182.32215 h -1.368 l -1.968,6.216 -1.968,-6.216 h -1.344 l 2.808,8.544 h 1.008 z"
     id="path993"
     inkscape:connector-curvature="0" /><path
     d="m 35.646021,186.59415 q 0,-0.612 -0.012,-1.104 -0.012,-0.504 -0.084,-0.912 -0.072,-0.408 -0.24,-0.756 -0.168,-0.348 -0.48,-0.66 -0.444,-0.444 -1.008,-0.672 -0.564,-0.24 -1.248,-0.24 -0.684,0 -1.248,0.24 -0.552,0.228 -0.996,0.672 -0.312,0.312 -0.48,0.66 -0.168,0.348 -0.252,0.756 -0.072,0.408 -0.084,0.912 -0.012,0.492 -0.012,1.104 0,0.612 0.012,1.116 0.012,0.492 0.084,0.9 0.084,0.408 0.252,0.756 0.168,0.348 0.48,0.66 0.444,0.444 0.996,0.684 0.564,0.228 1.248,0.228 0.684,0 1.248,-0.228 0.564,-0.24 1.008,-0.684 0.312,-0.312 0.48,-0.66 0.168,-0.348 0.24,-0.756 0.072,-0.408 0.084,-0.9 0.012,-0.504 0.012,-1.116 z m -1.296,0 q 0,0.648 -0.024,1.08 -0.012,0.42 -0.072,0.72 -0.048,0.288 -0.156,0.492 -0.096,0.192 -0.252,0.36 -0.228,0.24 -0.564,0.384 -0.324,0.144 -0.708,0.144 -0.384,0 -0.72,-0.144 -0.324,-0.144 -0.552,-0.384 -0.156,-0.168 -0.264,-0.36 -0.096,-0.204 -0.156,-0.492 -0.048,-0.3 -0.072,-0.72 -0.012,-0.432 -0.012,-1.08 0,-0.648 0.012,-1.068 0.024,-0.432 0.072,-0.72 0.06,-0.3 0.156,-0.492 0.108,-0.204 0.264,-0.372 0.228,-0.24 0.552,-0.384 0.336,-0.144 0.72,-0.144 0.384,0 0.708,0.144 0.336,0.144 0.564,0.384 0.156,0.168 0.252,0.372 0.108,0.192 0.156,0.492 0.06,0.288 0.072,0.72 0.024,0.42 0.024,1.068 z"
     id="path995"
     inkscape:connector-curvature="0" /><path
     d="m 38.86202,190.86615 v -8.544 h -1.296 v 8.544 z"
     id="path997"
     inkscape:connector-curvature="0" /><path
     d="m 46.902004,188.31015 h -1.308 q -0.156,0.648 -0.588,1.056 -0.432,0.408 -1.152,0.408 -0.384,0 -0.708,-0.132 -0.324,-0.144 -0.552,-0.384 -0.156,-0.168 -0.264,-0.36 -0.096,-0.204 -0.156,-0.492 -0.048,-0.3 -0.072,-0.732 -0.024,-0.432 -0.024,-1.08 0,-0.648 0.024,-1.08 0.024,-0.432 0.072,-0.72 0.06,-0.3 0.156,-0.492 0.108,-0.204 0.264,-0.372 0.228,-0.24 0.552,-0.372 0.324,-0.144 0.708,-0.144 0.72,0 1.14,0.408 0.432,0.408 0.588,1.056 h 1.32 q -0.228,-1.284 -1.044,-1.956 -0.816,-0.672 -2.004,-0.672 -0.672,0 -1.236,0.24 -0.564,0.228 -1.008,0.672 -0.312,0.312 -0.48,0.66 -0.168,0.348 -0.252,0.756 -0.072,0.408 -0.084,0.912 -0.012,0.492 -0.012,1.104 0,0.612 0.012,1.116 0.012,0.492 0.084,0.9 0.084,0.408 0.252,0.756 0.168,0.348 0.48,0.66 0.444,0.444 1.008,0.684 0.564,0.228 1.236,0.228 0.576,0 1.08,-0.168 0.516,-0.168 0.912,-0.504 0.408,-0.336 0.672,-0.828 0.276,-0.492 0.384,-1.128 z"
     id="path999"
     inkscape:connector-curvature="0" /><path
     d="m 54.089985,190.86615 v -1.164 h -4.164 v -2.568 h 3.552 v -1.152 h -3.552 v -2.496 h 4.164 v -1.164 h -5.46 v 8.544 z"
     id="path1001"
     inkscape:connector-curvature="0" /></g><text
   xml:space="preserve"
   style="font-style:normal;font-variant:normal;font-weight:normal;font-stretch:normal;font-size:10.66666698px;line-height:1.25;font-family:DIN;-inkscape-font-specification:DIN;text-align:center;writing-mode:lr-tb;text-anchor:middle;fill:#f4da98;fill-opacity:1;stroke:none;stroke-width:3.77952766;stroke-miterlimit:4;stroke-dasharray:none;stroke-opacity:1"
   x="-127.28391"
   y="276.69897"
   id="text966"><tspan
     sodipodi:role="line"
     id="tspan964"
     x="-127.28391"
     y="286.9212" /></text>


<g
   aria-label="MNO"
   style="font-style:normal;font-variant:normal;font-weight:normal;font-stretch:normal;font-size:10.66666698px;line-height:1.25;font-family:DIN;-inkscape-font-specification:DIN;text-align:center;writing-mode:lr-tb;text-anchor:middle;fill:#f4da98;fill-opacity:1;stroke:none;stroke-width:3.77952766;stroke-miterlimit:4;stroke-dasharray:none;stroke-opacity:1"
   id="text970"
   transform="translate(106,5.8897707)"><path
     d="m -47.679989,260.25403 v -7.59467 h -1.152 l -2.176,4.72533 -2.218666,-4.72533 h -1.152 v 7.59467 h 1.152 v -5.07734 l 1.792,3.70134 h 0.853333 l 1.749333,-3.70134 v 5.07734 z"
     style="font-style:normal;font-variant:normal;font-weight:500;font-stretch:normal;font-family:DIN;-inkscape-font-specification:'DIN Medium'"
     id="path976"
     inkscape:connector-curvature="0" /><path
     d="m -39.989325,260.25403 v -7.59467 h -1.152 v 5.33333 l -3.509333,-5.33333 h -1.056 v 7.59467 h 1.152 v -5.344 l 3.509333,5.344 z"
     style="font-style:normal;font-variant:normal;font-weight:500;font-stretch:normal;font-family:DIN;-inkscape-font-specification:'DIN Medium'"
     id="path978"
     inkscape:connector-curvature="0" /><path
     d="m -32.821343,256.45669 q 0,-0.544 -0.01067,-0.98133 -0.01067,-0.448 -0.07467,-0.81067 -0.064,-0.36266 -0.213333,-0.672 -0.149333,-0.30933 -0.426667,-0.58666 -0.394666,-0.39467 -0.896,-0.59734 -0.501333,-0.21333 -1.109333,-0.21333 -0.608,0 -1.109333,0.21333 -0.490667,0.20267 -0.885334,0.59734 -0.277333,0.27733 -0.426666,0.58666 -0.149334,0.30934 -0.224,0.672 -0.064,0.36267 -0.07467,0.81067 -0.01067,0.43733 -0.01067,0.98133 0,0.544 0.01067,0.992 0.01067,0.43734 0.07467,0.8 0.07467,0.36267 0.224,0.672 0.149333,0.30934 0.426666,0.58667 0.394667,0.39467 0.885334,0.608 0.501333,0.20267 1.109333,0.20267 0.608,0 1.109333,-0.20267 0.501334,-0.21333 0.896,-0.608 0.277334,-0.27733 0.426667,-0.58667 0.149333,-0.30933 0.213333,-0.672 0.064,-0.36266 0.07467,-0.8 0.01067,-0.448 0.01067,-0.992 z m -1.152,0 q 0,0.576 -0.02133,0.96 -0.01067,0.37334 -0.064,0.64 -0.04267,0.256 -0.138666,0.43734 -0.08533,0.17066 -0.224,0.32 -0.202667,0.21333 -0.501334,0.34133 -0.288,0.128 -0.629333,0.128 -0.341333,0 -0.64,-0.128 -0.288,-0.128 -0.490667,-0.34133 -0.138666,-0.14934 -0.234666,-0.32 -0.08533,-0.18134 -0.138667,-0.43734 -0.04267,-0.26666 -0.064,-0.64 -0.01067,-0.384 -0.01067,-0.96 0,-0.576 0.01067,-0.94933 0.02133,-0.384 0.064,-0.64 0.05333,-0.26667 0.138667,-0.43733 0.096,-0.18134 0.234666,-0.33067 0.202667,-0.21333 0.490667,-0.34133 0.298667,-0.128 0.64,-0.128 0.341333,0 0.629333,0.128 0.298667,0.128 0.501334,0.34133 0.138666,0.14933 0.224,0.33067 0.096,0.17066 0.138666,0.43733 0.05333,0.256 0.064,0.64 0.02133,0.37333 0.02133,0.94933 z"
     style="font-style:normal;font-variant:normal;font-weight:500;font-stretch:normal;font-family:DIN;-inkscape-font-specification:'DIN Medium'"
     id="path981"
     inkscape:connector-curvature="0" /></g><g
   aria-label="PLY"
   style="font-style:normal;font-variant:normal;font-weight:normal;font-stretch:normal;font-size:10.66666698px;line-height:1.25;font-family:DIN;-inkscape-font-specification:DIN;text-align:center;writing-mode:lr-tb;text-anchor:middle;fill:#f4da98;fill-opacity:1;stroke:none;stroke-width:3.77952766;stroke-miterlimit:4;stroke-dasharray:none;stroke-opacity:1"
   id="text974"
   transform="translate(-4.0000017,7.8897714)"><path
     d="m 61.344019,264.96336 q 0,-0.49067 -0.170667,-0.91733 -0.170667,-0.42667 -0.490667,-0.72534 -0.32,-0.30933 -0.768,-0.48 -0.448,-0.18133 -1.002666,-0.18133 h -2.880001 v 7.59467 h 1.152001 v -2.98667 h 1.728 q 0.554666,0 1.002666,-0.17067 0.448,-0.18133 0.768,-0.48 0.32,-0.30933 0.490667,-0.72533 0.170667,-0.42667 0.170667,-0.928 z m -1.152,0 q 0,0.608 -0.373334,0.93867 -0.362666,0.32 -0.970666,0.32 h -1.664 v -2.528 h 1.664 q 0.608,0 0.970666,0.33066 0.373334,0.33067 0.373334,0.93867 z"
     id="path985"
     inkscape:connector-curvature="0" /><path
     d="m 67.552016,270.25403 v -1.03467 h -3.658667 v -6.56 h -1.152 v 7.59467 z"
     id="path987"
     inkscape:connector-curvature="0" /><path
     d="m 72.76799,262.65936 h -1.258667 l -1.589333,3.33867 -1.589334,-3.33867 h -1.258667 l 2.272001,4.46933 v 3.12534 h 1.152 v -3.12534 z"
     id="path990"
     inkscape:connector-curvature="0" /></g></g></svg>