<?xml version="1.0" encoding="UTF-8" standalone="no"?>
<!-- Created with Inkscape (http://www.inkscape.org/) -->

<svg
   xmlns:dc="http://purl.org/dc/elements/1.1/"
   xmlns:cc="http://creativecommons.org/ns#"
   xmlns:rdf="http://www.w3.org/1999/02/22-rdf-syntax-ns#"
   xmlns:svg="http://www.w3.org/2000/svg"
   xmlns="http://www.w3.org/2000/svg"
   xmlns:xlink="http://www.w3.org/1999/xlink"
   xmlns:sodipodi="http://sodipodi.sourceforge.net/DTD/sodipodi-0.dtd"
   xmlns:inkscape="http://www.inkscape.org/namespaces/inkscape"
   version="1.1"
   id="svg2"
   xml:space="preserve"
   width="20.32mm"
   height="128.5mm"
   viewBox="0 0 76.8 485.66931"
   sodipodi:docname="MIDI_Repeater.svg"
   inkscape:version="0.92.5 (2060ec1f9f, 2020-04-08)"><metadata
     id="metadata8"><rdf:RDF><cc:Work
         rdf:about=""><dc:format>image/svg+xml</dc:format><dc:type
           rdf:resource="http://purl.org/dc/dcmitype/StillImage" /><dc:title /></cc:Work></rdf:RDF></metadata><defs
     id="defs6"><linearGradient
       inkscape:collect="always"
       xlink:href="#linearGradient1109"
       id="linearGradient4954"
       gradientUnits="userSpaceOnUse"
       x1="110.74702"
       y1="130.87947"
       x2="111.50298"
       y2="242.57143"
       gradientTransform="matrix(1.6778741,0,0,3.7785313,-141.62743,-474.32299)" /><linearGradient
       inkscape:collect="always"
       id="linearGradient1109"><stop
         style="stop-color:#333131;stop-opacity:1"
         offset="0"
         id="stop1105" /><stop
         style="stop-color:#292727;stop-opacity:1"
         offset="1"
         id="stop1107" /></linearGradient><clipPath
       id="clipPath918"
       clipPathUnits="userSpaceOnUse"><path
         inkscape:connector-curvature="0"
         id="path916"
         d="M 0,472.252 H 165.6 V 0 H 0 Z" /></clipPath><clipPath
       id="clipPath1074"
       clipPathUnits="userSpaceOnUse"><path
         inkscape:connector-curvature="0"
         id="path1072"
         d="M 0,472.252 H 165.6 V 0 H 0 Z" /></clipPath></defs><sodipodi:namedview
     pagecolor="#ffffff"
     bordercolor="#666666"
     borderopacity="1"
     objecttolerance="10"
     gridtolerance="10"
     guidetolerance="10"
     inkscape:pageopacity="0"
     inkscape:pageshadow="2"
     inkscape:window-width="1920"
     inkscape:window-height="1033"
     id="namedview4"
     showgrid="false"
     inkscape:zoom="2.3137254"
     inkscape:cx="0.5899425"
     inkscape:cy="305.22545"
     inkscape:window-x="0"
     inkscape:window-y="0"
     inkscape:window-maximized="1"
     inkscape:current-layer="g1070"
     inkscape:document-units="mm"
     units="mm"
     showguides="true"
     inkscape:guide-bbox="true"
     inkscape:snap-bbox="true"
     inkscape:snap-bbox-midpoints="true"
     inkscape:snap-text-baseline="true"
     inkscape:bbox-nodes="true"
     inkscape:snap-bbox-edge-midpoints="true"><sodipodi:guide
       position="38.400002,348.35597"
       orientation="1,0"
       id="guide926"
       inkscape:locked="false"
       inkscape:label=""
       inkscape:color="rgb(0,0,255)" /><sodipodi:guide
       position="123.61018,453.54333"
       orientation="0,1"
       id="guide928"
       inkscape:locked="false"
       inkscape:label=""
       inkscape:color="rgb(0,0,255)" /><sodipodi:guide
       position="195.35595,30.236222"
       orientation="0,1"
       id="guide930"
       inkscape:locked="false"
       inkscape:label=""
       inkscape:color="rgb(0,0,255)" /><sodipodi:guide
       position="121.02314,98.267722"
       orientation="0,1"
       id="guide934"
       inkscape:locked="false"
       inkscape:label=""
       inkscape:color="rgb(0,0,255)" /><sodipodi:guide
       position="168.08769,143.62206"
       orientation="0,1"
       id="guide936"
       inkscape:locked="false"
       inkscape:label=""
       inkscape:color="rgb(0,0,255)" /><sodipodi:guide
       position="152.19576,302.36222"
       orientation="0,1"
       id="guide942"
       inkscape:locked="false"
       inkscape:label=""
       inkscape:color="rgb(0,0,255)" /><sodipodi:guide
       position="132.63647,347.71655"
       orientation="0,1"
       id="guide944"
       inkscape:locked="false"
       inkscape:label=""
       inkscape:color="rgb(0,0,255)" /><sodipodi:guide
       position="-19.559295,393.07089"
       orientation="0,1"
       id="guide946"
       inkscape:locked="false"
       inkscape:label=""
       inkscape:color="rgb(0,0,255)" /><sodipodi:guide
       position="19.233053,417.63783"
       orientation="0,1"
       id="guide893"
       inkscape:locked="false"
       inkscape:label=""
       inkscape:color="rgb(0,0,255)" /><sodipodi:guide
       position="-66.01262,52.913389"
       orientation="0,1"
       id="guide898"
       inkscape:locked="false"
       inkscape:label=""
       inkscape:color="rgb(0,0,255)" /><sodipodi:guide
       position="-62.345252,234.33072"
       orientation="0,1"
       id="guide77"
       inkscape:locked="false"
       inkscape:label=""
       inkscape:color="rgb(0,0,255)" /></sodipodi:namedview><g
     inkscape:groupmode="layer"
     id="layer2"
     inkscape:label="BG"
     style="display:inline"
     transform="translate(0,-4.924933e-6)"><path
       inkscape:connector-curvature="0"
       id="path1099"
       d="M 3.3333341e-7,-8.2314251e-6 H 76.800003 V 485.66931 H 3.3333341e-7 Z"
       style="display:inline;fill:url(#linearGradient4954);fill-opacity:1;stroke:#6e6e6e;stroke-width:0;stroke-miterlimit:4;stroke-dasharray:none;stroke-opacity:1" /></g><g
     inkscape:groupmode="layer"
     id="layer1"
     inkscape:label="Layer 2"
     style="display:inline"><g
       transform="matrix(1.3333333,0,0,-1.3333333,-71.811028,557.8583)"
       inkscape:label="aw_sideall"
       id="g1066"
       style="display:inline;fill:#f4da98;fill-opacity:1"><g
         id="g1068"
         style="fill:#f4da98;fill-opacity:1"><g
           clip-path="url(#clipPath1074)"
           id="g1070"
           style="fill:#f4da98;fill-opacity:1"><g
             transform="translate(65.7717,131.5458)"
             id="g1076"
             style="fill:#f4da98;fill-opacity:1"><path
               inkscape:connector-curvature="0"
               id="path1078"
               style="fill:#f4da98;fill-opacity:1;fill-rule:nonzero;stroke:none"
               d="m 0,0 c 2.531,-2.638 5.097,-5.143 7.696,-7.501 2.455,-11.91 4.896,-23.842 7.341,-35.767 -2.874,1.163 -5.729,2.467 -8.559,3.926 C 4.347,-26.188 2.185,-13.079 0,0 M -6.777,39.904 C -4.542,36.283 -2.264,32.782 0.057,29.406 2.49,17.667 4.926,5.935 7.35,-5.821 4.768,-3.435 2.218,-0.915 -0.295,1.751 -2.429,14.507 -4.592,27.221 -6.777,39.904 m 0.95,22.752 c 2.078,-4.101 4.201,-8.09 6.363,-11.981 2.498,-10.218 5.007,-20.421 7.53,-30.602 -2.399,3.114 -4.753,6.367 -7.07,9.73 -2.271,10.957 -4.544,21.911 -6.823,32.853 m 0.679,15.641 c 1.89,-4.287 3.797,-8.458 5.721,-12.509 2.403,-8.6 4.826,-17.167 7.274,-25.691 -2.161,3.55 -4.286,7.193 -6.37,10.941 -2.218,9.072 -4.426,18.158 -6.625,27.259 m 0.883,8.754 c 1.546,-3.868 3.114,-7.686 4.703,-11.458 2.159,-6.909 4.342,-13.773 6.551,-20.59 -1.837,3.61 -3.663,7.32 -5.475,11.134 -1.941,6.948 -3.868,13.918 -5.779,20.914 m -6.516,24.177 c 0.957,-2.799 1.923,-5.582 2.897,-8.349 1.661,-5.58 3.338,-11.132 5.032,-16.656 -1.292,3.216 -2.573,6.456 -3.835,9.739 -1.373,5.075 -2.737,10.165 -4.094,15.266 M 0.003,81.291 C 1.361,77.352 2.725,73.448 4.096,69.586 3.184,71.687 2.278,73.8 1.38,75.932 c -0.999,3.197 -1.992,6.405 -2.98,9.622 0.533,-1.425 1.066,-2.847 1.603,-4.263 M 8.66,56.93 C 10.776,51.168 12.909,45.511 15.054,39.927 13.303,43.041 11.56,46.233 9.827,49.519 7.991,55.128 6.171,60.767 4.369,66.439 5.781,63.228 7.215,60.067 8.66,56.93 m 9.056,-18.787 c 1.764,-3.976 3.544,-7.922 5.348,-11.813 -1.568,2.536 -3.132,5.133 -4.691,7.797 -1.554,3.98 -3.102,7.996 -4.642,12.068 1.316,-2.711 2.643,-5.399 3.985,-8.052 M 29,17.072 c -0.556,0.837 -1.111,1.674 -1.666,2.527 -0.47,0.984 -0.932,1.984 -1.398,2.974 1.015,-1.849 2.035,-3.684 3.064,-5.501 M 35.5,5.93 c 2.148,-3.563 4.327,-7.053 6.53,-10.485 -1.929,1.959 -3.845,3.959 -5.734,6.043 C 34.343,5.301 32.408,9.153 30.498,13.059 32.163,10.618 33.83,8.238 35.5,5.93 m 8.352,-20.86 c -2.529,1.769 -5.029,3.648 -7.499,5.641 -2.629,5.983 -5.245,12.081 -7.844,18.303 2.287,-2.788 4.603,-5.496 6.955,-8.094 2.754,-5.375 5.55,-10.659 8.388,-15.85 m 0.588,-14.665 c -2.724,1.047 -5.428,2.219 -8.108,3.533 -2.812,7.494 -5.595,15.048 -8.341,22.675 2.483,-2.296 5.001,-4.471 7.55,-6.534 2.949,-6.708 5.917,-13.259 8.899,-19.674 m 0.001,-20.399 c -2.902,0.172 -5.796,0.484 -8.678,0.937 -2.8,8.859 -5.572,17.769 -8.321,26.717 2.674,-1.618 5.373,-3.101 8.095,-4.449 2.932,-7.808 5.9,-15.543 8.904,-23.205 m -18.473,3.039 c -2.623,10.271 -5.234,20.561 -7.831,30.871 2.644,-1.959 5.317,-3.784 8.017,-5.467 2.808,-9.151 5.64,-18.26 8.502,-27.317 -2.91,0.494 -5.806,1.131 -8.688,1.913 m -9.498,33.387 c -2.652,2.057 -5.273,4.262 -7.862,6.601 C 6.25,4.468 3.88,15.88 1.514,27.3 3.849,23.981 6.229,20.794 8.646,17.724 11.24,7.272 13.85,-3.155 16.47,-13.568 m 0.28,23.139 c -2.433,2.746 -4.827,5.615 -7.184,8.602 -2.417,9.74 -4.819,19.501 -7.213,29.274 2.135,-3.745 4.306,-7.399 6.519,-10.941 2.601,-9.021 5.226,-18 7.878,-26.935 m -0.454,17.412 c -2.203,3.216 -4.37,6.53 -6.503,9.938 -2.275,7.893 -4.528,15.822 -6.764,23.78 1.944,-3.969 3.902,-7.83 5.873,-11.57 2.436,-7.438 4.899,-14.823 7.394,-22.148 m 8.596,-11.828 c -2.207,2.86 -4.379,5.823 -6.522,8.863 -2.273,6.634 -4.521,13.315 -6.745,20.041 1.938,-3.556 3.886,-7.012 5.843,-10.36 2.458,-6.294 4.933,-12.475 7.424,-18.544 M 20.587,28.47 c 1.948,-3.208 3.902,-6.326 5.862,-9.339 2.356,-4.94 4.746,-9.806 7.168,-14.603 -2.182,2.502 -4.337,5.086 -6.462,7.754 -2.201,5.314 -4.392,10.699 -6.568,16.188 m -1.056,-7.823 c 2.216,-3.06 4.472,-6.009 6.756,-8.879 2.771,-6.691 5.56,-13.256 8.367,-19.675 -2.499,2.079 -4.965,4.279 -7.401,6.587 -2.605,7.262 -5.178,14.587 -7.722,21.967 M 18.973,5.634 c 2.438,-2.622 4.91,-5.128 7.418,-7.512 2.838,-7.909 5.711,-15.749 8.621,-23.516 -2.696,1.369 -5.368,2.869 -8.015,4.507 -2.699,8.799 -5.375,17.637 -8.024,26.521 m -8.207,27.902 c 2.198,-3.426 4.433,-6.752 6.705,-9.978 2.688,-7.841 5.41,-15.615 8.166,-23.324 -2.472,2.408 -4.912,4.927 -7.314,7.57 -2.54,8.542 -5.063,17.112 -7.557,25.732 m 14.935,-53.608 c -2.68,1.707 -5.332,3.555 -7.955,5.538 -2.544,10.103 -5.078,20.219 -7.597,30.359 2.39,-2.963 4.817,-5.81 7.283,-8.53 2.728,-9.171 5.487,-18.288 8.269,-27.367 M 16.149,-43.71 c -2.399,11.702 -4.795,23.408 -7.203,35.095 2.609,-2.312 5.249,-4.49 7.92,-6.52 2.65,-10.528 5.316,-21.033 7.993,-31.519 -2.921,0.831 -5.825,1.816 -8.71,2.944 m -3.591,-33.836 c -1.94,12.359 -3.897,24.696 -5.886,36.988 2.847,-1.442 5.716,-2.735 8.606,-3.883 2.26,-11.028 4.516,-22.063 6.768,-33.105 h 1.02 c -2.221,10.894 -4.446,21.782 -6.677,32.663 2.9,-1.111 5.82,-2.074 8.756,-2.89 2.539,-9.943 5.091,-19.867 7.654,-29.773 h 1.033 c -2.538,9.808 -5.065,19.634 -7.58,29.478 2.9,-0.768 5.814,-1.394 8.742,-1.875 2.871,-9.078 5.763,-18.12 8.689,-27.103 -0.681,-0.182 -1.363,-0.331 -2.044,-0.5 h 3.988 c 0.067,0.019 0.134,0.039 0.201,0.058 v 1.05 c -0.392,-0.114 -0.784,-0.245 -1.176,-0.354 -2.88,8.84 -5.727,17.737 -8.554,26.669 2.903,-0.44 5.819,-0.735 8.742,-0.893 0.328,-0.835 0.66,-1.66 0.988,-2.493 v 3.458 c -0.098,0.004 -0.196,0.002 -0.295,0.007 -2.929,7.468 -5.825,15.009 -8.687,22.617 2.713,-1.296 5.448,-2.454 8.204,-3.48 0.259,-0.556 0.519,-1.105 0.778,-1.659 v 2.438 c -0.016,0.006 -0.032,0.011 -0.048,0.017 -2.864,6.146 -5.715,12.426 -8.55,18.842 2.533,-1.987 5.095,-3.864 7.689,-5.62 0.3,-0.545 0.607,-1.077 0.909,-1.62 v 2.206 c -0.048,0.034 -0.096,0.068 -0.145,0.101 -2.607,4.732 -5.179,9.544 -7.715,14.432 1.968,-2.097 3.949,-4.153 5.959,-6.119 0.239,-0.232 0.48,-0.451 0.719,-0.682 0.391,-0.595 0.789,-1.172 1.182,-1.763 v 2.021 c -0.136,0.131 -0.274,0.256 -0.411,0.388 -1.055,1.605 -2.105,3.223 -3.148,4.857 1.187,-1.515 2.373,-2.993 3.559,-4.445 v 1.58 C 42.67,-2.03 39.509,2.091 36.353,6.452 30.216,16.629 24.303,27.34 18.618,38.576 12.475,52.422 6.578,66.781 0.936,81.651 -3.377,94.167 -7.617,107.08 -11.772,120.398 v -9.333 c 0.474,-1.777 0.94,-3.565 1.415,-5.34 -0.475,1.292 -0.944,2.597 -1.415,3.9 v -2.915 c 1.361,-3.724 2.734,-7.419 4.133,-11.059 2.176,-8.045 4.373,-16.055 6.588,-24.035 -1.836,3.994 -3.655,8.109 -5.459,12.325 -1.761,7.309 -3.513,14.63 -5.262,21.957 v -4.296 c 0.952,-3.979 1.898,-7.966 2.853,-11.94 -0.956,2.311 -1.907,4.659 -2.853,7.036 v -2.663 c 1.426,-3.535 2.86,-7.018 4.309,-10.407 2.35,-9.753 4.712,-19.489 7.085,-29.209 -2.128,3.932 -4.213,7.972 -6.258,12.111 -1.71,8.202 -3.422,16.398 -5.136,24.591 v -4.893 c 1.118,-5.353 2.237,-10.702 3.354,-16.057 -1.132,2.352 -2.248,4.742 -3.354,7.155 v -2.344 c 1.377,-2.971 2.766,-5.911 4.183,-8.782 2.377,-11.406 4.749,-22.822 7.118,-34.245 -2.278,3.385 -4.519,6.878 -6.713,10.504 L -7.215,42.44 c -1.502,8.701 -3.031,17.364 -4.557,26.031 V 62.753 C -3.655,16.475 4.12,-30.297 11.545,-77.546 Z" /></g><g
             transform="translate(73.8508,393.8872)"
             id="g1080"
             style="fill:#f4da98;fill-opacity:1"><path
               inkscape:connector-curvature="0"
               id="path1082"
               style="fill:#f4da98;fill-opacity:1;fill-rule:nonzero;stroke:none"
               d="m 0,0 h -0.11 c -0.285,0.036 -0.489,0.182 -0.611,0.439 -0.025,0.065 -0.042,0.127 -0.047,0.187 -0.004,0.06 0,0.12 0.015,0.182 l 0.266,0.976 c 0.222,0.904 0.466,1.671 0.732,2.303 0.111,0.251 0.22,0.505 0.325,0.761 0.254,0.605 0.52,1.203 0.795,1.797 L 1.424,6.79 C 1.462,6.881 1.507,6.966 1.557,7.047 1.606,7.129 1.676,7.197 1.765,7.251 1.79,7.267 1.81,7.289 1.824,7.317 1.838,7.345 1.85,7.371 1.857,7.396 1.865,7.419 1.871,7.441 1.877,7.462 1.991,7.687 2.164,7.809 2.397,7.829 2.769,7.861 3.021,7.723 3.156,7.414 3.238,7.233 3.288,7.05 3.305,6.864 3.31,6.195 3.272,5.506 3.193,4.797 3.346,4.904 3.441,5.029 3.482,5.173 3.623,5.48 3.792,5.77 3.988,6.041 4.09,6.184 4.183,6.326 4.268,6.467 4.352,6.608 4.445,6.74 4.549,6.863 4.713,7.051 4.846,7.26 4.946,7.489 5.014,7.629 5.109,7.755 5.233,7.866 5.388,8.02 5.524,8.186 5.643,8.364 5.713,8.477 5.79,8.587 5.875,8.695 5.924,8.746 5.969,8.801 6.011,8.857 6.167,9.059 6.338,9.25 6.522,9.435 6.677,9.582 6.837,9.663 7.003,9.677 7.036,9.68 7.111,9.679 7.229,9.672 7.347,9.666 7.48,9.579 7.629,9.411 7.719,9.298 7.77,9.179 7.78,9.053 7.787,8.98 7.777,8.902 7.751,8.819 L 7.593,8.223 C 7.487,7.739 7.344,7.271 7.162,6.82 6.972,6.329 6.818,5.828 6.702,5.319 6.586,4.811 6.455,4.356 6.309,3.956 6.265,3.851 6.225,3.743 6.187,3.633 L 6.15,3.479 C 6.062,3.117 5.971,2.577 5.881,1.86 5.894,1.714 5.887,1.573 5.862,1.437 5.837,1.301 5.756,1.183 5.616,1.083 5.522,1.022 5.425,0.986 5.325,0.978 5.266,0.973 5.181,0.982 5.071,1.006 4.962,1.03 4.866,1.132 4.783,1.312 L 4.739,1.369 C 4.648,1.481 4.593,1.667 4.569,1.926 4.543,2.238 4.61,2.639 4.775,3.128 l 0.1,0.351 C 4.89,3.546 4.907,3.611 4.929,3.674 4.974,3.845 5.009,4.019 5.033,4.195 5.055,4.484 5.131,4.762 5.262,5.028 5.335,5.181 5.384,5.35 5.408,5.533 L 5.457,5.778 C 5.013,5.277 4.645,4.736 4.354,4.155 4.258,3.966 4.156,3.783 4.051,3.607 L 3.869,3.27 C 3.752,3.012 3.602,2.778 3.419,2.567 3.221,2.383 3.025,2.282 2.833,2.266 2.614,2.246 2.396,2.332 2.179,2.52 2.092,2.592 2.034,2.681 2.005,2.786 1.997,2.878 1.979,2.969 1.951,3.057 1.923,3.145 1.905,3.235 1.896,3.328 1.889,3.421 1.891,3.517 1.902,3.615 1.913,3.713 1.912,3.842 1.898,4 1.889,4.04 1.881,4.083 1.877,4.13 1.868,4.229 1.872,4.333 1.89,4.442 1.817,4.429 1.776,4.398 1.768,4.351 1.715,4.111 1.631,3.884 1.516,3.667 1.419,3.477 1.341,3.278 1.282,3.068 1.224,2.859 1.152,2.627 1.067,2.372 0.961,2.055 0.829,1.615 0.671,1.052 0.63,0.901 0.532,0.649 0.375,0.294 0.305,0.114 0.18,0.016 0,0" /></g><g
             transform="translate(81.4094,395.3823)"
             id="g1084"
             style="fill:#f4da98;fill-opacity:1"><path
               inkscape:connector-curvature="0"
               id="path1086"
               style="fill:#f4da98;fill-opacity:1;fill-rule:nonzero;stroke:none"
               d="m 0,0 c -0.061,-0.005 -0.146,0.01 -0.261,0.047 -0.113,0.037 -0.209,0.156 -0.287,0.356 -0.017,0.052 -0.029,0.105 -0.033,0.158 -0.009,0.093 0.007,0.188 0.045,0.285 0.082,0.215 0.119,0.432 0.113,0.653 0.018,0.262 0.075,0.521 0.173,0.778 0.102,0.37 0.162,0.743 0.184,1.119 0.034,0.365 0.078,0.633 0.129,0.805 0.042,0.131 0.075,0.264 0.096,0.4 C 0.222,5.182 0.374,5.737 0.616,6.267 0.708,6.509 0.881,6.642 1.133,6.664 1.312,6.68 1.477,6.637 1.626,6.537 1.74,6.459 1.803,6.347 1.815,6.202 1.821,6.135 1.814,6.058 1.796,5.969 1.512,4.94 1.329,4.201 1.247,3.752 1.191,3.467 1.127,3.184 1.051,2.902 0.939,2.498 0.881,2.084 0.879,1.663 0.875,1.542 0.852,1.43 0.808,1.325 0.734,1.158 0.7,0.988 0.702,0.814 0.68,0.524 0.552,0.302 0.317,0.148 0.212,0.058 0.105,0.009 0,0" /></g><g
             transform="translate(84.5275,397.4814)"
             id="g1088"
             style="fill:#f4da98;fill-opacity:1"><path
               inkscape:connector-curvature="0"
               id="path1090"
               style="fill:#f4da98;fill-opacity:1;fill-rule:nonzero;stroke:none"
               d="m 0,0 c 0.047,0.004 0.085,0.024 0.115,0.061 0.209,0.206 0.543,0.522 1.001,0.95 L 1.31,1.209 c 0.09,0.108 0.189,0.204 0.296,0.287 0.174,0.142 0.331,0.3 0.47,0.473 0.073,0.086 0.15,0.17 0.23,0.251 C 2.416,2.33 2.468,2.428 2.46,2.515 2.454,2.587 2.41,2.67 2.328,2.764 1.699,3.452 1.258,3.868 1.005,4.013 0.935,4.047 0.867,4.084 0.804,4.126 L 0.815,3.997 C 0.827,3.857 0.815,3.759 0.78,3.702 0.683,3.586 0.637,3.435 0.64,3.249 0.563,2.66 0.43,2.082 0.239,1.517 0.18,1.351 0.147,1.181 0.143,1.007 0.148,0.867 0.117,0.733 0.048,0.607 -0.038,0.432 -0.07,0.232 -0.051,0.006 Z m -1.334,-2.998 c -0.126,-0.01 -0.254,0.032 -0.383,0.128 -0.15,0.12 -0.235,0.29 -0.255,0.509 -0.008,0.107 0.012,0.209 0.064,0.307 0.162,0.289 0.26,0.592 0.292,0.909 0.024,0.176 0.061,0.347 0.11,0.511 0.05,0.166 0.091,0.33 0.123,0.493 0.038,0.251 0.108,0.492 0.208,0.721 0.027,0.076 0.036,0.157 0.029,0.243 -0.01,0.12 0.009,0.232 0.061,0.337 0.138,0.26 0.207,0.54 0.207,0.841 0.014,0.155 0.057,0.31 0.13,0.463 0.055,0.146 0.092,0.293 0.112,0.442 0.031,0.19 0.091,0.376 0.183,0.558 0.011,0.021 0.018,0.048 0.022,0.082 0.004,0.034 0.019,0.062 0.043,0.084 0.025,0.022 0.035,0.051 0.033,0.083 L -0.39,3.881 c -0.011,0.14 0.031,0.27 0.126,0.393 0.096,0.122 0.231,0.191 0.404,0.206 0.027,0.002 0.051,0.006 0.074,0.011 0.023,0.006 0.047,0.026 0.07,0.061 C 0.236,4.568 0.19,4.591 0.147,4.621 0.057,4.673 -0.038,4.715 -0.134,4.747 -0.155,4.751 -0.189,4.767 -0.238,4.792 -0.288,4.819 -0.346,4.85 -0.412,4.888 -0.479,4.925 -0.541,4.962 -0.598,4.997 l -0.177,0.085 c -0.261,0.151 -0.402,0.339 -0.421,0.565 -0.015,0.16 0.03,0.334 0.134,0.524 0.071,0.107 0.176,0.166 0.316,0.179 0.1,0.008 0.195,-0.01 0.285,-0.056 C -0.271,6.197 -0.079,6.103 0.116,6.013 0.388,5.896 0.65,5.765 0.903,5.62 1.278,5.385 1.637,5.126 1.976,4.841 L 2.515,4.417 C 2.952,4.073 3.305,3.645 3.57,3.133 3.628,3.011 3.663,2.883 3.675,2.751 3.685,2.631 3.675,2.51 3.646,2.387 3.574,1.985 3.426,1.635 3.201,1.334 2.977,1.033 2.721,0.753 2.437,0.495 2.331,0.392 2.219,0.298 2.1,0.214 1.904,0.07 1.729,-0.1 1.571,-0.294 1.506,-0.38 1.425,-0.451 1.329,-0.506 1.188,-0.585 1.031,-0.729 0.855,-0.939 0.724,-1.118 0.563,-1.269 0.373,-1.393 0.297,-1.439 0.237,-1.508 0.195,-1.599 0.153,-1.689 0.067,-1.794 -0.063,-1.913 -0.357,-2.22 -0.656,-2.516 -0.96,-2.804 -1.083,-2.922 -1.208,-2.986 -1.334,-2.998" /></g><g
             transform="translate(88.2121,395.9775)"
             id="g1092"
             style="fill:#f4da98;fill-opacity:1"><path
               inkscape:connector-curvature="0"
               id="path1094"
               style="fill:#f4da98;fill-opacity:1;fill-rule:nonzero;stroke:none"
               d="m 0,0 c -0.059,-0.005 -0.146,0.01 -0.26,0.047 -0.113,0.037 -0.209,0.156 -0.287,0.356 -0.017,0.053 -0.029,0.105 -0.033,0.158 -0.009,0.093 0.006,0.188 0.045,0.285 0.081,0.215 0.119,0.432 0.113,0.653 0.018,0.262 0.075,0.521 0.173,0.778 0.102,0.37 0.162,0.743 0.184,1.119 0.034,0.365 0.078,0.633 0.129,0.805 0.042,0.131 0.075,0.264 0.096,0.4 C 0.223,5.182 0.375,5.737 0.616,6.267 0.709,6.509 0.882,6.642 1.134,6.664 1.313,6.68 1.478,6.637 1.627,6.537 1.741,6.459 1.804,6.347 1.816,6.202 1.822,6.135 1.816,6.058 1.797,5.969 1.512,4.94 1.329,4.202 1.248,3.752 1.193,3.467 1.128,3.184 1.052,2.902 0.939,2.498 0.882,2.084 0.879,1.663 0.876,1.542 0.853,1.43 0.808,1.325 0.735,1.158 0.7,0.988 0.702,0.814 0.681,0.524 0.553,0.302 0.318,0.148 0.213,0.058 0.107,0.009 0,0" /></g><g
             transform="translate(66.9074,389.7764)"
             id="g1096"
             style="fill:#f4da98;fill-opacity:1"><path
               inkscape:connector-curvature="0"
               id="path1098"
               style="fill:#f4da98;fill-opacity:1;fill-rule:nonzero;stroke:none"
               d="M 0,0 C 0.771,0.596 1.5,1.252 2.188,1.968 2.268,2.042 2.345,2.119 2.418,2.199 2.103,2.279 1.809,2.317 1.534,2.313 L 1.385,2.31 C 1.285,2.301 1.181,2.282 1.072,2.253 0.965,2.223 0.865,2.201 0.772,2.186 0.573,2.168 0.462,2.059 0.44,1.855 0.399,1.477 0.298,1.11 0.135,0.755 0.021,0.531 -0.024,0.279 0,0 m -1.684,-5.768 c -0.099,-0.009 -0.209,0.022 -0.329,0.091 -0.206,0.136 -0.321,0.34 -0.344,0.613 -0.007,0.079 -0.005,0.163 0.007,0.251 0.067,0.314 0.129,0.63 0.189,0.95 0.136,0.741 0.285,1.481 0.448,2.218 l 0.165,0.747 c 0.1,0.471 0.21,0.935 0.33,1.394 0.045,0.178 0.083,0.355 0.114,0.532 0.044,0.265 0.112,0.525 0.203,0.781 0.009,0.041 0.013,0.077 0.01,0.111 -0.004,0.039 -0.018,0.102 -0.046,0.186 -0.055,0.09 -0.088,0.204 -0.1,0.343 -0.007,0.073 0.005,0.155 0.033,0.244 0.029,0.09 0.132,0.199 0.309,0.328 0.201,0.145 0.416,0.248 0.644,0.308 0.334,0.089 0.694,0.15 1.079,0.184 0.186,0.017 0.375,0.027 0.57,0.03 0.12,0.003 0.243,0.011 0.369,0.022 C 2.456,3.561 2.926,3.465 3.377,3.277 3.412,3.26 3.45,3.247 3.491,3.237 3.816,3.111 3.992,2.899 4.019,2.601 4.034,2.428 3.993,2.247 3.896,2.057 3.698,1.712 3.453,1.417 3.16,1.17 3.091,1.111 3.026,1.048 2.966,0.983 2.639,0.659 2.306,0.346 1.964,0.042 1.783,-0.115 1.607,-0.277 1.434,-0.446 1.075,-0.786 0.859,-0.97 0.785,-1 0.711,-1.03 0.65,-1.081 0.603,-1.151 0.871,-1.389 1.161,-1.564 1.472,-1.678 1.687,-1.767 1.891,-1.872 2.082,-1.996 2.358,-2.179 2.647,-2.348 2.949,-2.502 3.139,-2.599 3.242,-2.757 3.262,-2.977 3.274,-3.116 3.242,-3.253 3.167,-3.387 3.037,-3.579 2.853,-3.685 2.612,-3.706 2.474,-3.718 2.353,-3.682 2.252,-3.597 1.985,-3.38 1.695,-3.201 1.383,-3.061 c -0.266,0.124 -0.521,0.276 -0.764,0.455 -0.036,0.03 -0.075,0.049 -0.12,0.055 -0.044,0.006 -0.081,0.016 -0.112,0.03 -0.033,0.014 -0.069,0.026 -0.109,0.036 -0.222,0.081 -0.375,0.192 -0.461,0.331 -0.053,0.082 -0.152,0.134 -0.295,0.155 -0.108,-0.21 -0.169,-0.43 -0.183,-0.658 L -0.706,-2.942 -1.002,-4.263 C -1.039,-4.454 -1.06,-4.64 -1.063,-4.821 -1.087,-5.097 -1.179,-5.339 -1.342,-5.547 l -0.01,-0.001 c -0.095,-0.136 -0.206,-0.209 -0.332,-0.22" /></g><g
             transform="translate(70.0002,385.1685)"
             id="g1100"
             style="fill:#f4da98;fill-opacity:1"><path
               inkscape:connector-curvature="0"
               id="path1102"
               style="fill:#f4da98;fill-opacity:1;fill-rule:nonzero;stroke:none"
               d="m 0,0 -0.188,-0.017 c -0.261,-0.002 -0.459,0.081 -0.595,0.25 -0.083,0.106 -0.13,0.226 -0.142,0.359 -0.008,0.086 0.001,0.181 0.026,0.283 0.098,0.33 0.259,0.625 0.484,0.886 0.201,0.232 0.405,0.457 0.613,0.676 L 0.667,2.939 C 0.74,3.02 0.821,3.087 0.91,3.142 0.962,3.166 1.009,3.197 1.053,3.234 1.165,3.317 1.22,3.386 1.216,3.439 1.21,3.499 1.15,3.567 1.037,3.645 L 0.825,3.767 C 0.661,3.886 0.542,4.056 0.47,4.277 0.435,4.368 0.414,4.453 0.407,4.533 0.389,4.739 0.481,5.054 0.685,5.48 0.753,5.627 0.833,5.704 0.926,5.712 0.979,5.717 1.044,5.703 1.12,5.67 1.087,5.747 1.067,5.818 1.062,5.885 1.047,6.051 1.125,6.226 1.297,6.407 1.321,6.43 1.343,6.455 1.36,6.483 1.633,6.814 1.924,7.128 2.232,7.423 2.38,7.57 2.514,7.648 2.633,7.658 2.679,7.663 2.729,7.661 2.784,7.652 L 2.785,7.642 2.835,7.636 C 2.849,7.638 2.861,7.646 2.874,7.66 2.926,7.751 2.991,7.804 3.07,7.818 3.177,7.827 3.257,7.831 3.311,7.829 L 3.371,7.824 C 3.626,7.812 3.852,7.729 4.046,7.571 4.146,7.487 4.222,7.385 4.269,7.265 4.315,7.146 4.352,7.023 4.376,6.898 4.388,6.839 4.399,6.788 4.409,6.745 4.419,6.702 4.427,6.661 4.43,6.622 4.445,6.442 4.387,6.273 4.254,6.115 4.12,5.955 3.974,5.869 3.814,5.854 3.795,5.853 3.732,5.856 3.628,5.863 3.523,5.871 3.402,5.973 3.266,6.168 L 3.228,6.255 C 3.209,6.314 3.171,6.367 3.113,6.416 2.995,6.386 2.897,6.332 2.821,6.255 2.744,6.178 2.679,6.097 2.626,6.012 2.573,5.927 2.521,5.852 2.466,5.787 2.44,5.765 2.42,5.732 2.403,5.691 2.388,5.649 2.359,5.617 2.322,5.594 2.213,5.531 2.128,5.453 2.066,5.361 2.004,5.268 1.947,5.173 1.896,5.075 1.84,4.949 1.769,4.833 1.685,4.725 1.955,4.628 2.227,4.56 2.501,4.521 2.775,4.48 2.978,4.333 3.106,4.077 3.154,3.987 3.183,3.899 3.19,3.813 3.195,3.753 3.19,3.674 3.176,3.576 3.161,3.477 3.089,3.379 2.961,3.281 2.832,3.182 2.709,3.071 2.593,2.947 2.508,2.859 2.418,2.778 2.323,2.703 2.232,2.595 2.113,2.507 1.965,2.441 1.855,2.391 1.766,2.316 1.694,2.216 1.651,2.159 1.605,2.108 1.557,2.063 L 0.941,1.518 C 0.99,1.495 1.034,1.486 1.074,1.489 1.128,1.494 1.177,1.505 1.223,1.522 l 0.02,0.002 c 0.419,0.171 0.832,0.354 1.236,0.55 0.18,0.082 0.364,0.162 0.551,0.239 0.233,0.101 0.46,0.208 0.685,0.321 0.064,0.032 0.13,0.051 0.196,0.057 0.06,0.005 0.116,0 0.172,-0.015 C 4.384,2.609 4.544,2.445 4.566,2.187 4.584,1.987 4.506,1.816 4.331,1.674 4.182,1.547 4.017,1.439 3.838,1.35 2.963,0.865 2.043,0.48 1.077,0.195 0.725,0.098 0.365,0.032 0,0" /></g><g
             transform="translate(76.3938,389.9941)"
             id="g1104"
             style="fill:#f4da98;fill-opacity:1"><path
               inkscape:connector-curvature="0"
               id="path1106"
               style="fill:#f4da98;fill-opacity:1;fill-rule:nonzero;stroke:none"
               d="M 0,0 0.175,0.307 C 0.227,0.392 0.29,0.437 0.363,0.444 0.396,0.447 0.43,0.443 0.465,0.432 0.471,0.433 0.476,0.438 0.478,0.449 0.48,0.459 0.484,0.471 0.49,0.485 0.583,0.72 0.706,0.918 0.859,1.079 0.944,1.18 1.025,1.288 1.103,1.402 1.148,1.479 1.214,1.542 1.297,1.589 1.41,1.666 1.51,1.755 1.595,1.856 1.649,1.921 1.708,1.982 1.77,2.037 1.832,2.093 1.861,2.137 1.858,2.17 L 1.845,2.219 C 1.805,2.29 1.748,2.321 1.675,2.315 1.495,2.306 1.316,2.325 1.138,2.373 0.96,2.421 0.804,2.439 0.672,2.428 0.651,2.426 0.625,2.417 0.594,2.401 0.562,2.385 0.484,2.114 0.363,1.588 0.259,1.104 0.12,0.626 -0.053,0.156 L -0.06,0.115 C -0.057,0.082 -0.037,0.043 0,0 m -1.363,-4.717 c -0.094,-0.008 -0.199,0.007 -0.315,0.043 -0.317,0.099 -0.487,0.286 -0.511,0.558 -0.007,0.086 10e-4,0.169 0.029,0.248 0.026,0.079 0.043,0.153 0.051,0.221 0.031,0.484 0.121,0.947 0.269,1.388 0.064,0.193 0.107,0.387 0.13,0.584 0.032,0.237 0.097,0.466 0.19,0.689 0.061,0.153 0.093,0.319 0.098,0.501 0.009,0.127 0.027,0.256 0.056,0.386 0.051,0.184 0.095,0.372 0.132,0.563 l 0.237,0.954 c 0.101,0.377 0.178,0.679 0.232,0.904 C -0.711,2.548 -0.653,2.773 -0.593,3 -0.474,3.318 -0.26,3.551 0.048,3.698 0.1,3.723 0.148,3.737 0.195,3.741 0.248,3.746 0.299,3.74 0.348,3.725 0.676,3.646 1.007,3.608 1.341,3.611 1.555,3.616 1.756,3.573 1.944,3.483 l 0.02,0.002 C 1.979,3.472 1.996,3.464 2.017,3.459 2.257,3.46 2.477,3.402 2.674,3.286 2.767,3.233 2.859,3.191 2.956,3.16 3.129,3.095 3.257,2.996 3.339,2.862 3.421,2.729 3.482,2.583 3.522,2.426 L 3.538,2.368 C 3.543,2.301 3.512,2.211 3.44,2.098 3.25,1.833 3.033,1.594 2.791,1.378 2.592,1.207 2.422,1.011 2.28,0.792 2.223,0.68 2.141,0.585 2.034,0.509 1.871,0.388 1.729,0.245 1.609,0.081 1.508,-0.055 1.39,-0.18 1.256,-0.292 1.122,-0.404 1.005,-0.538 0.904,-0.694 0.782,-0.905 0.613,-1.071 0.396,-1.189 L 0.377,-1.202 C 0.306,-1.228 0.245,-1.263 0.195,-1.308 0.146,-1.352 0.058,-1.38 -0.068,-1.391 -0.148,-1.398 -0.219,-1.418 -0.279,-1.45 -0.34,-1.482 -0.375,-1.56 -0.384,-1.685 -0.394,-1.81 -0.428,-1.928 -0.488,-2.04 c -0.061,-0.113 -0.095,-0.239 -0.103,-0.381 -0.014,-0.288 -0.071,-0.558 -0.17,-0.807 -0.101,-0.304 -0.151,-0.613 -0.15,-0.927 l 0.003,-0.03 c -0.058,-0.333 -0.21,-0.51 -0.455,-0.532" /></g><g
             transform="translate(78.966,385.9531)"
             id="g1108"
             style="fill:#f4da98;fill-opacity:1"><path
               inkscape:connector-curvature="0"
               id="path1110"
               style="fill:#f4da98;fill-opacity:1;fill-rule:nonzero;stroke:none"
               d="m 0,0 -0.188,-0.017 c -0.261,-0.003 -0.459,0.08 -0.595,0.25 -0.083,0.106 -0.13,0.225 -0.142,0.358 -0.008,0.087 0.001,0.181 0.026,0.284 0.098,0.33 0.259,0.625 0.484,0.885 0.201,0.233 0.405,0.457 0.613,0.677 L 0.667,2.939 C 0.74,3.019 0.821,3.087 0.91,3.141 0.961,3.166 1.009,3.197 1.053,3.234 1.165,3.317 1.22,3.386 1.215,3.438 1.21,3.499 1.15,3.567 1.037,3.645 L 0.825,3.767 C 0.66,3.886 0.542,4.056 0.47,4.277 0.435,4.368 0.414,4.453 0.406,4.533 0.389,4.739 0.481,5.054 0.685,5.48 0.752,5.627 0.833,5.704 0.926,5.712 0.979,5.717 1.044,5.703 1.121,5.669 1.087,5.746 1.067,5.818 1.062,5.885 1.047,6.051 1.125,6.225 1.297,6.407 1.321,6.43 1.343,6.455 1.36,6.483 1.633,6.814 1.923,7.127 2.232,7.423 2.379,7.57 2.513,7.648 2.633,7.658 2.679,7.662 2.729,7.661 2.784,7.652 L 2.785,7.642 2.835,7.636 C 2.849,7.637 2.861,7.645 2.874,7.66 2.926,7.751 2.991,7.804 3.07,7.817 3.177,7.827 3.256,7.831 3.311,7.829 L 3.371,7.824 C 3.626,7.812 3.852,7.729 4.046,7.571 4.146,7.487 4.221,7.384 4.269,7.265 4.315,7.145 4.352,7.023 4.376,6.898 4.387,6.838 4.398,6.787 4.409,6.745 4.419,6.702 4.426,6.661 4.43,6.621 4.445,6.442 4.387,6.272 4.254,6.114 4.12,5.955 3.974,5.869 3.814,5.854 3.795,5.853 3.732,5.855 3.628,5.863 3.523,5.871 3.402,5.973 3.266,6.167 L 3.228,6.255 C 3.209,6.314 3.171,6.367 3.113,6.416 2.995,6.386 2.897,6.332 2.821,6.255 2.744,6.178 2.679,6.097 2.626,6.012 2.573,5.927 2.521,5.852 2.465,5.787 2.44,5.765 2.419,5.732 2.403,5.691 2.388,5.649 2.359,5.617 2.321,5.593 2.213,5.53 2.128,5.453 2.065,5.36 2.004,5.268 1.946,5.172 1.896,5.075 1.839,4.949 1.769,4.833 1.685,4.725 1.955,4.628 2.227,4.559 2.501,4.521 2.775,4.48 2.978,4.333 3.106,4.077 3.154,3.987 3.183,3.898 3.19,3.813 3.195,3.752 3.19,3.674 3.176,3.576 3.161,3.477 3.089,3.378 2.961,3.281 2.832,3.182 2.709,3.071 2.594,2.947 2.508,2.859 2.417,2.778 2.323,2.703 2.232,2.595 2.113,2.507 1.965,2.441 1.855,2.391 1.766,2.316 1.693,2.216 1.651,2.159 1.605,2.108 1.557,2.063 L 0.941,1.518 C 0.99,1.495 1.034,1.486 1.074,1.489 1.127,1.494 1.177,1.504 1.223,1.522 l 0.019,0.002 c 0.42,0.171 0.832,0.354 1.237,0.55 0.18,0.082 0.364,0.162 0.551,0.239 0.233,0.101 0.46,0.207 0.685,0.321 0.064,0.032 0.129,0.051 0.195,0.057 0.061,0.005 0.117,0 0.173,-0.015 C 4.383,2.609 4.544,2.445 4.566,2.187 4.584,1.987 4.506,1.816 4.331,1.674 4.182,1.547 4.017,1.439 3.837,1.35 2.963,0.865 2.043,0.48 1.077,0.194 0.725,0.097 0.365,0.032 0,0" /></g><g
             transform="translate(86.049,390.9395)"
             id="g1112"
             style="fill:#f4da98;fill-opacity:1"><path
               inkscape:connector-curvature="0"
               id="path1114"
               style="fill:#f4da98;fill-opacity:1;fill-rule:nonzero;stroke:none"
               d="M 0,0 C 0.025,0.008 0.052,0.051 0.079,0.127 0.128,0.326 0.139,0.584 0.111,0.903 0.1,1.036 0.08,1.141 0.054,1.219 -0.039,1.13 -0.113,0.989 -0.17,0.793 -0.227,0.597 -0.273,0.411 -0.312,0.233 L -0.364,0.028 c 0.06,-0.001 0.116,-0.008 0.167,-0.02 0.051,-0.012 0.093,-0.017 0.127,-0.014 z m -3.302,-5.178 c -0.259,-0.022 -0.447,0.065 -0.564,0.262 -0.041,0.077 -0.065,0.156 -0.072,0.235 -0.009,0.106 0.011,0.218 0.062,0.336 0.141,0.294 0.369,0.789 0.683,1.486 0.724,1.583 1.183,2.542 1.374,2.881 0.081,0.147 0.188,0.371 0.323,0.67 0.309,0.67 0.527,1.08 0.655,1.232 0.024,0.035 0.043,0.077 0.059,0.126 0.127,0.613 0.386,1.134 0.776,1.563 0.099,0.096 0.212,0.149 0.338,0.16 C 0.378,3.777 0.459,3.771 0.575,3.754 0.69,3.738 0.795,3.649 0.889,3.491 1.051,3.164 1.148,2.821 1.18,2.462 1.195,2.283 1.205,1.939 1.209,1.431 1.215,0.989 1.227,0.666 1.244,0.46 L 1.264,0.241 C 1.311,0.004 1.345,-0.23 1.365,-0.463 1.388,-0.722 1.394,-0.982 1.383,-1.244 1.38,-1.432 1.396,-1.728 1.431,-2.133 1.456,-2.419 1.477,-2.692 1.492,-2.951 1.497,-3.158 1.49,-3.39 1.474,-3.646 1.459,-3.875 1.348,-4.051 1.138,-4.177 1.067,-4.216 0.996,-4.239 0.923,-4.246 0.744,-4.261 0.581,-4.195 0.434,-4.047 c -0.124,0.123 -0.197,0.29 -0.215,0.503 -0.028,0.318 -0.046,0.714 -0.054,1.19 -0.008,0.32 -0.017,0.543 -0.028,0.669 -0.003,0.04 0,0.074 0.011,0.102 l -0.002,0.15 c -0.008,0.08 -0.026,0.132 -0.055,0.156 -0.029,0.024 -0.087,0.032 -0.173,0.025 -0.126,-0.011 -0.245,-0.028 -0.356,-0.051 -0.046,-0.011 -0.106,-0.02 -0.179,-0.026 -0.06,-0.005 -0.124,-0.004 -0.191,0.003 -0.068,0.008 -0.131,0.009 -0.191,0.004 -0.126,-0.011 -0.275,-0.219 -0.447,-0.622 l -0.57,-1.294 -0.628,-1.44 c -0.126,-0.305 -0.345,-0.472 -0.658,-0.5" /></g><g
             transform="translate(88.3615,386.0728)"
             id="g1116"
             style="fill:#f4da98;fill-opacity:1"><path
               inkscape:connector-curvature="0"
               id="path1118"
               style="fill:#f4da98;fill-opacity:1;fill-rule:nonzero;stroke:none"
               d="m 0,0 c -0.054,-0.004 -0.135,0.005 -0.243,0.028 -0.11,0.024 -0.203,0.137 -0.28,0.337 -0.027,0.065 -0.041,0.127 -0.047,0.187 -0.007,0.087 0.002,0.171 0.028,0.253 0.074,0.214 0.105,0.435 0.093,0.661 0.006,0.235 0.046,0.466 0.12,0.693 l 0.021,0.092 c 0.088,0.376 0.14,0.753 0.158,1.133 0.016,0.38 0.046,0.643 0.087,0.791 0.04,0.147 0.064,0.292 0.072,0.433 C 0.058,5.187 0.192,5.751 0.413,6.3 0.462,6.424 0.501,6.551 0.529,6.681 0.565,6.885 0.635,7.092 0.736,7.302 L 0.487,7.28 C 0.341,7.267 0.21,7.236 0.094,7.186 -0.06,7.111 -0.224,7.067 -0.396,7.052 -0.575,7.036 -0.726,7.07 -0.847,7.153 c -0.162,0.1 -0.252,0.242 -0.267,0.429 -0.01,0.105 0.01,0.219 0.059,0.341 0.05,0.121 0.145,0.225 0.284,0.31 0.244,0.122 0.476,0.193 0.695,0.212 C 0.01,8.453 0.092,8.47 0.17,8.497 0.555,8.617 0.947,8.722 1.348,8.811 1.827,8.913 2.181,9.004 2.407,9.084 2.609,9.155 2.813,9.2 3.018,9.218 l 0.3,0.016 C 3.675,9.205 3.873,9.048 3.911,8.764 3.939,8.371 3.78,8.117 3.436,8 3.083,7.901 2.729,7.824 2.372,7.766 2.26,7.75 2.171,7.713 2.105,7.658 2.04,7.601 1.986,7.515 1.942,7.397 1.8,6.963 1.685,6.521 1.597,6.072 1.547,5.8 1.432,5.278 1.252,4.506 1.205,4.281 1.164,4.053 1.132,3.823 1.09,3.531 1.038,3.242 0.977,2.956 0.878,2.546 0.834,2.131 0.844,1.71 0.848,1.59 0.828,1.474 0.784,1.363 0.719,1.197 0.69,1.024 0.699,0.844 0.685,0.555 0.563,0.324 0.338,0.15 0.226,0.059 0.113,0.01 0,0" /></g><g
             transform="translate(90.6916,386.979)"
             id="g1120"
             style="fill:#f4da98;fill-opacity:1"><path
               inkscape:connector-curvature="0"
               id="path1122"
               style="fill:#f4da98;fill-opacity:1;fill-rule:nonzero;stroke:none"
               d="m 0,0 -0.189,-0.017 c -0.261,-0.003 -0.459,0.08 -0.594,0.25 -0.083,0.106 -0.131,0.225 -0.142,0.358 -0.008,0.087 0,0.181 0.026,0.284 0.097,0.33 0.259,0.625 0.484,0.885 0.201,0.232 0.405,0.457 0.613,0.677 L 0.666,2.939 C 0.739,3.019 0.82,3.087 0.909,3.141 0.961,3.166 1.008,3.197 1.052,3.234 1.165,3.317 1.22,3.386 1.215,3.438 1.21,3.499 1.15,3.567 1.036,3.645 L 0.824,3.767 C 0.661,3.886 0.541,4.056 0.469,4.277 0.434,4.368 0.413,4.453 0.406,4.532 0.389,4.738 0.481,5.054 0.685,5.48 0.752,5.627 0.833,5.704 0.926,5.712 0.979,5.717 1.043,5.703 1.12,5.669 1.086,5.746 1.066,5.818 1.061,5.885 1.046,6.051 1.125,6.226 1.297,6.407 1.321,6.43 1.342,6.455 1.36,6.483 1.632,6.814 1.923,7.128 2.231,7.423 2.379,7.569 2.513,7.647 2.633,7.658 2.679,7.662 2.729,7.661 2.783,7.652 L 2.784,7.642 2.835,7.636 C 2.848,7.637 2.861,7.645 2.873,7.66 2.925,7.751 2.991,7.804 3.07,7.817 3.177,7.827 3.257,7.83 3.311,7.829 L 3.371,7.824 C 3.626,7.812 3.851,7.729 4.046,7.571 4.146,7.486 4.221,7.384 4.268,7.265 4.315,7.145 4.351,7.023 4.376,6.898 4.387,6.838 4.398,6.787 4.408,6.745 4.419,6.702 4.426,6.661 4.43,6.621 4.445,6.442 4.387,6.272 4.253,6.114 4.119,5.955 3.973,5.868 3.814,5.854 3.794,5.853 3.731,5.855 3.628,5.863 3.523,5.871 3.402,5.973 3.265,6.167 L 3.227,6.255 C 3.208,6.313 3.17,6.367 3.112,6.416 2.995,6.386 2.896,6.332 2.82,6.255 2.743,6.178 2.679,6.097 2.626,6.012 2.573,5.927 2.52,5.852 2.465,5.787 2.439,5.765 2.419,5.732 2.403,5.691 2.387,5.649 2.359,5.617 2.321,5.594 2.213,5.53 2.128,5.453 2.065,5.36 2.004,5.268 1.946,5.172 1.895,5.075 1.839,4.949 1.769,4.833 1.685,4.725 1.954,4.628 2.226,4.559 2.5,4.521 2.775,4.48 2.977,4.333 3.106,4.076 3.154,3.987 3.182,3.898 3.189,3.813 3.195,3.752 3.19,3.674 3.176,3.576 3.16,3.477 3.089,3.379 2.96,3.281 2.831,3.182 2.709,3.071 2.593,2.947 2.507,2.859 2.417,2.778 2.323,2.703 2.231,2.595 2.112,2.507 1.965,2.441 1.855,2.391 1.765,2.315 1.693,2.216 1.651,2.159 1.605,2.108 1.556,2.063 L 0.941,1.518 C 0.99,1.495 1.034,1.486 1.074,1.489 1.127,1.494 1.177,1.504 1.222,1.522 l 0.02,0.002 c 0.42,0.17 0.832,0.354 1.237,0.55 0.179,0.082 0.364,0.162 0.55,0.239 0.233,0.101 0.46,0.208 0.686,0.321 0.063,0.032 0.129,0.051 0.195,0.057 0.06,0.005 0.117,0 0.172,-0.015 C 4.382,2.609 4.544,2.445 4.566,2.187 4.584,1.987 4.505,1.816 4.33,1.674 4.181,1.547 4.017,1.439 3.837,1.35 2.962,0.865 2.043,0.48 1.077,0.194 0.725,0.097 0.364,0.032 0,0" /></g><g
             transform="translate(97.0324,392.4121)"
             id="g1124"
             style="fill:#f4da98;fill-opacity:1"><path
               inkscape:connector-curvature="0"
               id="path1126"
               style="fill:#f4da98;fill-opacity:1;fill-rule:nonzero;stroke:none"
               d="M 0,0 C 0.771,0.596 1.499,1.252 2.187,1.968 2.267,2.042 2.344,2.119 2.417,2.199 2.102,2.279 1.808,2.317 1.534,2.313 L 1.384,2.31 C 1.284,2.301 1.181,2.282 1.072,2.252 0.964,2.223 0.864,2.201 0.772,2.186 0.572,2.168 0.462,2.059 0.44,1.855 0.398,1.477 0.297,1.11 0.135,0.755 0.021,0.531 -0.024,0.279 0,0 m -1.685,-5.768 c -0.099,-0.009 -0.209,0.022 -0.328,0.091 -0.207,0.136 -0.321,0.34 -0.344,0.613 -0.008,0.079 -0.005,0.163 0.007,0.251 0.067,0.314 0.129,0.63 0.188,0.95 0.136,0.741 0.286,1.481 0.449,2.218 l 0.165,0.747 c 0.1,0.471 0.209,0.935 0.33,1.394 0.044,0.177 0.083,0.355 0.114,0.532 0.043,0.265 0.111,0.525 0.203,0.781 0.009,0.041 0.012,0.077 0.009,0.111 -0.003,0.039 -0.018,0.101 -0.045,0.186 -0.055,0.09 -0.088,0.204 -0.101,0.343 -0.006,0.073 0.006,0.155 0.034,0.244 0.029,0.09 0.132,0.199 0.308,0.328 0.201,0.145 0.416,0.248 0.645,0.308 0.334,0.089 0.694,0.15 1.078,0.184 0.186,0.017 0.376,0.026 0.57,0.03 C 1.718,3.546 1.84,3.554 1.967,3.565 2.455,3.561 2.925,3.465 3.377,3.277 3.412,3.26 3.449,3.247 3.49,3.237 3.816,3.111 3.992,2.899 4.019,2.601 4.033,2.428 3.992,2.247 3.896,2.057 3.697,1.712 3.453,1.417 3.16,1.17 3.091,1.111 3.026,1.048 2.966,0.982 2.639,0.659 2.305,0.346 1.964,0.042 1.783,-0.115 1.606,-0.277 1.434,-0.446 1.075,-0.786 0.859,-0.97 0.785,-1 0.71,-1.03 0.649,-1.081 0.603,-1.151 0.87,-1.389 1.16,-1.564 1.472,-1.678 1.687,-1.767 1.89,-1.872 2.081,-1.996 2.358,-2.179 2.647,-2.348 2.949,-2.502 3.139,-2.6 3.242,-2.758 3.262,-2.977 3.273,-3.116 3.242,-3.253 3.167,-3.387 3.036,-3.579 2.852,-3.685 2.612,-3.706 2.473,-3.718 2.353,-3.682 2.251,-3.597 1.985,-3.38 1.694,-3.201 1.382,-3.061 c -0.266,0.124 -0.521,0.276 -0.763,0.455 -0.036,0.03 -0.076,0.049 -0.12,0.055 -0.045,0.006 -0.082,0.016 -0.113,0.03 -0.032,0.014 -0.068,0.026 -0.109,0.036 -0.221,0.081 -0.375,0.192 -0.461,0.331 -0.053,0.082 -0.152,0.134 -0.294,0.155 -0.109,-0.21 -0.17,-0.43 -0.183,-0.658 L -0.706,-2.942 -1.003,-4.263 C -1.039,-4.454 -1.06,-4.64 -1.064,-4.821 -1.087,-5.097 -1.18,-5.339 -1.342,-5.547 l -0.01,-0.001 c -0.095,-0.136 -0.207,-0.209 -0.333,-0.22" /></g></g></g></g></g><g
     inkscape:groupmode="layer"
     id="layer3"
     inkscape:label="Layer 1"
     style="display:inline"><g
       aria-label="1"
       style="font-style:normal;font-variant:normal;font-weight:normal;font-stretch:normal;font-size:12px;line-height:100%;font-family:DIN;-inkscape-font-specification:DIN;text-align:center;letter-spacing:0px;word-spacing:0px;writing-mode:lr-tb;text-anchor:middle;display:inline;fill:#f4da98;fill-opacity:1;stroke:#292727;stroke-width:3.7795279;stroke-linecap:butt;stroke-linejoin:miter;stroke-miterlimit:4;stroke-dasharray:none;stroke-opacity:1"
       id="text1079-7"
       transform="translate(-0.05293919,272.126)"><path
         d="m 67.846006,74.193283 v -8.544 h -1.224 l -1.668,1.44 v 1.356 l 1.668,-1.464 v 7.212 z"
         id="path1177-53"
         inkscape:connector-curvature="0"
         style="stroke:#292727;stroke-width:3.7795279;stroke-miterlimit:4;stroke-dasharray:none;stroke-opacity:1" /></g><g
       aria-label="2"
       style="font-style:normal;font-variant:normal;font-weight:normal;font-stretch:normal;font-size:12px;line-height:100%;font-family:DIN;-inkscape-font-specification:DIN;text-align:center;letter-spacing:0px;word-spacing:0px;writing-mode:lr-tb;text-anchor:middle;display:inline;fill:#f4da98;fill-opacity:1;stroke:#292727;stroke-width:3.7795279;stroke-linecap:butt;stroke-linejoin:miter;stroke-miterlimit:4;stroke-dasharray:none;stroke-opacity:1"
       id="text1083-5"
       transform="translate(-0.05293919,272.126)"><path
         d="m 68.884004,119.58361 v -1.092 h -3.48 l 2.676,-3.276 q 0.396,-0.48 0.6,-0.876 0.204,-0.408 0.204,-0.972 0,-0.552 -0.18,-0.996 -0.18,-0.444 -0.504,-0.756 -0.324,-0.312 -0.78,-0.48 -0.456,-0.168 -1.008,-0.168 -0.54,0 -0.996,0.18 -0.456,0.168 -0.792,0.48 -0.324,0.312 -0.516,0.768 -0.18,0.444 -0.18,0.984 h 1.224 q 0,-0.36 0.108,-0.612 0.108,-0.252 0.276,-0.408 0.18,-0.156 0.408,-0.228 0.228,-0.072 0.468,-0.072 0.6,0 0.924,0.36 0.324,0.36 0.324,0.936 0,0.324 -0.108,0.588 -0.108,0.252 -0.348,0.552 l -3.288,3.996 v 1.092 z"
         id="path1174-6"
         inkscape:connector-curvature="0"
         style="stroke:#292727;stroke-width:3.7795279;stroke-miterlimit:4;stroke-dasharray:none;stroke-opacity:1" /></g><g
       aria-label="3"
       style="font-style:normal;font-variant:normal;font-weight:normal;font-stretch:normal;font-size:12px;line-height:100%;font-family:DIN;-inkscape-font-specification:DIN;text-align:center;letter-spacing:0px;word-spacing:0px;writing-mode:lr-tb;text-anchor:middle;display:inline;fill:#f4da98;fill-opacity:1;stroke:#292727;stroke-width:3.7795279;stroke-linecap:butt;stroke-linejoin:miter;stroke-miterlimit:4;stroke-dasharray:none;stroke-opacity:1"
       id="text1087-2"
       transform="translate(-0.05293919,272.126)"><path
         d="m 69.016006,162.50195 q 0,-0.792 -0.324,-1.284 -0.324,-0.492 -0.876,-0.732 0.504,-0.24 0.78,-0.684 0.288,-0.456 0.288,-1.14 0,-0.528 -0.192,-0.96 -0.18,-0.444 -0.516,-0.756 -0.324,-0.324 -0.78,-0.492 -0.456,-0.18 -0.996,-0.18 -0.516,0 -0.96,0.168 -0.444,0.156 -0.78,0.456 -0.336,0.3 -0.54,0.732 -0.204,0.432 -0.228,0.972 h 1.224 q 0.048,-0.576 0.384,-0.9 0.336,-0.324 0.9,-0.324 0.528,0 0.888,0.336 0.372,0.336 0.372,0.984 0,0.588 -0.312,0.948 -0.312,0.348 -0.984,0.348 h -0.204 v 1.068 h 0.204 q 0.72,0 1.068,0.384 0.36,0.372 0.36,1.02 0,0.684 -0.396,1.056 -0.396,0.36 -0.996,0.36 -0.264,0 -0.516,-0.072 -0.24,-0.072 -0.432,-0.228 -0.18,-0.168 -0.312,-0.408 -0.12,-0.24 -0.132,-0.588 h -1.224 q 0.012,0.624 0.228,1.08 0.228,0.456 0.588,0.756 0.36,0.288 0.816,0.432 0.468,0.132 0.984,0.132 0.54,0 1.008,-0.156 0.48,-0.156 0.828,-0.468 0.36,-0.312 0.564,-0.78 0.216,-0.468 0.216,-1.08 z"
         id="path1171-9"
         inkscape:connector-curvature="0"
         style="stroke:#292727;stroke-width:3.7795279;stroke-miterlimit:4;stroke-dasharray:none;stroke-opacity:1" /></g><g
       aria-label="OUTS"
       style="font-style:normal;font-variant:normal;font-weight:normal;font-stretch:normal;font-size:3.17499995px;line-height:100%;font-family:DIN;-inkscape-font-specification:DIN;text-align:center;letter-spacing:0px;word-spacing:0px;writing-mode:lr-tb;text-anchor:middle;display:inline;fill:#f4da98;fill-opacity:1;stroke:#292727;stroke-width:1;stroke-linecap:butt;stroke-linejoin:miter;stroke-miterlimit:4;stroke-dasharray:none;stroke-opacity:1"
       id="text940-1"
       transform="matrix(3.7795278,0,0,3.7795278,94.319679,-448.20251)"><path
         d="m -16.920475,200.32084 q 0,-0.16192 -0.0032,-0.2921 -0.0032,-0.13335 -0.02223,-0.2413 -0.01905,-0.10795 -0.0635,-0.20002 -0.04445,-0.0921 -0.127,-0.17463 -0.117475,-0.11747 -0.2667,-0.1778 -0.149225,-0.0635 -0.3302,-0.0635 -0.180975,0 -0.3302,0.0635 -0.14605,0.0603 -0.263525,0.1778 -0.08255,0.0825 -0.127,0.17463 -0.04445,0.0921 -0.06668,0.20002 -0.01905,0.10795 -0.02222,0.2413 -0.0032,0.13018 -0.0032,0.2921 0,0.16193 0.0032,0.29528 0.0032,0.13017 0.02222,0.23812 0.02223,0.10795 0.06668,0.20003 0.04445,0.0921 0.127,0.17462 0.117475,0.11748 0.263525,0.18098 0.149225,0.0603 0.3302,0.0603 0.180975,0 0.3302,-0.0603 0.149225,-0.0635 0.2667,-0.18098 0.08255,-0.0825 0.127,-0.17462 0.04445,-0.0921 0.0635,-0.20003 0.01905,-0.10795 0.02223,-0.23812 0.0032,-0.13335 0.0032,-0.29528 z m -0.3429,0 q 0,0.17145 -0.0064,0.28575 -0.0032,0.11113 -0.01905,0.1905 -0.0127,0.0762 -0.04127,0.13018 -0.0254,0.0508 -0.06668,0.0952 -0.06032,0.0635 -0.149225,0.1016 -0.08573,0.0381 -0.187325,0.0381 -0.1016,0 -0.1905,-0.0381 -0.08573,-0.0381 -0.14605,-0.1016 -0.04127,-0.0444 -0.06985,-0.0952 -0.0254,-0.054 -0.04127,-0.13018 -0.0127,-0.0794 -0.01905,-0.1905 -0.0032,-0.1143 -0.0032,-0.28575 0,-0.17145 0.0032,-0.28257 0.0063,-0.1143 0.01905,-0.1905 0.01587,-0.0794 0.04127,-0.13018 0.02858,-0.054 0.06985,-0.0984 0.06033,-0.0635 0.14605,-0.1016 0.0889,-0.0381 0.1905,-0.0381 0.1016,0 0.187325,0.0381 0.0889,0.0381 0.149225,0.1016 0.04127,0.0445 0.06668,0.0984 0.02858,0.0508 0.04127,0.13018 0.01588,0.0762 0.01905,0.1905 0.0064,0.11112 0.0064,0.28257 z"
         style="fill:#f4da98;fill-opacity:1;stroke:#292727;stroke-width:1;stroke-miterlimit:4;stroke-dasharray:none;stroke-opacity:1"
         id="path942-2"
         inkscape:connector-curvature="0" /><path
         d="m -14.823437,200.68914 v -1.4986 h -0.3429 v 1.48273 q 0,0.2286 -0.130175,0.35877 -0.127,0.13018 -0.339725,0.13018 -0.212725,0 -0.339725,-0.13018 -0.127,-0.13017 -0.127,-0.35877 v -1.48273 h -0.3429 v 1.4986 q 0,0.17463 0.06033,0.32068 0.0635,0.14287 0.17145,0.24447 0.10795,0.1016 0.257175,0.15875 0.149225,0.0572 0.320675,0.0572 0.17145,0 0.320675,-0.0572 0.149225,-0.0572 0.257175,-0.15875 0.111125,-0.1016 0.17145,-0.24447 0.0635,-0.14605 0.0635,-0.32068 z"
         style="fill:#f4da98;fill-opacity:1;stroke:#292727;stroke-width:1;stroke-miterlimit:4;stroke-dasharray:none;stroke-opacity:1"
         id="path944-7"
         inkscape:connector-curvature="0" /><path
         d="m -12.877857,199.49852 v -0.30798 h -1.5875 v 0.30798 h 0.6223 v 1.95262 h 0.3429 v -1.95262 z"
         style="fill:#f4da98;fill-opacity:1;stroke:#292727;stroke-width:1;stroke-miterlimit:4;stroke-dasharray:none;stroke-opacity:1"
         id="path946-0"
         inkscape:connector-curvature="0" /><path
         d="m -11.072721,200.80662 q 0,-0.14605 -0.04763,-0.26353 -0.04445,-0.11747 -0.136525,-0.20002 -0.07302,-0.0635 -0.168275,-0.1016 -0.09525,-0.0413 -0.254,-0.0667 l -0.257175,-0.0381 q -0.1651,-0.0254 -0.254,-0.10477 -0.04445,-0.0413 -0.06667,-0.0921 -0.01905,-0.054 -0.01905,-0.11747 0,-0.1524 0.104775,-0.25083 0.10795,-0.1016 0.307975,-0.1016 0.142875,0 0.263525,0.0381 0.123825,0.0349 0.2286,0.13653 l 0.219075,-0.2159 q -0.14605,-0.13653 -0.31115,-0.19685 -0.1651,-0.0603 -0.390525,-0.0603 -0.1778,0 -0.3175,0.0476 -0.1397,0.0476 -0.238125,0.13652 -0.09525,0.0889 -0.149225,0.21273 -0.0508,0.12065 -0.0508,0.2667 0,0.27622 0.1651,0.4318 0.1524,0.14287 0.428625,0.18097 l 0.2667,0.0381 q 0.1016,0.0159 0.1524,0.0349 0.0508,0.019 0.09525,0.0603 0.0889,0.0794 0.0889,0.23495 0,0.1651 -0.123825,0.25718 -0.12065,0.0889 -0.3429,0.0889 -0.174625,0 -0.314325,-0.0444 -0.1397,-0.0476 -0.263525,-0.17145 l -0.2286,0.22542 q 0.161925,0.1651 0.352425,0.23178 0.1905,0.0667 0.447675,0.0667 0.1778,0 0.327025,-0.0445 0.149225,-0.0444 0.257175,-0.13017 0.10795,-0.0857 0.168275,-0.20955 0.06033,-0.12383 0.06033,-0.2794 z"
         style="fill:#f4da98;fill-opacity:1;stroke:#292727;stroke-width:1;stroke-miterlimit:4;stroke-dasharray:none;stroke-opacity:1"
         id="path948-9"
         inkscape:connector-curvature="0" /></g><path
       style="display:inline;fill:#f4da98;fill-opacity:1;stroke:none;stroke-width:0;stroke-miterlimit:4;stroke-dasharray:none;stroke-opacity:1"
       inkscape:transform-center-x="7.4234112"
       inkscape:transform-center-y="5.2919366"
       d="m 59.187404,432.75594 a 20.787404,20.787404 0 0 1 -20.7874,20.7874 20.787404,20.787404 0 0 1 -20.787404,-20.7874 20.787404,20.787404 0 0 1 20.787404,-20.78741 20.787404,20.787404 0 0 1 20.7874,20.78741 z"
       id="path4964-1"
       inkscape:connector-curvature="0" /><path
       style="display:inline;fill:#f4da98;fill-opacity:1;stroke:none;stroke-width:0;stroke-miterlimit:4;stroke-dasharray:none;stroke-opacity:1"
       inkscape:transform-center-x="7.4234112"
       inkscape:transform-center-y="5.2919366"
       d="m 59.187402,387.4016 a 20.787404,20.787404 0 0 1 -20.7874,20.78741 20.787404,20.787404 0 0 1 -20.7874,-20.78741 20.787404,20.787404 0 0 1 20.7874,-20.78742 20.787404,20.787404 0 0 1 20.7874,20.78742 z"
       id="path4964-2"
       inkscape:connector-curvature="0" /><path
       style="display:inline;fill:#f4da98;fill-opacity:1;stroke:none;stroke-width:0;stroke-miterlimit:4;stroke-dasharray:none;stroke-opacity:1"
       inkscape:transform-center-x="7.4234112"
       inkscape:transform-center-y="5.2919366"
       d="m 59.187407,342.04727 a 20.787404,20.787404 0 0 1 -20.78741,20.78741 20.787404,20.787404 0 0 1 -20.7874,-20.78741 20.787404,20.787404 0 0 1 20.7874,-20.78741 20.787404,20.787404 0 0 1 20.78741,20.78741 z"
       id="path4964-7"
       inkscape:connector-curvature="0" /><g
       aria-label="1"
       style="font-style:normal;font-variant:normal;font-weight:normal;font-stretch:normal;font-size:12px;line-height:100%;font-family:DIN;-inkscape-font-specification:DIN;text-align:center;letter-spacing:0px;word-spacing:0px;writing-mode:lr-tb;text-anchor:middle;fill:#f4da98;fill-opacity:1;stroke:none;stroke-width:1px;stroke-linecap:butt;stroke-linejoin:miter;stroke-opacity:1"
       id="text1079"
       transform="translate(1.0000002e-6,272.126)"><path
         d="m 67.846006,74.193283 v -8.544 h -1.224 l -1.668,1.44 v 1.356 l 1.668,-1.464 v 7.212 z"
         id="path1177"
         inkscape:connector-curvature="0" /></g><g
       aria-label="2"
       style="font-style:normal;font-variant:normal;font-weight:normal;font-stretch:normal;font-size:12px;line-height:100%;font-family:DIN;-inkscape-font-specification:DIN;text-align:center;letter-spacing:0px;word-spacing:0px;writing-mode:lr-tb;text-anchor:middle;fill:#f4da98;fill-opacity:1;stroke:none;stroke-width:1px;stroke-linecap:butt;stroke-linejoin:miter;stroke-opacity:1"
       id="text1083"
       transform="translate(1.0000002e-6,272.126)"><path
         d="m 68.884004,119.58361 v -1.092 h -3.48 l 2.676,-3.276 q 0.396,-0.48 0.6,-0.876 0.204,-0.408 0.204,-0.972 0,-0.552 -0.18,-0.996 -0.18,-0.444 -0.504,-0.756 -0.324,-0.312 -0.78,-0.48 -0.456,-0.168 -1.008,-0.168 -0.54,0 -0.996,0.18 -0.456,0.168 -0.792,0.48 -0.324,0.312 -0.516,0.768 -0.18,0.444 -0.18,0.984 h 1.224 q 0,-0.36 0.108,-0.612 0.108,-0.252 0.276,-0.408 0.18,-0.156 0.408,-0.228 0.228,-0.072 0.468,-0.072 0.6,0 0.924,0.36 0.324,0.36 0.324,0.936 0,0.324 -0.108,0.588 -0.108,0.252 -0.348,0.552 l -3.288,3.996 v 1.092 z"
         id="path1174"
         inkscape:connector-curvature="0" /></g><g
       aria-label="3"
       style="font-style:normal;font-variant:normal;font-weight:normal;font-stretch:normal;font-size:12px;line-height:100%;font-family:DIN;-inkscape-font-specification:DIN;text-align:center;letter-spacing:0px;word-spacing:0px;writing-mode:lr-tb;text-anchor:middle;fill:#f4da98;fill-opacity:1;stroke:none;stroke-width:1px;stroke-linecap:butt;stroke-linejoin:miter;stroke-opacity:1"
       id="text1087"
       transform="translate(1.0000002e-6,272.126)"><path
         d="m 69.016006,162.50195 q 0,-0.792 -0.324,-1.284 -0.324,-0.492 -0.876,-0.732 0.504,-0.24 0.78,-0.684 0.288,-0.456 0.288,-1.14 0,-0.528 -0.192,-0.96 -0.18,-0.444 -0.516,-0.756 -0.324,-0.324 -0.78,-0.492 -0.456,-0.18 -0.996,-0.18 -0.516,0 -0.96,0.168 -0.444,0.156 -0.78,0.456 -0.336,0.3 -0.54,0.732 -0.204,0.432 -0.228,0.972 h 1.224 q 0.048,-0.576 0.384,-0.9 0.336,-0.324 0.9,-0.324 0.528,0 0.888,0.336 0.372,0.336 0.372,0.984 0,0.588 -0.312,0.948 -0.312,0.348 -0.984,0.348 h -0.204 v 1.068 h 0.204 q 0.72,0 1.068,0.384 0.36,0.372 0.36,1.02 0,0.684 -0.396,1.056 -0.396,0.36 -0.996,0.36 -0.264,0 -0.516,-0.072 -0.24,-0.072 -0.432,-0.228 -0.18,-0.168 -0.312,-0.408 -0.12,-0.24 -0.132,-0.588 h -1.224 q 0.012,0.624 0.228,1.08 0.228,0.456 0.588,0.756 0.36,0.288 0.816,0.432 0.468,0.132 0.984,0.132 0.54,0 1.008,-0.156 0.48,-0.156 0.828,-0.468 0.36,-0.312 0.564,-0.78 0.216,-0.468 0.216,-1.08 z"
         id="path1171"
         inkscape:connector-curvature="0" /></g><g
       aria-label="OUTS"
       style="font-style:normal;font-variant:normal;font-weight:normal;font-stretch:normal;font-size:3.17499995px;line-height:100%;font-family:DIN;-inkscape-font-specification:DIN;text-align:center;letter-spacing:0px;word-spacing:0px;writing-mode:lr-tb;text-anchor:middle;display:inline;fill:#f4da98;fill-opacity:1;stroke:none;stroke-width:0.26458332px;stroke-linecap:butt;stroke-linejoin:miter;stroke-opacity:1"
       id="text940"
       transform="matrix(3.7795278,0,0,3.7795278,94.372628,-448.20251)"><path
         d="m -16.920475,200.32084 q 0,-0.16192 -0.0032,-0.2921 -0.0032,-0.13335 -0.02223,-0.2413 -0.01905,-0.10795 -0.0635,-0.20002 -0.04445,-0.0921 -0.127,-0.17463 -0.117475,-0.11747 -0.2667,-0.1778 -0.149225,-0.0635 -0.3302,-0.0635 -0.180975,0 -0.3302,0.0635 -0.14605,0.0603 -0.263525,0.1778 -0.08255,0.0825 -0.127,0.17463 -0.04445,0.0921 -0.06668,0.20002 -0.01905,0.10795 -0.02222,0.2413 -0.0032,0.13018 -0.0032,0.2921 0,0.16193 0.0032,0.29528 0.0032,0.13017 0.02222,0.23812 0.02223,0.10795 0.06668,0.20003 0.04445,0.0921 0.127,0.17462 0.117475,0.11748 0.263525,0.18098 0.149225,0.0603 0.3302,0.0603 0.180975,0 0.3302,-0.0603 0.149225,-0.0635 0.2667,-0.18098 0.08255,-0.0825 0.127,-0.17462 0.04445,-0.0921 0.0635,-0.20003 0.01905,-0.10795 0.02223,-0.23812 0.0032,-0.13335 0.0032,-0.29528 z m -0.3429,0 q 0,0.17145 -0.0064,0.28575 -0.0032,0.11113 -0.01905,0.1905 -0.0127,0.0762 -0.04127,0.13018 -0.0254,0.0508 -0.06668,0.0952 -0.06032,0.0635 -0.149225,0.1016 -0.08573,0.0381 -0.187325,0.0381 -0.1016,0 -0.1905,-0.0381 -0.08573,-0.0381 -0.14605,-0.1016 -0.04127,-0.0444 -0.06985,-0.0952 -0.0254,-0.054 -0.04127,-0.13018 -0.0127,-0.0794 -0.01905,-0.1905 -0.0032,-0.1143 -0.0032,-0.28575 0,-0.17145 0.0032,-0.28257 0.0063,-0.1143 0.01905,-0.1905 0.01587,-0.0794 0.04127,-0.13018 0.02858,-0.054 0.06985,-0.0984 0.06033,-0.0635 0.14605,-0.1016 0.0889,-0.0381 0.1905,-0.0381 0.1016,0 0.187325,0.0381 0.0889,0.0381 0.149225,0.1016 0.04127,0.0445 0.06668,0.0984 0.02858,0.0508 0.04127,0.13018 0.01588,0.0762 0.01905,0.1905 0.0064,0.11112 0.0064,0.28257 z"
         style="fill:#f4da98;fill-opacity:1;stroke-width:0.26458332px"
         id="path942"
         inkscape:connector-curvature="0" /><path
         d="m -14.823437,200.68914 v -1.4986 h -0.3429 v 1.48273 q 0,0.2286 -0.130175,0.35877 -0.127,0.13018 -0.339725,0.13018 -0.212725,0 -0.339725,-0.13018 -0.127,-0.13017 -0.127,-0.35877 v -1.48273 h -0.3429 v 1.4986 q 0,0.17463 0.06033,0.32068 0.0635,0.14287 0.17145,0.24447 0.10795,0.1016 0.257175,0.15875 0.149225,0.0572 0.320675,0.0572 0.17145,0 0.320675,-0.0572 0.149225,-0.0572 0.257175,-0.15875 0.111125,-0.1016 0.17145,-0.24447 0.0635,-0.14605 0.0635,-0.32068 z"
         style="fill:#f4da98;fill-opacity:1;stroke-width:0.26458332px"
         id="path944"
         inkscape:connector-curvature="0" /><path
         d="m -12.877857,199.49852 v -0.30798 h -1.5875 v 0.30798 h 0.6223 v 1.95262 h 0.3429 v -1.95262 z"
         style="fill:#f4da98;fill-opacity:1;stroke-width:0.26458332px"
         id="path946"
         inkscape:connector-curvature="0" /><path
         d="m -11.072721,200.80662 q 0,-0.14605 -0.04763,-0.26353 -0.04445,-0.11747 -0.136525,-0.20002 -0.07302,-0.0635 -0.168275,-0.1016 -0.09525,-0.0413 -0.254,-0.0667 l -0.257175,-0.0381 q -0.1651,-0.0254 -0.254,-0.10477 -0.04445,-0.0413 -0.06667,-0.0921 -0.01905,-0.054 -0.01905,-0.11747 0,-0.1524 0.104775,-0.25083 0.10795,-0.1016 0.307975,-0.1016 0.142875,0 0.263525,0.0381 0.123825,0.0349 0.2286,0.13653 l 0.219075,-0.2159 q -0.14605,-0.13653 -0.31115,-0.19685 -0.1651,-0.0603 -0.390525,-0.0603 -0.1778,0 -0.3175,0.0476 -0.1397,0.0476 -0.238125,0.13652 -0.09525,0.0889 -0.149225,0.21273 -0.0508,0.12065 -0.0508,0.2667 0,0.27622 0.1651,0.4318 0.1524,0.14287 0.428625,0.18097 l 0.2667,0.0381 q 0.1016,0.0159 0.1524,0.0349 0.0508,0.019 0.09525,0.0603 0.0889,0.0794 0.0889,0.23495 0,0.1651 -0.123825,0.25718 -0.12065,0.0889 -0.3429,0.0889 -0.174625,0 -0.314325,-0.0444 -0.1397,-0.0476 -0.263525,-0.17145 l -0.2286,0.22542 q 0.161925,0.1651 0.352425,0.23178 0.1905,0.0667 0.447675,0.0667 0.1778,0 0.327025,-0.0445 0.149225,-0.0444 0.257175,-0.13017 0.10795,-0.0857 0.168275,-0.20955 0.06033,-0.12383 0.06033,-0.2794 z"
         style="fill:#f4da98;fill-opacity:1;stroke-width:0.26458332px"
         id="path948"
         inkscape:connector-curvature="0" /></g><g
       aria-label="INS"
       style="font-style:normal;font-variant:normal;font-weight:normal;font-stretch:normal;font-size:12px;line-height:100%;font-family:DIN;-inkscape-font-specification:DIN;text-align:center;letter-spacing:0px;word-spacing:0px;writing-mode:lr-tb;text-anchor:middle;fill:#f4da98;fill-opacity:1;stroke:none;stroke-width:1px;stroke-linecap:butt;stroke-linejoin:miter;stroke-opacity:1"
       id="text991"
       transform="translate(84.505104,-162.26335)"><path
         d="m -53.592166,226.29483 v -8.544 h -1.296 v 8.544 z"
         id="path993"
         inkscape:connector-curvature="0" /><path
         d="m -44.917103,226.29483 v -8.544 h -1.296 v 6 l -3.948,-6 h -1.188 v 8.544 h 1.296 v -6.012 l 3.948,6.012 z"
         id="path995"
         inkscape:connector-curvature="0" /><path
         d="m -37.337228,223.85883 q 0,-0.552 -0.18,-0.996 -0.168,-0.444 -0.516,-0.756 -0.276,-0.24 -0.636,-0.384 -0.36,-0.156 -0.96,-0.252 l -0.972,-0.144 q -0.624,-0.096 -0.96,-0.396 -0.168,-0.156 -0.252,-0.348 -0.072,-0.204 -0.072,-0.444 0,-0.576 0.396,-0.948 0.408,-0.384 1.164,-0.384 0.54,0 0.996,0.144 0.468,0.132 0.864,0.516 l 0.828,-0.816 q -0.552,-0.516 -1.176,-0.744 -0.624,-0.228 -1.476,-0.228 -0.672,0 -1.2,0.18 -0.528,0.18 -0.9,0.516 -0.36,0.336 -0.564,0.804 -0.192,0.456 -0.192,1.008 0,1.044 0.624,1.632 0.576,0.54 1.62,0.684 l 1.008,0.144 q 0.384,0.06 0.576,0.132 0.192,0.072 0.36,0.228 0.336,0.3 0.336,0.888 0,0.624 -0.468,0.972 -0.456,0.336 -1.296,0.336 -0.66,0 -1.188,-0.168 -0.528,-0.18 -0.996,-0.648 l -0.864,0.852 q 0.612,0.624 1.332,0.876 0.72,0.252 1.692,0.252 0.672,0 1.236,-0.168 0.564,-0.168 0.972,-0.492 0.408,-0.324 0.636,-0.792 0.228,-0.468 0.228,-1.056 z"
         id="path997"
         inkscape:connector-curvature="0" /></g><g
       aria-label="GEN ON OFF"
       transform="matrix(1.3333332,0,0,1.3333332,-27.78872,-465.36499)"
       style="font-style:normal;font-variant:normal;font-weight:normal;font-stretch:normal;font-size:9.00000095px;line-height:100%;font-family:DIN;-inkscape-font-specification:DIN;text-align:start;letter-spacing:0px;word-spacing:0px;writing-mode:lr-tb;text-anchor:start;display:inline;fill:#000000;fill-opacity:1;stroke:none;stroke-width:0.75000006px;stroke-linecap:butt;stroke-linejoin:miter;stroke-opacity:1"
       id="text1002"><path
         d="m 64.037551,545.84229 v -0.872 h -2.08 v 0.736 h 1.216 v 0.32 q 0,0.28 -0.064,0.496 -0.064,0.216 -0.224,0.4 -0.168,0.192 -0.408,0.296 -0.24,0.104 -0.52,0.104 -0.256,0 -0.472,-0.088 -0.216,-0.096 -0.368,-0.256 -0.104,-0.112 -0.176,-0.24 -0.064,-0.136 -0.104,-0.328 -0.032,-0.2 -0.048,-0.488 -0.016,-0.288 -0.016,-0.72 0,-0.432 0.016,-0.712 0.016,-0.288 0.048,-0.48 0.04,-0.2 0.104,-0.328 0.072,-0.136 0.176,-0.248 0.152,-0.16 0.368,-0.256 0.216,-0.096 0.472,-0.096 0.48,0 0.784,0.264 0.304,0.256 0.416,0.728 h 0.872 q -0.064,-0.368 -0.224,-0.688 -0.16,-0.32 -0.424,-0.56 -0.256,-0.24 -0.616,-0.376 -0.352,-0.144 -0.808,-0.144 -0.456,0 -0.832,0.16 -0.368,0.152 -0.664,0.448 -0.208,0.208 -0.32,0.44 -0.112001,0.232 -0.168001,0.504 -0.048,0.272 -0.056,0.608 -0.008,0.328 -0.008,0.736 0,0.408 0.008,0.744 0.008,0.328 0.056,0.6 0.056,0.272 0.168001,0.504 0.112,0.232 0.32,0.44 0.296,0.296 0.672,0.456 0.376,0.152 0.824,0.152 0.456,0 0.848,-0.152 0.392,-0.152 0.72,-0.496 0.28,-0.304 0.392,-0.68 0.12,-0.376 0.12,-0.928 z"
         style="font-size:8.00000095px;text-align:start;text-anchor:start;fill:#f4da98;fill-opacity:1;stroke-width:0.75000006px"
         id="path1016"
         inkscape:connector-curvature="0" /><path
         d="m 68.945051,548.05029 v -0.776 h -2.776 v -1.712 h 2.368 v -0.768 h -2.368 v -1.664 h 2.776 v -0.776 h -3.64 v 5.696 z"
         style="font-size:8.00000095px;text-align:start;text-anchor:start;fill:#f4da98;fill-opacity:1;stroke-width:0.75000006px"
         id="path1018"
         inkscape:connector-curvature="0" /><path
         d="m 74.421177,548.05029 v -5.696 h -0.864 v 4 l -2.632,-4 h -0.792001 v 5.696 h 0.864001 v -4.008 l 2.632,4.008 z"
         style="font-size:8.00000095px;text-align:start;text-anchor:start;fill:#f4da98;fill-opacity:1;stroke-width:0.75000006px"
         id="path1020"
         inkscape:connector-curvature="0" /><path
         d="m 64.005551,554.53563 q 0,-0.408 -0.008,-0.736 -0.008,-0.336 -0.056,-0.608 -0.048,-0.272 -0.16,-0.504 -0.112,-0.232 -0.32,-0.44 -0.296,-0.296 -0.672,-0.448 -0.376,-0.16 -0.832,-0.16 -0.456,0 -0.832,0.16 -0.368,0.152 -0.664,0.448 -0.208,0.208 -0.32,0.44 -0.112001,0.232 -0.168001,0.504 -0.048,0.272 -0.056,0.608 -0.008,0.328 -0.008,0.736 0,0.408 0.008,0.744 0.008,0.328 0.056,0.6 0.056,0.272 0.168001,0.504 0.112,0.232 0.32,0.44 0.296,0.296 0.664,0.456 0.376,0.152 0.832,0.152 0.456,0 0.832,-0.152 0.376,-0.16 0.672,-0.456 0.208,-0.208 0.32,-0.44 0.112,-0.232 0.16,-0.504 0.048,-0.272 0.056,-0.6 0.008,-0.336 0.008,-0.744 z m -0.864,0 q 0,0.432 -0.016,0.72 -0.008,0.28 -0.048,0.48 -0.032,0.192 -0.104,0.328 -0.064,0.128 -0.168,0.24 -0.152,0.16 -0.376,0.256 -0.216,0.096 -0.472,0.096 -0.256,0 -0.48,-0.096 -0.216,-0.096 -0.368,-0.256 -0.104,-0.112 -0.176,-0.24 -0.064,-0.136 -0.104,-0.328 -0.032,-0.2 -0.048,-0.48 -0.008,-0.288 -0.008,-0.72 0,-0.432 0.008,-0.712 0.016,-0.288 0.048,-0.48 0.04,-0.2 0.104,-0.328 0.072,-0.136 0.176,-0.248 0.152,-0.16 0.368,-0.256 0.224,-0.096 0.48,-0.096 0.256,0 0.472,0.096 0.224,0.096 0.376,0.256 0.104,0.112 0.168,0.248 0.072,0.128 0.104,0.328 0.04,0.192 0.048,0.48 0.016,0.28 0.016,0.712 z"
         style="font-size:8.00000095px;text-align:start;text-anchor:start;fill:#f4da98;fill-opacity:1;stroke-width:0.75000006px"
         id="path1022"
         inkscape:connector-curvature="0" /><path
         d="m 69.577426,557.38363 v -5.696 h -0.864 v 4 l -2.632,-4 h -0.792 v 5.696 h 0.864 v -4.008 l 2.632,4.008 z"
         style="font-size:8.00000095px;text-align:start;text-anchor:start;fill:#f4da98;fill-opacity:1;stroke-width:0.75000006px"
         id="path1024"
         inkscape:connector-curvature="0" /><path
         d="m 64.005551,563.86896 q 0,-0.408 -0.008,-0.736 -0.008,-0.336 -0.056,-0.608 -0.048,-0.272 -0.16,-0.504 -0.112,-0.232 -0.32,-0.44 -0.296,-0.296 -0.672,-0.448 -0.376,-0.16 -0.832,-0.16 -0.456,0 -0.832,0.16 -0.368,0.152 -0.664,0.448 -0.208,0.208 -0.32,0.44 -0.112001,0.232 -0.168001,0.504 -0.048,0.272 -0.056,0.608 -0.008,0.328 -0.008,0.736 0,0.408 0.008,0.744 0.008,0.328 0.056,0.6 0.056,0.272 0.168001,0.504 0.112,0.232 0.32,0.44 0.296,0.296 0.664,0.456 0.376,0.152 0.832,0.152 0.456,0 0.832,-0.152 0.376,-0.16 0.672,-0.456 0.208,-0.208 0.32,-0.44 0.112,-0.232 0.16,-0.504 0.048,-0.272 0.056,-0.6 0.008,-0.336 0.008,-0.744 z m -0.864,0 q 0,0.432 -0.016,0.72 -0.008,0.28 -0.048,0.48 -0.032,0.192 -0.104,0.328 -0.064,0.128 -0.168,0.24 -0.152,0.16 -0.376,0.256 -0.216,0.096 -0.472,0.096 -0.256,0 -0.48,-0.096 -0.216,-0.096 -0.368,-0.256 -0.104,-0.112 -0.176,-0.24 -0.064,-0.136 -0.104,-0.328 -0.032,-0.2 -0.048,-0.48 -0.008,-0.288 -0.008,-0.72 0,-0.432 0.008,-0.712 0.016,-0.288 0.048,-0.48 0.04,-0.2 0.104,-0.328 0.072,-0.136 0.176,-0.248 0.152,-0.16 0.368,-0.256 0.224,-0.096 0.48,-0.096 0.256,0 0.472,0.096 0.224,0.096 0.376,0.256 0.104,0.112 0.168,0.248 0.072,0.128 0.104,0.328 0.04,0.192 0.048,0.48 0.016,0.28 0.016,0.712 z"
         style="font-size:8.00000095px;text-align:start;text-anchor:start;fill:#f4da98;fill-opacity:1;stroke-width:0.75000006px"
         id="path1026"
         inkscape:connector-curvature="0" /><path
         d="m 68.929426,561.79696 v -0.776 h -3.64 v 5.696 h 0.864 v -2.408 h 2.368 v -0.776 h -2.368 v -1.736 z"
         style="font-size:8.00000095px;text-align:start;text-anchor:start;fill:#f4da98;fill-opacity:1;stroke-width:0.75000006px"
         id="path1028"
         inkscape:connector-curvature="0" /><path
         d="m 73.616927,561.79696 v -0.776 h -3.640001 v 5.696 h 0.864001 v -2.408 h 2.368 v -0.776 h -2.368 v -1.736 z"
         style="font-size:8.00000095px;text-align:start;text-anchor:start;fill:#f4da98;fill-opacity:1;stroke-width:0.75000006px"
         id="path1030"
         inkscape:connector-curvature="0" /></g><g
       aria-label="MODE"
       style="font-style:normal;font-variant:normal;font-weight:normal;font-stretch:normal;font-size:12px;line-height:100%;font-family:DIN;-inkscape-font-specification:DIN;text-align:center;letter-spacing:0px;word-spacing:0px;writing-mode:lr-tb;text-anchor:middle;fill:#f4da98;fill-opacity:1;stroke:none;stroke-width:1px;stroke-linecap:butt;stroke-linejoin:miter;stroke-opacity:1"
       id="text893"
       transform="translate(81.179338,-114.03406)"><path
         d="m -50.723336,365.30066 v -8.544 h -1.296 l -2.448,5.316 -2.496,-5.316 h -1.296 v 8.544 h 1.296 v -5.712 l 2.016,4.164 h 0.96 l 1.968,-4.164 v 5.712 z"
         id="path895"
         inkscape:connector-curvature="0" /><path
         d="m -42.677336,361.02866 q 0,-0.612 -0.012,-1.104 -0.012,-0.504 -0.084,-0.912 -0.072,-0.408 -0.24,-0.756 -0.168,-0.348 -0.48,-0.66 -0.444,-0.444 -1.008,-0.672 -0.564,-0.24 -1.248,-0.24 -0.684,0 -1.248,0.24 -0.552,0.228 -0.996,0.672 -0.312,0.312 -0.48,0.66 -0.168,0.348 -0.252,0.756 -0.072,0.408 -0.084,0.912 -0.012,0.492 -0.012,1.104 0,0.612 0.012,1.116 0.012,0.492 0.084,0.9 0.084,0.408 0.252,0.756 0.168,0.348 0.48,0.66 0.444,0.444 0.996,0.684 0.564,0.228 1.248,0.228 0.684,0 1.248,-0.228 0.564,-0.24 1.008,-0.684 0.312,-0.312 0.48,-0.66 0.168,-0.348 0.24,-0.756 0.072,-0.408 0.084,-0.9 0.012,-0.504 0.012,-1.116 z m -1.296,0 q 0,0.648 -0.024,1.08 -0.012,0.42 -0.072,0.72 -0.048,0.288 -0.156,0.492 -0.096,0.192 -0.252,0.36 -0.228,0.24 -0.564,0.384 -0.324,0.144 -0.708,0.144 -0.384,0 -0.72,-0.144 -0.324,-0.144 -0.552,-0.384 -0.156,-0.168 -0.264,-0.36 -0.096,-0.204 -0.156,-0.492 -0.048,-0.3 -0.072,-0.72 -0.012,-0.432 -0.012,-1.08 0,-0.648 0.012,-1.068 0.024,-0.432 0.072,-0.72 0.06,-0.3 0.156,-0.492 0.108,-0.204 0.264,-0.372 0.228,-0.24 0.552,-0.384 0.336,-0.144 0.72,-0.144 0.384,0 0.708,0.144 0.336,0.144 0.564,0.384 0.156,0.168 0.252,0.372 0.108,0.192 0.156,0.492 0.06,0.288 0.072,0.72 0.024,0.42 0.024,1.068 z"
         id="path897"
         inkscape:connector-curvature="0" /><path
         d="m -34.679523,360.96866 q 0,-0.468 -0.012,-0.924 0,-0.456 -0.072,-0.888 -0.072,-0.444 -0.252,-0.84 -0.18,-0.408 -0.528,-0.756 -0.408,-0.408 -0.972,-0.6 -0.564,-0.204 -1.236,-0.204 h -3 v 8.544 h 3 q 0.672,0 1.236,-0.192 0.564,-0.204 0.972,-0.612 0.348,-0.348 0.528,-0.768 0.18,-0.42 0.252,-0.876 0.072,-0.456 0.072,-0.936 0.012,-0.48 0.012,-0.948 z m -1.296,0 q 0,0.888 -0.06,1.56 -0.06,0.66 -0.396,1.032 -0.528,0.576 -1.452,0.576 h -1.572 v -6.216 h 1.572 q 0.924,0 1.452,0.576 0.336,0.372 0.396,0.984 0.06,0.6 0.06,1.488 z"
         id="path899"
         inkscape:connector-curvature="0" /><path
         d="m -27.299336,365.30066 v -1.164 h -4.164 v -2.568 h 3.552 v -1.152 h -3.552 v -2.496 h 4.164 v -1.164 h -5.46 v 8.544 z"
         id="path901"
         inkscape:connector-curvature="0" /></g><g
       aria-label="1"
       style="font-style:normal;font-variant:normal;font-weight:normal;font-stretch:normal;font-size:12px;line-height:100%;font-family:DIN;-inkscape-font-specification:DIN;text-align:center;letter-spacing:0px;word-spacing:0px;writing-mode:lr-tb;text-anchor:middle;display:inline;fill:#f4da98;fill-opacity:1;stroke:none;stroke-width:1px;stroke-linecap:butt;stroke-linejoin:miter;stroke-opacity:1"
       id="text1079-3"
       transform="translate(-7.9153825e-6,22.67714)"><path
         d="m 67.846006,74.193283 v -8.544 h -1.224 l -1.668,1.44 v 1.356 l 1.668,-1.464 v 7.212 z"
         id="path1177-5"
         inkscape:connector-curvature="0" /></g><g
       aria-label="2"
       style="font-style:normal;font-variant:normal;font-weight:normal;font-stretch:normal;font-size:12px;line-height:100%;font-family:DIN;-inkscape-font-specification:DIN;text-align:center;letter-spacing:0px;word-spacing:0px;writing-mode:lr-tb;text-anchor:middle;display:inline;fill:#f4da98;fill-opacity:1;stroke:none;stroke-width:1px;stroke-linecap:butt;stroke-linejoin:miter;stroke-opacity:1"
       id="text1083-6"
       transform="translate(-7.9153825e-6,22.67714)"><path
         d="m 68.884004,119.58361 v -1.092 h -3.48 l 2.676,-3.276 q 0.396,-0.48 0.6,-0.876 0.204,-0.408 0.204,-0.972 0,-0.552 -0.18,-0.996 -0.18,-0.444 -0.504,-0.756 -0.324,-0.312 -0.78,-0.48 -0.456,-0.168 -1.008,-0.168 -0.54,0 -0.996,0.18 -0.456,0.168 -0.792,0.48 -0.324,0.312 -0.516,0.768 -0.18,0.444 -0.18,0.984 h 1.224 q 0,-0.36 0.108,-0.612 0.108,-0.252 0.276,-0.408 0.18,-0.156 0.408,-0.228 0.228,-0.072 0.468,-0.072 0.6,0 0.924,0.36 0.324,0.36 0.324,0.936 0,0.324 -0.108,0.588 -0.108,0.252 -0.348,0.552 l -3.288,3.996 v 1.092 z"
         id="path1174-2"
         inkscape:connector-curvature="0" /></g><g
       aria-label="3"
       style="font-style:normal;font-variant:normal;font-weight:normal;font-stretch:normal;font-size:12px;line-height:100%;font-family:DIN;-inkscape-font-specification:DIN;text-align:center;letter-spacing:0px;word-spacing:0px;writing-mode:lr-tb;text-anchor:middle;display:inline;fill:#f4da98;fill-opacity:1;stroke:none;stroke-width:1px;stroke-linecap:butt;stroke-linejoin:miter;stroke-opacity:1"
       id="text1087-9"
       transform="translate(-7.9153825e-6,22.67714)"><path
         d="m 69.016006,162.50195 q 0,-0.792 -0.324,-1.284 -0.324,-0.492 -0.876,-0.732 0.504,-0.24 0.78,-0.684 0.288,-0.456 0.288,-1.14 0,-0.528 -0.192,-0.96 -0.18,-0.444 -0.516,-0.756 -0.324,-0.324 -0.78,-0.492 -0.456,-0.18 -0.996,-0.18 -0.516,0 -0.96,0.168 -0.444,0.156 -0.78,0.456 -0.336,0.3 -0.54,0.732 -0.204,0.432 -0.228,0.972 h 1.224 q 0.048,-0.576 0.384,-0.9 0.336,-0.324 0.9,-0.324 0.528,0 0.888,0.336 0.372,0.336 0.372,0.984 0,0.588 -0.312,0.948 -0.312,0.348 -0.984,0.348 h -0.204 v 1.068 h 0.204 q 0.72,0 1.068,0.384 0.36,0.372 0.36,1.02 0,0.684 -0.396,1.056 -0.396,0.36 -0.996,0.36 -0.264,0 -0.516,-0.072 -0.24,-0.072 -0.432,-0.228 -0.18,-0.168 -0.312,-0.408 -0.12,-0.24 -0.132,-0.588 h -1.224 q 0.012,0.624 0.228,1.08 0.228,0.456 0.588,0.756 0.36,0.288 0.816,0.432 0.468,0.132 0.984,0.132 0.54,0 1.008,-0.156 0.48,-0.156 0.828,-0.468 0.36,-0.312 0.564,-0.78 0.216,-0.468 0.216,-1.08 z"
         id="path1171-1"
         inkscape:connector-curvature="0" /></g></g></svg>