<?xml version="1.0" encoding="UTF-8" standalone="no"?>
<!-- Created with Inkscape (http://www.inkscape.org/) -->

<svg
   xmlns:dc="http://purl.org/dc/elements/1.1/"
   xmlns:cc="http://creativecommons.org/ns#"
   xmlns:rdf="http://www.w3.org/1999/02/22-rdf-syntax-ns#"
   xmlns:svg="http://www.w3.org/2000/svg"
   xmlns="http://www.w3.org/2000/svg"
   xmlns:xlink="http://www.w3.org/1999/xlink"
   xmlns:sodipodi="http://sodipodi.sourceforge.net/DTD/sodipodi-0.dtd"
   xmlns:inkscape="http://www.inkscape.org/namespaces/inkscape"
   width="20.32mm"
   height="128.5mm"
   viewBox="0 0 20.32 128.5"
   version="1.1"
   id="svg8"
   inkscape:version="0.92.5 (2060ec1f9f, 2020-04-08)"
   sodipodi:docname="MIDI_Output.svg">
  <defs
     id="defs2">
    <linearGradient
       inkscape:collect="always"
       xlink:href="#linearGradient1109"
       id="linearGradient4954"
       gradientUnits="userSpaceOnUse"
       x1="110.74702"
       y1="130.87947"
       x2="111.50298"
       y2="242.57143"
       gradientTransform="matrix(0.44393752,0,0,0.99973639,-37.472256,-125.49796)" />
    <linearGradient
       inkscape:collect="always"
       id="linearGradient1109">
      <stop
         style="stop-color:#333131;stop-opacity:1"
         offset="0"
         id="stop1105" />
      <stop
         style="stop-color:#292727;stop-opacity:1"
         offset="1"
         id="stop1107" />
    </linearGradient>
    <clipPath
       id="clipPath875"
       clipPathUnits="userSpaceOnUse">
      <path
         inkscape:connector-curvature="0"
         id="path873"
         d="M 0,472.252 H 165.6 V 0 H 0 Z" />
    </clipPath>
    <clipPath
       id="clipPath899"
       clipPathUnits="userSpaceOnUse">
      <path
         inkscape:connector-curvature="0"
         id="path897"
         d="M 0,472.252 H 223.2 V 0 H 0 Z" />
    </clipPath>
  </defs>
  <sodipodi:namedview
     id="base"
     pagecolor="#ffffff"
     bordercolor="#666666"
     borderopacity="1.0"
     inkscape:pageopacity="0.0"
     inkscape:pageshadow="2"
     inkscape:zoom="2.8"
     inkscape:cx="-28.458915"
     inkscape:cy="32.755019"
     inkscape:document-units="mm"
     inkscape:current-layer="layer1"
     showgrid="false"
     showguides="true"
     inkscape:guide-bbox="true"
     inkscape:window-width="1920"
     inkscape:window-height="1033"
     inkscape:window-x="0"
     inkscape:window-y="0"
     inkscape:window-maximized="1"
     inkscape:snap-object-midpoints="true"
     inkscape:snap-text-baseline="true"
     inkscape:snap-bbox="true"
     inkscape:snap-bbox-midpoints="false"
     inkscape:snap-bbox-edge-midpoints="true">
    <sodipodi:guide
       position="10.16,105.26637"
       orientation="1,0"
       id="guide831"
       inkscape:locked="false"
       inkscape:label=""
       inkscape:color="rgb(0,0,255)" />
    <sodipodi:guide
       position="-15.497023,120"
       orientation="0,1"
       id="guide833"
       inkscape:locked="false"
       inkscape:label=""
       inkscape:color="rgb(0,0,255)" />
    <sodipodi:guide
       position="-25.702381,20.000001"
       orientation="0,1"
       id="guide940"
       inkscape:locked="false"
       inkscape:label=""
       inkscape:color="rgb(0,0,255)" />
  </sodipodi:namedview>
  <metadata
     id="metadata5">
    <rdf:RDF>
      <cc:Work
         rdf:about="">
        <dc:format>image/svg+xml</dc:format>
        <dc:type
           rdf:resource="http://purl.org/dc/dcmitype/StillImage" />
        <dc:title />
      </cc:Work>
    </rdf:RDF>
  </metadata>
  <g
     inkscape:groupmode="layer"
     id="layer2"
     inkscape:label="BG"
     style="display:inline">
    <path
       inkscape:connector-curvature="0"
       id="path1099"
       d="M 5e-7,-9.5e-6 H 20.320001 V 128.5 H 5e-7 Z"
       style="display:inline;fill:url(#linearGradient4954);fill-opacity:1;stroke:#6e6e6e;stroke-width:0;stroke-miterlimit:4;stroke-dasharray:none;stroke-opacity:1" />
  </g>
  <g
     inkscape:label="Layer 1"
     inkscape:groupmode="layer"
     id="layer1"
     transform="translate(0,-168.5)"
     style="display:inline">
    <text
       xml:space="preserve"
       style="font-style:normal;font-weight:normal;font-size:10.58333302px;line-height:1.25;font-family:sans-serif;letter-spacing:0px;word-spacing:0px;fill:#000000;fill-opacity:1;stroke:none;stroke-width:0.26458332"
       x="-53.988441"
       y="240.20523"
       id="text4554"><tspan
         sodipodi:role="line"
         id="tspan4552"
         x="-53.988441"
         y="249.569"
         style="stroke-width:0.26458332" /></text>
    <g
       aria-label="IN"
       style="font-style:normal;font-weight:normal;font-size:3.17499995px;line-height:1.25;font-family:sans-serif;letter-spacing:0px;word-spacing:0px;fill:#f4da98;fill-opacity:1;stroke:none;stroke-width:0.26458332"
       id="text48"
       transform="translate(0,-5.99991)">
      <path
         d="m 8.8158956,275.27233 h 0.3131592 v 2.31458 H 8.8158956 Z"
         style="fill:#f4da98;fill-opacity:1;stroke-width:0.26458332"
         id="path860"
         inkscape:connector-curvature="0" />
      <path
         d="m 9.7522726,275.27233 h 0.4216794 l 1.026294,1.93631 v -1.93631 h 0.303858 v 2.31458 h -0.42168 L 10.05613,275.6506 v 1.93631 H 9.7522726 Z"
         style="fill:#f4da98;fill-opacity:1;stroke-width:0.26458332"
         id="path862"
         inkscape:connector-curvature="0" />
    </g>
    <g
       aria-label="MIDI"
       style="font-style:normal;font-variant:normal;font-weight:normal;font-stretch:normal;font-size:4.23333311px;line-height:1.25;font-family:DIN;-inkscape-font-specification:DIN;text-align:center;letter-spacing:0px;word-spacing:0px;text-anchor:middle;fill:#f4da98;fill-opacity:1;stroke:none;stroke-width:0.26458332"
       id="text875">
      <path
         d="m 8.8370897,177 v -3.01413 h -0.4572 l -0.8636,1.87536 -0.8805333,-1.87536 H 6.1785565 V 177 h 0.4571999 v -2.01507 l 0.7112,1.46897 h 0.3386667 l 0.6942666,-1.46897 V 177 Z"
         style="fill:#f4da98;fill-opacity:1;stroke-width:0.26458332"
         id="path894" />
      <path
         d="m 10.077455,177 v -3.01413 h -0.4572 V 177 Z"
         style="fill:#f4da98;fill-opacity:1;stroke-width:0.26458332"
         id="path896" />
      <path
         d="m 13.006916,175.47177 q 0,-0.1651 -0.0042,-0.32597 0,-0.16087 -0.0254,-0.31327 -0.0254,-0.15663 -0.0889,-0.29633 -0.0635,-0.14393 -0.186267,-0.2667 -0.143933,-0.14393 -0.3429,-0.21167 -0.198966,-0.072 -0.436033,-0.072 H 10.86485 V 177 h 1.058333 q 0.237067,0 0.436033,-0.0677 0.198967,-0.072 0.3429,-0.2159 0.122767,-0.12277 0.186267,-0.27094 0.0635,-0.14816 0.0889,-0.30903 0.0254,-0.16087 0.0254,-0.3302 0.0042,-0.16933 0.0042,-0.33443 z m -0.4572,0 q 0,0.31326 -0.02117,0.55033 -0.02117,0.23283 -0.1397,0.36407 -0.186267,0.2032 -0.512234,0.2032 H 11.32205 v -2.19287 h 0.554566 q 0.325967,0 0.512234,0.2032 0.118533,0.13123 0.1397,0.34713 0.02117,0.21167 0.02117,0.52494 z"
         style="fill:#f4da98;fill-opacity:1;stroke-width:0.26458332"
         id="path898" />
      <path
         d="m 14.141443,177 v -3.01413 h -0.4572 V 177 Z"
         style="fill:#f4da98;fill-opacity:1;stroke-width:0.26458332"
         id="path900" />
    </g>
    <g
       aria-label="Output"
       style="font-style:normal;font-variant:normal;font-weight:normal;font-stretch:normal;font-size:4.23333311px;line-height:1.25;font-family:DIN;-inkscape-font-specification:DIN;text-align:center;letter-spacing:0px;word-spacing:0px;text-anchor:middle;fill:#f4da98;fill-opacity:1;stroke:none;stroke-width:0.26458332"
       id="text879">
      <path
         d="m 6.2208934,179.19713 q 0,-0.2159 -0.00423,-0.38947 -0.00423,-0.1778 -0.029633,-0.32173 -0.0254,-0.14394 -0.084667,-0.2667 -0.059267,-0.12277 -0.1693333,-0.23284 -0.1566333,-0.15663 -0.3556,-0.23706 -0.1989666,-0.0847 -0.4402666,-0.0847 -0.2413,0 -0.4402667,0.0847 -0.1947333,0.0804 -0.3513666,0.23706 -0.1100667,0.11007 -0.1693333,0.23284 -0.059267,0.12276 -0.0889,0.2667 -0.0254,0.14393 -0.029633,0.32173 -0.00423,0.17357 -0.00423,0.38947 0,0.2159 0.00423,0.3937 0.00423,0.17356 0.029633,0.3175 0.029633,0.14393 0.0889,0.2667 0.059267,0.12276 0.1693333,0.23283 0.1566333,0.15663 0.3513666,0.2413 0.1989667,0.0804 0.4402667,0.0804 0.2413,0 0.4402666,-0.0804 0.1989667,-0.0847 0.3556,-0.2413 0.1100667,-0.11007 0.1693333,-0.23283 0.059267,-0.12277 0.084667,-0.2667 0.0254,-0.14394 0.029633,-0.3175 0.00423,-0.1778 0.00423,-0.3937 z m -0.4572,0 q 0,0.2286 -0.00847,0.381 -0.00423,0.14816 -0.0254,0.254 -0.016933,0.1016 -0.055033,0.17356 -0.033867,0.0677 -0.0889,0.127 -0.080433,0.0847 -0.1989667,0.13547 -0.1142999,0.0508 -0.2497666,0.0508 -0.1354667,0 -0.254,-0.0508 -0.1143,-0.0508 -0.1947333,-0.13547 -0.055033,-0.0593 -0.093133,-0.127 -0.033867,-0.072 -0.055033,-0.17356 -0.016933,-0.10584 -0.0254,-0.254 -0.00423,-0.1524 -0.00423,-0.381 0,-0.2286 0.00423,-0.37677 0.00847,-0.1524 0.0254,-0.254 0.021167,-0.10583 0.055033,-0.17357 0.0381,-0.072 0.093133,-0.13123 0.080433,-0.0847 0.1947333,-0.13547 0.1185333,-0.0508 0.254,-0.0508 0.1354667,0 0.2497666,0.0508 0.1185334,0.0508 0.1989667,0.13547 0.055033,0.0593 0.0889,0.13123 0.0381,0.0677 0.055033,0.17357 0.021167,0.1016 0.0254,0.254 0.00847,0.14817 0.00847,0.37677 z"
         style="fill:#f4da98;fill-opacity:1;stroke-width:0.26458332"
         id="path881" />
      <path
         d="m 8.5661596,180.70419 v -2.1463 h -0.4318 v 1.3081 q 0,0.12277 -0.0381,0.2159 -0.033867,0.0889 -0.093133,0.14817 -0.059267,0.0593 -0.1439333,0.0889 -0.080433,0.0254 -0.1693334,0.0254 -0.1820333,0 -0.3090333,-0.1143 -0.1227666,-0.1143 -0.1227666,-0.36407 v -1.3081 h -0.4318 v 1.3716 q 0,0.18204 0.046567,0.33444 0.046567,0.14816 0.1693334,0.27093 0.097367,0.0931 0.2286,0.14393 0.1354666,0.0508 0.3005666,0.0508 0.1608667,0 0.3090333,-0.0593 0.1524,-0.0593 0.2624667,-0.18204 v 0.2159 z"
         style="fill:#f4da98;fill-opacity:1;stroke-width:0.26458332"
         id="path883" />
      <path
         d="m 10.149421,180.70419 v -0.3683 H 9.9716214 q -0.1227667,0 -0.1820334,-0.0635 -0.055033,-0.0677 -0.055033,-0.18626 v -1.15994 h 0.4148663 v -0.3302 H 9.7345547 v -0.65193 h -0.4318 v 0.65193 H 9.0572214 v 0.3302 h 0.2455333 v 1.1811 q 0,0.1143 0.033867,0.22437 0.0381,0.10583 0.1100666,0.1905 0.071967,0.0804 0.1820334,0.13123 0.1100666,0.0508 0.2624666,0.0508 z"
         style="fill:#f4da98;fill-opacity:1;stroke-width:0.26458332"
         id="path885" />
      <path
         d="m 12.456584,179.62893 q 0,-0.12277 -0.0085,-0.24977 -0.0042,-0.127 -0.02963,-0.24553 -0.0254,-0.11854 -0.0762,-0.22437 -0.04657,-0.10583 -0.127,-0.18627 -0.0889,-0.0889 -0.2286,-0.1397 -0.135467,-0.0508 -0.296333,-0.0508 -0.1778,0 -0.313267,0.055 -0.131233,0.0508 -0.254,0.19896 v -0.2286 h -0.423333 v 3.01414 h 0.4318 v -1.08797 q 0.118533,0.1397 0.254,0.19473 0.135466,0.0508 0.309033,0.0508 0.160867,0 0.296333,-0.0508 0.135467,-0.0508 0.224367,-0.1397 0.08043,-0.0804 0.127,-0.18626 0.0508,-0.10584 0.0762,-0.22437 0.0254,-0.12277 0.02963,-0.24977 0.0085,-0.127 0.0085,-0.24976 z m -0.4318,0 q 0,0.14393 -0.01693,0.27516 -0.0127,0.127 -0.05927,0.2286 -0.04657,0.0974 -0.135467,0.15664 -0.0889,0.055 -0.232833,0.055 -0.148167,0 -0.237067,-0.055 -0.08467,-0.0593 -0.135466,-0.15664 -0.04657,-0.1016 -0.0635,-0.2286 -0.0127,-0.13123 -0.0127,-0.27516 0,-0.14394 0.0127,-0.27094 0.01693,-0.13123 0.0635,-0.2286 0.0508,-0.0974 0.135466,-0.1524 0.0889,-0.0593 0.237067,-0.0593 0.143933,0 0.232833,0.0593 0.0889,0.055 0.135467,0.1524 0.04657,0.0974 0.05927,0.2286 0.01693,0.127 0.01693,0.27094 z"
         style="fill:#f4da98;fill-opacity:1;stroke-width:0.26458332"
         id="path887" />
      <path
         d="m 14.759515,180.70419 v -2.1463 h -0.4318 v 1.3081 q 0,0.12277 -0.0381,0.2159 -0.03387,0.0889 -0.09313,0.14817 -0.05927,0.0593 -0.143934,0.0889 -0.08043,0.0254 -0.169333,0.0254 -0.182033,0 -0.309033,-0.1143 -0.122767,-0.1143 -0.122767,-0.36407 v -1.3081 h -0.4318 v 1.3716 q 0,0.18204 0.04657,0.33444 0.04657,0.14816 0.169333,0.27093 0.09737,0.0931 0.2286,0.14393 0.135467,0.0508 0.300567,0.0508 0.160866,0 0.309033,-0.0593 0.1524,-0.0593 0.262467,-0.18204 v 0.2159 z"
         style="fill:#f4da98;fill-opacity:1;stroke-width:0.26458332"
         id="path889" />
      <path
         d="m 16.342777,180.70419 v -0.3683 h -0.1778 q -0.122767,0 -0.182033,-0.0635 -0.05503,-0.0677 -0.05503,-0.18626 v -1.15994 h 0.414867 v -0.3302 H 15.92791 v -0.65193 h -0.4318 v 0.65193 h -0.245533 v 0.3302 h 0.245533 v 1.1811 q 0,0.1143 0.03387,0.22437 0.0381,0.10583 0.110067,0.1905 0.07197,0.0804 0.182033,0.13123 0.110067,0.0508 0.262467,0.0508 z"
         style="fill:#f4da98;fill-opacity:1;stroke-width:0.26458332"
         id="path891" />
    </g>
    <g
       transform="matrix(0.35277777,0,0,-0.35277777,-25.772665,316.1)"
       inkscape:label="aw_sideall"
       id="g891"
       style="display:inline;fill:#f4da98;fill-opacity:1">
      <g
         id="g893"
         style="fill:#f4da98;fill-opacity:1">
        <g
           clip-path="url(#clipPath899)"
           id="g895"
           style="fill:#f4da98;fill-opacity:1">
          <g
             transform="translate(105.62535,67.213925)"
             id="g3796"
             style="display:inline;fill:#f4da98;fill-opacity:1;stroke:none">
            <path
               inkscape:connector-curvature="0"
               id="path3798"
               style="fill:#f4da98;fill-opacity:1;fill-rule:nonzero;stroke:none"
               d="M 0,0 C 0,1.873 0.16,3.703 0.479,5.492 -1.353,5.898 -2.27,6.65 -2.27,7.76 c 0,0.873 0.492,1.306 1.47,1.306 0.513,0 1.141,-0.242 1.885,-0.734 1.445,5.092 3.802,9.383 7.06,12.887 -0.702,0.105 -1.413,0.178 -2.143,0.178 -7.952,0 -14.399,-6.448 -14.399,-14.401 0,-6.057 3.745,-11.232 9.043,-13.357 C 0.223,-4.273 0,-2.152 0,0" />
          </g>
          <g
             transform="translate(107.98854,74.653305)"
             id="g3800"
             style="display:inline;fill:#f4da98;fill-opacity:1;stroke:none">
            <path
               inkscape:connector-curvature="0"
               id="path3802"
               style="fill:#f4da98;fill-opacity:1;fill-rule:nonzero;stroke:none"
               d="m 0,0 c 0.275,-0.191 0.487,-0.359 0.638,-0.51 1.575,0.362 3.15,1.287 4.725,2.778 1.319,1.279 2.448,2.757 3.385,4.439 1.193,2.109 1.756,3.885 1.693,5.332 h 0.357 C 9.394,12.846 7.845,13.422 6.194,13.717 L 7.025,12.936 C 3.638,9.379 1.297,5.068 0,0" />
          </g>
          <g
             transform="translate(119.87826,86.001025)"
             id="g3804"
             style="display:inline;fill:#f4da98;fill-opacity:1;stroke:none">
            <path
               inkscape:connector-curvature="0"
               id="path3806"
               style="fill:#f4da98;fill-opacity:1;fill-rule:nonzero;stroke:none"
               d="m 0,0 c -0.115,-1.566 -0.734,-3.357 -1.863,-5.375 -0.96,-1.703 -2.098,-3.213 -3.416,-4.535 -1.535,-1.488 -3.111,-2.524 -4.726,-3.098 2.51,-2.765 3.947,-5.92 4.31,-9.451 0.934,0.619 1.937,1.172 3,1.66 l 0.606,-1.342 c -1.765,-0.808 -3.393,-1.837 -4.885,-3.093 l -0.956,1.119 0.828,0.666 c -0.147,3.98 -1.681,7.322 -4.597,10.025 l -0.638,-0.031 c -0.3,-1.787 -0.45,-3.567 -0.45,-5.332 0,-2.432 0.27,-4.731 0.798,-6.895 1.194,-0.322 2.443,-0.508 3.738,-0.508 7.953,0 14.4,6.446 14.4,14.399 C 6.149,-6.91 3.715,-2.604 0,0" />
          </g>
        </g>
      </g>
    </g>
  </g>
</svg>
