<?xml version="1.0" encoding="UTF-8" standalone="no"?>
<!-- Created with Inkscape (http://www.inkscape.org/) -->

<svg
   xmlns:dc="http://purl.org/dc/elements/1.1/"
   xmlns:cc="http://creativecommons.org/ns#"
   xmlns:rdf="http://www.w3.org/1999/02/22-rdf-syntax-ns#"
   xmlns:svg="http://www.w3.org/2000/svg"
   xmlns="http://www.w3.org/2000/svg"
   xmlns:xlink="http://www.w3.org/1999/xlink"
   xmlns:sodipodi="http://sodipodi.sourceforge.net/DTD/sodipodi-0.dtd"
   xmlns:inkscape="http://www.inkscape.org/namespaces/inkscape"
   width="20.32mm"
   height="128.5mm"
   viewBox="0 0 20.32 128.5"
   version="1.1"
   id="svg1141"
   inkscape:version="0.92.5 (2060ec1f9f, 2020-04-08)"
   sodipodi:docname="MIDI_Mapper.svg">
  <defs
     id="defs1135">
    <linearGradient
       id="linearGradient904"
       inkscape:collect="always">
      <stop
         id="stop900"
         offset="0"
         style="stop-color:#2c2c58;stop-opacity:1" />
      <stop
         id="stop902"
         offset="1"
         style="stop-color:#37375a;stop-opacity:1" />
    </linearGradient>
    <linearGradient
       inkscape:collect="always"
       xlink:href="#linearGradient1109"
       id="linearGradient4954"
       gradientUnits="userSpaceOnUse"
       x1="110.74702"
       y1="130.87947"
       x2="111.50298"
       y2="242.57143"
       gradientTransform="matrix(0.44393752,0,0,0.99973639,-37.472257,-125.49796)" />
    <linearGradient
       inkscape:collect="always"
       id="linearGradient1109">
      <stop
         style="stop-color:#333131;stop-opacity:1"
         offset="0"
         id="stop1105" />
      <stop
         style="stop-color:#292727;stop-opacity:1"
         offset="1"
         id="stop1107" />
    </linearGradient>
    <linearGradient
       inkscape:collect="always"
       xlink:href="#linearGradient904"
       id="linearGradient1637"
       x1="25.4"
       y1="35.405956"
       x2="25.4"
       y2="14.428279"
       gradientUnits="userSpaceOnUse"
       gradientTransform="matrix(0.39823142,0,0,0.31717032,0.04492133,180.94717)" />
    <clipPath
       id="clipPath913"
       clipPathUnits="userSpaceOnUse">
      <path
         inkscape:connector-curvature="0"
         id="path911-3"
         d="M 0,472.252 H 165.6 V 0 H 0 Z" />
    </clipPath>
    <linearGradient
       inkscape:collect="always"
       xlink:href="#linearGradient904"
       id="linearGradient1637-3"
       x1="25.4"
       y1="35.405956"
       x2="25.4"
       y2="14.428279"
       gradientUnits="userSpaceOnUse"
       gradientTransform="matrix(0.39823141,0,0,0.31717033,0.04492066,192.94718)" />
    <linearGradient
       inkscape:collect="always"
       xlink:href="#linearGradient904"
       id="linearGradient1637-35"
       x1="25.4"
       y1="35.405956"
       x2="25.4"
       y2="14.428279"
       gradientUnits="userSpaceOnUse"
       gradientTransform="matrix(0.39823141,0,0,0.31717033,0.04492025,204.94716)" />
    <linearGradient
       inkscape:collect="always"
       xlink:href="#linearGradient904"
       id="linearGradient1637-1"
       x1="25.4"
       y1="35.405956"
       x2="25.4"
       y2="14.428279"
       gradientUnits="userSpaceOnUse"
       gradientTransform="matrix(0.39823141,0,0,0.31717033,0.04492028,216.94716)" />
    <linearGradient
       inkscape:collect="always"
       xlink:href="#linearGradient904"
       id="linearGradient1637-9"
       x1="25.4"
       y1="35.405956"
       x2="25.4"
       y2="14.428279"
       gradientUnits="userSpaceOnUse"
       gradientTransform="matrix(0.39823141,0,0,0.31717033,0.04492028,228.94716)" />
    <linearGradient
       inkscape:collect="always"
       xlink:href="#linearGradient904"
       id="linearGradient1637-2"
       x1="25.4"
       y1="35.405956"
       x2="25.4"
       y2="14.428279"
       gradientUnits="userSpaceOnUse"
       gradientTransform="matrix(0.39823141,0,0,0.31717033,0.04492095,240.94715)" />
  </defs>
  <sodipodi:namedview
     id="base"
     pagecolor="#ffffff"
     bordercolor="#666666"
     borderopacity="1.0"
     inkscape:pageopacity="0.0"
     inkscape:pageshadow="2"
     inkscape:zoom="2.8"
     inkscape:cx="4.5081235"
     inkscape:cy="332.60522"
     inkscape:document-units="mm"
     inkscape:current-layer="layer1"
     showgrid="false"
     showguides="true"
     inkscape:guide-bbox="true"
     inkscape:snap-bbox="true"
     inkscape:snap-bbox-midpoints="true"
     inkscape:snap-text-baseline="true"
     inkscape:window-width="1920"
     inkscape:window-height="1033"
     inkscape:window-x="0"
     inkscape:window-y="0"
     inkscape:window-maximized="1">
    <sodipodi:guide
       position="-15.501632,120"
       orientation="0,1"
       id="guide1714"
       inkscape:locked="false"
       inkscape:label=""
       inkscape:color="rgb(0,0,255)" />
    <sodipodi:guide
       position="-16.303441,14"
       orientation="0,1"
       id="guide1716"
       inkscape:locked="false"
       inkscape:label=""
       inkscape:color="rgb(0,0,255)" />
    <sodipodi:guide
       position="10.16,80.319942"
       orientation="1,0"
       id="guide1749"
       inkscape:locked="false"
       inkscape:label=""
       inkscape:color="rgb(0,0,255)" />
    <sodipodi:guide
       position="-22.584275,108"
       orientation="0,1"
       id="guide1784"
       inkscape:locked="false"
       inkscape:label=""
       inkscape:color="rgb(0,0,255)" />
    <sodipodi:guide
       position="-13.630745,95.999999"
       orientation="0,1"
       id="guide1810"
       inkscape:locked="false"
       inkscape:label=""
       inkscape:color="rgb(0,0,255)" />
    <sodipodi:guide
       position="-28.330569,84.000002"
       orientation="0,1"
       id="guide1812"
       inkscape:locked="false"
       inkscape:label=""
       inkscape:color="rgb(0,0,255)" />
    <sodipodi:guide
       position="-15.902536,72.000005"
       orientation="0,1"
       id="guide1838"
       inkscape:locked="false"
       inkscape:label=""
       inkscape:color="rgb(0,0,255)" />
    <sodipodi:guide
       position="-15.902536,60.000007"
       orientation="0,1"
       id="guide1875"
       inkscape:locked="false"
       inkscape:label=""
       inkscape:color="rgb(0,0,255)" />
    <sodipodi:guide
       position="-12.561667,48.000009"
       orientation="0,1"
       id="guide1877"
       inkscape:locked="false"
       inkscape:label=""
       inkscape:color="rgb(0,0,255)" />
    <sodipodi:guide
       position="-20.847022,30"
       orientation="0,1"
       id="guide1903"
       inkscape:locked="false"
       inkscape:label=""
       inkscape:color="rgb(0,0,255)" />
  </sodipodi:namedview>
  <metadata
     id="metadata1138">
    <rdf:RDF>
      <cc:Work
         rdf:about="">
        <dc:format>image/svg+xml</dc:format>
        <dc:type
           rdf:resource="http://purl.org/dc/dcmitype/StillImage" />
        <dc:title />
      </cc:Work>
    </rdf:RDF>
  </metadata>
  <g
     inkscape:groupmode="layer"
     id="layer4"
     inkscape:label="BG"
     style="display:inline">
    <path
       inkscape:connector-curvature="0"
       id="path1099"
       d="M 5e-7,-6.6e-6 H 20.320001 V 128.5 H 5e-7 Z"
       style="display:inline;fill:url(#linearGradient4954);fill-opacity:1;stroke:#6e6e6e;stroke-width:0;stroke-miterlimit:4;stroke-dasharray:none;stroke-opacity:1" />
  </g>
  <g
     inkscape:groupmode="layer"
     id="layer2"
     inkscape:label="Layer 2"
     style="display:inline">
    <g
       transform="matrix(0.35277777,0,0,-0.35277777,-19,147.59999)"
       inkscape:label="aw_sideall"
       id="g905"
       style="fill:#f4da98;fill-opacity:1">
      <g
         id="g907"
         style="fill:#f4da98;fill-opacity:1">
        <g
           clip-path="url(#clipPath913)"
           id="g909"
           style="fill:#f4da98;fill-opacity:1">
          <g
             transform="translate(73.9409,393.8872)"
             id="g915"
             style="fill:#f4da98;fill-opacity:1">
            <path
               inkscape:connector-curvature="0"
               id="path917"
               style="fill:#f4da98;fill-opacity:1;fill-rule:nonzero;stroke:none"
               d="m 0,0 h -0.11 c -0.285,0.036 -0.489,0.182 -0.611,0.439 -0.025,0.065 -0.042,0.127 -0.047,0.187 -0.004,0.06 0,0.12 0.015,0.182 l 0.266,0.976 c 0.222,0.904 0.466,1.671 0.732,2.303 0.111,0.251 0.22,0.505 0.325,0.761 0.254,0.605 0.52,1.203 0.795,1.797 L 1.424,6.79 C 1.462,6.881 1.507,6.966 1.557,7.047 1.606,7.129 1.676,7.197 1.765,7.251 1.79,7.267 1.81,7.289 1.824,7.317 1.838,7.345 1.85,7.371 1.857,7.396 1.865,7.419 1.871,7.441 1.877,7.462 1.991,7.687 2.164,7.809 2.397,7.829 2.769,7.861 3.021,7.723 3.156,7.414 3.238,7.233 3.288,7.05 3.305,6.864 3.31,6.195 3.272,5.506 3.193,4.797 3.346,4.904 3.441,5.029 3.482,5.173 3.623,5.48 3.792,5.77 3.988,6.041 4.09,6.184 4.183,6.326 4.268,6.467 4.352,6.608 4.445,6.74 4.549,6.863 4.713,7.051 4.846,7.26 4.946,7.489 5.014,7.629 5.109,7.755 5.233,7.866 5.388,8.02 5.524,8.186 5.643,8.364 5.713,8.477 5.79,8.587 5.875,8.695 5.924,8.746 5.969,8.801 6.011,8.857 6.167,9.059 6.338,9.25 6.522,9.435 6.677,9.582 6.837,9.663 7.003,9.677 7.036,9.68 7.111,9.679 7.229,9.672 7.347,9.666 7.48,9.579 7.629,9.411 7.719,9.298 7.77,9.179 7.78,9.053 7.787,8.98 7.777,8.902 7.751,8.819 L 7.593,8.223 C 7.487,7.739 7.344,7.271 7.162,6.82 6.972,6.329 6.818,5.828 6.702,5.319 6.586,4.811 6.455,4.356 6.309,3.956 6.265,3.851 6.225,3.743 6.187,3.633 L 6.15,3.479 C 6.062,3.117 5.971,2.577 5.881,1.86 5.894,1.714 5.887,1.573 5.862,1.437 5.837,1.301 5.756,1.183 5.616,1.083 5.522,1.022 5.425,0.986 5.325,0.978 5.266,0.973 5.181,0.982 5.071,1.006 4.962,1.03 4.866,1.132 4.783,1.312 L 4.739,1.369 C 4.648,1.481 4.593,1.667 4.569,1.926 4.543,2.238 4.61,2.639 4.775,3.128 l 0.1,0.351 C 4.89,3.546 4.907,3.611 4.929,3.674 4.974,3.845 5.009,4.019 5.033,4.195 5.055,4.484 5.131,4.762 5.262,5.028 5.335,5.181 5.384,5.35 5.408,5.533 L 5.457,5.778 C 5.013,5.277 4.645,4.736 4.354,4.155 4.258,3.966 4.156,3.783 4.051,3.607 L 3.869,3.27 C 3.752,3.012 3.602,2.778 3.419,2.567 3.221,2.383 3.025,2.282 2.833,2.266 2.614,2.246 2.396,2.332 2.179,2.52 2.092,2.592 2.034,2.681 2.005,2.786 1.997,2.878 1.979,2.969 1.951,3.057 1.923,3.145 1.905,3.235 1.896,3.328 1.889,3.421 1.891,3.517 1.902,3.615 1.913,3.713 1.912,3.842 1.898,4 1.889,4.04 1.881,4.083 1.877,4.13 1.868,4.229 1.872,4.333 1.89,4.442 1.817,4.429 1.776,4.398 1.768,4.351 1.715,4.111 1.631,3.884 1.516,3.667 1.419,3.477 1.341,3.278 1.282,3.068 1.224,2.859 1.152,2.627 1.067,2.372 0.961,2.055 0.829,1.615 0.671,1.052 0.63,0.901 0.532,0.649 0.375,0.294 0.305,0.114 0.18,0.016 0,0" />
          </g>
          <g
             transform="translate(81.4995,395.3823)"
             id="g919"
             style="fill:#f4da98;fill-opacity:1">
            <path
               inkscape:connector-curvature="0"
               id="path921"
               style="fill:#f4da98;fill-opacity:1;fill-rule:nonzero;stroke:none"
               d="m 0,0 c -0.061,-0.005 -0.146,0.01 -0.261,0.047 -0.113,0.037 -0.209,0.156 -0.287,0.356 -0.017,0.052 -0.029,0.105 -0.033,0.158 -0.009,0.093 0.007,0.188 0.045,0.285 0.082,0.215 0.119,0.432 0.113,0.653 0.018,0.262 0.075,0.521 0.173,0.778 0.102,0.37 0.162,0.743 0.184,1.119 0.034,0.365 0.078,0.633 0.129,0.805 0.042,0.131 0.075,0.264 0.096,0.4 C 0.222,5.182 0.374,5.737 0.616,6.267 0.708,6.509 0.881,6.642 1.133,6.664 1.312,6.68 1.477,6.637 1.626,6.537 1.74,6.459 1.803,6.347 1.815,6.202 1.821,6.135 1.814,6.058 1.796,5.969 1.512,4.94 1.329,4.201 1.247,3.752 1.191,3.467 1.127,3.184 1.051,2.902 0.939,2.498 0.881,2.084 0.879,1.663 0.875,1.542 0.852,1.43 0.808,1.325 0.734,1.158 0.7,0.988 0.702,0.814 0.68,0.524 0.552,0.302 0.317,0.148 0.212,0.058 0.105,0.009 0,0" />
          </g>
          <g
             transform="translate(84.6176,397.4814)"
             id="g923"
             style="fill:#f4da98;fill-opacity:1">
            <path
               inkscape:connector-curvature="0"
               id="path925"
               style="fill:#f4da98;fill-opacity:1;fill-rule:nonzero;stroke:none"
               d="m 0,0 c 0.047,0.004 0.085,0.024 0.115,0.061 0.209,0.206 0.543,0.522 1.001,0.95 L 1.31,1.209 c 0.09,0.108 0.189,0.204 0.296,0.287 0.174,0.142 0.331,0.3 0.47,0.473 0.073,0.086 0.15,0.17 0.23,0.251 C 2.416,2.33 2.468,2.428 2.46,2.515 2.454,2.587 2.41,2.67 2.328,2.764 1.699,3.452 1.258,3.868 1.005,4.013 0.935,4.047 0.867,4.084 0.804,4.126 L 0.815,3.997 C 0.827,3.857 0.815,3.759 0.78,3.702 0.683,3.586 0.637,3.435 0.64,3.249 0.563,2.66 0.43,2.082 0.239,1.517 0.18,1.351 0.147,1.181 0.143,1.007 0.148,0.867 0.117,0.733 0.048,0.607 -0.038,0.432 -0.07,0.232 -0.051,0.006 Z m -1.334,-2.998 c -0.126,-0.01 -0.254,0.032 -0.383,0.128 -0.15,0.12 -0.235,0.29 -0.255,0.509 -0.008,0.107 0.012,0.209 0.064,0.307 0.162,0.289 0.26,0.592 0.292,0.909 0.024,0.176 0.061,0.347 0.11,0.511 0.05,0.166 0.091,0.33 0.123,0.493 0.038,0.251 0.108,0.492 0.208,0.721 0.027,0.076 0.036,0.157 0.029,0.243 -0.01,0.12 0.009,0.232 0.061,0.337 0.138,0.26 0.207,0.54 0.207,0.841 0.014,0.155 0.057,0.31 0.13,0.463 0.055,0.146 0.092,0.293 0.112,0.442 0.031,0.19 0.091,0.376 0.183,0.558 0.011,0.021 0.018,0.048 0.022,0.082 0.004,0.034 0.019,0.062 0.043,0.084 0.025,0.022 0.035,0.051 0.033,0.083 L -0.39,3.881 c -0.011,0.14 0.031,0.27 0.126,0.393 0.096,0.122 0.231,0.191 0.404,0.206 0.027,0.002 0.051,0.006 0.074,0.011 0.023,0.006 0.047,0.026 0.07,0.061 C 0.236,4.568 0.19,4.591 0.147,4.621 0.057,4.673 -0.038,4.715 -0.134,4.747 -0.155,4.751 -0.189,4.767 -0.238,4.792 -0.288,4.819 -0.346,4.85 -0.412,4.888 -0.479,4.925 -0.541,4.962 -0.598,4.997 l -0.177,0.085 c -0.261,0.151 -0.402,0.339 -0.421,0.565 -0.015,0.16 0.03,0.334 0.134,0.524 0.071,0.107 0.176,0.166 0.316,0.179 0.1,0.008 0.195,-0.01 0.285,-0.056 C -0.271,6.197 -0.079,6.103 0.116,6.013 0.388,5.896 0.65,5.765 0.903,5.62 1.278,5.385 1.637,5.126 1.976,4.841 L 2.515,4.417 C 2.952,4.073 3.305,3.645 3.57,3.133 3.628,3.011 3.663,2.883 3.675,2.751 3.685,2.631 3.675,2.51 3.646,2.387 3.574,1.985 3.426,1.635 3.201,1.334 2.977,1.033 2.721,0.753 2.437,0.495 2.331,0.392 2.219,0.298 2.1,0.214 1.904,0.07 1.729,-0.1 1.571,-0.294 1.506,-0.38 1.425,-0.451 1.329,-0.506 1.188,-0.585 1.031,-0.729 0.855,-0.939 0.724,-1.118 0.563,-1.269 0.373,-1.393 0.297,-1.439 0.237,-1.508 0.195,-1.599 0.153,-1.689 0.067,-1.794 -0.063,-1.913 -0.357,-2.22 -0.656,-2.516 -0.96,-2.804 -1.083,-2.922 -1.208,-2.986 -1.334,-2.998" />
          </g>
          <g
             transform="translate(88.3022,395.9775)"
             id="g927"
             style="fill:#f4da98;fill-opacity:1">
            <path
               inkscape:connector-curvature="0"
               id="path929"
               style="fill:#f4da98;fill-opacity:1;fill-rule:nonzero;stroke:none"
               d="m 0,0 c -0.059,-0.005 -0.146,0.01 -0.26,0.047 -0.113,0.037 -0.209,0.156 -0.287,0.356 -0.017,0.053 -0.029,0.105 -0.033,0.158 -0.009,0.093 0.006,0.188 0.045,0.285 0.081,0.215 0.119,0.432 0.113,0.653 0.018,0.262 0.075,0.521 0.173,0.778 0.102,0.37 0.162,0.743 0.184,1.119 0.034,0.365 0.078,0.633 0.129,0.805 0.042,0.131 0.075,0.264 0.096,0.4 C 0.223,5.182 0.375,5.737 0.616,6.267 0.709,6.509 0.882,6.642 1.134,6.664 1.313,6.68 1.478,6.637 1.627,6.537 1.741,6.459 1.804,6.347 1.816,6.202 1.822,6.135 1.816,6.058 1.797,5.969 1.512,4.94 1.329,4.202 1.248,3.752 1.193,3.467 1.128,3.184 1.052,2.902 0.939,2.498 0.882,2.084 0.879,1.663 0.876,1.542 0.853,1.43 0.808,1.325 0.735,1.158 0.7,0.988 0.702,0.814 0.681,0.524 0.553,0.302 0.318,0.148 0.213,0.058 0.107,0.009 0,0" />
          </g>
          <g
             transform="translate(67.5219,384.2915)"
             id="g931"
             style="fill:#f4da98;fill-opacity:1">
            <path
               inkscape:connector-curvature="0"
               id="path933"
               style="fill:#f4da98;fill-opacity:1;fill-rule:nonzero;stroke:none"
               d="m 0,0 h -0.11 c -0.284,0.036 -0.489,0.182 -0.611,0.438 -0.025,0.066 -0.041,0.127 -0.047,0.187 -0.004,0.06 0,0.121 0.015,0.183 l 0.266,0.976 c 0.222,0.903 0.466,1.671 0.732,2.303 0.111,0.251 0.22,0.504 0.325,0.761 0.255,0.604 0.52,1.203 0.796,1.797 L 1.424,6.79 c 0.039,0.09 0.083,0.176 0.133,0.257 0.049,0.081 0.12,0.15 0.208,0.204 0.025,0.016 0.046,0.038 0.06,0.066 0.014,0.028 0.026,0.054 0.032,0.078 0.008,0.024 0.015,0.046 0.02,0.067 0.114,0.224 0.288,0.346 0.52,0.367 C 2.769,7.861 3.022,7.723 3.156,7.413 3.238,7.233 3.289,7.05 3.305,6.864 3.31,6.195 3.273,5.506 3.194,4.796 3.346,4.903 3.442,5.029 3.482,5.173 3.623,5.479 3.792,5.769 3.989,6.041 4.09,6.183 4.183,6.325 4.268,6.466 4.353,6.607 4.446,6.74 4.55,6.862 4.714,7.051 4.846,7.26 4.946,7.489 5.015,7.629 5.11,7.754 5.234,7.866 5.389,8.021 5.524,8.186 5.643,8.363 5.714,8.477 5.79,8.587 5.875,8.695 5.924,8.746 5.97,8.8 6.012,8.857 6.168,9.058 6.338,9.251 6.523,9.435 6.677,9.582 6.837,9.663 7.004,9.677 7.037,9.68 7.112,9.678 7.229,9.672 7.348,9.666 7.48,9.579 7.629,9.411 7.72,9.298 7.77,9.178 7.78,9.052 7.787,8.979 7.777,8.901 7.751,8.819 L 7.593,8.223 C 7.487,7.739 7.345,7.271 7.163,6.82 6.972,6.328 6.818,5.828 6.702,5.319 6.586,4.811 6.455,4.355 6.31,3.955 6.266,3.851 6.225,3.743 6.187,3.633 L 6.15,3.479 C 6.062,3.117 5.972,2.577 5.881,1.859 5.894,1.713 5.887,1.572 5.862,1.437 5.838,1.3 5.756,1.183 5.617,1.083 5.522,1.022 5.425,0.986 5.325,0.978 5.266,0.972 5.181,0.982 5.072,1.006 4.963,1.03 4.867,1.132 4.784,1.312 L 4.739,1.369 C 4.649,1.48 4.593,1.666 4.57,1.925 4.543,2.237 4.611,2.639 4.776,3.128 l 0.1,0.351 C 4.89,3.546 4.907,3.612 4.929,3.673 4.975,3.845 5.01,4.018 5.034,4.194 5.056,4.484 5.132,4.762 5.263,5.028 5.336,5.181 5.385,5.35 5.409,5.533 L 5.458,5.777 C 5.013,5.277 4.646,4.736 4.354,4.155 4.258,3.966 4.156,3.784 4.052,3.606 L 3.87,3.27 C 3.752,3.012 3.602,2.777 3.42,2.568 3.222,2.383 3.026,2.282 2.833,2.266 2.614,2.247 2.396,2.331 2.179,2.519 2.093,2.592 2.034,2.681 2.005,2.786 1.997,2.878 1.979,2.969 1.951,3.057 1.924,3.145 1.906,3.235 1.897,3.328 1.89,3.421 1.891,3.517 1.902,3.614 1.914,3.713 1.913,3.842 1.898,4 1.889,4.04 1.882,4.083 1.878,4.129 1.869,4.229 1.873,4.333 1.891,4.441 1.818,4.429 1.777,4.398 1.768,4.351 1.716,4.112 1.632,3.883 1.517,3.666 1.42,3.477 1.341,3.278 1.282,3.068 1.224,2.859 1.152,2.627 1.067,2.372 0.962,2.055 0.829,1.615 0.671,1.053 0.631,0.902 0.532,0.649 0.376,0.293 0.305,0.114 0.18,0.016 0,0" />
          </g>
          <g
             transform="translate(77.3471,390.1699)"
             id="g935"
             style="fill:#f4da98;fill-opacity:1">
            <path
               inkscape:connector-curvature="0"
               id="path937"
               style="fill:#f4da98;fill-opacity:1;fill-rule:nonzero;stroke:none"
               d="M 0,0 C 0.025,0.009 0.052,0.051 0.079,0.127 0.129,0.326 0.14,0.584 0.111,0.903 0.1,1.036 0.081,1.141 0.054,1.22 -0.039,1.131 -0.113,0.99 -0.17,0.793 -0.227,0.597 -0.273,0.411 -0.312,0.234 L -0.364,0.029 c 0.06,-0.002 0.116,-0.008 0.168,-0.021 0.05,-0.012 0.092,-0.017 0.127,-0.014 z m -3.301,-5.177 c -0.26,-0.023 -0.447,0.064 -0.565,0.261 -0.04,0.077 -0.065,0.156 -0.072,0.235 -0.008,0.106 0.012,0.219 0.062,0.337 0.142,0.293 0.369,0.788 0.683,1.485 0.725,1.583 1.183,2.543 1.375,2.881 0.08,0.147 0.187,0.371 0.322,0.67 0.309,0.67 0.527,1.081 0.655,1.232 0.025,0.035 0.043,0.078 0.06,0.126 0.127,0.613 0.385,1.134 0.776,1.564 C 0.094,3.709 0.206,3.762 0.332,3.773 0.379,3.777 0.459,3.771 0.575,3.754 0.69,3.738 0.795,3.65 0.889,3.491 1.051,3.164 1.148,2.821 1.18,2.462 1.195,2.283 1.206,1.939 1.21,1.431 1.215,0.99 1.227,0.667 1.245,0.461 L 1.264,0.241 C 1.311,0.004 1.346,-0.23 1.365,-0.462 1.389,-0.721 1.394,-0.982 1.384,-1.244 1.38,-1.432 1.396,-1.728 1.432,-2.133 1.457,-2.418 1.477,-2.691 1.493,-2.951 1.498,-3.158 1.491,-3.389 1.474,-3.645 1.46,-3.874 1.349,-4.051 1.139,-4.176 1.068,-4.216 0.997,-4.239 0.924,-4.246 0.744,-4.261 0.581,-4.195 0.435,-4.047 0.31,-3.924 0.238,-3.757 0.22,-3.544 c -0.029,0.318 -0.046,0.715 -0.054,1.19 -0.008,0.32 -0.018,0.543 -0.028,0.67 -0.004,0.04 0,0.074 0.01,0.101 l -0.002,0.151 c -0.008,0.079 -0.026,0.131 -0.054,0.155 -0.03,0.025 -0.087,0.033 -0.173,0.025 -0.126,-0.011 -0.245,-0.028 -0.356,-0.051 -0.047,-0.01 -0.107,-0.019 -0.18,-0.026 -0.06,-0.005 -0.123,-0.004 -0.191,0.004 -0.067,0.007 -0.13,0.009 -0.191,0.003 -0.126,-0.011 -0.275,-0.218 -0.447,-0.621 l -0.57,-1.295 -0.627,-1.44 C -2.77,-4.983 -2.989,-5.15 -3.301,-5.177" />
          </g>
          <g
             transform="translate(80.9126,390.3818)"
             id="g939"
             style="fill:#f4da98;fill-opacity:1">
            <path
               inkscape:connector-curvature="0"
               id="path941"
               style="fill:#f4da98;fill-opacity:1;fill-rule:nonzero;stroke:none"
               d="M 0,0 0.174,0.306 C 0.227,0.391 0.289,0.437 0.362,0.443 0.396,0.446 0.429,0.442 0.464,0.432 0.471,0.433 0.475,0.438 0.478,0.449 0.479,0.458 0.483,0.471 0.489,0.484 0.583,0.72 0.706,0.918 0.858,1.079 0.943,1.18 1.024,1.288 1.102,1.401 1.148,1.479 1.213,1.542 1.296,1.589 1.41,1.666 1.509,1.754 1.594,1.856 1.649,1.921 1.707,1.981 1.77,2.037 1.831,2.093 1.86,2.137 1.858,2.17 L 1.844,2.219 C 1.804,2.289 1.748,2.321 1.674,2.314 1.494,2.305 1.315,2.325 1.137,2.373 0.959,2.421 0.804,2.439 0.671,2.428 0.65,2.426 0.624,2.417 0.593,2.4 0.561,2.384 0.483,2.114 0.363,1.588 0.258,1.104 0.119,0.625 -0.054,0.156 L -0.061,0.115 C -0.058,0.082 -0.038,0.043 0,0 m -1.364,-4.717 c -0.094,-0.008 -0.198,0.007 -0.315,0.043 -0.317,0.099 -0.487,0.285 -0.51,0.557 -0.008,0.087 10e-4,0.169 0.028,0.249 0.026,0.079 0.043,0.152 0.051,0.221 0.031,0.484 0.121,0.947 0.27,1.388 0.063,0.193 0.106,0.387 0.129,0.583 0.033,0.238 0.097,0.467 0.19,0.69 0.061,0.152 0.093,0.319 0.098,0.5 0.009,0.128 0.027,0.257 0.056,0.386 0.051,0.185 0.095,0.373 0.132,0.564 l 0.237,0.954 c 0.101,0.377 0.179,0.678 0.232,0.904 0.054,0.226 0.112,0.451 0.172,0.678 0.119,0.318 0.333,0.55 0.642,0.698 C 0.099,3.723 0.147,3.737 0.194,3.741 0.247,3.746 0.298,3.74 0.347,3.724 0.675,3.646 1.006,3.608 1.34,3.61 1.554,3.616 1.755,3.573 1.943,3.482 l 0.02,0.002 C 1.978,3.472 1.996,3.463 2.017,3.459 2.257,3.46 2.476,3.402 2.674,3.285 2.766,3.233 2.858,3.191 2.956,3.16 3.128,3.094 3.256,2.995 3.338,2.862 3.42,2.728 3.481,2.583 3.521,2.426 L 3.537,2.367 C 3.543,2.301 3.511,2.21 3.44,2.098 3.249,1.833 3.032,1.594 2.79,1.378 2.591,1.207 2.421,1.011 2.279,0.791 2.222,0.679 2.141,0.585 2.033,0.509 1.87,0.387 1.729,0.245 1.608,0.081 1.507,-0.055 1.389,-0.18 1.255,-0.292 1.121,-0.404 1.004,-0.538 0.903,-0.694 0.781,-0.905 0.612,-1.071 0.395,-1.19 L 0.376,-1.202 C 0.305,-1.228 0.244,-1.264 0.194,-1.308 0.145,-1.353 0.057,-1.38 -0.069,-1.391 -0.148,-1.398 -0.22,-1.418 -0.28,-1.45 -0.341,-1.482 -0.376,-1.56 -0.385,-1.685 -0.395,-1.81 -0.429,-1.928 -0.489,-2.04 -0.55,-2.153 -0.584,-2.28 -0.592,-2.421 c -0.014,-0.288 -0.071,-0.558 -0.17,-0.808 -0.1,-0.303 -0.151,-0.612 -0.149,-0.926 l 0.003,-0.03 c -0.059,-0.333 -0.21,-0.51 -0.456,-0.532" />
          </g>
          <g
             transform="translate(85.9135,390.8193)"
             id="g943"
             style="fill:#f4da98;fill-opacity:1">
            <path
               inkscape:connector-curvature="0"
               id="path945"
               style="fill:#f4da98;fill-opacity:1;fill-rule:nonzero;stroke:none"
               d="M 0,0 0.174,0.306 C 0.227,0.391 0.289,0.437 0.362,0.443 0.396,0.446 0.43,0.442 0.464,0.432 0.471,0.433 0.475,0.438 0.477,0.449 0.479,0.458 0.483,0.471 0.489,0.484 0.582,0.72 0.705,0.918 0.858,1.079 0.943,1.18 1.025,1.288 1.102,1.401 1.148,1.479 1.213,1.542 1.296,1.589 1.409,1.666 1.509,1.754 1.594,1.856 1.648,1.921 1.707,1.981 1.769,2.037 1.831,2.093 1.861,2.137 1.857,2.17 L 1.844,2.219 C 1.804,2.289 1.747,2.321 1.674,2.315 1.494,2.305 1.315,2.325 1.137,2.373 0.959,2.421 0.804,2.439 0.671,2.428 0.65,2.426 0.624,2.417 0.593,2.401 0.561,2.384 0.483,2.114 0.363,1.588 0.258,1.104 0.119,0.626 -0.054,0.156 L -0.061,0.115 C -0.058,0.082 -0.038,0.043 0,0 m -1.364,-4.717 c -0.094,-0.008 -0.198,0.007 -0.316,0.043 -0.316,0.099 -0.486,0.285 -0.509,0.557 -0.008,0.087 10e-4,0.169 0.028,0.249 0.026,0.079 0.043,0.152 0.051,0.221 0.031,0.484 0.121,0.947 0.269,1.388 0.064,0.193 0.107,0.387 0.13,0.584 0.033,0.237 0.097,0.466 0.19,0.689 0.061,0.152 0.093,0.319 0.098,0.5 0.009,0.128 0.027,0.257 0.056,0.386 0.051,0.185 0.095,0.373 0.132,0.564 l 0.237,0.954 c 0.101,0.377 0.178,0.679 0.232,0.904 0.054,0.226 0.112,0.451 0.172,0.678 0.119,0.318 0.333,0.551 0.642,0.698 C 0.099,3.723 0.147,3.737 0.194,3.741 0.247,3.746 0.298,3.74 0.347,3.724 0.675,3.646 1.006,3.608 1.34,3.61 1.554,3.616 1.755,3.573 1.943,3.483 l 0.02,10e-4 C 1.978,3.472 1.996,3.463 2.016,3.459 2.257,3.46 2.476,3.402 2.673,3.285 2.766,3.233 2.859,3.191 2.955,3.16 3.128,3.094 3.256,2.995 3.338,2.862 3.42,2.728 3.481,2.583 3.521,2.426 L 3.537,2.368 C 3.543,2.301 3.511,2.21 3.439,2.098 3.249,1.833 3.032,1.594 2.79,1.378 2.591,1.207 2.421,1.011 2.279,0.791 2.222,0.679 2.14,0.585 2.033,0.509 1.87,0.387 1.729,0.245 1.608,0.081 1.507,-0.055 1.389,-0.18 1.255,-0.292 1.121,-0.404 1.004,-0.538 0.903,-0.694 0.781,-0.905 0.611,-1.071 0.395,-1.19 L 0.376,-1.202 C 0.305,-1.228 0.244,-1.263 0.194,-1.308 0.145,-1.353 0.057,-1.38 -0.069,-1.391 -0.148,-1.398 -0.22,-1.418 -0.28,-1.45 -0.341,-1.482 -0.376,-1.56 -0.385,-1.685 -0.395,-1.81 -0.429,-1.928 -0.489,-2.04 -0.55,-2.153 -0.584,-2.28 -0.592,-2.421 c -0.014,-0.288 -0.071,-0.558 -0.17,-0.808 -0.1,-0.303 -0.151,-0.612 -0.15,-0.926 l 0.003,-0.03 c -0.058,-0.333 -0.21,-0.51 -0.455,-0.532" />
          </g>
          <g
             transform="translate(88.4848,386.7778)"
             id="g947"
             style="fill:#f4da98;fill-opacity:1">
            <path
               inkscape:connector-curvature="0"
               id="path949"
               style="fill:#f4da98;fill-opacity:1;fill-rule:nonzero;stroke:none"
               d="m 0,0 -0.188,-0.017 c -0.261,-0.002 -0.459,0.081 -0.595,0.25 -0.083,0.106 -0.13,0.226 -0.142,0.359 -0.008,0.086 0.001,0.181 0.026,0.283 0.098,0.33 0.259,0.625 0.484,0.886 0.201,0.232 0.405,0.457 0.613,0.676 L 0.667,2.939 C 0.74,3.02 0.821,3.087 0.91,3.142 0.962,3.166 1.009,3.197 1.053,3.234 1.165,3.317 1.22,3.386 1.215,3.439 1.21,3.499 1.15,3.567 1.037,3.645 L 0.825,3.767 C 0.661,3.886 0.542,4.056 0.47,4.277 0.435,4.368 0.414,4.453 0.407,4.533 0.389,4.739 0.481,5.054 0.685,5.48 0.753,5.627 0.833,5.704 0.926,5.712 0.979,5.717 1.044,5.703 1.12,5.67 1.087,5.747 1.067,5.818 1.062,5.885 1.047,6.051 1.125,6.226 1.297,6.407 1.321,6.43 1.343,6.455 1.36,6.483 1.633,6.814 1.923,7.128 2.232,7.423 2.38,7.57 2.514,7.648 2.633,7.658 2.679,7.663 2.729,7.661 2.784,7.652 L 2.785,7.642 2.835,7.636 C 2.849,7.638 2.861,7.646 2.874,7.66 2.926,7.751 2.991,7.804 3.07,7.818 3.177,7.827 3.257,7.831 3.311,7.829 L 3.371,7.824 C 3.626,7.812 3.852,7.729 4.046,7.571 4.146,7.487 4.221,7.385 4.269,7.265 4.315,7.146 4.352,7.023 4.376,6.898 4.388,6.839 4.398,6.788 4.409,6.745 4.419,6.702 4.427,6.661 4.43,6.622 4.445,6.442 4.387,6.273 4.254,6.115 4.12,5.955 3.974,5.869 3.814,5.854 3.795,5.853 3.732,5.856 3.628,5.863 3.523,5.871 3.402,5.973 3.266,6.168 L 3.228,6.255 C 3.209,6.314 3.171,6.367 3.113,6.416 2.995,6.386 2.897,6.332 2.821,6.255 2.744,6.178 2.679,6.097 2.626,6.012 2.573,5.927 2.521,5.852 2.466,5.787 2.44,5.765 2.42,5.733 2.403,5.691 2.388,5.649 2.359,5.617 2.321,5.594 2.213,5.531 2.128,5.453 2.066,5.361 2.004,5.269 1.947,5.173 1.896,5.075 1.84,4.949 1.769,4.833 1.685,4.725 1.955,4.628 2.227,4.56 2.501,4.521 2.775,4.48 2.978,4.333 3.106,4.077 3.154,3.987 3.183,3.899 3.19,3.813 3.195,3.753 3.19,3.674 3.176,3.576 3.161,3.477 3.089,3.379 2.961,3.281 2.832,3.182 2.709,3.071 2.593,2.947 2.508,2.859 2.418,2.778 2.323,2.703 2.232,2.595 2.113,2.507 1.965,2.441 1.855,2.391 1.766,2.316 1.694,2.216 1.651,2.159 1.605,2.108 1.557,2.063 L 0.941,1.518 C 0.99,1.495 1.034,1.486 1.074,1.489 1.127,1.494 1.177,1.505 1.223,1.522 l 0.02,0.002 c 0.419,0.171 0.832,0.354 1.236,0.55 0.18,0.082 0.364,0.162 0.551,0.239 0.233,0.101 0.46,0.208 0.685,0.321 0.064,0.033 0.13,0.052 0.196,0.057 0.06,0.005 0.116,0 0.172,-0.015 C 4.383,2.609 4.544,2.445 4.566,2.187 4.584,1.987 4.506,1.816 4.331,1.674 4.182,1.547 4.017,1.439 3.838,1.35 2.963,0.865 2.043,0.48 1.077,0.195 0.725,0.098 0.365,0.032 0,0" />
          </g>
          <g
             transform="translate(94.8257,392.2109)"
             id="g951"
             style="fill:#f4da98;fill-opacity:1">
            <path
               inkscape:connector-curvature="0"
               id="path953"
               style="fill:#f4da98;fill-opacity:1;fill-rule:nonzero;stroke:none"
               d="M 0,0 C 0.771,0.597 1.5,1.252 2.188,1.968 2.268,2.042 2.345,2.119 2.418,2.199 2.103,2.279 1.809,2.317 1.534,2.313 L 1.385,2.31 C 1.285,2.301 1.181,2.282 1.072,2.253 0.965,2.223 0.865,2.201 0.772,2.187 0.573,2.169 0.462,2.059 0.44,1.855 0.399,1.477 0.298,1.11 0.135,0.755 0.021,0.531 -0.024,0.279 0,0 m -1.684,-5.768 c -0.099,-0.009 -0.209,0.022 -0.329,0.091 -0.206,0.136 -0.321,0.34 -0.344,0.613 -0.007,0.079 -0.005,0.164 0.007,0.251 0.067,0.314 0.129,0.63 0.189,0.951 0.136,0.74 0.285,1.48 0.448,2.217 l 0.165,0.747 c 0.1,0.471 0.21,0.935 0.33,1.394 0.045,0.178 0.083,0.356 0.114,0.532 0.044,0.265 0.112,0.525 0.203,0.781 0.009,0.041 0.013,0.078 0.01,0.111 -0.004,0.04 -0.018,0.102 -0.046,0.186 -0.054,0.09 -0.088,0.204 -0.1,0.344 -0.007,0.072 0.005,0.154 0.033,0.243 0.029,0.09 0.132,0.199 0.309,0.328 0.201,0.145 0.416,0.248 0.644,0.308 C 0.283,3.418 0.643,3.48 1.028,3.514 1.214,3.53 1.403,3.54 1.598,3.543 1.718,3.547 1.841,3.555 1.967,3.566 2.456,3.561 2.926,3.465 3.377,3.277 3.412,3.26 3.45,3.247 3.491,3.237 3.817,3.111 3.992,2.899 4.019,2.601 4.034,2.428 3.993,2.247 3.896,2.058 3.698,1.712 3.453,1.417 3.16,1.17 3.092,1.111 3.026,1.048 2.966,0.983 2.639,0.66 2.306,0.346 1.964,0.042 1.784,-0.115 1.607,-0.277 1.434,-0.446 1.075,-0.786 0.859,-0.97 0.785,-1 0.711,-1.03 0.65,-1.081 0.603,-1.151 0.871,-1.389 1.161,-1.564 1.472,-1.678 1.687,-1.766 1.891,-1.872 2.082,-1.996 2.358,-2.179 2.647,-2.348 2.949,-2.502 3.139,-2.599 3.242,-2.757 3.262,-2.977 3.274,-3.116 3.242,-3.253 3.167,-3.386 3.037,-3.578 2.853,-3.685 2.613,-3.706 2.474,-3.718 2.354,-3.682 2.252,-3.597 c -0.267,0.218 -0.557,0.396 -0.869,0.536 -0.266,0.124 -0.521,0.276 -0.764,0.456 -0.035,0.03 -0.075,0.048 -0.12,0.054 -0.044,0.007 -0.081,0.016 -0.112,0.03 -0.033,0.014 -0.068,0.026 -0.109,0.036 -0.222,0.081 -0.375,0.192 -0.461,0.331 -0.053,0.082 -0.152,0.134 -0.295,0.155 -0.108,-0.21 -0.169,-0.43 -0.183,-0.658 L -0.706,-2.942 -1.002,-4.263 C -1.039,-4.454 -1.06,-4.639 -1.063,-4.821 -1.087,-5.097 -1.179,-5.339 -1.342,-5.547 l -0.01,-0.001 c -0.095,-0.136 -0.206,-0.209 -0.332,-0.22" />
          </g>
          <g
             transform="translate(65.7717,131.5458)"
             id="g955"
             style="fill:#f4da98;fill-opacity:1">
            <path
               inkscape:connector-curvature="0"
               id="path957"
               style="fill:#f4da98;fill-opacity:1;fill-rule:nonzero;stroke:none"
               d="m 0,0 c 2.531,-2.638 5.097,-5.143 7.696,-7.501 2.455,-11.91 4.896,-23.842 7.341,-35.767 -2.874,1.163 -5.729,2.467 -8.559,3.926 C 4.347,-26.188 2.185,-13.079 0,0 M -6.777,39.904 C -4.542,36.283 -2.264,32.782 0.057,29.406 2.49,17.667 4.926,5.935 7.35,-5.821 4.768,-3.435 2.218,-0.915 -0.295,1.751 -2.429,14.507 -4.592,27.221 -6.777,39.904 m 0.95,22.752 c 2.078,-4.101 4.201,-8.09 6.363,-11.981 2.498,-10.218 5.007,-20.421 7.53,-30.602 -2.399,3.114 -4.753,6.367 -7.07,9.73 -2.271,10.957 -4.544,21.911 -6.823,32.853 m 0.679,15.641 c 1.89,-4.287 3.797,-8.458 5.721,-12.509 2.403,-8.6 4.826,-17.167 7.274,-25.691 -2.161,3.55 -4.286,7.193 -6.37,10.941 -2.218,9.072 -4.426,18.158 -6.625,27.259 m 0.883,8.754 c 1.546,-3.868 3.114,-7.686 4.703,-11.458 2.159,-6.909 4.342,-13.773 6.551,-20.59 -1.837,3.61 -3.663,7.32 -5.475,11.134 -1.941,6.948 -3.868,13.918 -5.779,20.914 m -6.516,24.177 c 0.957,-2.799 1.923,-5.582 2.897,-8.349 1.661,-5.58 3.338,-11.132 5.032,-16.656 -1.292,3.216 -2.573,6.456 -3.835,9.739 -1.373,5.075 -2.737,10.165 -4.094,15.266 M 0.003,81.291 C 1.361,77.352 2.725,73.448 4.096,69.586 3.184,71.687 2.278,73.8 1.38,75.932 c -0.999,3.197 -1.992,6.405 -2.98,9.622 0.533,-1.425 1.066,-2.847 1.603,-4.263 M 8.66,56.93 C 10.776,51.168 12.909,45.511 15.054,39.927 13.303,43.041 11.56,46.233 9.827,49.519 7.991,55.128 6.171,60.767 4.369,66.439 5.781,63.228 7.215,60.067 8.66,56.93 m 9.056,-18.787 c 1.764,-3.976 3.544,-7.922 5.348,-11.813 -1.568,2.536 -3.132,5.133 -4.691,7.797 -1.554,3.98 -3.102,7.996 -4.642,12.068 1.316,-2.711 2.643,-5.399 3.985,-8.052 M 29,17.072 c -0.556,0.837 -1.111,1.674 -1.666,2.527 -0.47,0.984 -0.932,1.984 -1.398,2.974 1.015,-1.849 2.035,-3.684 3.064,-5.501 M 35.5,5.93 c 2.148,-3.563 4.327,-7.053 6.53,-10.485 -1.929,1.959 -3.845,3.959 -5.734,6.043 C 34.343,5.301 32.408,9.153 30.498,13.059 32.163,10.618 33.83,8.238 35.5,5.93 m 8.352,-20.86 c -2.529,1.769 -5.029,3.648 -7.499,5.641 -2.629,5.983 -5.245,12.081 -7.844,18.303 2.287,-2.788 4.603,-5.496 6.955,-8.094 2.754,-5.375 5.55,-10.659 8.388,-15.85 m 0.588,-14.665 c -2.724,1.047 -5.428,2.219 -8.108,3.533 -2.812,7.494 -5.595,15.048 -8.341,22.675 2.483,-2.296 5.001,-4.471 7.55,-6.534 2.949,-6.708 5.917,-13.259 8.899,-19.674 m 0.001,-20.399 c -2.902,0.172 -5.796,0.484 -8.678,0.937 -2.8,8.859 -5.572,17.769 -8.321,26.717 2.674,-1.618 5.373,-3.101 8.095,-4.449 2.932,-7.808 5.9,-15.543 8.904,-23.205 m -18.473,3.039 c -2.623,10.271 -5.234,20.561 -7.831,30.871 2.644,-1.959 5.317,-3.784 8.017,-5.467 2.808,-9.151 5.64,-18.26 8.502,-27.317 -2.91,0.494 -5.806,1.131 -8.688,1.913 m -9.498,33.387 c -2.652,2.057 -5.273,4.262 -7.862,6.601 C 6.25,4.468 3.88,15.88 1.514,27.3 3.849,23.981 6.229,20.794 8.646,17.724 11.24,7.272 13.85,-3.155 16.47,-13.568 m 0.28,23.139 c -2.433,2.746 -4.827,5.615 -7.184,8.602 -2.417,9.74 -4.819,19.501 -7.213,29.274 2.135,-3.745 4.306,-7.399 6.519,-10.941 2.601,-9.021 5.226,-18 7.878,-26.935 m -0.454,17.412 c -2.203,3.216 -4.37,6.53 -6.503,9.938 -2.275,7.893 -4.528,15.822 -6.764,23.78 1.944,-3.969 3.902,-7.83 5.873,-11.57 2.436,-7.438 4.899,-14.823 7.394,-22.148 m 8.596,-11.828 c -2.207,2.86 -4.379,5.823 -6.522,8.863 -2.273,6.634 -4.521,13.315 -6.745,20.041 1.938,-3.556 3.886,-7.012 5.843,-10.36 2.458,-6.294 4.933,-12.475 7.424,-18.544 M 20.587,28.47 c 1.948,-3.208 3.902,-6.326 5.862,-9.339 2.356,-4.94 4.746,-9.806 7.168,-14.603 -2.182,2.502 -4.337,5.086 -6.462,7.754 -2.201,5.314 -4.392,10.699 -6.568,16.188 m -1.056,-7.823 c 2.216,-3.06 4.472,-6.009 6.756,-8.879 2.771,-6.691 5.56,-13.256 8.367,-19.675 -2.499,2.079 -4.965,4.279 -7.401,6.587 -2.605,7.262 -5.178,14.587 -7.722,21.967 M 18.973,5.634 c 2.438,-2.622 4.91,-5.128 7.418,-7.512 2.838,-7.909 5.711,-15.749 8.621,-23.516 -2.696,1.369 -5.368,2.869 -8.015,4.507 -2.699,8.799 -5.375,17.637 -8.024,26.521 m -8.207,27.902 c 2.198,-3.426 4.433,-6.752 6.705,-9.978 2.688,-7.841 5.41,-15.615 8.166,-23.324 -2.472,2.408 -4.912,4.927 -7.314,7.57 -2.54,8.542 -5.063,17.112 -7.557,25.732 m 14.935,-53.608 c -2.68,1.707 -5.332,3.555 -7.955,5.538 -2.544,10.103 -5.078,20.219 -7.597,30.359 2.39,-2.963 4.817,-5.81 7.283,-8.53 2.728,-9.171 5.487,-18.288 8.269,-27.367 M 16.149,-43.71 c -2.399,11.702 -4.795,23.408 -7.203,35.095 2.609,-2.312 5.249,-4.49 7.92,-6.52 2.65,-10.528 5.316,-21.033 7.993,-31.519 -2.921,0.831 -5.825,1.816 -8.71,2.944 m -3.591,-33.836 c -1.94,12.359 -3.897,24.696 -5.886,36.988 2.847,-1.442 5.716,-2.735 8.606,-3.883 2.26,-11.028 4.516,-22.063 6.768,-33.105 h 1.02 c -2.221,10.894 -4.446,21.782 -6.677,32.663 2.9,-1.111 5.82,-2.074 8.756,-2.89 2.539,-9.943 5.091,-19.867 7.654,-29.773 h 1.033 c -2.538,9.808 -5.065,19.634 -7.58,29.478 2.9,-0.768 5.814,-1.394 8.742,-1.875 2.871,-9.078 5.763,-18.12 8.689,-27.103 -0.681,-0.182 -1.363,-0.331 -2.044,-0.5 h 3.988 c 0.067,0.019 0.134,0.039 0.201,0.058 v 1.05 c -0.392,-0.114 -0.784,-0.245 -1.176,-0.354 -2.88,8.84 -5.727,17.737 -8.554,26.669 2.903,-0.44 5.819,-0.735 8.742,-0.893 0.328,-0.835 0.66,-1.66 0.988,-2.493 v 3.458 c -0.098,0.004 -0.196,0.002 -0.295,0.007 -2.929,7.468 -5.825,15.009 -8.687,22.617 2.713,-1.296 5.448,-2.454 8.204,-3.48 0.259,-0.556 0.519,-1.105 0.778,-1.659 v 2.438 c -0.016,0.006 -0.032,0.011 -0.048,0.017 -2.864,6.146 -5.715,12.426 -8.55,18.842 2.533,-1.987 5.095,-3.864 7.689,-5.62 0.3,-0.545 0.607,-1.077 0.909,-1.62 v 2.206 c -0.048,0.034 -0.096,0.068 -0.145,0.101 -2.607,4.732 -5.179,9.544 -7.715,14.432 1.968,-2.097 3.949,-4.153 5.959,-6.119 0.239,-0.232 0.48,-0.451 0.719,-0.682 0.391,-0.595 0.789,-1.172 1.182,-1.763 v 2.021 c -0.136,0.131 -0.274,0.256 -0.411,0.388 -1.055,1.605 -2.105,3.223 -3.148,4.857 1.187,-1.515 2.373,-2.993 3.559,-4.445 v 1.58 C 42.67,-2.03 39.509,2.091 36.353,6.452 30.216,16.629 24.303,27.34 18.618,38.576 12.475,52.422 6.578,66.781 0.936,81.651 -3.377,94.167 -7.617,107.08 -11.772,120.398 v -9.333 c 0.474,-1.777 0.94,-3.565 1.415,-5.34 -0.475,1.292 -0.944,2.597 -1.415,3.9 v -2.915 c 1.361,-3.724 2.734,-7.419 4.133,-11.059 2.176,-8.045 4.373,-16.055 6.588,-24.035 -1.836,3.994 -3.655,8.109 -5.459,12.325 -1.761,7.309 -3.513,14.63 -5.262,21.957 v -4.296 c 0.952,-3.979 1.898,-7.966 2.853,-11.94 -0.956,2.311 -1.907,4.659 -2.853,7.036 v -2.663 c 1.426,-3.535 2.86,-7.018 4.309,-10.407 2.35,-9.753 4.712,-19.489 7.085,-29.209 -2.128,3.932 -4.213,7.972 -6.258,12.111 -1.71,8.202 -3.422,16.398 -5.136,24.591 v -4.893 c 1.118,-5.353 2.237,-10.702 3.354,-16.057 -1.132,2.352 -2.248,4.742 -3.354,7.155 v -2.344 c 1.377,-2.971 2.766,-5.911 4.183,-8.782 2.377,-11.406 4.749,-22.822 7.118,-34.245 -2.278,3.385 -4.519,6.878 -6.713,10.504 L -7.215,42.44 c -1.502,8.701 -3.031,17.364 -4.557,26.031 V 62.753 C -3.655,16.475 4.12,-30.297 11.545,-77.546 Z" />
          </g>
        </g>
      </g>
    </g>
  </g>
  <g
     inkscape:label="Layer 1"
     inkscape:groupmode="layer"
     id="layer1"
     transform="translate(0,-168.5)">
    <g
       aria-label="IN"
       style="font-style:normal;font-variant:normal;font-weight:normal;font-stretch:normal;font-size:3.17499995px;line-height:100%;font-family:DIN;-inkscape-font-specification:DIN;text-align:center;letter-spacing:0px;word-spacing:0px;writing-mode:lr-tb;text-anchor:middle;fill:#f4da98;fill-opacity:1;stroke:#292727;stroke-width:1;stroke-linecap:butt;stroke-linejoin:miter;stroke-miterlimit:4;stroke-dasharray:none;stroke-opacity:1"
       id="text1979-7"
       transform="translate(32.178141,-15.489334)">
      <path
         d="m -22.994343,276.2113 v -2.2606 h -0.3429 v 2.2606 z"
         style="fill:#f4da98;fill-opacity:1;stroke:#292727;stroke-width:1;stroke-miterlimit:4;stroke-dasharray:none;stroke-opacity:1"
         id="path1992-5"
         inkscape:connector-curvature="0" />
      <path
         d="m -20.699066,276.2113 v -2.2606 h -0.3429 v 1.5875 l -1.044575,-1.5875 h -0.314325 v 2.2606 h 0.3429 v -1.59067 l 1.044575,1.59067 z"
         style="fill:#f4da98;fill-opacity:1;stroke:#292727;stroke-width:1;stroke-miterlimit:4;stroke-dasharray:none;stroke-opacity:1"
         id="path1994-3"
         inkscape:connector-curvature="0" />
    </g>
    <g
       aria-label="OUT"
       style="font-style:normal;font-variant:normal;font-weight:normal;font-stretch:normal;font-size:3.17499995px;line-height:100%;font-family:DIN;-inkscape-font-specification:DIN;text-align:center;letter-spacing:0px;word-spacing:0px;writing-mode:lr-tb;text-anchor:middle;fill:#f4da98;fill-opacity:1;stroke:#292727;stroke-width:1;stroke-linecap:butt;stroke-linejoin:miter;stroke-miterlimit:4;stroke-dasharray:none;stroke-opacity:1"
       id="text1983-5"
       transform="translate(28.433991,-12.623999)">
      <path
         d="m -19.482484,288.21568 q 0,-0.16193 -0.0032,-0.2921 -0.0032,-0.13335 -0.02223,-0.2413 -0.01905,-0.10795 -0.0635,-0.20003 -0.04445,-0.0921 -0.127,-0.17462 -0.117475,-0.11748 -0.2667,-0.1778 -0.149225,-0.0635 -0.3302,-0.0635 -0.180975,0 -0.3302,0.0635 -0.14605,0.0603 -0.263525,0.1778 -0.08255,0.0825 -0.127,0.17462 -0.04445,0.0921 -0.06668,0.20003 -0.01905,0.10795 -0.02222,0.2413 -0.0032,0.13017 -0.0032,0.2921 0,0.16192 0.0032,0.29527 0.0032,0.13018 0.02222,0.23813 0.02222,0.10795 0.06668,0.20002 0.04445,0.0921 0.127,0.17463 0.117475,0.11747 0.263525,0.18097 0.149225,0.0603 0.3302,0.0603 0.180975,0 0.3302,-0.0603 0.149225,-0.0635 0.2667,-0.18097 0.08255,-0.0826 0.127,-0.17463 0.04445,-0.0921 0.0635,-0.20002 0.01905,-0.10795 0.02223,-0.23813 0.0032,-0.13335 0.0032,-0.29527 z m -0.3429,0 q 0,0.17145 -0.0064,0.28575 -0.0032,0.11112 -0.01905,0.1905 -0.0127,0.0762 -0.04127,0.13017 -0.0254,0.0508 -0.06668,0.0953 -0.06032,0.0635 -0.149225,0.1016 -0.08573,0.0381 -0.187325,0.0381 -0.1016,0 -0.1905,-0.0381 -0.08573,-0.0381 -0.14605,-0.1016 -0.04127,-0.0444 -0.06985,-0.0953 -0.0254,-0.054 -0.04127,-0.13017 -0.0127,-0.0794 -0.01905,-0.1905 -0.0032,-0.1143 -0.0032,-0.28575 0,-0.17145 0.0032,-0.28258 0.0063,-0.1143 0.01905,-0.1905 0.01587,-0.0794 0.04127,-0.13017 0.02858,-0.054 0.06985,-0.0984 0.06033,-0.0635 0.14605,-0.1016 0.0889,-0.0381 0.1905,-0.0381 0.1016,0 0.187325,0.0381 0.0889,0.0381 0.149225,0.1016 0.04127,0.0444 0.06668,0.0984 0.02858,0.0508 0.04127,0.13017 0.01588,0.0762 0.01905,0.1905 0.0064,0.11113 0.0064,0.28258 z"
         style="fill:#f4da98;fill-opacity:1;stroke:#292727;stroke-width:1;stroke-miterlimit:4;stroke-dasharray:none;stroke-opacity:1"
         id="path1985-6"
         inkscape:connector-curvature="0" />
      <path
         d="m -17.385446,288.58398 v -1.4986 h -0.3429 v 1.48272 q 0,0.2286 -0.130175,0.35878 -0.127,0.13017 -0.339725,0.13017 -0.212725,0 -0.339725,-0.13017 -0.127,-0.13018 -0.127,-0.35878 v -1.48272 h -0.3429 v 1.4986 q 0,0.17462 0.06033,0.32067 0.0635,0.14288 0.17145,0.24448 0.10795,0.1016 0.257175,0.15875 0.149225,0.0571 0.320675,0.0571 0.17145,0 0.320675,-0.0571 0.149225,-0.0572 0.257175,-0.15875 0.111125,-0.1016 0.17145,-0.24448 0.0635,-0.14605 0.0635,-0.32067 z"
         style="fill:#f4da98;fill-opacity:1;stroke:#292727;stroke-width:1;stroke-miterlimit:4;stroke-dasharray:none;stroke-opacity:1"
         id="path1987-2"
         inkscape:connector-curvature="0" />
      <path
         d="m -15.439866,287.39335 v -0.30797 h -1.5875 v 0.30797 h 0.6223 v 1.95263 h 0.3429 v -1.95263 z"
         style="fill:#f4da98;fill-opacity:1;stroke:#292727;stroke-width:1;stroke-miterlimit:4;stroke-dasharray:none;stroke-opacity:1"
         id="path1989-9"
         inkscape:connector-curvature="0" />
    </g>
    <g
       transform="translate(-7.2366667e-6,1.5661594e-6)"
       aria-label="6"
       style="font-style:normal;font-variant:normal;font-weight:normal;font-stretch:normal;font-size:2.82222223px;line-height:100%;font-family:DIN;-inkscape-font-specification:DIN;text-align:center;letter-spacing:0px;word-spacing:0px;writing-mode:lr-tb;text-anchor:middle;fill:#f4da98;fill-opacity:1;stroke:#292727;stroke-width:1;stroke-linecap:butt;stroke-linejoin:miter;stroke-miterlimit:4;stroke-dasharray:none;stroke-opacity:1"
       id="text897-1">
      <path
         inkscape:connector-curvature="0"
         d="m 4.4040772,243.57991 q 0,-0.13264 -0.042333,-0.23989 -0.039511,-0.10724 -0.1128889,-0.18344 -0.070556,-0.0762 -0.1665111,-0.11571 -0.095956,-0.0423 -0.2060223,-0.0423 -0.047978,0 -0.093133,0.008 -0.045156,0.006 -0.084667,0.0226 l 0.4318,-0.8636 H 3.8226994 l -0.4572,0.93133 q -0.064911,0.13265 -0.1072444,0.25118 -0.042333,0.11853 -0.042333,0.24271 0,0.14111 0.042333,0.25118 0.045155,0.11006 0.1241777,0.18909 0.079022,0.079 0.1890889,0.12135 0.1100667,0.0395 0.2398889,0.0395 0.1298222,0 0.2370667,-0.0423 0.1100667,-0.0452 0.1890889,-0.12418 0.079022,-0.0818 0.1213555,-0.19473 0.045156,-0.11289 0.045156,-0.25118 z m -0.2878667,0.006 q 0,0.16086 -0.087489,0.25682 -0.084667,0.0931 -0.2201333,0.0931 -0.1354667,0 -0.2201333,-0.0931 -0.084667,-0.096 -0.084667,-0.25682 0,-0.16369 0.084667,-0.254 0.084667,-0.0931 0.2201333,-0.0931 0.1439333,0 0.2257778,0.0988 0.081844,0.0988 0.081844,0.24836 z"
         style="fill:#f4da98;fill-opacity:1;stroke:#292727;stroke-width:1;stroke-miterlimit:4;stroke-dasharray:none;stroke-opacity:1"
         id="path899-2" />
    </g>
    <g
       aria-label="1"
       style="font-style:normal;font-variant:normal;font-weight:normal;font-stretch:normal;font-size:2.82222223px;line-height:100%;font-family:DIN;-inkscape-font-specification:DIN;text-align:center;letter-spacing:0px;word-spacing:0px;writing-mode:lr-tb;text-anchor:middle;fill:#f4da98;fill-opacity:1;stroke:none;stroke-width:0.26458332px;stroke-linecap:butt;stroke-linejoin:miter;stroke-opacity:1"
       id="text877">
      <path
         d="m 4.1500771,184.18388 v -2.00942 H 3.8622105 l -0.3922889,0.33867 v 0.31891 l 0.3922889,-0.34431 v 1.69615 z"
         style="fill:#f4da98;fill-opacity:1;stroke-width:0.26458332px"
         id="path914"
         inkscape:connector-curvature="0" />
    </g>
    <path
       style="display:inline;fill:#f4da98;fill-opacity:1;stroke:#000000;stroke-width:0;stroke-miterlimit:4;stroke-dasharray:none;stroke-opacity:0"
       inkscape:transform-center-x="7.4234112"
       inkscape:transform-center-y="5.2919366"
       d="M 15.66,283 A 5.5000004,5.5000004 0 0 1 10.159999,288.5 5.5000004,5.5000004 0 0 1 4.6599999,283 5.5000004,5.5000004 0 0 1 10.159999,277.5 5.5000004,5.5000004 0 0 1 15.66,283 Z"
       id="path4964"
       inkscape:connector-curvature="0" />
    <rect
       style="display:inline;opacity:1;fill:url(#linearGradient1637);fill-opacity:1;stroke:#000000;stroke-width:0.2;stroke-linecap:butt;stroke-linejoin:miter;stroke-miterlimit:4;stroke-dasharray:none;stroke-opacity:1"
       id="rect1627"
       width="15.929257"
       height="7.9292574"
       x="2.1953714"
       y="185.03537"
       rx="0.55958259" />
    <g
       aria-label="IN"
       style="font-style:normal;font-variant:normal;font-weight:normal;font-stretch:normal;font-size:3.17499995px;line-height:100%;font-family:DIN;-inkscape-font-specification:DIN;text-align:center;letter-spacing:0px;word-spacing:0px;writing-mode:lr-tb;text-anchor:middle;fill:#f4da98;fill-opacity:1;stroke:#000000;stroke-width:0.26458332px;stroke-linecap:butt;stroke-linejoin:miter;stroke-opacity:0"
       id="text1979"
       transform="translate(32.178155,-15.489335)">
      <path
         d="m -22.994343,276.2113 v -2.2606 h -0.3429 v 2.2606 z"
         style="fill:#f4da98;fill-opacity:1;stroke:#000000;stroke-width:0.26458332px;stroke-opacity:0"
         id="path1992"
         inkscape:connector-curvature="0" />
      <path
         d="m -20.699066,276.2113 v -2.2606 h -0.3429 v 1.5875 l -1.044575,-1.5875 h -0.314325 v 2.2606 h 0.3429 v -1.59067 l 1.044575,1.59067 z"
         style="fill:#f4da98;fill-opacity:1;stroke:#000000;stroke-width:0.26458332px;stroke-opacity:0"
         id="path1994"
         inkscape:connector-curvature="0" />
    </g>
    <g
       aria-label="OUT"
       style="font-style:normal;font-variant:normal;font-weight:normal;font-stretch:normal;font-size:3.17499995px;line-height:100%;font-family:DIN;-inkscape-font-specification:DIN;text-align:center;letter-spacing:0px;word-spacing:0px;writing-mode:lr-tb;text-anchor:middle;fill:#f4da98;fill-opacity:1;stroke:#000000;stroke-width:0.26458332px;stroke-linecap:butt;stroke-linejoin:miter;stroke-opacity:0"
       id="text1983"
       transform="translate(28.434003,-12.624)">
      <path
         d="m -19.482484,288.21568 q 0,-0.16193 -0.0032,-0.2921 -0.0032,-0.13335 -0.02223,-0.2413 -0.01905,-0.10795 -0.0635,-0.20003 -0.04445,-0.0921 -0.127,-0.17462 -0.117475,-0.11748 -0.2667,-0.1778 -0.149225,-0.0635 -0.3302,-0.0635 -0.180975,0 -0.3302,0.0635 -0.14605,0.0603 -0.263525,0.1778 -0.08255,0.0825 -0.127,0.17462 -0.04445,0.0921 -0.06668,0.20003 -0.01905,0.10795 -0.02222,0.2413 -0.0032,0.13017 -0.0032,0.2921 0,0.16192 0.0032,0.29527 0.0032,0.13018 0.02222,0.23813 0.02222,0.10795 0.06668,0.20002 0.04445,0.0921 0.127,0.17463 0.117475,0.11747 0.263525,0.18097 0.149225,0.0603 0.3302,0.0603 0.180975,0 0.3302,-0.0603 0.149225,-0.0635 0.2667,-0.18097 0.08255,-0.0826 0.127,-0.17463 0.04445,-0.0921 0.0635,-0.20002 0.01905,-0.10795 0.02223,-0.23813 0.0032,-0.13335 0.0032,-0.29527 z m -0.3429,0 q 0,0.17145 -0.0064,0.28575 -0.0032,0.11112 -0.01905,0.1905 -0.0127,0.0762 -0.04127,0.13017 -0.0254,0.0508 -0.06668,0.0953 -0.06032,0.0635 -0.149225,0.1016 -0.08573,0.0381 -0.187325,0.0381 -0.1016,0 -0.1905,-0.0381 -0.08573,-0.0381 -0.14605,-0.1016 -0.04127,-0.0444 -0.06985,-0.0953 -0.0254,-0.054 -0.04127,-0.13017 -0.0127,-0.0794 -0.01905,-0.1905 -0.0032,-0.1143 -0.0032,-0.28575 0,-0.17145 0.0032,-0.28258 0.0063,-0.1143 0.01905,-0.1905 0.01587,-0.0794 0.04127,-0.13017 0.02858,-0.054 0.06985,-0.0984 0.06033,-0.0635 0.14605,-0.1016 0.0889,-0.0381 0.1905,-0.0381 0.1016,0 0.187325,0.0381 0.0889,0.0381 0.149225,0.1016 0.04127,0.0444 0.06668,0.0984 0.02858,0.0508 0.04127,0.13017 0.01588,0.0762 0.01905,0.1905 0.0064,0.11113 0.0064,0.28258 z"
         style="fill:#f4da98;fill-opacity:1;stroke:#000000;stroke-width:0.26458332px;stroke-opacity:0"
         id="path1985"
         inkscape:connector-curvature="0" />
      <path
         d="m -17.385446,288.58398 v -1.4986 h -0.3429 v 1.48272 q 0,0.2286 -0.130175,0.35878 -0.127,0.13017 -0.339725,0.13017 -0.212725,0 -0.339725,-0.13017 -0.127,-0.13018 -0.127,-0.35878 v -1.48272 h -0.3429 v 1.4986 q 0,0.17462 0.06033,0.32067 0.0635,0.14288 0.17145,0.24448 0.10795,0.1016 0.257175,0.15875 0.149225,0.0571 0.320675,0.0571 0.17145,0 0.320675,-0.0571 0.149225,-0.0572 0.257175,-0.15875 0.111125,-0.1016 0.17145,-0.24448 0.0635,-0.14605 0.0635,-0.32067 z"
         style="fill:#f4da98;fill-opacity:1;stroke:#000000;stroke-width:0.26458332px;stroke-opacity:0"
         id="path1987"
         inkscape:connector-curvature="0" />
      <path
         d="m -15.439866,287.39335 v -0.30797 h -1.5875 v 0.30797 h 0.6223 v 1.95263 h 0.3429 v -1.95263 z"
         style="fill:#f4da98;fill-opacity:1;stroke:#000000;stroke-width:0.26458332px;stroke-opacity:0"
         id="path1989"
         inkscape:connector-curvature="0" />
    </g>
    <g
       aria-label="2"
       style="font-style:normal;font-variant:normal;font-weight:normal;font-stretch:normal;font-size:2.82222223px;line-height:100%;font-family:DIN;-inkscape-font-specification:DIN;text-align:center;letter-spacing:0px;word-spacing:0px;writing-mode:lr-tb;text-anchor:middle;fill:#f4da98;fill-opacity:1;stroke:none;stroke-width:0.26458332px;stroke-linecap:butt;stroke-linejoin:miter;stroke-opacity:1"
       id="text881">
      <path
         d="m 4.3942,196.19235 v -0.25682 H 3.5757555 l 0.6293556,-0.77047 q 0.093133,-0.11289 0.1411111,-0.20602 0.047978,-0.0959 0.047978,-0.2286 0,-0.12982 -0.042333,-0.23424 -0.042333,-0.10443 -0.1185334,-0.1778 -0.0762,-0.0734 -0.1834444,-0.11289 -0.1072445,-0.0395 -0.2370667,-0.0395 -0.127,0 -0.2342444,0.0423 -0.1072445,0.0395 -0.1862667,0.11289 -0.0762,0.0734 -0.1213556,0.18062 -0.042333,0.10442 -0.042333,0.23142 h 0.2878667 q 0,-0.0847 0.0254,-0.14393 0.0254,-0.0593 0.064911,-0.096 0.042333,-0.0367 0.095956,-0.0536 0.053622,-0.0169 0.1100667,-0.0169 0.1411111,0 0.2173111,0.0847 0.0762,0.0847 0.0762,0.22013 0,0.0762 -0.0254,0.13829 -0.0254,0.0593 -0.081844,0.12982 L 3.2258,195.93553 v 0.25682 z"
         style="fill:#f4da98;fill-opacity:1;stroke-width:0.26458332px"
         id="path911"
         inkscape:connector-curvature="0" />
    </g>
    <g
       aria-label="3"
       style="font-style:normal;font-variant:normal;font-weight:normal;font-stretch:normal;font-size:2.82222223px;line-height:100%;font-family:DIN;-inkscape-font-specification:DIN;text-align:center;letter-spacing:0px;word-spacing:0px;writing-mode:lr-tb;text-anchor:middle;fill:#f4da98;fill-opacity:1;stroke:none;stroke-width:0.26458332px;stroke-linecap:butt;stroke-linejoin:miter;stroke-opacity:1"
       id="text885">
      <path
         d="m 4.4252443,207.61944 q 0,-0.18627 -0.0762,-0.30198 -0.0762,-0.11571 -0.2060222,-0.17215 0.1185333,-0.0564 0.1834444,-0.16087 0.067733,-0.10725 0.067733,-0.26811 0,-0.12418 -0.045155,-0.22578 -0.042333,-0.10442 -0.1213556,-0.1778 -0.0762,-0.0762 -0.1834444,-0.11571 Q 3.937,206.15474 3.81,206.15474 q -0.1213555,0 -0.2257777,0.0395 -0.1044223,0.0367 -0.1834445,0.10724 -0.079022,0.0706 -0.127,0.17216 -0.047978,0.1016 -0.053622,0.2286 h 0.2878667 q 0.011289,-0.13547 0.090311,-0.21167 0.079022,-0.0762 0.2116666,-0.0762 0.1241778,0 0.2088445,0.079 0.087489,0.079 0.087489,0.23142 0,0.13829 -0.073378,0.22296 -0.073378,0.0818 -0.2314222,0.0818 h -0.047978 v 0.25118 h 0.047978 q 0.1693333,0 0.2511778,0.0903 0.084667,0.0875 0.084667,0.23989 0,0.16087 -0.093133,0.24836 -0.093133,0.0847 -0.2342445,0.0847 -0.062089,0 -0.1213555,-0.0169 -0.056445,-0.0169 -0.1016,-0.0536 -0.042333,-0.0395 -0.073378,-0.096 -0.028222,-0.0564 -0.031044,-0.13829 H 3.1947554 q 0.00282,0.14676 0.053622,0.254 0.053622,0.10725 0.1382889,0.1778 0.084667,0.0677 0.1919111,0.1016 0.1100667,0.031 0.2314222,0.031 0.127,0 0.2370667,-0.0367 0.1128889,-0.0367 0.1947333,-0.11007 0.084667,-0.0734 0.1326445,-0.18344 0.0508,-0.11007 0.0508,-0.254 z"
         style="fill:#f4da98;fill-opacity:1;stroke-width:0.26458332px"
         id="path908"
         inkscape:connector-curvature="0" />
    </g>
    <g
       aria-label="4"
       style="font-style:normal;font-variant:normal;font-weight:normal;font-stretch:normal;font-size:2.82222223px;line-height:100%;font-family:DIN;-inkscape-font-specification:DIN;text-align:center;letter-spacing:0px;word-spacing:0px;writing-mode:lr-tb;text-anchor:middle;fill:#f4da98;fill-opacity:1;stroke:none;stroke-width:0.26458332px;stroke-linecap:butt;stroke-linejoin:miter;stroke-opacity:1"
       id="text889">
      <path
         d="m 4.4633439,219.88191 v -0.26812 H 4.248855 v -0.46848 h -0.2794 v 0.46848 H 3.4699216 l 0.7055556,-1.43933 H 3.8650327 l -0.7083777,1.43933 v 0.26812 h 0.8128 v 0.30197 h 0.2794 v -0.30197 z"
         style="fill:#f4da98;fill-opacity:1;stroke-width:0.26458332px"
         id="path905"
         inkscape:connector-curvature="0" />
    </g>
    <g
       aria-label="5"
       style="font-style:normal;font-variant:normal;font-weight:normal;font-stretch:normal;font-size:2.82222223px;line-height:100%;font-family:DIN;-inkscape-font-specification:DIN;text-align:center;letter-spacing:0px;word-spacing:0px;writing-mode:lr-tb;text-anchor:middle;fill:#f4da98;fill-opacity:1;stroke:none;stroke-width:0.26458332px;stroke-linecap:butt;stroke-linejoin:miter;stroke-opacity:1"
       id="text893">
      <path
         d="m 4.3970216,231.50231 q 0,-0.0706 -0.00564,-0.14111 -0.00564,-0.0734 -0.0254,-0.14112 -0.016933,-0.0677 -0.053622,-0.13264 -0.033867,-0.0649 -0.090311,-0.12136 -0.062089,-0.0621 -0.1524,-0.096 -0.090311,-0.0339 -0.2088445,-0.0339 -0.1100666,0 -0.1975555,0.031 -0.084667,0.031 -0.1354667,0.0847 V 230.4214 H 4.351866 v -0.25683 H 3.2681327 v 1.09785 h 0.2624666 q 0.022578,-0.0734 0.090311,-0.127 0.070556,-0.0536 0.1947334,-0.0536 0.087489,0 0.1439333,0.0339 0.056445,0.0311 0.090311,0.0875 0.033867,0.0565 0.045156,0.13265 0.014111,0.0762 0.014111,0.16651 0,0.1016 -0.016933,0.19473 -0.014111,0.0931 -0.079022,0.15804 -0.079022,0.079 -0.2088444,0.079 -0.1354667,0 -0.2060222,-0.0706 -0.070556,-0.0734 -0.087489,-0.20884 H 3.2229771 q 0.00847,0.10724 0.039511,0.20602 0.031045,0.096 0.1128889,0.1778 0.064911,0.0649 0.1749778,0.11007 0.1100667,0.0452 0.254,0.0452 0.1467555,0 0.2511778,-0.0452 0.1044222,-0.0452 0.1721555,-0.11289 0.1100667,-0.11007 0.1382889,-0.23989 0.031045,-0.13265 0.031045,-0.29351 z"
         style="fill:#f4da98;fill-opacity:1;stroke-width:0.26458332px"
         id="path902"
         inkscape:connector-curvature="0" />
    </g>
    <g
       aria-label="6"
       style="font-style:normal;font-variant:normal;font-weight:normal;font-stretch:normal;font-size:2.82222223px;line-height:100%;font-family:DIN;-inkscape-font-specification:DIN;text-align:center;letter-spacing:0px;word-spacing:0px;writing-mode:lr-tb;text-anchor:middle;fill:#f4da98;fill-opacity:1;stroke:#000000;stroke-width:0.26458332px;stroke-linecap:butt;stroke-linejoin:miter;stroke-opacity:0"
       id="text897">
      <path
         d="m 4.4040772,243.57991 q 0,-0.13264 -0.042333,-0.23989 -0.039511,-0.10724 -0.1128889,-0.18344 -0.070556,-0.0762 -0.1665111,-0.11571 -0.095956,-0.0423 -0.2060223,-0.0423 -0.047978,0 -0.093133,0.008 -0.045156,0.006 -0.084667,0.0226 l 0.4318,-0.8636 H 3.8226994 l -0.4572,0.93133 q -0.064911,0.13265 -0.1072444,0.25118 -0.042333,0.11853 -0.042333,0.24271 0,0.14111 0.042333,0.25118 0.045155,0.11006 0.1241777,0.18909 0.079022,0.079 0.1890889,0.12135 0.1100667,0.0395 0.2398889,0.0395 0.1298222,0 0.2370667,-0.0423 0.1100667,-0.0452 0.1890889,-0.12418 0.079022,-0.0818 0.1213555,-0.19473 0.045156,-0.11289 0.045156,-0.25118 z m -0.2878667,0.006 q 0,0.16086 -0.087489,0.25682 -0.084667,0.0931 -0.2201333,0.0931 -0.1354667,0 -0.2201333,-0.0931 -0.084667,-0.096 -0.084667,-0.25682 0,-0.16369 0.084667,-0.254 0.084667,-0.0931 0.2201333,-0.0931 0.1439333,0 0.2257778,0.0988 0.081844,0.0988 0.081844,0.24836 z"
         style="fill:#f4da98;fill-opacity:1;stroke:#000000;stroke-width:0.26458332px;stroke-opacity:0"
         id="path899"
         inkscape:connector-curvature="0" />
    </g>
    <rect
       style="display:inline;opacity:1;fill:url(#linearGradient1637-3);fill-opacity:1;stroke:#000000;stroke-width:0.2;stroke-linecap:butt;stroke-linejoin:miter;stroke-miterlimit:4;stroke-dasharray:none;stroke-opacity:1"
       id="rect1627-5"
       width="15.929257"
       height="7.9292574"
       x="2.1953709"
       y="197.03537"
       rx="0.55958259" />
    <rect
       style="display:inline;opacity:1;fill:url(#linearGradient1637-35);fill-opacity:1;stroke:#000000;stroke-width:0.2;stroke-linecap:butt;stroke-linejoin:miter;stroke-miterlimit:4;stroke-dasharray:none;stroke-opacity:1"
       id="rect1627-9"
       width="15.929257"
       height="7.9292574"
       x="2.1953709"
       y="209.03537"
       rx="0.55958259" />
    <rect
       style="display:inline;opacity:1;fill:url(#linearGradient1637-1);fill-opacity:1;stroke:#000000;stroke-width:0.2;stroke-linecap:butt;stroke-linejoin:miter;stroke-miterlimit:4;stroke-dasharray:none;stroke-opacity:1"
       id="rect1627-0"
       width="15.929257"
       height="7.9292574"
       x="2.1953709"
       y="221.03537"
       rx="0.55958259" />
    <rect
       style="display:inline;opacity:1;fill:url(#linearGradient1637-9);fill-opacity:1;stroke:#000000;stroke-width:0.2;stroke-linecap:butt;stroke-linejoin:miter;stroke-miterlimit:4;stroke-dasharray:none;stroke-opacity:1"
       id="rect1627-06"
       width="15.929257"
       height="7.9292574"
       x="2.1953709"
       y="233.03537"
       rx="0.55958259" />
    <rect
       style="display:inline;opacity:1;fill:url(#linearGradient1637-2);fill-opacity:1;stroke:#000000;stroke-width:0.2;stroke-linecap:butt;stroke-linejoin:miter;stroke-miterlimit:4;stroke-dasharray:none;stroke-opacity:1"
       id="rect1627-8"
       width="15.929257"
       height="7.9292574"
       x="2.1953709"
       y="245.03537"
       rx="0.55958259" />
  </g>
</svg>
