<?xml version="1.0" encoding="UTF-8" standalone="no"?>
<!-- Created with Inkscape (http://www.inkscape.org/) -->

<svg
   xmlns:dc="http://purl.org/dc/elements/1.1/"
   xmlns:cc="http://creativecommons.org/ns#"
   xmlns:rdf="http://www.w3.org/1999/02/22-rdf-syntax-ns#"
   xmlns:svg="http://www.w3.org/2000/svg"
   xmlns="http://www.w3.org/2000/svg"
   xmlns:xlink="http://www.w3.org/1999/xlink"
   xmlns:sodipodi="http://sodipodi.sourceforge.net/DTD/sodipodi-0.dtd"
   xmlns:inkscape="http://www.inkscape.org/namespaces/inkscape"
   version="1.1"
   id="svg2"
   xml:space="preserve"
   width="20.32mm"
   height="128.5mm"
   viewBox="0 0 76.8 485.66931"
   sodipodi:docname="MIDI_Repeater.svg"
   inkscape:version="0.92.5 (2060ec1f9f, 2020-04-08)"><metadata
     id="metadata8"><rdf:RDF><cc:Work
         rdf:about=""><dc:format>image/svg+xml</dc:format><dc:type
           rdf:resource="http://purl.org/dc/dcmitype/StillImage" /><dc:title /></cc:Work></rdf:RDF></metadata><defs
     id="defs6"><linearGradient
       inkscape:collect="always"
       xlink:href="#linearGradient1109"
       id="linearGradient4954"
       gradientUnits="userSpaceOnUse"
       x1="110.74702"
       y1="130.87947"
       x2="111.50298"
       y2="242.57143"
       gradientTransform="matrix(1.6778741,0,0,3.7785313,-141.62743,-474.32299)" /><linearGradient
       inkscape:collect="always"
       id="linearGradient1109"><stop
         style="stop-color:#333131;stop-opacity:1"
         offset="0"
         id="stop1105" /><stop
         style="stop-color:#292727;stop-opacity:1"
         offset="1"
         id="stop1107" /></linearGradient><clipPath
       id="clipPath918"
       clipPathUnits="userSpaceOnUse"><path
         inkscape:connector-curvature="0"
         id="path916"
         d="M 0,472.252 H 165.6 V 0 H 0 Z" /></clipPath><clipPath
       id="clipPath1074"
       clipPathUnits="userSpaceOnUse"><path
         inkscape:connector-curvature="0"
         id="path1072"
         d="M 0,472.252 H 165.6 V 0 H 0 Z" /></clipPath><clipPath
       id="clipPath899"
       clipPathUnits="userSpaceOnUse"><path
         inkscape:connector-curvature="0"
         id="path897-3"
         d="M 0,472.252 H 223.2 V 0 H 0 Z" /></clipPath></defs><sodipodi:namedview
     pagecolor="#ffffff"
     bordercolor="#666666"
     borderopacity="1"
     objecttolerance="10"
     gridtolerance="10"
     guidetolerance="10"
     inkscape:pageopacity="0"
     inkscape:pageshadow="2"
     inkscape:window-width="1920"
     inkscape:window-height="1033"
     id="namedview4"
     showgrid="false"
     inkscape:zoom="3.2721018"
     inkscape:cx="72.938539"
     inkscape:cy="51.306874"
     inkscape:window-x="0"
     inkscape:window-y="0"
     inkscape:window-maximized="1"
     inkscape:current-layer="layer3"
     inkscape:document-units="mm"
     units="mm"
     showguides="true"
     inkscape:guide-bbox="true"
     inkscape:snap-bbox="true"
     inkscape:snap-bbox-midpoints="true"
     inkscape:snap-text-baseline="true"
     inkscape:bbox-nodes="true"
     inkscape:snap-bbox-edge-midpoints="true"><sodipodi:guide
       position="38.400002,348.35597"
       orientation="1,0"
       id="guide926"
       inkscape:locked="false"
       inkscape:label=""
       inkscape:color="rgb(0,0,255)" /><sodipodi:guide
       position="123.61018,453.54333"
       orientation="0,1"
       id="guide928"
       inkscape:locked="false"
       inkscape:label=""
       inkscape:color="rgb(0,0,255)" /><sodipodi:guide
       position="121.02314,120.94489"
       orientation="0,1"
       id="guide934"
       inkscape:locked="false"
       inkscape:label=""
       inkscape:color="rgb(0,0,255)" /><sodipodi:guide
       position="168.08769,166.29923"
       orientation="0,1"
       id="guide936"
       inkscape:locked="false"
       inkscape:label=""
       inkscape:color="rgb(0,0,255)" /><sodipodi:guide
       position="152.19576,302.36222"
       orientation="0,1"
       id="guide942"
       inkscape:locked="false"
       inkscape:label=""
       inkscape:color="rgb(0,0,255)" /><sodipodi:guide
       position="132.63647,347.71655"
       orientation="0,1"
       id="guide944"
       inkscape:locked="false"
       inkscape:label=""
       inkscape:color="rgb(0,0,255)" /><sodipodi:guide
       position="-19.559295,393.07089"
       orientation="0,1"
       id="guide946"
       inkscape:locked="false"
       inkscape:label=""
       inkscape:color="rgb(0,0,255)" /><sodipodi:guide
       position="19.233053,417.63783"
       orientation="0,1"
       id="guide893"
       inkscape:locked="false"
       inkscape:label=""
       inkscape:color="rgb(0,0,255)" /><sodipodi:guide
       position="-66.01262,75.590556"
       orientation="0,1"
       id="guide898"
       inkscape:locked="false"
       inkscape:label=""
       inkscape:color="rgb(0,0,255)" /><sodipodi:guide
       position="-62.345252,257.00789"
       orientation="0,1"
       id="guide77"
       inkscape:locked="false"
       inkscape:label=""
       inkscape:color="rgb(0,0,255)" /></sodipodi:namedview><g
     inkscape:groupmode="layer"
     id="layer2"
     inkscape:label="BG"
     style="display:inline"
     transform="translate(0,-4.924933e-6)"><path
       inkscape:connector-curvature="0"
       id="path1099"
       d="M 3.3333341e-7,-8.2314251e-6 H 76.800003 V 485.66931 H 3.3333341e-7 Z"
       style="display:inline;fill:url(#linearGradient4954);fill-opacity:1;stroke:#6e6e6e;stroke-width:0;stroke-miterlimit:4;stroke-dasharray:none;stroke-opacity:1" /></g><g
     inkscape:groupmode="layer"
     id="layer3"
     inkscape:label="Layer 1"
     style="display:inline"><g
       aria-label="MIDI"
       style="font-style:normal;font-variant:normal;font-weight:normal;font-stretch:normal;font-size:16px;line-height:1.25;font-family:DIN;-inkscape-font-specification:DIN;text-align:center;letter-spacing:0px;word-spacing:0px;text-anchor:middle;fill:#f4da98;fill-opacity:1;stroke:none"
       id="text914"><path
         d="m 33.400025,32.125992 v -11.392 h -1.728 l -3.264,7.088 -3.328,-7.088 h -1.728 v 11.392 h 1.728 v -7.616 l 2.688,5.552 h 1.28 l 2.624,-5.552 v 7.616 z"
         style=""
         id="path937" /><path
         d="m 38.088021,32.125992 v -11.392 h -1.728 v 11.392 z"
         style=""
         id="path939" /><path
         d="m 49.16,26.349992 q 0,-0.624 -0.016,-1.232 0,-0.608 -0.096,-1.184 -0.096,-0.592 -0.336,-1.12 -0.24,-0.544 -0.704,-1.008 -0.544,-0.544 -1.296,-0.8 -0.752,-0.272 -1.648,-0.272 h -4 v 11.392 h 4 q 0.896,0 1.648,-0.256 0.752,-0.272 1.296,-0.816 0.464,-0.464 0.704,-1.024 0.24,-0.56 0.336,-1.168 0.096,-0.608 0.096,-1.248 0.016,-0.64 0.016,-1.264 z m -1.728,0 q 0,1.184 -0.08,2.08 -0.08,0.88 -0.528,1.376 -0.704,0.768 -1.936,0.768 h -2.096 v -8.288 h 2.096 q 1.232,0 1.936,0.768 0.448,0.496 0.528,1.312 0.08,0.8 0.08,1.984 z"
         style=""
         id="path941" /><path
         d="m 53.447976,32.125992 v -11.392 h -1.728 v 11.392 z"
         style=""
         id="path943" /></g><g
       aria-label="Repeater"
       style="font-style:normal;font-variant:normal;font-weight:normal;font-stretch:normal;font-size:16px;line-height:1.25;font-family:DIN;-inkscape-font-specification:DIN;text-align:center;letter-spacing:0px;word-spacing:0px;text-anchor:middle;fill:#f4da98;fill-opacity:1;stroke:none"
       id="text918"><path
         d="m 15.144058,46.125992 -2.624,-5.04 q 0.96,-0.272 1.616,-1.024 0.656,-0.768 0.656,-2 0,-0.72 -0.256,-1.328 -0.24,-0.624 -0.704,-1.056 -0.464,-0.448 -1.12,-0.688 -0.64,-0.256 -1.456,-0.256 H 6.8400584 v 11.392 h 1.728 v -4.8 h 2.1599996 l 2.4,4.8 z m -2.08,-8.048 q 0,0.848 -0.544,1.312 -0.528,0.464 -1.392,0.464 H 8.5680584 v -3.568 h 2.5599996 q 0.864,0 1.392,0.48 0.544,0.464 0.544,1.312 z"
         style=""
         id="path920" /><path
         d="m 23.592039,42.541992 v -0.72 q 0,-0.864 -0.24,-1.584 -0.224,-0.72 -0.672,-1.232 -0.432,-0.512 -1.072,-0.8 -0.64,-0.288 -1.456,-0.288 -1.568,0 -2.512,1.088 -0.928,1.072 -0.928,3.056 0,1.152 0.288,1.952 0.288,0.8 0.768,1.296 0.496,0.48 1.152,0.704 0.672,0.208 1.44,0.208 0.528,0 0.944,-0.08 0.432,-0.08 0.784,-0.24 0.368,-0.16 0.672,-0.384 0.32,-0.24 0.64,-0.56 l -1.04,-0.976 q -0.432,0.432 -0.864,0.64 -0.416,0.192 -1.104,0.192 -1.008,0 -1.536,-0.608 -0.528,-0.608 -0.528,-1.664 z m -1.616,-1.136 h -3.648 q 0.016,-0.368 0.048,-0.592 0.032,-0.24 0.16,-0.512 0.192,-0.464 0.608,-0.736 0.432,-0.288 1.008,-0.288 0.576,0 0.992,0.288 0.416,0.272 0.608,0.736 0.128,0.272 0.16,0.512 0.048,0.224 0.064,0.592 z"
         style=""
         id="path922" /><path
         d="m 32.392032,42.061992 q 0,-0.464 -0.032,-0.944 -0.016,-0.48 -0.112,-0.928 -0.096,-0.448 -0.288,-0.848 -0.176,-0.4 -0.48,-0.704 -0.336,-0.336 -0.864,-0.528 -0.512,-0.192 -1.12,-0.192 -0.672,0 -1.184,0.208 -0.496,0.192 -0.96,0.752 v -0.864 h -1.6 v 11.392 h 1.632 v -4.112 q 0.448,0.528 0.96,0.736 0.512,0.192 1.168,0.192 0.608,0 1.12,-0.192 0.512,-0.192 0.848,-0.528 0.304,-0.304 0.48,-0.704 0.192,-0.4 0.288,-0.848 0.096,-0.464 0.112,-0.944 0.032,-0.48 0.032,-0.944 z m -1.632,0 q 0,0.544 -0.064,1.04 -0.048,0.48 -0.224,0.864 -0.176,0.368 -0.512,0.592 -0.336,0.208 -0.88,0.208 -0.56,0 -0.896,-0.208 -0.32,-0.224 -0.512,-0.592 -0.176,-0.384 -0.24,-0.864 -0.048,-0.496 -0.048,-1.04 0,-0.544 0.048,-1.024 0.064,-0.496 0.24,-0.864 0.192,-0.368 0.512,-0.576 0.336,-0.224 0.896,-0.224 0.544,0 0.88,0.224 0.336,0.208 0.512,0.576 0.176,0.368 0.224,0.864 0.064,0.48 0.064,1.024 z"
         style=""
         id="path924" /><path
         d="m 41.064024,42.541992 v -0.72 q 0,-0.864 -0.24,-1.584 -0.224,-0.72 -0.672,-1.232 -0.432,-0.512 -1.072,-0.8 -0.64,-0.288 -1.456,-0.288 -1.568,0 -2.512,1.088 -0.928,1.072 -0.928,3.056 0,1.152 0.288,1.952 0.288,0.8 0.768,1.296 0.496,0.48 1.152,0.704 0.672,0.208 1.44,0.208 0.528,0 0.944,-0.08 0.432,-0.08 0.784,-0.24 0.368,-0.16 0.672,-0.384 0.32,-0.24 0.64,-0.56 l -1.04,-0.976 q -0.432,0.432 -0.864,0.64 -0.416,0.192 -1.104,0.192 -1.008,0 -1.536,-0.608 -0.528,-0.608 -0.528,-1.664 z m -1.616,-1.136 h -3.648 q 0.016,-0.368 0.048,-0.592 0.032,-0.24 0.16,-0.512 0.192,-0.464 0.608,-0.736 0.432,-0.288 1.008,-0.288 0.576,0 0.992,0.288 0.416,0.272 0.608,0.736 0.128,0.272 0.16,0.512 0.048,0.224 0.064,0.592 z"
         style=""
         id="path926" /><path
         d="m 49.192017,46.125992 v -5.424 q 0,-2.784 -3.344,-2.784 -1.008,0 -1.68,0.256 -0.656,0.24 -1.232,0.912 l 1.072,1.008 q 0.336,-0.432 0.72,-0.608 0.384,-0.176 1.056,-0.176 0.96,0 1.36,0.384 0.416,0.368 0.416,1.136 v 0.576 h -2.144 q -1.408,0 -2.112,0.656 -0.688,0.656 -0.688,1.68 0,1.072 0.64,1.744 0.368,0.368 0.88,0.56 0.528,0.176 1.296,0.176 0.752,0 1.232,-0.192 0.48,-0.192 0.928,-0.64 v 0.736 z m -1.632,-2.928 q 0,0.848 -0.352,1.2 -0.32,0.32 -0.688,0.4 -0.368,0.064 -0.832,0.064 -0.768,0 -1.136,-0.288 -0.352,-0.304 -0.352,-0.864 0,-0.56 0.368,-0.864 0.368,-0.304 1.088,-0.304 h 1.904 z"
         style=""
         id="path928" /><path
         d="m 55.095997,46.125992 v -1.392 h -0.672 q -0.464,0 -0.688,-0.24 -0.208,-0.256 -0.208,-0.704 v -4.384 h 1.568 v -1.248 h -1.568 v -2.464 h -1.632 v 2.464 h -0.928 v 1.248 h 0.928 v 4.464 q 0,0.432 0.128,0.848 0.144,0.4 0.416,0.72 0.272,0.304 0.688,0.496 0.416,0.192 0.992,0.192 z"
         style=""
         id="path930" /><path
         d="m 63.559965,42.541992 v -0.72 q 0,-0.864 -0.24,-1.584 -0.224,-0.72 -0.672,-1.232 -0.432,-0.512 -1.072,-0.8 -0.64,-0.288 -1.456,-0.288 -1.568,0 -2.512,1.088 -0.928,1.072 -0.928,3.056 0,1.152 0.288,1.952 0.288,0.8 0.768,1.296 0.496,0.48 1.152,0.704 0.672,0.208 1.44,0.208 0.528,0 0.944,-0.08 0.432,-0.08 0.784,-0.24 0.368,-0.16 0.672,-0.384 0.32,-0.24 0.64,-0.56 l -1.04,-0.976 q -0.432,0.432 -0.864,0.64 -0.416,0.192 -1.104,0.192 -1.008,0 -1.536,-0.608 -0.528,-0.608 -0.528,-1.664 z m -1.616,-1.136 h -3.648 q 0.016,-0.368 0.048,-0.592 0.032,-0.24 0.16,-0.512 0.192,-0.464 0.608,-0.736 0.432,-0.288 1.008,-0.288 0.576,0 0.992,0.288 0.416,0.272 0.608,0.736 0.128,0.272 0.16,0.512 0.048,0.224 0.064,0.592 z"
         style=""
         id="path932" /><path
         d="m 71.415958,38.685992 q -0.416,-0.416 -0.88,-0.592 -0.464,-0.176 -1.056,-0.176 -0.688,0 -1.264,0.272 -0.576,0.272 -0.896,0.704 v -0.88 h -1.6 v 8.112 h 1.632 v -4.928 q 0,-0.848 0.464,-1.328 0.48,-0.496 1.152,-0.496 0.416,0 0.672,0.144 0.272,0.128 0.544,0.4 z"
         style=""
         id="path934" /></g><path
       style="display:inline;fill:#f4da98;fill-opacity:1;stroke:none;stroke-width:0;stroke-miterlimit:4;stroke-dasharray:none;stroke-opacity:1"
       inkscape:transform-center-x="7.4234112"
       inkscape:transform-center-y="5.2919366"
       d="m 59.187404,410.07877 a 20.787404,20.787404 0 0 1 -20.7874,20.7874 20.787404,20.787404 0 0 1 -20.787404,-20.7874 20.787404,20.787404 0 0 1 20.787404,-20.78741 20.787404,20.787404 0 0 1 20.7874,20.78741 z"
       id="path4964-1"
       inkscape:connector-curvature="0" /><path
       style="display:inline;fill:#f4da98;fill-opacity:1;stroke:none;stroke-width:0;stroke-miterlimit:4;stroke-dasharray:none;stroke-opacity:1"
       inkscape:transform-center-x="7.4234112"
       inkscape:transform-center-y="5.2919366"
       d="m 59.187402,364.72443 a 20.787404,20.787404 0 0 1 -20.7874,20.78741 20.787404,20.787404 0 0 1 -20.7874,-20.78741 20.787404,20.787404 0 0 1 20.7874,-20.78742 20.787404,20.787404 0 0 1 20.7874,20.78742 z"
       id="path4964-2"
       inkscape:connector-curvature="0" /><path
       style="display:inline;fill:#f4da98;fill-opacity:1;stroke:none;stroke-width:0;stroke-miterlimit:4;stroke-dasharray:none;stroke-opacity:1"
       inkscape:transform-center-x="7.4234112"
       inkscape:transform-center-y="5.2919366"
       d="m 59.187407,319.3701 a 20.787404,20.787404 0 0 1 -20.78741,20.78741 20.787404,20.787404 0 0 1 -20.7874,-20.78741 20.787404,20.787404 0 0 1 20.7874,-20.78741 20.787404,20.787404 0 0 1 20.78741,20.78741 z"
       id="path4964-7"
       inkscape:connector-curvature="0" /><g
       aria-label="1"
       style="font-style:normal;font-variant:normal;font-weight:normal;font-stretch:normal;font-size:12px;line-height:100%;font-family:DIN;-inkscape-font-specification:DIN;text-align:center;letter-spacing:0px;word-spacing:0px;writing-mode:lr-tb;text-anchor:middle;fill:#f4da98;fill-opacity:1;stroke:none;stroke-width:1px;stroke-linecap:butt;stroke-linejoin:miter;stroke-opacity:1"
       id="text1079"
       transform="translate(1.0000003e-6,249.44883)"><path
         d="m 67.846006,74.193283 v -8.544 h -1.224 l -1.668,1.44 v 1.356 l 1.668,-1.464 v 7.212 z"
         id="path1177"
         inkscape:connector-curvature="0" /></g><g
       aria-label="2"
       style="font-style:normal;font-variant:normal;font-weight:normal;font-stretch:normal;font-size:12px;line-height:100%;font-family:DIN;-inkscape-font-specification:DIN;text-align:center;letter-spacing:0px;word-spacing:0px;writing-mode:lr-tb;text-anchor:middle;fill:#f4da98;fill-opacity:1;stroke:none;stroke-width:1px;stroke-linecap:butt;stroke-linejoin:miter;stroke-opacity:1"
       id="text1083"
       transform="translate(1.0000003e-6,249.44883)"><path
         d="m 68.884004,119.58361 v -1.092 h -3.48 l 2.676,-3.276 q 0.396,-0.48 0.6,-0.876 0.204,-0.408 0.204,-0.972 0,-0.552 -0.18,-0.996 -0.18,-0.444 -0.504,-0.756 -0.324,-0.312 -0.78,-0.48 -0.456,-0.168 -1.008,-0.168 -0.54,0 -0.996,0.18 -0.456,0.168 -0.792,0.48 -0.324,0.312 -0.516,0.768 -0.18,0.444 -0.18,0.984 h 1.224 q 0,-0.36 0.108,-0.612 0.108,-0.252 0.276,-0.408 0.18,-0.156 0.408,-0.228 0.228,-0.072 0.468,-0.072 0.6,0 0.924,0.36 0.324,0.36 0.324,0.936 0,0.324 -0.108,0.588 -0.108,0.252 -0.348,0.552 l -3.288,3.996 v 1.092 z"
         id="path1174"
         inkscape:connector-curvature="0" /></g><g
       aria-label="3"
       style="font-style:normal;font-variant:normal;font-weight:normal;font-stretch:normal;font-size:12px;line-height:100%;font-family:DIN;-inkscape-font-specification:DIN;text-align:center;letter-spacing:0px;word-spacing:0px;writing-mode:lr-tb;text-anchor:middle;fill:#f4da98;fill-opacity:1;stroke:none;stroke-width:1px;stroke-linecap:butt;stroke-linejoin:miter;stroke-opacity:1"
       id="text1087"
       transform="translate(1.0000003e-6,249.44883)"><path
         d="m 69.016006,162.50195 q 0,-0.792 -0.324,-1.284 -0.324,-0.492 -0.876,-0.732 0.504,-0.24 0.78,-0.684 0.288,-0.456 0.288,-1.14 0,-0.528 -0.192,-0.96 -0.18,-0.444 -0.516,-0.756 -0.324,-0.324 -0.78,-0.492 -0.456,-0.18 -0.996,-0.18 -0.516,0 -0.96,0.168 -0.444,0.156 -0.78,0.456 -0.336,0.3 -0.54,0.732 -0.204,0.432 -0.228,0.972 h 1.224 q 0.048,-0.576 0.384,-0.9 0.336,-0.324 0.9,-0.324 0.528,0 0.888,0.336 0.372,0.336 0.372,0.984 0,0.588 -0.312,0.948 -0.312,0.348 -0.984,0.348 h -0.204 v 1.068 h 0.204 q 0.72,0 1.068,0.384 0.36,0.372 0.36,1.02 0,0.684 -0.396,1.056 -0.396,0.36 -0.996,0.36 -0.264,0 -0.516,-0.072 -0.24,-0.072 -0.432,-0.228 -0.18,-0.168 -0.312,-0.408 -0.12,-0.24 -0.132,-0.588 h -1.224 q 0.012,0.624 0.228,1.08 0.228,0.456 0.588,0.756 0.36,0.288 0.816,0.432 0.468,0.132 0.984,0.132 0.54,0 1.008,-0.156 0.48,-0.156 0.828,-0.468 0.36,-0.312 0.564,-0.78 0.216,-0.468 0.216,-1.08 z"
         id="path1171"
         inkscape:connector-curvature="0" /></g><g
       aria-label="OUTS"
       style="font-style:normal;font-variant:normal;font-weight:normal;font-stretch:normal;font-size:3.17499995px;line-height:100%;font-family:DIN;-inkscape-font-specification:DIN;text-align:center;letter-spacing:0px;word-spacing:0px;writing-mode:lr-tb;text-anchor:middle;display:inline;fill:#f4da98;fill-opacity:1;stroke:none;stroke-width:0.26458332px;stroke-linecap:butt;stroke-linejoin:miter;stroke-opacity:1"
       id="text940"
       transform="matrix(3.7795278,0,0,3.7795278,94.372628,-470.87968)"><path
         d="m -16.920475,200.32084 q 0,-0.16192 -0.0032,-0.2921 -0.0032,-0.13335 -0.02223,-0.2413 -0.01905,-0.10795 -0.0635,-0.20002 -0.04445,-0.0921 -0.127,-0.17463 -0.117475,-0.11747 -0.2667,-0.1778 -0.149225,-0.0635 -0.3302,-0.0635 -0.180975,0 -0.3302,0.0635 -0.14605,0.0603 -0.263525,0.1778 -0.08255,0.0825 -0.127,0.17463 -0.04445,0.0921 -0.06668,0.20002 -0.01905,0.10795 -0.02222,0.2413 -0.0032,0.13018 -0.0032,0.2921 0,0.16193 0.0032,0.29528 0.0032,0.13017 0.02222,0.23812 0.02223,0.10795 0.06668,0.20003 0.04445,0.0921 0.127,0.17462 0.117475,0.11748 0.263525,0.18098 0.149225,0.0603 0.3302,0.0603 0.180975,0 0.3302,-0.0603 0.149225,-0.0635 0.2667,-0.18098 0.08255,-0.0825 0.127,-0.17462 0.04445,-0.0921 0.0635,-0.20003 0.01905,-0.10795 0.02223,-0.23812 0.0032,-0.13335 0.0032,-0.29528 z m -0.3429,0 q 0,0.17145 -0.0064,0.28575 -0.0032,0.11113 -0.01905,0.1905 -0.0127,0.0762 -0.04127,0.13018 -0.0254,0.0508 -0.06668,0.0952 -0.06032,0.0635 -0.149225,0.1016 -0.08573,0.0381 -0.187325,0.0381 -0.1016,0 -0.1905,-0.0381 -0.08573,-0.0381 -0.14605,-0.1016 -0.04127,-0.0444 -0.06985,-0.0952 -0.0254,-0.054 -0.04127,-0.13018 -0.0127,-0.0794 -0.01905,-0.1905 -0.0032,-0.1143 -0.0032,-0.28575 0,-0.17145 0.0032,-0.28257 0.0063,-0.1143 0.01905,-0.1905 0.01587,-0.0794 0.04127,-0.13018 0.02858,-0.054 0.06985,-0.0984 0.06033,-0.0635 0.14605,-0.1016 0.0889,-0.0381 0.1905,-0.0381 0.1016,0 0.187325,0.0381 0.0889,0.0381 0.149225,0.1016 0.04127,0.0445 0.06668,0.0984 0.02858,0.0508 0.04127,0.13018 0.01588,0.0762 0.01905,0.1905 0.0064,0.11112 0.0064,0.28257 z"
         style="fill:#f4da98;fill-opacity:1;stroke-width:0.26458332px"
         id="path942"
         inkscape:connector-curvature="0" /><path
         d="m -14.823437,200.68914 v -1.4986 h -0.3429 v 1.48273 q 0,0.2286 -0.130175,0.35877 -0.127,0.13018 -0.339725,0.13018 -0.212725,0 -0.339725,-0.13018 -0.127,-0.13017 -0.127,-0.35877 v -1.48273 h -0.3429 v 1.4986 q 0,0.17463 0.06033,0.32068 0.0635,0.14287 0.17145,0.24447 0.10795,0.1016 0.257175,0.15875 0.149225,0.0572 0.320675,0.0572 0.17145,0 0.320675,-0.0572 0.149225,-0.0572 0.257175,-0.15875 0.111125,-0.1016 0.17145,-0.24447 0.0635,-0.14605 0.0635,-0.32068 z"
         style="fill:#f4da98;fill-opacity:1;stroke-width:0.26458332px"
         id="path944"
         inkscape:connector-curvature="0" /><path
         d="m -12.877857,199.49852 v -0.30798 h -1.5875 v 0.30798 h 0.6223 v 1.95262 h 0.3429 v -1.95262 z"
         style="fill:#f4da98;fill-opacity:1;stroke-width:0.26458332px"
         id="path946"
         inkscape:connector-curvature="0" /><path
         d="m -11.072721,200.80662 q 0,-0.14605 -0.04763,-0.26353 -0.04445,-0.11747 -0.136525,-0.20002 -0.07302,-0.0635 -0.168275,-0.1016 -0.09525,-0.0413 -0.254,-0.0667 l -0.257175,-0.0381 q -0.1651,-0.0254 -0.254,-0.10477 -0.04445,-0.0413 -0.06667,-0.0921 -0.01905,-0.054 -0.01905,-0.11747 0,-0.1524 0.104775,-0.25083 0.10795,-0.1016 0.307975,-0.1016 0.142875,0 0.263525,0.0381 0.123825,0.0349 0.2286,0.13653 l 0.219075,-0.2159 q -0.14605,-0.13653 -0.31115,-0.19685 -0.1651,-0.0603 -0.390525,-0.0603 -0.1778,0 -0.3175,0.0476 -0.1397,0.0476 -0.238125,0.13652 -0.09525,0.0889 -0.149225,0.21273 -0.0508,0.12065 -0.0508,0.2667 0,0.27622 0.1651,0.4318 0.1524,0.14287 0.428625,0.18097 l 0.2667,0.0381 q 0.1016,0.0159 0.1524,0.0349 0.0508,0.019 0.09525,0.0603 0.0889,0.0794 0.0889,0.23495 0,0.1651 -0.123825,0.25718 -0.12065,0.0889 -0.3429,0.0889 -0.174625,0 -0.314325,-0.0444 -0.1397,-0.0476 -0.263525,-0.17145 l -0.2286,0.22542 q 0.161925,0.1651 0.352425,0.23178 0.1905,0.0667 0.447675,0.0667 0.1778,0 0.327025,-0.0445 0.149225,-0.0444 0.257175,-0.13017 0.10795,-0.0857 0.168275,-0.20955 0.06033,-0.12383 0.06033,-0.2794 z"
         style="fill:#f4da98;fill-opacity:1;stroke-width:0.26458332px"
         id="path948"
         inkscape:connector-curvature="0" /></g><g
       aria-label="INS"
       style="font-style:normal;font-variant:normal;font-weight:normal;font-stretch:normal;font-size:12px;line-height:100%;font-family:DIN;-inkscape-font-specification:DIN;text-align:center;letter-spacing:0px;word-spacing:0px;writing-mode:lr-tb;text-anchor:middle;fill:#f4da98;fill-opacity:1;stroke:none;stroke-width:1px;stroke-linecap:butt;stroke-linejoin:miter;stroke-opacity:1"
       id="text991"
       transform="translate(84.505104,-162.26335)"><path
         d="m -53.592166,226.29483 v -8.544 h -1.296 v 8.544 z"
         id="path993"
         inkscape:connector-curvature="0" /><path
         d="m -44.917103,226.29483 v -8.544 h -1.296 v 6 l -3.948,-6 h -1.188 v 8.544 h 1.296 v -6.012 l 3.948,6.012 z"
         id="path995"
         inkscape:connector-curvature="0" /><path
         d="m -37.337228,223.85883 q 0,-0.552 -0.18,-0.996 -0.168,-0.444 -0.516,-0.756 -0.276,-0.24 -0.636,-0.384 -0.36,-0.156 -0.96,-0.252 l -0.972,-0.144 q -0.624,-0.096 -0.96,-0.396 -0.168,-0.156 -0.252,-0.348 -0.072,-0.204 -0.072,-0.444 0,-0.576 0.396,-0.948 0.408,-0.384 1.164,-0.384 0.54,0 0.996,0.144 0.468,0.132 0.864,0.516 l 0.828,-0.816 q -0.552,-0.516 -1.176,-0.744 -0.624,-0.228 -1.476,-0.228 -0.672,0 -1.2,0.18 -0.528,0.18 -0.9,0.516 -0.36,0.336 -0.564,0.804 -0.192,0.456 -0.192,1.008 0,1.044 0.624,1.632 0.576,0.54 1.62,0.684 l 1.008,0.144 q 0.384,0.06 0.576,0.132 0.192,0.072 0.36,0.228 0.336,0.3 0.336,0.888 0,0.624 -0.468,0.972 -0.456,0.336 -1.296,0.336 -0.66,0 -1.188,-0.168 -0.528,-0.18 -0.996,-0.648 l -0.864,0.852 q 0.612,0.624 1.332,0.876 0.72,0.252 1.692,0.252 0.672,0 1.236,-0.168 0.564,-0.168 0.972,-0.492 0.408,-0.324 0.636,-0.792 0.228,-0.468 0.228,-1.056 z"
         id="path997"
         inkscape:connector-curvature="0" /></g><g
       aria-label="GEN ON OFF"
       transform="matrix(1.3333332,0,0,1.3333332,-27.78872,-488.04216)"
       style="font-style:normal;font-variant:normal;font-weight:normal;font-stretch:normal;font-size:9.00000095px;line-height:100%;font-family:DIN;-inkscape-font-specification:DIN;text-align:start;letter-spacing:0px;word-spacing:0px;writing-mode:lr-tb;text-anchor:start;display:inline;fill:#000000;fill-opacity:1;stroke:none;stroke-width:0.75000006px;stroke-linecap:butt;stroke-linejoin:miter;stroke-opacity:1"
       id="text1002"><path
         d="m 64.037551,545.84229 v -0.872 h -2.08 v 0.736 h 1.216 v 0.32 q 0,0.28 -0.064,0.496 -0.064,0.216 -0.224,0.4 -0.168,0.192 -0.408,0.296 -0.24,0.104 -0.52,0.104 -0.256,0 -0.472,-0.088 -0.216,-0.096 -0.368,-0.256 -0.104,-0.112 -0.176,-0.24 -0.064,-0.136 -0.104,-0.328 -0.032,-0.2 -0.048,-0.488 -0.016,-0.288 -0.016,-0.72 0,-0.432 0.016,-0.712 0.016,-0.288 0.048,-0.48 0.04,-0.2 0.104,-0.328 0.072,-0.136 0.176,-0.248 0.152,-0.16 0.368,-0.256 0.216,-0.096 0.472,-0.096 0.48,0 0.784,0.264 0.304,0.256 0.416,0.728 h 0.872 q -0.064,-0.368 -0.224,-0.688 -0.16,-0.32 -0.424,-0.56 -0.256,-0.24 -0.616,-0.376 -0.352,-0.144 -0.808,-0.144 -0.456,0 -0.832,0.16 -0.368,0.152 -0.664,0.448 -0.208,0.208 -0.32,0.44 -0.112001,0.232 -0.168001,0.504 -0.048,0.272 -0.056,0.608 -0.008,0.328 -0.008,0.736 0,0.408 0.008,0.744 0.008,0.328 0.056,0.6 0.056,0.272 0.168001,0.504 0.112,0.232 0.32,0.44 0.296,0.296 0.672,0.456 0.376,0.152 0.824,0.152 0.456,0 0.848,-0.152 0.392,-0.152 0.72,-0.496 0.28,-0.304 0.392,-0.68 0.12,-0.376 0.12,-0.928 z"
         style="font-size:8.00000095px;text-align:start;text-anchor:start;fill:#f4da98;fill-opacity:1;stroke-width:0.75000006px"
         id="path1016"
         inkscape:connector-curvature="0" /><path
         d="m 68.945051,548.05029 v -0.776 h -2.776 v -1.712 h 2.368 v -0.768 h -2.368 v -1.664 h 2.776 v -0.776 h -3.64 v 5.696 z"
         style="font-size:8.00000095px;text-align:start;text-anchor:start;fill:#f4da98;fill-opacity:1;stroke-width:0.75000006px"
         id="path1018"
         inkscape:connector-curvature="0" /><path
         d="m 74.421177,548.05029 v -5.696 h -0.864 v 4 l -2.632,-4 h -0.792001 v 5.696 h 0.864001 v -4.008 l 2.632,4.008 z"
         style="font-size:8.00000095px;text-align:start;text-anchor:start;fill:#f4da98;fill-opacity:1;stroke-width:0.75000006px"
         id="path1020"
         inkscape:connector-curvature="0" /><path
         d="m 64.005551,554.53563 q 0,-0.408 -0.008,-0.736 -0.008,-0.336 -0.056,-0.608 -0.048,-0.272 -0.16,-0.504 -0.112,-0.232 -0.32,-0.44 -0.296,-0.296 -0.672,-0.448 -0.376,-0.16 -0.832,-0.16 -0.456,0 -0.832,0.16 -0.368,0.152 -0.664,0.448 -0.208,0.208 -0.32,0.44 -0.112001,0.232 -0.168001,0.504 -0.048,0.272 -0.056,0.608 -0.008,0.328 -0.008,0.736 0,0.408 0.008,0.744 0.008,0.328 0.056,0.6 0.056,0.272 0.168001,0.504 0.112,0.232 0.32,0.44 0.296,0.296 0.664,0.456 0.376,0.152 0.832,0.152 0.456,0 0.832,-0.152 0.376,-0.16 0.672,-0.456 0.208,-0.208 0.32,-0.44 0.112,-0.232 0.16,-0.504 0.048,-0.272 0.056,-0.6 0.008,-0.336 0.008,-0.744 z m -0.864,0 q 0,0.432 -0.016,0.72 -0.008,0.28 -0.048,0.48 -0.032,0.192 -0.104,0.328 -0.064,0.128 -0.168,0.24 -0.152,0.16 -0.376,0.256 -0.216,0.096 -0.472,0.096 -0.256,0 -0.48,-0.096 -0.216,-0.096 -0.368,-0.256 -0.104,-0.112 -0.176,-0.24 -0.064,-0.136 -0.104,-0.328 -0.032,-0.2 -0.048,-0.48 -0.008,-0.288 -0.008,-0.72 0,-0.432 0.008,-0.712 0.016,-0.288 0.048,-0.48 0.04,-0.2 0.104,-0.328 0.072,-0.136 0.176,-0.248 0.152,-0.16 0.368,-0.256 0.224,-0.096 0.48,-0.096 0.256,0 0.472,0.096 0.224,0.096 0.376,0.256 0.104,0.112 0.168,0.248 0.072,0.128 0.104,0.328 0.04,0.192 0.048,0.48 0.016,0.28 0.016,0.712 z"
         style="font-size:8.00000095px;text-align:start;text-anchor:start;fill:#f4da98;fill-opacity:1;stroke-width:0.75000006px"
         id="path1022"
         inkscape:connector-curvature="0" /><path
         d="m 69.577426,557.38363 v -5.696 h -0.864 v 4 l -2.632,-4 h -0.792 v 5.696 h 0.864 v -4.008 l 2.632,4.008 z"
         style="font-size:8.00000095px;text-align:start;text-anchor:start;fill:#f4da98;fill-opacity:1;stroke-width:0.75000006px"
         id="path1024"
         inkscape:connector-curvature="0" /><path
         d="m 64.005551,563.86896 q 0,-0.408 -0.008,-0.736 -0.008,-0.336 -0.056,-0.608 -0.048,-0.272 -0.16,-0.504 -0.112,-0.232 -0.32,-0.44 -0.296,-0.296 -0.672,-0.448 -0.376,-0.16 -0.832,-0.16 -0.456,0 -0.832,0.16 -0.368,0.152 -0.664,0.448 -0.208,0.208 -0.32,0.44 -0.112001,0.232 -0.168001,0.504 -0.048,0.272 -0.056,0.608 -0.008,0.328 -0.008,0.736 0,0.408 0.008,0.744 0.008,0.328 0.056,0.6 0.056,0.272 0.168001,0.504 0.112,0.232 0.32,0.44 0.296,0.296 0.664,0.456 0.376,0.152 0.832,0.152 0.456,0 0.832,-0.152 0.376,-0.16 0.672,-0.456 0.208,-0.208 0.32,-0.44 0.112,-0.232 0.16,-0.504 0.048,-0.272 0.056,-0.6 0.008,-0.336 0.008,-0.744 z m -0.864,0 q 0,0.432 -0.016,0.72 -0.008,0.28 -0.048,0.48 -0.032,0.192 -0.104,0.328 -0.064,0.128 -0.168,0.24 -0.152,0.16 -0.376,0.256 -0.216,0.096 -0.472,0.096 -0.256,0 -0.48,-0.096 -0.216,-0.096 -0.368,-0.256 -0.104,-0.112 -0.176,-0.24 -0.064,-0.136 -0.104,-0.328 -0.032,-0.2 -0.048,-0.48 -0.008,-0.288 -0.008,-0.72 0,-0.432 0.008,-0.712 0.016,-0.288 0.048,-0.48 0.04,-0.2 0.104,-0.328 0.072,-0.136 0.176,-0.248 0.152,-0.16 0.368,-0.256 0.224,-0.096 0.48,-0.096 0.256,0 0.472,0.096 0.224,0.096 0.376,0.256 0.104,0.112 0.168,0.248 0.072,0.128 0.104,0.328 0.04,0.192 0.048,0.48 0.016,0.28 0.016,0.712 z"
         style="font-size:8.00000095px;text-align:start;text-anchor:start;fill:#f4da98;fill-opacity:1;stroke-width:0.75000006px"
         id="path1026"
         inkscape:connector-curvature="0" /><path
         d="m 68.929426,561.79696 v -0.776 h -3.64 v 5.696 h 0.864 v -2.408 h 2.368 v -0.776 h -2.368 v -1.736 z"
         style="font-size:8.00000095px;text-align:start;text-anchor:start;fill:#f4da98;fill-opacity:1;stroke-width:0.75000006px"
         id="path1028"
         inkscape:connector-curvature="0" /><path
         d="m 73.616927,561.79696 v -0.776 h -3.640001 v 5.696 h 0.864001 v -2.408 h 2.368 v -0.776 h -2.368 v -1.736 z"
         style="font-size:8.00000095px;text-align:start;text-anchor:start;fill:#f4da98;fill-opacity:1;stroke-width:0.75000006px"
         id="path1030"
         inkscape:connector-curvature="0" /></g><g
       aria-label="MODE"
       style="font-style:normal;font-variant:normal;font-weight:normal;font-stretch:normal;font-size:12px;line-height:100%;font-family:DIN;-inkscape-font-specification:DIN;text-align:center;letter-spacing:0px;word-spacing:0px;writing-mode:lr-tb;text-anchor:middle;fill:#f4da98;fill-opacity:1;stroke:none;stroke-width:1px;stroke-linecap:butt;stroke-linejoin:miter;stroke-opacity:1"
       id="text893"
       transform="translate(81.179338,-136.71123)"><path
         d="m -50.723336,365.30066 v -8.544 h -1.296 l -2.448,5.316 -2.496,-5.316 h -1.296 v 8.544 h 1.296 v -5.712 l 2.016,4.164 h 0.96 l 1.968,-4.164 v 5.712 z"
         id="path895"
         inkscape:connector-curvature="0" /><path
         d="m -42.677336,361.02866 q 0,-0.612 -0.012,-1.104 -0.012,-0.504 -0.084,-0.912 -0.072,-0.408 -0.24,-0.756 -0.168,-0.348 -0.48,-0.66 -0.444,-0.444 -1.008,-0.672 -0.564,-0.24 -1.248,-0.24 -0.684,0 -1.248,0.24 -0.552,0.228 -0.996,0.672 -0.312,0.312 -0.48,0.66 -0.168,0.348 -0.252,0.756 -0.072,0.408 -0.084,0.912 -0.012,0.492 -0.012,1.104 0,0.612 0.012,1.116 0.012,0.492 0.084,0.9 0.084,0.408 0.252,0.756 0.168,0.348 0.48,0.66 0.444,0.444 0.996,0.684 0.564,0.228 1.248,0.228 0.684,0 1.248,-0.228 0.564,-0.24 1.008,-0.684 0.312,-0.312 0.48,-0.66 0.168,-0.348 0.24,-0.756 0.072,-0.408 0.084,-0.9 0.012,-0.504 0.012,-1.116 z m -1.296,0 q 0,0.648 -0.024,1.08 -0.012,0.42 -0.072,0.72 -0.048,0.288 -0.156,0.492 -0.096,0.192 -0.252,0.36 -0.228,0.24 -0.564,0.384 -0.324,0.144 -0.708,0.144 -0.384,0 -0.72,-0.144 -0.324,-0.144 -0.552,-0.384 -0.156,-0.168 -0.264,-0.36 -0.096,-0.204 -0.156,-0.492 -0.048,-0.3 -0.072,-0.72 -0.012,-0.432 -0.012,-1.08 0,-0.648 0.012,-1.068 0.024,-0.432 0.072,-0.72 0.06,-0.3 0.156,-0.492 0.108,-0.204 0.264,-0.372 0.228,-0.24 0.552,-0.384 0.336,-0.144 0.72,-0.144 0.384,0 0.708,0.144 0.336,0.144 0.564,0.384 0.156,0.168 0.252,0.372 0.108,0.192 0.156,0.492 0.06,0.288 0.072,0.72 0.024,0.42 0.024,1.068 z"
         id="path897"
         inkscape:connector-curvature="0" /><path
         d="m -34.679523,360.96866 q 0,-0.468 -0.012,-0.924 0,-0.456 -0.072,-0.888 -0.072,-0.444 -0.252,-0.84 -0.18,-0.408 -0.528,-0.756 -0.408,-0.408 -0.972,-0.6 -0.564,-0.204 -1.236,-0.204 h -3 v 8.544 h 3 q 0.672,0 1.236,-0.192 0.564,-0.204 0.972,-0.612 0.348,-0.348 0.528,-0.768 0.18,-0.42 0.252,-0.876 0.072,-0.456 0.072,-0.936 0.012,-0.48 0.012,-0.948 z m -1.296,0 q 0,0.888 -0.06,1.56 -0.06,0.66 -0.396,1.032 -0.528,0.576 -1.452,0.576 h -1.572 v -6.216 h 1.572 q 0.924,0 1.452,0.576 0.336,0.372 0.396,0.984 0.06,0.6 0.06,1.488 z"
         id="path899"
         inkscape:connector-curvature="0" /><path
         d="m -27.299336,365.30066 v -1.164 h -4.164 v -2.568 h 3.552 v -1.152 h -3.552 v -2.496 h 4.164 v -1.164 h -5.46 v 8.544 z"
         id="path901"
         inkscape:connector-curvature="0" /></g><g
       aria-label="1"
       style="font-style:normal;font-variant:normal;font-weight:normal;font-stretch:normal;font-size:12px;line-height:100%;font-family:DIN;-inkscape-font-specification:DIN;text-align:center;letter-spacing:0px;word-spacing:0px;writing-mode:lr-tb;text-anchor:middle;display:inline;fill:#f4da98;fill-opacity:1;stroke:none;stroke-width:1px;stroke-linecap:butt;stroke-linejoin:miter;stroke-opacity:1"
       id="text1079-3"
       transform="translate(-7.9153825e-6,22.67714)"><path
         d="m 67.846006,74.193283 v -8.544 h -1.224 l -1.668,1.44 v 1.356 l 1.668,-1.464 v 7.212 z"
         id="path1177-5"
         inkscape:connector-curvature="0" /></g><g
       aria-label="2"
       style="font-style:normal;font-variant:normal;font-weight:normal;font-stretch:normal;font-size:12px;line-height:100%;font-family:DIN;-inkscape-font-specification:DIN;text-align:center;letter-spacing:0px;word-spacing:0px;writing-mode:lr-tb;text-anchor:middle;display:inline;fill:#f4da98;fill-opacity:1;stroke:none;stroke-width:1px;stroke-linecap:butt;stroke-linejoin:miter;stroke-opacity:1"
       id="text1083-6"
       transform="translate(-7.9153825e-6,22.67714)"><path
         d="m 68.884004,119.58361 v -1.092 h -3.48 l 2.676,-3.276 q 0.396,-0.48 0.6,-0.876 0.204,-0.408 0.204,-0.972 0,-0.552 -0.18,-0.996 -0.18,-0.444 -0.504,-0.756 -0.324,-0.312 -0.78,-0.48 -0.456,-0.168 -1.008,-0.168 -0.54,0 -0.996,0.18 -0.456,0.168 -0.792,0.48 -0.324,0.312 -0.516,0.768 -0.18,0.444 -0.18,0.984 h 1.224 q 0,-0.36 0.108,-0.612 0.108,-0.252 0.276,-0.408 0.18,-0.156 0.408,-0.228 0.228,-0.072 0.468,-0.072 0.6,0 0.924,0.36 0.324,0.36 0.324,0.936 0,0.324 -0.108,0.588 -0.108,0.252 -0.348,0.552 l -3.288,3.996 v 1.092 z"
         id="path1174-2"
         inkscape:connector-curvature="0" /></g><g
       aria-label="3"
       style="font-style:normal;font-variant:normal;font-weight:normal;font-stretch:normal;font-size:12px;line-height:100%;font-family:DIN;-inkscape-font-specification:DIN;text-align:center;letter-spacing:0px;word-spacing:0px;writing-mode:lr-tb;text-anchor:middle;display:inline;fill:#f4da98;fill-opacity:1;stroke:none;stroke-width:1px;stroke-linecap:butt;stroke-linejoin:miter;stroke-opacity:1"
       id="text1087-9"
       transform="translate(-7.9153825e-6,22.67714)"><path
         d="m 69.016006,162.50195 q 0,-0.792 -0.324,-1.284 -0.324,-0.492 -0.876,-0.732 0.504,-0.24 0.78,-0.684 0.288,-0.456 0.288,-1.14 0,-0.528 -0.192,-0.96 -0.18,-0.444 -0.516,-0.756 -0.324,-0.324 -0.78,-0.492 -0.456,-0.18 -0.996,-0.18 -0.516,0 -0.96,0.168 -0.444,0.156 -0.78,0.456 -0.336,0.3 -0.54,0.732 -0.204,0.432 -0.228,0.972 h 1.224 q 0.048,-0.576 0.384,-0.9 0.336,-0.324 0.9,-0.324 0.528,0 0.888,0.336 0.372,0.336 0.372,0.984 0,0.588 -0.312,0.948 -0.312,0.348 -0.984,0.348 h -0.204 v 1.068 h 0.204 q 0.72,0 1.068,0.384 0.36,0.372 0.36,1.02 0,0.684 -0.396,1.056 -0.396,0.36 -0.996,0.36 -0.264,0 -0.516,-0.072 -0.24,-0.072 -0.432,-0.228 -0.18,-0.168 -0.312,-0.408 -0.12,-0.24 -0.132,-0.588 h -1.224 q 0.012,0.624 0.228,1.08 0.228,0.456 0.588,0.756 0.36,0.288 0.816,0.432 0.468,0.132 0.984,0.132 0.54,0 1.008,-0.156 0.48,-0.156 0.828,-0.468 0.36,-0.312 0.564,-0.78 0.216,-0.468 0.216,-1.08 z"
         id="path1171-1"
         inkscape:connector-curvature="0" /></g><g
       transform="matrix(1.3333334,0,0,-1.3333334,-98.36221,557.8583)"
       inkscape:label="aw_sideall"
       id="g891"
       style="display:inline;fill:#f4da98;fill-opacity:1"><g
         id="g893"
         style="fill:#f4da98;fill-opacity:1"><g
           clip-path="url(#clipPath899)"
           id="g895"
           style="fill:#f4da98;fill-opacity:1"><g
             transform="translate(105.62535,67.213925)"
             id="g3796"
             style="display:inline;fill:#f4da98;fill-opacity:1;stroke:none"><path
               inkscape:connector-curvature="0"
               id="path3798"
               style="fill:#f4da98;fill-opacity:1;fill-rule:nonzero;stroke:none"
               d="M 0,0 C 0,1.873 0.16,3.703 0.479,5.492 -1.353,5.898 -2.27,6.65 -2.27,7.76 c 0,0.873 0.492,1.306 1.47,1.306 0.513,0 1.141,-0.242 1.885,-0.734 1.445,5.092 3.802,9.383 7.06,12.887 -0.702,0.105 -1.413,0.178 -2.143,0.178 -7.952,0 -14.399,-6.448 -14.399,-14.401 0,-6.057 3.745,-11.232 9.043,-13.357 C 0.223,-4.273 0,-2.152 0,0" /></g><g
             transform="translate(107.98854,74.653305)"
             id="g3800"
             style="display:inline;fill:#f4da98;fill-opacity:1;stroke:none"><path
               inkscape:connector-curvature="0"
               id="path3802"
               style="fill:#f4da98;fill-opacity:1;fill-rule:nonzero;stroke:none"
               d="m 0,0 c 0.275,-0.191 0.487,-0.359 0.638,-0.51 1.575,0.362 3.15,1.287 4.725,2.778 1.319,1.279 2.448,2.757 3.385,4.439 1.193,2.109 1.756,3.885 1.693,5.332 h 0.357 C 9.394,12.846 7.845,13.422 6.194,13.717 L 7.025,12.936 C 3.638,9.379 1.297,5.068 0,0" /></g><g
             transform="translate(119.87826,86.001025)"
             id="g3804"
             style="display:inline;fill:#f4da98;fill-opacity:1;stroke:none"><path
               inkscape:connector-curvature="0"
               id="path3806"
               style="fill:#f4da98;fill-opacity:1;fill-rule:nonzero;stroke:none"
               d="m 0,0 c -0.115,-1.566 -0.734,-3.357 -1.863,-5.375 -0.96,-1.703 -2.098,-3.213 -3.416,-4.535 -1.535,-1.488 -3.111,-2.524 -4.726,-3.098 2.51,-2.765 3.947,-5.92 4.31,-9.451 0.934,0.619 1.937,1.172 3,1.66 l 0.606,-1.342 c -1.765,-0.808 -3.393,-1.837 -4.885,-3.093 l -0.956,1.119 0.828,0.666 c -0.147,3.98 -1.681,7.322 -4.597,10.025 l -0.638,-0.031 c -0.3,-1.787 -0.45,-3.567 -0.45,-5.332 0,-2.432 0.27,-4.731 0.798,-6.895 1.194,-0.322 2.443,-0.508 3.738,-0.508 7.953,0 14.4,6.446 14.4,14.399 C 6.149,-6.91 3.715,-2.604 0,0" /></g></g></g></g></g></svg>