<?xml version="1.0" encoding="UTF-8" standalone="no"?>
<!-- Created with Inkscape (http://www.inkscape.org/) -->

<svg
   xmlns:dc="http://purl.org/dc/elements/1.1/"
   xmlns:cc="http://creativecommons.org/ns#"
   xmlns:rdf="http://www.w3.org/1999/02/22-rdf-syntax-ns#"
   xmlns:svg="http://www.w3.org/2000/svg"
   xmlns="http://www.w3.org/2000/svg"
   xmlns:xlink="http://www.w3.org/1999/xlink"
   xmlns:sodipodi="http://sodipodi.sourceforge.net/DTD/sodipodi-0.dtd"
   xmlns:inkscape="http://www.inkscape.org/namespaces/inkscape"
   width="20.32mm"
   height="128.5mm"
   viewBox="0 0 20.32 128.5"
   version="1.1"
   id="svg8"
   inkscape:version="0.92.5 (2060ec1f9f, 2020-04-08)"
   sodipodi:docname="MIDI_Output.svg">
  <defs
     id="defs2">
    <linearGradient
       inkscape:collect="always"
       xlink:href="#linearGradient1109"
       id="linearGradient4954"
       gradientUnits="userSpaceOnUse"
       x1="110.74702"
       y1="130.87947"
       x2="111.50298"
       y2="242.57143"
       gradientTransform="matrix(0.44393752,0,0,0.99973639,-37.472256,-125.49796)" />
    <linearGradient
       inkscape:collect="always"
       id="linearGradient1109">
      <stop
         style="stop-color:#333131;stop-opacity:1"
         offset="0"
         id="stop1105" />
      <stop
         style="stop-color:#292727;stop-opacity:1"
         offset="1"
         id="stop1107" />
    </linearGradient>
    <clipPath
       id="clipPath875"
       clipPathUnits="userSpaceOnUse">
      <path
         inkscape:connector-curvature="0"
         id="path873"
         d="M 0,472.252 H 165.6 V 0 H 0 Z" />
    </clipPath>
  </defs>
  <sodipodi:namedview
     id="base"
     pagecolor="#ffffff"
     bordercolor="#666666"
     borderopacity="1.0"
     inkscape:pageopacity="0.0"
     inkscape:pageshadow="2"
     inkscape:zoom="2.8"
     inkscape:cx="-10.070156"
     inkscape:cy="40.518283"
     inkscape:document-units="mm"
     inkscape:current-layer="layer1"
     showgrid="false"
     showguides="true"
     inkscape:guide-bbox="true"
     inkscape:window-width="1920"
     inkscape:window-height="1033"
     inkscape:window-x="0"
     inkscape:window-y="0"
     inkscape:window-maximized="1"
     inkscape:snap-object-midpoints="true"
     inkscape:snap-text-baseline="true"
     inkscape:snap-bbox="true"
     inkscape:snap-bbox-midpoints="true"
     inkscape:snap-bbox-edge-midpoints="true">
    <sodipodi:guide
       position="10.16,105.26637"
       orientation="1,0"
       id="guide831"
       inkscape:locked="false"
       inkscape:label=""
       inkscape:color="rgb(0,0,255)" />
    <sodipodi:guide
       position="-15.497023,120"
       orientation="0,1"
       id="guide833"
       inkscape:locked="false"
       inkscape:label=""
       inkscape:color="rgb(0,0,255)" />
    <sodipodi:guide
       position="-25.702381,14.000001"
       orientation="0,1"
       id="guide940"
       inkscape:locked="false"
       inkscape:label=""
       inkscape:color="rgb(0,0,255)" />
  </sodipodi:namedview>
  <metadata
     id="metadata5">
    <rdf:RDF>
      <cc:Work
         rdf:about="">
        <dc:format>image/svg+xml</dc:format>
        <dc:type
           rdf:resource="http://purl.org/dc/dcmitype/StillImage" />
        <dc:title />
      </cc:Work>
    </rdf:RDF>
  </metadata>
  <g
     inkscape:groupmode="layer"
     id="layer2"
     inkscape:label="BG">
    <path
       inkscape:connector-curvature="0"
       id="path1099"
       d="M 5e-7,-9.5e-6 H 20.320001 V 128.5 H 5e-7 Z"
       style="display:inline;fill:url(#linearGradient4954);fill-opacity:1;stroke:#6e6e6e;stroke-width:0;stroke-miterlimit:4;stroke-dasharray:none;stroke-opacity:1" />
  </g>
  <g
     inkscape:groupmode="layer"
     id="layer3"
     inkscape:label="Layer 2"
     style="display:inline">
    <g
       transform="matrix(0.35277777,0,0,-0.35277777,-19.1,147.60002)"
       inkscape:label="aw_sideall"
       id="g867"
       style="fill:#f4da98;fill-opacity:1">
      <g
         id="g869"
         style="fill:#f4da98;fill-opacity:1">
        <g
           clip-path="url(#clipPath875)"
           id="g871"
           style="fill:#f4da98;fill-opacity:1">
          <g
             transform="translate(73.2541,393.8872)"
             id="g877"
             style="fill:#f4da98;fill-opacity:1">
            <path
               inkscape:connector-curvature="0"
               id="path879"
               style="fill:#f4da98;fill-opacity:1;fill-rule:nonzero;stroke:none"
               d="m 0,0 h -0.11 c -0.285,0.036 -0.489,0.182 -0.611,0.439 -0.025,0.065 -0.042,0.127 -0.047,0.187 -0.004,0.06 0,0.12 0.015,0.182 l 0.266,0.976 c 0.222,0.904 0.466,1.671 0.732,2.303 0.111,0.251 0.22,0.505 0.325,0.761 0.254,0.605 0.52,1.203 0.795,1.797 L 1.424,6.79 C 1.462,6.881 1.507,6.966 1.557,7.047 1.606,7.129 1.676,7.197 1.765,7.251 1.79,7.267 1.81,7.289 1.824,7.317 1.838,7.345 1.85,7.371 1.857,7.396 1.865,7.419 1.871,7.441 1.877,7.462 1.991,7.687 2.164,7.809 2.397,7.829 2.769,7.861 3.021,7.723 3.156,7.414 3.238,7.233 3.288,7.05 3.305,6.864 3.31,6.195 3.272,5.506 3.193,4.797 3.346,4.904 3.441,5.029 3.482,5.173 3.623,5.48 3.792,5.77 3.988,6.041 4.09,6.184 4.183,6.326 4.268,6.467 4.352,6.608 4.445,6.74 4.549,6.863 4.713,7.051 4.846,7.26 4.946,7.489 5.014,7.629 5.109,7.755 5.233,7.866 5.388,8.02 5.524,8.186 5.643,8.364 5.713,8.477 5.79,8.587 5.875,8.695 5.924,8.746 5.969,8.801 6.011,8.857 6.167,9.059 6.338,9.25 6.522,9.435 6.677,9.582 6.837,9.663 7.003,9.677 7.036,9.68 7.111,9.679 7.229,9.672 7.347,9.666 7.48,9.579 7.629,9.411 7.719,9.298 7.77,9.179 7.78,9.053 7.787,8.98 7.777,8.902 7.751,8.819 L 7.593,8.223 C 7.487,7.739 7.344,7.271 7.162,6.82 6.972,6.329 6.818,5.828 6.702,5.319 6.586,4.811 6.455,4.356 6.309,3.956 6.265,3.851 6.225,3.743 6.187,3.633 L 6.15,3.479 C 6.062,3.117 5.971,2.577 5.881,1.86 5.894,1.714 5.887,1.573 5.862,1.437 5.837,1.301 5.756,1.183 5.616,1.083 5.522,1.022 5.425,0.986 5.325,0.978 5.266,0.973 5.181,0.982 5.071,1.006 4.962,1.03 4.866,1.132 4.783,1.312 L 4.739,1.369 C 4.648,1.481 4.593,1.667 4.569,1.926 4.543,2.238 4.61,2.639 4.775,3.128 l 0.1,0.351 C 4.89,3.546 4.907,3.611 4.929,3.674 4.974,3.845 5.009,4.019 5.033,4.195 5.055,4.484 5.131,4.762 5.262,5.028 5.335,5.181 5.384,5.35 5.408,5.533 L 5.457,5.778 C 5.013,5.277 4.645,4.736 4.354,4.155 4.258,3.966 4.156,3.783 4.051,3.607 L 3.869,3.27 C 3.752,3.012 3.602,2.778 3.419,2.567 3.221,2.383 3.025,2.282 2.833,2.266 2.614,2.246 2.396,2.332 2.179,2.52 2.092,2.592 2.034,2.681 2.005,2.786 1.997,2.878 1.979,2.969 1.951,3.057 1.923,3.145 1.905,3.235 1.896,3.328 1.889,3.421 1.891,3.517 1.902,3.615 1.913,3.713 1.912,3.842 1.898,4 1.889,4.04 1.881,4.083 1.877,4.13 1.868,4.229 1.872,4.333 1.89,4.442 1.817,4.429 1.776,4.398 1.768,4.351 1.715,4.111 1.631,3.884 1.516,3.667 1.419,3.477 1.341,3.278 1.282,3.068 1.224,2.859 1.152,2.627 1.067,2.372 0.961,2.055 0.829,1.615 0.671,1.052 0.63,0.901 0.532,0.649 0.375,0.294 0.305,0.114 0.18,0.016 0,0" />
          </g>
          <g
             transform="translate(80.8127,395.3823)"
             id="g881"
             style="fill:#f4da98;fill-opacity:1">
            <path
               inkscape:connector-curvature="0"
               id="path883"
               style="fill:#f4da98;fill-opacity:1;fill-rule:nonzero;stroke:none"
               d="m 0,0 c -0.061,-0.005 -0.146,0.01 -0.261,0.047 -0.113,0.037 -0.209,0.156 -0.287,0.356 -0.017,0.052 -0.029,0.105 -0.033,0.158 -0.009,0.093 0.007,0.188 0.045,0.285 0.082,0.215 0.119,0.432 0.113,0.653 0.018,0.262 0.075,0.521 0.173,0.778 0.102,0.37 0.162,0.743 0.184,1.119 0.034,0.365 0.078,0.633 0.129,0.805 0.042,0.131 0.075,0.264 0.096,0.4 C 0.222,5.182 0.374,5.737 0.616,6.267 0.708,6.509 0.881,6.642 1.133,6.664 1.312,6.68 1.477,6.637 1.626,6.537 1.74,6.459 1.803,6.347 1.815,6.202 1.821,6.135 1.814,6.058 1.796,5.969 1.512,4.94 1.329,4.201 1.247,3.752 1.191,3.467 1.127,3.184 1.051,2.902 0.939,2.498 0.881,2.084 0.879,1.663 0.875,1.542 0.852,1.43 0.808,1.325 0.734,1.158 0.7,0.988 0.702,0.814 0.68,0.524 0.552,0.302 0.317,0.148 0.212,0.058 0.105,0.009 0,0" />
          </g>
          <g
             transform="translate(83.9309,397.4814)"
             id="g885"
             style="fill:#f4da98;fill-opacity:1">
            <path
               inkscape:connector-curvature="0"
               id="path887"
               style="fill:#f4da98;fill-opacity:1;fill-rule:nonzero;stroke:none"
               d="m 0,0 c 0.047,0.004 0.085,0.024 0.115,0.061 0.209,0.206 0.543,0.522 1.001,0.95 L 1.31,1.209 c 0.09,0.108 0.189,0.204 0.296,0.287 0.174,0.142 0.331,0.3 0.47,0.473 0.073,0.086 0.15,0.17 0.23,0.251 C 2.416,2.33 2.468,2.428 2.46,2.515 2.454,2.587 2.41,2.67 2.328,2.764 1.699,3.452 1.258,3.868 1.005,4.013 0.935,4.047 0.867,4.084 0.804,4.126 L 0.815,3.997 C 0.827,3.857 0.815,3.759 0.78,3.702 0.683,3.586 0.637,3.435 0.64,3.249 0.563,2.66 0.43,2.082 0.239,1.517 0.18,1.351 0.147,1.181 0.143,1.007 0.148,0.867 0.117,0.733 0.048,0.607 -0.038,0.432 -0.07,0.232 -0.051,0.006 Z m -1.334,-2.998 c -0.126,-0.01 -0.254,0.032 -0.383,0.128 -0.15,0.12 -0.235,0.29 -0.255,0.509 -0.008,0.107 0.012,0.209 0.064,0.307 0.162,0.289 0.26,0.592 0.292,0.909 0.024,0.176 0.061,0.347 0.11,0.511 0.05,0.166 0.091,0.33 0.123,0.493 0.038,0.251 0.108,0.492 0.208,0.721 0.027,0.076 0.036,0.157 0.029,0.243 -0.01,0.12 0.009,0.232 0.061,0.337 0.138,0.26 0.207,0.54 0.207,0.841 0.014,0.155 0.057,0.31 0.13,0.463 0.055,0.146 0.092,0.293 0.112,0.442 0.031,0.19 0.091,0.376 0.183,0.558 0.011,0.021 0.018,0.048 0.022,0.082 0.004,0.034 0.019,0.062 0.043,0.084 0.025,0.022 0.035,0.051 0.033,0.083 L -0.39,3.881 c -0.011,0.14 0.031,0.27 0.126,0.393 0.096,0.122 0.231,0.191 0.404,0.206 0.027,0.002 0.051,0.006 0.074,0.011 0.023,0.006 0.047,0.026 0.07,0.061 C 0.236,4.568 0.19,4.591 0.147,4.621 0.057,4.673 -0.038,4.715 -0.134,4.747 -0.155,4.751 -0.189,4.767 -0.238,4.792 -0.288,4.819 -0.346,4.85 -0.412,4.888 -0.479,4.925 -0.541,4.962 -0.598,4.997 l -0.177,0.085 c -0.261,0.151 -0.402,0.339 -0.421,0.565 -0.015,0.16 0.03,0.334 0.134,0.524 0.071,0.107 0.176,0.166 0.316,0.179 0.1,0.008 0.195,-0.01 0.285,-0.056 C -0.271,6.197 -0.079,6.103 0.116,6.013 0.388,5.896 0.65,5.765 0.903,5.62 1.278,5.385 1.637,5.126 1.976,4.841 L 2.515,4.417 C 2.952,4.073 3.305,3.645 3.57,3.133 3.628,3.011 3.663,2.883 3.675,2.751 3.685,2.631 3.675,2.51 3.646,2.387 3.574,1.985 3.426,1.635 3.201,1.334 2.977,1.033 2.721,0.753 2.437,0.495 2.331,0.392 2.219,0.298 2.1,0.214 1.904,0.07 1.729,-0.1 1.571,-0.294 1.506,-0.38 1.425,-0.451 1.329,-0.506 1.188,-0.585 1.031,-0.729 0.855,-0.939 0.724,-1.118 0.563,-1.269 0.373,-1.393 0.297,-1.439 0.237,-1.508 0.195,-1.599 0.153,-1.689 0.067,-1.794 -0.063,-1.913 -0.357,-2.22 -0.656,-2.516 -0.96,-2.804 -1.083,-2.922 -1.208,-2.986 -1.334,-2.998" />
          </g>
          <g
             transform="translate(87.6154,395.9775)"
             id="g889"
             style="fill:#f4da98;fill-opacity:1">
            <path
               inkscape:connector-curvature="0"
               id="path891"
               style="fill:#f4da98;fill-opacity:1;fill-rule:nonzero;stroke:none"
               d="m 0,0 c -0.059,-0.005 -0.146,0.01 -0.26,0.047 -0.113,0.037 -0.209,0.156 -0.287,0.356 -0.017,0.053 -0.029,0.105 -0.033,0.158 -0.009,0.093 0.006,0.188 0.045,0.285 0.081,0.215 0.119,0.432 0.113,0.653 0.018,0.262 0.075,0.521 0.173,0.778 0.102,0.37 0.162,0.743 0.184,1.119 0.034,0.365 0.078,0.633 0.129,0.805 0.042,0.131 0.075,0.264 0.096,0.4 C 0.223,5.182 0.375,5.737 0.616,6.267 0.709,6.509 0.882,6.642 1.134,6.664 1.313,6.68 1.478,6.637 1.627,6.537 1.741,6.459 1.804,6.347 1.816,6.202 1.822,6.135 1.816,6.058 1.797,5.969 1.512,4.94 1.329,4.202 1.248,3.752 1.193,3.467 1.128,3.184 1.052,2.902 0.939,2.498 0.882,2.084 0.879,1.663 0.876,1.542 0.853,1.43 0.808,1.325 0.735,1.158 0.7,0.988 0.702,0.814 0.681,0.524 0.553,0.302 0.318,0.148 0.213,0.058 0.107,0.009 0,0" />
          </g>
          <g
             transform="translate(71.8401,388.1323)"
             id="g893"
             style="fill:#f4da98;fill-opacity:1">
            <path
               inkscape:connector-curvature="0"
               id="path895"
               style="fill:#f4da98;fill-opacity:1;fill-rule:nonzero;stroke:none"
               d="m 0,0 0.009,0.011 c 0.062,0.051 0.117,0.104 0.162,0.155 0.047,0.05 0.072,0.109 0.08,0.177 0.037,0.191 0.102,0.374 0.192,0.549 0.064,0.119 0.116,0.242 0.155,0.369 0.039,0.128 0.079,0.254 0.123,0.378 0.112,0.318 0.166,0.5 0.162,0.546 C 0.874,2.292 0.796,2.378 0.649,2.446 0.579,2.48 0.515,2.495 0.455,2.489 0.375,2.482 0.304,2.436 0.241,2.35 0.178,2.264 0.118,2.172 0.06,2.073 -0.016,1.939 -0.095,1.812 -0.178,1.691 -0.319,1.471 -0.38,1.245 -0.359,1.013 -0.35,0.906 -0.324,0.801 -0.281,0.698 -0.234,0.542 -0.174,0.387 -0.101,0.232 Z m 0.156,-1.903 c -0.012,-0.002 -0.071,-0.005 -0.174,-0.011 -0.103,-0.005 -0.235,0.065 -0.395,0.212 -0.279,0.283 -0.499,0.608 -0.657,0.976 -0.274,0.524 -0.463,1.08 -0.569,1.666 -0.003,0.04 -0.008,0.077 -0.018,0.11 l -0.009,0.099 c -0.018,0.206 0.036,0.391 0.162,0.556 0.109,0.117 0.16,0.232 0.15,0.345 l -0.002,0.03 c -10e-4,0.087 0.026,0.163 0.081,0.228 l 0.185,0.277 c 0.163,0.288 0.375,0.538 0.638,0.748 0.069,0.053 0.127,0.118 0.174,0.196 0.036,0.05 0.078,0.097 0.128,0.142 0.196,0.204 0.383,0.314 0.563,0.33 C 0.565,4.015 0.749,3.954 0.961,3.818 1.375,3.6 1.72,3.296 1.995,2.905 2.07,2.798 2.117,2.681 2.136,2.556 2.178,2.071 2.108,1.603 1.927,1.152 L 1.7,0.651 C 1.491,0.204 1.348,-0.143 1.269,-0.391 1.23,-0.568 1.161,-0.731 1.061,-0.881 1.05,-0.902 1.039,-0.923 1.031,-0.944 1.023,-0.965 1.01,-0.986 0.992,-1.008 0.807,-1.191 0.658,-1.405 0.546,-1.648 0.459,-1.804 0.329,-1.888 0.156,-1.903" />
          </g>
          <g
             transform="translate(76.9006,386.166)"
             id="g897"
             style="fill:#f4da98;fill-opacity:1">
            <path
               inkscape:connector-curvature="0"
               id="path899"
               style="fill:#f4da98;fill-opacity:1;fill-rule:nonzero;stroke:none"
               d="m 0,0 c -0.192,-0.017 -0.36,0.065 -0.503,0.247 -0.091,0.112 -0.142,0.242 -0.155,0.388 -0.008,0.099 0,0.231 0.026,0.393 0.028,0.217 0.047,0.457 0.058,0.719 C -0.701,1.675 -0.785,1.588 -0.822,1.484 -1.031,1.118 -1.323,0.861 -1.698,0.715 L -1.756,0.689 C -1.822,0.67 -1.876,0.639 -1.919,0.595 -2.042,0.464 -2.155,0.393 -2.262,0.384 -2.349,0.376 -2.48,0.396 -2.658,0.44 c -0.103,0.024 -0.195,0.073 -0.274,0.146 -0.226,0.208 -0.352,0.461 -0.379,0.761 -0.008,0.106 -0.007,0.213 0.003,0.32 0.11,0.666 0.252,1.318 0.431,1.956 0.178,0.504 0.314,1.042 0.411,1.612 0.043,0.205 0.153,0.358 0.331,0.461 0.141,0.078 0.271,0.124 0.391,0.134 0.185,0.016 0.332,-0.054 0.439,-0.212 C -1.243,5.529 -1.208,5.432 -1.198,5.326 -1.194,5.279 -1.197,5.229 -1.205,5.175 -1.24,4.884 -1.296,4.595 -1.371,4.307 -1.531,3.617 -1.726,2.941 -1.956,2.278 -1.971,2.223 -1.977,2.176 -1.974,2.136 -1.97,2.096 -1.95,2.051 -1.911,2.001 c 0.037,-0.05 0.102,-0.072 0.195,-0.064 0.04,0.004 0.07,0.02 0.087,0.048 0.12,0.312 0.27,0.59 0.449,0.833 0.114,0.157 0.239,0.37 0.375,0.64 0.138,0.27 0.245,0.496 0.323,0.68 0.078,0.185 0.179,0.509 0.305,0.976 0.146,0.488 0.252,0.832 0.323,1.032 C 0.208,6.271 0.278,6.4 0.357,6.531 0.437,6.662 0.51,6.803 0.576,6.957 0.665,7.165 0.815,7.319 1.027,7.418 1.118,7.452 1.2,7.473 1.272,7.479 1.525,7.501 1.718,7.368 1.851,7.078 1.885,6.988 1.906,6.896 1.914,6.803 1.927,6.663 1.904,6.527 1.85,6.396 1.812,6.298 1.756,6.126 1.684,5.879 1.529,5.357 1.422,4.936 1.363,4.616 1.263,3.999 1.133,3.388 0.971,2.786 0.841,2.285 0.771,1.975 0.762,1.854 L 0.74,1.641 C 0.732,1.492 0.695,1.349 0.627,1.209 0.562,1.116 0.534,1.017 0.543,0.911 L 0.564,0.772 C 0.569,0.719 0.567,0.665 0.559,0.611 0.472,0.229 0.285,0.025 0,0" />
          </g>
          <g
             transform="translate(79.1135,385.3159)"
             id="g901"
             style="fill:#f4da98;fill-opacity:1">
            <path
               inkscape:connector-curvature="0"
               id="path903"
               style="fill:#f4da98;fill-opacity:1;fill-rule:nonzero;stroke:none"
               d="m 0,0 c -0.054,-0.005 -0.135,0.005 -0.244,0.028 -0.11,0.024 -0.202,0.137 -0.28,0.337 -0.026,0.065 -0.041,0.127 -0.046,0.187 -0.008,0.086 0.002,0.171 0.027,0.253 0.075,0.214 0.106,0.435 0.093,0.661 0.007,0.235 0.047,0.466 0.12,0.693 l 0.022,0.092 c 0.087,0.376 0.14,0.753 0.158,1.133 0.016,0.38 0.045,0.643 0.086,0.791 C -0.024,4.322 0,4.467 0.008,4.608 0.058,5.187 0.191,5.751 0.412,6.299 0.462,6.424 0.5,6.551 0.529,6.681 0.564,6.885 0.634,7.092 0.735,7.302 L 0.486,7.28 C 0.341,7.267 0.21,7.236 0.094,7.186 -0.061,7.111 -0.224,7.067 -0.396,7.052 -0.576,7.036 -0.727,7.07 -0.848,7.153 -1.01,7.252 -1.1,7.395 -1.115,7.582 c -0.01,0.105 0.011,0.219 0.06,0.341 0.049,0.121 0.144,0.225 0.284,0.31 0.244,0.122 0.475,0.193 0.694,0.212 C 0.01,8.453 0.091,8.47 0.17,8.497 0.554,8.617 0.946,8.722 1.347,8.811 1.826,8.913 2.18,9.004 2.407,9.084 2.608,9.155 2.812,9.2 3.018,9.218 L 3.317,9.234 C 3.674,9.205 3.872,9.048 3.91,8.764 3.938,8.371 3.779,8.116 3.436,8 3.082,7.901 2.728,7.824 2.372,7.766 2.259,7.749 2.171,7.713 2.104,7.657 2.04,7.601 1.985,7.515 1.942,7.397 1.8,6.963 1.685,6.521 1.596,6.072 1.547,5.8 1.432,5.278 1.251,4.506 1.205,4.281 1.164,4.053 1.131,3.823 1.089,3.531 1.038,3.242 0.976,2.956 0.877,2.546 0.834,2.131 0.844,1.71 0.848,1.589 0.827,1.474 0.784,1.363 0.718,1.197 0.689,1.023 0.699,0.844 0.684,0.555 0.563,0.324 0.338,0.149 0.226,0.059 0.112,0.01 0,0" />
          </g>
          <g
             transform="translate(83.3342,390.6538)"
             id="g905"
             style="fill:#f4da98;fill-opacity:1">
            <path
               inkscape:connector-curvature="0"
               id="path907"
               style="fill:#f4da98;fill-opacity:1;fill-rule:nonzero;stroke:none"
               d="M 0,0 0.174,0.306 C 0.227,0.391 0.289,0.437 0.362,0.443 0.396,0.446 0.43,0.442 0.464,0.432 0.47,0.433 0.475,0.438 0.477,0.448 0.479,0.458 0.483,0.471 0.489,0.484 0.582,0.72 0.705,0.918 0.858,1.079 0.943,1.18 1.024,1.288 1.102,1.401 1.147,1.479 1.213,1.542 1.296,1.589 1.409,1.666 1.509,1.754 1.594,1.856 1.648,1.921 1.707,1.981 1.769,2.037 1.831,2.093 1.86,2.137 1.857,2.17 L 1.844,2.219 C 1.804,2.289 1.747,2.321 1.674,2.314 1.494,2.305 1.315,2.325 1.137,2.373 0.959,2.421 0.803,2.439 0.67,2.428 0.65,2.426 0.624,2.417 0.593,2.4 0.561,2.384 0.483,2.113 0.362,1.588 0.258,1.104 0.119,0.626 -0.054,0.156 L -0.061,0.115 C -0.058,0.082 -0.038,0.043 0,0 m -1.364,-4.717 c -0.094,-0.008 -0.198,0.006 -0.316,0.043 -0.316,0.099 -0.486,0.285 -0.509,0.557 -0.008,0.087 10e-4,0.169 0.028,0.249 0.026,0.079 0.043,0.152 0.051,0.221 0.031,0.484 0.121,0.947 0.269,1.388 0.064,0.193 0.107,0.387 0.13,0.583 0.032,0.238 0.097,0.467 0.19,0.69 0.061,0.152 0.093,0.319 0.098,0.5 0.009,0.128 0.027,0.257 0.056,0.386 0.051,0.185 0.095,0.373 0.132,0.564 l 0.237,0.954 c 0.101,0.377 0.178,0.679 0.232,0.904 0.054,0.226 0.112,0.451 0.172,0.678 0.119,0.318 0.333,0.551 0.641,0.698 0.052,0.025 0.1,0.039 0.147,0.043 C 0.247,3.746 0.298,3.74 0.347,3.724 0.675,3.646 1.006,3.608 1.34,3.61 1.554,3.616 1.755,3.573 1.943,3.482 l 0.02,0.002 C 1.978,3.472 1.995,3.463 2.016,3.459 2.256,3.46 2.476,3.402 2.673,3.285 2.766,3.233 2.859,3.191 2.955,3.16 3.128,3.094 3.256,2.995 3.338,2.862 3.42,2.728 3.481,2.583 3.521,2.426 L 3.537,2.367 C 3.543,2.301 3.511,2.21 3.439,2.098 3.249,1.833 3.032,1.594 2.79,1.378 2.591,1.207 2.421,1.011 2.279,0.791 2.222,0.679 2.14,0.585 2.033,0.509 1.87,0.387 1.729,0.245 1.608,0.081 1.507,-0.055 1.389,-0.18 1.255,-0.292 1.121,-0.404 1.004,-0.538 0.903,-0.694 0.781,-0.905 0.611,-1.071 0.395,-1.19 L 0.376,-1.202 C 0.305,-1.228 0.244,-1.264 0.194,-1.308 0.145,-1.353 0.057,-1.38 -0.069,-1.391 -0.149,-1.398 -0.22,-1.418 -0.28,-1.45 -0.341,-1.482 -0.376,-1.561 -0.386,-1.685 -0.395,-1.81 -0.429,-1.928 -0.489,-2.04 -0.55,-2.153 -0.584,-2.28 -0.592,-2.421 c -0.014,-0.288 -0.071,-0.558 -0.17,-0.808 -0.101,-0.303 -0.151,-0.612 -0.15,-0.926 l 0.003,-0.03 c -0.058,-0.333 -0.21,-0.51 -0.455,-0.532" />
          </g>
          <g
             transform="translate(89.3029,387.251)"
             id="g909"
             style="fill:#f4da98;fill-opacity:1">
            <path
               inkscape:connector-curvature="0"
               id="path911"
               style="fill:#f4da98;fill-opacity:1;fill-rule:nonzero;stroke:none"
               d="m 0,0 c -0.192,-0.017 -0.36,0.065 -0.503,0.247 -0.091,0.112 -0.142,0.242 -0.155,0.388 -0.008,0.099 0,0.231 0.026,0.394 0.028,0.216 0.047,0.456 0.058,0.718 C -0.701,1.675 -0.785,1.588 -0.822,1.484 -1.031,1.118 -1.323,0.861 -1.698,0.715 L -1.757,0.69 C -1.822,0.67 -1.876,0.639 -1.919,0.595 -2.042,0.464 -2.155,0.394 -2.262,0.384 -2.349,0.376 -2.48,0.396 -2.658,0.44 c -0.103,0.024 -0.195,0.074 -0.274,0.147 -0.226,0.207 -0.352,0.46 -0.379,0.76 -0.008,0.106 -0.007,0.213 0.003,0.321 0.11,0.665 0.252,1.317 0.431,1.955 0.177,0.504 0.314,1.042 0.411,1.612 0.042,0.205 0.153,0.358 0.331,0.461 0.141,0.078 0.271,0.124 0.391,0.135 0.185,0.016 0.332,-0.055 0.439,-0.213 C -1.243,5.529 -1.208,5.432 -1.198,5.326 -1.194,5.279 -1.197,5.229 -1.205,5.175 -1.24,4.884 -1.296,4.595 -1.371,4.307 -1.531,3.617 -1.726,2.941 -1.956,2.279 -1.971,2.223 -1.977,2.176 -1.974,2.136 -1.97,2.096 -1.95,2.051 -1.911,2.001 c 0.037,-0.05 0.102,-0.072 0.195,-0.064 0.04,0.004 0.07,0.02 0.087,0.048 0.119,0.312 0.27,0.59 0.449,0.833 0.114,0.157 0.239,0.37 0.375,0.64 0.138,0.27 0.245,0.496 0.323,0.681 0.077,0.184 0.178,0.509 0.305,0.975 0.146,0.488 0.252,0.832 0.323,1.032 C 0.207,6.272 0.278,6.4 0.357,6.531 0.437,6.662 0.51,6.803 0.576,6.957 0.665,7.165 0.815,7.319 1.027,7.418 1.118,7.452 1.2,7.473 1.272,7.479 1.525,7.501 1.718,7.368 1.851,7.078 1.885,6.988 1.906,6.896 1.914,6.803 1.927,6.663 1.904,6.527 1.85,6.396 1.812,6.298 1.756,6.126 1.684,5.879 1.529,5.357 1.422,4.936 1.363,4.616 1.263,3.999 1.133,3.388 0.971,2.786 0.841,2.285 0.771,1.975 0.762,1.854 L 0.739,1.641 C 0.732,1.493 0.695,1.35 0.627,1.209 0.562,1.116 0.533,1.017 0.543,0.911 L 0.564,0.772 C 0.569,0.719 0.567,0.665 0.559,0.611 0.472,0.229 0.285,0.025 0,0" />
          </g>
          <g
             transform="translate(91.5158,386.4009)"
             id="g913"
             style="fill:#f4da98;fill-opacity:1">
            <path
               inkscape:connector-curvature="0"
               id="path915"
               style="fill:#f4da98;fill-opacity:1;fill-rule:nonzero;stroke:none"
               d="m 0,0 c -0.054,-0.004 -0.135,0.005 -0.243,0.028 -0.11,0.025 -0.203,0.137 -0.281,0.337 -0.026,0.065 -0.04,0.127 -0.046,0.187 -0.008,0.087 0.002,0.171 0.027,0.254 0.076,0.213 0.106,0.434 0.093,0.66 0.007,0.235 0.047,0.466 0.121,0.693 l 0.021,0.092 c 0.088,0.376 0.14,0.753 0.158,1.133 0.016,0.38 0.046,0.643 0.086,0.791 0.041,0.147 0.065,0.292 0.072,0.433 0.051,0.579 0.184,1.143 0.404,1.692 0.05,0.125 0.089,0.251 0.117,0.382 0.036,0.203 0.106,0.41 0.207,0.62 L 0.487,7.28 C 0.341,7.267 0.21,7.236 0.094,7.186 -0.061,7.111 -0.224,7.067 -0.396,7.052 -0.575,7.036 -0.727,7.07 -0.847,7.153 c -0.162,0.1 -0.252,0.242 -0.268,0.429 -0.01,0.105 0.011,0.219 0.06,0.341 0.05,0.121 0.145,0.225 0.284,0.31 0.244,0.122 0.475,0.193 0.694,0.212 C 0.01,8.453 0.092,8.47 0.17,8.497 0.554,8.617 0.946,8.722 1.347,8.811 1.826,8.913 2.181,9.004 2.407,9.084 2.608,9.155 2.813,9.2 3.018,9.218 l 0.3,0.016 C 3.675,9.205 3.872,9.048 3.91,8.764 3.938,8.371 3.78,8.117 3.436,8 3.083,7.901 2.729,7.824 2.372,7.766 2.26,7.75 2.171,7.713 2.105,7.658 2.04,7.601 1.986,7.515 1.942,7.397 1.8,6.963 1.685,6.521 1.597,6.072 1.547,5.8 1.432,5.278 1.252,4.506 1.205,4.281 1.164,4.054 1.131,3.823 1.09,3.531 1.038,3.242 0.977,2.956 0.878,2.546 0.834,2.131 0.844,1.71 0.848,1.59 0.828,1.475 0.784,1.363 0.718,1.197 0.69,1.024 0.699,0.844 0.685,0.555 0.563,0.324 0.338,0.15 0.226,0.059 0.113,0.01 0,0" />
          </g>
          <g
             transform="translate(65.7717,131.5458)"
             id="g917"
             style="fill:#f4da98;fill-opacity:1">
            <path
               inkscape:connector-curvature="0"
               id="path919"
               style="fill:#f4da98;fill-opacity:1;fill-rule:nonzero;stroke:none"
               d="m 0,0 c 2.531,-2.638 5.097,-5.143 7.696,-7.501 2.455,-11.91 4.896,-23.842 7.341,-35.767 -2.874,1.163 -5.729,2.467 -8.559,3.926 C 4.347,-26.188 2.185,-13.079 0,0 M -6.777,39.904 C -4.542,36.283 -2.264,32.782 0.057,29.406 2.49,17.667 4.926,5.935 7.35,-5.821 4.768,-3.435 2.218,-0.915 -0.295,1.751 -2.429,14.507 -4.592,27.221 -6.777,39.904 m 0.95,22.752 c 2.078,-4.101 4.201,-8.09 6.363,-11.981 2.498,-10.218 5.007,-20.421 7.53,-30.602 -2.399,3.114 -4.753,6.367 -7.07,9.73 -2.271,10.957 -4.544,21.911 -6.823,32.853 m 0.679,15.641 c 1.89,-4.287 3.797,-8.458 5.721,-12.509 2.403,-8.6 4.826,-17.167 7.274,-25.691 -2.161,3.55 -4.286,7.193 -6.37,10.941 -2.218,9.072 -4.426,18.158 -6.625,27.259 m 0.883,8.754 c 1.546,-3.868 3.114,-7.686 4.703,-11.458 2.159,-6.909 4.342,-13.773 6.551,-20.59 -1.837,3.61 -3.663,7.32 -5.475,11.134 -1.941,6.948 -3.868,13.918 -5.779,20.914 m -6.516,24.177 c 0.957,-2.799 1.923,-5.582 2.897,-8.349 1.661,-5.58 3.338,-11.132 5.032,-16.656 -1.292,3.216 -2.573,6.456 -3.835,9.739 -1.373,5.075 -2.737,10.165 -4.094,15.266 M 0.003,81.291 C 1.361,77.352 2.725,73.448 4.096,69.586 3.184,71.687 2.278,73.8 1.38,75.932 c -0.999,3.197 -1.992,6.405 -2.98,9.622 0.533,-1.425 1.066,-2.847 1.603,-4.263 M 8.66,56.93 C 10.776,51.168 12.909,45.511 15.054,39.927 13.303,43.041 11.56,46.233 9.827,49.519 7.991,55.128 6.171,60.767 4.369,66.439 5.781,63.228 7.215,60.067 8.66,56.93 m 9.056,-18.787 c 1.764,-3.976 3.544,-7.922 5.348,-11.813 -1.568,2.536 -3.132,5.133 -4.691,7.797 -1.554,3.98 -3.102,7.996 -4.642,12.068 1.316,-2.711 2.643,-5.399 3.985,-8.052 M 29,17.072 c -0.556,0.837 -1.111,1.674 -1.666,2.527 -0.47,0.984 -0.932,1.984 -1.398,2.974 1.015,-1.849 2.035,-3.684 3.064,-5.501 M 35.5,5.93 c 2.148,-3.563 4.327,-7.053 6.53,-10.485 -1.929,1.959 -3.845,3.959 -5.734,6.043 C 34.343,5.301 32.408,9.153 30.498,13.059 32.163,10.618 33.83,8.238 35.5,5.93 m 8.352,-20.86 c -2.529,1.769 -5.029,3.648 -7.499,5.641 -2.629,5.983 -5.245,12.081 -7.844,18.303 2.287,-2.788 4.603,-5.496 6.955,-8.094 2.754,-5.375 5.55,-10.659 8.388,-15.85 m 0.588,-14.665 c -2.724,1.047 -5.428,2.219 -8.108,3.533 -2.812,7.494 -5.595,15.048 -8.341,22.675 2.483,-2.296 5.001,-4.471 7.55,-6.534 2.949,-6.708 5.917,-13.259 8.899,-19.674 m 0.001,-20.399 c -2.902,0.172 -5.796,0.484 -8.678,0.937 -2.8,8.859 -5.572,17.769 -8.321,26.717 2.674,-1.618 5.373,-3.101 8.095,-4.449 2.932,-7.808 5.9,-15.543 8.904,-23.205 m -18.473,3.039 c -2.623,10.271 -5.234,20.561 -7.831,30.871 2.644,-1.959 5.317,-3.784 8.017,-5.467 2.808,-9.151 5.64,-18.26 8.502,-27.317 -2.91,0.494 -5.806,1.131 -8.688,1.913 m -9.498,33.387 c -2.652,2.057 -5.273,4.262 -7.862,6.601 C 6.25,4.468 3.88,15.88 1.514,27.3 3.849,23.981 6.229,20.794 8.646,17.724 11.24,7.272 13.85,-3.155 16.47,-13.568 m 0.28,23.139 c -2.433,2.746 -4.827,5.615 -7.184,8.602 -2.417,9.74 -4.819,19.501 -7.213,29.274 2.135,-3.745 4.306,-7.399 6.519,-10.941 2.601,-9.021 5.226,-18 7.878,-26.935 m -0.454,17.412 c -2.203,3.216 -4.37,6.53 -6.503,9.938 -2.275,7.893 -4.528,15.822 -6.764,23.78 1.944,-3.969 3.902,-7.83 5.873,-11.57 2.436,-7.438 4.899,-14.823 7.394,-22.148 m 8.596,-11.828 c -2.207,2.86 -4.379,5.823 -6.522,8.863 -2.273,6.634 -4.521,13.315 -6.745,20.041 1.938,-3.556 3.886,-7.012 5.843,-10.36 2.458,-6.294 4.933,-12.475 7.424,-18.544 M 20.587,28.47 c 1.948,-3.208 3.902,-6.326 5.862,-9.339 2.356,-4.94 4.746,-9.806 7.168,-14.603 -2.182,2.502 -4.337,5.086 -6.462,7.754 -2.201,5.314 -4.392,10.699 -6.568,16.188 m -1.056,-7.823 c 2.216,-3.06 4.472,-6.009 6.756,-8.879 2.771,-6.691 5.56,-13.256 8.367,-19.675 -2.499,2.079 -4.965,4.279 -7.401,6.587 -2.605,7.262 -5.178,14.587 -7.722,21.967 M 18.973,5.634 c 2.438,-2.622 4.91,-5.128 7.418,-7.512 2.838,-7.909 5.711,-15.749 8.621,-23.516 -2.696,1.369 -5.368,2.869 -8.015,4.507 -2.699,8.799 -5.375,17.637 -8.024,26.521 m -8.207,27.902 c 2.198,-3.426 4.433,-6.752 6.705,-9.978 2.688,-7.841 5.41,-15.615 8.166,-23.324 -2.472,2.408 -4.912,4.927 -7.314,7.57 -2.54,8.542 -5.063,17.112 -7.557,25.732 m 14.935,-53.608 c -2.68,1.707 -5.332,3.555 -7.955,5.538 -2.544,10.103 -5.078,20.219 -7.597,30.359 2.39,-2.963 4.817,-5.81 7.283,-8.53 2.728,-9.171 5.487,-18.288 8.269,-27.367 M 16.149,-43.71 c -2.399,11.702 -4.795,23.408 -7.203,35.095 2.609,-2.312 5.249,-4.49 7.92,-6.52 2.65,-10.528 5.316,-21.033 7.993,-31.519 -2.921,0.831 -5.825,1.816 -8.71,2.944 m -3.591,-33.836 c -1.94,12.359 -3.897,24.696 -5.886,36.988 2.847,-1.442 5.716,-2.735 8.606,-3.883 2.26,-11.028 4.516,-22.063 6.768,-33.105 h 1.02 c -2.221,10.894 -4.446,21.782 -6.677,32.663 2.9,-1.111 5.82,-2.074 8.756,-2.89 2.539,-9.943 5.091,-19.867 7.654,-29.773 h 1.033 c -2.538,9.808 -5.065,19.634 -7.58,29.478 2.9,-0.768 5.814,-1.394 8.742,-1.875 2.871,-9.078 5.763,-18.12 8.689,-27.103 -0.681,-0.182 -1.363,-0.331 -2.044,-0.5 h 3.988 c 0.067,0.019 0.134,0.039 0.201,0.058 v 1.05 c -0.392,-0.114 -0.784,-0.245 -1.176,-0.354 -2.88,8.84 -5.727,17.737 -8.554,26.669 2.903,-0.44 5.819,-0.735 8.742,-0.893 0.328,-0.835 0.66,-1.66 0.988,-2.493 v 3.458 c -0.098,0.004 -0.196,0.002 -0.295,0.007 -2.929,7.468 -5.825,15.009 -8.687,22.617 2.713,-1.296 5.448,-2.454 8.204,-3.48 0.259,-0.556 0.519,-1.105 0.778,-1.659 v 2.438 c -0.016,0.006 -0.032,0.011 -0.048,0.017 -2.864,6.146 -5.715,12.426 -8.55,18.842 2.533,-1.987 5.095,-3.864 7.689,-5.62 0.3,-0.545 0.607,-1.077 0.909,-1.62 v 2.206 c -0.048,0.034 -0.096,0.068 -0.145,0.101 -2.607,4.732 -5.179,9.544 -7.715,14.432 1.968,-2.097 3.949,-4.153 5.959,-6.119 0.239,-0.232 0.48,-0.451 0.719,-0.682 0.391,-0.595 0.789,-1.172 1.182,-1.763 v 2.021 c -0.136,0.131 -0.274,0.256 -0.411,0.388 -1.055,1.605 -2.105,3.223 -3.148,4.857 1.187,-1.515 2.373,-2.993 3.559,-4.445 v 1.58 C 42.67,-2.03 39.509,2.091 36.353,6.452 30.216,16.629 24.303,27.34 18.618,38.576 12.475,52.422 6.578,66.781 0.936,81.651 -3.377,94.167 -7.617,107.08 -11.772,120.398 v -9.333 c 0.474,-1.777 0.94,-3.565 1.415,-5.34 -0.475,1.292 -0.944,2.597 -1.415,3.9 v -2.915 c 1.361,-3.724 2.734,-7.419 4.133,-11.059 2.176,-8.045 4.373,-16.055 6.588,-24.035 -1.836,3.994 -3.655,8.109 -5.459,12.325 -1.761,7.309 -3.513,14.63 -5.262,21.957 v -4.296 c 0.952,-3.979 1.898,-7.966 2.853,-11.94 -0.956,2.311 -1.907,4.659 -2.853,7.036 v -2.663 c 1.426,-3.535 2.86,-7.018 4.309,-10.407 2.35,-9.753 4.712,-19.489 7.085,-29.209 -2.128,3.932 -4.213,7.972 -6.258,12.111 -1.71,8.202 -3.422,16.398 -5.136,24.591 v -4.893 c 1.118,-5.353 2.237,-10.702 3.354,-16.057 -1.132,2.352 -2.248,4.742 -3.354,7.155 v -2.344 c 1.377,-2.971 2.766,-5.911 4.183,-8.782 2.377,-11.406 4.749,-22.822 7.118,-34.245 -2.278,3.385 -4.519,6.878 -6.713,10.504 L -7.215,42.44 c -1.502,8.701 -3.031,17.364 -4.557,26.031 V 62.753 C -3.655,16.475 4.12,-30.297 11.545,-77.546 Z" />
          </g>
          <g
             transform="translate(54,472.252)"
             id="g921"
             style="fill:#f4da98;fill-opacity:1">
            <path
               inkscape:connector-curvature="0"
               id="path923"
               style="fill:#f4da98;fill-opacity:1;stroke:#000000;stroke-width:0.30000001;stroke-linecap:butt;stroke-linejoin:miter;stroke-miterlimit:4;stroke-dasharray:none;stroke-opacity:1"
               d="M 0,0 V -36" />
          </g>
          <g
             transform="translate(0,418.252)"
             id="g925"
             style="fill:#f4da98;fill-opacity:1">
            <path
               inkscape:connector-curvature="0"
               id="path927"
               style="fill:#f4da98;fill-opacity:1;stroke:#000000;stroke-width:0.30000001;stroke-linecap:butt;stroke-linejoin:miter;stroke-miterlimit:4;stroke-dasharray:none;stroke-opacity:1"
               d="M 0,0 H 36" />
          </g>
          <g
             transform="translate(0,54)"
             id="g929"
             style="fill:#f4da98;fill-opacity:1">
            <path
               inkscape:connector-curvature="0"
               id="path931"
               style="fill:#f4da98;fill-opacity:1;stroke:#000000;stroke-width:0.30000001;stroke-linecap:butt;stroke-linejoin:miter;stroke-miterlimit:4;stroke-dasharray:none;stroke-opacity:1"
               d="M 0,0 H 36" />
          </g>
          <g
             transform="translate(54)"
             id="g933"
             style="fill:#f4da98;fill-opacity:1">
            <path
               inkscape:connector-curvature="0"
               id="path935"
               style="fill:#f4da98;fill-opacity:1;stroke:#000000;stroke-width:0.30000001;stroke-linecap:butt;stroke-linejoin:miter;stroke-miterlimit:4;stroke-dasharray:none;stroke-opacity:1"
               d="M 0,0 V 36" />
          </g>
          <g
             transform="translate(111.6,472.252)"
             id="g937"
             style="fill:#f4da98;fill-opacity:1">
            <path
               inkscape:connector-curvature="0"
               id="path939"
               style="fill:#f4da98;fill-opacity:1;stroke:#000000;stroke-width:0.30000001;stroke-linecap:butt;stroke-linejoin:miter;stroke-miterlimit:4;stroke-dasharray:none;stroke-opacity:1"
               d="M 0,0 V -36" />
          </g>
          <g
             transform="translate(165.6,418.252)"
             id="g941"
             style="fill:#f4da98;fill-opacity:1">
            <path
               inkscape:connector-curvature="0"
               id="path943-3"
               style="fill:#f4da98;fill-opacity:1;stroke:#000000;stroke-width:0.30000001;stroke-linecap:butt;stroke-linejoin:miter;stroke-miterlimit:4;stroke-dasharray:none;stroke-opacity:1"
               d="M 0,0 H -36" />
          </g>
          <g
             transform="translate(165.6,54)"
             id="g945"
             style="fill:#f4da98;fill-opacity:1">
            <path
               inkscape:connector-curvature="0"
               id="path947-6"
               style="fill:#f4da98;fill-opacity:1;stroke:#000000;stroke-width:0.30000001;stroke-linecap:butt;stroke-linejoin:miter;stroke-miterlimit:4;stroke-dasharray:none;stroke-opacity:1"
               d="M 0,0 H -36" />
          </g>
          <g
             transform="translate(111.6)"
             id="g949"
             style="fill:#f4da98;fill-opacity:1">
            <path
               inkscape:connector-curvature="0"
               id="path951"
               style="fill:#f4da98;fill-opacity:1;stroke:#000000;stroke-width:0.30000001;stroke-linecap:butt;stroke-linejoin:miter;stroke-miterlimit:4;stroke-dasharray:none;stroke-opacity:1"
               d="M 0,0 V 36" />
          </g>
        </g>
      </g>
    </g>
  </g>
  <g
     inkscape:label="Layer 1"
     inkscape:groupmode="layer"
     id="layer1"
     transform="translate(0,-168.5)"
     style="display:inline">
    <g
       aria-label="IN"
       style="font-style:normal;font-weight:normal;font-size:3.17499995px;line-height:1.25;font-family:sans-serif;letter-spacing:0px;word-spacing:0px;display:inline;fill:#f4da98;fill-opacity:1;stroke:#292727;stroke-width:1;stroke-miterlimit:4;stroke-dasharray:none;stroke-opacity:1"
       id="text48-7">
      <path
         d="m 8.8158956,275.27233 h 0.3131592 v 2.31458 H 8.8158956 Z"
         style="fill:#f4da98;fill-opacity:1;stroke:#292727;stroke-width:1;stroke-miterlimit:4;stroke-dasharray:none;stroke-opacity:1"
         id="path860-5"
         inkscape:connector-curvature="0" />
      <path
         d="m 9.7522726,275.27233 h 0.4216794 l 1.026294,1.93631 v -1.93631 h 0.303858 v 2.31458 h -0.42168 L 10.05613,275.6506 v 1.93631 H 9.7522726 Z"
         style="fill:#f4da98;fill-opacity:1;stroke:#292727;stroke-width:1;stroke-miterlimit:4;stroke-dasharray:none;stroke-opacity:1"
         id="path862-3"
         inkscape:connector-curvature="0" />
    </g>
    <text
       xml:space="preserve"
       style="font-style:normal;font-weight:normal;font-size:10.58333302px;line-height:1.25;font-family:sans-serif;letter-spacing:0px;word-spacing:0px;fill:#000000;fill-opacity:1;stroke:none;stroke-width:0.26458332"
       x="-53.988441"
       y="240.20523"
       id="text4554"><tspan
         sodipodi:role="line"
         id="tspan4552"
         x="-53.988441"
         y="249.569"
         style="stroke-width:0.26458332" /></text>
    <g
       aria-label="IN"
       style="font-style:normal;font-weight:normal;font-size:3.17499995px;line-height:1.25;font-family:sans-serif;letter-spacing:0px;word-spacing:0px;fill:#f4da98;fill-opacity:1;stroke:none;stroke-width:0.26458332"
       id="text48">
      <path
         d="m 8.8158956,275.27233 h 0.3131592 v 2.31458 H 8.8158956 Z"
         style="fill:#f4da98;fill-opacity:1;stroke-width:0.26458332"
         id="path860"
         inkscape:connector-curvature="0" />
      <path
         d="m 9.7522726,275.27233 h 0.4216794 l 1.026294,1.93631 v -1.93631 h 0.303858 v 2.31458 h -0.42168 L 10.05613,275.6506 v 1.93631 H 9.7522726 Z"
         style="fill:#f4da98;fill-opacity:1;stroke-width:0.26458332"
         id="path862"
         inkscape:connector-curvature="0" />
    </g>
  </g>
</svg>
