<?xml version="1.0" encoding="UTF-8" standalone="no"?>
<!-- Created with Inkscape (http://www.inkscape.org/) -->

<svg
   xmlns:dc="http://purl.org/dc/elements/1.1/"
   xmlns:cc="http://creativecommons.org/ns#"
   xmlns:rdf="http://www.w3.org/1999/02/22-rdf-syntax-ns#"
   xmlns:svg="http://www.w3.org/2000/svg"
   xmlns="http://www.w3.org/2000/svg"
   xmlns:xlink="http://www.w3.org/1999/xlink"
   xmlns:sodipodi="http://sodipodi.sourceforge.net/DTD/sodipodi-0.dtd"
   xmlns:inkscape="http://www.inkscape.org/namespaces/inkscape"
   width="20.32mm"
   height="128.5mm"
   viewBox="0 0 20.32 128.5"
   version="1.1"
   id="svg8"
   inkscape:version="0.92.5 (2060ec1f9f, 2020-04-08)"
   sodipodi:docname="MIDI_Merger.svg">
  <defs
     id="defs2">
    <linearGradient
       inkscape:collect="always"
       xlink:href="#linearGradient1109"
       id="linearGradient4954"
       gradientUnits="userSpaceOnUse"
       x1="110.74702"
       y1="130.87947"
       x2="111.50298"
       y2="242.57143"
       gradientTransform="matrix(0.44393752,0,0,0.99973639,-37.472256,-125.49796)" />
    <linearGradient
       inkscape:collect="always"
       id="linearGradient1109">
      <stop
         style="stop-color:#333131;stop-opacity:1"
         offset="0"
         id="stop1105" />
      <stop
         style="stop-color:#292727;stop-opacity:1"
         offset="1"
         id="stop1107" />
    </linearGradient>
    <clipPath
       id="clipPath916"
       clipPathUnits="userSpaceOnUse">
      <path
         inkscape:connector-curvature="0"
         id="path914"
         d="M 0,472.252 H 165.6 V 0 H 0 Z" />
    </clipPath>
  </defs>
  <sodipodi:namedview
     id="base"
     pagecolor="#ffffff"
     bordercolor="#666666"
     borderopacity="1.0"
     inkscape:pageopacity="0.0"
     inkscape:pageshadow="2"
     inkscape:zoom="0.9899495"
     inkscape:cx="28.601486"
     inkscape:cy="223.8649"
     inkscape:document-units="mm"
     inkscape:current-layer="layer1"
     showgrid="false"
     showguides="true"
     inkscape:guide-bbox="true"
     inkscape:window-width="1920"
     inkscape:window-height="1033"
     inkscape:window-x="0"
     inkscape:window-y="0"
     inkscape:window-maximized="1"
     inkscape:snap-object-midpoints="true"
     inkscape:snap-text-baseline="true"
     inkscape:snap-bbox="true"
     inkscape:snap-bbox-midpoints="true">
    <sodipodi:guide
       position="10.16,105.26637"
       orientation="1,0"
       id="guide831"
       inkscape:locked="false"
       inkscape:label=""
       inkscape:color="rgb(0,0,255)" />
    <sodipodi:guide
       position="-15.497023,120"
       orientation="0,1"
       id="guide833"
       inkscape:locked="false"
       inkscape:label=""
       inkscape:color="rgb(0,0,255)" />
    <sodipodi:guide
       position="-6.2808337,104"
       orientation="0,1"
       id="guide860"
       inkscape:locked="false"
       inkscape:label=""
       inkscape:color="rgb(0,0,255)" />
    <sodipodi:guide
       position="-14.967093,92"
       orientation="0,1"
       id="guide862"
       inkscape:locked="false"
       inkscape:label=""
       inkscape:color="rgb(0,0,255)" />
    <sodipodi:guide
       position="-19.777944,80.000003"
       orientation="0,1"
       id="guide864"
       inkscape:locked="false"
       inkscape:label=""
       inkscape:color="rgb(0,0,255)" />
    <sodipodi:guide
       position="-16.17,110.5"
       orientation="0,1"
       id="guide866"
       inkscape:locked="false"
       inkscape:label=""
       inkscape:color="rgb(0,0,255)" />
    <sodipodi:guide
       position="-32.339612,67.999999"
       orientation="0,1"
       id="guide908"
       inkscape:locked="false"
       inkscape:label=""
       inkscape:color="rgb(0,0,255)" />
    <sodipodi:guide
       position="-18.520833,43.999999"
       orientation="0,1"
       id="guide934"
       inkscape:locked="false"
       inkscape:label=""
       inkscape:color="rgb(0,0,255)" />
    <sodipodi:guide
       position="-15.308036,31.999999"
       orientation="0,1"
       id="guide936"
       inkscape:locked="false"
       inkscape:label=""
       inkscape:color="rgb(0,0,255)" />
    <sodipodi:guide
       position="-25.702381,19.999999"
       orientation="0,1"
       id="guide940"
       inkscape:locked="false"
       inkscape:label=""
       inkscape:color="rgb(0,0,255)" />
  </sodipodi:namedview>
  <metadata
     id="metadata5">
    <rdf:RDF>
      <cc:Work
         rdf:about="">
        <dc:format>image/svg+xml</dc:format>
        <dc:type
           rdf:resource="http://purl.org/dc/dcmitype/StillImage" />
        <dc:title />
      </cc:Work>
    </rdf:RDF>
  </metadata>
  <g
     inkscape:groupmode="layer"
     id="layer2"
     inkscape:label="BG"
     style="display:inline">
    <path
       inkscape:connector-curvature="0"
       id="path1099"
       d="M 5e-7,-9.5e-6 H 20.320001 V 128.5 H 5e-7 Z"
       style="display:inline;fill:url(#linearGradient4954);fill-opacity:1;stroke:#6e6e6e;stroke-width:0;stroke-miterlimit:4;stroke-dasharray:none;stroke-opacity:1" />
  </g>
  <g
     inkscape:label="Layer 1"
     inkscape:groupmode="layer"
     id="layer1"
     transform="translate(0,-168.5)"
     style="display:inline">
    <path
       style="display:inline;fill:#f4da98;fill-opacity:1;stroke:none;stroke-width:0;stroke-miterlimit:4;stroke-dasharray:none;stroke-opacity:1"
       inkscape:transform-center-x="7.4234112"
       inkscape:transform-center-y="5.2919366"
       d="m 15.659998,253.00001 a 5.5000006,5.5000006 0 0 1 -5.499997,5.5 5.5000006,5.5000006 0 0 1 -5.4999973,-5.5 5.5000006,5.5000006 0 0 1 5.4999973,-5.5 5.5000006,5.5000006 0 0 1 5.499997,5.5 z"
       id="path4964-7"
       inkscape:connector-curvature="0" />
    <g
       aria-label="1"
       style="font-style:normal;font-variant:normal;font-weight:normal;font-stretch:normal;font-size:12px;line-height:100%;font-family:DIN;-inkscape-font-specification:DIN;text-align:center;letter-spacing:0px;word-spacing:0px;writing-mode:lr-tb;text-anchor:middle;display:inline;fill:#f4da98;fill-opacity:1;stroke:none;stroke-width:1px;stroke-linecap:butt;stroke-linejoin:miter;stroke-opacity:1"
       id="text1079"
       transform="matrix(0.26458333,0,0,0.26458333,6.6720886e-6,234.5)">
      <g
         aria-label="C H N"
         style="font-style:normal;font-variant:normal;font-weight:normal;font-stretch:normal;font-size:10.66666698px;line-height:100%;font-family:DIN;-inkscape-font-specification:DIN;text-align:center;letter-spacing:0px;word-spacing:0px;writing-mode:lr-tb;text-anchor:middle;fill:#f4da98;fill-opacity:1;stroke:none;stroke-width:1px;stroke-linecap:butt;stroke-linejoin:miter;stroke-opacity:1"
         id="text1033">
        <path
           d="m 69.203973,60.811927 h -1.162667 q -0.138666,0.576 -0.522666,0.938667 -0.384,0.362666 -1.024,0.362666 -0.341334,0 -0.629334,-0.117333 -0.288,-0.128 -0.490666,-0.341333 -0.138667,-0.149334 -0.234667,-0.32 -0.08533,-0.181334 -0.138667,-0.437334 -0.04267,-0.266666 -0.064,-0.650666 -0.02133,-0.384 -0.02133,-0.96 0,-0.576 0.02133,-0.96 0.02133,-0.384 0.064,-0.64 0.05333,-0.266667 0.138667,-0.437334 0.096,-0.181333 0.234667,-0.330666 0.202666,-0.213334 0.490666,-0.330667 0.288,-0.128 0.629334,-0.128 0.64,0 1.013333,0.362667 0.384,0.362666 0.522667,0.938666 h 1.173333 q -0.202667,-1.141333 -0.928,-1.738666 -0.725333,-0.597334 -1.781333,-0.597334 -0.597334,0 -1.098667,0.213334 -0.501333,0.202666 -0.896,0.597333 -0.277333,0.277333 -0.426667,0.586667 -0.149333,0.309333 -0.224,0.672 -0.064,0.362666 -0.07467,0.810666 -0.01067,0.437334 -0.01067,0.981334 0,0.544 0.01067,0.992 0.01067,0.437333 0.07467,0.8 0.07467,0.362666 0.224,0.672 0.149334,0.309333 0.426667,0.586666 0.394667,0.394667 0.896,0.608 0.501333,0.202667 1.098667,0.202667 0.512,0 0.96,-0.149333 0.458666,-0.149334 0.810666,-0.448 0.362667,-0.298667 0.597334,-0.736 0.245333,-0.437334 0.341333,-1.002667 z"
           id="path1105"
           inkscape:connector-curvature="0" />
        <path
           d="m 69.09464,73.750594 v -7.594667 h -1.152 v 3.242667 h -3.082667 v -3.242667 h -1.152 v 7.594667 h 1.152 v -3.317333 h 3.082667 v 3.317333 z"
           id="path1107"
           inkscape:connector-curvature="0" />
        <path
           d="m 69.25864,84.417261 v -7.594667 h -1.152 v 5.333334 l -3.509334,-5.333334 h -1.056 v 7.594667 h 1.152 v -5.344 l 3.509334,5.344 z"
           id="path1109"
           inkscape:connector-curvature="0" />
      </g>
      <g
         aria-label="S Y S"
         style="font-style:normal;font-variant:normal;font-weight:normal;font-stretch:normal;font-size:10.66666698px;line-height:100%;font-family:DIN;-inkscape-font-specification:DIN;text-align:center;letter-spacing:0px;word-spacing:0px;writing-mode:lr-tb;text-anchor:middle;fill:#f4da98;fill-opacity:1;stroke:none;stroke-width:1px;stroke-linecap:butt;stroke-linejoin:miter;stroke-opacity:1"
         id="text1037"
         transform="translate(129.97635,18.122527)">
        <path
           d="m -60.978623,88.577052 q 0,-0.490666 -0.160001,-0.885333 -0.149333,-0.394667 -0.458666,-0.672 -0.245334,-0.213333 -0.565334,-0.341333 -0.32,-0.138667 -0.853333,-0.224 l -0.864,-0.128 q -0.554667,-0.08533 -0.853333,-0.352 -0.149334,-0.138667 -0.224,-0.309334 -0.064,-0.181333 -0.064,-0.394666 0,-0.512 0.352,-0.842667 0.362666,-0.341333 1.034666,-0.341333 0.48,0 0.885334,0.128 0.416,0.117333 0.768,0.458666 l 0.736,-0.725333 q -0.490667,-0.458667 -1.045334,-0.661333 -0.554666,-0.202667 -1.312,-0.202667 -0.597333,0 -1.066666,0.16 -0.469334,0.16 -0.8,0.458667 -0.32,0.298666 -0.501334,0.714666 -0.170666,0.405334 -0.170666,0.896 0,0.928 0.554666,1.450667 0.512,0.48 1.44,0.608 l 0.896,0.128 q 0.341334,0.05333 0.512,0.117333 0.170667,0.064 0.32,0.202667 0.298667,0.266667 0.298667,0.789333 0,0.554667 -0.416,0.864 -0.405333,0.298667 -1.152,0.298667 -0.586667,0 -1.056,-0.149333 -0.469333,-0.16 -0.885333,-0.576 l -0.768,0.757333 q 0.544,0.554667 1.184,0.778667 0.64,0.224 1.504,0.224 0.597333,0 1.098666,-0.149333 0.501334,-0.149334 0.864,-0.437334 0.362667,-0.288 0.565334,-0.704 0.202667,-0.416 0.202667,-0.938667 z"
           id="path1097"
           inkscape:connector-curvature="0" />
        <path
           d="m -60.728373,93.814386 h -1.258667 l -1.589334,3.338667 -1.589333,-3.338667 h -1.258667 l 2.272,4.469333 v 3.125331 h 1.152 v -3.125331 z"
           id="path1100"
           inkscape:connector-curvature="0" />
        <path
           d="m -60.978623,109.91039 q 0,-0.49067 -0.160001,-0.88534 -0.149333,-0.39466 -0.458666,-0.672 -0.245334,-0.21333 -0.565334,-0.34133 -0.32,-0.13867 -0.853333,-0.224 l -0.864,-0.128 q -0.554667,-0.0853 -0.853333,-0.352 -0.149334,-0.13867 -0.224,-0.30933 -0.064,-0.18134 -0.064,-0.39467 0,-0.512 0.352,-0.84267 0.362666,-0.34133 1.034666,-0.34133 0.48,0 0.885334,0.128 0.416,0.11733 0.768,0.45867 l 0.736,-0.72534 q -0.490667,-0.45866 -1.045334,-0.66133 -0.554666,-0.20267 -1.312,-0.20267 -0.597333,0 -1.066666,0.16 -0.469334,0.16 -0.8,0.45867 -0.32,0.29867 -0.501334,0.71467 -0.170666,0.40533 -0.170666,0.896 0,0.928 0.554666,1.45066 0.512,0.48 1.44,0.608 l 0.896,0.128 q 0.341334,0.0533 0.512,0.11734 0.170667,0.064 0.32,0.20266 0.298667,0.26667 0.298667,0.78934 0,0.55466 -0.416,0.864 -0.405333,0.29866 -1.152,0.29866 -0.586667,0 -1.056,-0.14933 -0.469333,-0.16 -0.885333,-0.576 l -0.768,0.75733 q 0.544,0.55467 1.184,0.77867 0.64,0.224 1.504,0.224 0.597333,0 1.098666,-0.14933 0.501334,-0.14934 0.864,-0.43734 0.362667,-0.288 0.565334,-0.704 0.202667,-0.416 0.202667,-0.93866 z"
           id="path1102"
           inkscape:connector-curvature="0" />
      </g>
      <text
         xml:space="preserve"
         style="font-style:normal;font-variant:normal;font-weight:normal;font-stretch:normal;font-size:10.66666698px;line-height:100%;font-family:DIN;-inkscape-font-specification:DIN;text-align:center;letter-spacing:0px;word-spacing:0px;writing-mode:lr-tb;text-anchor:middle;fill:#000000;fill-opacity:1;stroke:none;stroke-width:1px;stroke-linecap:butt;stroke-linejoin:miter;stroke-opacity:1"
         x="-70.35717"
         y="137.52812"
         id="text1041"><tspan
           sodipodi:role="line"
           id="tspan1039"
           x="-70.35717"
           y="146.41701" /></text>
      <g
         aria-label="A L L"
         style="font-style:normal;font-variant:normal;font-weight:normal;font-stretch:normal;font-size:10.66666698px;line-height:100%;font-family:DIN;-inkscape-font-specification:DIN;text-align:center;letter-spacing:0px;word-spacing:0px;writing-mode:lr-tb;text-anchor:middle;fill:#f4da98;fill-opacity:1;stroke:none;stroke-width:1px;stroke-linecap:butt;stroke-linejoin:miter;stroke-opacity:1"
         id="text1045"
         transform="translate(104.99374,19.089627)">
        <path
           d="m -35.6806,134.67096 -2.784,-7.59467 h -0.928 l -2.784,7.59467 h 1.226666 l 0.522667,-1.52533 h 2.997333 l 0.522667,1.52533 z m -2.069334,-2.50667 h -2.336 l 1.184,-3.37066 z"
           id="path1090"
           inkscape:connector-curvature="0" />
        <path
           d="m -36.188434,145.33763 v -1.03467 H -39.8471 v -6.56 h -1.152 v 7.59467 z"
           id="path1092"
           inkscape:connector-curvature="0" />
        <path
           d="m -36.188434,156.00429 v -1.03466 H -39.8471 v -6.56 h -1.152 v 7.59466 z"
           id="path1094"
           inkscape:connector-curvature="0" />
      </g>
      <text
         xml:space="preserve"
         style="font-style:normal;font-variant:normal;font-weight:normal;font-stretch:normal;font-size:10.66666698px;line-height:100%;font-family:DIN;-inkscape-font-specification:DIN;text-align:center;letter-spacing:0px;word-spacing:0px;writing-mode:lr-tb;text-anchor:middle;fill:#000000;fill-opacity:1;stroke:none;stroke-width:1px;stroke-linecap:butt;stroke-linejoin:miter;stroke-opacity:1"
         x="-38.9286"
         y="134.67094"
         id="text1082"><tspan
           sodipodi:role="line"
           id="tspan1080"
           x="-38.9286"
           y="143.55983" /><tspan
           sodipodi:role="line"
           x="-38.9286"
           y="154.2265"
           id="tspan1084" /></text>
    </g>
    <g
       aria-label="OUTS"
       style="font-style:normal;font-variant:normal;font-weight:normal;font-stretch:normal;font-size:3.17499995px;line-height:100%;font-family:DIN;-inkscape-font-specification:DIN;text-align:center;letter-spacing:0px;word-spacing:0px;writing-mode:lr-tb;text-anchor:middle;display:inline;fill:#f4da98;fill-opacity:1;stroke:none;stroke-width:0.26458332px;stroke-linecap:butt;stroke-linejoin:miter;stroke-opacity:1"
       id="text940"
       transform="translate(24.969411,43.913047)">
      <path
         d="m -16.920475,200.32084 q 0,-0.16192 -0.0032,-0.2921 -0.0032,-0.13335 -0.02223,-0.2413 -0.01905,-0.10795 -0.0635,-0.20002 -0.04445,-0.0921 -0.127,-0.17463 -0.117475,-0.11747 -0.2667,-0.1778 -0.149225,-0.0635 -0.3302,-0.0635 -0.180975,0 -0.3302,0.0635 -0.14605,0.0603 -0.263525,0.1778 -0.08255,0.0825 -0.127,0.17463 -0.04445,0.0921 -0.06668,0.20002 -0.01905,0.10795 -0.02222,0.2413 -0.0032,0.13018 -0.0032,0.2921 0,0.16193 0.0032,0.29528 0.0032,0.13017 0.02222,0.23812 0.02223,0.10795 0.06668,0.20003 0.04445,0.0921 0.127,0.17462 0.117475,0.11748 0.263525,0.18098 0.149225,0.0603 0.3302,0.0603 0.180975,0 0.3302,-0.0603 0.149225,-0.0635 0.2667,-0.18098 0.08255,-0.0825 0.127,-0.17462 0.04445,-0.0921 0.0635,-0.20003 0.01905,-0.10795 0.02223,-0.23812 0.0032,-0.13335 0.0032,-0.29528 z m -0.3429,0 q 0,0.17145 -0.0064,0.28575 -0.0032,0.11113 -0.01905,0.1905 -0.0127,0.0762 -0.04127,0.13018 -0.0254,0.0508 -0.06668,0.0952 -0.06032,0.0635 -0.149225,0.1016 -0.08573,0.0381 -0.187325,0.0381 -0.1016,0 -0.1905,-0.0381 -0.08573,-0.0381 -0.14605,-0.1016 -0.04127,-0.0444 -0.06985,-0.0952 -0.0254,-0.054 -0.04127,-0.13018 -0.0127,-0.0794 -0.01905,-0.1905 -0.0032,-0.1143 -0.0032,-0.28575 0,-0.17145 0.0032,-0.28257 0.0063,-0.1143 0.01905,-0.1905 0.01587,-0.0794 0.04127,-0.13018 0.02858,-0.054 0.06985,-0.0984 0.06033,-0.0635 0.14605,-0.1016 0.0889,-0.0381 0.1905,-0.0381 0.1016,0 0.187325,0.0381 0.0889,0.0381 0.149225,0.1016 0.04127,0.0445 0.06668,0.0984 0.02858,0.0508 0.04127,0.13018 0.01588,0.0762 0.01905,0.1905 0.0064,0.11112 0.0064,0.28257 z"
         style="fill:#f4da98;fill-opacity:1;stroke-width:0.26458332px"
         id="path942"
         inkscape:connector-curvature="0" />
      <path
         d="m -14.823437,200.68914 v -1.4986 h -0.3429 v 1.48273 q 0,0.2286 -0.130175,0.35877 -0.127,0.13018 -0.339725,0.13018 -0.212725,0 -0.339725,-0.13018 -0.127,-0.13017 -0.127,-0.35877 v -1.48273 h -0.3429 v 1.4986 q 0,0.17463 0.06033,0.32068 0.0635,0.14287 0.17145,0.24447 0.10795,0.1016 0.257175,0.15875 0.149225,0.0572 0.320675,0.0572 0.17145,0 0.320675,-0.0572 0.149225,-0.0572 0.257175,-0.15875 0.111125,-0.1016 0.17145,-0.24447 0.0635,-0.14605 0.0635,-0.32068 z"
         style="fill:#f4da98;fill-opacity:1;stroke-width:0.26458332px"
         id="path944"
         inkscape:connector-curvature="0" />
      <path
         d="m -12.877857,199.49852 v -0.30798 h -1.5875 v 0.30798 h 0.6223 v 1.95262 h 0.3429 v -1.95262 z"
         style="fill:#f4da98;fill-opacity:1;stroke-width:0.26458332px"
         id="path946"
         inkscape:connector-curvature="0" />
      <path
         d="m -11.072721,200.80662 q 0,-0.14605 -0.04763,-0.26353 -0.04445,-0.11747 -0.136525,-0.20002 -0.07302,-0.0635 -0.168275,-0.1016 -0.09525,-0.0413 -0.254,-0.0667 l -0.257175,-0.0381 q -0.1651,-0.0254 -0.254,-0.10477 -0.04445,-0.0413 -0.06667,-0.0921 -0.01905,-0.054 -0.01905,-0.11747 0,-0.1524 0.104775,-0.25083 0.10795,-0.1016 0.307975,-0.1016 0.142875,0 0.263525,0.0381 0.123825,0.0349 0.2286,0.13653 l 0.219075,-0.2159 q -0.14605,-0.13653 -0.31115,-0.19685 -0.1651,-0.0603 -0.390525,-0.0603 -0.1778,0 -0.3175,0.0476 -0.1397,0.0476 -0.238125,0.13652 -0.09525,0.0889 -0.149225,0.21273 -0.0508,0.12065 -0.0508,0.2667 0,0.27622 0.1651,0.4318 0.1524,0.14287 0.428625,0.18097 l 0.2667,0.0381 q 0.1016,0.0159 0.1524,0.0349 0.0508,0.019 0.09525,0.0603 0.0889,0.0794 0.0889,0.23495 0,0.1651 -0.123825,0.25718 -0.12065,0.0889 -0.3429,0.0889 -0.174625,0 -0.314325,-0.0444 -0.1397,-0.0476 -0.263525,-0.17145 l -0.2286,0.22542 q 0.161925,0.1651 0.352425,0.23178 0.1905,0.0667 0.447675,0.0667 0.1778,0 0.327025,-0.0445 0.149225,-0.0444 0.257175,-0.13017 0.10795,-0.0857 0.168275,-0.20955 0.06033,-0.12383 0.06033,-0.2794 z"
         style="fill:#f4da98;fill-opacity:1;stroke-width:0.26458332px"
         id="path948"
         inkscape:connector-curvature="0" />
    </g>
    <g
       aria-label="INS"
       style="font-style:normal;font-variant:normal;font-weight:normal;font-stretch:normal;font-size:12px;line-height:100%;font-family:DIN;-inkscape-font-specification:DIN;text-align:center;letter-spacing:0px;word-spacing:0px;writing-mode:lr-tb;text-anchor:middle;display:inline;fill:#f4da98;fill-opacity:1;stroke:none;stroke-width:1px;stroke-linecap:butt;stroke-linejoin:miter;stroke-opacity:1"
       id="text991"
       transform="matrix(0.26458333,0,0,0.26458333,22.35863,125.56778)">
      <path
         d="m -53.592166,226.29483 v -8.544 h -1.296 v 8.544 z"
         id="path993"
         inkscape:connector-curvature="0" />
      <path
         d="m -44.917103,226.29483 v -8.544 h -1.296 v 6 l -3.948,-6 h -1.188 v 8.544 h 1.296 v -6.012 l 3.948,6.012 z"
         id="path995"
         inkscape:connector-curvature="0" />
      <path
         d="m -37.337228,223.85883 q 0,-0.552 -0.18,-0.996 -0.168,-0.444 -0.516,-0.756 -0.276,-0.24 -0.636,-0.384 -0.36,-0.156 -0.96,-0.252 l -0.972,-0.144 q -0.624,-0.096 -0.96,-0.396 -0.168,-0.156 -0.252,-0.348 -0.072,-0.204 -0.072,-0.444 0,-0.576 0.396,-0.948 0.408,-0.384 1.164,-0.384 0.54,0 0.996,0.144 0.468,0.132 0.864,0.516 l 0.828,-0.816 q -0.552,-0.516 -1.176,-0.744 -0.624,-0.228 -1.476,-0.228 -0.672,0 -1.2,0.18 -0.528,0.18 -0.9,0.516 -0.36,0.336 -0.564,0.804 -0.192,0.456 -0.192,1.008 0,1.044 0.624,1.632 0.576,0.54 1.62,0.684 l 1.008,0.144 q 0.384,0.06 0.576,0.132 0.192,0.072 0.36,0.228 0.336,0.3 0.336,0.888 0,0.624 -0.468,0.972 -0.456,0.336 -1.296,0.336 -0.66,0 -1.188,-0.168 -0.528,-0.18 -0.996,-0.648 l -0.864,0.852 q 0.612,0.624 1.332,0.876 0.72,0.252 1.692,0.252 0.672,0 1.236,-0.168 0.564,-0.168 0.972,-0.492 0.408,-0.324 0.636,-0.792 0.228,-0.468 0.228,-1.056 z"
         id="path997"
         inkscape:connector-curvature="0" />
    </g>
    <g
       aria-label="1"
       style="font-style:normal;font-variant:normal;font-weight:normal;font-stretch:normal;font-size:12px;line-height:100%;font-family:DIN;-inkscape-font-specification:DIN;text-align:center;letter-spacing:0px;word-spacing:0px;writing-mode:lr-tb;text-anchor:middle;display:inline;fill:#f4da98;fill-opacity:1;stroke:none;stroke-width:1px;stroke-linecap:butt;stroke-linejoin:miter;stroke-opacity:1"
       id="text1079-3"
       transform="matrix(0.26458333,0,0,0.26458333,-1.8470822e-4,174.50047)">
      <path
         d="m 67.846006,74.193283 v -8.544 h -1.224 l -1.668,1.44 v 1.356 l 1.668,-1.464 v 7.212 z"
         id="path1177-5"
         inkscape:connector-curvature="0" />
    </g>
    <g
       aria-label="2"
       style="font-style:normal;font-variant:normal;font-weight:normal;font-stretch:normal;font-size:12px;line-height:100%;font-family:DIN;-inkscape-font-specification:DIN;text-align:center;letter-spacing:0px;word-spacing:0px;writing-mode:lr-tb;text-anchor:middle;display:inline;fill:#f4da98;fill-opacity:1;stroke:none;stroke-width:1px;stroke-linecap:butt;stroke-linejoin:miter;stroke-opacity:1"
       id="text1083-6"
       transform="matrix(0.26458333,0,0,0.26458333,-1.8470822e-4,174.50047)">
      <path
         d="m 68.884004,119.58361 v -1.092 h -3.48 l 2.676,-3.276 q 0.396,-0.48 0.6,-0.876 0.204,-0.408 0.204,-0.972 0,-0.552 -0.18,-0.996 -0.18,-0.444 -0.504,-0.756 -0.324,-0.312 -0.78,-0.48 -0.456,-0.168 -1.008,-0.168 -0.54,0 -0.996,0.18 -0.456,0.168 -0.792,0.48 -0.324,0.312 -0.516,0.768 -0.18,0.444 -0.18,0.984 h 1.224 q 0,-0.36 0.108,-0.612 0.108,-0.252 0.276,-0.408 0.18,-0.156 0.408,-0.228 0.228,-0.072 0.468,-0.072 0.6,0 0.924,0.36 0.324,0.36 0.324,0.936 0,0.324 -0.108,0.588 -0.108,0.252 -0.348,0.552 l -3.288,3.996 v 1.092 z"
         id="path1174-2"
         inkscape:connector-curvature="0" />
    </g>
    <g
       aria-label="3"
       style="font-style:normal;font-variant:normal;font-weight:normal;font-stretch:normal;font-size:12px;line-height:100%;font-family:DIN;-inkscape-font-specification:DIN;text-align:center;letter-spacing:0px;word-spacing:0px;writing-mode:lr-tb;text-anchor:middle;display:inline;fill:#f4da98;fill-opacity:1;stroke:none;stroke-width:1px;stroke-linecap:butt;stroke-linejoin:miter;stroke-opacity:1"
       id="text1087-9"
       transform="matrix(0.26458333,0,0,0.26458333,-1.8470822e-4,174.50047)">
      <path
         d="m 69.016006,162.50195 q 0,-0.792 -0.324,-1.284 -0.324,-0.492 -0.876,-0.732 0.504,-0.24 0.78,-0.684 0.288,-0.456 0.288,-1.14 0,-0.528 -0.192,-0.96 -0.18,-0.444 -0.516,-0.756 -0.324,-0.324 -0.78,-0.492 -0.456,-0.18 -0.996,-0.18 -0.516,0 -0.96,0.168 -0.444,0.156 -0.78,0.456 -0.336,0.3 -0.54,0.732 -0.204,0.432 -0.228,0.972 h 1.224 q 0.048,-0.576 0.384,-0.9 0.336,-0.324 0.9,-0.324 0.528,0 0.888,0.336 0.372,0.336 0.372,0.984 0,0.588 -0.312,0.948 -0.312,0.348 -0.984,0.348 h -0.204 v 1.068 h 0.204 q 0.72,0 1.068,0.384 0.36,0.372 0.36,1.02 0,0.684 -0.396,1.056 -0.396,0.36 -0.996,0.36 -0.264,0 -0.516,-0.072 -0.24,-0.072 -0.432,-0.228 -0.18,-0.168 -0.312,-0.408 -0.12,-0.24 -0.132,-0.588 h -1.224 q 0.012,0.624 0.228,1.08 0.228,0.456 0.588,0.756 0.36,0.288 0.816,0.432 0.468,0.132 0.984,0.132 0.54,0 1.008,-0.156 0.48,-0.156 0.828,-0.468 0.36,-0.312 0.564,-0.78 0.216,-0.468 0.216,-1.08 z"
         id="path1171-1"
         inkscape:connector-curvature="0" />
    </g>
    <g
       aria-label="4"
       style="font-style:normal;font-variant:normal;font-weight:normal;font-stretch:normal;font-size:2.82222223px;line-height:100%;font-family:DIN;-inkscape-font-specification:DIN;text-align:center;letter-spacing:0px;word-spacing:0px;writing-mode:lr-tb;text-anchor:middle;fill:#f4da98;fill-opacity:1;stroke:none;stroke-width:0.26458332px;stroke-linecap:butt;stroke-linejoin:miter;stroke-opacity:1"
       id="text975"
       transform="translate(-10.27759,4.3815976)">
      <path
         d="m 28.339814,225.355 v -0.26811 h -0.214489 v -0.46849 h -0.2794 v 0.46849 h -0.499533 l 0.705555,-1.43933 h -0.310444 l -0.708378,1.43933 v 0.26811 h 0.8128 v 0.30198 h 0.2794 V 225.355 Z"
         style="fill:#f4da98;fill-opacity:1;stroke-width:0.26458332px"
         id="path977"
         inkscape:connector-curvature="0" />
    </g>
    <path
       style="display:inline;fill:#f4da98;fill-opacity:1;stroke:none;stroke-width:0;stroke-miterlimit:4;stroke-dasharray:none;stroke-opacity:1"
       inkscape:transform-center-x="7.4234112"
       inkscape:transform-center-y="5.2919366"
       d="M 15.659997,265 A 5.5000006,5.5000006 0 0 1 10.16,270.5 5.5000006,5.5000006 0 0 1 4.6600024,265 5.5000006,5.5000006 0 0 1 10.16,259.5 5.5000006,5.5000006 0 0 1 15.659997,265 Z"
       id="path4964-7-5"
       inkscape:connector-curvature="0" />
    <path
       style="display:inline;fill:#f4da98;fill-opacity:1;stroke:none;stroke-width:0;stroke-miterlimit:4;stroke-dasharray:none;stroke-opacity:1"
       inkscape:transform-center-x="7.4234112"
       inkscape:transform-center-y="5.2919366"
       d="M 15.659997,277 A 5.5000006,5.5000006 0 0 1 10.16,282.5 5.5000006,5.5000006 0 0 1 4.6600024,277 5.5000006,5.5000006 0 0 1 10.16,271.5 5.5000006,5.5000006 0 0 1 15.659997,277 Z"
       id="path4964-7-5-5"
       inkscape:connector-curvature="0" />
    <g
       transform="matrix(0.35277777,0,0,-0.35277777,11.14927,292.38842)"
       id="g3796"
       style="display:inline;fill:#f4da98;fill-opacity:1;stroke:none">
      <path
         inkscape:connector-curvature="0"
         id="path3798"
         style="fill:#f4da98;fill-opacity:1;fill-rule:nonzero;stroke:none"
         d="M 0,0 C 0,1.873 0.16,3.703 0.479,5.492 -1.353,5.898 -2.27,6.65 -2.27,7.76 c 0,0.873 0.492,1.306 1.47,1.306 0.513,0 1.141,-0.242 1.885,-0.734 1.445,5.092 3.802,9.383 7.06,12.887 -0.702,0.105 -1.413,0.178 -2.143,0.178 -7.952,0 -14.399,-6.448 -14.399,-14.401 0,-6.057 3.745,-11.232 9.043,-13.357 C 0.223,-4.273 0,-2.152 0,0" />
    </g>
    <g
       transform="matrix(0.35277777,0,0,-0.35277777,11.982952,289.76397)"
       id="g3800"
       style="display:inline;fill:#f4da98;fill-opacity:1;stroke:none">
      <path
         inkscape:connector-curvature="0"
         id="path3802"
         style="fill:#f4da98;fill-opacity:1;fill-rule:nonzero;stroke:none"
         d="m 0,0 c 0.275,-0.191 0.487,-0.359 0.638,-0.51 1.575,0.362 3.15,1.287 4.725,2.778 1.319,1.279 2.448,2.757 3.385,4.439 1.193,2.109 1.756,3.885 1.693,5.332 h 0.357 C 9.394,12.846 7.845,13.422 6.194,13.717 L 7.025,12.936 C 3.638,9.379 1.297,5.068 0,0" />
    </g>
    <g
       transform="matrix(0.35277777,0,0,-0.35277777,16.177381,285.76075)"
       id="g3804"
       style="display:inline;fill:#f4da98;fill-opacity:1;stroke:none">
      <path
         inkscape:connector-curvature="0"
         id="path3806"
         style="fill:#f4da98;fill-opacity:1;fill-rule:nonzero;stroke:none"
         d="m 0,0 c -0.115,-1.566 -0.734,-3.357 -1.863,-5.375 -0.96,-1.703 -2.098,-3.213 -3.416,-4.535 -1.535,-1.488 -3.111,-2.524 -4.726,-3.098 2.51,-2.765 3.947,-5.92 4.31,-9.451 0.934,0.619 1.937,1.172 3,1.66 l 0.606,-1.342 c -1.765,-0.808 -3.393,-1.837 -4.885,-3.093 l -0.956,1.119 0.828,0.666 c -0.147,3.98 -1.681,7.322 -4.597,10.025 l -0.638,-0.031 c -0.3,-1.787 -0.45,-3.567 -0.45,-5.332 0,-2.432 0.27,-4.731 0.798,-6.895 1.194,-0.322 2.443,-0.508 3.738,-0.508 7.953,0 14.4,6.446 14.4,14.399 C 6.149,-6.91 3.715,-2.604 0,0" />
    </g>
    <g
       aria-label="MIDI"
       style="font-style:normal;font-variant:normal;font-weight:normal;font-stretch:normal;font-size:4.23333311px;line-height:1.25;font-family:DIN;-inkscape-font-specification:DIN;text-align:center;letter-spacing:0px;word-spacing:0px;text-anchor:middle;fill:#f4da98;fill-opacity:1;stroke:none;stroke-width:0.26458332"
       id="text935">
      <path
         d="m 8.8370925,177 v -3.01413 h -0.4572 l -0.8635999,1.87536 -0.8805333,-1.87536 h -0.4572 V 177 h 0.4572 v -2.01507 l 0.7112,1.46897 h 0.3386666 l 0.6942666,-1.46897 V 177 Z"
         style="fill:#f4da98;fill-opacity:1;stroke-width:0.26458332"
         id="path954" />
      <path
         d="m 10.077458,177 v -3.01413 H 9.6202579 V 177 Z"
         style="fill:#f4da98;fill-opacity:1;stroke-width:0.26458332"
         id="path956" />
      <path
         d="m 13.006919,175.47177 q 0,-0.1651 -0.0042,-0.32597 0,-0.16087 -0.0254,-0.31327 -0.0254,-0.15663 -0.0889,-0.29633 -0.0635,-0.14393 -0.186267,-0.2667 -0.143933,-0.14393 -0.3429,-0.21167 -0.198967,-0.072 -0.436033,-0.072 H 10.864852 V 177 h 1.058334 q 0.237066,0 0.436033,-0.0677 0.198967,-0.072 0.3429,-0.2159 0.122767,-0.12277 0.186267,-0.27094 0.0635,-0.14816 0.0889,-0.30903 0.0254,-0.16087 0.0254,-0.3302 0.0042,-0.16933 0.0042,-0.33443 z m -0.4572,0 q 0,0.31326 -0.02117,0.55033 -0.02117,0.23283 -0.1397,0.36407 -0.186266,0.2032 -0.512233,0.2032 h -0.554567 v -2.19287 h 0.554567 q 0.325967,0 0.512233,0.2032 0.118534,0.13123 0.1397,0.34713 0.02117,0.21167 0.02117,0.52494 z"
         style="fill:#f4da98;fill-opacity:1;stroke-width:0.26458332"
         id="path958" />
      <path
         d="m 14.141446,177 v -3.01413 h -0.4572 V 177 Z"
         style="fill:#f4da98;fill-opacity:1;stroke-width:0.26458332"
         id="path960" />
    </g>
    <g
       aria-label="Merger"
       style="font-style:normal;font-variant:normal;font-weight:normal;font-stretch:normal;font-size:4.23333311px;line-height:1.25;font-family:DIN;-inkscape-font-specification:DIN;text-align:center;letter-spacing:0px;word-spacing:0px;text-anchor:middle;fill:#f4da98;fill-opacity:1;stroke:none;stroke-width:0.26458332"
       id="text939">
      <path
         d="m 6.2568763,180.70419 v -3.01413 h -0.4572 l -0.8636,1.87537 -0.8805332,-1.87537 h -0.4572 v 3.01413 h 0.4572 v -2.01506 l 0.7111999,1.46896 h 0.3386667 l 0.6942666,-1.46896 v 2.01506 z"
         style="fill:#f4da98;fill-opacity:1;stroke-width:0.26458332"
         id="path941" />
      <path
         d="m 8.6995082,179.75593 v -0.1905 q 0,-0.2286 -0.0635,-0.4191 -0.059267,-0.1905 -0.1778,-0.32597 -0.1143,-0.13547 -0.2836333,-0.21167 -0.1693333,-0.0762 -0.3852333,-0.0762 -0.4148666,0 -0.6646333,0.28787 -0.2455333,0.28363 -0.2455333,0.80857 0,0.3048 0.0762,0.51646 0.0762,0.21167 0.2032,0.3429 0.1312333,0.127 0.3047999,0.18627 0.1778,0.055 0.381,0.055 0.1397,0 0.2497667,-0.0212 0.1143,-0.0212 0.2074333,-0.0635 0.097367,-0.0423 0.1778,-0.1016 0.084667,-0.0635 0.1693333,-0.14817 l -0.2751666,-0.25823 q -0.1143,0.1143 -0.2286,0.16933 -0.1100667,0.0508 -0.2921,0.0508 -0.2667,0 -0.4064,-0.16087 -0.1397,-0.16086 -0.1397,-0.44026 z m -0.4275666,-0.30057 h -0.9652 q 0.00423,-0.0974 0.0127,-0.15663 0.00847,-0.0635 0.042333,-0.13547 0.0508,-0.12277 0.1608666,-0.19473 0.1143,-0.0762 0.2667,-0.0762 0.1524,0 0.2624667,0.0762 0.1100666,0.072 0.1608666,0.19473 0.033867,0.072 0.042333,0.13547 0.0127,0.0593 0.016933,0.15663 z"
         style="fill:#f4da98;fill-opacity:1;stroke-width:0.26458332"
         id="path943" />
      <path
         d="m 10.778073,178.73569 q -0.110067,-0.11006 -0.232834,-0.15663 -0.122766,-0.0466 -0.2794,-0.0466 -0.182033,0 -0.3344329,0.072 -0.1524,0.072 -0.2370666,0.18627 v -0.23284 H 9.2710061 v 2.1463 h 0.4318 v -1.30386 q 0,-0.22437 0.1227667,-0.35137 0.127,-0.13123 0.3048002,-0.13123 0.110066,0 0.1778,0.0381 0.07197,0.0339 0.143933,0.10583 z"
         style="fill:#f4da98;fill-opacity:1;stroke-width:0.26458332"
         id="path945" />
      <path
         d="m 12.632263,180.69149 v -2.1336 h -0.4191 v 0.2286 q -0.122766,-0.14816 -0.258233,-0.19896 -0.131233,-0.055 -0.3048,-0.055 -0.3302,0 -0.516467,0.18627 -0.156633,0.15663 -0.198966,0.37677 -0.04233,0.22013 -0.04233,0.4953 0,0.27516 0.04233,0.4953 0.04233,0.22013 0.198966,0.37676 0.0889,0.0889 0.220134,0.1397 0.131233,0.0508 0.2921,0.0508 0.1651,0 0.300566,-0.0508 0.135467,-0.055 0.254,-0.19473 v 0.27517 q 0,0.11006 -0.02963,0.20743 -0.0254,0.0974 -0.0889,0.17357 -0.05927,0.0762 -0.156633,0.11853 -0.09313,0.0466 -0.2286,0.0466 -0.160867,0 -0.262467,-0.0466 -0.1016,-0.0466 -0.2032,-0.14393 l -0.275167,0.27516 q 0.169334,0.15664 0.338667,0.22014 0.173567,0.0635 0.4191,0.0635 0.2159,0 0.385233,-0.0677 0.169334,-0.0677 0.287867,-0.1905 0.118533,-0.11853 0.182033,-0.28363 0.0635,-0.1651 0.0635,-0.36407 z m -0.4318,-1.10066 q 0,0.127 -0.0127,0.24976 -0.0127,0.11854 -0.05927,0.2159 -0.04657,0.0931 -0.135467,0.1524 -0.08467,0.055 -0.2286,0.055 -0.148167,0 -0.237067,-0.055 -0.08467,-0.0593 -0.131233,-0.1524 -0.04233,-0.0974 -0.05927,-0.2159 -0.0127,-0.12276 -0.0127,-0.24976 0,-0.127 0.0127,-0.24554 0.01693,-0.12276 0.05927,-0.2159 0.04657,-0.0974 0.131233,-0.1524 0.0889,-0.0593 0.237067,-0.0593 0.143933,0 0.2286,0.0593 0.0889,0.055 0.135467,0.1524 0.04657,0.0931 0.05927,0.2159 0.0127,0.11854 0.0127,0.24554 z"
         style="fill:#f4da98;fill-opacity:1;stroke-width:0.26458332"
         id="path947" />
      <path
         d="m 15.028329,179.75593 v -0.1905 q 0,-0.2286 -0.0635,-0.4191 -0.05927,-0.1905 -0.1778,-0.32597 -0.1143,-0.13547 -0.283633,-0.21167 -0.169334,-0.0762 -0.385234,-0.0762 -0.414866,0 -0.664633,0.28787 -0.245533,0.28363 -0.245533,0.80857 0,0.3048 0.0762,0.51646 0.0762,0.21167 0.2032,0.3429 0.131233,0.127 0.3048,0.18627 0.1778,0.055 0.381,0.055 0.1397,0 0.249766,-0.0212 0.1143,-0.0212 0.207434,-0.0635 0.09737,-0.0423 0.1778,-0.1016 0.08467,-0.0635 0.169333,-0.14817 l -0.275167,-0.25823 q -0.1143,0.1143 -0.2286,0.16933 -0.110066,0.0508 -0.2921,0.0508 -0.2667,0 -0.4064,-0.16087 -0.1397,-0.16086 -0.1397,-0.44026 z m -0.427567,-0.30057 h -0.9652 q 0.0042,-0.0974 0.0127,-0.15663 0.0085,-0.0635 0.04233,-0.13547 0.0508,-0.12277 0.160866,-0.19473 0.1143,-0.0762 0.2667,-0.0762 0.1524,0 0.262467,0.0762 0.110067,0.072 0.160867,0.19473 0.03387,0.072 0.04233,0.13547 0.0127,0.0593 0.01693,0.15663 z"
         style="fill:#f4da98;fill-opacity:1;stroke-width:0.26458332"
         id="path949" />
      <path
         d="m 17.106894,178.73569 q -0.110067,-0.11006 -0.232833,-0.15663 -0.122767,-0.0466 -0.2794,-0.0466 -0.182034,0 -0.334434,0.072 -0.1524,0.072 -0.237066,0.18627 v -0.23284 h -0.423334 v 2.1463 h 0.4318 v -1.30386 q 0,-0.22437 0.122767,-0.35137 0.127,-0.13123 0.3048,-0.13123 0.110067,0 0.1778,0.0381 0.07197,0.0339 0.143933,0.10583 z"
         style="fill:#f4da98;fill-opacity:1;stroke-width:0.26458332"
         id="path951" />
    </g>
  </g>
</svg>
