<?xml version="1.0" encoding="UTF-8" standalone="no"?>
<!-- Created with Inkscape (http://www.inkscape.org/) -->

<svg
   xmlns:dc="http://purl.org/dc/elements/1.1/"
   xmlns:cc="http://creativecommons.org/ns#"
   xmlns:rdf="http://www.w3.org/1999/02/22-rdf-syntax-ns#"
   xmlns:svg="http://www.w3.org/2000/svg"
   xmlns="http://www.w3.org/2000/svg"
   xmlns:xlink="http://www.w3.org/1999/xlink"
   xmlns:sodipodi="http://sodipodi.sourceforge.net/DTD/sodipodi-0.dtd"
   xmlns:inkscape="http://www.inkscape.org/namespaces/inkscape"
   version="1.1"
   id="svg2"
   xml:space="preserve"
   width="20.32mm"
   height="128.5mm"
   viewBox="0 0 76.8 485.66931"
   sodipodi:docname="MIDI_CV.svg"
   inkscape:version="0.92.5 (2060ec1f9f, 2020-04-08)"><metadata
     id="metadata8"><rdf:RDF><cc:Work
         rdf:about=""><dc:format>image/svg+xml</dc:format><dc:type
           rdf:resource="http://purl.org/dc/dcmitype/StillImage" /><dc:title /></cc:Work></rdf:RDF></metadata><defs
     id="defs6"><linearGradient
       inkscape:collect="always"
       xlink:href="#linearGradient1109"
       id="linearGradient4954"
       gradientUnits="userSpaceOnUse"
       x1="110.74702"
       y1="130.87947"
       x2="111.50298"
       y2="242.57143"
       gradientTransform="matrix(1.6778741,0,0,3.7785313,-141.62743,-474.32299)" /><linearGradient
       inkscape:collect="always"
       id="linearGradient1109"><stop
         style="stop-color:#333131;stop-opacity:1"
         offset="0"
         id="stop1105" /><stop
         style="stop-color:#292727;stop-opacity:1"
         offset="1"
         id="stop1107" /></linearGradient><clipPath
       id="clipPath918"
       clipPathUnits="userSpaceOnUse"><path
         inkscape:connector-curvature="0"
         id="path916"
         d="M 0,472.252 H 165.6 V 0 H 0 Z" /></clipPath><clipPath
       id="clipPath1074"
       clipPathUnits="userSpaceOnUse"><path
         inkscape:connector-curvature="0"
         id="path1072"
         d="M 0,472.252 H 165.6 V 0 H 0 Z" /></clipPath><clipPath
       id="clipPath982"
       clipPathUnits="userSpaceOnUse"><path
         inkscape:connector-curvature="0"
         id="path980-3"
         d="M 0,500 H 200 V 0 H 0 Z" /></clipPath></defs><sodipodi:namedview
     pagecolor="#ffffff"
     bordercolor="#666666"
     borderopacity="1"
     objecttolerance="10"
     gridtolerance="10"
     guidetolerance="10"
     inkscape:pageopacity="0"
     inkscape:pageshadow="2"
     inkscape:window-width="1920"
     inkscape:window-height="1033"
     id="namedview4"
     showgrid="false"
     inkscape:zoom="1.6360509"
     inkscape:cx="-224.05057"
     inkscape:cy="236.02208"
     inkscape:window-x="0"
     inkscape:window-y="0"
     inkscape:window-maximized="1"
     inkscape:current-layer="layer3"
     inkscape:document-units="mm"
     units="mm"
     showguides="true"
     inkscape:guide-bbox="true"
     inkscape:snap-bbox="true"
     inkscape:snap-bbox-midpoints="true"
     inkscape:snap-text-baseline="true"
     inkscape:bbox-nodes="true"
     inkscape:snap-bbox-edge-midpoints="true"><sodipodi:guide
       position="123.61018,453.54333"
       orientation="0,1"
       id="guide928"
       inkscape:locked="false"
       inkscape:label=""
       inkscape:color="rgb(0,0,255)" /><sodipodi:guide
       position="121.02314,120.94489"
       orientation="0,1"
       id="guide934"
       inkscape:locked="false"
       inkscape:label=""
       inkscape:color="rgb(0,0,255)" /><sodipodi:guide
       position="168.08769,166.29923"
       orientation="0,1"
       id="guide936"
       inkscape:locked="false"
       inkscape:label=""
       inkscape:color="rgb(0,0,255)" /><sodipodi:guide
       position="-103.90875,253.22836"
       orientation="0,1"
       id="guide942"
       inkscape:locked="false"
       inkscape:label=""
       inkscape:color="rgb(0,0,255)" /><sodipodi:guide
       position="-19.559295,400.62995"
       orientation="0,1"
       id="guide946"
       inkscape:locked="false"
       inkscape:label=""
       inkscape:color="rgb(0,0,255)" /><sodipodi:guide
       position="19.233053,425.19689"
       orientation="0,1"
       id="guide893"
       inkscape:locked="false"
       inkscape:label=""
       inkscape:color="rgb(0,0,255)" /><sodipodi:guide
       position="-66.01262,75.590556"
       orientation="0,1"
       id="guide898"
       inkscape:locked="false"
       inkscape:label=""
       inkscape:color="rgb(0,0,255)" /><sodipodi:guide
       position="38.400002,330.0631"
       orientation="1,0"
       id="guide932"
       inkscape:locked="false"
       inkscape:label=""
       inkscape:color="rgb(0,0,255)" /><sodipodi:guide
       position="-31.47824,313.70081"
       orientation="0,1"
       id="guide1252"
       inkscape:locked="false"
       inkscape:label=""
       inkscape:color="rgb(0,0,255)" /><sodipodi:guide
       position="-72.124899,355.2756"
       orientation="0,1"
       id="guide1341"
       inkscape:locked="false"
       inkscape:label=""
       inkscape:color="rgb(0,0,255)" /></sodipodi:namedview><g
     inkscape:groupmode="layer"
     id="layer2"
     inkscape:label="BG"
     style="display:inline"
     transform="translate(0,-4.924933e-6)"><path
       inkscape:connector-curvature="0"
       id="path1099"
       d="M 3.3333341e-7,-8.280696e-6 H 76.800003 V 485.66931 H 3.3333341e-7 Z"
       style="display:inline;fill:url(#linearGradient4954);fill-opacity:1;stroke:#6e6e6e;stroke-width:0;stroke-miterlimit:4;stroke-dasharray:none;stroke-opacity:1" /></g><g
     inkscape:groupmode="layer"
     id="layer3"
     inkscape:label="Layer 1"
     style="display:inline"><path
   style="display:inline;fill:#f4da98;fill-opacity:1;stroke:none;stroke-width:0;stroke-miterlimit:4;stroke-dasharray:none;stroke-opacity:1"
   inkscape:transform-center-x="7.4234112"
   inkscape:transform-center-y="5.2919366"
   d="m 59.187404,410.07877 a 20.787404,20.787404 0 0 1 -20.7874,20.7874 20.787404,20.787404 0 0 1 -20.787404,-20.7874 20.787404,20.787404 0 0 1 20.787404,-20.78741 20.787404,20.787404 0 0 1 20.7874,20.78741 z"
   id="path4964-1"
   inkscape:connector-curvature="0" /><path
   style="display:inline;fill:#f4da98;fill-opacity:1;stroke:none;stroke-width:0;stroke-miterlimit:4;stroke-dasharray:none;stroke-opacity:1"
   inkscape:transform-center-x="7.4234112"
   inkscape:transform-center-y="5.2919366"
   d="m 59.187402,364.72443 a 20.787404,20.787404 0 0 1 -20.7874,20.78741 20.787404,20.787404 0 0 1 -20.7874,-20.78741 20.787404,20.787404 0 0 1 20.7874,-20.78742 20.787404,20.787404 0 0 1 20.7874,20.78742 z"
   id="path4964-2"
   inkscape:connector-curvature="0" /><path
   style="display:inline;fill:#f4da98;fill-opacity:1;stroke:none;stroke-width:0;stroke-miterlimit:4;stroke-dasharray:none;stroke-opacity:1"
   inkscape:transform-center-x="7.4234112"
   inkscape:transform-center-y="5.2919366"
   d="m 59.187407,319.3701 a 20.787404,20.787404 0 0 1 -20.78741,20.78741 20.787404,20.787404 0 0 1 -20.7874,-20.78741 20.787404,20.787404 0 0 1 20.7874,-20.78741 20.787404,20.787404 0 0 1 20.78741,20.78741 z"
   id="path4964-7"
   inkscape:connector-curvature="0" /><g
   aria-label="OUTS"
   style="font-style:normal;font-variant:normal;font-weight:normal;font-stretch:normal;font-size:3.17499995px;line-height:100%;font-family:DIN;-inkscape-font-specification:DIN;text-align:center;letter-spacing:0px;word-spacing:0px;writing-mode:lr-tb;text-anchor:middle;display:inline;fill:#f4da98;fill-opacity:1;stroke:none;stroke-width:0.26458332px;stroke-linecap:butt;stroke-linejoin:miter;stroke-opacity:1"
   id="text940"
   transform="matrix(3.7795278,0,0,3.7795278,94.156083,-470.33731)"><path
     d="m -16.920475,200.32084 q 0,-0.16192 -0.0032,-0.2921 -0.0032,-0.13335 -0.02223,-0.2413 -0.01905,-0.10795 -0.0635,-0.20002 -0.04445,-0.0921 -0.127,-0.17463 -0.117475,-0.11747 -0.2667,-0.1778 -0.149225,-0.0635 -0.3302,-0.0635 -0.180975,0 -0.3302,0.0635 -0.14605,0.0603 -0.263525,0.1778 -0.08255,0.0825 -0.127,0.17463 -0.04445,0.0921 -0.06668,0.20002 -0.01905,0.10795 -0.02222,0.2413 -0.0032,0.13018 -0.0032,0.2921 0,0.16193 0.0032,0.29528 0.0032,0.13017 0.02222,0.23812 0.02223,0.10795 0.06668,0.20003 0.04445,0.0921 0.127,0.17462 0.117475,0.11748 0.263525,0.18098 0.149225,0.0603 0.3302,0.0603 0.180975,0 0.3302,-0.0603 0.149225,-0.0635 0.2667,-0.18098 0.08255,-0.0825 0.127,-0.17462 0.04445,-0.0921 0.0635,-0.20003 0.01905,-0.10795 0.02223,-0.23812 0.0032,-0.13335 0.0032,-0.29528 z m -0.3429,0 q 0,0.17145 -0.0064,0.28575 -0.0032,0.11113 -0.01905,0.1905 -0.0127,0.0762 -0.04127,0.13018 -0.0254,0.0508 -0.06668,0.0952 -0.06032,0.0635 -0.149225,0.1016 -0.08573,0.0381 -0.187325,0.0381 -0.1016,0 -0.1905,-0.0381 -0.08573,-0.0381 -0.14605,-0.1016 -0.04127,-0.0444 -0.06985,-0.0952 -0.0254,-0.054 -0.04127,-0.13018 -0.0127,-0.0794 -0.01905,-0.1905 -0.0032,-0.1143 -0.0032,-0.28575 0,-0.17145 0.0032,-0.28257 0.0063,-0.1143 0.01905,-0.1905 0.01587,-0.0794 0.04127,-0.13018 0.02858,-0.054 0.06985,-0.0984 0.06033,-0.0635 0.14605,-0.1016 0.0889,-0.0381 0.1905,-0.0381 0.1016,0 0.187325,0.0381 0.0889,0.0381 0.149225,0.1016 0.04127,0.0445 0.06668,0.0984 0.02858,0.0508 0.04127,0.13018 0.01588,0.0762 0.01905,0.1905 0.0064,0.11112 0.0064,0.28257 z"
     style="fill:#f4da98;fill-opacity:1;stroke-width:0.26458332px"
     id="path942"
     inkscape:connector-curvature="0" /><path
     d="m -14.823437,200.68914 v -1.4986 h -0.3429 v 1.48273 q 0,0.2286 -0.130175,0.35877 -0.127,0.13018 -0.339725,0.13018 -0.212725,0 -0.339725,-0.13018 -0.127,-0.13017 -0.127,-0.35877 v -1.48273 h -0.3429 v 1.4986 q 0,0.17463 0.06033,0.32068 0.0635,0.14287 0.17145,0.24447 0.10795,0.1016 0.257175,0.15875 0.149225,0.0572 0.320675,0.0572 0.17145,0 0.320675,-0.0572 0.149225,-0.0572 0.257175,-0.15875 0.111125,-0.1016 0.17145,-0.24447 0.0635,-0.14605 0.0635,-0.32068 z"
     style="fill:#f4da98;fill-opacity:1;stroke-width:0.26458332px"
     id="path944"
     inkscape:connector-curvature="0" /><path
     d="m -12.877857,199.49852 v -0.30798 h -1.5875 v 0.30798 h 0.6223 v 1.95262 h 0.3429 v -1.95262 z"
     style="fill:#f4da98;fill-opacity:1;stroke-width:0.26458332px"
     id="path946"
     inkscape:connector-curvature="0" /><path
     d="m -11.072721,200.80662 q 0,-0.14605 -0.04763,-0.26353 -0.04445,-0.11747 -0.136525,-0.20002 -0.07302,-0.0635 -0.168275,-0.1016 -0.09525,-0.0413 -0.254,-0.0667 l -0.257175,-0.0381 q -0.1651,-0.0254 -0.254,-0.10477 -0.04445,-0.0413 -0.06667,-0.0921 -0.01905,-0.054 -0.01905,-0.11747 0,-0.1524 0.104775,-0.25083 0.10795,-0.1016 0.307975,-0.1016 0.142875,0 0.263525,0.0381 0.123825,0.0349 0.2286,0.13653 l 0.219075,-0.2159 q -0.14605,-0.13653 -0.31115,-0.19685 -0.1651,-0.0603 -0.390525,-0.0603 -0.1778,0 -0.3175,0.0476 -0.1397,0.0476 -0.238125,0.13652 -0.09525,0.0889 -0.149225,0.21273 -0.0508,0.12065 -0.0508,0.2667 0,0.27622 0.1651,0.4318 0.1524,0.14287 0.428625,0.18097 l 0.2667,0.0381 q 0.1016,0.0159 0.1524,0.0349 0.0508,0.019 0.09525,0.0603 0.0889,0.0794 0.0889,0.23495 0,0.1651 -0.123825,0.25718 -0.12065,0.0889 -0.3429,0.0889 -0.174625,0 -0.314325,-0.0444 -0.1397,-0.0476 -0.263525,-0.17145 l -0.2286,0.22542 q 0.161925,0.1651 0.352425,0.23178 0.1905,0.0667 0.447675,0.0667 0.1778,0 0.327025,-0.0445 0.149225,-0.0444 0.257175,-0.13017 0.10795,-0.0857 0.168275,-0.20955 0.06033,-0.12383 0.06033,-0.2794 z"
     style="fill:#f4da98;fill-opacity:1;stroke-width:0.26458332px"
     id="path948"
     inkscape:connector-curvature="0" /></g><g
   aria-label="MODE"
   style="font-style:normal;font-variant:normal;font-weight:normal;font-stretch:normal;font-size:12px;line-height:100%;font-family:DIN;-inkscape-font-specification:DIN;text-align:center;letter-spacing:0px;word-spacing:0px;writing-mode:lr-tb;text-anchor:middle;fill:#f4da98;fill-opacity:1;stroke:none;stroke-width:1px;stroke-linecap:butt;stroke-linejoin:miter;stroke-opacity:1"
   id="text893"
   transform="translate(81.077338,-132.93171)"><path
     d="m -50.723336,365.30066 v -8.544 h -1.296 l -2.448,5.316 -2.496,-5.316 h -1.296 v 8.544 h 1.296 v -5.712 l 2.016,4.164 h 0.96 l 1.968,-4.164 v 5.712 z"
     id="path895"
     inkscape:connector-curvature="0" /><path
     d="m -42.677336,361.02866 q 0,-0.612 -0.012,-1.104 -0.012,-0.504 -0.084,-0.912 -0.072,-0.408 -0.24,-0.756 -0.168,-0.348 -0.48,-0.66 -0.444,-0.444 -1.008,-0.672 -0.564,-0.24 -1.248,-0.24 -0.684,0 -1.248,0.24 -0.552,0.228 -0.996,0.672 -0.312,0.312 -0.48,0.66 -0.168,0.348 -0.252,0.756 -0.072,0.408 -0.084,0.912 -0.012,0.492 -0.012,1.104 0,0.612 0.012,1.116 0.012,0.492 0.084,0.9 0.084,0.408 0.252,0.756 0.168,0.348 0.48,0.66 0.444,0.444 0.996,0.684 0.564,0.228 1.248,0.228 0.684,0 1.248,-0.228 0.564,-0.24 1.008,-0.684 0.312,-0.312 0.48,-0.66 0.168,-0.348 0.24,-0.756 0.072,-0.408 0.084,-0.9 0.012,-0.504 0.012,-1.116 z m -1.296,0 q 0,0.648 -0.024,1.08 -0.012,0.42 -0.072,0.72 -0.048,0.288 -0.156,0.492 -0.096,0.192 -0.252,0.36 -0.228,0.24 -0.564,0.384 -0.324,0.144 -0.708,0.144 -0.384,0 -0.72,-0.144 -0.324,-0.144 -0.552,-0.384 -0.156,-0.168 -0.264,-0.36 -0.096,-0.204 -0.156,-0.492 -0.048,-0.3 -0.072,-0.72 -0.012,-0.432 -0.012,-1.08 0,-0.648 0.012,-1.068 0.024,-0.432 0.072,-0.72 0.06,-0.3 0.156,-0.492 0.108,-0.204 0.264,-0.372 0.228,-0.24 0.552,-0.384 0.336,-0.144 0.72,-0.144 0.384,0 0.708,0.144 0.336,0.144 0.564,0.384 0.156,0.168 0.252,0.372 0.108,0.192 0.156,0.492 0.06,0.288 0.072,0.72 0.024,0.42 0.024,1.068 z"
     id="path897"
     inkscape:connector-curvature="0" /><path
     d="m -34.679523,360.96866 q 0,-0.468 -0.012,-0.924 0,-0.456 -0.072,-0.888 -0.072,-0.444 -0.252,-0.84 -0.18,-0.408 -0.528,-0.756 -0.408,-0.408 -0.972,-0.6 -0.564,-0.204 -1.236,-0.204 h -3 v 8.544 h 3 q 0.672,0 1.236,-0.192 0.564,-0.204 0.972,-0.612 0.348,-0.348 0.528,-0.768 0.18,-0.42 0.252,-0.876 0.072,-0.456 0.072,-0.936 0.012,-0.48 0.012,-0.948 z m -1.296,0 q 0,0.888 -0.06,1.56 -0.06,0.66 -0.396,1.032 -0.528,0.576 -1.452,0.576 h -1.572 v -6.216 h 1.572 q 0.924,0 1.452,0.576 0.336,0.372 0.396,0.984 0.06,0.6 0.06,1.488 z"
     id="path899"
     inkscape:connector-curvature="0" /><path
     d="m -27.299336,365.30066 v -1.164 h -4.164 v -2.568 h 3.552 v -1.152 h -3.552 v -2.496 h 4.164 v -1.164 h -5.46 v 8.544 z"
     id="path901"
     inkscape:connector-curvature="0" /></g><flowRoot
   xml:space="preserve"
   id="flowRoot918"
   style="font-style:normal;font-variant:normal;font-weight:normal;font-stretch:normal;font-size:13.33333302px;line-height:1.25;font-family:DIN;-inkscape-font-specification:DIN;text-align:center;writing-mode:lr-tb;text-anchor:middle;fill:#0000ff;fill-opacity:1;stroke:none;stroke-width:3.77952766;stroke-miterlimit:4;stroke-dasharray:none;stroke-opacity:1"><flowRegion
     id="flowRegion920"><rect
       id="rect922"
       width="36.737289"
       height="15.991526"
       x="-212.21187"
       y="46.982834" /></flowRegion><flowPara
     id="flowPara924" /></flowRoot><g
   aria-label="P"
   style="font-style:normal;font-variant:normal;font-weight:normal;font-stretch:normal;font-size:10.66666698px;line-height:1.25;font-family:DIN;-inkscape-font-specification:DIN;text-align:center;writing-mode:lr-tb;text-anchor:middle;fill:#f4da98;fill-opacity:1;stroke:none;stroke-width:3.77952766;stroke-miterlimit:4;stroke-dasharray:none;stroke-opacity:1"
   id="text1111"
   transform="translate(136.28465,-8.8027307)"><path
     d="m -69.228644,320.67949 q 0,-0.49067 -0.170666,-0.91734 -0.170667,-0.42666 -0.490667,-0.72533 -0.32,-0.30933 -0.768,-0.48 -0.448,-0.18133 -1.002667,-0.18133 h -2.88 v 7.59466 h 1.152 v -2.98666 h 1.728 q 0.554667,0 1.002667,-0.17067 0.448,-0.18133 0.768,-0.48 0.32,-0.30933 0.490667,-0.72533 0.170666,-0.42667 0.170666,-0.928 z m -1.152,0 q 0,0.608 -0.373333,0.93866 -0.362667,0.32 -0.970667,0.32 h -1.664 v -2.528 h 1.664 q 0.608,0 0.970667,0.33067 0.373333,0.33067 0.373333,0.93867 z"
     id="path1148"
     inkscape:connector-curvature="0" /></g><g
   aria-label="1"
   style="font-style:normal;font-variant:normal;font-weight:normal;font-stretch:normal;font-size:10.66666698px;line-height:1.25;font-family:DIN;-inkscape-font-specification:DIN;text-align:center;writing-mode:lr-tb;text-anchor:middle;fill:#f4da98;fill-opacity:1;stroke:none;stroke-width:3.77952766;stroke-miterlimit:4;stroke-dasharray:none;stroke-opacity:1"
   id="text1115"
   transform="translate(128.65501,2.7650493)"><path
     d="m -63.886515,326.40237 v -7.59466 h -1.088001 l -1.482666,1.28 v 1.20533 l 1.482666,-1.30133 v 6.41066 z"
     id="path1145"
     inkscape:connector-curvature="0" /></g><g
   aria-label="G"
   style="font-style:normal;font-variant:normal;font-weight:normal;font-stretch:normal;font-size:10.66666698px;line-height:1.25;font-family:DIN;-inkscape-font-specification:DIN;text-align:center;writing-mode:lr-tb;text-anchor:middle;fill:#f4da98;fill-opacity:1;stroke:none;stroke-width:3.77952766;stroke-miterlimit:4;stroke-dasharray:none;stroke-opacity:1"
   id="text1119"
   transform="translate(143.27179,26.394807)"><path
     d="m -76.119786,333.18295 v -1.16266 h -2.773333 v 0.98133 h 1.621333 v 0.42667 q 0,0.37333 -0.08533,0.66133 -0.08533,0.288 -0.298667,0.53333 -0.224,0.256 -0.544,0.39467 -0.32,0.13867 -0.693333,0.13867 -0.341334,0 -0.629334,-0.11734 -0.288,-0.128 -0.490666,-0.34133 -0.138667,-0.14933 -0.234667,-0.32 -0.08533,-0.18133 -0.138667,-0.43733 -0.04267,-0.26667 -0.064,-0.65067 -0.02133,-0.384 -0.02133,-0.96 0,-0.576 0.02133,-0.94933 0.02133,-0.384 0.064,-0.64 0.05333,-0.26667 0.138667,-0.43734 0.096,-0.18133 0.234667,-0.33066 0.202666,-0.21334 0.490666,-0.34134 0.288,-0.128 0.629334,-0.128 0.64,0 1.045333,0.352 0.405333,0.34134 0.554667,0.97067 h 1.162666 q -0.08533,-0.49067 -0.298666,-0.91733 -0.213334,-0.42667 -0.565334,-0.74667 -0.341333,-0.32 -0.821333,-0.50133 -0.469333,-0.192 -1.077333,-0.192 -0.608,0 -1.109334,0.21333 -0.490666,0.20267 -0.885333,0.59733 -0.277333,0.27734 -0.426667,0.58667 -0.149333,0.30933 -0.224,0.672 -0.064,0.36267 -0.07467,0.81067 -0.01067,0.43733 -0.01067,0.98133 0,0.544 0.01067,0.992 0.01067,0.43733 0.07467,0.8 0.07467,0.36267 0.224,0.672 0.149334,0.30933 0.426667,0.58667 0.394667,0.39466 0.896,0.608 0.501333,0.20266 1.098667,0.20266 0.608,0 1.130666,-0.20266 0.522667,-0.20267 0.96,-0.66134 0.373334,-0.40533 0.522667,-0.90666 0.16,-0.50134 0.16,-1.23734 z"
     id="path1142"
     inkscape:connector-curvature="0" /></g><g
   aria-label="2"
   style="font-style:normal;font-variant:normal;font-weight:normal;font-stretch:normal;font-size:10.66666698px;line-height:1.25;font-family:DIN;-inkscape-font-specification:DIN;text-align:center;writing-mode:lr-tb;text-anchor:middle;fill:#f4da98;fill-opacity:1;stroke:none;stroke-width:3.77952766;stroke-miterlimit:4;stroke-dasharray:none;stroke-opacity:1"
   id="text1123"
   transform="translate(125.30335,42.100542)"><path
     d="m -58.695347,332.45322 v -0.97067 h -3.093333 l 2.378667,-2.912 q 0.352,-0.42667 0.533333,-0.77867 0.181333,-0.36266 0.181333,-0.864 0,-0.49066 -0.16,-0.88533 -0.16,-0.39467 -0.448,-0.672 -0.288,-0.27733 -0.693333,-0.42667 -0.405333,-0.14933 -0.896,-0.14933 -0.48,0 -0.885334,0.16 -0.405333,0.14933 -0.704,0.42667 -0.288,0.27733 -0.458666,0.68266 -0.16,0.39467 -0.16,0.87467 h 1.088 q 0,-0.32 0.096,-0.544 0.096,-0.224 0.245333,-0.36267 0.16,-0.13866 0.362667,-0.20266 0.202667,-0.064 0.416,-0.064 0.533333,0 0.821333,0.32 0.288,0.32 0.288,0.832 0,0.288 -0.096,0.52266 -0.096,0.224 -0.309333,0.49067 l -2.922667,3.552 v 0.97067 z"
     id="path1139"
     inkscape:connector-curvature="0" /></g><g
   aria-label="V"
   style="font-style:normal;font-variant:normal;font-weight:normal;font-stretch:normal;font-size:10.66666698px;line-height:1.25;font-family:DIN;-inkscape-font-specification:DIN;text-align:center;writing-mode:lr-tb;text-anchor:middle;fill:#f4da98;fill-opacity:1;stroke:none;stroke-width:3.77952766;stroke-miterlimit:4;stroke-dasharray:none;stroke-opacity:1"
   id="text1127"
   transform="translate(139.38729,52.948295)"><path
     d="m -72.032626,347.33313 h -1.216 l -1.749333,5.52533 -1.749334,-5.52533 h -1.194666 l 2.496,7.59467 h 0.896 z"
     id="path1136"
     inkscape:connector-curvature="0" /></g><g
   aria-label="3"
   style="font-style:normal;font-variant:normal;font-weight:normal;font-stretch:normal;font-size:10.66666698px;line-height:1.25;font-family:DIN;-inkscape-font-specification:DIN;text-align:center;writing-mode:lr-tb;text-anchor:middle;fill:#f4da98;fill-opacity:1;stroke:none;stroke-width:3.77952766;stroke-miterlimit:4;stroke-dasharray:none;stroke-opacity:1"
   id="text1131"
   transform="translate(117.19815,66.0288)"><path
     d="m -50.472816,351.71396 q 0,-0.704 -0.288,-1.14134 -0.288,-0.43733 -0.778666,-0.65066 0.448,-0.21334 0.693333,-0.608 0.256,-0.40534 0.256,-1.01334 0,-0.46933 -0.170667,-0.85333 -0.16,-0.39467 -0.458666,-0.672 -0.288,-0.288 -0.693334,-0.43733 -0.405333,-0.16 -0.885333,-0.16 -0.458667,0 -0.853333,0.14933 -0.394667,0.13867 -0.693334,0.40533 -0.298666,0.26667 -0.48,0.65067 -0.181333,0.384 -0.202666,0.864 h 1.088 q 0.04267,-0.512 0.341333,-0.8 0.298667,-0.288 0.8,-0.288 0.469333,0 0.789333,0.29867 0.330667,0.29866 0.330667,0.87466 0,0.52267 -0.277333,0.84267 -0.277334,0.30933 -0.874667,0.30933 h -0.181333 v 0.94934 h 0.181333 q 0.64,0 0.949333,0.34133 0.32,0.33067 0.32,0.90667 0,0.608 -0.352,0.93866 -0.352,0.32 -0.885333,0.32 -0.234667,0 -0.458667,-0.064 -0.213333,-0.064 -0.384,-0.20266 -0.16,-0.14934 -0.277333,-0.36267 -0.106667,-0.21333 -0.117333,-0.52267 h -1.088 q 0.01067,0.55467 0.202666,0.96 0.202667,0.40534 0.522667,0.672 0.32,0.256 0.725333,0.384 0.416,0.11734 0.874667,0.11734 0.48,0 0.896,-0.13867 0.426667,-0.13867 0.736,-0.416 0.32,-0.27733 0.501333,-0.69333 0.192,-0.416 0.192,-0.96 z"
     id="path1133"
     inkscape:connector-curvature="0" /></g><text
   xml:space="preserve"
   style="font-style:normal;font-variant:normal;font-weight:normal;font-stretch:normal;font-size:10.66666698px;line-height:1.25;font-family:DIN;-inkscape-font-specification:DIN;text-align:center;writing-mode:lr-tb;text-anchor:middle;fill:#292727;fill-opacity:1;stroke:none;stroke-width:3.77952766;stroke-miterlimit:4;stroke-dasharray:none;stroke-opacity:1"
   x="-98.110184"
   y="222.02522"
   id="text1201"><tspan
     sodipodi:role="line"
     id="tspan1199"
     x="-98.110184"
     y="232.24745" /></text>






<g
   aria-label="CC"
   style="font-style:normal;font-variant:normal;font-weight:normal;font-stretch:normal;font-size:10.66666698px;line-height:1.25;font-family:DIN;-inkscape-font-specification:DIN;text-align:center;writing-mode:lr-tb;text-anchor:middle;fill:#f4da98;fill-opacity:1;stroke:none;stroke-width:3.77952766;stroke-miterlimit:4;stroke-dasharray:none;stroke-opacity:1"
   id="text1221"
   transform="translate(99.590093,3.8881663)"><path
     d="m -41.819411,265.13459 h -1.162667 q -0.138667,0.576 -0.522667,0.93866 -0.384,0.36267 -1.024,0.36267 -0.341333,0 -0.629333,-0.11733 -0.288,-0.128 -0.490667,-0.34134 -0.138666,-0.14933 -0.234666,-0.32 -0.08533,-0.18133 -0.138667,-0.43733 -0.04267,-0.26667 -0.064,-0.65067 -0.02133,-0.384 -0.02133,-0.96 0,-0.576 0.02133,-0.96 0.02133,-0.384 0.064,-0.64 0.05333,-0.26666 0.138667,-0.43733 0.096,-0.18133 0.234666,-0.33067 0.202667,-0.21333 0.490667,-0.33066 0.288,-0.128 0.629333,-0.128 0.64,0 1.013334,0.36266 0.384,0.36267 0.522666,0.93867 h 1.173334 q -0.202667,-1.14133 -0.928,-1.73867 -0.725334,-0.59733 -1.781334,-0.59733 -0.597333,0 -1.098666,0.21333 -0.501334,0.20267 -0.896,0.59734 -0.277334,0.27733 -0.426667,0.58666 -0.149333,0.30934 -0.224,0.672 -0.064,0.36267 -0.07467,0.81067 -0.01067,0.43733 -0.01067,0.98133 0,0.544 0.01067,0.992 0.01067,0.43734 0.07467,0.8 0.07467,0.36267 0.224,0.672 0.149333,0.30934 0.426667,0.58667 0.394666,0.39467 0.896,0.608 0.501333,0.20267 1.098666,0.20267 0.512,0 0.96,-0.14934 0.458667,-0.14933 0.810667,-0.448 0.362667,-0.29866 0.597333,-0.736 0.245334,-0.43733 0.341334,-1.00266 z"
     id="path1231"
     inkscape:connector-curvature="0" /><path
     d="m -35.120762,265.13459 h -1.162667 q -0.138666,0.576 -0.522666,0.93866 -0.384,0.36267 -1.024,0.36267 -0.341334,0 -0.629334,-0.11733 -0.288,-0.128 -0.490666,-0.34134 -0.138667,-0.14933 -0.234667,-0.32 -0.08533,-0.18133 -0.138667,-0.43733 -0.04267,-0.26667 -0.064,-0.65067 -0.02133,-0.384 -0.02133,-0.96 0,-0.576 0.02133,-0.96 0.02133,-0.384 0.064,-0.64 0.05333,-0.26666 0.138667,-0.43733 0.096,-0.18133 0.234667,-0.33067 0.202666,-0.21333 0.490666,-0.33066 0.288,-0.128 0.629334,-0.128 0.64,0 1.013333,0.36266 0.384,0.36267 0.522667,0.93867 h 1.173333 q -0.202666,-1.14133 -0.928,-1.73867 -0.725333,-0.59733 -1.781333,-0.59733 -0.597334,0 -1.098667,0.21333 -0.501333,0.20267 -0.896,0.59734 -0.277333,0.27733 -0.426667,0.58666 -0.149333,0.30934 -0.224,0.672 -0.064,0.36267 -0.07467,0.81067 -0.01067,0.43733 -0.01067,0.98133 0,0.544 0.01067,0.992 0.01067,0.43734 0.07467,0.8 0.07467,0.36267 0.224,0.672 0.149334,0.30934 0.426667,0.58667 0.394667,0.39467 0.896,0.608 0.501333,0.20267 1.098667,0.20267 0.512,0 0.96,-0.14934 0.458666,-0.14933 0.810667,-0.448 0.362666,-0.29866 0.597333,-0.736 0.245333,-0.43733 0.341333,-1.00266 z"
     id="path1233"
     inkscape:connector-curvature="0" /></g><flowRoot
   xml:space="preserve"
   id="flowRoot1223"
   style="font-style:normal;font-variant:normal;font-weight:normal;font-stretch:normal;font-size:10.66666698px;line-height:1.25;font-family:DIN;-inkscape-font-specification:DIN;text-align:center;writing-mode:lr-tb;text-anchor:middle;fill:#f4da98;fill-opacity:1;stroke:none;stroke-width:3.77952766;stroke-miterlimit:4;stroke-dasharray:none;stroke-opacity:1"><flowRegion
     id="flowRegion1225"><rect
       id="rect1227"
       width="77.580513"
       height="73.906784"
       x="-131.60594"
       y="206.24979" /></flowRegion><flowPara
     id="flowPara1229" /></flowRoot><flowRoot
   xml:space="preserve"
   id="flowRoot1277"
   style="font-style:normal;font-variant:normal;font-weight:normal;font-stretch:normal;font-size:10.66666698px;line-height:1.25;font-family:DIN;-inkscape-font-specification:DIN;text-align:center;writing-mode:lr-tb;text-anchor:middle;fill:#f4da98;fill-opacity:1;stroke:none;stroke-width:3.77952766;stroke-miterlimit:4;stroke-dasharray:none;stroke-opacity:1"><flowRegion
     id="flowRegion1279"><rect
       id="rect1281"
       width="74.569809"
       height="70.291214"
       x="-152.50137"
       y="212.45041" /></flowRegion><flowPara
     id="flowPara1283" /></flowRoot><text
   xml:space="preserve"
   style="font-style:normal;font-variant:normal;font-weight:normal;font-stretch:normal;font-size:12px;line-height:1.25;font-family:DIN;-inkscape-font-specification:DIN;text-align:center;writing-mode:lr-tb;text-anchor:middle;fill:#f4da98;fill-opacity:1;stroke:none;stroke-width:3.77952766;stroke-miterlimit:4;stroke-dasharray:none;stroke-opacity:1"
   x="-67.639839"
   y="171.24132"
   id="text1318"><tspan
     sodipodi:role="line"
     id="tspan1316"
     x="-67.639839"
     y="182.74132" /></text>






<g
   aria-label="1"
   style="font-style:normal;font-variant:normal;font-weight:normal;font-stretch:normal;font-size:10.66666698px;line-height:1.25;font-family:DIN;-inkscape-font-specification:DIN;text-align:center;writing-mode:lr-tb;text-anchor:middle;fill:#f4da98;fill-opacity:1;stroke:none;stroke-width:3.77952766;stroke-miterlimit:4;stroke-dasharray:none;stroke-opacity:1"
   id="text1322"
   transform="translate(123.08456,23.311878)"><path
     d="m -65.399226,164.10997 v -7.59467 h -1.088 l -1.482667,1.28 v 1.20534 l 1.482667,-1.30134 v 6.41067 z"
     id="path1338"
     inkscape:connector-curvature="0" /></g><g
   aria-label="2"
   style="font-style:normal;font-variant:normal;font-weight:normal;font-stretch:normal;font-size:10.66666698px;line-height:1.25;font-family:DIN;-inkscape-font-specification:DIN;text-align:center;writing-mode:lr-tb;text-anchor:middle;fill:#f4da98;fill-opacity:1;stroke:none;stroke-width:3.77952766;stroke-miterlimit:4;stroke-dasharray:none;stroke-opacity:1"
   id="text1326"
   transform="translate(117.73555,20.000648)"><path
     d="m -59.127548,179.4532 v -0.97067 h -3.093334 l 2.378667,-2.912 q 0.352,-0.42666 0.533334,-0.77866 0.181333,-0.36267 0.181333,-0.864 0,-0.49067 -0.16,-0.88534 -0.16,-0.39466 -0.448,-0.672 -0.288,-0.27733 -0.693334,-0.42666 -0.405333,-0.14934 -0.896,-0.14934 -0.48,0 -0.885333,0.16 -0.405333,0.14934 -0.704,0.42667 -0.288,0.27733 -0.458667,0.68267 -0.16,0.39466 -0.16,0.87466 h 1.088 q 0,-0.32 0.096,-0.544 0.096,-0.224 0.245334,-0.36266 0.16,-0.13867 0.362666,-0.20267 0.202667,-0.064 0.416,-0.064 0.533334,0 0.821334,0.32 0.288,0.32 0.288,0.832 0,0.288 -0.096,0.52267 -0.096,0.224 -0.309334,0.49066 l -2.922666,3.552 v 0.97067 z"
     id="path1335"
     inkscape:connector-curvature="0" /></g><g
   aria-label="3"
   style="font-style:normal;font-variant:normal;font-weight:normal;font-stretch:normal;font-size:10.66666698px;line-height:1.25;font-family:DIN;-inkscape-font-specification:DIN;text-align:center;writing-mode:lr-tb;text-anchor:middle;fill:#f4da98;fill-opacity:1;stroke:none;stroke-width:3.77952766;stroke-miterlimit:4;stroke-dasharray:none;stroke-opacity:1"
   id="text1330"
   transform="translate(99.04137,27.646623)"><path
     d="m -40.316035,181.64189 q 0,-0.704 -0.288,-1.14133 -0.288,-0.43734 -0.778667,-0.65067 0.448,-0.21333 0.693333,-0.608 0.256,-0.40533 0.256,-1.01333 0,-0.46934 -0.170666,-0.85334 -0.16,-0.39466 -0.458667,-0.672 -0.288,-0.288 -0.693333,-0.43733 -0.405334,-0.16 -0.885334,-0.16 -0.458666,0 -0.853333,0.14933 -0.394667,0.13867 -0.693333,0.40534 -0.298667,0.26666 -0.48,0.65066 -0.181334,0.384 -0.202667,0.864 h 1.088 q 0.04267,-0.512 0.341333,-0.8 0.298667,-0.288 0.8,-0.288 0.469334,0 0.789334,0.29867 0.330666,0.29867 0.330666,0.87467 0,0.52266 -0.277333,0.84266 -0.277333,0.30934 -0.874667,0.30934 h -0.181333 v 0.94933 h 0.181333 q 0.64,0 0.949334,0.34133 0.32,0.33067 0.32,0.90667 0,0.608 -0.352,0.93867 -0.352,0.32 -0.885334,0.32 -0.234666,0 -0.458666,-0.064 -0.213334,-0.064 -0.384,-0.20267 -0.16,-0.14933 -0.277334,-0.36267 -0.106666,-0.21333 -0.117333,-0.52266 h -1.088 q 0.01067,0.55466 0.202667,0.96 0.202666,0.40533 0.522666,0.672 0.32,0.256 0.725334,0.384 0.416,0.11733 0.874666,0.11733 0.48,0 0.896,-0.13867 0.426667,-0.13866 0.736,-0.416 0.32,-0.27733 0.501334,-0.69333 0.192,-0.416 0.192,-0.96 z"
     id="path1332"
     inkscape:connector-curvature="0" /></g><g
   aria-label="LEARN"
   style="font-style:normal;font-variant:normal;font-weight:normal;font-stretch:normal;font-size:12px;line-height:1.25;font-family:DIN;-inkscape-font-specification:DIN;text-align:center;writing-mode:lr-tb;text-anchor:middle;display:inline;fill:#f4da98;fill-opacity:1;stroke:none;stroke-width:3.77952766;stroke-miterlimit:4;stroke-dasharray:none;stroke-opacity:1"
   id="text1360"
   transform="translate(118.77646,5.9847471)"><path
     d="m -92.922439,110.68097 v -1.164 h -4.116 v -7.38 h -1.296 v 8.544 z"
     id="path1362"
     inkscape:connector-curvature="0" /><path
     d="m -85.986447,110.68097 v -1.164 h -4.164 v -2.568 h 3.552 v -1.152 h -3.552 v -2.496 h 4.164 v -1.164 h -5.46 v 8.544 z"
     id="path1364"
     inkscape:connector-curvature="0" /><path
     d="m -77.922462,110.68097 -3.132,-8.544 h -1.044 l -3.132,8.544 h 1.38 l 0.588,-1.716 h 3.372 l 0.588,1.716 z m -2.328,-2.82 h -2.628 l 1.332,-3.792 z"
     id="path1366"
     inkscape:connector-curvature="0" /><path
     d="m -70.482485,110.68097 -1.968,-3.78 q 0.72,-0.204 1.212,-0.768 0.492,-0.576 0.492,-1.5 0,-0.54 -0.192,-0.996 -0.18,-0.468 -0.528,-0.792 -0.348,-0.336 -0.84,-0.516 -0.48,-0.192 -1.092,-0.192 h -3.312 v 8.544 h 1.296 v -3.6 h 1.62 l 1.8,3.6 z m -1.56,-6.036 q 0,0.636 -0.408,0.984 -0.396,0.348 -1.044,0.348 h -1.92 v -2.676 h 1.92 q 0.648,0 1.044,0.36 0.408,0.348 0.408,0.984 z"
     id="path1368"
     inkscape:connector-curvature="0" /><path
     d="m -62.418499,110.68097 v -8.544 h -1.296 v 6 l -3.948,-6 h -1.188 v 8.544 h 1.296 v -6.012 l 3.948,6.012 z"
     id="path1370"
     inkscape:connector-curvature="0" /></g><g
   aria-label="IN"
   style="font-style:normal;font-variant:normal;font-weight:normal;font-stretch:normal;font-size:12px;line-height:1.25;font-family:DIN;-inkscape-font-specification:DIN;text-align:center;writing-mode:lr-tb;text-anchor:middle;fill:#f4da98;fill-opacity:1;stroke:none;stroke-width:3.77952766;stroke-miterlimit:4;stroke-dasharray:none;stroke-opacity:1"
   id="text1381"
   transform="translate(73.408471,-0.55700445)"><path
     d="m -38.692462,61.029449 v -8.544 h -1.296 v 8.544 z"
     id="path1383"
     inkscape:connector-curvature="0" /><path
     d="m -30.028477,61.029449 v -8.544 h -1.296 v 6 l -3.948,-6 h -1.188 v 8.544 h 1.296 v -6.012 l 3.948,6.012 z"
     id="path1385"
     inkscape:connector-curvature="0" /></g><g
   aria-label="VOICE"
   style="font-style:normal;font-variant:normal;font-weight:normal;font-stretch:normal;font-size:12px;line-height:1.25;font-family:DIN;-inkscape-font-specification:DIN;text-align:center;writing-mode:lr-tb;text-anchor:middle;fill:#f4da98;fill-opacity:1;stroke:none;stroke-width:3.77952766;stroke-miterlimit:4;stroke-dasharray:none;stroke-opacity:1"
   id="text962"
   transform="translate(0,-18.897639)"><path
     d="m 28.758034,182.32215 h -1.368 l -1.968,6.216 -1.968,-6.216 h -1.344 l 2.808,8.544 h 1.008 z"
     id="path993"
     inkscape:connector-curvature="0" /><path
     d="m 35.646021,186.59415 q 0,-0.612 -0.012,-1.104 -0.012,-0.504 -0.084,-0.912 -0.072,-0.408 -0.24,-0.756 -0.168,-0.348 -0.48,-0.66 -0.444,-0.444 -1.008,-0.672 -0.564,-0.24 -1.248,-0.24 -0.684,0 -1.248,0.24 -0.552,0.228 -0.996,0.672 -0.312,0.312 -0.48,0.66 -0.168,0.348 -0.252,0.756 -0.072,0.408 -0.084,0.912 -0.012,0.492 -0.012,1.104 0,0.612 0.012,1.116 0.012,0.492 0.084,0.9 0.084,0.408 0.252,0.756 0.168,0.348 0.48,0.66 0.444,0.444 0.996,0.684 0.564,0.228 1.248,0.228 0.684,0 1.248,-0.228 0.564,-0.24 1.008,-0.684 0.312,-0.312 0.48,-0.66 0.168,-0.348 0.24,-0.756 0.072,-0.408 0.084,-0.9 0.012,-0.504 0.012,-1.116 z m -1.296,0 q 0,0.648 -0.024,1.08 -0.012,0.42 -0.072,0.72 -0.048,0.288 -0.156,0.492 -0.096,0.192 -0.252,0.36 -0.228,0.24 -0.564,0.384 -0.324,0.144 -0.708,0.144 -0.384,0 -0.72,-0.144 -0.324,-0.144 -0.552,-0.384 -0.156,-0.168 -0.264,-0.36 -0.096,-0.204 -0.156,-0.492 -0.048,-0.3 -0.072,-0.72 -0.012,-0.432 -0.012,-1.08 0,-0.648 0.012,-1.068 0.024,-0.432 0.072,-0.72 0.06,-0.3 0.156,-0.492 0.108,-0.204 0.264,-0.372 0.228,-0.24 0.552,-0.384 0.336,-0.144 0.72,-0.144 0.384,0 0.708,0.144 0.336,0.144 0.564,0.384 0.156,0.168 0.252,0.372 0.108,0.192 0.156,0.492 0.06,0.288 0.072,0.72 0.024,0.42 0.024,1.068 z"
     id="path995"
     inkscape:connector-curvature="0" /><path
     d="m 38.86202,190.86615 v -8.544 h -1.296 v 8.544 z"
     id="path997"
     inkscape:connector-curvature="0" /><path
     d="m 46.902004,188.31015 h -1.308 q -0.156,0.648 -0.588,1.056 -0.432,0.408 -1.152,0.408 -0.384,0 -0.708,-0.132 -0.324,-0.144 -0.552,-0.384 -0.156,-0.168 -0.264,-0.36 -0.096,-0.204 -0.156,-0.492 -0.048,-0.3 -0.072,-0.732 -0.024,-0.432 -0.024,-1.08 0,-0.648 0.024,-1.08 0.024,-0.432 0.072,-0.72 0.06,-0.3 0.156,-0.492 0.108,-0.204 0.264,-0.372 0.228,-0.24 0.552,-0.372 0.324,-0.144 0.708,-0.144 0.72,0 1.14,0.408 0.432,0.408 0.588,1.056 h 1.32 q -0.228,-1.284 -1.044,-1.956 -0.816,-0.672 -2.004,-0.672 -0.672,0 -1.236,0.24 -0.564,0.228 -1.008,0.672 -0.312,0.312 -0.48,0.66 -0.168,0.348 -0.252,0.756 -0.072,0.408 -0.084,0.912 -0.012,0.492 -0.012,1.104 0,0.612 0.012,1.116 0.012,0.492 0.084,0.9 0.084,0.408 0.252,0.756 0.168,0.348 0.48,0.66 0.444,0.444 1.008,0.684 0.564,0.228 1.236,0.228 0.576,0 1.08,-0.168 0.516,-0.168 0.912,-0.504 0.408,-0.336 0.672,-0.828 0.276,-0.492 0.384,-1.128 z"
     id="path999"
     inkscape:connector-curvature="0" /><path
     d="m 54.089985,190.86615 v -1.164 h -4.164 v -2.568 h 3.552 v -1.152 h -3.552 v -2.496 h 4.164 v -1.164 h -5.46 v 8.544 z"
     id="path1001"
     inkscape:connector-curvature="0" /></g><text
   xml:space="preserve"
   style="font-style:normal;font-variant:normal;font-weight:normal;font-stretch:normal;font-size:10.66666698px;line-height:1.25;font-family:DIN;-inkscape-font-specification:DIN;text-align:center;writing-mode:lr-tb;text-anchor:middle;fill:#f4da98;fill-opacity:1;stroke:none;stroke-width:3.77952766;stroke-miterlimit:4;stroke-dasharray:none;stroke-opacity:1"
   x="-127.28391"
   y="276.69897"
   id="text966"><tspan
     sodipodi:role="line"
     id="tspan964"
     x="-127.28391"
     y="286.9212" /></text>





<g
   aria-label="MNO"
   style="font-style:normal;font-variant:normal;font-weight:normal;font-stretch:normal;font-size:10.66666698px;line-height:1.25;font-family:DIN;-inkscape-font-specification:DIN;text-align:center;writing-mode:lr-tb;text-anchor:middle;fill:#f4da98;fill-opacity:1;stroke:none;stroke-width:3.77952766;stroke-miterlimit:4;stroke-dasharray:none;stroke-opacity:1"
   id="text970"
   transform="translate(106,-13.007868)"><path
     d="m -47.679989,260.25403 v -7.59467 h -1.152 l -2.176,4.72533 -2.218666,-4.72533 h -1.152 v 7.59467 h 1.152 v -5.07734 l 1.792,3.70134 h 0.853333 l 1.749333,-3.70134 v 5.07734 z"
     style="font-style:normal;font-variant:normal;font-weight:500;font-stretch:normal;font-family:DIN;-inkscape-font-specification:'DIN Medium'"
     id="path976"
     inkscape:connector-curvature="0" /><path
     d="m -39.989325,260.25403 v -7.59467 h -1.152 v 5.33333 l -3.509333,-5.33333 h -1.056 v 7.59467 h 1.152 v -5.344 l 3.509333,5.344 z"
     style="font-style:normal;font-variant:normal;font-weight:500;font-stretch:normal;font-family:DIN;-inkscape-font-specification:'DIN Medium'"
     id="path978"
     inkscape:connector-curvature="0" /><path
     d="m -32.821343,256.45669 q 0,-0.544 -0.01067,-0.98133 -0.01067,-0.448 -0.07467,-0.81067 -0.064,-0.36266 -0.213333,-0.672 -0.149333,-0.30933 -0.426667,-0.58666 -0.394666,-0.39467 -0.896,-0.59734 -0.501333,-0.21333 -1.109333,-0.21333 -0.608,0 -1.109333,0.21333 -0.490667,0.20267 -0.885334,0.59734 -0.277333,0.27733 -0.426666,0.58666 -0.149334,0.30934 -0.224,0.672 -0.064,0.36267 -0.07467,0.81067 -0.01067,0.43733 -0.01067,0.98133 0,0.544 0.01067,0.992 0.01067,0.43734 0.07467,0.8 0.07467,0.36267 0.224,0.672 0.149333,0.30934 0.426666,0.58667 0.394667,0.39467 0.885334,0.608 0.501333,0.20267 1.109333,0.20267 0.608,0 1.109333,-0.20267 0.501334,-0.21333 0.896,-0.608 0.277334,-0.27733 0.426667,-0.58667 0.149333,-0.30933 0.213333,-0.672 0.064,-0.36266 0.07467,-0.8 0.01067,-0.448 0.01067,-0.992 z m -1.152,0 q 0,0.576 -0.02133,0.96 -0.01067,0.37334 -0.064,0.64 -0.04267,0.256 -0.138666,0.43734 -0.08533,0.17066 -0.224,0.32 -0.202667,0.21333 -0.501334,0.34133 -0.288,0.128 -0.629333,0.128 -0.341333,0 -0.64,-0.128 -0.288,-0.128 -0.490667,-0.34133 -0.138666,-0.14934 -0.234666,-0.32 -0.08533,-0.18134 -0.138667,-0.43734 -0.04267,-0.26666 -0.064,-0.64 -0.01067,-0.384 -0.01067,-0.96 0,-0.576 0.01067,-0.94933 0.02133,-0.384 0.064,-0.64 0.05333,-0.26667 0.138667,-0.43733 0.096,-0.18134 0.234666,-0.33067 0.202667,-0.21333 0.490667,-0.34133 0.298667,-0.128 0.64,-0.128 0.341333,0 0.629333,0.128 0.298667,0.128 0.501334,0.34133 0.138666,0.14933 0.224,0.33067 0.096,0.17066 0.138666,0.43733 0.05333,0.256 0.064,0.64 0.02133,0.37333 0.02133,0.94933 z"
     style="font-style:normal;font-variant:normal;font-weight:500;font-stretch:normal;font-family:DIN;-inkscape-font-specification:'DIN Medium'"
     id="path981"
     inkscape:connector-curvature="0" /></g><g
   aria-label="PLY"
   style="font-style:normal;font-variant:normal;font-weight:normal;font-stretch:normal;font-size:10.66666698px;line-height:1.25;font-family:DIN;-inkscape-font-specification:DIN;text-align:center;writing-mode:lr-tb;text-anchor:middle;fill:#f4da98;fill-opacity:1;stroke:none;stroke-width:3.77952766;stroke-miterlimit:4;stroke-dasharray:none;stroke-opacity:1"
   id="text974"
   transform="translate(-4.0000017,-11.007868)"><path
     d="m 61.344019,264.96336 q 0,-0.49067 -0.170667,-0.91733 -0.170667,-0.42667 -0.490667,-0.72534 -0.32,-0.30933 -0.768,-0.48 -0.448,-0.18133 -1.002666,-0.18133 h -2.880001 v 7.59467 h 1.152001 v -2.98667 h 1.728 q 0.554666,0 1.002666,-0.17067 0.448,-0.18133 0.768,-0.48 0.32,-0.30933 0.490667,-0.72533 0.170667,-0.42667 0.170667,-0.928 z m -1.152,0 q 0,0.608 -0.373334,0.93867 -0.362666,0.32 -0.970666,0.32 h -1.664 v -2.528 h 1.664 q 0.608,0 0.970666,0.33066 0.373334,0.33067 0.373334,0.93867 z"
     id="path985"
     inkscape:connector-curvature="0" /><path
     d="m 67.552016,270.25403 v -1.03467 h -3.658667 v -6.56 h -1.152 v 7.59467 z"
     id="path987"
     inkscape:connector-curvature="0" /><path
     d="m 72.76799,262.65936 h -1.258667 l -1.589333,3.33867 -1.589334,-3.33867 h -1.258667 l 2.272001,4.46933 v 3.12534 h 1.152 v -3.12534 z"
     id="path990"
     inkscape:connector-curvature="0" /></g><g
   transform="matrix(1.3333334,0,0,-1.3333334,42.238118,468.23973)"
   id="g3796"
   style="display:inline;fill:#f4da98;fill-opacity:1;stroke:none"><path
     inkscape:connector-curvature="0"
     id="path3798"
     style="fill:#f4da98;fill-opacity:1;fill-rule:nonzero;stroke:none"
     d="M 0,0 C 0,1.873 0.16,3.703 0.479,5.492 -1.353,5.898 -2.27,6.65 -2.27,7.76 c 0,0.873 0.492,1.306 1.47,1.306 0.513,0 1.141,-0.242 1.885,-0.734 1.445,5.092 3.802,9.383 7.06,12.887 -0.702,0.105 -1.413,0.178 -2.143,0.178 -7.952,0 -14.399,-6.448 -14.399,-14.401 0,-6.057 3.745,-11.232 9.043,-13.357 C 0.223,-4.273 0,-2.152 0,0" /></g><g
   transform="matrix(1.3333334,0,0,-1.3333334,45.389042,458.32055)"
   id="g3800"
   style="display:inline;fill:#f4da98;fill-opacity:1;stroke:none"><path
     inkscape:connector-curvature="0"
     id="path3802"
     style="fill:#f4da98;fill-opacity:1;fill-rule:nonzero;stroke:none"
     d="m 0,0 c 0.275,-0.191 0.487,-0.359 0.638,-0.51 1.575,0.362 3.15,1.287 4.725,2.778 1.319,1.279 2.448,2.757 3.385,4.439 1.193,2.109 1.756,3.885 1.693,5.332 h 0.357 C 9.394,12.846 7.845,13.422 6.194,13.717 L 7.025,12.936 C 3.638,9.379 1.297,5.068 0,0" /></g><g
   transform="matrix(1.3333334,0,0,-1.3333334,61.24199,443.19026)"
   id="g3804"
   style="display:inline;fill:#f4da98;fill-opacity:1;stroke:none"><path
     inkscape:connector-curvature="0"
     id="path3806"
     style="fill:#f4da98;fill-opacity:1;fill-rule:nonzero;stroke:none"
     d="m 0,0 c -0.115,-1.566 -0.734,-3.357 -1.863,-5.375 -0.96,-1.703 -2.098,-3.213 -3.416,-4.535 -1.535,-1.488 -3.111,-2.524 -4.726,-3.098 2.51,-2.765 3.947,-5.92 4.31,-9.451 0.934,0.619 1.937,1.172 3,1.66 l 0.606,-1.342 c -1.765,-0.808 -3.393,-1.837 -4.885,-3.093 l -0.956,1.119 0.828,0.666 c -0.147,3.98 -1.681,7.322 -4.597,10.025 l -0.638,-0.031 c -0.3,-1.787 -0.45,-3.567 -0.45,-5.332 0,-2.432 0.27,-4.731 0.798,-6.895 1.194,-0.322 2.443,-0.508 3.738,-0.508 7.953,0 14.4,6.446 14.4,14.399 C 6.149,-6.91 3.715,-2.604 0,0" /></g><g
   aria-label="MIDI"
   style="font-style:normal;font-variant:normal;font-weight:normal;font-stretch:normal;font-size:16px;line-height:1.25;font-family:DIN;-inkscape-font-specification:DIN;text-align:center;letter-spacing:0px;word-spacing:0px;text-anchor:middle;fill:#f4da98;fill-opacity:1;stroke:none"
   id="text963"><path
     d="m 33.400025,32.125992 v -11.392 h -1.728 l -3.264,7.088 -3.328,-7.088 h -1.728 v 11.392 h 1.728 v -7.616 l 2.688,5.552 h 1.28 l 2.624,-5.552 v 7.616 z"
     style=""
     id="path979" /><path
     d="m 38.088021,32.125992 v -11.392 h -1.728 v 11.392 z"
     style=""
     id="path982" /><path
     d="m 49.16,26.349992 q 0,-0.624 -0.016,-1.232 0,-0.608 -0.096,-1.184 -0.096,-0.592 -0.336,-1.12 -0.24,-0.544 -0.704,-1.008 -0.544,-0.544 -1.296,-0.8 -0.752,-0.272 -1.648,-0.272 h -4 v 11.392 h 4 q 0.896,0 1.648,-0.256 0.752,-0.272 1.296,-0.816 0.464,-0.464 0.704,-1.024 0.24,-0.56 0.336,-1.168 0.096,-0.608 0.096,-1.248 0.016,-0.64 0.016,-1.264 z m -1.728,0 q 0,1.184 -0.08,2.08 -0.08,0.88 -0.528,1.376 -0.704,0.768 -1.936,0.768 h -2.096 v -8.288 h 2.096 q 1.232,0 1.936,0.768 0.448,0.496 0.528,1.312 0.08,0.8 0.08,1.984 z"
     style=""
     id="path984" /><path
     d="m 53.447976,32.125992 v -11.392 h -1.728 v 11.392 z"
     style=""
     id="path986" /></g><g
   aria-label="CV"
   style="font-style:normal;font-variant:normal;font-weight:normal;font-stretch:normal;font-size:16px;line-height:1.25;font-family:DIN;-inkscape-font-specification:DIN;text-align:center;letter-spacing:0px;word-spacing:0px;text-anchor:middle;fill:#f4da98;fill-opacity:1;stroke:none"
   id="text971"><path
     d="m 37.680017,42.717992 h -1.744 q -0.208,0.864 -0.784,1.408 -0.576,0.544 -1.536,0.544 -0.512,0 -0.944,-0.176 -0.432,-0.192 -0.736,-0.512 -0.208,-0.224 -0.352,-0.48 -0.128,-0.272 -0.208,-0.656 -0.064,-0.4 -0.096,-0.976 -0.032,-0.576 -0.032,-1.44 0,-0.864 0.032,-1.44 0.032,-0.576 0.096,-0.96 0.08,-0.4 0.208,-0.656 0.144,-0.272 0.352,-0.496 0.304,-0.32 0.736,-0.496 0.432,-0.192 0.944,-0.192 0.96,0 1.52,0.544 0.576,0.544 0.784,1.408 h 1.76 q -0.304,-1.712 -1.392,-2.608 -1.088,-0.896 -2.672,-0.896 -0.896,0 -1.648,0.32 -0.752,0.304 -1.344,0.896 -0.416,0.416 -0.64,0.88 -0.224,0.464 -0.336,1.008 -0.096,0.544 -0.112,1.216 -0.016,0.656 -0.016,1.472 0,0.816 0.016,1.488 0.016,0.656 0.112,1.2 0.112,0.544 0.336,1.008 0.224,0.464 0.64,0.88 0.592,0.592 1.344,0.912 0.752,0.304 1.648,0.304 0.768,0 1.44,-0.224 0.688,-0.224 1.216,-0.672 0.544,-0.448 0.896,-1.104 0.368,-0.656 0.512,-1.504 z"
     style=""
     id="path973" /><path
     d="m 47.279987,34.733992 h -1.824 l -2.624,8.288 -2.624,-8.288 h -1.792 l 3.744,11.392 h 1.344 z"
     style=""
     id="path975" /></g></g></svg>