<?xml version="1.0" encoding="UTF-8" standalone="no"?>
<!-- Created with Inkscape (http://www.inkscape.org/) -->

<svg
   xmlns:dc="http://purl.org/dc/elements/1.1/"
   xmlns:cc="http://creativecommons.org/ns#"
   xmlns:rdf="http://www.w3.org/1999/02/22-rdf-syntax-ns#"
   xmlns:svg="http://www.w3.org/2000/svg"
   xmlns="http://www.w3.org/2000/svg"
   xmlns:xlink="http://www.w3.org/1999/xlink"
   xmlns:sodipodi="http://sodipodi.sourceforge.net/DTD/sodipodi-0.dtd"
   xmlns:inkscape="http://www.inkscape.org/namespaces/inkscape"
   width="20.32mm"
   height="128.5mm"
   viewBox="0 0 20.32 128.5"
   version="1.1"
   id="svg1141"
   inkscape:version="0.92.5 (2060ec1f9f, 2020-04-08)"
   sodipodi:docname="MIDI_CC_Note.svg">
  <defs
     id="defs1135">
    <linearGradient
       inkscape:collect="always"
       xlink:href="#linearGradient1109"
       id="linearGradient4954"
       gradientUnits="userSpaceOnUse"
       x1="110.74702"
       y1="130.87947"
       x2="111.50298"
       y2="242.57143"
       gradientTransform="matrix(0.44393752,0,0,0.99973639,-37.472257,-125.49796)" />
    <linearGradient
       inkscape:collect="always"
       id="linearGradient1109">
      <stop
         style="stop-color:#333131;stop-opacity:1"
         offset="0"
         id="stop1105" />
      <stop
         style="stop-color:#292727;stop-opacity:1"
         offset="1"
         id="stop1107" />
    </linearGradient>
    <clipPath
       id="clipPath913"
       clipPathUnits="userSpaceOnUse">
      <path
         inkscape:connector-curvature="0"
         id="path911-3"
         d="M 0,472.252 H 165.6 V 0 H 0 Z" />
    </clipPath>
  </defs>
  <sodipodi:namedview
     id="base"
     pagecolor="#ffffff"
     bordercolor="#666666"
     borderopacity="1.0"
     inkscape:pageopacity="0.0"
     inkscape:pageshadow="2"
     inkscape:zoom="1.979899"
     inkscape:cx="-13.434773"
     inkscape:cy="318.31458"
     inkscape:document-units="mm"
     inkscape:current-layer="layer1"
     showgrid="false"
     showguides="true"
     inkscape:guide-bbox="true"
     inkscape:snap-bbox="true"
     inkscape:snap-bbox-midpoints="true"
     inkscape:snap-text-baseline="true"
     inkscape:window-width="1920"
     inkscape:window-height="1033"
     inkscape:window-x="0"
     inkscape:window-y="0"
     inkscape:window-maximized="1">
    <sodipodi:guide
       position="-15.501632,120"
       orientation="0,1"
       id="guide1714"
       inkscape:locked="false"
       inkscape:label=""
       inkscape:color="rgb(0,0,255)" />
    <sodipodi:guide
       position="-16.303441,20"
       orientation="0,1"
       id="guide1716"
       inkscape:locked="false"
       inkscape:label=""
       inkscape:color="rgb(0,0,255)" />
    <sodipodi:guide
       position="10.16,80.319942"
       orientation="1,0"
       id="guide1749"
       inkscape:locked="false"
       inkscape:label=""
       inkscape:color="rgb(0,0,255)" />
    <sodipodi:guide
       position="-22.584275,108"
       orientation="0,1"
       id="guide1784"
       inkscape:locked="false"
       inkscape:label=""
       inkscape:color="rgb(0,0,255)" />
    <sodipodi:guide
       position="-28.330569,92.000002"
       orientation="0,1"
       id="guide1812"
       inkscape:locked="false"
       inkscape:label=""
       inkscape:color="rgb(0,0,255)" />
    <sodipodi:guide
       position="-15.902536,76.000005"
       orientation="0,1"
       id="guide1838"
       inkscape:locked="false"
       inkscape:label=""
       inkscape:color="rgb(0,0,255)" />
    <sodipodi:guide
       position="-15.902536,62.000007"
       orientation="0,1"
       id="guide1875"
       inkscape:locked="false"
       inkscape:label=""
       inkscape:color="rgb(0,0,255)" />
    <sodipodi:guide
       position="-12.561667,48.000009"
       orientation="0,1"
       id="guide1877"
       inkscape:locked="false"
       inkscape:label=""
       inkscape:color="rgb(0,0,255)" />
    <sodipodi:guide
       position="-20.847022,34"
       orientation="0,1"
       id="guide1903"
       inkscape:locked="false"
       inkscape:label=""
       inkscape:color="rgb(0,0,255)" />
  </sodipodi:namedview>
  <metadata
     id="metadata1138">
    <rdf:RDF>
      <cc:Work
         rdf:about="">
        <dc:format>image/svg+xml</dc:format>
        <dc:type
           rdf:resource="http://purl.org/dc/dcmitype/StillImage" />
        <dc:title />
      </cc:Work>
    </rdf:RDF>
  </metadata>
  <g
     inkscape:groupmode="layer"
     id="layer4"
     inkscape:label="BG"
     style="display:inline">
    <path
       inkscape:connector-curvature="0"
       id="path1099"
       d="M 5e-7,-6.6e-6 H 20.320001 V 128.5 H 5e-7 Z"
       style="display:inline;fill:url(#linearGradient4954);fill-opacity:1;stroke:#6e6e6e;stroke-width:0;stroke-miterlimit:4;stroke-dasharray:none;stroke-opacity:1" />
  </g>
  <g
     inkscape:label="Layer 1"
     inkscape:groupmode="layer"
     id="layer1"
     transform="translate(0,-168.5)"
     style="display:inline">
    <path
       style="display:inline;fill:#f4da98;fill-opacity:1;stroke:#000000;stroke-width:0;stroke-miterlimit:4;stroke-dasharray:none;stroke-opacity:0"
       inkscape:transform-center-x="7.4234112"
       inkscape:transform-center-y="5.2919366"
       d="M 15.66,277 A 5.5000004,5.5000004 0 0 1 10.159999,282.5 5.5000004,5.5000004 0 0 1 4.6599995,277 5.5000004,5.5000004 0 0 1 10.159999,271.5 5.5000004,5.5000004 0 0 1 15.66,277 Z"
       id="path4964"
       inkscape:connector-curvature="0" />
    <g
       aria-label="MIDI"
       style="font-style:normal;font-variant:normal;font-weight:normal;font-stretch:normal;font-size:4.23333311px;line-height:1.25;font-family:DIN;-inkscape-font-specification:DIN;text-align:center;letter-spacing:0px;word-spacing:0px;text-anchor:middle;fill:#f4da98;fill-opacity:1;stroke:none;stroke-width:0.26458332"
       id="text902">
      <path
         d="m 8.8370925,177 v -3.01413 h -0.4572 l -0.8635999,1.87536 -0.8805333,-1.87536 h -0.4572 V 177 h 0.4572 v -2.01507 l 0.7112,1.46897 h 0.3386666 l 0.6942666,-1.46897 V 177 Z"
         style="fill:#f4da98;fill-opacity:1;stroke-width:0.26458332"
         id="path926"
         inkscape:connector-curvature="0" />
      <path
         d="m 10.077458,177 v -3.01413 H 9.6202579 V 177 Z"
         style="fill:#f4da98;fill-opacity:1;stroke-width:0.26458332"
         id="path928"
         inkscape:connector-curvature="0" />
      <path
         d="m 13.006919,175.47177 q 0,-0.1651 -0.0042,-0.32597 0,-0.16087 -0.0254,-0.31327 -0.0254,-0.15663 -0.0889,-0.29633 -0.0635,-0.14393 -0.186267,-0.2667 -0.143933,-0.14393 -0.3429,-0.21167 -0.198967,-0.072 -0.436033,-0.072 H 10.864852 V 177 h 1.058334 q 0.237066,0 0.436033,-0.0677 0.198967,-0.072 0.3429,-0.2159 0.122767,-0.12277 0.186267,-0.27094 0.0635,-0.14816 0.0889,-0.30903 0.0254,-0.16087 0.0254,-0.3302 0.0042,-0.16933 0.0042,-0.33443 z m -0.4572,0 q 0,0.31326 -0.02117,0.55033 -0.02117,0.23283 -0.1397,0.36407 -0.186266,0.2032 -0.512233,0.2032 h -0.554567 v -2.19287 h 0.554567 q 0.325967,0 0.512233,0.2032 0.118534,0.13123 0.1397,0.34713 0.02117,0.21167 0.02117,0.52494 z"
         style="fill:#f4da98;fill-opacity:1;stroke-width:0.26458332"
         id="path930"
         inkscape:connector-curvature="0" />
      <path
         d="m 14.141446,177 v -3.01413 h -0.4572 V 177 Z"
         style="fill:#f4da98;fill-opacity:1;stroke-width:0.26458332"
         id="path932"
         inkscape:connector-curvature="0" />
    </g>
    <g
       transform="matrix(0.35277777,0,0,-0.35277777,11.31952,292.38842)"
       id="g3796"
       style="display:inline;fill:#f4da98;fill-opacity:1;stroke:none">
      <path
         inkscape:connector-curvature="0"
         id="path3798"
         style="fill:#f4da98;fill-opacity:1;fill-rule:nonzero;stroke:none"
         d="M 0,0 C 0,1.873 0.16,3.703 0.479,5.492 -1.353,5.898 -2.27,6.65 -2.27,7.76 c 0,0.873 0.492,1.306 1.47,1.306 0.513,0 1.141,-0.242 1.885,-0.734 1.445,5.092 3.802,9.383 7.06,12.887 -0.702,0.105 -1.413,0.178 -2.143,0.178 -7.952,0 -14.399,-6.448 -14.399,-14.401 0,-6.057 3.745,-11.232 9.043,-13.357 C 0.223,-4.273 0,-2.152 0,0" />
    </g>
    <g
       transform="matrix(0.35277777,0,0,-0.35277777,12.153202,289.76397)"
       id="g3800"
       style="display:inline;fill:#f4da98;fill-opacity:1;stroke:none">
      <path
         inkscape:connector-curvature="0"
         id="path3802"
         style="fill:#f4da98;fill-opacity:1;fill-rule:nonzero;stroke:none"
         d="m 0,0 c 0.275,-0.191 0.487,-0.359 0.638,-0.51 1.575,0.362 3.15,1.287 4.725,2.778 1.319,1.279 2.448,2.757 3.385,4.439 1.193,2.109 1.756,3.885 1.693,5.332 h 0.357 C 9.394,12.846 7.845,13.422 6.194,13.717 L 7.025,12.936 C 3.638,9.379 1.297,5.068 0,0" />
    </g>
    <g
       transform="matrix(0.35277777,0,0,-0.35277777,16.347631,285.76075)"
       id="g3804"
       style="display:inline;fill:#f4da98;fill-opacity:1;stroke:none">
      <path
         inkscape:connector-curvature="0"
         id="path3806"
         style="fill:#f4da98;fill-opacity:1;fill-rule:nonzero;stroke:none"
         d="m 0,0 c -0.115,-1.566 -0.734,-3.357 -1.863,-5.375 -0.96,-1.703 -2.098,-3.213 -3.416,-4.535 -1.535,-1.488 -3.111,-2.524 -4.726,-3.098 2.51,-2.765 3.947,-5.92 4.31,-9.451 0.934,0.619 1.937,1.172 3,1.66 l 0.606,-1.342 c -1.765,-0.808 -3.393,-1.837 -4.885,-3.093 l -0.956,1.119 0.828,0.666 c -0.147,3.98 -1.681,7.322 -4.597,10.025 l -0.638,-0.031 c -0.3,-1.787 -0.45,-3.567 -0.45,-5.332 0,-2.432 0.27,-4.731 0.798,-6.895 1.194,-0.322 2.443,-0.508 3.738,-0.508 7.953,0 14.4,6.446 14.4,14.399 C 6.149,-6.91 3.715,-2.604 0,0" />
    </g>
    <g
       aria-label="I"
       style="font-style:normal;font-variant:normal;font-weight:normal;font-stretch:normal;font-size:3.52777767px;line-height:1.25;font-family:DIN;-inkscape-font-specification:DIN;text-align:center;letter-spacing:0px;word-spacing:0px;text-anchor:middle;fill:#f4da98;fill-opacity:1;stroke:none;stroke-width:0.26458332"
       id="text953">
      <path
         d="m 17.229666,262.66837 v -2.51178 h -0.381 v 2.51178 z"
         style="fill:#f4da98;fill-opacity:1;stroke-width:0.26458332"
         id="path983"
         inkscape:connector-curvature="0" />
    </g>
    <g
       aria-label="N"
       style="font-style:normal;font-variant:normal;font-weight:normal;font-stretch:normal;font-size:3.52777767px;line-height:1.25;font-family:DIN;-inkscape-font-specification:DIN;text-align:center;letter-spacing:0px;word-spacing:0px;text-anchor:middle;fill:#f4da98;fill-opacity:1;stroke:none;stroke-width:0.26458332"
       id="text957">
      <path
         d="m 17.984611,265.84341 v -2.51177 h -0.381 v 1.76389 l -1.160639,-1.76389 h -0.34925 v 2.51177 h 0.381 V 264.076 l 1.160639,1.76741 z"
         style="fill:#f4da98;fill-opacity:1;stroke-width:0.26458332"
         id="path980"
         inkscape:connector-curvature="0" />
    </g>
    <g
       aria-label="O"
       style="font-style:normal;font-variant:normal;font-weight:normal;font-stretch:normal;font-size:3.52777767px;line-height:1.25;font-family:DIN;-inkscape-font-specification:DIN;text-align:center;letter-spacing:0px;word-spacing:0px;text-anchor:middle;fill:#f4da98;fill-opacity:1;stroke:none;stroke-width:0.26458332"
       id="text961">
      <path
         d="m 17.942279,273.82495 q 0,-0.17991 -0.0035,-0.32455 -0.0035,-0.14817 -0.0247,-0.26811 -0.02117,-0.11995 -0.07055,-0.22225 -0.04939,-0.10231 -0.141111,-0.19403 -0.130528,-0.13053 -0.296334,-0.19756 -0.165805,-0.0705 -0.366888,-0.0705 -0.201084,0 -0.366889,0.0705 -0.162278,0.067 -0.292806,0.19756 -0.09172,0.0917 -0.141111,0.19403 -0.04939,0.1023 -0.07408,0.22225 -0.02117,0.11994 -0.0247,0.26811 -0.0035,0.14464 -0.0035,0.32455 0,0.17992 0.0035,0.32809 0.0035,0.14463 0.0247,0.26458 0.02469,0.11994 0.07408,0.22225 0.04939,0.1023 0.141111,0.19403 0.130528,0.13052 0.292806,0.20108 0.165805,0.067 0.366889,0.067 0.201083,0 0.366888,-0.067 0.165806,-0.0706 0.296334,-0.20108 0.09172,-0.0917 0.141111,-0.19403 0.04939,-0.10231 0.07055,-0.22225 0.02117,-0.11995 0.0247,-0.26458 0.0035,-0.14817 0.0035,-0.32809 z m -0.381,0 q 0,0.1905 -0.0071,0.3175 -0.0035,0.12347 -0.02117,0.21167 -0.01411,0.0847 -0.04586,0.14464 -0.02822,0.0564 -0.07408,0.10583 -0.06703,0.0706 -0.165806,0.11289 -0.09525,0.0423 -0.208138,0.0423 -0.112889,0 -0.211667,-0.0423 -0.09525,-0.0423 -0.162278,-0.11289 -0.04586,-0.0494 -0.07761,-0.10583 -0.02822,-0.06 -0.04586,-0.14464 -0.01411,-0.0882 -0.02117,-0.21167 -0.0035,-0.127 -0.0035,-0.3175 0,-0.1905 0.0035,-0.31397 0.0071,-0.127 0.02117,-0.21167 0.01764,-0.0882 0.04586,-0.14464 0.03175,-0.06 0.07761,-0.10936 0.06703,-0.0705 0.162278,-0.11289 0.09878,-0.0423 0.211667,-0.0423 0.112888,0 0.208138,0.0423 0.09878,0.0423 0.165806,0.11289 0.04586,0.0494 0.07408,0.10936 0.03175,0.0564 0.04586,0.14464 0.01764,0.0847 0.02117,0.21167 0.0071,0.12347 0.0071,0.31397 z"
         style="fill:#f4da98;fill-opacity:1;stroke-width:0.26458332"
         id="path977"
         inkscape:connector-curvature="0" />
    </g>
    <g
       aria-label="U"
       style="font-style:normal;font-variant:normal;font-weight:normal;font-stretch:normal;font-size:3.52777767px;line-height:1.25;font-family:DIN;-inkscape-font-specification:DIN;text-align:center;letter-spacing:0px;word-spacing:0px;text-anchor:middle;fill:#f4da98;fill-opacity:1;stroke:none;stroke-width:0.26458332"
       id="text965">
      <path
         d="m 17.940514,277.39863 v -1.66511 h -0.381 v 1.64747 q 0,0.254 -0.144639,0.39864 -0.141111,0.14464 -0.377472,0.14464 -0.236361,0 -0.377472,-0.14464 -0.141111,-0.14464 -0.141111,-0.39864 v -1.64747 h -0.381 v 1.66511 q 0,0.19403 0.06703,0.35631 0.07056,0.15875 0.1905,0.27164 0.119945,0.11289 0.28575,0.17639 0.165806,0.0635 0.356306,0.0635 0.1905,0 0.356305,-0.0635 0.165806,-0.0635 0.28575,-0.17639 0.123473,-0.11289 0.1905,-0.27164 0.07056,-0.16228 0.07056,-0.35631 z"
         style="fill:#f4da98;fill-opacity:1;stroke-width:0.26458332"
         id="path974"
         inkscape:connector-curvature="0" />
    </g>
    <g
       aria-label="T"
       style="font-style:normal;font-variant:normal;font-weight:normal;font-stretch:normal;font-size:3.52777767px;line-height:1.25;font-family:DIN;-inkscape-font-specification:DIN;text-align:center;letter-spacing:0px;word-spacing:0px;text-anchor:middle;fill:#f4da98;fill-opacity:1;stroke:none;stroke-width:0.26458332"
       id="text969">
      <path
         d="m 17.921111,279.26136 v -0.3422 h -1.763889 v 0.3422 h 0.691444 v 2.16958 h 0.381 v -2.16958 z"
         style="fill:#f4da98;fill-opacity:1;stroke-width:0.26458332"
         id="path971"
         inkscape:connector-curvature="0" />
    </g>
    <g
       transform="translate(0,168.5)"
       aria-label="CC Note"
       style="font-style:normal;font-variant:normal;font-weight:normal;font-stretch:normal;font-size:4.23333311px;line-height:1.25;font-family:DIN;-inkscape-font-specification:DIN;text-align:center;letter-spacing:0px;word-spacing:0px;text-anchor:middle;display:inline;fill:#f4da98;fill-opacity:1;stroke:none;stroke-width:0.26458332"
       id="text924">
      <path
         d="M 4.9170359,11.302468 H 4.4556026 q -0.055033,0.2286 -0.2074334,0.372534 -0.1523999,0.143933 -0.4063999,0.143933 -0.1354667,0 -0.2497667,-0.04657 -0.1143,-0.0508 -0.1947333,-0.135466 -0.055033,-0.05927 -0.093133,-0.127 -0.033867,-0.07197 -0.055033,-0.173567 -0.016933,-0.105833 -0.0254,-0.258233 -0.00847,-0.1524 -0.00847,-0.381 0,-0.2286 0.00847,-0.381 0.00847,-0.1524 0.0254,-0.254 0.021167,-0.1058336 0.055033,-0.1735669 0.0381,-0.071967 0.093133,-0.1312333 0.080433,-0.084667 0.1947333,-0.1312333 0.1143,-0.0508 0.2497667,-0.0508 0.254,0 0.4021666,0.1439333 0.1524,0.1439333 0.2074333,0.3725332 H 4.9170359 Q 4.8366025,9.6387685 4.5487359,9.4017018 4.2608692,9.1646351 3.8417693,9.1646351 q -0.2370667,0 -0.4360333,0.084667 -0.1989667,0.080433 -0.3556,0.2370667 -0.1100667,0.1100666 -0.1693333,0.2328333 -0.059267,0.1227666 -0.0889,0.2667 -0.0254,0.1439329 -0.029633,0.3217329 -0.00423,0.173567 -0.00423,0.389467 0,0.2159 0.00423,0.3937 0.00423,0.173566 0.029633,0.3175 0.029633,0.143933 0.0889,0.2667 0.059267,0.122766 0.1693333,0.232833 0.1566333,0.156633 0.3556,0.2413 0.1989666,0.08043 0.4360333,0.08043 0.2032,0 0.3809999,-0.05927 0.1820334,-0.05927 0.3217334,-0.1778 0.1439333,-0.118534 0.2370666,-0.2921 0.097367,-0.173567 0.1354667,-0.397934 z"
         style="fill:#f4da98;fill-opacity:1;stroke-width:0.26458332"
         id="path927"
         inkscape:connector-curvature="0" />
      <path
         d="M 7.5755621,11.302468 H 7.1141288 q -0.055033,0.2286 -0.2074334,0.372534 -0.1524,0.143933 -0.4064,0.143933 -0.1354666,0 -0.2497666,-0.04657 -0.1143,-0.0508 -0.1947333,-0.135466 -0.055033,-0.05927 -0.093133,-0.127 -0.033867,-0.07197 -0.055033,-0.173567 -0.016933,-0.105833 -0.0254,-0.258233 -0.00847,-0.1524 -0.00847,-0.381 0,-0.2286 0.00847,-0.381 0.00847,-0.1524 0.0254,-0.254 0.021167,-0.1058336 0.055033,-0.1735669 0.0381,-0.071967 0.093133,-0.1312333 0.080433,-0.084667 0.1947333,-0.1312333 0.1143,-0.0508 0.2497666,-0.0508 0.254,0 0.4021667,0.1439333 0.1524,0.1439333 0.2074333,0.3725332 H 7.5755621 Q 7.4951287,9.6387685 7.2072621,9.4017018 6.9193954,9.1646351 6.5002954,9.1646351 q -0.2370666,0 -0.4360333,0.084667 -0.1989666,0.080433 -0.3555999,0.2370667 -0.1100667,0.1100666 -0.1693334,0.2328333 -0.059267,0.1227666 -0.0889,0.2667 -0.0254,0.1439329 -0.029633,0.3217329 -0.00423,0.173567 -0.00423,0.389467 0,0.2159 0.00423,0.3937 0.00423,0.173566 0.029633,0.3175 0.029633,0.143933 0.0889,0.2667 0.059267,0.122766 0.1693334,0.232833 0.1566333,0.156633 0.3555999,0.2413 0.1989667,0.08043 0.4360333,0.08043 0.2032,0 0.381,-0.05927 0.1820334,-0.05927 0.3217333,-0.1778 0.1439334,-0.118534 0.2370667,-0.2921 0.097367,-0.173567 0.1354667,-0.397934 z"
         style="fill:#f4da98;fill-opacity:1;stroke-width:0.26458332"
         id="path929"
         inkscape:connector-curvature="0" />
      <path
         d="M 11.47022,12.204168 V 9.1900351 h -0.4572 V 11.306702 L 9.6202538,9.1900351 H 9.2011539 v 3.0141329 h 0.4571999 v -2.1209 l 1.3927662,2.1209 z"
         style="fill:#f4da98;fill-opacity:1;stroke-width:0.26458332"
         id="path931"
         inkscape:connector-curvature="0" />
      <path
         d="m 13.895913,11.128902 q 0,-0.270934 -0.0508,-0.474134 -0.0508,-0.207433 -0.2032,-0.3683 -0.105834,-0.110066 -0.2667,-0.182033 -0.156634,-0.07197 -0.376767,-0.07197 -0.220133,0 -0.376767,0.07197 -0.156633,0.07197 -0.262466,0.182033 -0.1524,0.160867 -0.2032,0.3683 -0.0508,0.2032 -0.0508,0.474134 0,0.275166 0.0508,0.4826 0.0508,0.2032 0.2032,0.364066 0.105833,0.110067 0.262466,0.182034 0.156634,0.07197 0.376767,0.07197 0.220133,0 0.376767,-0.07197 0.160866,-0.07197 0.2667,-0.182034 0.1524,-0.160866 0.2032,-0.364066 0.0508,-0.207434 0.0508,-0.4826 z m -0.4318,0 q 0,0.1778 -0.0254,0.334433 -0.0254,0.156633 -0.122767,0.254 -0.127,0.127 -0.3175,0.127 -0.186267,0 -0.313267,-0.127 -0.09737,-0.09737 -0.122766,-0.254 -0.0254,-0.156633 -0.0254,-0.334433 0,-0.1778 0.0254,-0.334434 0.0254,-0.156633 0.122766,-0.254 0.122767,-0.122766 0.313267,-0.122766 0.194733,0 0.3175,0.122766 0.09737,0.09737 0.122767,0.254 0.0254,0.156634 0.0254,0.334434 z"
         style="fill:#f4da98;fill-opacity:1;stroke-width:0.26458332"
         id="path933"
         inkscape:connector-curvature="0" />
      <path
         d="m 15.377574,12.204168 v -0.3683 h -0.1778 q -0.122767,0 -0.182033,-0.0635 -0.05503,-0.06773 -0.05503,-0.186266 v -1.159934 h 0.414867 v -0.3302 H 14.962707 V 9.4440351 h -0.4318 v 0.6519329 h -0.245533 v 0.3302 h 0.245533 v 1.1811 q 0,0.1143 0.03387,0.224367 0.0381,0.105833 0.110067,0.1905 0.07197,0.08043 0.182033,0.131233 0.110067,0.0508 0.262467,0.0508 z"
         style="fill:#f4da98;fill-opacity:1;stroke-width:0.26458332"
         id="path935"
         inkscape:connector-curvature="0" />
      <path
         d="m 17.616999,11.255902 v -0.1905 q 0,-0.2286 -0.0635,-0.4191 -0.05927,-0.1905 -0.1778,-0.325967 -0.1143,-0.135467 -0.283633,-0.211667 -0.169334,-0.0762 -0.385234,-0.0762 -0.414866,0 -0.664633,0.287867 -0.245533,0.283633 -0.245533,0.808567 0,0.3048 0.0762,0.516466 0.0762,0.211667 0.2032,0.3429 0.131233,0.127 0.3048,0.186267 0.1778,0.05503 0.381,0.05503 0.1397,0 0.249766,-0.02117 0.1143,-0.02117 0.207434,-0.0635 0.09737,-0.04233 0.1778,-0.1016 0.08467,-0.0635 0.169333,-0.148167 l -0.275167,-0.258233 q -0.1143,0.1143 -0.2286,0.169333 -0.110066,0.0508 -0.2921,0.0508 -0.2667,0 -0.4064,-0.160867 -0.1397,-0.160866 -0.1397,-0.440266 z m -0.427567,-0.300567 h -0.9652 q 0.0042,-0.09737 0.0127,-0.156633 0.0085,-0.0635 0.04233,-0.135467 0.0508,-0.122767 0.160866,-0.194733 0.1143,-0.0762 0.2667,-0.0762 0.1524,0 0.262467,0.0762 0.110067,0.07197 0.160867,0.194733 0.03387,0.07197 0.04233,0.135467 0.0127,0.05927 0.01693,0.156633 z"
         style="fill:#f4da98;fill-opacity:1;stroke-width:0.26458332"
         id="path937"
         inkscape:connector-curvature="0" />
    </g>
    <g
       aria-label="OCT UP"
       transform="translate(0,169.02917)"
       style="font-style:normal;font-variant:normal;font-weight:normal;font-stretch:normal;font-size:2.82222223px;line-height:1.25;font-family:DIN;-inkscape-font-specification:DIN;text-align:center;letter-spacing:0px;word-spacing:0px;text-anchor:middle;display:inline;fill:#f4da98;fill-opacity:1;stroke:none;stroke-width:0.26458332"
       id="text869">
      <path
         d="m 7.0146379,45.620827 q 0,-0.143934 -0.00282,-0.259645 -0.00282,-0.118533 -0.019755,-0.214489 -0.016933,-0.09595 -0.056445,-0.1778 -0.039511,-0.08184 -0.1128889,-0.155222 -0.1044222,-0.104422 -0.2370666,-0.158044 -0.1326445,-0.05645 -0.2935112,-0.05645 -0.1608666,0 -0.2935111,0.05645 -0.1298222,0.05362 -0.2342444,0.158044 -0.073378,0.07338 -0.1128889,0.155222 -0.039511,0.08185 -0.059267,0.1778 -0.016933,0.09596 -0.019755,0.214489 -0.00282,0.115711 -0.00282,0.259645 0,0.143933 0.00282,0.262466 0.00282,0.115712 0.019755,0.211667 0.019756,0.09596 0.059267,0.1778 0.039511,0.08185 0.1128889,0.155222 0.1044222,0.104423 0.2342444,0.160867 0.1326445,0.05362 0.2935111,0.05362 0.1608667,0 0.2935112,-0.05362 0.1326444,-0.05644 0.2370666,-0.160867 0.073378,-0.07338 0.1128889,-0.155222 0.039511,-0.08184 0.056445,-0.1778 0.016933,-0.09596 0.019755,-0.211667 0.00282,-0.118533 0.00282,-0.262466 z m -0.3048,0 q 0,0.1524 -0.00564,0.254 -0.00282,0.09878 -0.016933,0.169333 -0.011289,0.06773 -0.036689,0.115711 -0.022578,0.04516 -0.059267,0.08467 -0.053622,0.05644 -0.1326444,0.09031 -0.0762,0.03387 -0.1665112,0.03387 -0.090311,0 -0.1693333,-0.03387 -0.0762,-0.03387 -0.1298222,-0.09031 -0.036689,-0.03951 -0.062089,-0.08467 -0.022578,-0.04798 -0.036689,-0.115711 -0.011289,-0.07055 -0.016933,-0.169333 -0.00282,-0.1016 -0.00282,-0.254 0,-0.1524 0.00282,-0.251178 0.00564,-0.1016 0.016933,-0.169333 0.014111,-0.07056 0.036689,-0.115711 0.0254,-0.04798 0.062089,-0.08749 0.053622,-0.05644 0.1298222,-0.09031 0.079022,-0.03387 0.1693333,-0.03387 0.090311,0 0.1665112,0.03387 0.079022,0.03387 0.1326444,0.09031 0.036689,0.03951 0.059267,0.08749 0.0254,0.04515 0.036689,0.115711 0.014111,0.06773 0.016933,0.169333 0.00564,0.09878 0.00564,0.251178 z"
         style="fill:#f4da98;fill-opacity:1;stroke-width:0.26458332"
         id="path915"
         inkscape:connector-curvature="0" />
      <path
         d="M 8.8321488,46.024405 H 8.5245266 q -0.036689,0.1524 -0.1382889,0.248355 -0.1016,0.09596 -0.2709334,0.09596 -0.090311,0 -0.1665111,-0.03104 Q 7.8725932,46.30381 7.818971,46.24737 7.782282,46.20786 7.756882,46.1627 7.734304,46.11472 7.720193,46.046989 7.708904,45.976439 7.70326,45.874834 q -0.00564,-0.1016 -0.00564,-0.254 0,-0.1524 0.00564,-0.254 0.00564,-0.1016 0.016933,-0.169334 0.014111,-0.07055 0.036689,-0.115711 0.0254,-0.04798 0.062089,-0.08749 0.053622,-0.05644 0.1298222,-0.08749 0.0762,-0.03387 0.1665111,-0.03387 0.1693334,0 0.2681111,0.09596 0.1016,0.09596 0.1382889,0.248356 H 8.8321488 Q 8.7785266,44.915271 8.5866154,44.757227 8.3947043,44.599182 8.1153043,44.599182 q -0.1580444,0 -0.2906889,0.05645 -0.1326444,0.05362 -0.2370666,0.158044 -0.073378,0.07338 -0.1128889,0.155222 -0.039511,0.08185 -0.059267,0.1778 -0.016933,0.09596 -0.019755,0.214489 -0.00282,0.115711 -0.00282,0.259645 0,0.143933 0.00282,0.262466 0.00282,0.115712 0.019755,0.211667 0.019756,0.09596 0.059267,0.1778 0.039511,0.08185 0.1128889,0.155222 0.1044222,0.104423 0.2370666,0.160867 0.1326445,0.05362 0.2906889,0.05362 0.1354667,0 0.254,-0.03951 0.1213556,-0.03951 0.2144889,-0.118533 0.095956,-0.07902 0.1580445,-0.194734 0.064911,-0.115711 0.090311,-0.265288 z"
         style="fill:#f4da98;fill-opacity:1;stroke-width:0.26458332"
         id="path917"
         inkscape:connector-curvature="0" />
      <path
         d="M 10.415409,44.889871 V 44.616116 H 9.0042983 v 0.273755 h 0.5531555 v 1.735667 h 0.3048 v -1.735667 z"
         style="fill:#f4da98;fill-opacity:1;stroke-width:0.26458332"
         id="path919"
         inkscape:connector-curvature="0" />
      <path
         d="m 12.850985,45.948205 v -1.332089 h -0.3048 v 1.317977 q 0,0.2032 -0.115711,0.318912 -0.112889,0.115711 -0.301978,0.115711 -0.189089,0 -0.301978,-0.115711 -0.112889,-0.115712 -0.112889,-0.318912 v -1.317977 h -0.3048 v 1.332089 q 0,0.155222 0.05362,0.285044 0.05644,0.127 0.1524,0.217311 0.09596,0.09031 0.2286,0.141111 0.132644,0.0508 0.285044,0.0508 0.1524,0 0.285045,-0.0508 0.132644,-0.0508 0.2286,-0.141111 0.09878,-0.09031 0.1524,-0.217311 0.05644,-0.129822 0.05644,-0.285044 z"
         style="fill:#f4da98;fill-opacity:1;stroke-width:0.26458332"
         id="path921"
         inkscape:connector-curvature="0" />
      <path
         d="m 14.750338,45.225716 q 0,-0.129823 -0.04515,-0.242711 -0.04516,-0.112889 -0.129822,-0.191912 -0.08467,-0.08184 -0.2032,-0.127 -0.118534,-0.04798 -0.265289,-0.04798 h -0.762 v 2.009422 h 0.3048 v -0.790222 h 0.4572 q 0.146755,0 0.265289,-0.04516 0.118533,-0.04798 0.2032,-0.127 0.08467,-0.08184 0.129822,-0.191911 0.04515,-0.112889 0.04515,-0.245533 z m -0.3048,0 q 0,0.160866 -0.09878,0.248355 -0.09596,0.08467 -0.256823,0.08467 h -0.440266 v -0.668867 h 0.440266 q 0.160867,0 0.256823,0.08749 0.09878,0.08749 0.09878,0.248356 z"
         style="fill:#f4da98;fill-opacity:1;stroke-width:0.26458332"
         id="path923"
         inkscape:connector-curvature="0" />
    </g>
    <g
       aria-label="OCT NORM"
       transform="translate(0,169.02917)"
       style="font-style:normal;font-variant:normal;font-weight:normal;font-stretch:normal;font-size:2.82222223px;line-height:1.25;font-family:DIN;-inkscape-font-specification:DIN;text-align:center;letter-spacing:0px;word-spacing:0px;text-anchor:middle;display:inline;fill:#f4da98;fill-opacity:1;stroke:none;stroke-width:0.26458332"
       id="text873">
      <path
         d="m 4.9290195,59.620827 q 0,-0.143934 -0.00282,-0.259645 -0.00282,-0.118533 -0.019755,-0.214489 -0.016933,-0.09595 -0.056445,-0.1778 -0.039511,-0.08184 -0.1128888,-0.155222 -0.1044223,-0.104422 -0.2370667,-0.158044 -0.1326445,-0.05645 -0.2935111,-0.05645 -0.1608667,0 -0.2935111,0.05645 -0.1298223,0.05362 -0.2342445,0.158044 -0.073378,0.07338 -0.1128889,0.155222 -0.039511,0.08185 -0.059267,0.1778 -0.016933,0.09596 -0.019756,0.214489 -0.00282,0.115711 -0.00282,0.259645 0,0.143933 0.00282,0.262466 0.00282,0.115712 0.019756,0.211667 0.019756,0.09596 0.059267,0.1778 0.039511,0.08185 0.1128889,0.155222 0.1044222,0.104423 0.2342445,0.160867 0.1326444,0.05362 0.2935111,0.05362 0.1608666,0 0.2935111,-0.05362 0.1326444,-0.05644 0.2370667,-0.160867 0.073378,-0.07338 0.1128888,-0.155222 0.039511,-0.08184 0.056445,-0.1778 0.016933,-0.09596 0.019755,-0.211667 0.00282,-0.118533 0.00282,-0.262466 z m -0.3048,0 q 0,0.1524 -0.00564,0.254 -0.00282,0.09878 -0.016933,0.169333 -0.011289,0.06773 -0.036689,0.115711 -0.022578,0.04516 -0.059267,0.08467 -0.053622,0.05644 -0.1326444,0.09031 -0.0762,0.03387 -0.1665111,0.03387 -0.090311,0 -0.1693334,-0.03387 -0.0762,-0.03387 -0.1298222,-0.09031 -0.036689,-0.03951 -0.062089,-0.08467 -0.022578,-0.04798 -0.036689,-0.115711 -0.011289,-0.07055 -0.016933,-0.169333 -0.00282,-0.1016 -0.00282,-0.254 0,-0.1524 0.00282,-0.251178 0.00564,-0.1016 0.016933,-0.169333 0.014111,-0.07056 0.036689,-0.115711 0.0254,-0.04798 0.062089,-0.08749 0.053622,-0.05644 0.1298222,-0.09031 0.079022,-0.03387 0.1693334,-0.03387 0.090311,0 0.1665111,0.03387 0.079022,0.03387 0.1326444,0.09031 0.036689,0.03951 0.059267,0.08749 0.0254,0.04515 0.036689,0.115711 0.014111,0.06773 0.016933,0.169333 0.00564,0.09878 0.00564,0.251178 z"
         style="fill:#f4da98;fill-opacity:1;stroke-width:0.26458332"
         id="path900"
         inkscape:connector-curvature="0" />
      <path
         d="M 6.7465303,60.024405 H 6.4389081 q -0.036689,0.1524 -0.1382889,0.248355 -0.1016,0.09596 -0.2709333,0.09596 -0.090311,0 -0.1665112,-0.03104 -0.0762,-0.03387 -0.1298222,-0.09031 -0.036689,-0.03951 -0.062089,-0.08467 -0.022578,-0.04798 -0.036689,-0.115711 -0.011289,-0.07055 -0.016933,-0.172155 -0.00564,-0.1016 -0.00564,-0.254 0,-0.1524 0.00564,-0.254 0.00564,-0.1016 0.016933,-0.169334 0.014111,-0.07055 0.036689,-0.115711 0.0254,-0.04798 0.062089,-0.08749 0.053622,-0.05644 0.1298222,-0.08749 0.0762,-0.03387 0.1665112,-0.03387 0.1693333,0 0.2681111,0.09596 0.1016,0.09596 0.1382889,0.248356 H 6.7465303 Q 6.6929081,58.915271 6.500997,58.757227 6.3090859,58.599182 6.0296859,58.599182 q -0.1580445,0 -0.2906889,0.05645 -0.1326445,0.05362 -0.2370667,0.158044 -0.073378,0.07338 -0.1128889,0.155222 -0.039511,0.08185 -0.059267,0.1778 -0.016933,0.09596 -0.019755,0.214489 -0.00282,0.115711 -0.00282,0.259645 0,0.143933 0.00282,0.262466 0.00282,0.115712 0.019755,0.211667 0.019756,0.09596 0.059267,0.1778 0.039511,0.08185 0.1128889,0.155222 0.1044222,0.104423 0.2370667,0.160867 0.1326444,0.05362 0.2906889,0.05362 0.1354666,0 0.254,-0.03951 0.1213555,-0.03951 0.2144888,-0.118533 0.095956,-0.07902 0.1580445,-0.194734 0.064911,-0.115711 0.090311,-0.265288 z"
         style="fill:#f4da98;fill-opacity:1;stroke-width:0.26458332"
         id="path902"
         inkscape:connector-curvature="0" />
      <path
         d="M 8.3297909,58.889871 V 58.616116 H 6.9186798 v 0.273755 h 0.5531556 v 1.735667 h 0.3048 v -1.735667 z"
         style="fill:#f4da98;fill-opacity:1;stroke-width:0.26458332"
         id="path904"
         inkscape:connector-curvature="0" />
      <path
         d="m 10.866966,60.625538 v -2.009422 h -0.3048 v 1.411111 L 9.6336554,58.616116 h -0.2794 v 2.009422 h 0.3048 v -1.413933 l 0.9285106,1.413933 z"
         style="fill:#f4da98;fill-opacity:1;stroke-width:0.26458332"
         id="path906"
         inkscape:connector-curvature="0" />
      <path
         d="m 12.763495,59.620827 q 0,-0.143934 -0.0028,-0.259645 -0.0028,-0.118533 -0.01976,-0.214489 -0.01693,-0.09595 -0.05644,-0.1778 -0.03951,-0.08184 -0.112889,-0.155222 -0.104422,-0.104422 -0.237067,-0.158044 -0.132644,-0.05645 -0.293511,-0.05645 -0.160867,0 -0.293511,0.05645 -0.129822,0.05362 -0.234244,0.158044 -0.07338,0.07338 -0.112889,0.155222 -0.03951,0.08185 -0.05927,0.1778 -0.01693,0.09596 -0.01976,0.214489 -0.0028,0.115711 -0.0028,0.259645 0,0.143933 0.0028,0.262466 0.0028,0.115712 0.01976,0.211667 0.01976,0.09596 0.05927,0.1778 0.03951,0.08185 0.112889,0.155222 0.104422,0.104423 0.234244,0.160867 0.132644,0.05362 0.293511,0.05362 0.160867,0 0.293511,-0.05362 0.132645,-0.05644 0.237067,-0.160867 0.07338,-0.07338 0.112889,-0.155222 0.03951,-0.08184 0.05644,-0.1778 0.01693,-0.09596 0.01976,-0.211667 0.0028,-0.118533 0.0028,-0.262466 z m -0.3048,0 q 0,0.1524 -0.0056,0.254 -0.0028,0.09878 -0.01693,0.169333 -0.01129,0.06773 -0.03669,0.115711 -0.02258,0.04516 -0.05927,0.08467 -0.05362,0.05644 -0.132645,0.09031 -0.0762,0.03387 -0.166511,0.03387 -0.09031,0 -0.169333,-0.03387 -0.0762,-0.03387 -0.129822,-0.09031 -0.03669,-0.03951 -0.06209,-0.08467 -0.02258,-0.04798 -0.03669,-0.115711 -0.01129,-0.07055 -0.01693,-0.169333 -0.0028,-0.1016 -0.0028,-0.254 0,-0.1524 0.0028,-0.251178 0.0056,-0.1016 0.01693,-0.169333 0.01411,-0.07056 0.03669,-0.115711 0.0254,-0.04798 0.06209,-0.08749 0.05362,-0.05644 0.129822,-0.09031 0.07902,-0.03387 0.169333,-0.03387 0.09031,0 0.166511,0.03387 0.07902,0.03387 0.132645,0.09031 0.03669,0.03951 0.05927,0.08749 0.0254,0.04515 0.03669,0.115711 0.01411,0.06773 0.01693,0.169333 0.0056,0.09878 0.0056,0.251178 z"
         style="fill:#f4da98;fill-opacity:1;stroke-width:0.26458332"
         id="path908"
         inkscape:connector-curvature="0" />
      <path
         d="m 14.679784,60.625538 -0.462845,-0.889 q 0.169334,-0.04798 0.285045,-0.180622 0.115711,-0.135467 0.115711,-0.352778 0,-0.127 -0.04516,-0.234245 -0.04233,-0.110066 -0.124178,-0.186266 -0.08184,-0.07902 -0.197555,-0.121356 -0.112889,-0.04516 -0.256822,-0.04516 h -0.77893 v 2.009422 h 0.3048 v -0.846667 h 0.381 l 0.423334,0.846667 z M 14.312895,59.20596 q 0,0.149578 -0.09596,0.231422 -0.09313,0.08185 -0.245533,0.08185 H 13.51985 v -0.629356 h 0.451556 q 0.1524,0 0.245533,0.08467 0.09596,0.08184 0.09596,0.231422 z"
         style="fill:#f4da98;fill-opacity:1;stroke-width:0.26458332"
         id="path910"
         inkscape:connector-curvature="0" />
      <path
         d="m 16.835958,60.625538 v -2.009422 h -0.3048 l -0.575734,1.250244 -0.587022,-1.250244 h -0.3048 v 2.009422 h 0.3048 V 59.28216 l 0.474133,0.979311 h 0.225778 l 0.462845,-0.979311 v 1.343378 z"
         style="fill:#f4da98;fill-opacity:1;stroke-width:0.26458332"
         id="path912"
         inkscape:connector-curvature="0" />
    </g>
    <g
       aria-label="OCT DOWN"
       transform="translate(0,169.02917)"
       style="font-style:normal;font-variant:normal;font-weight:normal;font-stretch:normal;font-size:2.82222223px;line-height:1.25;font-family:DIN;-inkscape-font-specification:DIN;text-align:center;letter-spacing:0px;word-spacing:0px;text-anchor:middle;display:inline;fill:#f4da98;fill-opacity:1;stroke:none;stroke-width:0.26458332"
       id="text877">
      <path
         d="m 4.8471752,73.620831 q 0,-0.143934 -0.00282,-0.259645 -0.00282,-0.118533 -0.019755,-0.214489 -0.016933,-0.09596 -0.056445,-0.1778 -0.039511,-0.08184 -0.1128889,-0.155222 -0.1044222,-0.104422 -0.2370666,-0.158044 -0.1326445,-0.05644 -0.2935111,-0.05644 -0.1608667,0 -0.2935111,0.05644 -0.1298223,0.05362 -0.2342445,0.158044 -0.073378,0.07338 -0.1128889,0.155222 -0.039511,0.08185 -0.059267,0.1778 -0.016933,0.09596 -0.019756,0.214489 -0.00282,0.115711 -0.00282,0.259645 0,0.143933 0.00282,0.262466 0.00282,0.115711 0.019756,0.211667 0.019756,0.09595 0.059267,0.1778 0.039511,0.08184 0.1128889,0.155222 0.1044222,0.104422 0.2342445,0.160867 0.1326444,0.05362 0.2935111,0.05362 0.1608666,0 0.2935111,-0.05362 0.1326444,-0.05644 0.2370666,-0.160867 0.073378,-0.07338 0.1128889,-0.155222 0.039511,-0.08185 0.056445,-0.1778 0.016933,-0.09596 0.019755,-0.211667 0.00282,-0.118533 0.00282,-0.262466 z m -0.3048,0 q 0,0.1524 -0.00564,0.254 -0.00282,0.09878 -0.016933,0.169333 -0.011289,0.06773 -0.036689,0.115711 -0.022578,0.04516 -0.059267,0.08467 -0.053622,0.05644 -0.1326444,0.09031 -0.0762,0.03387 -0.1665111,0.03387 -0.090311,0 -0.1693334,-0.03387 -0.0762,-0.03387 -0.1298222,-0.09031 -0.036689,-0.03951 -0.062089,-0.08467 -0.022578,-0.04798 -0.036689,-0.115711 -0.011289,-0.07056 -0.016933,-0.169333 -0.00282,-0.1016 -0.00282,-0.254 0,-0.1524 0.00282,-0.251178 0.00564,-0.1016 0.016933,-0.169334 0.014111,-0.07055 0.036689,-0.115711 0.0254,-0.04798 0.062089,-0.08749 0.053622,-0.05644 0.1298222,-0.09031 0.079022,-0.03387 0.1693334,-0.03387 0.090311,0 0.1665111,0.03387 0.079022,0.03387 0.1326444,0.09031 0.036689,0.03951 0.059267,0.08749 0.0254,0.04516 0.036689,0.115711 0.014111,0.06773 0.016933,0.169334 0.00564,0.09878 0.00564,0.251178 z"
         style="fill:#f4da98;fill-opacity:1;stroke-width:0.26458332"
         id="path885"
         inkscape:connector-curvature="0" />
      <path
         d="M 6.664686,74.024408 H 6.3570638 q -0.036689,0.1524 -0.1382889,0.248356 -0.1016,0.09596 -0.2709334,0.09596 -0.090311,0 -0.1665111,-0.03104 -0.0762,-0.03387 -0.1298222,-0.09031 -0.036689,-0.03951 -0.062089,-0.08467 -0.022578,-0.04798 -0.036689,-0.115711 -0.011289,-0.07055 -0.016933,-0.172155 -0.00564,-0.1016 -0.00564,-0.254 0,-0.1524 0.00564,-0.254 0.00564,-0.1016 0.016933,-0.169334 0.014111,-0.07055 0.036689,-0.115711 0.0254,-0.04798 0.062089,-0.08749 0.053622,-0.05644 0.1298222,-0.08749 0.0762,-0.03387 0.1665111,-0.03387 0.1693334,0 0.2681112,0.09596 0.1016,0.09596 0.1382888,0.248356 H 6.664686 Q 6.6110638,72.915275 6.4191527,72.757231 6.2272415,72.599186 5.9478415,72.599186 q -0.1580444,0 -0.2906888,0.05644 -0.1326445,0.05362 -0.2370667,0.158044 -0.073378,0.07338 -0.1128889,0.155222 -0.039511,0.08185 -0.059267,0.1778 -0.016933,0.09596 -0.019756,0.214489 -0.00282,0.115711 -0.00282,0.259645 0,0.143933 0.00282,0.262466 0.00282,0.115711 0.019756,0.211667 0.019756,0.09595 0.059267,0.1778 0.039511,0.08184 0.1128889,0.155222 0.1044222,0.104422 0.2370667,0.160867 0.1326444,0.05362 0.2906888,0.05362 0.1354667,0 0.254,-0.03951 0.1213556,-0.03951 0.2144889,-0.118533 0.095956,-0.07902 0.1580445,-0.194734 0.064911,-0.115711 0.090311,-0.265289 z"
         style="fill:#f4da98;fill-opacity:1;stroke-width:0.26458332"
         id="path887"
         inkscape:connector-curvature="0" />
      <path
         d="M 8.2479466,72.889875 V 72.616119 H 6.8368355 v 0.273756 h 0.5531556 v 1.735667 h 0.3048 v -1.735667 z"
         style="fill:#f4da98;fill-opacity:1;stroke-width:0.26458332"
         id="path889"
         inkscape:connector-curvature="0" />
      <path
         d="m 10.700455,73.606719 q 0,-0.110066 -0.0028,-0.217311 0,-0.107244 -0.01693,-0.208844 -0.01693,-0.104422 -0.05927,-0.197556 -0.04233,-0.09596 -0.124178,-0.1778 -0.09595,-0.09595 -0.2286,-0.141111 -0.132644,-0.04798 -0.2906884,-0.04798 H 9.272411 v 2.009423 h 0.7055556 q 0.1580444,0 0.2906884,-0.04516 0.132645,-0.04798 0.2286,-0.143933 0.08185,-0.08185 0.124178,-0.180622 0.04233,-0.09878 0.05927,-0.206023 0.01693,-0.107244 0.01693,-0.220133 0.0028,-0.112889 0.0028,-0.222956 z m -0.3048,0 q 0,0.208845 -0.01411,0.366889 -0.01411,0.155223 -0.09313,0.242711 -0.124178,0.135467 -0.3414888,0.135467 H 9.577211 v -1.461911 h 0.3697112 q 0.2173108,0 0.3414888,0.135467 0.07902,0.08749 0.09313,0.231422 0.01411,0.141111 0.01411,0.349955 z"
         style="fill:#f4da98;fill-opacity:1;stroke-width:0.26458332"
         id="path891"
         inkscape:connector-curvature="0" />
      <path
         d="m 12.523607,73.620831 q 0,-0.143934 -0.0028,-0.259645 -0.0028,-0.118533 -0.01976,-0.214489 -0.01693,-0.09596 -0.05644,-0.1778 -0.03951,-0.08184 -0.112889,-0.155222 -0.104423,-0.104422 -0.237067,-0.158044 -0.132644,-0.05644 -0.293511,-0.05644 -0.160867,0 -0.293511,0.05644 -0.129822,0.05362 -0.234245,0.158044 -0.07338,0.07338 -0.112889,0.155222 -0.03951,0.08185 -0.05927,0.1778 -0.01693,0.09596 -0.01976,0.214489 -0.0028,0.115711 -0.0028,0.259645 0,0.143933 0.0028,0.262466 0.0028,0.115711 0.01976,0.211667 0.01975,0.09595 0.05927,0.1778 0.03951,0.08184 0.112889,0.155222 0.104423,0.104422 0.234245,0.160867 0.132644,0.05362 0.293511,0.05362 0.160867,0 0.293511,-0.05362 0.132644,-0.05644 0.237067,-0.160867 0.07338,-0.07338 0.112889,-0.155222 0.03951,-0.08185 0.05644,-0.1778 0.01693,-0.09596 0.01976,-0.211667 0.0028,-0.118533 0.0028,-0.262466 z m -0.3048,0 q 0,0.1524 -0.0056,0.254 -0.0028,0.09878 -0.01693,0.169333 -0.01129,0.06773 -0.03669,0.115711 -0.02258,0.04516 -0.05927,0.08467 -0.05362,0.05644 -0.132644,0.09031 -0.0762,0.03387 -0.166511,0.03387 -0.09031,0 -0.169333,-0.03387 -0.0762,-0.03387 -0.129823,-0.09031 -0.03669,-0.03951 -0.06209,-0.08467 -0.02258,-0.04798 -0.03669,-0.115711 -0.01129,-0.07056 -0.01693,-0.169333 -0.0028,-0.1016 -0.0028,-0.254 0,-0.1524 0.0028,-0.251178 0.0056,-0.1016 0.01693,-0.169334 0.01411,-0.07055 0.03669,-0.115711 0.0254,-0.04798 0.06209,-0.08749 0.05362,-0.05644 0.129823,-0.09031 0.07902,-0.03387 0.169333,-0.03387 0.09031,0 0.166511,0.03387 0.07902,0.03387 0.132644,0.09031 0.03669,0.03951 0.05927,0.08749 0.0254,0.04516 0.03669,0.115711 0.01411,0.06773 0.01693,0.169334 0.0056,0.09878 0.0056,0.251178 z"
         style="fill:#f4da98;fill-opacity:1;stroke-width:0.26458332"
         id="path893"
         inkscape:connector-curvature="0" />
      <path
         d="M 15.111584,72.616119 H 14.78985 l -0.349955,1.436512 -0.403578,-1.436512 h -0.245533 l -0.403578,1.436512 -0.349956,-1.436512 h -0.321733 l 0.524933,2.009423 h 0.265289 l 0.4064,-1.408289 0.409222,1.408289 h 0.265289 z"
         style="fill:#f4da98;fill-opacity:1;stroke-width:0.26458332"
         id="path895"
         inkscape:connector-curvature="0" />
      <path
         d="m 16.917801,74.625542 v -2.009423 h -0.3048 v 1.411112 L 15.68449,72.616119 h -0.2794 v 2.009423 h 0.3048 v -1.413934 l 0.928511,1.413934 z"
         style="fill:#f4da98;fill-opacity:1;stroke-width:0.26458332"
         id="path897"
         inkscape:connector-curvature="0" />
    </g>
    <g
       aria-label="VELOCITY"
       style="font-style:normal;font-variant:normal;font-weight:normal;font-stretch:normal;font-size:2.82222223px;line-height:1.25;font-family:DIN;-inkscape-font-specification:DIN;text-align:center;letter-spacing:0px;word-spacing:0px;text-anchor:middle;fill:#f4da98;fill-opacity:1;stroke:none;stroke-width:0.26458332"
       id="text928"
       transform="translate(0,-1.0583333)">
      <path
         d="M 5.5527317,196.58698 H 5.2309984 l -0.4628445,1.46191 -0.4628444,-1.46191 H 3.9892206 l 0.6604,2.00943 h 0.2370667 z"
         style="fill:#f4da98;fill-opacity:1;stroke-width:0.26458332"
         id="path934"
         inkscape:connector-curvature="0" />
      <path
         d="m 7.1134184,198.59641 v -0.27376 H 6.1341072 v -0.60396 H 6.969485 v -0.27093 H 6.1341072 v -0.58702 h 0.9793112 v -0.27376 H 5.8293072 v 2.00943 z"
         style="fill:#f4da98;fill-opacity:1;stroke-width:0.26458332"
         id="path936"
         inkscape:connector-curvature="0" />
      <path
         d="m 8.803926,198.59641 v -0.27376 H 7.8359038 v -1.73567 h -0.3048 v 2.00943 z"
         style="fill:#f4da98;fill-opacity:1;stroke-width:0.26458332"
         id="path938"
         inkscape:connector-curvature="0" />
      <path
         d="m 10.437989,197.59169 q 0,-0.14393 -0.0028,-0.25964 -0.0028,-0.11853 -0.01976,-0.21449 -0.01693,-0.0959 -0.05644,-0.1778 -0.03951,-0.0818 -0.112889,-0.15522 -0.104423,-0.10442 -0.237067,-0.15805 -0.1326445,-0.0564 -0.2935111,-0.0564 -0.1608667,0 -0.2935111,0.0564 -0.1298223,0.0536 -0.2342445,0.15805 -0.073378,0.0734 -0.1128889,0.15522 -0.039511,0.0819 -0.059267,0.1778 -0.016933,0.096 -0.019756,0.21449 -0.00282,0.11571 -0.00282,0.25964 0,0.14394 0.00282,0.26247 0.00282,0.11571 0.019756,0.21167 0.019756,0.0959 0.059267,0.1778 0.039511,0.0818 0.1128889,0.15522 0.1044222,0.10442 0.2342445,0.16087 0.1326444,0.0536 0.2935111,0.0536 0.1608666,0 0.2935111,-0.0536 0.132644,-0.0565 0.237067,-0.16087 0.07338,-0.0734 0.112889,-0.15522 0.03951,-0.0819 0.05644,-0.1778 0.01693,-0.096 0.01976,-0.21167 0.0028,-0.11853 0.0028,-0.26247 z m -0.3048,0 q 0,0.1524 -0.0056,0.254 -0.0028,0.0988 -0.01693,0.16934 -0.01129,0.0677 -0.03669,0.11571 -0.02258,0.0452 -0.05927,0.0847 -0.053622,0.0564 -0.132644,0.0903 -0.0762,0.0339 -0.1665111,0.0339 -0.090311,0 -0.1693334,-0.0339 -0.0762,-0.0339 -0.1298222,-0.0903 -0.036689,-0.0395 -0.062089,-0.0847 -0.022578,-0.048 -0.036689,-0.11571 -0.011289,-0.0706 -0.016933,-0.16934 -0.00282,-0.1016 -0.00282,-0.254 0,-0.1524 0.00282,-0.25117 0.00564,-0.1016 0.016933,-0.16934 0.014111,-0.0705 0.036689,-0.11571 0.0254,-0.048 0.062089,-0.0875 0.053622,-0.0564 0.1298222,-0.0903 0.079022,-0.0339 0.1693334,-0.0339 0.090311,0 0.1665111,0.0339 0.079022,0.0339 0.132644,0.0903 0.03669,0.0395 0.05927,0.0875 0.0254,0.0452 0.03669,0.11571 0.01411,0.0677 0.01693,0.16934 0.0056,0.0988 0.0056,0.25117 z"
         style="fill:#f4da98;fill-opacity:1;stroke-width:0.26458332"
         id="path940"
         inkscape:connector-curvature="0" />
      <path
         d="m 12.2555,197.99527 h -0.307622 q -0.03669,0.1524 -0.138289,0.24836 -0.1016,0.096 -0.270934,0.096 -0.09031,0 -0.166511,-0.031 -0.0762,-0.0339 -0.129822,-0.0903 -0.03669,-0.0395 -0.06209,-0.0847 -0.02258,-0.048 -0.03669,-0.11571 -0.01129,-0.0706 -0.01693,-0.17216 -0.0056,-0.1016 -0.0056,-0.254 0,-0.1524 0.0056,-0.254 0.0056,-0.1016 0.01693,-0.16933 0.01411,-0.0705 0.03669,-0.11571 0.0254,-0.048 0.06209,-0.0875 0.05362,-0.0564 0.129822,-0.0875 0.0762,-0.0339 0.166511,-0.0339 0.169334,0 0.268111,0.096 0.1016,0.096 0.138289,0.24836 H 12.2555 q -0.05362,-0.30198 -0.245534,-0.46003 -0.191911,-0.15804 -0.471311,-0.15804 -0.158044,0 -0.290689,0.0564 -0.132644,0.0536 -0.237066,0.15805 -0.07338,0.0734 -0.112889,0.15522 -0.03951,0.0819 -0.05927,0.1778 -0.01693,0.096 -0.01975,0.21449 -0.0028,0.11571 -0.0028,0.25964 0,0.14394 0.0028,0.26247 0.0028,0.11571 0.01975,0.21167 0.01976,0.0959 0.05927,0.1778 0.03951,0.0818 0.112889,0.15522 0.104422,0.10442 0.237066,0.16087 0.132645,0.0536 0.290689,0.0536 0.135467,0 0.254,-0.0395 0.121356,-0.0395 0.214489,-0.11854 0.09596,-0.079 0.158045,-0.19473 0.06491,-0.11571 0.09031,-0.26529 z"
         style="fill:#f4da98;fill-opacity:1;stroke-width:0.26458332"
         id="path942"
         inkscape:connector-curvature="0" />
      <path
         d="m 12.966695,198.59641 v -2.00943 h -0.3048 v 2.00943 z"
         style="fill:#f4da98;fill-opacity:1;stroke-width:0.26458332"
         id="path944"
         inkscape:connector-curvature="0" />
      <path
         d="m 14.724936,196.86074 v -0.27376 h -1.411111 v 0.27376 h 0.553155 v 1.73567 h 0.3048 v -1.73567 z"
         style="fill:#f4da98;fill-opacity:1;stroke-width:0.26458332"
         id="path946"
         inkscape:connector-curvature="0" />
      <path
         d="m 16.330779,196.58698 h -0.333022 l -0.420511,0.88336 -0.420511,-0.88336 h -0.333023 l 0.601134,1.18251 v 0.82692 h 0.3048 v -0.82692 z"
         style="fill:#f4da98;fill-opacity:1;stroke-width:0.26458332"
         id="path948"
         inkscape:connector-curvature="0" />
    </g>
    <rect
       style="display:inline;opacity:1;fill:#000000;fill-opacity:1;stroke:#000000;stroke-width:0.2210553;stroke-linecap:butt;stroke-linejoin:miter;stroke-miterlimit:4;stroke-dasharray:none;stroke-opacity:1"
       id="rect1627"
       width="15.778945"
       height="9.778945"
       x="2.2705271"
       y="184.11053"
       rx="1"
       ry="1" />
  </g>
  <g
     inkscape:groupmode="layer"
     id="layer2"
     inkscape:label="components"
     style="display:none">
    <circle
       style="fill:#ff0000;fill-opacity:1;stroke:none;stroke-width:6.5;stroke-miterlimit:4;stroke-dasharray:none;stroke-opacity:1"
       id="path881"
       cx="10.16"
       cy="20.500004"
       r="1" />
    <circle
       style="fill:#ff0000;fill-opacity:1;stroke:none;stroke-width:6.5;stroke-miterlimit:4;stroke-dasharray:none;stroke-opacity:1"
       id="path881-6"
       cx="10.16"
       cy="36.5"
       r="1" />
    <circle
       style="fill:#ff0000;fill-opacity:1;stroke:none;stroke-width:6.5;stroke-miterlimit:4;stroke-dasharray:none;stroke-opacity:1"
       id="path881-7"
       cx="10.16"
       cy="52.499996"
       r="1" />
    <circle
       style="fill:#ff0000;fill-opacity:1;stroke:none;stroke-width:6.5;stroke-miterlimit:4;stroke-dasharray:none;stroke-opacity:1"
       id="path881-5"
       cx="10.16"
       cy="66.499992"
       r="1" />
    <circle
       style="fill:#ff0000;fill-opacity:1;stroke:none;stroke-width:6.5;stroke-miterlimit:4;stroke-dasharray:none;stroke-opacity:1"
       id="path881-35"
       cx="10.16"
       cy="80.499992"
       r="1" />
    <circle
       style="display:inline;fill:#00ff00;fill-opacity:1;stroke:none;stroke-width:6.5;stroke-miterlimit:4;stroke-dasharray:none;stroke-opacity:1"
       id="path881-35-6"
       cx="10.16"
       cy="94.5"
       r="1" />
    <circle
       style="display:inline;fill:#0000ff;fill-opacity:1;stroke:none;stroke-width:6.5;stroke-miterlimit:4;stroke-dasharray:none;stroke-opacity:1"
       id="path881-35-6-2"
       cx="10.16"
       cy="108.5"
       r="1" />
  </g>
</svg>
