<?xml version="1.0" encoding="UTF-8" standalone="no"?>
<!-- Created with Inkscape (http://www.inkscape.org/) -->

<svg
   xmlns:dc="http://purl.org/dc/elements/1.1/"
   xmlns:cc="http://creativecommons.org/ns#"
   xmlns:rdf="http://www.w3.org/1999/02/22-rdf-syntax-ns#"
   xmlns:svg="http://www.w3.org/2000/svg"
   xmlns="http://www.w3.org/2000/svg"
   xmlns:xlink="http://www.w3.org/1999/xlink"
   xmlns:sodipodi="http://sodipodi.sourceforge.net/DTD/sodipodi-0.dtd"
   xmlns:inkscape="http://www.inkscape.org/namespaces/inkscape"
   width="20.32mm"
   height="128.5mm"
   viewBox="0 0 20.32 128.5"
   version="1.1"
   id="svg8"
   inkscape:version="0.92.5 (2060ec1f9f, 2020-04-08)"
   sodipodi:docname="MIDI_Merger.svg">
  <defs
     id="defs2">
    <linearGradient
       inkscape:collect="always"
       xlink:href="#linearGradient1109"
       id="linearGradient4954"
       gradientUnits="userSpaceOnUse"
       x1="110.74702"
       y1="130.87947"
       x2="111.50298"
       y2="242.57143"
       gradientTransform="matrix(0.44393752,0,0,0.99973639,-37.472256,-125.49796)" />
    <linearGradient
       inkscape:collect="always"
       id="linearGradient1109">
      <stop
         style="stop-color:#333131;stop-opacity:1"
         offset="0"
         id="stop1105" />
      <stop
         style="stop-color:#292727;stop-opacity:1"
         offset="1"
         id="stop1107" />
    </linearGradient>
    <clipPath
       id="clipPath916"
       clipPathUnits="userSpaceOnUse">
      <path
         inkscape:connector-curvature="0"
         id="path914"
         d="M 0,472.252 H 165.6 V 0 H 0 Z" />
    </clipPath>
  </defs>
  <sodipodi:namedview
     id="base"
     pagecolor="#ffffff"
     bordercolor="#666666"
     borderopacity="1.0"
     inkscape:pageopacity="0.0"
     inkscape:pageshadow="2"
     inkscape:zoom="3.959798"
     inkscape:cx="41.697363"
     inkscape:cy="-59.667287"
     inkscape:document-units="mm"
     inkscape:current-layer="g912"
     showgrid="false"
     showguides="true"
     inkscape:guide-bbox="true"
     inkscape:window-width="1920"
     inkscape:window-height="1033"
     inkscape:window-x="0"
     inkscape:window-y="0"
     inkscape:window-maximized="1"
     inkscape:snap-object-midpoints="true"
     inkscape:snap-text-baseline="true"
     inkscape:snap-bbox="true"
     inkscape:snap-bbox-midpoints="true">
    <sodipodi:guide
       position="10.16,105.26637"
       orientation="1,0"
       id="guide831"
       inkscape:locked="false"
       inkscape:label=""
       inkscape:color="rgb(0,0,255)" />
    <sodipodi:guide
       position="-15.497023,120"
       orientation="0,1"
       id="guide833"
       inkscape:locked="false"
       inkscape:label=""
       inkscape:color="rgb(0,0,255)" />
    <sodipodi:guide
       position="-6.2808337,104"
       orientation="0,1"
       id="guide860"
       inkscape:locked="false"
       inkscape:label=""
       inkscape:color="rgb(0,0,255)" />
    <sodipodi:guide
       position="-14.967093,92"
       orientation="0,1"
       id="guide862"
       inkscape:locked="false"
       inkscape:label=""
       inkscape:color="rgb(0,0,255)" />
    <sodipodi:guide
       position="-19.777944,80.000003"
       orientation="0,1"
       id="guide864"
       inkscape:locked="false"
       inkscape:label=""
       inkscape:color="rgb(0,0,255)" />
    <sodipodi:guide
       position="-16.17,110.5"
       orientation="0,1"
       id="guide866"
       inkscape:locked="false"
       inkscape:label=""
       inkscape:color="rgb(0,0,255)" />
    <sodipodi:guide
       position="-32.339612,67.999999"
       orientation="0,1"
       id="guide908"
       inkscape:locked="false"
       inkscape:label=""
       inkscape:color="rgb(0,0,255)" />
    <sodipodi:guide
       position="-18.520833,37.999999"
       orientation="0,1"
       id="guide934"
       inkscape:locked="false"
       inkscape:label=""
       inkscape:color="rgb(0,0,255)" />
    <sodipodi:guide
       position="-15.308036,25.999999"
       orientation="0,1"
       id="guide936"
       inkscape:locked="false"
       inkscape:label=""
       inkscape:color="rgb(0,0,255)" />
    <sodipodi:guide
       position="-25.702381,13.999999"
       orientation="0,1"
       id="guide940"
       inkscape:locked="false"
       inkscape:label=""
       inkscape:color="rgb(0,0,255)" />
  </sodipodi:namedview>
  <metadata
     id="metadata5">
    <rdf:RDF>
      <cc:Work
         rdf:about="">
        <dc:format>image/svg+xml</dc:format>
        <dc:type
           rdf:resource="http://purl.org/dc/dcmitype/StillImage" />
        <dc:title />
      </cc:Work>
    </rdf:RDF>
  </metadata>
  <g
     inkscape:groupmode="layer"
     id="layer2"
     inkscape:label="BG">
    <path
       inkscape:connector-curvature="0"
       id="path1099"
       d="M 5e-7,-9.5e-6 H 20.320001 V 128.5 H 5e-7 Z"
       style="display:inline;fill:url(#linearGradient4954);fill-opacity:1;stroke:#6e6e6e;stroke-width:0;stroke-miterlimit:4;stroke-dasharray:none;stroke-opacity:1" />
  </g>
  <g
     inkscape:groupmode="layer"
     id="layer3"
     inkscape:label="Layer 2">
    <g
       transform="matrix(0.35277777,0,0,-0.35277777,-19,147.5)"
       inkscape:label="aw_sideall"
       id="g908"
       style="fill:#f4da98;fill-opacity:1">
      <g
         id="g910"
         style="fill:#f4da98;fill-opacity:1">
        <g
           clip-path="url(#clipPath916)"
           id="g912"
           style="fill:#f4da98;fill-opacity:1">
          <g
             transform="translate(73.9403,393.8872)"
             id="g918"
             style="fill:#f4da98;fill-opacity:1">
            <path
               inkscape:connector-curvature="0"
               id="path920"
               style="fill:#f4da98;fill-opacity:1;fill-rule:nonzero;stroke:none"
               d="m 0,0 h -0.11 c -0.285,0.036 -0.489,0.182 -0.611,0.439 -0.025,0.065 -0.042,0.127 -0.047,0.187 -0.004,0.06 0,0.12 0.015,0.182 l 0.266,0.976 c 0.222,0.904 0.466,1.671 0.732,2.303 0.111,0.251 0.22,0.505 0.325,0.761 0.254,0.605 0.52,1.203 0.795,1.797 L 1.424,6.79 C 1.462,6.881 1.507,6.966 1.557,7.047 1.606,7.129 1.676,7.197 1.765,7.251 1.79,7.267 1.81,7.289 1.824,7.317 1.838,7.345 1.85,7.371 1.857,7.396 1.865,7.419 1.871,7.441 1.877,7.462 1.991,7.687 2.164,7.809 2.397,7.829 2.769,7.861 3.021,7.723 3.156,7.414 3.238,7.233 3.288,7.05 3.305,6.864 3.31,6.195 3.272,5.506 3.193,4.797 3.346,4.904 3.441,5.029 3.482,5.173 3.623,5.48 3.792,5.77 3.988,6.041 4.09,6.184 4.183,6.326 4.268,6.467 4.352,6.608 4.445,6.74 4.549,6.863 4.713,7.051 4.846,7.26 4.946,7.489 5.014,7.629 5.109,7.755 5.233,7.866 5.388,8.02 5.524,8.186 5.643,8.364 5.713,8.477 5.79,8.587 5.875,8.695 5.924,8.746 5.969,8.801 6.011,8.857 6.167,9.059 6.338,9.25 6.522,9.435 6.677,9.582 6.837,9.663 7.003,9.677 7.036,9.68 7.111,9.679 7.229,9.672 7.347,9.666 7.48,9.579 7.629,9.411 7.719,9.298 7.77,9.179 7.78,9.053 7.787,8.98 7.777,8.902 7.751,8.819 L 7.593,8.223 C 7.487,7.739 7.344,7.271 7.162,6.82 6.972,6.329 6.818,5.828 6.702,5.319 6.586,4.811 6.455,4.356 6.309,3.956 6.265,3.851 6.225,3.743 6.187,3.633 L 6.15,3.479 C 6.062,3.117 5.971,2.577 5.881,1.86 5.894,1.714 5.887,1.573 5.862,1.437 5.837,1.301 5.756,1.183 5.616,1.083 5.522,1.022 5.425,0.986 5.325,0.978 5.266,0.973 5.181,0.982 5.071,1.006 4.962,1.03 4.866,1.132 4.783,1.312 L 4.739,1.369 C 4.648,1.481 4.593,1.667 4.569,1.926 4.543,2.238 4.61,2.639 4.775,3.128 l 0.1,0.351 C 4.89,3.546 4.907,3.611 4.929,3.674 4.974,3.845 5.009,4.019 5.033,4.195 5.055,4.484 5.131,4.762 5.262,5.028 5.335,5.181 5.384,5.35 5.408,5.533 L 5.457,5.778 C 5.013,5.277 4.645,4.736 4.354,4.155 4.258,3.966 4.156,3.783 4.051,3.607 L 3.869,3.27 C 3.752,3.012 3.602,2.778 3.419,2.567 3.221,2.383 3.025,2.282 2.833,2.266 2.614,2.246 2.396,2.332 2.179,2.52 2.092,2.592 2.034,2.681 2.005,2.786 1.997,2.878 1.979,2.969 1.951,3.057 1.923,3.145 1.905,3.235 1.896,3.328 1.889,3.421 1.891,3.517 1.902,3.615 1.913,3.713 1.912,3.842 1.898,4 1.889,4.04 1.881,4.083 1.877,4.13 1.868,4.229 1.872,4.333 1.89,4.442 1.817,4.429 1.776,4.398 1.768,4.351 1.715,4.111 1.631,3.884 1.516,3.667 1.419,3.477 1.341,3.278 1.282,3.068 1.224,2.859 1.152,2.627 1.067,2.372 0.961,2.055 0.829,1.615 0.671,1.052 0.63,0.901 0.532,0.649 0.375,0.294 0.305,0.114 0.18,0.016 0,0" />
          </g>
          <g
             transform="translate(81.4989,395.3823)"
             id="g922"
             style="fill:#f4da98;fill-opacity:1">
            <path
               inkscape:connector-curvature="0"
               id="path924"
               style="fill:#f4da98;fill-opacity:1;fill-rule:nonzero;stroke:none"
               d="m 0,0 c -0.061,-0.005 -0.146,0.01 -0.261,0.047 -0.113,0.037 -0.209,0.156 -0.287,0.356 -0.017,0.052 -0.029,0.105 -0.033,0.158 -0.009,0.093 0.007,0.188 0.045,0.285 0.082,0.215 0.119,0.432 0.113,0.653 0.018,0.262 0.075,0.521 0.173,0.778 0.102,0.37 0.162,0.743 0.184,1.119 0.034,0.365 0.078,0.633 0.129,0.805 0.042,0.131 0.075,0.264 0.096,0.4 C 0.222,5.182 0.374,5.737 0.616,6.267 0.708,6.509 0.881,6.642 1.133,6.664 1.312,6.68 1.477,6.637 1.626,6.537 1.74,6.459 1.803,6.347 1.815,6.202 1.821,6.135 1.814,6.058 1.796,5.969 1.512,4.94 1.329,4.201 1.247,3.752 1.191,3.467 1.127,3.184 1.051,2.902 0.939,2.498 0.881,2.084 0.879,1.663 0.875,1.542 0.852,1.43 0.808,1.325 0.734,1.158 0.7,0.988 0.702,0.814 0.68,0.524 0.552,0.302 0.317,0.148 0.212,0.058 0.105,0.009 0,0" />
          </g>
          <g
             transform="translate(84.6171,397.4814)"
             id="g926"
             style="fill:#f4da98;fill-opacity:1">
            <path
               inkscape:connector-curvature="0"
               id="path928"
               style="fill:#f4da98;fill-opacity:1;fill-rule:nonzero;stroke:none"
               d="m 0,0 c 0.047,0.004 0.085,0.024 0.115,0.061 0.209,0.206 0.543,0.522 1.001,0.95 L 1.31,1.209 c 0.09,0.108 0.189,0.204 0.296,0.287 0.174,0.142 0.331,0.3 0.47,0.473 0.073,0.086 0.15,0.17 0.23,0.251 C 2.416,2.33 2.468,2.428 2.46,2.515 2.454,2.587 2.41,2.67 2.328,2.764 1.699,3.452 1.258,3.868 1.005,4.013 0.935,4.047 0.867,4.084 0.804,4.126 L 0.815,3.997 C 0.827,3.857 0.815,3.759 0.78,3.702 0.683,3.586 0.637,3.435 0.64,3.249 0.563,2.66 0.43,2.082 0.239,1.517 0.18,1.351 0.147,1.181 0.143,1.007 0.148,0.867 0.117,0.733 0.048,0.607 -0.038,0.432 -0.07,0.232 -0.051,0.006 Z m -1.334,-2.998 c -0.126,-0.01 -0.254,0.032 -0.383,0.128 -0.15,0.12 -0.235,0.29 -0.255,0.509 -0.008,0.107 0.012,0.209 0.064,0.307 0.162,0.289 0.26,0.592 0.292,0.909 0.024,0.176 0.061,0.347 0.11,0.511 0.05,0.166 0.091,0.33 0.123,0.493 0.038,0.251 0.108,0.492 0.208,0.721 0.027,0.076 0.036,0.157 0.029,0.243 -0.01,0.12 0.009,0.232 0.061,0.337 0.138,0.26 0.207,0.54 0.207,0.841 0.014,0.155 0.057,0.31 0.13,0.463 0.055,0.146 0.092,0.293 0.112,0.442 0.031,0.19 0.091,0.376 0.183,0.558 0.011,0.021 0.018,0.048 0.022,0.082 0.004,0.034 0.019,0.062 0.043,0.084 0.025,0.022 0.035,0.051 0.033,0.083 L -0.39,3.881 c -0.011,0.14 0.031,0.27 0.126,0.393 0.096,0.122 0.231,0.191 0.404,0.206 0.027,0.002 0.051,0.006 0.074,0.011 0.023,0.006 0.047,0.026 0.07,0.061 C 0.236,4.568 0.19,4.591 0.147,4.621 0.057,4.673 -0.038,4.715 -0.134,4.747 -0.155,4.751 -0.189,4.767 -0.238,4.792 -0.288,4.819 -0.346,4.85 -0.412,4.888 -0.479,4.925 -0.541,4.962 -0.598,4.997 l -0.177,0.085 c -0.261,0.151 -0.402,0.339 -0.421,0.565 -0.015,0.16 0.03,0.334 0.134,0.524 0.071,0.107 0.176,0.166 0.316,0.179 0.1,0.008 0.195,-0.01 0.285,-0.056 C -0.271,6.197 -0.079,6.103 0.116,6.013 0.388,5.896 0.65,5.765 0.903,5.62 1.278,5.385 1.637,5.126 1.976,4.841 L 2.515,4.417 C 2.952,4.073 3.305,3.645 3.57,3.133 3.628,3.011 3.663,2.883 3.675,2.751 3.685,2.631 3.675,2.51 3.646,2.387 3.574,1.985 3.426,1.635 3.201,1.334 2.977,1.033 2.721,0.753 2.437,0.495 2.331,0.392 2.219,0.298 2.1,0.214 1.904,0.07 1.729,-0.1 1.571,-0.294 1.506,-0.38 1.425,-0.451 1.329,-0.506 1.188,-0.585 1.031,-0.729 0.855,-0.939 0.724,-1.118 0.563,-1.269 0.373,-1.393 0.297,-1.439 0.237,-1.508 0.195,-1.599 0.153,-1.689 0.067,-1.794 -0.063,-1.913 -0.357,-2.22 -0.656,-2.516 -0.96,-2.804 -1.083,-2.922 -1.208,-2.986 -1.334,-2.998" />
          </g>
          <g
             transform="translate(88.3016,395.9775)"
             id="g930"
             style="fill:#f4da98;fill-opacity:1">
            <path
               inkscape:connector-curvature="0"
               id="path932"
               style="fill:#f4da98;fill-opacity:1;fill-rule:nonzero;stroke:none"
               d="m 0,0 c -0.059,-0.005 -0.146,0.01 -0.26,0.047 -0.113,0.037 -0.209,0.156 -0.287,0.356 -0.017,0.053 -0.029,0.105 -0.033,0.158 -0.009,0.093 0.006,0.188 0.045,0.285 0.081,0.215 0.119,0.432 0.113,0.653 0.018,0.262 0.075,0.521 0.173,0.778 0.102,0.37 0.162,0.743 0.184,1.119 0.034,0.365 0.078,0.633 0.129,0.805 0.042,0.131 0.075,0.264 0.096,0.4 C 0.223,5.182 0.375,5.737 0.616,6.267 0.709,6.509 0.882,6.642 1.134,6.664 1.313,6.68 1.478,6.637 1.627,6.537 1.741,6.459 1.804,6.347 1.816,6.202 1.822,6.135 1.816,6.058 1.797,5.969 1.512,4.94 1.329,4.202 1.248,3.752 1.193,3.467 1.128,3.184 1.052,2.902 0.939,2.498 0.882,2.084 0.879,1.663 0.876,1.542 0.853,1.43 0.808,1.325 0.735,1.158 0.7,0.988 0.702,0.814 0.681,0.524 0.553,0.302 0.318,0.148 0.213,0.058 0.107,0.009 0,0" />
          </g>
          <g
             transform="translate(66.4218,384.1953)"
             id="g934"
             style="fill:#f4da98;fill-opacity:1">
            <path
               inkscape:connector-curvature="0"
               id="path936"
               style="fill:#f4da98;fill-opacity:1;fill-rule:nonzero;stroke:none"
               d="m 0,0 h -0.11 c -0.285,0.036 -0.489,0.182 -0.611,0.438 -0.026,0.066 -0.042,0.127 -0.047,0.187 -0.005,0.06 0,0.121 0.015,0.183 l 0.265,0.976 c 0.222,0.903 0.467,1.671 0.732,2.303 0.112,0.25 0.221,0.504 0.325,0.761 0.255,0.604 0.521,1.203 0.796,1.797 L 1.424,6.79 C 1.462,6.88 1.507,6.966 1.557,7.047 1.606,7.128 1.676,7.197 1.765,7.251 1.79,7.267 1.81,7.289 1.823,7.317 1.838,7.345 1.85,7.371 1.857,7.395 1.865,7.419 1.871,7.441 1.876,7.462 1.99,7.686 2.164,7.808 2.396,7.829 2.769,7.861 3.021,7.723 3.155,7.413 3.237,7.233 3.288,7.05 3.304,6.864 3.31,6.195 3.272,5.506 3.193,4.796 3.345,4.903 3.44,5.029 3.481,5.173 3.623,5.479 3.791,5.769 3.988,6.041 4.09,6.183 4.183,6.325 4.268,6.466 4.352,6.607 4.445,6.74 4.549,6.862 4.713,7.051 4.846,7.26 4.945,7.489 5.014,7.629 5.11,7.754 5.233,7.866 5.388,8.02 5.524,8.186 5.643,8.363 5.713,8.476 5.79,8.587 5.874,8.695 5.924,8.746 5.969,8.8 6.011,8.857 6.167,9.058 6.338,9.251 6.522,9.434 6.677,9.582 6.837,9.663 7.003,9.677 7.036,9.68 7.111,9.678 7.229,9.672 7.347,9.666 7.479,9.579 7.628,9.411 7.719,9.298 7.77,9.178 7.78,9.052 7.787,8.979 7.776,8.901 7.751,8.819 L 7.592,8.223 C 7.487,7.738 7.344,7.271 7.162,6.82 6.971,6.328 6.818,5.828 6.702,5.319 6.585,4.81 6.454,4.355 6.309,3.955 6.265,3.851 6.224,3.743 6.187,3.633 L 6.149,3.479 C 6.061,3.117 5.971,2.577 5.88,1.859 5.893,1.713 5.887,1.572 5.862,1.436 5.837,1.3 5.755,1.183 5.616,1.083 5.521,1.022 5.425,0.986 5.324,0.978 5.265,0.972 5.181,0.982 5.071,1.006 4.962,1.03 4.866,1.132 4.783,1.312 L 4.739,1.369 C 4.648,1.48 4.592,1.666 4.569,1.925 4.542,2.237 4.61,2.639 4.775,3.128 l 0.1,0.351 c 0.015,0.067 0.032,0.133 0.054,0.194 0.045,0.172 0.08,0.345 0.104,0.521 0.022,0.29 0.098,0.568 0.229,0.834 0.073,0.153 0.122,0.321 0.146,0.504 L 5.457,5.777 C 5.013,5.277 4.645,4.736 4.354,4.155 4.257,3.966 4.156,3.784 4.051,3.606 L 3.869,3.27 C 3.751,3.012 3.602,2.777 3.419,2.568 3.221,2.383 3.025,2.282 2.833,2.266 2.614,2.247 2.396,2.331 2.179,2.519 2.092,2.592 2.034,2.681 2.005,2.786 1.996,2.878 1.979,2.969 1.95,3.057 1.923,3.144 1.905,3.235 1.897,3.328 1.889,3.421 1.89,3.516 1.901,3.614 1.913,3.713 1.912,3.841 1.898,4 1.888,4.04 1.881,4.083 1.877,4.129 1.868,4.229 1.872,4.333 1.89,4.441 1.817,4.429 1.776,4.398 1.768,4.351 1.715,4.112 1.631,3.883 1.516,3.666 1.419,3.477 1.341,3.278 1.282,3.068 1.224,2.859 1.151,2.627 1.067,2.372 0.961,2.055 0.829,1.615 0.671,1.052 0.63,0.902 0.532,0.649 0.375,0.293 0.305,0.114 0.179,0.016 0,0" />
          </g>
          <g
             transform="translate(73.6669,385.4814)"
             id="g938"
             style="fill:#f4da98;fill-opacity:1">
            <path
               inkscape:connector-curvature="0"
               id="path940"
               style="fill:#f4da98;fill-opacity:1;fill-rule:nonzero;stroke:none"
               d="m 0,0 -0.189,-0.017 c -0.261,-0.002 -0.459,0.081 -0.594,0.25 -0.083,0.106 -0.131,0.226 -0.142,0.359 -0.008,0.086 0.001,0.181 0.026,0.283 0.098,0.33 0.258,0.625 0.484,0.886 0.201,0.232 0.405,0.457 0.613,0.676 L 0.666,2.939 C 0.74,3.019 0.82,3.087 0.909,3.142 0.961,3.166 1.008,3.197 1.053,3.234 1.165,3.317 1.22,3.386 1.215,3.439 1.21,3.499 1.15,3.567 1.036,3.645 L 0.824,3.767 C 0.66,3.886 0.541,4.056 0.469,4.277 0.434,4.368 0.413,4.453 0.406,4.533 0.389,4.739 0.481,5.054 0.685,5.48 0.752,5.627 0.833,5.704 0.926,5.712 0.979,5.717 1.043,5.703 1.12,5.669 1.086,5.747 1.066,5.818 1.061,5.885 1.047,6.051 1.125,6.226 1.297,6.407 1.321,6.43 1.343,6.455 1.359,6.483 1.632,6.814 1.923,7.128 2.231,7.423 2.379,7.57 2.513,7.648 2.633,7.658 2.679,7.663 2.729,7.661 2.783,7.652 L 2.784,7.642 2.835,7.636 C 2.848,7.637 2.861,7.646 2.873,7.66 2.925,7.751 2.991,7.804 3.07,7.818 3.177,7.827 3.256,7.831 3.311,7.829 L 3.371,7.824 C 3.626,7.812 3.851,7.729 4.046,7.571 4.146,7.487 4.221,7.384 4.268,7.265 4.315,7.145 4.351,7.023 4.376,6.898 4.387,6.838 4.398,6.788 4.408,6.745 4.419,6.702 4.426,6.661 4.43,6.622 4.445,6.442 4.387,6.273 4.253,6.115 4.119,5.955 3.973,5.869 3.814,5.854 3.794,5.853 3.731,5.856 3.628,5.863 3.523,5.871 3.402,5.973 3.265,6.168 L 3.227,6.255 C 3.208,6.314 3.17,6.367 3.112,6.416 2.995,6.386 2.897,6.332 2.82,6.255 2.743,6.178 2.679,6.097 2.626,6.012 2.573,5.927 2.52,5.852 2.465,5.787 2.439,5.765 2.419,5.732 2.403,5.691 2.387,5.649 2.359,5.617 2.321,5.594 2.213,5.531 2.128,5.453 2.065,5.361 2.004,5.268 1.946,5.173 1.895,5.075 1.839,4.949 1.769,4.833 1.685,4.725 1.954,4.628 2.226,4.56 2.5,4.521 2.775,4.48 2.977,4.333 3.106,4.077 3.154,3.987 3.182,3.899 3.189,3.813 3.195,3.752 3.189,3.674 3.176,3.576 3.16,3.477 3.089,3.379 2.96,3.281 2.831,3.182 2.709,3.071 2.593,2.947 2.507,2.859 2.417,2.778 2.323,2.703 2.232,2.595 2.112,2.507 1.965,2.441 1.855,2.391 1.765,2.316 1.693,2.216 1.651,2.159 1.605,2.108 1.557,2.063 L 0.941,1.518 C 0.99,1.495 1.034,1.486 1.074,1.489 1.127,1.494 1.177,1.505 1.223,1.522 l 0.019,0.002 c 0.42,0.171 0.832,0.354 1.237,0.55 0.179,0.082 0.364,0.162 0.55,0.239 0.233,0.101 0.46,0.208 0.686,0.321 0.063,0.033 0.129,0.051 0.195,0.057 0.061,0.005 0.117,0 0.172,-0.015 C 4.383,2.609 4.544,2.445 4.566,2.187 4.584,1.987 4.505,1.816 4.331,1.674 4.181,1.547 4.017,1.439 3.837,1.35 2.963,0.865 2.043,0.48 1.077,0.195 0.725,0.097 0.364,0.032 0,0" />
          </g>
          <g
             transform="translate(80.0077,390.9146)"
             id="g942"
             style="fill:#f4da98;fill-opacity:1">
            <path
               inkscape:connector-curvature="0"
               id="path944-3"
               style="fill:#f4da98;fill-opacity:1;fill-rule:nonzero;stroke:none"
               d="M 0,0 C 0.771,0.596 1.499,1.252 2.187,1.968 2.267,2.042 2.344,2.119 2.417,2.199 2.102,2.279 1.808,2.317 1.534,2.313 L 1.384,2.31 C 1.284,2.301 1.181,2.282 1.072,2.253 0.964,2.223 0.864,2.201 0.772,2.187 0.572,2.169 0.462,2.059 0.44,1.855 0.398,1.477 0.297,1.11 0.134,0.755 0.021,0.531 -0.024,0.279 0,0 m -1.685,-5.768 c -0.099,-0.009 -0.209,0.022 -0.328,0.091 -0.207,0.136 -0.321,0.34 -0.344,0.613 -0.008,0.079 -0.005,0.164 0.007,0.251 0.067,0.314 0.129,0.63 0.188,0.951 0.136,0.74 0.286,1.48 0.449,2.217 l 0.165,0.747 c 0.1,0.471 0.209,0.935 0.33,1.394 0.044,0.178 0.083,0.356 0.114,0.532 0.043,0.265 0.111,0.525 0.203,0.781 0.009,0.041 0.012,0.078 0.009,0.111 -0.003,0.04 -0.018,0.102 -0.045,0.186 -0.055,0.09 -0.088,0.204 -0.101,0.344 -0.006,0.072 0.006,0.154 0.034,0.243 0.029,0.09 0.132,0.199 0.308,0.328 0.201,0.145 0.416,0.248 0.645,0.308 0.334,0.089 0.694,0.15 1.078,0.185 C 1.214,3.53 1.403,3.54 1.597,3.543 1.718,3.547 1.84,3.555 1.967,3.565 2.455,3.561 2.925,3.465 3.377,3.277 3.412,3.26 3.449,3.247 3.49,3.237 3.816,3.111 3.992,2.899 4.019,2.601 4.033,2.428 3.992,2.247 3.896,2.058 3.697,1.712 3.452,1.417 3.16,1.17 3.091,1.111 3.026,1.048 2.966,0.983 2.639,0.66 2.305,0.346 1.964,0.042 1.783,-0.115 1.606,-0.277 1.434,-0.446 1.075,-0.786 0.859,-0.97 0.785,-1 0.711,-1.03 0.649,-1.081 0.603,-1.151 0.871,-1.389 1.16,-1.564 1.472,-1.678 1.687,-1.767 1.89,-1.872 2.082,-1.996 2.358,-2.179 2.647,-2.348 2.949,-2.502 3.139,-2.599 3.242,-2.757 3.262,-2.977 3.273,-3.116 3.242,-3.253 3.167,-3.386 3.036,-3.579 2.852,-3.685 2.612,-3.706 2.473,-3.718 2.353,-3.682 2.251,-3.597 1.985,-3.38 1.694,-3.201 1.382,-3.061 c -0.266,0.124 -0.52,0.276 -0.763,0.456 -0.036,0.03 -0.076,0.048 -0.12,0.054 -0.044,0.006 -0.082,0.016 -0.113,0.03 -0.032,0.014 -0.068,0.026 -0.109,0.036 -0.221,0.081 -0.375,0.192 -0.461,0.331 -0.053,0.082 -0.152,0.134 -0.294,0.155 -0.109,-0.21 -0.169,-0.43 -0.183,-0.658 L -0.706,-2.942 -1.003,-4.263 C -1.039,-4.454 -1.06,-4.64 -1.064,-4.821 -1.087,-5.097 -1.18,-5.339 -1.342,-5.547 l -0.01,-0.001 c -0.095,-0.136 -0.207,-0.209 -0.333,-0.22" />
          </g>
          <g
             transform="translate(83.7889,385.2026)"
             id="g946"
             style="fill:#f4da98;fill-opacity:1">
            <path
               inkscape:connector-curvature="0"
               id="path948-6"
               style="fill:#f4da98;fill-opacity:1;fill-rule:nonzero;stroke:none"
               d="M 0,0 C -0.146,-0.013 -0.336,0.033 -0.569,0.136 -0.802,0.24 -0.968,0.471 -1.065,0.831 l -0.032,0.237 c -0.026,0.3 0.002,0.623 0.085,0.972 0.026,0.103 0.039,0.204 0.044,0.305 -0.011,0.199 0.03,0.39 0.12,0.572 0.036,0.058 0.057,0.122 0.064,0.197 0.037,0.257 0.106,0.508 0.206,0.751 0.076,0.194 0.136,0.396 0.178,0.607 0.062,0.347 0.186,0.659 0.369,0.936 0.187,0.311 0.336,0.632 0.448,0.963 0.1,0.303 0.229,0.592 0.386,0.867 0.318,0.562 0.543,0.944 0.673,1.143 0.153,0.234 0.348,0.445 0.587,0.634 0.081,0.073 0.157,0.156 0.228,0.25 0.042,0.057 0.088,0.111 0.138,0.163 0.452,0.481 0.878,0.739 1.276,0.774 0.133,0.011 0.274,0.004 0.424,-0.023 C 4.576,10.111 4.901,9.878 5.104,9.481 5.214,9.216 5.294,8.942 5.346,8.659 L 5.348,8.639 C 5.367,8.414 5.28,8.222 5.087,8.064 4.955,7.959 4.82,7.9 4.681,7.888 4.614,7.882 4.543,7.889 4.468,7.91 4.232,7.996 4.101,8.198 4.073,8.518 4.065,8.604 4.065,8.661 4.073,8.688 4.081,8.715 4.083,8.752 4.079,8.799 4.07,8.899 4.032,8.945 3.966,8.939 3.899,8.934 3.644,8.774 3.194,8.461 3.132,8.416 3.065,8.373 2.995,8.333 2.971,8.311 2.949,8.285 2.932,8.257 2.83,8.041 2.701,7.842 2.542,7.661 L 2.327,7.361 C 2.191,7.155 2.078,6.943 1.987,6.724 1.896,6.505 1.792,6.297 1.676,6.1 1.634,6.035 1.599,5.972 1.571,5.909 1.525,5.818 1.473,5.73 1.413,5.645 1.312,5.516 1.251,5.366 1.232,5.198 1.179,4.891 1.08,4.602 0.937,4.328 0.651,3.694 0.46,3.082 0.364,2.491 0.353,2.397 0.334,2.305 0.309,2.215 0.25,2.05 0.223,1.856 0.229,1.637 0.948,2.509 1.715,3.313 2.527,4.046 2.91,4.407 3.287,4.771 3.656,5.139 L 3.509,5.105 C 3.306,5.054 3.151,5.023 3.045,5.014 L 2.626,4.978 C 2.447,4.962 2.279,5.011 2.122,5.125 1.993,5.22 1.921,5.348 1.907,5.508 1.878,5.839 2.003,6.027 2.279,6.072 2.405,6.096 2.529,6.127 2.653,6.165 2.875,6.231 3.103,6.278 3.339,6.305 3.574,6.332 3.8,6.406 4.017,6.525 4.157,6.604 4.306,6.667 4.463,6.715 4.579,6.751 4.692,6.798 4.801,6.854 4.954,6.942 5.093,6.99 5.22,7.001 5.433,7.02 5.623,6.94 5.793,6.761 5.876,6.648 5.924,6.532 5.935,6.412 5.948,6.253 5.896,6.087 5.776,5.916 5.465,5.5 5.233,5.112 5.081,4.751 4.928,4.39 4.794,3.993 4.678,3.562 4.596,3.2 4.563,2.835 4.583,2.469 L 4.577,2.418 C 4.575,2.137 4.463,1.923 4.241,1.776 4.128,1.7 4.018,1.657 3.911,1.647 3.839,1.641 3.745,1.656 3.632,1.693 3.518,1.73 3.422,1.852 3.344,2.06 3.307,2.177 3.283,2.298 3.271,2.425 3.259,2.577 3.256,2.679 3.266,2.73 3.274,2.781 3.276,2.83 3.272,2.876 3.27,2.903 3.258,2.932 3.234,2.963 3.054,2.888 2.913,2.771 2.813,2.616 2.646,2.387 2.46,2.179 2.255,1.994 1.971,1.722 1.604,1.318 1.156,0.784 0.691,0.289 0.306,0.026 0,0" />
          </g>
          <g
             transform="translate(89.5858,386.8745)"
             id="g950"
             style="fill:#f4da98;fill-opacity:1">
            <path
               inkscape:connector-curvature="0"
               id="path952"
               style="fill:#f4da98;fill-opacity:1;fill-rule:nonzero;stroke:none"
               d="m 0,0 -0.189,-0.017 c -0.261,-0.003 -0.458,0.08 -0.594,0.25 -0.083,0.106 -0.131,0.225 -0.142,0.358 -0.008,0.087 0,0.181 0.026,0.284 0.097,0.33 0.259,0.625 0.484,0.885 0.201,0.232 0.405,0.457 0.613,0.677 L 0.666,2.939 C 0.74,3.019 0.82,3.087 0.909,3.141 0.961,3.166 1.009,3.197 1.052,3.234 1.165,3.317 1.22,3.386 1.215,3.438 1.21,3.499 1.15,3.566 1.036,3.645 L 0.825,3.767 C 0.661,3.885 0.542,4.056 0.469,4.277 0.434,4.368 0.413,4.453 0.406,4.532 0.389,4.738 0.481,5.054 0.685,5.48 0.752,5.627 0.833,5.704 0.926,5.712 0.979,5.717 1.044,5.703 1.12,5.669 1.086,5.746 1.066,5.818 1.061,5.885 1.046,6.051 1.125,6.225 1.297,6.407 1.321,6.43 1.343,6.455 1.36,6.483 1.632,6.814 1.923,7.127 2.231,7.423 2.379,7.569 2.513,7.647 2.633,7.658 2.679,7.662 2.729,7.661 2.784,7.652 L 2.785,7.642 2.835,7.636 C 2.848,7.637 2.861,7.645 2.873,7.66 2.926,7.751 2.991,7.804 3.07,7.817 3.177,7.827 3.257,7.83 3.311,7.829 L 3.371,7.824 C 3.626,7.812 3.851,7.729 4.046,7.571 4.146,7.486 4.221,7.384 4.269,7.265 4.315,7.145 4.351,7.022 4.376,6.898 4.387,6.838 4.398,6.787 4.409,6.745 4.419,6.702 4.427,6.661 4.43,6.621 4.445,6.442 4.387,6.272 4.253,6.114 4.12,5.955 3.974,5.868 3.814,5.854 3.794,5.853 3.732,5.855 3.628,5.863 3.523,5.871 3.402,5.972 3.265,6.167 L 3.227,6.255 C 3.208,6.313 3.171,6.367 3.112,6.416 2.995,6.386 2.897,6.332 2.82,6.254 2.743,6.178 2.679,6.097 2.626,6.012 2.573,5.927 2.52,5.852 2.466,5.787 2.44,5.765 2.419,5.732 2.403,5.691 2.387,5.649 2.359,5.617 2.321,5.593 2.213,5.53 2.128,5.453 2.065,5.36 2.004,5.268 1.946,5.172 1.895,5.074 1.839,4.949 1.769,4.833 1.685,4.725 1.954,4.628 2.226,4.559 2.5,4.521 2.775,4.48 2.978,4.333 3.106,4.076 3.154,3.986 3.182,3.898 3.189,3.813 3.195,3.752 3.19,3.674 3.176,3.576 3.161,3.477 3.089,3.378 2.96,3.281 2.831,3.182 2.709,3.071 2.593,2.947 2.507,2.859 2.417,2.777 2.323,2.703 2.232,2.595 2.113,2.507 1.965,2.441 1.855,2.391 1.765,2.315 1.693,2.216 1.651,2.159 1.605,2.108 1.556,2.063 L 0.941,1.518 C 0.99,1.495 1.034,1.485 1.074,1.489 1.127,1.494 1.177,1.504 1.222,1.522 l 0.02,0.002 c 0.42,0.17 0.832,0.354 1.237,0.55 0.18,0.082 0.364,0.162 0.551,0.239 0.233,0.101 0.46,0.207 0.685,0.321 0.063,0.032 0.129,0.051 0.195,0.057 0.06,0.005 0.117,0 0.172,-0.015 C 4.383,2.608 4.544,2.445 4.566,2.187 4.584,1.987 4.505,1.816 4.331,1.674 4.181,1.547 4.017,1.439 3.837,1.35 2.962,0.865 2.043,0.48 1.077,0.194 0.725,0.097 0.365,0.032 0,0" />
          </g>
          <g
             transform="translate(95.9266,392.3071)"
             id="g954"
             style="fill:#f4da98;fill-opacity:1">
            <path
               inkscape:connector-curvature="0"
               id="path956"
               style="fill:#f4da98;fill-opacity:1;fill-rule:nonzero;stroke:none"
               d="M 0,0 C 0.771,0.597 1.499,1.253 2.187,1.968 2.267,2.042 2.344,2.119 2.417,2.2 2.102,2.279 1.808,2.317 1.533,2.313 L 1.383,2.31 C 1.283,2.301 1.18,2.282 1.072,2.253 0.964,2.224 0.864,2.201 0.771,2.187 0.572,2.169 0.462,2.059 0.439,1.856 0.398,1.478 0.297,1.111 0.134,0.755 0.02,0.531 -0.024,0.279 0,0 m -1.685,-5.768 c -0.099,-0.008 -0.209,0.022 -0.329,0.091 -0.206,0.137 -0.321,0.34 -0.344,0.613 -0.007,0.08 -0.005,0.164 0.007,0.252 0.067,0.313 0.13,0.629 0.189,0.95 0.136,0.741 0.285,1.48 0.448,2.217 l 0.165,0.747 c 0.1,0.471 0.21,0.935 0.331,1.395 0.044,0.177 0.082,0.355 0.114,0.531 0.043,0.265 0.111,0.525 0.202,0.781 0.009,0.041 0.013,0.078 0.01,0.111 -0.004,0.04 -0.018,0.102 -0.045,0.187 -0.055,0.089 -0.089,0.203 -0.101,0.343 -0.007,0.072 0.005,0.154 0.034,0.243 0.028,0.09 0.131,0.199 0.308,0.328 0.201,0.145 0.416,0.248 0.645,0.308 C 0.282,3.418 0.642,3.48 1.027,3.514 1.213,3.53 1.402,3.54 1.597,3.543 1.717,3.547 1.84,3.555 1.966,3.566 2.455,3.562 2.925,3.465 3.377,3.277 3.411,3.26 3.449,3.247 3.49,3.238 3.816,3.112 3.992,2.899 4.019,2.601 4.033,2.428 3.992,2.247 3.895,2.058 3.697,1.713 3.452,1.417 3.159,1.17 3.091,1.111 3.025,1.048 2.965,0.983 2.639,0.66 2.305,0.346 1.963,0.042 1.783,-0.115 1.606,-0.277 1.434,-0.446 1.075,-0.785 0.859,-0.97 0.784,-1 0.71,-1.03 0.649,-1.081 0.603,-1.151 0.87,-1.389 1.16,-1.564 1.471,-1.678 1.687,-1.766 1.89,-1.872 2.081,-1.996 2.358,-2.179 2.647,-2.348 2.948,-2.502 3.138,-2.599 3.242,-2.757 3.261,-2.977 3.273,-3.116 3.242,-3.253 3.166,-3.386 3.036,-3.578 2.852,-3.685 2.612,-3.706 2.473,-3.718 2.353,-3.681 2.251,-3.597 c -0.266,0.218 -0.557,0.396 -0.87,0.536 -0.265,0.124 -0.52,0.277 -0.762,0.456 -0.036,0.03 -0.076,0.048 -0.12,0.054 -0.045,0.007 -0.082,0.016 -0.113,0.03 -0.032,0.014 -0.068,0.026 -0.109,0.036 -0.221,0.081 -0.375,0.192 -0.461,0.331 -0.054,0.082 -0.152,0.134 -0.294,0.156 -0.109,-0.211 -0.17,-0.431 -0.183,-0.659 L -0.707,-2.942 -1.003,-4.263 C -1.039,-4.454 -1.061,-4.639 -1.064,-4.821 -1.087,-5.097 -1.18,-5.339 -1.343,-5.547 l -0.01,-0.001 c -0.094,-0.136 -0.206,-0.209 -0.332,-0.22" />
          </g>
          <g
             transform="translate(65.7717,131.5458)"
             id="g958"
             style="fill:#f4da98;fill-opacity:1">
            <path
               inkscape:connector-curvature="0"
               id="path960"
               style="fill:#f4da98;fill-opacity:1;fill-rule:nonzero;stroke:none"
               d="m 0,0 c 2.531,-2.638 5.097,-5.143 7.696,-7.501 2.455,-11.91 4.896,-23.842 7.341,-35.767 -2.874,1.163 -5.729,2.467 -8.559,3.926 C 4.347,-26.188 2.185,-13.079 0,0 M -6.777,39.904 C -4.542,36.283 -2.264,32.782 0.057,29.406 2.49,17.667 4.926,5.935 7.35,-5.821 4.768,-3.435 2.218,-0.915 -0.295,1.751 -2.429,14.507 -4.592,27.221 -6.777,39.904 m 0.95,22.752 c 2.078,-4.101 4.201,-8.09 6.363,-11.981 2.498,-10.218 5.007,-20.421 7.53,-30.602 -2.399,3.114 -4.753,6.367 -7.07,9.73 -2.271,10.957 -4.544,21.911 -6.823,32.853 m 0.679,15.641 c 1.89,-4.287 3.797,-8.458 5.721,-12.509 2.403,-8.6 4.826,-17.167 7.274,-25.691 -2.161,3.55 -4.286,7.193 -6.37,10.941 -2.218,9.072 -4.426,18.158 -6.625,27.259 m 0.883,8.754 c 1.546,-3.868 3.114,-7.686 4.703,-11.458 2.159,-6.909 4.342,-13.773 6.551,-20.59 -1.837,3.61 -3.663,7.32 -5.475,11.134 -1.941,6.948 -3.868,13.918 -5.779,20.914 m -6.516,24.177 c 0.957,-2.799 1.923,-5.582 2.897,-8.349 1.661,-5.58 3.338,-11.132 5.032,-16.656 -1.292,3.216 -2.573,6.456 -3.835,9.739 -1.373,5.075 -2.737,10.165 -4.094,15.266 M 0.003,81.291 C 1.361,77.352 2.725,73.448 4.096,69.586 3.184,71.687 2.278,73.8 1.38,75.932 c -0.999,3.197 -1.992,6.405 -2.98,9.622 0.533,-1.425 1.066,-2.847 1.603,-4.263 M 8.66,56.93 C 10.776,51.168 12.909,45.511 15.054,39.927 13.303,43.041 11.56,46.233 9.827,49.519 7.991,55.128 6.171,60.767 4.369,66.439 5.781,63.228 7.215,60.067 8.66,56.93 m 9.056,-18.787 c 1.764,-3.976 3.544,-7.922 5.348,-11.813 -1.568,2.536 -3.132,5.133 -4.691,7.797 -1.554,3.98 -3.102,7.996 -4.642,12.068 1.316,-2.711 2.643,-5.399 3.985,-8.052 M 29,17.072 c -0.556,0.837 -1.111,1.674 -1.666,2.527 -0.47,0.984 -0.932,1.984 -1.398,2.974 1.015,-1.849 2.035,-3.684 3.064,-5.501 M 35.5,5.93 c 2.148,-3.563 4.327,-7.053 6.53,-10.485 -1.929,1.959 -3.845,3.959 -5.734,6.043 C 34.343,5.301 32.408,9.153 30.498,13.059 32.163,10.618 33.83,8.238 35.5,5.93 m 8.352,-20.86 c -2.529,1.769 -5.029,3.648 -7.499,5.641 -2.629,5.983 -5.245,12.081 -7.844,18.303 2.287,-2.788 4.603,-5.496 6.955,-8.094 2.754,-5.375 5.55,-10.659 8.388,-15.85 m 0.588,-14.665 c -2.724,1.047 -5.428,2.219 -8.108,3.533 -2.812,7.494 -5.595,15.048 -8.341,22.675 2.483,-2.296 5.001,-4.471 7.55,-6.534 2.949,-6.708 5.917,-13.259 8.899,-19.674 m 0.001,-20.399 c -2.902,0.172 -5.796,0.484 -8.678,0.937 -2.8,8.859 -5.572,17.769 -8.321,26.717 2.674,-1.618 5.373,-3.101 8.095,-4.449 2.932,-7.808 5.9,-15.543 8.904,-23.205 m -18.473,3.039 c -2.623,10.271 -5.234,20.561 -7.831,30.871 2.644,-1.959 5.317,-3.784 8.017,-5.467 2.808,-9.151 5.64,-18.26 8.502,-27.317 -2.91,0.494 -5.806,1.131 -8.688,1.913 m -9.498,33.387 c -2.652,2.057 -5.273,4.262 -7.862,6.601 C 6.25,4.468 3.88,15.88 1.514,27.3 3.849,23.981 6.229,20.794 8.646,17.724 11.24,7.272 13.85,-3.155 16.47,-13.568 m 0.28,23.139 c -2.433,2.746 -4.827,5.615 -7.184,8.602 -2.417,9.74 -4.819,19.501 -7.213,29.274 2.135,-3.745 4.306,-7.399 6.519,-10.941 2.601,-9.021 5.226,-18 7.878,-26.935 m -0.454,17.412 c -2.203,3.216 -4.37,6.53 -6.503,9.938 -2.275,7.893 -4.528,15.822 -6.764,23.78 1.944,-3.969 3.902,-7.83 5.873,-11.57 2.436,-7.438 4.899,-14.823 7.394,-22.148 m 8.596,-11.828 c -2.207,2.86 -4.379,5.823 -6.522,8.863 -2.273,6.634 -4.521,13.315 -6.745,20.041 1.938,-3.556 3.886,-7.012 5.843,-10.36 2.458,-6.294 4.933,-12.475 7.424,-18.544 M 20.587,28.47 c 1.948,-3.208 3.902,-6.326 5.862,-9.339 2.356,-4.94 4.746,-9.806 7.168,-14.603 -2.182,2.502 -4.337,5.086 -6.462,7.754 -2.201,5.314 -4.392,10.699 -6.568,16.188 m -1.056,-7.823 c 2.216,-3.06 4.472,-6.009 6.756,-8.879 2.771,-6.691 5.56,-13.256 8.367,-19.675 -2.499,2.079 -4.965,4.279 -7.401,6.587 -2.605,7.262 -5.178,14.587 -7.722,21.967 M 18.973,5.634 c 2.438,-2.622 4.91,-5.128 7.418,-7.512 2.838,-7.909 5.711,-15.749 8.621,-23.516 -2.696,1.369 -5.368,2.869 -8.015,4.507 -2.699,8.799 -5.375,17.637 -8.024,26.521 m -8.207,27.902 c 2.198,-3.426 4.433,-6.752 6.705,-9.978 2.688,-7.841 5.41,-15.615 8.166,-23.324 -2.472,2.408 -4.912,4.927 -7.314,7.57 -2.54,8.542 -5.063,17.112 -7.557,25.732 m 14.935,-53.608 c -2.68,1.707 -5.332,3.555 -7.955,5.538 -2.544,10.103 -5.078,20.219 -7.597,30.359 2.39,-2.963 4.817,-5.81 7.283,-8.53 2.728,-9.171 5.487,-18.288 8.269,-27.367 M 16.149,-43.71 c -2.399,11.702 -4.795,23.408 -7.203,35.095 2.609,-2.312 5.249,-4.49 7.92,-6.52 2.65,-10.528 5.316,-21.033 7.993,-31.519 -2.921,0.831 -5.825,1.816 -8.71,2.944 m -3.591,-33.836 c -1.94,12.359 -3.897,24.696 -5.886,36.988 2.847,-1.442 5.716,-2.735 8.606,-3.883 2.26,-11.028 4.516,-22.063 6.768,-33.105 h 1.02 c -2.221,10.894 -4.446,21.782 -6.677,32.663 2.9,-1.111 5.82,-2.074 8.756,-2.89 2.539,-9.943 5.091,-19.867 7.654,-29.773 h 1.033 c -2.538,9.808 -5.065,19.634 -7.58,29.478 2.9,-0.768 5.814,-1.394 8.742,-1.875 2.871,-9.078 5.763,-18.12 8.689,-27.103 -0.681,-0.182 -1.363,-0.331 -2.044,-0.5 h 3.988 c 0.067,0.019 0.134,0.039 0.201,0.058 v 1.05 c -0.392,-0.114 -0.784,-0.245 -1.176,-0.354 -2.88,8.84 -5.727,17.737 -8.554,26.669 2.903,-0.44 5.819,-0.735 8.742,-0.893 0.328,-0.835 0.66,-1.66 0.988,-2.493 v 3.458 c -0.098,0.004 -0.196,0.002 -0.295,0.007 -2.929,7.468 -5.825,15.009 -8.687,22.617 2.713,-1.296 5.448,-2.454 8.204,-3.48 0.259,-0.556 0.519,-1.105 0.778,-1.659 v 2.438 c -0.016,0.006 -0.032,0.011 -0.048,0.017 -2.864,6.146 -5.715,12.426 -8.55,18.842 2.533,-1.987 5.095,-3.864 7.689,-5.62 0.3,-0.545 0.607,-1.077 0.909,-1.62 v 2.206 c -0.048,0.034 -0.096,0.068 -0.145,0.101 -2.607,4.732 -5.179,9.544 -7.715,14.432 1.968,-2.097 3.949,-4.153 5.959,-6.119 0.239,-0.232 0.48,-0.451 0.719,-0.682 0.391,-0.595 0.789,-1.172 1.182,-1.763 v 2.021 c -0.136,0.131 -0.274,0.256 -0.411,0.388 -1.055,1.605 -2.105,3.223 -3.148,4.857 1.187,-1.515 2.373,-2.993 3.559,-4.445 v 1.58 C 42.67,-2.03 39.509,2.091 36.353,6.452 30.216,16.629 24.303,27.34 18.618,38.576 12.475,52.422 6.578,66.781 0.936,81.651 -3.377,94.167 -7.617,107.08 -11.772,120.398 v -9.333 c 0.474,-1.777 0.94,-3.565 1.415,-5.34 -0.475,1.292 -0.944,2.597 -1.415,3.9 v -2.915 c 1.361,-3.724 2.734,-7.419 4.133,-11.059 2.176,-8.045 4.373,-16.055 6.588,-24.035 -1.836,3.994 -3.655,8.109 -5.459,12.325 -1.761,7.309 -3.513,14.63 -5.262,21.957 v -4.296 c 0.952,-3.979 1.898,-7.966 2.853,-11.94 -0.956,2.311 -1.907,4.659 -2.853,7.036 v -2.663 c 1.426,-3.535 2.86,-7.018 4.309,-10.407 2.35,-9.753 4.712,-19.489 7.085,-29.209 -2.128,3.932 -4.213,7.972 -6.258,12.111 -1.71,8.202 -3.422,16.398 -5.136,24.591 v -4.893 c 1.118,-5.353 2.237,-10.702 3.354,-16.057 -1.132,2.352 -2.248,4.742 -3.354,7.155 v -2.344 c 1.377,-2.971 2.766,-5.911 4.183,-8.782 2.377,-11.406 4.749,-22.822 7.118,-34.245 -2.278,3.385 -4.519,6.878 -6.713,10.504 L -7.215,42.44 c -1.502,8.701 -3.031,17.364 -4.557,26.031 V 62.753 C -3.655,16.475 4.12,-30.297 11.545,-77.546 Z" />
          </g>
        </g>
      </g>
    </g>
  </g>
  <g
     inkscape:label="Layer 1"
     inkscape:groupmode="layer"
     id="layer1"
     transform="translate(0,-168.5)"
     style="display:inline">
    <g
       aria-label="1"
       style="font-style:normal;font-variant:normal;font-weight:normal;font-stretch:normal;font-size:12px;line-height:100%;font-family:DIN;-inkscape-font-specification:DIN;text-align:center;letter-spacing:0px;word-spacing:0px;writing-mode:lr-tb;text-anchor:middle;display:inline;fill:#f4da98;fill-opacity:1;stroke:#292727;stroke-width:3.77952766;stroke-linecap:butt;stroke-linejoin:miter;stroke-miterlimit:4;stroke-dasharray:none;stroke-opacity:1"
       id="text1079-7"
       transform="matrix(0.26458333,0,0,0.26458333,6.6333333e-6,240.5)">
      <g
         aria-label="C H N"
         style="font-style:normal;font-variant:normal;font-weight:normal;font-stretch:normal;font-size:10.66666698px;line-height:100%;font-family:DIN;-inkscape-font-specification:DIN;text-align:center;letter-spacing:0px;word-spacing:0px;writing-mode:lr-tb;text-anchor:middle;fill:#f4da98;fill-opacity:1;stroke:#292727;stroke-width:3.77952766;stroke-linecap:butt;stroke-linejoin:miter;stroke-miterlimit:4;stroke-dasharray:none;stroke-opacity:1"
         id="text1033-5">
        <path
           d="m 69.203973,60.811927 h -1.162667 q -0.138666,0.576 -0.522666,0.938667 -0.384,0.362666 -1.024,0.362666 -0.341334,0 -0.629334,-0.117333 -0.288,-0.128 -0.490666,-0.341333 -0.138667,-0.149334 -0.234667,-0.32 -0.08533,-0.181334 -0.138667,-0.437334 -0.04267,-0.266666 -0.064,-0.650666 -0.02133,-0.384 -0.02133,-0.96 0,-0.576 0.02133,-0.96 0.02133,-0.384 0.064,-0.64 0.05333,-0.266667 0.138667,-0.437334 0.096,-0.181333 0.234667,-0.330666 0.202666,-0.213334 0.490666,-0.330667 0.288,-0.128 0.629334,-0.128 0.64,0 1.013333,0.362667 0.384,0.362666 0.522667,0.938666 h 1.173333 q -0.202667,-1.141333 -0.928,-1.738666 -0.725333,-0.597334 -1.781333,-0.597334 -0.597334,0 -1.098667,0.213334 -0.501333,0.202666 -0.896,0.597333 -0.277333,0.277333 -0.426667,0.586667 -0.149333,0.309333 -0.224,0.672 -0.064,0.362666 -0.07467,0.810666 -0.01067,0.437334 -0.01067,0.981334 0,0.544 0.01067,0.992 0.01067,0.437333 0.07467,0.8 0.07467,0.362666 0.224,0.672 0.149334,0.309333 0.426667,0.586666 0.394667,0.394667 0.896,0.608 0.501333,0.202667 1.098667,0.202667 0.512,0 0.96,-0.149333 0.458666,-0.149334 0.810666,-0.448 0.362667,-0.298667 0.597334,-0.736 0.245333,-0.437334 0.341333,-1.002667 z"
           id="path1105-3"
           inkscape:connector-curvature="0"
           style="stroke:#292727;stroke-width:3.77952766;stroke-miterlimit:4;stroke-dasharray:none;stroke-opacity:1" />
        <path
           d="m 69.09464,73.750594 v -7.594667 h -1.152 v 3.242667 h -3.082667 v -3.242667 h -1.152 v 7.594667 h 1.152 v -3.317333 h 3.082667 v 3.317333 z"
           id="path1107-5"
           inkscape:connector-curvature="0"
           style="stroke:#292727;stroke-width:3.77952766;stroke-miterlimit:4;stroke-dasharray:none;stroke-opacity:1" />
        <path
           d="m 69.25864,84.417261 v -7.594667 h -1.152 v 5.333334 l -3.509334,-5.333334 h -1.056 v 7.594667 h 1.152 v -5.344 l 3.509334,5.344 z"
           id="path1109-6"
           inkscape:connector-curvature="0"
           style="stroke:#292727;stroke-width:3.77952766;stroke-miterlimit:4;stroke-dasharray:none;stroke-opacity:1" />
      </g>
      <g
         aria-label="S Y S"
         style="font-style:normal;font-variant:normal;font-weight:normal;font-stretch:normal;font-size:10.66666698px;line-height:100%;font-family:DIN;-inkscape-font-specification:DIN;text-align:center;letter-spacing:0px;word-spacing:0px;writing-mode:lr-tb;text-anchor:middle;fill:#f4da98;fill-opacity:1;stroke:#292727;stroke-width:3.77952766;stroke-linecap:butt;stroke-linejoin:miter;stroke-miterlimit:4;stroke-dasharray:none;stroke-opacity:1"
         id="text1037-2"
         transform="translate(129.97635,18.122527)">
        <path
           d="m -60.978623,88.577052 q 0,-0.490666 -0.160001,-0.885333 -0.149333,-0.394667 -0.458666,-0.672 -0.245334,-0.213333 -0.565334,-0.341333 -0.32,-0.138667 -0.853333,-0.224 l -0.864,-0.128 q -0.554667,-0.08533 -0.853333,-0.352 -0.149334,-0.138667 -0.224,-0.309334 -0.064,-0.181333 -0.064,-0.394666 0,-0.512 0.352,-0.842667 0.362666,-0.341333 1.034666,-0.341333 0.48,0 0.885334,0.128 0.416,0.117333 0.768,0.458666 l 0.736,-0.725333 q -0.490667,-0.458667 -1.045334,-0.661333 -0.554666,-0.202667 -1.312,-0.202667 -0.597333,0 -1.066666,0.16 -0.469334,0.16 -0.8,0.458667 -0.32,0.298666 -0.501334,0.714666 -0.170666,0.405334 -0.170666,0.896 0,0.928 0.554666,1.450667 0.512,0.48 1.44,0.608 l 0.896,0.128 q 0.341334,0.05333 0.512,0.117333 0.170667,0.064 0.32,0.202667 0.298667,0.266667 0.298667,0.789333 0,0.554667 -0.416,0.864 -0.405333,0.298667 -1.152,0.298667 -0.586667,0 -1.056,-0.149333 -0.469333,-0.16 -0.885333,-0.576 l -0.768,0.757333 q 0.544,0.554667 1.184,0.778667 0.64,0.224 1.504,0.224 0.597333,0 1.098666,-0.149333 0.501334,-0.149334 0.864,-0.437334 0.362667,-0.288 0.565334,-0.704 0.202667,-0.416 0.202667,-0.938667 z"
           id="path1097-9"
           inkscape:connector-curvature="0"
           style="stroke:#292727;stroke-width:3.77952766;stroke-miterlimit:4;stroke-dasharray:none;stroke-opacity:1" />
        <path
           d="m -60.728373,93.814386 h -1.258667 l -1.589334,3.338667 -1.589333,-3.338667 h -1.258667 l 2.272,4.469333 v 3.125331 h 1.152 v -3.125331 z"
           id="path1100-1"
           inkscape:connector-curvature="0"
           style="stroke:#292727;stroke-width:3.77952766;stroke-miterlimit:4;stroke-dasharray:none;stroke-opacity:1" />
        <path
           d="m -60.978623,109.91039 q 0,-0.49067 -0.160001,-0.88534 -0.149333,-0.39466 -0.458666,-0.672 -0.245334,-0.21333 -0.565334,-0.34133 -0.32,-0.13867 -0.853333,-0.224 l -0.864,-0.128 q -0.554667,-0.0853 -0.853333,-0.352 -0.149334,-0.13867 -0.224,-0.30933 -0.064,-0.18134 -0.064,-0.39467 0,-0.512 0.352,-0.84267 0.362666,-0.34133 1.034666,-0.34133 0.48,0 0.885334,0.128 0.416,0.11733 0.768,0.45867 l 0.736,-0.72534 q -0.490667,-0.45866 -1.045334,-0.66133 -0.554666,-0.20267 -1.312,-0.20267 -0.597333,0 -1.066666,0.16 -0.469334,0.16 -0.8,0.45867 -0.32,0.29867 -0.501334,0.71467 -0.170666,0.40533 -0.170666,0.896 0,0.928 0.554666,1.45066 0.512,0.48 1.44,0.608 l 0.896,0.128 q 0.341334,0.0533 0.512,0.11734 0.170667,0.064 0.32,0.20266 0.298667,0.26667 0.298667,0.78934 0,0.55466 -0.416,0.864 -0.405333,0.29866 -1.152,0.29866 -0.586667,0 -1.056,-0.14933 -0.469333,-0.16 -0.885333,-0.576 l -0.768,0.75733 q 0.544,0.55467 1.184,0.77867 0.64,0.224 1.504,0.224 0.597333,0 1.098666,-0.14933 0.501334,-0.14934 0.864,-0.43734 0.362667,-0.288 0.565334,-0.704 0.202667,-0.416 0.202667,-0.93866 z"
           id="path1102-2"
           inkscape:connector-curvature="0"
           style="stroke:#292727;stroke-width:3.77952766;stroke-miterlimit:4;stroke-dasharray:none;stroke-opacity:1" />
      </g>
      <text
         xml:space="preserve"
         style="font-style:normal;font-variant:normal;font-weight:normal;font-stretch:normal;font-size:10.66666698px;line-height:100%;font-family:DIN;-inkscape-font-specification:DIN;text-align:center;letter-spacing:0px;word-spacing:0px;writing-mode:lr-tb;text-anchor:middle;fill:#000000;fill-opacity:1;stroke:#292727;stroke-width:3.77952766;stroke-linecap:butt;stroke-linejoin:miter;stroke-miterlimit:4;stroke-dasharray:none;stroke-opacity:1"
         x="-70.35717"
         y="137.52812"
         id="text1041-7"><tspan
           sodipodi:role="line"
           id="tspan1039-0"
           x="-70.35717"
           y="146.41701" /></text>
      <g
         aria-label="A L L"
         style="font-style:normal;font-variant:normal;font-weight:normal;font-stretch:normal;font-size:10.66666698px;line-height:100%;font-family:DIN;-inkscape-font-specification:DIN;text-align:center;letter-spacing:0px;word-spacing:0px;writing-mode:lr-tb;text-anchor:middle;fill:#f4da98;fill-opacity:1;stroke:#292727;stroke-width:3.77952766;stroke-linecap:butt;stroke-linejoin:miter;stroke-miterlimit:4;stroke-dasharray:none;stroke-opacity:1"
         id="text1045-9"
         transform="translate(104.99374,19.089627)">
        <path
           d="m -35.6806,134.67096 -2.784,-7.59467 h -0.928 l -2.784,7.59467 h 1.226666 l 0.522667,-1.52533 h 2.997333 l 0.522667,1.52533 z m -2.069334,-2.50667 h -2.336 l 1.184,-3.37066 z"
           id="path1090-3"
           inkscape:connector-curvature="0"
           style="stroke:#292727;stroke-width:3.77952766;stroke-miterlimit:4;stroke-dasharray:none;stroke-opacity:1" />
        <path
           d="m -36.188434,145.33763 v -1.03467 H -39.8471 v -6.56 h -1.152 v 7.59467 z"
           id="path1092-6"
           inkscape:connector-curvature="0"
           style="stroke:#292727;stroke-width:3.77952766;stroke-miterlimit:4;stroke-dasharray:none;stroke-opacity:1" />
        <path
           d="m -36.188434,156.00429 v -1.03466 H -39.8471 v -6.56 h -1.152 v 7.59466 z"
           id="path1094-0"
           inkscape:connector-curvature="0"
           style="stroke:#292727;stroke-width:3.77952766;stroke-miterlimit:4;stroke-dasharray:none;stroke-opacity:1" />
      </g>
      <text
         xml:space="preserve"
         style="font-style:normal;font-variant:normal;font-weight:normal;font-stretch:normal;font-size:10.66666698px;line-height:100%;font-family:DIN;-inkscape-font-specification:DIN;text-align:center;letter-spacing:0px;word-spacing:0px;writing-mode:lr-tb;text-anchor:middle;fill:#000000;fill-opacity:1;stroke:#292727;stroke-width:3.77952766;stroke-linecap:butt;stroke-linejoin:miter;stroke-miterlimit:4;stroke-dasharray:none;stroke-opacity:1"
         x="-38.9286"
         y="134.67094"
         id="text1082-6"><tspan
           sodipodi:role="line"
           id="tspan1080-2"
           x="-38.9286"
           y="143.55983" /><tspan
           sodipodi:role="line"
           x="-38.9286"
           y="154.2265"
           id="tspan1084-6" /></text>
    </g>
    <g
       aria-label="OUTS"
       style="font-style:normal;font-variant:normal;font-weight:normal;font-stretch:normal;font-size:3.17499995px;line-height:100%;font-family:DIN;-inkscape-font-specification:DIN;text-align:center;letter-spacing:0px;word-spacing:0px;writing-mode:lr-tb;text-anchor:middle;display:inline;fill:#f4da98;fill-opacity:1;stroke:#292727;stroke-width:1;stroke-linecap:butt;stroke-linejoin:miter;stroke-miterlimit:4;stroke-dasharray:none;stroke-opacity:1"
       id="text940-1"
       transform="translate(24.969411,49.913045)">
      <path
         d="m -16.920475,200.32084 q 0,-0.16192 -0.0032,-0.2921 -0.0032,-0.13335 -0.02223,-0.2413 -0.01905,-0.10795 -0.0635,-0.20002 -0.04445,-0.0921 -0.127,-0.17463 -0.117475,-0.11747 -0.2667,-0.1778 -0.149225,-0.0635 -0.3302,-0.0635 -0.180975,0 -0.3302,0.0635 -0.14605,0.0603 -0.263525,0.1778 -0.08255,0.0825 -0.127,0.17463 -0.04445,0.0921 -0.06668,0.20002 -0.01905,0.10795 -0.02222,0.2413 -0.0032,0.13018 -0.0032,0.2921 0,0.16193 0.0032,0.29528 0.0032,0.13017 0.02222,0.23812 0.02223,0.10795 0.06668,0.20003 0.04445,0.0921 0.127,0.17462 0.117475,0.11748 0.263525,0.18098 0.149225,0.0603 0.3302,0.0603 0.180975,0 0.3302,-0.0603 0.149225,-0.0635 0.2667,-0.18098 0.08255,-0.0825 0.127,-0.17462 0.04445,-0.0921 0.0635,-0.20003 0.01905,-0.10795 0.02223,-0.23812 0.0032,-0.13335 0.0032,-0.29528 z m -0.3429,0 q 0,0.17145 -0.0064,0.28575 -0.0032,0.11113 -0.01905,0.1905 -0.0127,0.0762 -0.04127,0.13018 -0.0254,0.0508 -0.06668,0.0952 -0.06032,0.0635 -0.149225,0.1016 -0.08573,0.0381 -0.187325,0.0381 -0.1016,0 -0.1905,-0.0381 -0.08573,-0.0381 -0.14605,-0.1016 -0.04127,-0.0444 -0.06985,-0.0952 -0.0254,-0.054 -0.04127,-0.13018 -0.0127,-0.0794 -0.01905,-0.1905 -0.0032,-0.1143 -0.0032,-0.28575 0,-0.17145 0.0032,-0.28257 0.0063,-0.1143 0.01905,-0.1905 0.01587,-0.0794 0.04127,-0.13018 0.02858,-0.054 0.06985,-0.0984 0.06033,-0.0635 0.14605,-0.1016 0.0889,-0.0381 0.1905,-0.0381 0.1016,0 0.187325,0.0381 0.0889,0.0381 0.149225,0.1016 0.04127,0.0445 0.06668,0.0984 0.02858,0.0508 0.04127,0.13018 0.01588,0.0762 0.01905,0.1905 0.0064,0.11112 0.0064,0.28257 z"
         style="fill:#f4da98;fill-opacity:1;stroke:#292727;stroke-width:1;stroke-miterlimit:4;stroke-dasharray:none;stroke-opacity:1"
         id="path942-8"
         inkscape:connector-curvature="0" />
      <path
         d="m -14.823437,200.68914 v -1.4986 h -0.3429 v 1.48273 q 0,0.2286 -0.130175,0.35877 -0.127,0.13018 -0.339725,0.13018 -0.212725,0 -0.339725,-0.13018 -0.127,-0.13017 -0.127,-0.35877 v -1.48273 h -0.3429 v 1.4986 q 0,0.17463 0.06033,0.32068 0.0635,0.14287 0.17145,0.24447 0.10795,0.1016 0.257175,0.15875 0.149225,0.0572 0.320675,0.0572 0.17145,0 0.320675,-0.0572 0.149225,-0.0572 0.257175,-0.15875 0.111125,-0.1016 0.17145,-0.24447 0.0635,-0.14605 0.0635,-0.32068 z"
         style="fill:#f4da98;fill-opacity:1;stroke:#292727;stroke-width:1;stroke-miterlimit:4;stroke-dasharray:none;stroke-opacity:1"
         id="path944-7"
         inkscape:connector-curvature="0" />
      <path
         d="m -12.877857,199.49852 v -0.30798 h -1.5875 v 0.30798 h 0.6223 v 1.95262 h 0.3429 v -1.95262 z"
         style="fill:#f4da98;fill-opacity:1;stroke:#292727;stroke-width:1;stroke-miterlimit:4;stroke-dasharray:none;stroke-opacity:1"
         id="path946-9"
         inkscape:connector-curvature="0" />
      <path
         d="m -11.072721,200.80662 q 0,-0.14605 -0.04763,-0.26353 -0.04445,-0.11747 -0.136525,-0.20002 -0.07302,-0.0635 -0.168275,-0.1016 -0.09525,-0.0413 -0.254,-0.0667 l -0.257175,-0.0381 q -0.1651,-0.0254 -0.254,-0.10477 -0.04445,-0.0413 -0.06667,-0.0921 -0.01905,-0.054 -0.01905,-0.11747 0,-0.1524 0.104775,-0.25083 0.10795,-0.1016 0.307975,-0.1016 0.142875,0 0.263525,0.0381 0.123825,0.0349 0.2286,0.13653 l 0.219075,-0.2159 q -0.14605,-0.13653 -0.31115,-0.19685 -0.1651,-0.0603 -0.390525,-0.0603 -0.1778,0 -0.3175,0.0476 -0.1397,0.0476 -0.238125,0.13652 -0.09525,0.0889 -0.149225,0.21273 -0.0508,0.12065 -0.0508,0.2667 0,0.27622 0.1651,0.4318 0.1524,0.14287 0.428625,0.18097 l 0.2667,0.0381 q 0.1016,0.0159 0.1524,0.0349 0.0508,0.019 0.09525,0.0603 0.0889,0.0794 0.0889,0.23495 0,0.1651 -0.123825,0.25718 -0.12065,0.0889 -0.3429,0.0889 -0.174625,0 -0.314325,-0.0444 -0.1397,-0.0476 -0.263525,-0.17145 l -0.2286,0.22542 q 0.161925,0.1651 0.352425,0.23178 0.1905,0.0667 0.447675,0.0667 0.1778,0 0.327025,-0.0445 0.149225,-0.0444 0.257175,-0.13017 0.10795,-0.0857 0.168275,-0.20955 0.06033,-0.12383 0.06033,-0.2794 z"
         style="fill:#f4da98;fill-opacity:1;stroke:#292727;stroke-width:1;stroke-miterlimit:4;stroke-dasharray:none;stroke-opacity:1"
         id="path948-2"
         inkscape:connector-curvature="0" />
    </g>
    <path
       style="display:inline;fill:#f4da98;fill-opacity:1;stroke:none;stroke-width:0;stroke-miterlimit:4;stroke-dasharray:none;stroke-opacity:1"
       inkscape:transform-center-x="7.4234112"
       inkscape:transform-center-y="5.2919366"
       d="m 15.659998,259.00001 a 5.5000006,5.5000006 0 0 1 -5.499997,5.5 5.5000006,5.5000006 0 0 1 -5.4999971,-5.5 5.5000006,5.5000006 0 0 1 5.4999971,-5.5 5.5000006,5.5000006 0 0 1 5.499997,5.5 z"
       id="path4964-7"
       inkscape:connector-curvature="0" />
    <g
       aria-label="1"
       style="font-style:normal;font-variant:normal;font-weight:normal;font-stretch:normal;font-size:12px;line-height:100%;font-family:DIN;-inkscape-font-specification:DIN;text-align:center;letter-spacing:0px;word-spacing:0px;writing-mode:lr-tb;text-anchor:middle;display:inline;fill:#f4da98;fill-opacity:1;stroke:none;stroke-width:1px;stroke-linecap:butt;stroke-linejoin:miter;stroke-opacity:1"
       id="text1079"
       transform="matrix(0.26458333,0,0,0.26458333,6.8829583e-6,240.5)">
      <g
         aria-label="C H N"
         style="font-style:normal;font-variant:normal;font-weight:normal;font-stretch:normal;font-size:10.66666698px;line-height:100%;font-family:DIN;-inkscape-font-specification:DIN;text-align:center;letter-spacing:0px;word-spacing:0px;writing-mode:lr-tb;text-anchor:middle;fill:#f4da98;fill-opacity:1;stroke:none;stroke-width:1px;stroke-linecap:butt;stroke-linejoin:miter;stroke-opacity:1"
         id="text1033">
        <path
           d="m 69.203973,60.811927 h -1.162667 q -0.138666,0.576 -0.522666,0.938667 -0.384,0.362666 -1.024,0.362666 -0.341334,0 -0.629334,-0.117333 -0.288,-0.128 -0.490666,-0.341333 -0.138667,-0.149334 -0.234667,-0.32 -0.08533,-0.181334 -0.138667,-0.437334 -0.04267,-0.266666 -0.064,-0.650666 -0.02133,-0.384 -0.02133,-0.96 0,-0.576 0.02133,-0.96 0.02133,-0.384 0.064,-0.64 0.05333,-0.266667 0.138667,-0.437334 0.096,-0.181333 0.234667,-0.330666 0.202666,-0.213334 0.490666,-0.330667 0.288,-0.128 0.629334,-0.128 0.64,0 1.013333,0.362667 0.384,0.362666 0.522667,0.938666 h 1.173333 q -0.202667,-1.141333 -0.928,-1.738666 -0.725333,-0.597334 -1.781333,-0.597334 -0.597334,0 -1.098667,0.213334 -0.501333,0.202666 -0.896,0.597333 -0.277333,0.277333 -0.426667,0.586667 -0.149333,0.309333 -0.224,0.672 -0.064,0.362666 -0.07467,0.810666 -0.01067,0.437334 -0.01067,0.981334 0,0.544 0.01067,0.992 0.01067,0.437333 0.07467,0.8 0.07467,0.362666 0.224,0.672 0.149334,0.309333 0.426667,0.586666 0.394667,0.394667 0.896,0.608 0.501333,0.202667 1.098667,0.202667 0.512,0 0.96,-0.149333 0.458666,-0.149334 0.810666,-0.448 0.362667,-0.298667 0.597334,-0.736 0.245333,-0.437334 0.341333,-1.002667 z"
           id="path1105"
           inkscape:connector-curvature="0" />
        <path
           d="m 69.09464,73.750594 v -7.594667 h -1.152 v 3.242667 h -3.082667 v -3.242667 h -1.152 v 7.594667 h 1.152 v -3.317333 h 3.082667 v 3.317333 z"
           id="path1107"
           inkscape:connector-curvature="0" />
        <path
           d="m 69.25864,84.417261 v -7.594667 h -1.152 v 5.333334 l -3.509334,-5.333334 h -1.056 v 7.594667 h 1.152 v -5.344 l 3.509334,5.344 z"
           id="path1109"
           inkscape:connector-curvature="0" />
      </g>
      <g
         aria-label="S Y S"
         style="font-style:normal;font-variant:normal;font-weight:normal;font-stretch:normal;font-size:10.66666698px;line-height:100%;font-family:DIN;-inkscape-font-specification:DIN;text-align:center;letter-spacing:0px;word-spacing:0px;writing-mode:lr-tb;text-anchor:middle;fill:#f4da98;fill-opacity:1;stroke:none;stroke-width:1px;stroke-linecap:butt;stroke-linejoin:miter;stroke-opacity:1"
         id="text1037"
         transform="translate(129.97635,18.122527)">
        <path
           d="m -60.978623,88.577052 q 0,-0.490666 -0.160001,-0.885333 -0.149333,-0.394667 -0.458666,-0.672 -0.245334,-0.213333 -0.565334,-0.341333 -0.32,-0.138667 -0.853333,-0.224 l -0.864,-0.128 q -0.554667,-0.08533 -0.853333,-0.352 -0.149334,-0.138667 -0.224,-0.309334 -0.064,-0.181333 -0.064,-0.394666 0,-0.512 0.352,-0.842667 0.362666,-0.341333 1.034666,-0.341333 0.48,0 0.885334,0.128 0.416,0.117333 0.768,0.458666 l 0.736,-0.725333 q -0.490667,-0.458667 -1.045334,-0.661333 -0.554666,-0.202667 -1.312,-0.202667 -0.597333,0 -1.066666,0.16 -0.469334,0.16 -0.8,0.458667 -0.32,0.298666 -0.501334,0.714666 -0.170666,0.405334 -0.170666,0.896 0,0.928 0.554666,1.450667 0.512,0.48 1.44,0.608 l 0.896,0.128 q 0.341334,0.05333 0.512,0.117333 0.170667,0.064 0.32,0.202667 0.298667,0.266667 0.298667,0.789333 0,0.554667 -0.416,0.864 -0.405333,0.298667 -1.152,0.298667 -0.586667,0 -1.056,-0.149333 -0.469333,-0.16 -0.885333,-0.576 l -0.768,0.757333 q 0.544,0.554667 1.184,0.778667 0.64,0.224 1.504,0.224 0.597333,0 1.098666,-0.149333 0.501334,-0.149334 0.864,-0.437334 0.362667,-0.288 0.565334,-0.704 0.202667,-0.416 0.202667,-0.938667 z"
           id="path1097"
           inkscape:connector-curvature="0" />
        <path
           d="m -60.728373,93.814386 h -1.258667 l -1.589334,3.338667 -1.589333,-3.338667 h -1.258667 l 2.272,4.469333 v 3.125331 h 1.152 v -3.125331 z"
           id="path1100"
           inkscape:connector-curvature="0" />
        <path
           d="m -60.978623,109.91039 q 0,-0.49067 -0.160001,-0.88534 -0.149333,-0.39466 -0.458666,-0.672 -0.245334,-0.21333 -0.565334,-0.34133 -0.32,-0.13867 -0.853333,-0.224 l -0.864,-0.128 q -0.554667,-0.0853 -0.853333,-0.352 -0.149334,-0.13867 -0.224,-0.30933 -0.064,-0.18134 -0.064,-0.39467 0,-0.512 0.352,-0.84267 0.362666,-0.34133 1.034666,-0.34133 0.48,0 0.885334,0.128 0.416,0.11733 0.768,0.45867 l 0.736,-0.72534 q -0.490667,-0.45866 -1.045334,-0.66133 -0.554666,-0.20267 -1.312,-0.20267 -0.597333,0 -1.066666,0.16 -0.469334,0.16 -0.8,0.45867 -0.32,0.29867 -0.501334,0.71467 -0.170666,0.40533 -0.170666,0.896 0,0.928 0.554666,1.45066 0.512,0.48 1.44,0.608 l 0.896,0.128 q 0.341334,0.0533 0.512,0.11734 0.170667,0.064 0.32,0.20266 0.298667,0.26667 0.298667,0.78934 0,0.55466 -0.416,0.864 -0.405333,0.29866 -1.152,0.29866 -0.586667,0 -1.056,-0.14933 -0.469333,-0.16 -0.885333,-0.576 l -0.768,0.75733 q 0.544,0.55467 1.184,0.77867 0.64,0.224 1.504,0.224 0.597333,0 1.098666,-0.14933 0.501334,-0.14934 0.864,-0.43734 0.362667,-0.288 0.565334,-0.704 0.202667,-0.416 0.202667,-0.93866 z"
           id="path1102"
           inkscape:connector-curvature="0" />
      </g>
      <text
         xml:space="preserve"
         style="font-style:normal;font-variant:normal;font-weight:normal;font-stretch:normal;font-size:10.66666698px;line-height:100%;font-family:DIN;-inkscape-font-specification:DIN;text-align:center;letter-spacing:0px;word-spacing:0px;writing-mode:lr-tb;text-anchor:middle;fill:#000000;fill-opacity:1;stroke:none;stroke-width:1px;stroke-linecap:butt;stroke-linejoin:miter;stroke-opacity:1"
         x="-70.35717"
         y="137.52812"
         id="text1041"><tspan
           sodipodi:role="line"
           id="tspan1039"
           x="-70.35717"
           y="146.41701" /></text>
      <g
         aria-label="A L L"
         style="font-style:normal;font-variant:normal;font-weight:normal;font-stretch:normal;font-size:10.66666698px;line-height:100%;font-family:DIN;-inkscape-font-specification:DIN;text-align:center;letter-spacing:0px;word-spacing:0px;writing-mode:lr-tb;text-anchor:middle;fill:#f4da98;fill-opacity:1;stroke:none;stroke-width:1px;stroke-linecap:butt;stroke-linejoin:miter;stroke-opacity:1"
         id="text1045"
         transform="translate(104.99374,19.089627)">
        <path
           d="m -35.6806,134.67096 -2.784,-7.59467 h -0.928 l -2.784,7.59467 h 1.226666 l 0.522667,-1.52533 h 2.997333 l 0.522667,1.52533 z m -2.069334,-2.50667 h -2.336 l 1.184,-3.37066 z"
           id="path1090"
           inkscape:connector-curvature="0" />
        <path
           d="m -36.188434,145.33763 v -1.03467 H -39.8471 v -6.56 h -1.152 v 7.59467 z"
           id="path1092"
           inkscape:connector-curvature="0" />
        <path
           d="m -36.188434,156.00429 v -1.03466 H -39.8471 v -6.56 h -1.152 v 7.59466 z"
           id="path1094"
           inkscape:connector-curvature="0" />
      </g>
      <text
         xml:space="preserve"
         style="font-style:normal;font-variant:normal;font-weight:normal;font-stretch:normal;font-size:10.66666698px;line-height:100%;font-family:DIN;-inkscape-font-specification:DIN;text-align:center;letter-spacing:0px;word-spacing:0px;writing-mode:lr-tb;text-anchor:middle;fill:#000000;fill-opacity:1;stroke:none;stroke-width:1px;stroke-linecap:butt;stroke-linejoin:miter;stroke-opacity:1"
         x="-38.9286"
         y="134.67094"
         id="text1082"><tspan
           sodipodi:role="line"
           id="tspan1080"
           x="-38.9286"
           y="143.55983" /><tspan
           sodipodi:role="line"
           x="-38.9286"
           y="154.2265"
           id="tspan1084" /></text>
    </g>
    <g
       aria-label="OUTS"
       style="font-style:normal;font-variant:normal;font-weight:normal;font-stretch:normal;font-size:3.17499995px;line-height:100%;font-family:DIN;-inkscape-font-specification:DIN;text-align:center;letter-spacing:0px;word-spacing:0px;writing-mode:lr-tb;text-anchor:middle;display:inline;fill:#f4da98;fill-opacity:1;stroke:none;stroke-width:0.26458332px;stroke-linecap:butt;stroke-linejoin:miter;stroke-opacity:1"
       id="text940"
       transform="translate(24.969411,49.913045)">
      <path
         d="m -16.920475,200.32084 q 0,-0.16192 -0.0032,-0.2921 -0.0032,-0.13335 -0.02223,-0.2413 -0.01905,-0.10795 -0.0635,-0.20002 -0.04445,-0.0921 -0.127,-0.17463 -0.117475,-0.11747 -0.2667,-0.1778 -0.149225,-0.0635 -0.3302,-0.0635 -0.180975,0 -0.3302,0.0635 -0.14605,0.0603 -0.263525,0.1778 -0.08255,0.0825 -0.127,0.17463 -0.04445,0.0921 -0.06668,0.20002 -0.01905,0.10795 -0.02222,0.2413 -0.0032,0.13018 -0.0032,0.2921 0,0.16193 0.0032,0.29528 0.0032,0.13017 0.02222,0.23812 0.02223,0.10795 0.06668,0.20003 0.04445,0.0921 0.127,0.17462 0.117475,0.11748 0.263525,0.18098 0.149225,0.0603 0.3302,0.0603 0.180975,0 0.3302,-0.0603 0.149225,-0.0635 0.2667,-0.18098 0.08255,-0.0825 0.127,-0.17462 0.04445,-0.0921 0.0635,-0.20003 0.01905,-0.10795 0.02223,-0.23812 0.0032,-0.13335 0.0032,-0.29528 z m -0.3429,0 q 0,0.17145 -0.0064,0.28575 -0.0032,0.11113 -0.01905,0.1905 -0.0127,0.0762 -0.04127,0.13018 -0.0254,0.0508 -0.06668,0.0952 -0.06032,0.0635 -0.149225,0.1016 -0.08573,0.0381 -0.187325,0.0381 -0.1016,0 -0.1905,-0.0381 -0.08573,-0.0381 -0.14605,-0.1016 -0.04127,-0.0444 -0.06985,-0.0952 -0.0254,-0.054 -0.04127,-0.13018 -0.0127,-0.0794 -0.01905,-0.1905 -0.0032,-0.1143 -0.0032,-0.28575 0,-0.17145 0.0032,-0.28257 0.0063,-0.1143 0.01905,-0.1905 0.01587,-0.0794 0.04127,-0.13018 0.02858,-0.054 0.06985,-0.0984 0.06033,-0.0635 0.14605,-0.1016 0.0889,-0.0381 0.1905,-0.0381 0.1016,0 0.187325,0.0381 0.0889,0.0381 0.149225,0.1016 0.04127,0.0445 0.06668,0.0984 0.02858,0.0508 0.04127,0.13018 0.01588,0.0762 0.01905,0.1905 0.0064,0.11112 0.0064,0.28257 z"
         style="fill:#f4da98;fill-opacity:1;stroke-width:0.26458332px"
         id="path942"
         inkscape:connector-curvature="0" />
      <path
         d="m -14.823437,200.68914 v -1.4986 h -0.3429 v 1.48273 q 0,0.2286 -0.130175,0.35877 -0.127,0.13018 -0.339725,0.13018 -0.212725,0 -0.339725,-0.13018 -0.127,-0.13017 -0.127,-0.35877 v -1.48273 h -0.3429 v 1.4986 q 0,0.17463 0.06033,0.32068 0.0635,0.14287 0.17145,0.24447 0.10795,0.1016 0.257175,0.15875 0.149225,0.0572 0.320675,0.0572 0.17145,0 0.320675,-0.0572 0.149225,-0.0572 0.257175,-0.15875 0.111125,-0.1016 0.17145,-0.24447 0.0635,-0.14605 0.0635,-0.32068 z"
         style="fill:#f4da98;fill-opacity:1;stroke-width:0.26458332px"
         id="path944"
         inkscape:connector-curvature="0" />
      <path
         d="m -12.877857,199.49852 v -0.30798 h -1.5875 v 0.30798 h 0.6223 v 1.95262 h 0.3429 v -1.95262 z"
         style="fill:#f4da98;fill-opacity:1;stroke-width:0.26458332px"
         id="path946"
         inkscape:connector-curvature="0" />
      <path
         d="m -11.072721,200.80662 q 0,-0.14605 -0.04763,-0.26353 -0.04445,-0.11747 -0.136525,-0.20002 -0.07302,-0.0635 -0.168275,-0.1016 -0.09525,-0.0413 -0.254,-0.0667 l -0.257175,-0.0381 q -0.1651,-0.0254 -0.254,-0.10477 -0.04445,-0.0413 -0.06667,-0.0921 -0.01905,-0.054 -0.01905,-0.11747 0,-0.1524 0.104775,-0.25083 0.10795,-0.1016 0.307975,-0.1016 0.142875,0 0.263525,0.0381 0.123825,0.0349 0.2286,0.13653 l 0.219075,-0.2159 q -0.14605,-0.13653 -0.31115,-0.19685 -0.1651,-0.0603 -0.390525,-0.0603 -0.1778,0 -0.3175,0.0476 -0.1397,0.0476 -0.238125,0.13652 -0.09525,0.0889 -0.149225,0.21273 -0.0508,0.12065 -0.0508,0.2667 0,0.27622 0.1651,0.4318 0.1524,0.14287 0.428625,0.18097 l 0.2667,0.0381 q 0.1016,0.0159 0.1524,0.0349 0.0508,0.019 0.09525,0.0603 0.0889,0.0794 0.0889,0.23495 0,0.1651 -0.123825,0.25718 -0.12065,0.0889 -0.3429,0.0889 -0.174625,0 -0.314325,-0.0444 -0.1397,-0.0476 -0.263525,-0.17145 l -0.2286,0.22542 q 0.161925,0.1651 0.352425,0.23178 0.1905,0.0667 0.447675,0.0667 0.1778,0 0.327025,-0.0445 0.149225,-0.0444 0.257175,-0.13017 0.10795,-0.0857 0.168275,-0.20955 0.06033,-0.12383 0.06033,-0.2794 z"
         style="fill:#f4da98;fill-opacity:1;stroke-width:0.26458332px"
         id="path948"
         inkscape:connector-curvature="0" />
    </g>
    <g
       aria-label="INS"
       style="font-style:normal;font-variant:normal;font-weight:normal;font-stretch:normal;font-size:12px;line-height:100%;font-family:DIN;-inkscape-font-specification:DIN;text-align:center;letter-spacing:0px;word-spacing:0px;writing-mode:lr-tb;text-anchor:middle;display:inline;fill:#f4da98;fill-opacity:1;stroke:none;stroke-width:1px;stroke-linecap:butt;stroke-linejoin:miter;stroke-opacity:1"
       id="text991"
       transform="matrix(0.26458333,0,0,0.26458333,22.35863,125.56778)">
      <path
         d="m -53.592166,226.29483 v -8.544 h -1.296 v 8.544 z"
         id="path993"
         inkscape:connector-curvature="0" />
      <path
         d="m -44.917103,226.29483 v -8.544 h -1.296 v 6 l -3.948,-6 h -1.188 v 8.544 h 1.296 v -6.012 l 3.948,6.012 z"
         id="path995"
         inkscape:connector-curvature="0" />
      <path
         d="m -37.337228,223.85883 q 0,-0.552 -0.18,-0.996 -0.168,-0.444 -0.516,-0.756 -0.276,-0.24 -0.636,-0.384 -0.36,-0.156 -0.96,-0.252 l -0.972,-0.144 q -0.624,-0.096 -0.96,-0.396 -0.168,-0.156 -0.252,-0.348 -0.072,-0.204 -0.072,-0.444 0,-0.576 0.396,-0.948 0.408,-0.384 1.164,-0.384 0.54,0 0.996,0.144 0.468,0.132 0.864,0.516 l 0.828,-0.816 q -0.552,-0.516 -1.176,-0.744 -0.624,-0.228 -1.476,-0.228 -0.672,0 -1.2,0.18 -0.528,0.18 -0.9,0.516 -0.36,0.336 -0.564,0.804 -0.192,0.456 -0.192,1.008 0,1.044 0.624,1.632 0.576,0.54 1.62,0.684 l 1.008,0.144 q 0.384,0.06 0.576,0.132 0.192,0.072 0.36,0.228 0.336,0.3 0.336,0.888 0,0.624 -0.468,0.972 -0.456,0.336 -1.296,0.336 -0.66,0 -1.188,-0.168 -0.528,-0.18 -0.996,-0.648 l -0.864,0.852 q 0.612,0.624 1.332,0.876 0.72,0.252 1.692,0.252 0.672,0 1.236,-0.168 0.564,-0.168 0.972,-0.492 0.408,-0.324 0.636,-0.792 0.228,-0.468 0.228,-1.056 z"
         id="path997"
         inkscape:connector-curvature="0" />
    </g>
    <g
       aria-label="1"
       style="font-style:normal;font-variant:normal;font-weight:normal;font-stretch:normal;font-size:12px;line-height:100%;font-family:DIN;-inkscape-font-specification:DIN;text-align:center;letter-spacing:0px;word-spacing:0px;writing-mode:lr-tb;text-anchor:middle;display:inline;fill:#f4da98;fill-opacity:1;stroke:none;stroke-width:1px;stroke-linecap:butt;stroke-linejoin:miter;stroke-opacity:1"
       id="text1079-3"
       transform="matrix(0.26458333,0,0,0.26458333,-1.8470822e-4,174.50047)">
      <path
         d="m 67.846006,74.193283 v -8.544 h -1.224 l -1.668,1.44 v 1.356 l 1.668,-1.464 v 7.212 z"
         id="path1177-5"
         inkscape:connector-curvature="0" />
    </g>
    <g
       aria-label="2"
       style="font-style:normal;font-variant:normal;font-weight:normal;font-stretch:normal;font-size:12px;line-height:100%;font-family:DIN;-inkscape-font-specification:DIN;text-align:center;letter-spacing:0px;word-spacing:0px;writing-mode:lr-tb;text-anchor:middle;display:inline;fill:#f4da98;fill-opacity:1;stroke:none;stroke-width:1px;stroke-linecap:butt;stroke-linejoin:miter;stroke-opacity:1"
       id="text1083-6"
       transform="matrix(0.26458333,0,0,0.26458333,-1.8470822e-4,174.50047)">
      <path
         d="m 68.884004,119.58361 v -1.092 h -3.48 l 2.676,-3.276 q 0.396,-0.48 0.6,-0.876 0.204,-0.408 0.204,-0.972 0,-0.552 -0.18,-0.996 -0.18,-0.444 -0.504,-0.756 -0.324,-0.312 -0.78,-0.48 -0.456,-0.168 -1.008,-0.168 -0.54,0 -0.996,0.18 -0.456,0.168 -0.792,0.48 -0.324,0.312 -0.516,0.768 -0.18,0.444 -0.18,0.984 h 1.224 q 0,-0.36 0.108,-0.612 0.108,-0.252 0.276,-0.408 0.18,-0.156 0.408,-0.228 0.228,-0.072 0.468,-0.072 0.6,0 0.924,0.36 0.324,0.36 0.324,0.936 0,0.324 -0.108,0.588 -0.108,0.252 -0.348,0.552 l -3.288,3.996 v 1.092 z"
         id="path1174-2"
         inkscape:connector-curvature="0" />
    </g>
    <g
       aria-label="3"
       style="font-style:normal;font-variant:normal;font-weight:normal;font-stretch:normal;font-size:12px;line-height:100%;font-family:DIN;-inkscape-font-specification:DIN;text-align:center;letter-spacing:0px;word-spacing:0px;writing-mode:lr-tb;text-anchor:middle;display:inline;fill:#f4da98;fill-opacity:1;stroke:none;stroke-width:1px;stroke-linecap:butt;stroke-linejoin:miter;stroke-opacity:1"
       id="text1087-9"
       transform="matrix(0.26458333,0,0,0.26458333,-1.8470822e-4,174.50047)">
      <path
         d="m 69.016006,162.50195 q 0,-0.792 -0.324,-1.284 -0.324,-0.492 -0.876,-0.732 0.504,-0.24 0.78,-0.684 0.288,-0.456 0.288,-1.14 0,-0.528 -0.192,-0.96 -0.18,-0.444 -0.516,-0.756 -0.324,-0.324 -0.78,-0.492 -0.456,-0.18 -0.996,-0.18 -0.516,0 -0.96,0.168 -0.444,0.156 -0.78,0.456 -0.336,0.3 -0.54,0.732 -0.204,0.432 -0.228,0.972 h 1.224 q 0.048,-0.576 0.384,-0.9 0.336,-0.324 0.9,-0.324 0.528,0 0.888,0.336 0.372,0.336 0.372,0.984 0,0.588 -0.312,0.948 -0.312,0.348 -0.984,0.348 h -0.204 v 1.068 h 0.204 q 0.72,0 1.068,0.384 0.36,0.372 0.36,1.02 0,0.684 -0.396,1.056 -0.396,0.36 -0.996,0.36 -0.264,0 -0.516,-0.072 -0.24,-0.072 -0.432,-0.228 -0.18,-0.168 -0.312,-0.408 -0.12,-0.24 -0.132,-0.588 h -1.224 q 0.012,0.624 0.228,1.08 0.228,0.456 0.588,0.756 0.36,0.288 0.816,0.432 0.468,0.132 0.984,0.132 0.54,0 1.008,-0.156 0.48,-0.156 0.828,-0.468 0.36,-0.312 0.564,-0.78 0.216,-0.468 0.216,-1.08 z"
         id="path1171-1"
         inkscape:connector-curvature="0" />
    </g>
    <g
       aria-label="4"
       style="font-style:normal;font-variant:normal;font-weight:normal;font-stretch:normal;font-size:2.82222223px;line-height:100%;font-family:DIN;-inkscape-font-specification:DIN;text-align:center;letter-spacing:0px;word-spacing:0px;writing-mode:lr-tb;text-anchor:middle;fill:#f4da98;fill-opacity:1;stroke:none;stroke-width:0.26458332px;stroke-linecap:butt;stroke-linejoin:miter;stroke-opacity:1"
       id="text975"
       transform="translate(-10.27759,4.3815976)">
      <path
         d="m 28.339814,225.355 v -0.26811 h -0.214489 v -0.46849 h -0.2794 v 0.46849 h -0.499533 l 0.705555,-1.43933 h -0.310444 l -0.708378,1.43933 v 0.26811 h 0.8128 v 0.30198 h 0.2794 V 225.355 Z"
         style="fill:#f4da98;fill-opacity:1;stroke-width:0.26458332px"
         id="path977"
         inkscape:connector-curvature="0" />
    </g>
    <path
       style="display:inline;fill:#f4da98;fill-opacity:1;stroke:none;stroke-width:0;stroke-miterlimit:4;stroke-dasharray:none;stroke-opacity:1"
       inkscape:transform-center-x="7.4234112"
       inkscape:transform-center-y="5.2919366"
       d="M 15.659997,271 A 5.5000006,5.5000006 0 0 1 10.16,276.5 5.5000006,5.5000006 0 0 1 4.6600026,271 5.5000006,5.5000006 0 0 1 10.16,265.5 5.5000006,5.5000006 0 0 1 15.659997,271 Z"
       id="path4964-7-5"
       inkscape:connector-curvature="0" />
    <path
       style="display:inline;fill:#f4da98;fill-opacity:1;stroke:none;stroke-width:0;stroke-miterlimit:4;stroke-dasharray:none;stroke-opacity:1"
       inkscape:transform-center-x="7.4234112"
       inkscape:transform-center-y="5.2919366"
       d="M 15.659997,283 A 5.5000006,5.5000006 0 0 1 10.16,288.5 5.5000006,5.5000006 0 0 1 4.6600026,283 5.5000006,5.5000006 0 0 1 10.16,277.5 5.5000006,5.5000006 0 0 1 15.659997,283 Z"
       id="path4964-7-5-5"
       inkscape:connector-curvature="0" />
  </g>
</svg>
