<?xml version="1.0" encoding="UTF-8" standalone="no"?>
<!-- Created with Inkscape (http://www.inkscape.org/) -->

<svg
   xmlns:dc="http://purl.org/dc/elements/1.1/"
   xmlns:cc="http://creativecommons.org/ns#"
   xmlns:rdf="http://www.w3.org/1999/02/22-rdf-syntax-ns#"
   xmlns:svg="http://www.w3.org/2000/svg"
   xmlns="http://www.w3.org/2000/svg"
   xmlns:xlink="http://www.w3.org/1999/xlink"
   xmlns:sodipodi="http://sodipodi.sourceforge.net/DTD/sodipodi-0.dtd"
   xmlns:inkscape="http://www.inkscape.org/namespaces/inkscape"
   width="20.32mm"
   height="128.5mm"
   viewBox="0 0 20.32 128.5"
   version="1.1"
   id="svg1141"
   inkscape:version="0.92.3 (2405546, 2018-03-11)"
   sodipodi:docname="MIDI_Channel.svg">
  <defs
     id="defs1135">
    <linearGradient
       inkscape:collect="always"
       xlink:href="#linearGradient1109"
       id="linearGradient4954"
       gradientUnits="userSpaceOnUse"
       x1="110.74702"
       y1="130.87947"
       x2="111.50298"
       y2="242.57143"
       gradientTransform="matrix(0.44393752,0,0,0.99973639,-37.472257,-125.49796)" />
    <linearGradient
       inkscape:collect="always"
       id="linearGradient1109">
      <stop
         style="stop-color:#333131;stop-opacity:1"
         offset="0"
         id="stop1105" />
      <stop
         style="stop-color:#292727;stop-opacity:1"
         offset="1"
         id="stop1107" />
    </linearGradient>
    <clipPath
       id="clipPath913"
       clipPathUnits="userSpaceOnUse">
      <path
         inkscape:connector-curvature="0"
         id="path911-3"
         d="M 0,472.252 H 165.6 V 0 H 0 Z" />
    </clipPath>
    <clipPath
       id="clipPath953"
       clipPathUnits="userSpaceOnUse">
      <path
         inkscape:connector-curvature="0"
         id="path951-3"
         d="M 0,500 H 200 V 0 H 0 Z" />
    </clipPath>
  </defs>
  <sodipodi:namedview
     id="base"
     pagecolor="#ffffff"
     bordercolor="#666666"
     borderopacity="1.0"
     inkscape:pageopacity="0.0"
     inkscape:pageshadow="2"
     inkscape:zoom="1.979899"
     inkscape:cx="-39.790611"
     inkscape:cy="278.61701"
     inkscape:document-units="mm"
     inkscape:current-layer="layer1"
     showgrid="false"
     showguides="true"
     inkscape:guide-bbox="true"
     inkscape:snap-bbox="true"
     inkscape:snap-bbox-midpoints="true"
     inkscape:snap-text-baseline="true"
     inkscape:window-width="1920"
     inkscape:window-height="1025"
     inkscape:window-x="0"
     inkscape:window-y="0"
     inkscape:window-maximized="1">
    <sodipodi:guide
       position="-15.501632,120"
       orientation="0,1"
       id="guide1714"
       inkscape:locked="false"
       inkscape:label=""
       inkscape:color="rgb(0,0,255)" />
    <sodipodi:guide
       position="-16.303441,20"
       orientation="0,1"
       id="guide1716"
       inkscape:locked="false"
       inkscape:label=""
       inkscape:color="rgb(0,0,255)" />
    <sodipodi:guide
       position="10.16,80.319942"
       orientation="1,0"
       id="guide1749"
       inkscape:locked="false"
       inkscape:label=""
       inkscape:color="rgb(0,0,255)" />
    <sodipodi:guide
       position="-22.584275,108"
       orientation="0,1"
       id="guide1784"
       inkscape:locked="false"
       inkscape:label=""
       inkscape:color="rgb(0,0,255)" />
    <sodipodi:guide
       position="-13.630745,95.999999"
       orientation="0,1"
       id="guide1810"
       inkscape:locked="false"
       inkscape:label=""
       inkscape:color="rgb(0,0,255)" />
    <sodipodi:guide
       position="-28.330569,84.000002"
       orientation="0,1"
       id="guide1812"
       inkscape:locked="false"
       inkscape:label=""
       inkscape:color="rgb(0,0,255)" />
    <sodipodi:guide
       position="-15.902536,72.000005"
       orientation="0,1"
       id="guide1838"
       inkscape:locked="false"
       inkscape:label=""
       inkscape:color="rgb(0,0,255)" />
    <sodipodi:guide
       position="-12.561667,52.000002"
       orientation="0,1"
       id="guide1877"
       inkscape:locked="false"
       inkscape:label=""
       inkscape:color="rgb(0,0,255)" />
    <sodipodi:guide
       position="-20.847022,36"
       orientation="0,1"
       id="guide1903"
       inkscape:locked="false"
       inkscape:label=""
       inkscape:color="rgb(0,0,255)" />
  </sodipodi:namedview>
  <metadata
     id="metadata1138">
    <rdf:RDF>
      <cc:Work
         rdf:about="">
        <dc:format>image/svg+xml</dc:format>
        <dc:type
           rdf:resource="http://purl.org/dc/dcmitype/StillImage" />
        <dc:title />
      </cc:Work>
    </rdf:RDF>
  </metadata>
  <g
     inkscape:groupmode="layer"
     id="layer4"
     inkscape:label="BG"
     style="display:inline">
    <path
       inkscape:connector-curvature="0"
       id="path1099"
       d="M 5e-7,-6.6e-6 H 20.320001 V 128.5 H 5e-7 Z"
       style="display:inline;fill:url(#linearGradient4954);fill-opacity:1;stroke:#6e6e6e;stroke-width:0;stroke-miterlimit:4;stroke-dasharray:none;stroke-opacity:1" />
  </g>
  <g
     inkscape:label="Layer 1"
     inkscape:groupmode="layer"
     id="layer1"
     transform="translate(0,-168.5)"
     style="display:inline">
    <path
       style="display:inline;fill:#f4da98;fill-opacity:1;stroke:#000000;stroke-width:0;stroke-miterlimit:4;stroke-dasharray:none;stroke-opacity:0"
       inkscape:transform-center-x="7.4234112"
       inkscape:transform-center-y="5.2919366"
       d="M 15.66,277 A 5.5000004,5.5000004 0 0 1 10.159999,282.5 5.5000004,5.5000004 0 0 1 4.6599993,277 5.5000004,5.5000004 0 0 1 10.159999,271.5 5.5000004,5.5000004 0 0 1 15.66,277 Z"
       id="path4964"
       inkscape:connector-curvature="0" />
    <rect
       style="display:inline;opacity:1;fill:#000000;fill-opacity:1;stroke:#000000;stroke-width:0.2;stroke-linecap:butt;stroke-linejoin:miter;stroke-miterlimit:4;stroke-dasharray:none;stroke-opacity:1"
       id="rect1627"
       width="15.929257"
       height="7.9292574"
       x="2.1953714"
       y="185.03537"
       rx="0.55958259" />
    <g
       aria-label="IN"
       style="font-style:normal;font-variant:normal;font-weight:normal;font-stretch:normal;font-size:3.17499995px;line-height:100%;font-family:DIN;-inkscape-font-specification:DIN;text-align:center;letter-spacing:0px;word-spacing:0px;writing-mode:lr-tb;text-anchor:middle;fill:#f4da98;fill-opacity:1;stroke:#000000;stroke-width:0.26458332px;stroke-linecap:butt;stroke-linejoin:miter;stroke-opacity:0"
       id="text1979"
       transform="translate(32.178168,-37.486356)">
      <path
         d="m -22.994343,276.2113 v -2.2606 h -0.3429 v 2.2606 z"
         style="fill:#f4da98;fill-opacity:1;stroke:#000000;stroke-width:0.26458332px;stroke-opacity:0"
         id="path1992"
         inkscape:connector-curvature="0" />
      <path
         d="m -20.699066,276.2113 v -2.2606 h -0.3429 v 1.5875 l -1.044575,-1.5875 h -0.314325 v 2.2606 h 0.3429 v -1.59067 l 1.044575,1.59067 z"
         style="fill:#f4da98;fill-opacity:1;stroke:#000000;stroke-width:0.26458332px;stroke-opacity:0"
         id="path1994"
         inkscape:connector-curvature="0" />
    </g>
    <g
       aria-label="IN CHAN"
       style="font-style:normal;font-variant:normal;font-weight:500;font-stretch:normal;font-size:2.82222223px;line-height:1.25;font-family:DIN;-inkscape-font-specification:'DIN Medium';text-align:center;writing-mode:lr-tb;text-anchor:middle;fill:#f4da98;fill-opacity:1;stroke:none;stroke-width:1;stroke-miterlimit:4;stroke-dasharray:none;stroke-opacity:1"
       id="text908">
      <path
         d="m 3.0762332,184.18388 v -2.00942 h -0.3048 v 2.00942 z"
         style="fill:#f4da98;fill-opacity:1;stroke-width:1"
         id="path949"
         inkscape:connector-curvature="0" />
      <path
         d="m 5.113874,184.18388 v -2.00942 h -0.3048 v 1.41111 l -0.9285111,-1.41111 h -0.2794 v 2.00942 h 0.3048 v -1.41393 l 0.9285111,1.41393 z"
         style="fill:#f4da98;fill-opacity:1;stroke-width:1"
         id="path951"
         inkscape:connector-curvature="0" />
      <path
         d="M 7.6820906,183.58275 H 7.3744683 q -0.036689,0.1524 -0.1382889,0.24836 -0.1016,0.096 -0.2709333,0.096 -0.090311,0 -0.1665111,-0.031 -0.0762,-0.0339 -0.1298222,-0.0903 -0.036689,-0.0395 -0.062089,-0.0847 -0.022578,-0.048 -0.036689,-0.11571 -0.011289,-0.0706 -0.016933,-0.17216 -0.00564,-0.1016 -0.00564,-0.254 0,-0.1524 0.00564,-0.254 0.00564,-0.1016 0.016933,-0.16933 0.014111,-0.0706 0.036689,-0.11571 0.0254,-0.048 0.062089,-0.0875 0.053622,-0.0564 0.1298222,-0.0875 0.0762,-0.0339 0.1665111,-0.0339 0.1693333,0 0.2681111,0.096 0.1016,0.0959 0.1382889,0.24835 h 0.3104445 q -0.053622,-0.30197 -0.2455334,-0.46002 -0.1919111,-0.15804 -0.4713111,-0.15804 -0.1580444,0 -0.2906889,0.0564 -0.1326444,0.0536 -0.2370667,0.15805 -0.073378,0.0734 -0.1128888,0.15522 -0.039511,0.0818 -0.059267,0.1778 -0.016933,0.096 -0.019756,0.21449 -0.00282,0.11571 -0.00282,0.25964 0,0.14394 0.00282,0.26247 0.00282,0.11571 0.019756,0.21167 0.019755,0.0959 0.059267,0.1778 0.039511,0.0818 0.1128888,0.15522 0.1044223,0.10442 0.2370667,0.16086 0.1326445,0.0536 0.2906889,0.0536 0.1354667,0 0.254,-0.0395 0.1213556,-0.0395 0.2144889,-0.11854 0.095956,-0.079 0.1580444,-0.19473 0.064911,-0.11571 0.090311,-0.26529 z"
         style="fill:#f4da98;fill-opacity:1;stroke-width:1"
         id="path953"
         inkscape:connector-curvature="0" />
      <path
         d="m 9.5137082,184.18388 v -2.00942 h -0.3048 v 0.85796 H 8.393286 v -0.85796 h -0.3048 v 2.00942 h 0.3048 v -0.87771 h 0.8156222 v 0.87771 z"
         style="fill:#f4da98;fill-opacity:1;stroke-width:1"
         id="path955"
         inkscape:connector-curvature="0" />
      <path
         d="m 11.517486,184.18388 -0.7366,-2.00942 h -0.245534 l -0.7365996,2.00942 h 0.3245556 l 0.138289,-0.40357 h 0.793044 l 0.138289,0.40357 z m -0.547511,-0.66322 h -0.618067 l 0.313267,-0.89182 z"
         style="fill:#f4da98;fill-opacity:1;stroke-width:1"
         id="path958"
         inkscape:connector-curvature="0" />
      <path
         d="m 13.315236,184.18388 v -2.00942 h -0.3048 v 1.41111 l -0.928511,-1.41111 h -0.2794 v 2.00942 h 0.3048 v -1.41393 l 0.928511,1.41393 z"
         style="fill:#f4da98;fill-opacity:1;stroke-width:1"
         id="path960"
         inkscape:connector-curvature="0" />
    </g>
    <g
       aria-label="OUT CHAN"
       style="font-style:normal;font-variant:normal;font-weight:500;font-stretch:normal;font-size:2.82222223px;line-height:1.25;font-family:DIN;-inkscape-font-specification:'DIN Medium';text-align:center;writing-mode:lr-tb;text-anchor:middle;fill:#f4da98;fill-opacity:1;stroke:none;stroke-width:1;stroke-miterlimit:4;stroke-dasharray:none;stroke-opacity:1"
       id="text912">
      <path
         d="m 4.0174409,195.17917 q 0,-0.14393 -0.00282,-0.25964 -0.00282,-0.11854 -0.019755,-0.21449 -0.016933,-0.096 -0.056445,-0.1778 -0.039511,-0.0819 -0.1128889,-0.15522 -0.1044222,-0.10443 -0.2370666,-0.15805 -0.1326445,-0.0564 -0.2935111,-0.0564 -0.1608667,0 -0.2935112,0.0564 -0.1298222,0.0536 -0.2342444,0.15805 -0.073378,0.0734 -0.1128889,0.15522 -0.039511,0.0818 -0.059267,0.1778 -0.016933,0.096 -0.019756,0.21449 -0.00282,0.11571 -0.00282,0.25964 0,0.14394 0.00282,0.26247 0.00282,0.11571 0.019756,0.21167 0.019756,0.0959 0.059267,0.1778 0.039511,0.0818 0.1128889,0.15522 0.1044222,0.10442 0.2342444,0.16086 0.1326445,0.0536 0.2935112,0.0536 0.1608666,0 0.2935111,-0.0536 0.1326444,-0.0564 0.2370666,-0.16086 0.073378,-0.0734 0.1128889,-0.15522 0.039511,-0.0819 0.056445,-0.1778 0.016933,-0.096 0.019755,-0.21167 0.00282,-0.11853 0.00282,-0.26247 z m -0.3048,0 q 0,0.1524 -0.00564,0.254 -0.00282,0.0988 -0.016933,0.16934 -0.011289,0.0677 -0.036689,0.11571 -0.022578,0.0452 -0.059267,0.0847 -0.053622,0.0565 -0.1326444,0.0903 -0.0762,0.0339 -0.1665111,0.0339 -0.090311,0 -0.1693334,-0.0339 -0.0762,-0.0339 -0.1298222,-0.0903 -0.036689,-0.0395 -0.062089,-0.0847 -0.022578,-0.048 -0.036689,-0.11571 -0.011289,-0.0706 -0.016933,-0.16934 -0.00282,-0.1016 -0.00282,-0.254 0,-0.1524 0.00282,-0.25118 0.00564,-0.1016 0.016933,-0.16933 0.014111,-0.0705 0.036689,-0.11571 0.0254,-0.048 0.062089,-0.0875 0.053622,-0.0564 0.1298222,-0.0903 0.079022,-0.0339 0.1693334,-0.0339 0.090311,0 0.1665111,0.0339 0.079022,0.0339 0.1326444,0.0903 0.036689,0.0395 0.059267,0.0875 0.0254,0.0452 0.036689,0.11571 0.014111,0.0677 0.016933,0.16933 0.00564,0.0988 0.00564,0.25118 z"
         style="fill:#f4da98;fill-opacity:1;stroke-width:1"
         id="path963"
         inkscape:connector-curvature="0" />
      <path
         d="m 5.8801073,195.50655 v -1.33209 h -0.3048 v 1.31798 q 0,0.2032 -0.1157111,0.31891 -0.1128889,0.11571 -0.3019778,0.11571 -0.1890888,0 -0.3019777,-0.11571 -0.1128889,-0.11571 -0.1128889,-0.31891 v -1.31798 h -0.3048 v 1.33209 q 0,0.15522 0.053622,0.28504 0.056444,0.127 0.1524,0.21732 0.095956,0.0903 0.2286,0.14111 0.1326444,0.0508 0.2850444,0.0508 0.1524001,0 0.2850445,-0.0508 0.1326444,-0.0508 0.2286,-0.14111 0.098778,-0.0903 0.1524,-0.21732 0.056444,-0.12982 0.056445,-0.28504 z"
         style="fill:#f4da98;fill-opacity:1;stroke-width:1"
         id="path965"
         inkscape:connector-curvature="0" />
      <path
         d="m 7.6073053,194.44822 v -0.27376 H 6.1961942 v 0.27376 h 0.5531555 v 1.73566 h 0.3048 v -1.73566 z"
         style="fill:#f4da98;fill-opacity:1;stroke-width:1"
         id="path967"
         inkscape:connector-curvature="0" />
      <path
         d="M 9.997725,195.58275 H 9.6901028 q -0.036689,0.1524 -0.1382889,0.24836 -0.1016,0.096 -0.2709333,0.096 -0.090311,0 -0.1665111,-0.031 -0.0762,-0.0339 -0.1298222,-0.0903 -0.036689,-0.0395 -0.062089,-0.0847 -0.022578,-0.048 -0.036689,-0.11571 -0.011289,-0.0706 -0.016933,-0.17216 -0.00564,-0.1016 -0.00564,-0.254 0,-0.1524 0.00564,-0.254 0.00564,-0.1016 0.016933,-0.16933 0.014111,-0.0706 0.036689,-0.11571 0.0254,-0.048 0.062089,-0.0875 0.053622,-0.0564 0.1298222,-0.0875 0.0762,-0.0339 0.1665111,-0.0339 0.1693333,0 0.2681111,0.096 0.1016,0.0959 0.1382889,0.24835 H 9.997725 q -0.053622,-0.30197 -0.2455333,-0.46002 -0.1919111,-0.15804 -0.4713111,-0.15804 -0.1580445,0 -0.2906889,0.0564 -0.1326444,0.0536 -0.2370667,0.15805 -0.073378,0.0734 -0.1128889,0.15522 -0.039511,0.0818 -0.059267,0.1778 -0.016933,0.096 -0.019756,0.21449 -0.00282,0.11571 -0.00282,0.25964 0,0.14394 0.00282,0.26247 0.00282,0.11571 0.019756,0.21167 0.019756,0.0959 0.059267,0.1778 0.039511,0.0818 0.1128889,0.15522 0.1044223,0.10442 0.2370667,0.16086 0.1326444,0.0536 0.2906889,0.0536 0.1354667,0 0.254,-0.0395 0.1213555,-0.0395 0.2144889,-0.11854 0.095956,-0.079 0.1580444,-0.19473 0.064911,-0.11571 0.090311,-0.26529 z"
         style="fill:#f4da98;fill-opacity:1;stroke-width:1"
         id="path969"
         inkscape:connector-curvature="0" />
      <path
         d="m 11.829343,196.18388 v -2.00942 h -0.3048 v 0.85796 h -0.815622 v -0.85796 h -0.3048 v 2.00942 h 0.3048 v -0.87771 h 0.815622 v 0.87771 z"
         style="fill:#f4da98;fill-opacity:1;stroke-width:1"
         id="path971"
         inkscape:connector-curvature="0" />
      <path
         d="m 13.83312,196.18388 -0.7366,-2.00942 h -0.245533 l -0.7366,2.00942 h 0.324556 l 0.138289,-0.40357 h 0.793044 l 0.138289,0.40357 z m -0.547511,-0.66322 h -0.618066 l 0.313266,-0.89182 z"
         style="fill:#f4da98;fill-opacity:1;stroke-width:1"
         id="path973"
         inkscape:connector-curvature="0" />
      <path
         d="m 15.630871,196.18388 v -2.00942 h -0.3048 v 1.41111 l -0.928511,-1.41111 h -0.2794 v 2.00942 h 0.3048 v -1.41393 l 0.928511,1.41393 z"
         style="fill:#f4da98;fill-opacity:1;stroke-width:1"
         id="path975"
         inkscape:connector-curvature="0" />
    </g>
    <g
       aria-label="TRANS"
       style="font-style:normal;font-variant:normal;font-weight:500;font-stretch:normal;font-size:2.82222223px;line-height:1.25;font-family:DIN;-inkscape-font-specification:'DIN Medium';text-align:center;writing-mode:lr-tb;text-anchor:middle;fill:#f4da98;fill-opacity:1;stroke:none;stroke-width:1;stroke-miterlimit:4;stroke-dasharray:none;stroke-opacity:1"
       id="text916"
       transform="translate(-2.2366667e-6,11.999919)">
      <path
         d="m 4.0640094,206.44822 v -0.27376 H 2.6528983 v 0.27376 h 0.5531555 v 1.73566 h 0.3048 v -1.73566 z"
         style="fill:#f4da98;fill-opacity:1;stroke-width:1"
         id="path978"
         inkscape:connector-curvature="0" />
      <path
         d="m 5.8758745,208.18388 -0.4628444,-0.889 q 0.1693333,-0.048 0.2850444,-0.18062 0.1157111,-0.13547 0.1157111,-0.35278 0,-0.127 -0.045155,-0.23424 -0.042333,-0.11007 -0.1241778,-0.18627 -0.081844,-0.079 -0.1975556,-0.12135 -0.1128889,-0.0452 -0.2568222,-0.0452 H 4.4111412 v 2.00942 h 0.3048 v -0.84666 h 0.381 l 0.4233333,0.84666 z m -0.3668889,-1.41957 q 0,0.14957 -0.095955,0.23142 -0.093133,0.0818 -0.2455334,0.0818 h -0.451556 v -0.62935 h 0.4515555 q 0.1524,0 0.2455334,0.0847 0.095955,0.0819 0.095955,0.23143 z"
         style="fill:#f4da98;fill-opacity:1;stroke-width:1"
         id="path980"
         inkscape:connector-curvature="0" />
      <path
         d="m 7.7385378,208.18388 -0.7366,-2.00942 H 6.7564045 l -0.7366,2.00942 h 0.3245556 l 0.1382888,-0.40357 h 0.7930445 l 0.1382889,0.40357 z M 7.1910267,207.52066 H 6.5729601 l 0.3132666,-0.89182 z"
         style="fill:#f4da98;fill-opacity:1;stroke-width:1"
         id="path982"
         inkscape:connector-curvature="0" />
      <path
         d="m 9.5362881,208.18388 v -2.00942 h -0.3048 v 1.41111 L 8.302977,206.17446 h -0.2794 v 2.00942 h 0.3048 v -1.41393 l 0.9285111,1.41393 z"
         style="fill:#f4da98;fill-opacity:1;stroke-width:1"
         id="path984"
         inkscape:connector-curvature="0" />
      <path
         d="m 11.317105,207.61097 q 0,-0.12982 -0.04233,-0.23424 -0.03951,-0.10442 -0.121356,-0.1778 -0.06491,-0.0564 -0.149578,-0.0903 -0.08467,-0.0367 -0.225777,-0.0593 l -0.2286,-0.0339 q -0.146756,-0.0226 -0.225778,-0.0931 -0.03951,-0.0367 -0.05927,-0.0818 -0.01693,-0.048 -0.01693,-0.10443 0,-0.13546 0.09313,-0.22295 0.09596,-0.0903 0.273756,-0.0903 0.127,0 0.234244,0.0339 0.110067,0.031 0.2032,0.12136 l 0.194733,-0.19191 q -0.129822,-0.12136 -0.276577,-0.17498 -0.146756,-0.0536 -0.347134,-0.0536 -0.158044,0 -0.282222,0.0423 -0.124178,0.0423 -0.211667,0.12136 -0.08467,0.079 -0.132644,0.18909 -0.045155,0.10724 -0.045155,0.23706 0,0.24554 0.146756,0.38382 0.135467,0.127 0.381,0.16087 l 0.237066,0.0339 q 0.09031,0.0141 0.135466,0.031 0.04516,0.0169 0.08467,0.0536 0.07902,0.0706 0.07902,0.20885 0,0.14675 -0.110066,0.2286 -0.107245,0.079 -0.3048,0.079 -0.155223,0 -0.2794,-0.0395 -0.124178,-0.0423 -0.234245,-0.1524 l -0.2031994,0.20038 q 0.1439324,0.14675 0.3132664,0.20602 0.169333,0.0593 0.397933,0.0593 0.158045,0 0.290689,-0.0395 0.132645,-0.0395 0.2286,-0.11572 0.09596,-0.0762 0.149578,-0.18626 0.05362,-0.11007 0.05362,-0.24836 z"
         style="fill:#f4da98;fill-opacity:1;stroke-width:1"
         id="path986"
         inkscape:connector-curvature="0" />
    </g>
    <g
       aria-label="KEY SPLIT"
       style="font-style:normal;font-variant:normal;font-weight:500;font-stretch:normal;font-size:2.82222223px;line-height:1.25;font-family:DIN;-inkscape-font-specification:'DIN Medium';text-align:center;writing-mode:lr-tb;text-anchor:middle;fill:#f4da98;fill-opacity:1;stroke:none;stroke-width:1;stroke-miterlimit:4;stroke-dasharray:none;stroke-opacity:1"
       id="text920"
       transform="translate(-6.3666667e-7,-12.000077)">
      <path
         d="m 4.2206441,220.18388 -0.7196667,-1.22202 0.6519334,-0.7874 H 3.7803774 l -0.8212666,1.01036 v -1.01036 h -0.3048 v 2.00942 h 0.3048 v -0.5842 l 0.3386666,-0.4064 0.5644445,0.9906 z"
         style="fill:#f4da98;fill-opacity:1;stroke-width:1"
         id="path989"
         inkscape:connector-curvature="0" />
      <path
         d="m 5.7954414,220.18388 v -0.27375 H 4.8161303 v -0.60396 h 0.8353778 v -0.27093 H 4.8161303 v -0.58702 h 0.9793111 v -0.27376 H 4.5113303 v 2.00942 z"
         style="fill:#f4da98;fill-opacity:1;stroke-width:1"
         id="path991"
         inkscape:connector-curvature="0" />
      <path
         d="M 7.4718378,218.17446 H 7.1388156 l -0.4205111,0.88336 -0.4205111,-0.88336 H 5.9647712 l 0.6011333,1.18251 v 0.82691 h 0.3048 v -0.82691 z"
         style="fill:#f4da98;fill-opacity:1;stroke-width:1"
         id="path993"
         inkscape:connector-curvature="0" />
      <path
         d="m 9.6816335,219.61097 q 0,-0.12982 -0.042333,-0.23424 -0.039511,-0.10442 -0.1213555,-0.1778 -0.064911,-0.0564 -0.1495778,-0.0903 -0.084667,-0.0367 -0.2257778,-0.0593 l -0.2286,-0.0339 q -0.1467555,-0.0226 -0.2257777,-0.0931 -0.039511,-0.0367 -0.059267,-0.0818 -0.016933,-0.048 -0.016933,-0.10443 0,-0.13546 0.093133,-0.22295 0.095955,-0.0903 0.2737555,-0.0903 0.127,0 0.2342445,0.0339 0.1100667,0.031 0.2032,0.12136 L 9.611078,218.3862 q -0.1298222,-0.12136 -0.2765778,-0.17498 -0.1467555,-0.0536 -0.3471333,-0.0536 -0.1580444,0 -0.2822222,0.0423 -0.1241778,0.0423 -0.2116667,0.12136 -0.084667,0.079 -0.1326444,0.18909 -0.045156,0.10724 -0.045156,0.23706 0,0.24554 0.1467556,0.38382 0.1354666,0.127 0.381,0.16087 l 0.2370666,0.0339 q 0.090311,0.0141 0.1354667,0.031 0.045156,0.0169 0.084667,0.0536 0.079022,0.0706 0.079022,0.20885 0,0.14675 -0.1100667,0.2286 -0.1072444,0.079 -0.3048,0.079 -0.1552222,0 -0.2794,-0.0395 -0.1241777,-0.0423 -0.2342444,-0.1524 l -0.2032,0.20038 q 0.1439333,0.14675 0.3132667,0.20602 0.1693333,0.0593 0.3979333,0.0593 0.1580444,0 0.2906889,-0.0395 0.1326444,-0.0395 0.2286,-0.11572 0.095956,-0.0762 0.1495778,-0.18626 0.053622,-0.11007 0.053622,-0.24836 z"
         style="fill:#f4da98;fill-opacity:1;stroke-width:1"
         id="path995"
         inkscape:connector-curvature="0" />
      <path
         d="m 11.496318,218.78406 q 0,-0.12982 -0.04516,-0.24271 -0.04516,-0.11289 -0.129822,-0.19191 -0.08467,-0.0818 -0.2032,-0.127 -0.118534,-0.048 -0.265289,-0.048 h -0.762 v 2.00942 h 0.3048 v -0.79022 h 0.4572 q 0.146755,0 0.265289,-0.0452 0.118533,-0.048 0.2032,-0.127 0.08467,-0.0819 0.129822,-0.19192 0.04516,-0.11288 0.04516,-0.24553 z m -0.3048,0 q 0,0.16087 -0.09878,0.24836 -0.09596,0.0847 -0.256822,0.0847 h -0.440267 v -0.66886 h 0.440267 q 0.160866,0 0.256822,0.0875 0.09878,0.0875 0.09878,0.24835 z"
         style="fill:#f4da98;fill-opacity:1;stroke-width:1"
         id="path997"
         inkscape:connector-curvature="0" />
      <path
         d="m 13.13885,220.18388 v -0.27375 h -0.968023 v -1.73567 h -0.3048 v 2.00942 z"
         style="fill:#f4da98;fill-opacity:1;stroke-width:1"
         id="path999"
         inkscape:connector-curvature="0" />
      <path
         d="m 13.790782,220.18388 v -2.00942 h -0.3048 v 2.00942 z"
         style="fill:#f4da98;fill-opacity:1;stroke-width:1"
         id="path1001"
         inkscape:connector-curvature="0" />
      <path
         d="m 15.549023,218.44822 v -0.27376 h -1.411111 v 0.27376 h 0.553155 v 1.73566 h 0.3048 v -1.73566 z"
         style="fill:#f4da98;fill-opacity:1;stroke-width:1"
         id="path1003"
         inkscape:connector-curvature="0" />
    </g>
    <path
       style="display:inline;fill:#f4da98;fill-opacity:1;stroke:#000000;stroke-width:0;stroke-miterlimit:4;stroke-dasharray:none;stroke-opacity:0"
       inkscape:transform-center-x="7.4234112"
       inkscape:transform-center-y="5.2919366"
       d="m 15.66,261 a 5.5000004,5.5000004 0 0 1 -5.500001,5.5 5.5000004,5.5000004 0 0 1 -5.5,-5.5 5.5000004,5.5000004 0 0 1 5.5,-5.5 A 5.5000004,5.5000004 0 0 1 15.66,261 Z"
       id="path4964-3"
       inkscape:connector-curvature="0" />
    <rect
       style="display:inline;opacity:1;fill:#000000;fill-opacity:1;stroke:#000000;stroke-width:0.2;stroke-linecap:butt;stroke-linejoin:miter;stroke-miterlimit:4;stroke-dasharray:none;stroke-opacity:1"
       id="rect1627-3"
       width="15.929257"
       height="7.9292574"
       x="2.1953709"
       y="197.03537"
       rx="0.55958259" />
    <rect
       style="display:inline;opacity:1;fill:#000000;fill-opacity:1;stroke:#000000;stroke-width:0.2;stroke-linecap:butt;stroke-linejoin:miter;stroke-miterlimit:4;stroke-dasharray:none;stroke-opacity:1"
       id="rect1627-9"
       width="15.929257"
       height="7.9292574"
       x="2.1953709"
       y="209.03537"
       rx="0.55958259" />
    <rect
       style="display:inline;opacity:1;fill:#000000;fill-opacity:1;stroke:#000000;stroke-width:0.2;stroke-linecap:butt;stroke-linejoin:miter;stroke-miterlimit:4;stroke-dasharray:none;stroke-opacity:1"
       id="rect1627-0"
       width="15.929257"
       height="7.9292574"
       x="2.1953709"
       y="221.03537"
       rx="0.55958259" />
    <g
       aria-label="OUT L"
       style="font-style:normal;font-variant:normal;font-weight:500;font-stretch:normal;font-size:3.17499995px;line-height:1.25;font-family:DIN;-inkscape-font-specification:'DIN Medium';text-align:center;writing-mode:lr-tb;text-anchor:middle;fill:#f4da98;fill-opacity:1;stroke:none;stroke-width:1;stroke-miterlimit:4;stroke-dasharray:none;stroke-opacity:1"
       id="text939"
       transform="translate(-5.2173946e-7,-5.9999985)">
      <path
         d="m 7.6612772,259.59165 q 0,-0.16192 -0.00317,-0.2921 -0.00317,-0.13335 -0.022225,-0.2413 -0.01905,-0.10795 -0.0635,-0.20002 -0.04445,-0.0921 -0.127,-0.17463 -0.117475,-0.11747 -0.2667,-0.1778 -0.149225,-0.0635 -0.3302,-0.0635 -0.180975,0 -0.3302,0.0635 -0.14605,0.0603 -0.263525,0.1778 -0.08255,0.0825 -0.127,0.17463 -0.04445,0.0921 -0.066675,0.20002 -0.01905,0.10795 -0.022225,0.2413 -0.00317,0.13018 -0.00317,0.2921 0,0.16193 0.00317,0.29528 0.00317,0.13017 0.022225,0.23812 0.022225,0.10795 0.066675,0.20003 0.04445,0.0921 0.127,0.17462 0.117475,0.11748 0.263525,0.18098 0.149225,0.0603 0.3302,0.0603 0.180975,0 0.3302,-0.0603 0.149225,-0.0635 0.2667,-0.18098 0.08255,-0.0826 0.127,-0.17462 0.04445,-0.0921 0.0635,-0.20003 0.01905,-0.10795 0.022225,-0.23812 0.00317,-0.13335 0.00317,-0.29528 z m -0.3429,0 q 0,0.17145 -0.00635,0.28575 -0.00318,0.11113 -0.01905,0.1905 -0.0127,0.0762 -0.041275,0.13018 -0.0254,0.0508 -0.066675,0.0953 -0.060325,0.0635 -0.149225,0.1016 -0.085725,0.0381 -0.187325,0.0381 -0.1016,0 -0.1905,-0.0381 -0.085725,-0.0381 -0.14605,-0.1016 -0.041275,-0.0445 -0.06985,-0.0953 -0.0254,-0.054 -0.041275,-0.13018 -0.0127,-0.0794 -0.01905,-0.1905 -0.00318,-0.1143 -0.00318,-0.28575 0,-0.17145 0.00318,-0.28257 0.00635,-0.1143 0.01905,-0.1905 0.015875,-0.0794 0.041275,-0.13018 0.028575,-0.054 0.06985,-0.0984 0.060325,-0.0635 0.14605,-0.1016 0.0889,-0.0381 0.1905,-0.0381 0.1016,0 0.187325,0.0381 0.0889,0.0381 0.149225,0.1016 0.041275,0.0445 0.066675,0.0984 0.028575,0.0508 0.041275,0.13018 0.015875,0.0762 0.01905,0.1905 0.00635,0.11112 0.00635,0.28257 z"
         style="fill:#f4da98;fill-opacity:1;stroke-width:1"
         id="path1015"
         inkscape:connector-curvature="0" />
      <path
         d="m 9.7567769,259.95995 v -1.4986 h -0.3429 v 1.48273 q 0,0.2286 -0.130175,0.35877 -0.127,0.13018 -0.339725,0.13018 -0.212725,0 -0.339725,-0.13018 -0.127,-0.13017 -0.127,-0.35877 v -1.48273 h -0.3429 v 1.4986 q 0,0.17463 0.060325,0.32068 0.0635,0.14287 0.17145,0.24447 0.10795,0.1016 0.257175,0.15875 0.149225,0.0571 0.320675,0.0571 0.17145,0 0.320675,-0.0571 0.149225,-0.0571 0.257175,-0.15875 0.111125,-0.1016 0.17145,-0.24447 0.0635,-0.14605 0.0635,-0.32068 z"
         style="fill:#f4da98;fill-opacity:1;stroke-width:1"
         id="path1017"
         inkscape:connector-curvature="0" />
      <path
         d="m 11.699874,258.76933 v -0.30798 h -1.5875 v 0.30798 h 0.6223 v 1.95262 h 0.3429 v -1.95262 z"
         style="fill:#f4da98;fill-opacity:1;stroke-width:1"
         id="path1019"
         inkscape:connector-curvature="0" />
      <path
         d="m 14.284322,260.72195 v -0.30797 h -1.089025 v -1.95263 h -0.3429 v 2.2606 z"
         style="fill:#f4da98;fill-opacity:1;stroke-width:1"
         id="path1021"
         inkscape:connector-curvature="0" />
    </g>
    <g
       aria-label="OUT R"
       style="font-style:normal;font-variant:normal;font-weight:500;font-stretch:normal;font-size:2.82222223px;line-height:1.25;font-family:DIN;-inkscape-font-specification:'DIN Medium';text-align:center;writing-mode:lr-tb;text-anchor:middle;fill:#f4da98;fill-opacity:1;stroke:none;stroke-width:1;stroke-miterlimit:4;stroke-dasharray:none;stroke-opacity:1"
       id="text928"
       transform="translate(-5.2173946e-7,-5.9999985)">
      <path
         d="m 7.5533272,275.59165 q 0,-0.16192 -0.00317,-0.2921 -0.00318,-0.13335 -0.022225,-0.2413 -0.01905,-0.10795 -0.0635,-0.20002 -0.04445,-0.0921 -0.127,-0.17463 -0.117475,-0.11747 -0.2667,-0.1778 -0.1492249,-0.0635 -0.3301999,-0.0635 -0.180975,0 -0.3302,0.0635 -0.14605,0.0603 -0.263525,0.1778 -0.08255,0.0825 -0.127,0.17463 -0.04445,0.0921 -0.066675,0.20002 -0.01905,0.10795 -0.022225,0.2413 -0.00317,0.13018 -0.00317,0.2921 0,0.16193 0.00317,0.29528 0.00318,0.13017 0.022225,0.23812 0.022225,0.10795 0.066675,0.20003 0.04445,0.0921 0.127,0.17462 0.117475,0.11748 0.263525,0.18098 0.149225,0.0603 0.3302,0.0603 0.180975,0 0.3301999,-0.0603 0.149225,-0.0635 0.2667,-0.18098 0.08255,-0.0826 0.127,-0.17462 0.04445,-0.0921 0.0635,-0.20003 0.01905,-0.10795 0.022225,-0.23812 0.00317,-0.13335 0.00317,-0.29528 z m -0.3429,0 q 0,0.17145 -0.00635,0.28575 -0.00318,0.11113 -0.01905,0.1905 -0.0127,0.0762 -0.041275,0.13018 -0.0254,0.0508 -0.066675,0.0953 -0.060325,0.0635 -0.1492249,0.1016 -0.085725,0.0381 -0.187325,0.0381 -0.1016,0 -0.1905,-0.0381 -0.085725,-0.0381 -0.14605,-0.1016 -0.041275,-0.0445 -0.06985,-0.0953 -0.0254,-0.054 -0.041275,-0.13018 -0.0127,-0.0794 -0.01905,-0.1905 -0.00317,-0.1143 -0.00317,-0.28575 0,-0.17145 0.00317,-0.28257 0.00635,-0.1143 0.01905,-0.1905 0.015875,-0.0794 0.041275,-0.13018 0.028575,-0.054 0.06985,-0.0984 0.060325,-0.0635 0.14605,-0.1016 0.0889,-0.0381 0.1905,-0.0381 0.1016,0 0.187325,0.0381 0.0889,0.0381 0.1492249,0.1016 0.041275,0.0445 0.066675,0.0984 0.028575,0.0508 0.041275,0.13018 0.015875,0.0762 0.01905,0.1905 0.00635,0.11112 0.00635,0.28257 z"
         style="font-size:3.17499995px;stroke:none;stroke-width:1"
         id="path948"
         inkscape:connector-curvature="0" />
      <path
         d="m 9.648827,275.95995 v -1.4986 h -0.3429 v 1.48273 q 0,0.2286 -0.130175,0.35877 -0.127,0.13018 -0.339725,0.13018 -0.212725,0 -0.339725,-0.13018 -0.127,-0.13017 -0.127,-0.35877 v -1.48273 h -0.3429 v 1.4986 q 0,0.17463 0.060325,0.32068 0.0635,0.14287 0.17145,0.24447 0.10795,0.1016 0.257175,0.15875 0.149225,0.0571 0.320675,0.0571 0.17145,0 0.320675,-0.0571 0.149225,-0.0571 0.257175,-0.15875 0.111125,-0.1016 0.17145,-0.24447 0.0635,-0.14605 0.0635,-0.32068 z"
         style="font-size:3.17499995px;stroke:none;stroke-width:1"
         id="path950"
         inkscape:connector-curvature="0" />
      <path
         d="m 11.591924,274.76933 v -0.30798 h -1.5875 v 0.30798 h 0.6223 v 1.95262 h 0.3429 v -1.95262 z"
         style="font-size:3.17499995px;stroke:none;stroke-width:1"
         id="path952"
         inkscape:connector-curvature="0" />
      <path
         d="m 14.392272,276.72195 -0.5207,-1.00012 q 0.1905,-0.054 0.320675,-0.2032 0.130175,-0.1524 0.130175,-0.39688 0,-0.14287 -0.0508,-0.26352 -0.04763,-0.12383 -0.1397,-0.20955 -0.09207,-0.0889 -0.22225,-0.13653 -0.127,-0.0508 -0.288925,-0.0508 h -0.8763 v 2.2606 h 0.3429 v -0.9525 h 0.428625 l 0.47625,0.9525 z m -0.41275,-1.59702 q 0,0.16827 -0.10795,0.26035 -0.104775,0.0921 -0.276225,0.0921 h -0.508 v -0.70802 h 0.508 q 0.17145,0 0.276225,0.0952 0.10795,0.0921 0.10795,0.26035 z"
         style="font-size:3.17499995px;stroke:none;stroke-width:1"
         id="path954"
         inkscape:connector-curvature="0" />
    </g>
    <g
       aria-label="MIDI"
       style="font-style:normal;font-variant:normal;font-weight:normal;font-stretch:normal;font-size:4.23333311px;line-height:1.25;font-family:DIN;-inkscape-font-specification:DIN;text-align:center;letter-spacing:0px;word-spacing:0px;text-anchor:middle;fill:#f4da98;fill-opacity:1;stroke:none;stroke-width:0.26458332"
       id="text931">
      <path
         d="m 8.8370925,177 v -3.01413 h -0.4572 l -0.8635999,1.87536 -0.8805333,-1.87536 h -0.4572 V 177 h 0.4572 v -2.01507 l 0.7112,1.46897 h 0.3386666 l 0.6942666,-1.46897 V 177 Z"
         style="fill:#f4da98;fill-opacity:1;stroke-width:0.26458332"
         id="path911" />
      <path
         d="m 10.077458,177 v -3.01413 H 9.6202579 V 177 Z"
         style="fill:#f4da98;fill-opacity:1;stroke-width:0.26458332"
         id="path913" />
      <path
         d="m 13.006919,175.47177 q 0,-0.1651 -0.0042,-0.32597 0,-0.16087 -0.0254,-0.31327 -0.0254,-0.15663 -0.0889,-0.29633 -0.0635,-0.14393 -0.186267,-0.2667 -0.143933,-0.14393 -0.3429,-0.21167 -0.198967,-0.072 -0.436033,-0.072 H 10.864852 V 177 h 1.058334 q 0.237066,0 0.436033,-0.0677 0.198967,-0.072 0.3429,-0.2159 0.122767,-0.12277 0.186267,-0.27094 0.0635,-0.14816 0.0889,-0.30903 0.0254,-0.16087 0.0254,-0.3302 0.0042,-0.16933 0.0042,-0.33443 z m -0.4572,0 q 0,0.31326 -0.02117,0.55033 -0.02117,0.23283 -0.1397,0.36407 -0.186266,0.2032 -0.512233,0.2032 h -0.554567 v -2.19287 h 0.554567 q 0.325967,0 0.512233,0.2032 0.118534,0.13123 0.1397,0.34713 0.02117,0.21167 0.02117,0.52494 z"
         style="fill:#f4da98;fill-opacity:1;stroke-width:0.26458332"
         id="path915" />
      <path
         d="m 14.141446,177 v -3.01413 h -0.4572 V 177 Z"
         style="fill:#f4da98;fill-opacity:1;stroke-width:0.26458332"
         id="path917" />
    </g>
    <g
       aria-label="Channel"
       style="font-style:normal;font-variant:normal;font-weight:normal;font-stretch:normal;font-size:4.23333311px;line-height:1.25;font-family:DIN;-inkscape-font-specification:DIN;text-align:center;letter-spacing:0px;word-spacing:0px;text-anchor:middle;fill:#f4da98;fill-opacity:1;stroke:none;stroke-width:0.26458332"
       id="text940">
      <path
         d="M 4.7498142,179.80249 H 4.2883809 q -0.055033,0.2286 -0.2074334,0.37254 -0.1523999,0.14393 -0.4063999,0.14393 -0.1354667,0 -0.2497667,-0.0466 -0.1143,-0.0508 -0.1947333,-0.13546 -0.055033,-0.0593 -0.093133,-0.127 -0.033867,-0.072 -0.055033,-0.17357 -0.016933,-0.10583 -0.0254,-0.25823 -0.00847,-0.1524 -0.00847,-0.381 0,-0.2286 0.00847,-0.381 0.00847,-0.1524 0.0254,-0.254 0.021167,-0.10584 0.055033,-0.17357 0.0381,-0.072 0.093133,-0.13123 0.080433,-0.0847 0.1947333,-0.13124 0.1143,-0.0508 0.2497667,-0.0508 0.254,0 0.4021666,0.14394 0.1524,0.14393 0.2074333,0.37253 h 0.4656667 q -0.080433,-0.45297 -0.3683,-0.69003 -0.2878667,-0.23707 -0.7069666,-0.23707 -0.2370667,0 -0.4360333,0.0847 -0.1989667,0.0804 -0.3556,0.23706 -0.1100667,0.11007 -0.1693333,0.23284 -0.059267,0.12276 -0.0889,0.2667 -0.0254,0.14393 -0.029633,0.32173 -0.00423,0.17357 -0.00423,0.38947 0,0.2159 0.00423,0.3937 0.00423,0.17356 0.029633,0.3175 0.029633,0.14393 0.0889,0.2667 0.059267,0.12276 0.1693333,0.23283 0.1566333,0.15663 0.3556,0.2413 0.1989666,0.0804 0.4360333,0.0804 0.2032,0 0.381,-0.0593 0.1820333,-0.0593 0.3217333,-0.1778 0.1439333,-0.11854 0.2370666,-0.2921 0.097367,-0.17357 0.1354667,-0.39794 z"
         style="fill:#f4da98;fill-opacity:1;stroke-width:0.26458332"
         id="path896" />
      <path
         d="m 7.0400404,180.70419 v -1.3843 q 0,-0.17356 -0.0508,-0.3175 -0.046567,-0.14816 -0.1439333,-0.24976 -0.093133,-0.10584 -0.2328334,-0.16087 -0.1397,-0.0593 -0.3174999,-0.0593 -0.1608667,0 -0.3048,0.0593 -0.1397,0.0593 -0.2497667,0.18203 v -1.08373 h -0.4318 v 3.01413 h 0.4318 v -1.31656 q 0,-0.2413 0.127,-0.3556 0.127,-0.1143 0.3090333,-0.1143 0.1820334,0 0.3048,0.1143 0.127,0.11006 0.127,0.3556 v 1.31656 z"
         style="fill:#f4da98;fill-opacity:1;stroke-width:0.26458332"
         id="path898" />
      <path
         d="m 9.2837068,180.70419 v -1.4351 q 0,-0.7366 -0.8847666,-0.7366 -0.2667,0 -0.4445,0.0677 -0.1735666,0.0635 -0.3259666,0.2413 l 0.2836333,0.2667 q 0.0889,-0.1143 0.1905,-0.16087 0.1016,-0.0466 0.2794,-0.0466 0.254,0 0.3598333,0.1016 0.1100666,0.0974 0.1100666,0.30057 v 0.1524 H 8.2846402 q -0.3725333,0 -0.5588,0.17357 -0.1820333,0.17356 -0.1820333,0.4445 0,0.28363 0.1693333,0.46143 0.097367,0.0974 0.2328334,0.14817 0.1396999,0.0466 0.3428999,0.0466 0.1989667,0 0.3259667,-0.0508 0.127,-0.0508 0.2455333,-0.16933 v 0.19473 z m -0.4318,-0.7747 q 0,0.22437 -0.093133,0.3175 -0.084667,0.0847 -0.1820333,0.10584 -0.097367,0.0169 -0.2201333,0.0169 -0.2032,0 -0.3005667,-0.0762 -0.093133,-0.0804 -0.093133,-0.2286 0,-0.14817 0.097367,-0.2286 0.097367,-0.0804 0.2878667,-0.0804 h 0.5037666 z"
         style="fill:#f4da98;fill-opacity:1;stroke-width:0.26458332"
         id="path900" />
      <path
         d="m 11.688235,180.70419 v -1.3716 q 0,-0.18203 -0.04657,-0.3302 -0.04657,-0.1524 -0.169333,-0.27516 -0.09737,-0.0931 -0.232833,-0.14394 -0.131234,-0.0508 -0.296334,-0.0508 -0.160866,0 -0.313266,0.0593 -0.148167,0.0593 -0.258234,0.18203 v -0.2159 H 9.948335 v 2.1463 h 0.4318 v -1.3081 q 0,-0.24553 0.131233,-0.35983 0.131234,-0.11853 0.313267,-0.11853 0.182033,0 0.3048,0.1143 0.127,0.1143 0.127,0.36406 v 1.3081 z"
         style="fill:#f4da98;fill-opacity:1;stroke-width:0.26458332"
         id="path902" />
      <path
         d="m 14.092763,180.70419 v -1.3716 q 0,-0.18203 -0.04657,-0.3302 -0.04657,-0.1524 -0.169333,-0.27516 -0.09737,-0.0931 -0.232834,-0.14394 -0.131233,-0.0508 -0.296333,-0.0508 -0.160867,0 -0.313267,0.0593 -0.148166,0.0593 -0.258233,0.18203 v -0.2159 h -0.423333 v 2.1463 h 0.4318 v -1.3081 q 0,-0.24553 0.131233,-0.35983 0.131233,-0.11853 0.313267,-0.11853 0.182033,0 0.3048,0.1143 0.127,0.1143 0.127,0.36406 v 1.3081 z"
         style="fill:#f4da98;fill-opacity:1;stroke-width:0.26458332"
         id="path904" />
      <path
         d="m 16.467659,179.75593 v -0.1905 q 0,-0.2286 -0.0635,-0.4191 -0.05927,-0.1905 -0.1778,-0.32597 -0.1143,-0.13547 -0.283634,-0.21167 -0.169333,-0.0762 -0.385233,-0.0762 -0.414866,0 -0.664633,0.28787 -0.245533,0.28363 -0.245533,0.80857 0,0.3048 0.0762,0.51646 0.0762,0.21167 0.2032,0.3429 0.131233,0.127 0.3048,0.18627 0.1778,0.055 0.380999,0.055 0.1397,0 0.249767,-0.0212 0.1143,-0.0212 0.207433,-0.0635 0.09737,-0.0423 0.1778,-0.1016 0.08467,-0.0635 0.169334,-0.14817 l -0.275167,-0.25823 q -0.1143,0.1143 -0.2286,0.16933 -0.110067,0.0508 -0.2921,0.0508 -0.2667,0 -0.4064,-0.16087 -0.1397,-0.16086 -0.1397,-0.44026 z m -0.427567,-0.30057 h -0.9652 q 0.0042,-0.0974 0.0127,-0.15663 0.0085,-0.0635 0.04233,-0.13547 0.0508,-0.12277 0.160866,-0.19473 0.1143,-0.0762 0.2667,-0.0762 0.1524,0 0.262467,0.0762 0.110066,0.072 0.160866,0.19473 0.03387,0.072 0.04233,0.13547 0.0127,0.0593 0.01693,0.15663 z"
         style="fill:#f4da98;fill-opacity:1;stroke-width:0.26458332"
         id="path906" />
      <path
         d="m 17.88159,180.70419 v -0.3683 h -0.1905 q -0.131234,0 -0.182034,-0.0635 -0.0508,-0.0635 -0.0508,-0.18626 v -2.39607 h -0.4318 v 2.42147 q 0,0.11853 0.03387,0.2286 0.03387,0.10583 0.105833,0.18626 0.07197,0.0804 0.182034,0.13124 0.1143,0.0466 0.2667,0.0466 z"
         style="fill:#f4da98;fill-opacity:1;stroke-width:0.26458332"
         id="path908" />
    </g>
    <flowRoot
       xml:space="preserve"
       id="flowRoot942"
       style="fill:black;fill-opacity:1;stroke:none;font-family:DIN;font-style:normal;font-weight:normal;font-size:16px;line-height:1.25;letter-spacing:0px;word-spacing:0px;-inkscape-font-specification:DIN;font-stretch:normal;font-variant:normal;text-anchor:middle;text-align:center"><flowRegion
         id="flowRegion944"><rect
           id="rect946"
           width="265.71429"
           height="137.14285"
           x="-310.71429"
           y="14.240718" /></flowRegion><flowPara
         id="flowPara948" /></flowRoot>    <g
       transform="matrix(0.35277777,0,0,-0.35277777,11.163339,292.38842)"
       id="g3796"
       style="display:inline;fill:#f4da98;fill-opacity:1;stroke:none">
      <path
         inkscape:connector-curvature="0"
         id="path3798"
         style="fill:#f4da98;fill-opacity:1;fill-rule:nonzero;stroke:none"
         d="M 0,0 C 0,1.873 0.16,3.703 0.479,5.492 -1.353,5.898 -2.27,6.65 -2.27,7.76 c 0,0.873 0.492,1.306 1.47,1.306 0.513,0 1.141,-0.242 1.885,-0.734 1.445,5.092 3.802,9.383 7.06,12.887 -0.702,0.105 -1.413,0.178 -2.143,0.178 -7.952,0 -14.399,-6.448 -14.399,-14.401 0,-6.057 3.745,-11.232 9.043,-13.357 C 0.223,-4.273 0,-2.152 0,0" />
    </g>
    <g
       transform="matrix(0.35277777,0,0,-0.35277777,11.997021,289.76397)"
       id="g3800"
       style="display:inline;fill:#f4da98;fill-opacity:1;stroke:none">
      <path
         inkscape:connector-curvature="0"
         id="path3802"
         style="fill:#f4da98;fill-opacity:1;fill-rule:nonzero;stroke:none"
         d="m 0,0 c 0.275,-0.191 0.487,-0.359 0.638,-0.51 1.575,0.362 3.15,1.287 4.725,2.778 1.319,1.279 2.448,2.757 3.385,4.439 1.193,2.109 1.756,3.885 1.693,5.332 h 0.357 C 9.394,12.846 7.845,13.422 6.194,13.717 L 7.025,12.936 C 3.638,9.379 1.297,5.068 0,0" />
    </g>
    <g
       transform="matrix(0.35277777,0,0,-0.35277777,16.191446,285.76075)"
       id="g3804"
       style="display:inline;fill:#f4da98;fill-opacity:1;stroke:none">
      <path
         inkscape:connector-curvature="0"
         id="path3806"
         style="fill:#f4da98;fill-opacity:1;fill-rule:nonzero;stroke:none"
         d="m 0,0 c -0.115,-1.566 -0.734,-3.357 -1.863,-5.375 -0.96,-1.703 -2.098,-3.213 -3.416,-4.535 -1.535,-1.488 -3.111,-2.524 -4.726,-3.098 2.51,-2.765 3.947,-5.92 4.31,-9.451 0.934,0.619 1.937,1.172 3,1.66 l 0.606,-1.342 c -1.765,-0.808 -3.393,-1.837 -4.885,-3.093 l -0.956,1.119 0.828,0.666 c -0.147,3.98 -1.681,7.322 -4.597,10.025 l -0.638,-0.031 c -0.3,-1.787 -0.45,-3.567 -0.45,-5.332 0,-2.432 0.27,-4.731 0.798,-6.895 1.194,-0.322 2.443,-0.508 3.738,-0.508 7.953,0 14.4,6.446 14.4,14.399 C 6.149,-6.91 3.715,-2.604 0,0" />
    </g>
  </g>
</svg>
