<?xml version="1.0" encoding="UTF-8" standalone="no"?>
<!-- Created with Inkscape (http://www.inkscape.org/) -->

<svg
   xmlns:dc="http://purl.org/dc/elements/1.1/"
   xmlns:cc="http://creativecommons.org/ns#"
   xmlns:rdf="http://www.w3.org/1999/02/22-rdf-syntax-ns#"
   xmlns:svg="http://www.w3.org/2000/svg"
   xmlns="http://www.w3.org/2000/svg"
   xmlns:xlink="http://www.w3.org/1999/xlink"
   xmlns:sodipodi="http://sodipodi.sourceforge.net/DTD/sodipodi-0.dtd"
   xmlns:inkscape="http://www.inkscape.org/namespaces/inkscape"
   width="20.32mm"
   height="128.5mm"
   viewBox="0 0 20.32 128.5"
   version="1.1"
   id="svg1141"
   inkscape:version="0.92.5 (2060ec1f9f, 2020-04-08)"
   sodipodi:docname="MIDI_Mapper.svg">
  <defs
     id="defs1135">
    <linearGradient
       inkscape:collect="always"
       xlink:href="#linearGradient1109"
       id="linearGradient4954"
       gradientUnits="userSpaceOnUse"
       x1="110.74702"
       y1="130.87947"
       x2="111.50298"
       y2="242.57143"
       gradientTransform="matrix(0.44393752,0,0,0.99973639,-37.472257,-125.49796)" />
    <linearGradient
       inkscape:collect="always"
       id="linearGradient1109">
      <stop
         style="stop-color:#333131;stop-opacity:1"
         offset="0"
         id="stop1105" />
      <stop
         style="stop-color:#292727;stop-opacity:1"
         offset="1"
         id="stop1107" />
    </linearGradient>
    <clipPath
       id="clipPath913"
       clipPathUnits="userSpaceOnUse">
      <path
         inkscape:connector-curvature="0"
         id="path911-3"
         d="M 0,472.252 H 165.6 V 0 H 0 Z" />
    </clipPath>
  </defs>
  <sodipodi:namedview
     id="base"
     pagecolor="#ffffff"
     bordercolor="#666666"
     borderopacity="1.0"
     inkscape:pageopacity="0.0"
     inkscape:pageshadow="2"
     inkscape:zoom="1.4"
     inkscape:cx="-77.783462"
     inkscape:cy="143.45127"
     inkscape:document-units="mm"
     inkscape:current-layer="layer1"
     showgrid="false"
     showguides="true"
     inkscape:guide-bbox="true"
     inkscape:snap-bbox="true"
     inkscape:snap-bbox-midpoints="true"
     inkscape:snap-text-baseline="true"
     inkscape:window-width="1920"
     inkscape:window-height="1033"
     inkscape:window-x="0"
     inkscape:window-y="0"
     inkscape:window-maximized="1">
    <sodipodi:guide
       position="-15.501632,120"
       orientation="0,1"
       id="guide1714"
       inkscape:locked="false"
       inkscape:label=""
       inkscape:color="rgb(0,0,255)" />
    <sodipodi:guide
       position="-16.303441,20"
       orientation="0,1"
       id="guide1716"
       inkscape:locked="false"
       inkscape:label=""
       inkscape:color="rgb(0,0,255)" />
    <sodipodi:guide
       position="10.16,80.319942"
       orientation="1,0"
       id="guide1749"
       inkscape:locked="false"
       inkscape:label=""
       inkscape:color="rgb(0,0,255)" />
    <sodipodi:guide
       position="-22.584275,108"
       orientation="0,1"
       id="guide1784"
       inkscape:locked="false"
       inkscape:label=""
       inkscape:color="rgb(0,0,255)" />
    <sodipodi:guide
       position="-13.630745,95.999999"
       orientation="0,1"
       id="guide1810"
       inkscape:locked="false"
       inkscape:label=""
       inkscape:color="rgb(0,0,255)" />
    <sodipodi:guide
       position="-28.330569,84.000002"
       orientation="0,1"
       id="guide1812"
       inkscape:locked="false"
       inkscape:label=""
       inkscape:color="rgb(0,0,255)" />
    <sodipodi:guide
       position="-15.902536,72.000005"
       orientation="0,1"
       id="guide1838"
       inkscape:locked="false"
       inkscape:label=""
       inkscape:color="rgb(0,0,255)" />
    <sodipodi:guide
       position="-15.902536,60.000007"
       orientation="0,1"
       id="guide1875"
       inkscape:locked="false"
       inkscape:label=""
       inkscape:color="rgb(0,0,255)" />
    <sodipodi:guide
       position="-12.561667,48.000009"
       orientation="0,1"
       id="guide1877"
       inkscape:locked="false"
       inkscape:label=""
       inkscape:color="rgb(0,0,255)" />
    <sodipodi:guide
       position="-20.847022,34"
       orientation="0,1"
       id="guide1903"
       inkscape:locked="false"
       inkscape:label=""
       inkscape:color="rgb(0,0,255)" />
  </sodipodi:namedview>
  <metadata
     id="metadata1138">
    <rdf:RDF>
      <cc:Work
         rdf:about="">
        <dc:format>image/svg+xml</dc:format>
        <dc:type
           rdf:resource="http://purl.org/dc/dcmitype/StillImage" />
        <dc:title />
      </cc:Work>
    </rdf:RDF>
  </metadata>
  <g
     inkscape:groupmode="layer"
     id="layer4"
     inkscape:label="BG"
     style="display:inline">
    <path
       inkscape:connector-curvature="0"
       id="path1099"
       d="M 5e-7,-6.6e-6 H 20.320001 V 128.5 H 5e-7 Z"
       style="display:inline;fill:url(#linearGradient4954);fill-opacity:1;stroke:#6e6e6e;stroke-width:0;stroke-miterlimit:4;stroke-dasharray:none;stroke-opacity:1" />
  </g>
  <g
     inkscape:label="Layer 1"
     inkscape:groupmode="layer"
     id="layer1"
     transform="translate(0,-168.5)">
    <g
       aria-label="1"
       style="font-style:normal;font-variant:normal;font-weight:normal;font-stretch:normal;font-size:2.82222223px;line-height:100%;font-family:DIN;-inkscape-font-specification:DIN;text-align:center;letter-spacing:0px;word-spacing:0px;writing-mode:lr-tb;text-anchor:middle;fill:#f4da98;fill-opacity:1;stroke:none;stroke-width:0.26458332px;stroke-linecap:butt;stroke-linejoin:miter;stroke-opacity:1"
       id="text877">
      <path
         d="m 4.1500771,184.18388 v -2.00942 H 3.8622105 l -0.3922889,0.33867 v 0.31891 l 0.3922889,-0.34431 v 1.69615 z"
         style="fill:#f4da98;fill-opacity:1;stroke-width:0.26458332px"
         id="path914"
         inkscape:connector-curvature="0" />
    </g>
    <path
       style="display:inline;fill:#f4da98;fill-opacity:1;stroke:#000000;stroke-width:0;stroke-miterlimit:4;stroke-dasharray:none;stroke-opacity:0"
       inkscape:transform-center-x="7.4234112"
       inkscape:transform-center-y="5.2919366"
       d="M 15.66,277 A 5.5000004,5.5000004 0 0 1 10.159999,282.5 5.5000004,5.5000004 0 0 1 4.6599995,277 5.5000004,5.5000004 0 0 1 10.159999,271.5 5.5000004,5.5000004 0 0 1 15.66,277 Z"
       id="path4964"
       inkscape:connector-curvature="0" />
    <rect
       style="display:inline;opacity:1;fill:#000000;fill-opacity:1;stroke:#000000;stroke-width:0.2;stroke-linecap:butt;stroke-linejoin:miter;stroke-miterlimit:4;stroke-dasharray:none;stroke-opacity:1"
       id="rect1627"
       width="15.929257"
       height="7.9292574"
       x="2.1953714"
       y="185.03537"
       rx="1"
       ry="1" />
    <g
       aria-label="2"
       style="font-style:normal;font-variant:normal;font-weight:normal;font-stretch:normal;font-size:2.82222223px;line-height:100%;font-family:DIN;-inkscape-font-specification:DIN;text-align:center;letter-spacing:0px;word-spacing:0px;writing-mode:lr-tb;text-anchor:middle;fill:#f4da98;fill-opacity:1;stroke:none;stroke-width:0.26458332px;stroke-linecap:butt;stroke-linejoin:miter;stroke-opacity:1"
       id="text881">
      <path
         d="m 4.3942,196.19235 v -0.25682 H 3.5757555 l 0.6293556,-0.77047 q 0.093133,-0.11289 0.1411111,-0.20602 0.047978,-0.0959 0.047978,-0.2286 0,-0.12982 -0.042333,-0.23424 -0.042333,-0.10443 -0.1185334,-0.1778 -0.0762,-0.0734 -0.1834444,-0.11289 -0.1072445,-0.0395 -0.2370667,-0.0395 -0.127,0 -0.2342444,0.0423 -0.1072445,0.0395 -0.1862667,0.11289 -0.0762,0.0734 -0.1213556,0.18062 -0.042333,0.10442 -0.042333,0.23142 h 0.2878667 q 0,-0.0847 0.0254,-0.14393 0.0254,-0.0593 0.064911,-0.096 0.042333,-0.0367 0.095956,-0.0536 0.053622,-0.0169 0.1100667,-0.0169 0.1411111,0 0.2173111,0.0847 0.0762,0.0847 0.0762,0.22013 0,0.0762 -0.0254,0.13829 -0.0254,0.0593 -0.081844,0.12982 L 3.2258,195.93553 v 0.25682 z"
         style="fill:#f4da98;fill-opacity:1;stroke-width:0.26458332px"
         id="path911"
         inkscape:connector-curvature="0" />
    </g>
    <g
       aria-label="3"
       style="font-style:normal;font-variant:normal;font-weight:normal;font-stretch:normal;font-size:2.82222223px;line-height:100%;font-family:DIN;-inkscape-font-specification:DIN;text-align:center;letter-spacing:0px;word-spacing:0px;writing-mode:lr-tb;text-anchor:middle;fill:#f4da98;fill-opacity:1;stroke:none;stroke-width:0.26458332px;stroke-linecap:butt;stroke-linejoin:miter;stroke-opacity:1"
       id="text885">
      <path
         d="m 4.4252443,207.61944 q 0,-0.18627 -0.0762,-0.30198 -0.0762,-0.11571 -0.2060222,-0.17215 0.1185333,-0.0564 0.1834444,-0.16087 0.067733,-0.10725 0.067733,-0.26811 0,-0.12418 -0.045155,-0.22578 -0.042333,-0.10442 -0.1213556,-0.1778 -0.0762,-0.0762 -0.1834444,-0.11571 Q 3.937,206.15474 3.81,206.15474 q -0.1213555,0 -0.2257777,0.0395 -0.1044223,0.0367 -0.1834445,0.10724 -0.079022,0.0706 -0.127,0.17216 -0.047978,0.1016 -0.053622,0.2286 h 0.2878667 q 0.011289,-0.13547 0.090311,-0.21167 0.079022,-0.0762 0.2116666,-0.0762 0.1241778,0 0.2088445,0.079 0.087489,0.079 0.087489,0.23142 0,0.13829 -0.073378,0.22296 -0.073378,0.0818 -0.2314222,0.0818 h -0.047978 v 0.25118 h 0.047978 q 0.1693333,0 0.2511778,0.0903 0.084667,0.0875 0.084667,0.23989 0,0.16087 -0.093133,0.24836 -0.093133,0.0847 -0.2342445,0.0847 -0.062089,0 -0.1213555,-0.0169 -0.056445,-0.0169 -0.1016,-0.0536 -0.042333,-0.0395 -0.073378,-0.096 -0.028222,-0.0564 -0.031044,-0.13829 H 3.1947554 q 0.00282,0.14676 0.053622,0.254 0.053622,0.10725 0.1382889,0.1778 0.084667,0.0677 0.1919111,0.1016 0.1100667,0.031 0.2314222,0.031 0.127,0 0.2370667,-0.0367 0.1128889,-0.0367 0.1947333,-0.11007 0.084667,-0.0734 0.1326445,-0.18344 0.0508,-0.11007 0.0508,-0.254 z"
         style="fill:#f4da98;fill-opacity:1;stroke-width:0.26458332px"
         id="path908"
         inkscape:connector-curvature="0" />
    </g>
    <g
       aria-label="4"
       style="font-style:normal;font-variant:normal;font-weight:normal;font-stretch:normal;font-size:2.82222223px;line-height:100%;font-family:DIN;-inkscape-font-specification:DIN;text-align:center;letter-spacing:0px;word-spacing:0px;writing-mode:lr-tb;text-anchor:middle;fill:#f4da98;fill-opacity:1;stroke:none;stroke-width:0.26458332px;stroke-linecap:butt;stroke-linejoin:miter;stroke-opacity:1"
       id="text889">
      <path
         d="m 4.4633439,219.88191 v -0.26812 H 4.248855 v -0.46848 h -0.2794 v 0.46848 H 3.4699216 l 0.7055556,-1.43933 H 3.8650327 l -0.7083777,1.43933 v 0.26812 h 0.8128 v 0.30197 h 0.2794 v -0.30197 z"
         style="fill:#f4da98;fill-opacity:1;stroke-width:0.26458332px"
         id="path905"
         inkscape:connector-curvature="0" />
    </g>
    <g
       aria-label="5"
       style="font-style:normal;font-variant:normal;font-weight:normal;font-stretch:normal;font-size:2.82222223px;line-height:100%;font-family:DIN;-inkscape-font-specification:DIN;text-align:center;letter-spacing:0px;word-spacing:0px;writing-mode:lr-tb;text-anchor:middle;fill:#f4da98;fill-opacity:1;stroke:none;stroke-width:0.26458332px;stroke-linecap:butt;stroke-linejoin:miter;stroke-opacity:1"
       id="text893">
      <path
         d="m 4.3970216,231.50231 q 0,-0.0706 -0.00564,-0.14111 -0.00564,-0.0734 -0.0254,-0.14112 -0.016933,-0.0677 -0.053622,-0.13264 -0.033867,-0.0649 -0.090311,-0.12136 -0.062089,-0.0621 -0.1524,-0.096 -0.090311,-0.0339 -0.2088445,-0.0339 -0.1100666,0 -0.1975555,0.031 -0.084667,0.031 -0.1354667,0.0847 V 230.4214 H 4.351866 v -0.25683 H 3.2681327 v 1.09785 h 0.2624666 q 0.022578,-0.0734 0.090311,-0.127 0.070556,-0.0536 0.1947334,-0.0536 0.087489,0 0.1439333,0.0339 0.056445,0.0311 0.090311,0.0875 0.033867,0.0565 0.045156,0.13265 0.014111,0.0762 0.014111,0.16651 0,0.1016 -0.016933,0.19473 -0.014111,0.0931 -0.079022,0.15804 -0.079022,0.079 -0.2088444,0.079 -0.1354667,0 -0.2060222,-0.0706 -0.070556,-0.0734 -0.087489,-0.20884 H 3.2229771 q 0.00847,0.10724 0.039511,0.20602 0.031045,0.096 0.1128889,0.1778 0.064911,0.0649 0.1749778,0.11007 0.1100667,0.0452 0.254,0.0452 0.1467555,0 0.2511778,-0.0452 0.1044222,-0.0452 0.1721555,-0.11289 0.1100667,-0.11007 0.1382889,-0.23989 0.031045,-0.13265 0.031045,-0.29351 z"
         style="fill:#f4da98;fill-opacity:1;stroke-width:0.26458332px"
         id="path902"
         inkscape:connector-curvature="0" />
    </g>
    <g
       aria-label="6"
       style="font-style:normal;font-variant:normal;font-weight:normal;font-stretch:normal;font-size:2.82222223px;line-height:100%;font-family:DIN;-inkscape-font-specification:DIN;text-align:center;letter-spacing:0px;word-spacing:0px;writing-mode:lr-tb;text-anchor:middle;fill:#f4da98;fill-opacity:1;stroke:#000000;stroke-width:0.26458332px;stroke-linecap:butt;stroke-linejoin:miter;stroke-opacity:0"
       id="text897">
      <path
         d="m 4.4040772,243.57991 q 0,-0.13264 -0.042333,-0.23989 -0.039511,-0.10724 -0.1128889,-0.18344 -0.070556,-0.0762 -0.1665111,-0.11571 -0.095956,-0.0423 -0.2060223,-0.0423 -0.047978,0 -0.093133,0.008 -0.045156,0.006 -0.084667,0.0226 l 0.4318,-0.8636 H 3.8226994 l -0.4572,0.93133 q -0.064911,0.13265 -0.1072444,0.25118 -0.042333,0.11853 -0.042333,0.24271 0,0.14111 0.042333,0.25118 0.045155,0.11006 0.1241777,0.18909 0.079022,0.079 0.1890889,0.12135 0.1100667,0.0395 0.2398889,0.0395 0.1298222,0 0.2370667,-0.0423 0.1100667,-0.0452 0.1890889,-0.12418 0.079022,-0.0818 0.1213555,-0.19473 0.045156,-0.11289 0.045156,-0.25118 z m -0.2878667,0.006 q 0,0.16086 -0.087489,0.25682 -0.084667,0.0931 -0.2201333,0.0931 -0.1354667,0 -0.2201333,-0.0931 -0.084667,-0.096 -0.084667,-0.25682 0,-0.16369 0.084667,-0.254 0.084667,-0.0931 0.2201333,-0.0931 0.1439333,0 0.2257778,0.0988 0.081844,0.0988 0.081844,0.24836 z"
         style="fill:#f4da98;fill-opacity:1;stroke:#000000;stroke-width:0.26458332px;stroke-opacity:0"
         id="path899"
         inkscape:connector-curvature="0" />
    </g>
    <rect
       style="display:inline;opacity:1;fill:#000000;fill-opacity:1;stroke:#000000;stroke-width:0.2;stroke-linecap:butt;stroke-linejoin:miter;stroke-miterlimit:4;stroke-dasharray:none;stroke-opacity:1"
       id="rect1627-5"
       width="15.929257"
       height="7.9292574"
       x="2.1953709"
       y="197.03537"
       rx="1"
       ry="1" />
    <rect
       style="display:inline;opacity:1;fill:#000000;fill-opacity:1;stroke:#000000;stroke-width:0.2;stroke-linecap:butt;stroke-linejoin:miter;stroke-miterlimit:4;stroke-dasharray:none;stroke-opacity:1"
       id="rect1627-9"
       width="15.929257"
       height="7.9292574"
       x="2.1953709"
       y="209.03537"
       rx="1"
       ry="1" />
    <rect
       style="display:inline;opacity:1;fill:#000000;fill-opacity:1;stroke:#000000;stroke-width:0.2;stroke-linecap:butt;stroke-linejoin:miter;stroke-miterlimit:4;stroke-dasharray:none;stroke-opacity:1"
       id="rect1627-0"
       width="15.929257"
       height="7.9292574"
       x="2.1953709"
       y="221.03537"
       rx="1"
       ry="1" />
    <rect
       style="display:inline;opacity:1;fill:#000000;fill-opacity:1;stroke:#000000;stroke-width:0.2;stroke-linecap:butt;stroke-linejoin:miter;stroke-miterlimit:4;stroke-dasharray:none;stroke-opacity:1"
       id="rect1627-06"
       width="15.929257"
       height="7.9292574"
       x="2.1953709"
       y="233.03537"
       rx="1"
       ry="1" />
    <rect
       style="display:inline;opacity:1;fill:#000000;fill-opacity:1;stroke:#000000;stroke-width:0.2;stroke-linecap:butt;stroke-linejoin:miter;stroke-miterlimit:4;stroke-dasharray:none;stroke-opacity:1"
       id="rect1627-8"
       width="15.929257"
       height="7.9292574"
       x="2.1953709"
       y="245.03537"
       rx="1"
       ry="1" />
    <g
       aria-label="MIDI"
       style="font-style:normal;font-variant:normal;font-weight:normal;font-stretch:normal;font-size:4.23333311px;line-height:1.25;font-family:DIN;-inkscape-font-specification:DIN;text-align:center;letter-spacing:0px;word-spacing:0px;text-anchor:middle;fill:#f4da98;fill-opacity:1;stroke:none;stroke-width:0.26458332"
       id="text902">
      <path
         d="m 8.8370925,177 v -3.01413 h -0.4572 l -0.8635999,1.87536 -0.8805333,-1.87536 h -0.4572 V 177 h 0.4572 v -2.01507 l 0.7112,1.46897 h 0.3386666 l 0.6942666,-1.46897 V 177 Z"
         style="fill:#f4da98;fill-opacity:1;stroke-width:0.26458332"
         id="path926" />
      <path
         d="m 10.077458,177 v -3.01413 H 9.6202579 V 177 Z"
         style="fill:#f4da98;fill-opacity:1;stroke-width:0.26458332"
         id="path928" />
      <path
         d="m 13.006919,175.47177 q 0,-0.1651 -0.0042,-0.32597 0,-0.16087 -0.0254,-0.31327 -0.0254,-0.15663 -0.0889,-0.29633 -0.0635,-0.14393 -0.186267,-0.2667 -0.143933,-0.14393 -0.3429,-0.21167 -0.198967,-0.072 -0.436033,-0.072 H 10.864852 V 177 h 1.058334 q 0.237066,0 0.436033,-0.0677 0.198967,-0.072 0.3429,-0.2159 0.122767,-0.12277 0.186267,-0.27094 0.0635,-0.14816 0.0889,-0.30903 0.0254,-0.16087 0.0254,-0.3302 0.0042,-0.16933 0.0042,-0.33443 z m -0.4572,0 q 0,0.31326 -0.02117,0.55033 -0.02117,0.23283 -0.1397,0.36407 -0.186266,0.2032 -0.512233,0.2032 h -0.554567 v -2.19287 h 0.554567 q 0.325967,0 0.512233,0.2032 0.118534,0.13123 0.1397,0.34713 0.02117,0.21167 0.02117,0.52494 z"
         style="fill:#f4da98;fill-opacity:1;stroke-width:0.26458332"
         id="path930" />
      <path
         d="m 14.141446,177 v -3.01413 h -0.4572 V 177 Z"
         style="fill:#f4da98;fill-opacity:1;stroke-width:0.26458332"
         id="path932" />
    </g>
    <g
       aria-label="Mapper"
       style="font-style:normal;font-variant:normal;font-weight:normal;font-stretch:normal;font-size:4.23333311px;line-height:1.25;font-family:DIN;-inkscape-font-specification:DIN;text-align:center;letter-spacing:0px;word-spacing:0px;text-anchor:middle;fill:#f4da98;fill-opacity:1;stroke:none;stroke-width:0.26458332"
       id="text910">
      <path
         d="m 5.9584247,180.70419 v -3.01413 h -0.4572 l -0.8635999,1.87537 -0.8805333,-1.87537 h -0.4572 v 3.01413 h 0.4572 v -2.01506 l 0.7112,1.46896 h 0.3386666 l 0.6942666,-1.46896 v 2.01506 z"
         style="fill:#f4da98;fill-opacity:1;stroke-width:0.26458332"
         id="path912" />
      <path
         d="m 8.2698233,180.70419 v -1.4351 q 0,-0.7366 -0.8847666,-0.7366 -0.2667,0 -0.4445,0.0677 -0.1735666,0.0635 -0.3259666,0.2413 l 0.2836333,0.2667 q 0.0889,-0.1143 0.1905,-0.16087 0.1016,-0.0466 0.2794,-0.0466 0.254,0 0.3598333,0.1016 0.1100666,0.0974 0.1100666,0.30057 v 0.1524 H 7.2707567 q -0.3725333,0 -0.5588,0.17357 -0.1820333,0.17356 -0.1820333,0.4445 0,0.28363 0.1693333,0.46143 0.097367,0.0974 0.2328334,0.14817 0.1397,0.0466 0.3428999,0.0466 0.1989667,0 0.3259667,-0.0508 0.127,-0.0508 0.2455333,-0.16933 v 0.19473 z m -0.4318,-0.7747 q 0,0.22437 -0.093133,0.3175 -0.084667,0.0847 -0.1820333,0.10584 -0.097367,0.0169 -0.2201333,0.0169 -0.2032,0 -0.3005667,-0.0762 -0.093133,-0.0804 -0.093133,-0.2286 0,-0.14817 0.097367,-0.2286 0.097367,-0.0804 0.2878666,-0.0804 h 0.5037666 z"
         style="fill:#f4da98;fill-opacity:1;stroke-width:0.26458332"
         id="path915" />
      <path
         d="m 10.691285,179.62893 q 0,-0.12277 -0.0085,-0.24977 -0.0042,-0.127 -0.02963,-0.24553 -0.0254,-0.11854 -0.0762,-0.22437 -0.04657,-0.10583 -0.127,-0.18627 -0.0889,-0.0889 -0.2286,-0.1397 -0.135467,-0.0508 -0.2963336,-0.0508 -0.1778,0 -0.3132666,0.055 -0.1312334,0.0508 -0.254,0.19896 v -0.2286 H 8.9344515 v 3.01414 h 0.4318 v -1.08797 q 0.1185333,0.1397 0.2539999,0.19473 0.1354667,0.0508 0.3090334,0.0508 0.1608662,0 0.2963332,-0.0508 0.135467,-0.0508 0.224367,-0.1397 0.08043,-0.0804 0.127,-0.18626 0.0508,-0.10584 0.0762,-0.22437 0.0254,-0.12277 0.02963,-0.24977 0.0085,-0.127 0.0085,-0.24976 z m -0.4318,0 q 0,0.14393 -0.01693,0.27516 -0.0127,0.127 -0.05927,0.2286 -0.04657,0.0974 -0.135467,0.15664 -0.0889,0.055 -0.2328332,0.055 -0.1481667,0 -0.2370667,-0.055 -0.084667,-0.0593 -0.1354667,-0.15664 -0.046567,-0.1016 -0.0635,-0.2286 -0.0127,-0.13123 -0.0127,-0.27516 0,-0.14394 0.0127,-0.27094 0.016933,-0.13123 0.0635,-0.2286 0.0508,-0.0974 0.1354667,-0.1524 0.0889,-0.0593 0.2370667,-0.0593 0.1439333,0 0.2328332,0.0593 0.0889,0.055 0.135467,0.1524 0.04657,0.0974 0.05927,0.2286 0.01693,0.127 0.01693,0.27094 z"
         style="fill:#f4da98;fill-opacity:1;stroke-width:0.26458332"
         id="path917" />
      <path
         d="m 13.032316,179.62893 q 0,-0.12277 -0.0085,-0.24977 -0.0042,-0.127 -0.02963,-0.24553 -0.0254,-0.11854 -0.0762,-0.22437 -0.04657,-0.10583 -0.127,-0.18627 -0.0889,-0.0889 -0.2286,-0.1397 -0.135467,-0.0508 -0.296334,-0.0508 -0.177799,0 -0.313266,0.055 -0.131233,0.0508 -0.254,0.19896 v -0.2286 h -0.423333 v 3.01414 h 0.4318 v -1.08797 q 0.118533,0.1397 0.254,0.19473 0.135466,0.0508 0.309033,0.0508 0.160866,0 0.296333,-0.0508 0.135467,-0.0508 0.224367,-0.1397 0.08043,-0.0804 0.127,-0.18626 0.0508,-0.10584 0.0762,-0.22437 0.0254,-0.12277 0.02963,-0.24977 0.0085,-0.127 0.0085,-0.24976 z m -0.4318,0 q 0,0.14393 -0.01693,0.27516 -0.0127,0.127 -0.05927,0.2286 -0.04657,0.0974 -0.135467,0.15664 -0.0889,0.055 -0.232833,0.055 -0.148167,0 -0.237067,-0.055 -0.08467,-0.0593 -0.135466,-0.15664 -0.04657,-0.1016 -0.0635,-0.2286 -0.0127,-0.13123 -0.0127,-0.27516 0,-0.14394 0.0127,-0.27094 0.01693,-0.13123 0.0635,-0.2286 0.0508,-0.0974 0.135466,-0.1524 0.0889,-0.0593 0.237067,-0.0593 0.143933,0 0.232833,0.0593 0.0889,0.055 0.135467,0.1524 0.04657,0.0974 0.05927,0.2286 0.01693,0.127 0.01693,0.27094 z"
         style="fill:#f4da98;fill-opacity:1;stroke-width:0.26458332"
         id="path919" />
      <path
         d="m 15.32678,179.75593 v -0.1905 q 0,-0.2286 -0.0635,-0.4191 -0.05927,-0.1905 -0.1778,-0.32597 -0.1143,-0.13547 -0.283633,-0.21167 -0.169333,-0.0762 -0.385233,-0.0762 -0.414867,0 -0.664634,0.28787 -0.245533,0.28363 -0.245533,0.80857 0,0.3048 0.0762,0.51646 0.0762,0.21167 0.2032,0.3429 0.131233,0.127 0.3048,0.18627 0.1778,0.055 0.381,0.055 0.1397,0 0.249767,-0.0212 0.1143,-0.0212 0.207433,-0.0635 0.09737,-0.0423 0.1778,-0.1016 0.08467,-0.0635 0.169333,-0.14817 l -0.275166,-0.25823 q -0.1143,0.1143 -0.2286,0.16933 -0.110067,0.0508 -0.2921,0.0508 -0.2667,0 -0.4064,-0.16087 -0.1397,-0.16086 -0.1397,-0.44026 z m -0.427566,-0.30057 h -0.9652 q 0.0042,-0.0974 0.0127,-0.15663 0.0085,-0.0635 0.04233,-0.13547 0.0508,-0.12277 0.160867,-0.19473 0.1143,-0.0762 0.2667,-0.0762 0.1524,0 0.262466,0.0762 0.110067,0.072 0.160867,0.19473 0.03387,0.072 0.04233,0.13547 0.0127,0.0593 0.01693,0.15663 z"
         style="fill:#f4da98;fill-opacity:1;stroke-width:0.26458332"
         id="path921" />
      <path
         d="m 17.405345,178.73569 q -0.110066,-0.11006 -0.232833,-0.15663 -0.122767,-0.0466 -0.2794,-0.0466 -0.182033,0 -0.334433,0.072 -0.1524,0.072 -0.237067,0.18627 v -0.23284 h -0.423333 v 2.1463 h 0.4318 v -1.30386 q 0,-0.22437 0.122766,-0.35137 0.127,-0.13123 0.3048,-0.13123 0.110067,0 0.1778,0.0381 0.07197,0.0339 0.143934,0.10583 z"
         style="fill:#f4da98;fill-opacity:1;stroke-width:0.26458332"
         id="path923" />
    </g>
    <g
       transform="matrix(0.35277777,0,0,-0.35277777,11.31952,292.38842)"
       id="g3796"
       style="display:inline;fill:#f4da98;fill-opacity:1;stroke:none">
      <path
         inkscape:connector-curvature="0"
         id="path3798"
         style="fill:#f4da98;fill-opacity:1;fill-rule:nonzero;stroke:none"
         d="M 0,0 C 0,1.873 0.16,3.703 0.479,5.492 -1.353,5.898 -2.27,6.65 -2.27,7.76 c 0,0.873 0.492,1.306 1.47,1.306 0.513,0 1.141,-0.242 1.885,-0.734 1.445,5.092 3.802,9.383 7.06,12.887 -0.702,0.105 -1.413,0.178 -2.143,0.178 -7.952,0 -14.399,-6.448 -14.399,-14.401 0,-6.057 3.745,-11.232 9.043,-13.357 C 0.223,-4.273 0,-2.152 0,0" />
    </g>
    <g
       transform="matrix(0.35277777,0,0,-0.35277777,12.153202,289.76397)"
       id="g3800"
       style="display:inline;fill:#f4da98;fill-opacity:1;stroke:none">
      <path
         inkscape:connector-curvature="0"
         id="path3802"
         style="fill:#f4da98;fill-opacity:1;fill-rule:nonzero;stroke:none"
         d="m 0,0 c 0.275,-0.191 0.487,-0.359 0.638,-0.51 1.575,0.362 3.15,1.287 4.725,2.778 1.319,1.279 2.448,2.757 3.385,4.439 1.193,2.109 1.756,3.885 1.693,5.332 h 0.357 C 9.394,12.846 7.845,13.422 6.194,13.717 L 7.025,12.936 C 3.638,9.379 1.297,5.068 0,0" />
    </g>
    <g
       transform="matrix(0.35277777,0,0,-0.35277777,16.347631,285.76075)"
       id="g3804"
       style="display:inline;fill:#f4da98;fill-opacity:1;stroke:none">
      <path
         inkscape:connector-curvature="0"
         id="path3806"
         style="fill:#f4da98;fill-opacity:1;fill-rule:nonzero;stroke:none"
         d="m 0,0 c -0.115,-1.566 -0.734,-3.357 -1.863,-5.375 -0.96,-1.703 -2.098,-3.213 -3.416,-4.535 -1.535,-1.488 -3.111,-2.524 -4.726,-3.098 2.51,-2.765 3.947,-5.92 4.31,-9.451 0.934,0.619 1.937,1.172 3,1.66 l 0.606,-1.342 c -1.765,-0.808 -3.393,-1.837 -4.885,-3.093 l -0.956,1.119 0.828,0.666 c -0.147,3.98 -1.681,7.322 -4.597,10.025 l -0.638,-0.031 c -0.3,-1.787 -0.45,-3.567 -0.45,-5.332 0,-2.432 0.27,-4.731 0.798,-6.895 1.194,-0.322 2.443,-0.508 3.738,-0.508 7.953,0 14.4,6.446 14.4,14.399 C 6.149,-6.91 3.715,-2.604 0,0" />
    </g>
    <g
       aria-label="I"
       style="font-style:normal;font-variant:normal;font-weight:normal;font-stretch:normal;font-size:3.52777767px;line-height:1.25;font-family:DIN;-inkscape-font-specification:DIN;text-align:center;letter-spacing:0px;word-spacing:0px;text-anchor:middle;fill:#f4da98;fill-opacity:1;stroke:none;stroke-width:0.26458332"
       id="text953">
      <path
         d="m 17.229666,262.66837 v -2.51178 h -0.381 v 2.51178 z"
         style="fill:#f4da98;fill-opacity:1;stroke-width:0.26458332"
         id="path983" />
    </g>
    <g
       aria-label="N"
       style="font-style:normal;font-variant:normal;font-weight:normal;font-stretch:normal;font-size:3.52777767px;line-height:1.25;font-family:DIN;-inkscape-font-specification:DIN;text-align:center;letter-spacing:0px;word-spacing:0px;text-anchor:middle;fill:#f4da98;fill-opacity:1;stroke:none;stroke-width:0.26458332"
       id="text957">
      <path
         d="m 17.984611,265.84341 v -2.51177 h -0.381 v 1.76389 l -1.160639,-1.76389 h -0.34925 v 2.51177 h 0.381 V 264.076 l 1.160639,1.76741 z"
         style="fill:#f4da98;fill-opacity:1;stroke-width:0.26458332"
         id="path980" />
    </g>
    <g
       aria-label="O"
       style="font-style:normal;font-variant:normal;font-weight:normal;font-stretch:normal;font-size:3.52777767px;line-height:1.25;font-family:DIN;-inkscape-font-specification:DIN;text-align:center;letter-spacing:0px;word-spacing:0px;text-anchor:middle;fill:#f4da98;fill-opacity:1;stroke:none;stroke-width:0.26458332"
       id="text961">
      <path
         d="m 17.942279,273.82495 q 0,-0.17991 -0.0035,-0.32455 -0.0035,-0.14817 -0.0247,-0.26811 -0.02117,-0.11995 -0.07055,-0.22225 -0.04939,-0.10231 -0.141111,-0.19403 -0.130528,-0.13053 -0.296334,-0.19756 -0.165805,-0.0705 -0.366888,-0.0705 -0.201084,0 -0.366889,0.0705 -0.162278,0.067 -0.292806,0.19756 -0.09172,0.0917 -0.141111,0.19403 -0.04939,0.1023 -0.07408,0.22225 -0.02117,0.11994 -0.0247,0.26811 -0.0035,0.14464 -0.0035,0.32455 0,0.17992 0.0035,0.32809 0.0035,0.14463 0.0247,0.26458 0.02469,0.11994 0.07408,0.22225 0.04939,0.1023 0.141111,0.19403 0.130528,0.13052 0.292806,0.20108 0.165805,0.067 0.366889,0.067 0.201083,0 0.366888,-0.067 0.165806,-0.0706 0.296334,-0.20108 0.09172,-0.0917 0.141111,-0.19403 0.04939,-0.10231 0.07055,-0.22225 0.02117,-0.11995 0.0247,-0.26458 0.0035,-0.14817 0.0035,-0.32809 z m -0.381,0 q 0,0.1905 -0.0071,0.3175 -0.0035,0.12347 -0.02117,0.21167 -0.01411,0.0847 -0.04586,0.14464 -0.02822,0.0564 -0.07408,0.10583 -0.06703,0.0706 -0.165806,0.11289 -0.09525,0.0423 -0.208138,0.0423 -0.112889,0 -0.211667,-0.0423 -0.09525,-0.0423 -0.162278,-0.11289 -0.04586,-0.0494 -0.07761,-0.10583 -0.02822,-0.06 -0.04586,-0.14464 -0.01411,-0.0882 -0.02117,-0.21167 -0.0035,-0.127 -0.0035,-0.3175 0,-0.1905 0.0035,-0.31397 0.0071,-0.127 0.02117,-0.21167 0.01764,-0.0882 0.04586,-0.14464 0.03175,-0.06 0.07761,-0.10936 0.06703,-0.0705 0.162278,-0.11289 0.09878,-0.0423 0.211667,-0.0423 0.112888,0 0.208138,0.0423 0.09878,0.0423 0.165806,0.11289 0.04586,0.0494 0.07408,0.10936 0.03175,0.0564 0.04586,0.14464 0.01764,0.0847 0.02117,0.21167 0.0071,0.12347 0.0071,0.31397 z"
         style="fill:#f4da98;fill-opacity:1;stroke-width:0.26458332"
         id="path977" />
    </g>
    <g
       aria-label="U"
       style="font-style:normal;font-variant:normal;font-weight:normal;font-stretch:normal;font-size:3.52777767px;line-height:1.25;font-family:DIN;-inkscape-font-specification:DIN;text-align:center;letter-spacing:0px;word-spacing:0px;text-anchor:middle;fill:#f4da98;fill-opacity:1;stroke:none;stroke-width:0.26458332"
       id="text965">
      <path
         d="m 17.940514,277.39863 v -1.66511 h -0.381 v 1.64747 q 0,0.254 -0.144639,0.39864 -0.141111,0.14464 -0.377472,0.14464 -0.236361,0 -0.377472,-0.14464 -0.141111,-0.14464 -0.141111,-0.39864 v -1.64747 h -0.381 v 1.66511 q 0,0.19403 0.06703,0.35631 0.07056,0.15875 0.1905,0.27164 0.119945,0.11289 0.28575,0.17639 0.165806,0.0635 0.356306,0.0635 0.1905,0 0.356305,-0.0635 0.165806,-0.0635 0.28575,-0.17639 0.123473,-0.11289 0.1905,-0.27164 0.07056,-0.16228 0.07056,-0.35631 z"
         style="fill:#f4da98;fill-opacity:1;stroke-width:0.26458332"
         id="path974" />
    </g>
    <g
       aria-label="T"
       style="font-style:normal;font-variant:normal;font-weight:normal;font-stretch:normal;font-size:3.52777767px;line-height:1.25;font-family:DIN;-inkscape-font-specification:DIN;text-align:center;letter-spacing:0px;word-spacing:0px;text-anchor:middle;fill:#f4da98;fill-opacity:1;stroke:none;stroke-width:0.26458332"
       id="text969">
      <path
         d="m 17.921111,279.26136 v -0.3422 h -1.763889 v 0.3422 h 0.691444 v 2.16958 h 0.381 v -2.16958 z"
         style="fill:#f4da98;fill-opacity:1;stroke-width:0.26458332"
         id="path971" />
    </g>
  </g>
</svg>
