<?xml version="1.0" encoding="UTF-8" standalone="no"?>
<!-- Created with Inkscape (http://www.inkscape.org/) -->

<svg
   xmlns:dc="http://purl.org/dc/elements/1.1/"
   xmlns:cc="http://creativecommons.org/ns#"
   xmlns:rdf="http://www.w3.org/1999/02/22-rdf-syntax-ns#"
   xmlns:svg="http://www.w3.org/2000/svg"
   xmlns="http://www.w3.org/2000/svg"
   xmlns:xlink="http://www.w3.org/1999/xlink"
   xmlns:sodipodi="http://sodipodi.sourceforge.net/DTD/sodipodi-0.dtd"
   xmlns:inkscape="http://www.inkscape.org/namespaces/inkscape"
   width="30.48mm"
   height="128.5mm"
   viewBox="0 0 30.48 128.5"
   version="1.1"
   id="svg8"
   inkscape:version="0.92.5 (2060ec1f9f, 2020-04-08)"
   sodipodi:docname="Quad_Decoder.svg">
  <defs
     id="defs2">
    <linearGradient
       inkscape:collect="always"
       xlink:href="#linearGradient1953"
       id="linearGradient4954"
       gradientUnits="userSpaceOnUse"
       x1="110.74702"
       y1="130.87947"
       x2="111.50298"
       y2="242.57143"
       gradientTransform="matrix(0.66590622,0,0,0.99973634,-56.208373,-125.49795)" />
    <linearGradient
       id="linearGradient1953"
       inkscape:collect="always">
      <stop
         id="stop1949"
         offset="0"
         style="stop-color:#333131;stop-opacity:1" />
      <stop
         id="stop1951"
         offset="1"
         style="stop-color:#292727;stop-opacity:1" />
    </linearGradient>
  </defs>
  <sodipodi:namedview
     id="base"
     pagecolor="#ffffff"
     bordercolor="#666666"
     borderopacity="1.0"
     inkscape:pageopacity="0.0"
     inkscape:pageshadow="2"
     inkscape:zoom="2.8"
     inkscape:cx="158.10849"
     inkscape:cy="340.51721"
     inkscape:document-units="mm"
     inkscape:current-layer="layer1"
     showgrid="false"
     showguides="true"
     inkscape:guide-bbox="true"
     inkscape:snap-text-baseline="false"
     inkscape:window-width="1920"
     inkscape:window-height="1033"
     inkscape:window-x="0"
     inkscape:window-y="0"
     inkscape:window-maximized="1"
     inkscape:snap-bbox="true"
     inkscape:snap-bbox-midpoints="true"
     inkscape:snap-bbox-edge-midpoints="true"
     inkscape:bbox-nodes="false"
     inkscape:snap-others="true"
     inkscape:snap-nodes="false">
    <sodipodi:guide
       position="14.24,18"
       orientation="0,1"
       id="guide849"
       inkscape:locked="false"
       inkscape:label=""
       inkscape:color="rgb(0,0,255)" />
    <sodipodi:guide
       position="-9.6383931,120"
       orientation="0,1"
       id="guide861"
       inkscape:locked="false"
       inkscape:label=""
       inkscape:color="rgb(0,0,255)" />
    <sodipodi:guide
       position="15.24,122"
       orientation="1,0"
       id="guide871"
       inkscape:locked="false"
       inkscape:label=""
       inkscape:color="rgb(0,0,255)" />
    <sodipodi:guide
       position="-16.630953,34.000001"
       orientation="0,1"
       id="guide961"
       inkscape:locked="false"
       inkscape:label=""
       inkscape:color="rgb(0,0,255)" />
    <sodipodi:guide
       position="-9.0871641,50.000001"
       orientation="0,1"
       id="guide963"
       inkscape:locked="false"
       inkscape:label=""
       inkscape:color="rgb(0,0,255)" />
    <sodipodi:guide
       position="8.2399998,-13.040179"
       orientation="1,0"
       id="guide973"
       inkscape:locked="false"
       inkscape:label=""
       inkscape:color="rgb(0,0,255)" />
    <sodipodi:guide
       position="22.24,-10.772322"
       orientation="1,0"
       id="guide975"
       inkscape:locked="false"
       inkscape:label=""
       inkscape:color="rgb(0,0,255)" />
    <sodipodi:guide
       position="12.74,75.971365"
       orientation="1,0"
       id="guide1179"
       inkscape:locked="false"
       inkscape:label=""
       inkscape:color="rgb(0,0,255)" />
    <sodipodi:guide
       position="17.74,77.508165"
       orientation="1,0"
       id="guide1181"
       inkscape:locked="false"
       inkscape:label=""
       inkscape:color="rgb(0,0,255)" />
    <sodipodi:guide
       position="19.644311,104"
       orientation="1,0"
       id="guide1000"
       inkscape:locked="false" />
    <sodipodi:guide
       position="-26.458334,66.000001"
       orientation="0,1"
       id="guide1020"
       inkscape:locked="false"
       inkscape:label=""
       inkscape:color="rgb(0,0,255)" />
    <sodipodi:guide
       position="-7.8430062,104"
       orientation="0,1"
       id="guide1059"
       inkscape:locked="false"
       inkscape:label=""
       inkscape:color="rgb(0,0,255)" />
    <sodipodi:guide
       position="-7.8430062,86"
       orientation="0,1"
       id="guide1061"
       inkscape:locked="false"
       inkscape:label=""
       inkscape:color="rgb(0,0,255)" />
  </sodipodi:namedview>
  <metadata
     id="metadata5">
    <rdf:RDF>
      <cc:Work
         rdf:about="">
        <dc:format>image/svg+xml</dc:format>
        <dc:type
           rdf:resource="http://purl.org/dc/dcmitype/StillImage" />
        <dc:title />
      </cc:Work>
    </rdf:RDF>
  </metadata>
  <g
     style="display:inline"
     inkscape:label="BG"
     id="g1115"
     inkscape:groupmode="layer">
    <path
       inkscape:connector-curvature="0"
       id="path1011"
       d="M 9.8793611e-8,4.75e-6 H 30.479999 V 128.5 H 9.8793611e-8 Z"
       style="display:inline;fill:url(#linearGradient4954);fill-opacity:1;stroke:#6e6e6e;stroke-width:0;stroke-miterlimit:4;stroke-dasharray:none;stroke-opacity:1" />
    <flowRoot
       style="font-style:normal;font-variant:normal;font-weight:500;font-stretch:normal;font-size:13.33333302px;line-height:1.25;font-family:DIN;-inkscape-font-specification:'DIN Medium';text-align:center;writing-mode:lr-tb;text-anchor:middle;fill:#f4da98;fill-opacity:1;stroke:none;stroke-width:0.75590551;stroke-miterlimit:4;stroke-dasharray:none;stroke-opacity:1"
       id="flowRoot1019"
       xml:space="preserve"><flowRegion
         id="flowRegion1015"><rect
           y="150.80371"
           x="-61.619305"
           height="57.07362"
           width="255.06352"
           id="rect1013" /></flowRegion><flowPara
         id="flowPara1017" /></flowRoot>    <flowRoot
       style="font-style:normal;font-variant:normal;font-weight:500;font-stretch:normal;font-size:13.33333302px;line-height:1.25;font-family:DIN;-inkscape-font-specification:'DIN Medium';text-align:center;writing-mode:lr-tb;text-anchor:middle;fill:#f4da98;fill-opacity:1;stroke:none;stroke-width:0.75590551;stroke-miterlimit:4;stroke-dasharray:none;stroke-opacity:1"
       id="flowRoot1029"
       xml:space="preserve"><flowRegion
         id="flowRegion1025"><rect
           y="261.38358"
           x="-53.214287"
           height="38.92857"
           width="203.21428"
           id="rect1023" /></flowRegion><flowPara
         id="flowPara1027" /></flowRoot>    <text
       xml:space="preserve"
       style="font-style:normal;font-variant:normal;font-weight:normal;font-stretch:normal;font-size:4.23333311px;line-height:1.25;font-family:DIN;-inkscape-font-specification:DIN;text-align:center;letter-spacing:0px;word-spacing:0px;text-anchor:middle;fill:#000000;fill-opacity:1;stroke:none;stroke-width:0.26458332"
       x="-29.860117"
       y="20.965775"
       id="text908"><tspan
         sodipodi:role="line"
         id="tspan906"
         x="-29.860117"
         y="25.022718"
         style="stroke-width:0.26458332" /></text>
  </g>
  <g
     inkscape:label="Layer 1"
     inkscape:groupmode="layer"
     id="layer1"
     transform="translate(0,-168.5)"
     style="display:inline">
    <text
       xml:space="preserve"
       style="font-style:normal;font-variant:normal;font-weight:500;font-stretch:normal;font-size:2.82222223px;line-height:1.25;font-family:DIN;-inkscape-font-specification:'DIN Medium';text-align:center;writing-mode:lr-tb;text-anchor:middle;fill:#000000;fill-opacity:1;stroke:none;stroke-width:0.2;stroke-miterlimit:4;stroke-dasharray:none;stroke-opacity:1"
       x="2.4568453"
       y="236.90178"
       id="text942"><tspan
         sodipodi:role="line"
         id="tspan940"
         x="2.4568453"
         y="239.60641"
         style="stroke-width:0.2" /></text>
    <g
       aria-label="RESET"
       style="font-style:normal;font-variant:normal;font-weight:500;font-stretch:normal;font-size:3.52777767px;line-height:1.25;font-family:DIN;-inkscape-font-specification:'DIN Medium';text-align:center;writing-mode:lr-tb;text-anchor:middle;fill:#f4da98;fill-opacity:1;stroke:none;stroke-width:0.2;stroke-miterlimit:4;stroke-dasharray:none;stroke-opacity:1"
       id="text1009"
       transform="translate(2.9199989,-0.52916667)" />
    <g
       aria-label="FL"
       style="font-style:normal;font-variant:normal;font-weight:normal;font-stretch:normal;font-size:3.52777767px;line-height:1.25;font-family:DIN;-inkscape-font-specification:DIN;text-align:center;letter-spacing:0px;word-spacing:0px;text-anchor:middle;fill:#f4da98;fill-opacity:1;stroke:none;stroke-width:0.26458332"
       id="text1000"
       transform="translate(-4.1150822e-7,30)">
      <path
         d="m 8.0177515,208.678 v -0.3422 H 6.4126127 v 2.51178 h 0.3809999 v -1.06186 h 1.0442222 v -0.3422 H 6.7936126 V 208.678 Z"
         style="fill:#f4da98;fill-opacity:1;stroke-width:0.26458332"
         id="path1301"
         inkscape:connector-curvature="0" />
      <path
         d="m 10.067387,210.84758 v -0.34219 H 8.8573593 v -2.16959 h -0.381 v 2.51178 z"
         style="fill:#f4da98;fill-opacity:1;stroke-width:0.26458332"
         id="path1303"
         inkscape:connector-curvature="0" />
    </g>
    <g
       aria-label="FR"
       style="font-style:normal;font-variant:normal;font-weight:normal;font-stretch:normal;font-size:3.52777767px;line-height:1.25;font-family:DIN;-inkscape-font-specification:DIN;text-align:center;letter-spacing:0px;word-spacing:0px;text-anchor:middle;fill:#f4da98;fill-opacity:1;stroke:none;stroke-width:0.26458332"
       id="text1004"
       transform="translate(-4.1150822e-7,30)">
      <path
         d="m 21.897806,208.678 v -0.3422 h -1.605139 v 2.51178 h 0.381 v -1.06186 h 1.044222 v -0.3422 H 20.673667 V 208.678 Z"
         style="fill:#f4da98;fill-opacity:1;stroke-width:0.26458332"
         id="path1296"
         inkscape:connector-curvature="0" />
      <path
         d="m 24.18733,210.84758 -0.578555,-1.11125 q 0.211666,-0.06 0.356305,-0.22578 0.144639,-0.16933 0.144639,-0.44097 0,-0.15875 -0.05644,-0.29281 -0.05292,-0.13758 -0.155222,-0.23283 -0.102306,-0.0988 -0.246945,-0.15169 -0.141111,-0.0564 -0.321028,-0.0564 h -0.973666 v 2.51178 h 0.381 v -1.05833 h 0.47625 l 0.529166,1.05833 z m -0.458611,-1.77447 q 0,0.18697 -0.119944,0.28928 -0.116417,0.1023 -0.306917,0.1023 H 22.737414 V 208.678 h 0.564444 q 0.1905,0 0.306917,0.10583 0.119944,0.10231 0.119944,0.28928 z"
         style="fill:#f4da98;fill-opacity:1;stroke-width:0.26458332"
         id="path1298"
         inkscape:connector-curvature="0" />
    </g>
    <g
       aria-label="SL"
       style="font-style:normal;font-variant:normal;font-weight:normal;font-stretch:normal;font-size:3.52777767px;line-height:1.25;font-family:DIN;-inkscape-font-specification:DIN;text-align:center;letter-spacing:0px;word-spacing:0px;text-anchor:middle;fill:#f4da98;fill-opacity:1;stroke:none;stroke-width:0.26458332"
       id="text1008"
       transform="translate(-4.1150822e-7,30)">
      <path
         d="m 8.0847807,226.13144 q 0,-0.16228 -0.052917,-0.2928 -0.049389,-0.13053 -0.1516945,-0.22225 -0.081139,-0.0706 -0.1869722,-0.11289 -0.1058333,-0.0459 -0.2822222,-0.0741 l -0.28575,-0.0423 q -0.1834444,-0.0282 -0.2822222,-0.11642 -0.049389,-0.0459 -0.074083,-0.1023 -0.021167,-0.06 -0.021167,-0.13053 0,-0.16933 0.1164167,-0.27869 0.1199444,-0.11289 0.3421944,-0.11289 0.15875,0 0.2928056,0.0423 0.1375833,0.0388 0.2539999,0.15169 l 0.2434167,-0.23988 q -0.1622778,-0.1517 -0.3457222,-0.21873 -0.1834444,-0.067 -0.4339167,-0.067 -0.1975555,0 -0.3527777,0.0529 -0.1552222,0.0529 -0.2645834,0.1517 -0.1058333,0.0988 -0.1658055,0.23636 -0.056444,0.13405 -0.056444,0.29633 0,0.30692 0.1834444,0.47978 0.1693333,0.15875 0.47625,0.20108 l 0.2963333,0.0423 q 0.1128889,0.0176 0.1693333,0.0388 0.056445,0.0212 0.1058334,0.067 0.098778,0.0882 0.098778,0.26105 0,0.18345 -0.1375833,0.28575 -0.1340555,0.0988 -0.381,0.0988 -0.1940278,0 -0.34925,-0.0494 -0.1552222,-0.0529 -0.2928055,-0.1905 l -0.254,0.25048 q 0.1799166,0.18344 0.3915833,0.25752 0.2116667,0.0741 0.4974167,0.0741 0.1975555,0 0.3633611,-0.0494 0.1658055,-0.0494 0.28575,-0.14464 0.1199444,-0.0953 0.1869722,-0.23283 0.067028,-0.13759 0.067028,-0.31045 z"
         style="fill:#f4da98;fill-opacity:1;stroke-width:0.26458332"
         id="path1291"
         inkscape:connector-curvature="0" />
      <path
         d="m 10.18733,226.84758 v -0.34219 H 8.9773024 v -2.16959 h -0.381 v 2.51178 z"
         style="fill:#f4da98;fill-opacity:1;stroke-width:0.26458332"
         id="path1293"
         inkscape:connector-curvature="0" />
    </g>
    <g
       aria-label="SR"
       style="font-style:normal;font-variant:normal;font-weight:normal;font-stretch:normal;font-size:3.52777767px;line-height:1.25;font-family:DIN;-inkscape-font-specification:DIN;text-align:center;letter-spacing:0px;word-spacing:0px;text-anchor:middle;fill:#f4da98;fill-opacity:1;stroke:none;stroke-width:0.26458332"
       id="text1012"
       transform="translate(-4.1150822e-7,30)">
      <path
         d="m 21.964836,226.13144 q 0,-0.16228 -0.05292,-0.2928 -0.04939,-0.13053 -0.151694,-0.22225 -0.08114,-0.0706 -0.186972,-0.11289 -0.105834,-0.0459 -0.282222,-0.0741 l -0.28575,-0.0423 q -0.183445,-0.0282 -0.282223,-0.11642 -0.04939,-0.0459 -0.07408,-0.1023 -0.02117,-0.06 -0.02117,-0.13053 0,-0.16933 0.116417,-0.27869 0.119944,-0.11289 0.342194,-0.11289 0.15875,0 0.292806,0.0423 0.137583,0.0388 0.254,0.15169 l 0.243417,-0.23988 q -0.162278,-0.1517 -0.345723,-0.21873 -0.183444,-0.067 -0.433916,-0.067 -0.197556,0 -0.352778,0.0529 -0.155222,0.0529 -0.264583,0.1517 -0.105834,0.0988 -0.165806,0.23636 -0.05644,0.13405 -0.05644,0.29633 0,0.30692 0.183444,0.47978 0.169333,0.15875 0.47625,0.20108 l 0.296333,0.0423 q 0.112889,0.0176 0.169334,0.0388 0.05644,0.0212 0.105833,0.067 0.09878,0.0882 0.09878,0.26105 0,0.18345 -0.137583,0.28575 -0.134056,0.0988 -0.381,0.0988 -0.194028,0 -0.34925,-0.0494 -0.155223,-0.0529 -0.292806,-0.1905 l -0.254,0.25048 q 0.179917,0.18344 0.391583,0.25752 0.211667,0.0741 0.497417,0.0741 0.197556,0 0.363361,-0.0494 0.165806,-0.0494 0.28575,-0.14464 0.119944,-0.0953 0.186972,-0.23283 0.06703,-0.13759 0.06703,-0.31045 z"
         style="fill:#f4da98;fill-opacity:1;stroke-width:0.26458332"
         id="path1286"
         inkscape:connector-curvature="0" />
      <path
         d="m 24.307274,226.84758 -0.578555,-1.11125 q 0.211666,-0.06 0.356305,-0.22578 0.144639,-0.16933 0.144639,-0.44097 0,-0.15875 -0.05644,-0.29281 -0.05292,-0.13758 -0.155222,-0.23283 -0.102306,-0.0988 -0.246945,-0.15169 -0.141111,-0.0564 -0.321028,-0.0564 h -0.973666 v 2.51178 h 0.381 v -1.05833 h 0.47625 l 0.529166,1.05833 z m -0.458611,-1.77447 q 0,0.18697 -0.119944,0.28928 -0.116417,0.1023 -0.306917,0.1023 H 22.857358 V 224.678 h 0.564444 q 0.1905,0 0.306917,0.10583 0.119944,0.10231 0.119944,0.28928 z"
         style="fill:#f4da98;fill-opacity:1;stroke-width:0.26458332"
         id="path1288"
         inkscape:connector-curvature="0" />
    </g>
    <path
       style="display:inline;fill:#f4da98;fill-opacity:1;stroke:none;stroke-width:0;stroke-miterlimit:4;stroke-dasharray:none;stroke-opacity:1"
       inkscape:transform-center-x="7.4234112"
       inkscape:transform-center-y="5.2919366"
       d="m 27.74,279 a 5.5000001,5.5000001 0 0 1 -5.5,5.5 5.5000001,5.5000001 0 0 1 -5.500001,-5.5 5.5000001,5.5000001 0 0 1 5.500001,-5.5 5.5000001,5.5000001 0 0 1 5.5,5.5 z"
       id="path4964-2-8-0-6"
       inkscape:connector-curvature="0" />
    <g
       aria-label="OUTPUT"
       style="font-style:normal;font-variant:normal;font-weight:normal;font-stretch:normal;font-size:2.82222223px;line-height:1.25;font-family:DIN;-inkscape-font-specification:DIN;text-align:center;letter-spacing:0px;word-spacing:0px;text-anchor:middle;fill:#f4da98;fill-opacity:1;stroke:none;stroke-width:0.26458332"
       id="text995"
       transform="translate(0,-1.5875)">
      <path
         d="m 10.61156,185.59169 q 0,-0.17992 -0.0035,-0.32455 -0.0035,-0.14817 -0.02469,-0.26812 -0.02117,-0.11994 -0.07056,-0.22225 -0.04939,-0.1023 -0.141111,-0.19402 -0.130528,-0.13053 -0.296333,-0.19756 -0.1658059,-0.0705 -0.3668892,-0.0705 -0.2010833,0 -0.3668889,0.0705 -0.1622777,0.067 -0.2928055,0.19756 -0.091722,0.0917 -0.1411111,0.19402 -0.049389,0.10231 -0.074083,0.22225 -0.021167,0.11995 -0.024695,0.26812 -0.00353,0.14463 -0.00353,0.32455 0,0.17992 0.00353,0.32808 0.00353,0.14464 0.024695,0.26459 0.024694,0.11994 0.074083,0.22225 0.049389,0.1023 0.1411111,0.19403 0.1305278,0.13052 0.2928055,0.20108 0.1658056,0.067 0.3668889,0.067 0.2010833,0 0.3668892,-0.067 0.165805,-0.0706 0.296333,-0.20108 0.09172,-0.0917 0.141111,-0.19403 0.04939,-0.10231 0.07056,-0.22225 0.02117,-0.11995 0.02469,-0.26459 0.0035,-0.14816 0.0035,-0.32808 z m -0.381,0 q 0,0.1905 -0.0071,0.3175 -0.0035,0.12347 -0.02117,0.21167 -0.01411,0.0847 -0.04586,0.14464 -0.02822,0.0564 -0.07408,0.10583 -0.06703,0.0706 -0.1658053,0.11289 -0.09525,0.0423 -0.2081389,0.0423 -0.1128889,0 -0.2116666,-0.0423 -0.09525,-0.0423 -0.1622778,-0.11289 -0.045861,-0.0494 -0.077611,-0.10583 -0.028222,-0.06 -0.045861,-0.14464 -0.014111,-0.0882 -0.021167,-0.21167 -0.00353,-0.127 -0.00353,-0.3175 0,-0.1905 0.00353,-0.31397 0.00706,-0.127 0.021167,-0.21167 0.017639,-0.0882 0.045861,-0.14464 0.03175,-0.06 0.077611,-0.10936 0.067028,-0.0705 0.1622778,-0.11289 0.098778,-0.0423 0.2116666,-0.0423 0.1128889,0 0.2081389,0.0423 0.098777,0.0423 0.1658053,0.11289 0.04586,0.0494 0.07408,0.10936 0.03175,0.0564 0.04586,0.14464 0.01764,0.0847 0.02117,0.21167 0.0071,0.12347 0.0071,0.31397 z"
         style="font-size:3.52777767px;fill:#f4da98;fill-opacity:1;stroke-width:0.26458332"
         id="path1012"
         inkscape:connector-curvature="0" />
      <path
         d="m 12.939893,186.00091 v -1.66511 h -0.381 v 1.64747 q 0,0.254 -0.144639,0.39864 -0.141111,0.14464 -0.377472,0.14464 -0.236361,0 -0.377472,-0.14464 -0.141112,-0.14464 -0.141112,-0.39864 v -1.64747 h -0.381 v 1.66511 q 0,0.19403 0.06703,0.35631 0.07056,0.15875 0.1905,0.27164 0.119945,0.11289 0.28575,0.17639 0.165806,0.0635 0.356306,0.0635 0.1905,0 0.356305,-0.0635 0.165806,-0.0635 0.28575,-0.17639 0.123472,-0.11289 0.1905,-0.27164 0.07056,-0.16228 0.07056,-0.35631 z"
         style="font-size:3.52777767px;fill:#f4da98;fill-opacity:1;stroke-width:0.26458332"
         id="path1014"
         inkscape:connector-curvature="0" />
      <path
         d="m 15.09889,184.678 v -0.3422 h -1.763889 v 0.3422 h 0.691445 v 2.16958 h 0.381 V 184.678 Z"
         style="font-size:3.52777767px;fill:#f4da98;fill-opacity:1;stroke-width:0.26458332"
         id="path1016"
         inkscape:connector-curvature="0" />
      <path
         d="m 17.289638,185.0978 q 0,-0.16228 -0.05644,-0.30339 -0.05645,-0.14111 -0.162278,-0.23989 -0.105833,-0.1023 -0.254,-0.15875 -0.148167,-0.06 -0.331611,-0.06 h -0.9525 v 2.51178 h 0.381 v -0.98778 h 0.5715 q 0.183444,0 0.331611,-0.0564 0.148167,-0.06 0.254,-0.15875 0.105833,-0.10231 0.162278,-0.23989 0.05644,-0.14111 0.05644,-0.30692 z m -0.381,0 q 0,0.20109 -0.123472,0.31045 -0.119944,0.10583 -0.321028,0.10583 H 15.913805 V 184.678 h 0.550333 q 0.201084,0 0.321028,0.10936 0.123472,0.10936 0.123472,0.31044 z"
         style="font-size:3.52777767px;fill:#f4da98;fill-opacity:1;stroke-width:0.26458332"
         id="path1018"
         inkscape:connector-curvature="0" />
      <path
         d="m 19.515665,186.00091 v -1.66511 h -0.381 v 1.64747 q 0,0.254 -0.144639,0.39864 -0.141111,0.14464 -0.377472,0.14464 -0.236361,0 -0.377472,-0.14464 -0.141111,-0.14464 -0.141111,-0.39864 v -1.64747 h -0.381 v 1.66511 q 0,0.19403 0.06703,0.35631 0.07056,0.15875 0.1905,0.27164 0.119945,0.11289 0.28575,0.17639 0.165806,0.0635 0.356306,0.0635 0.1905,0 0.356306,-0.0635 0.165805,-0.0635 0.28575,-0.17639 0.123472,-0.11289 0.1905,-0.27164 0.07055,-0.16228 0.07055,-0.35631 z"
         style="font-size:3.52777767px;fill:#f4da98;fill-opacity:1;stroke-width:0.26458332"
         id="path1020"
         inkscape:connector-curvature="0" />
      <path
         d="m 21.674662,184.678 v -0.3422 h -1.763889 v 0.3422 h 0.691444 v 2.16958 h 0.381 V 184.678 Z"
         style="font-size:3.52777767px;fill:#f4da98;fill-opacity:1;stroke-width:0.26458332"
         id="path1022"
         inkscape:connector-curvature="0" />
    </g>
    <g
       transform="matrix(0.35277777,0,0,-0.35277777,13.058214,292.38842)"
       id="g3796"
       style="display:inline;fill:#f4da98;fill-opacity:1;stroke:none">
      <path
         inkscape:connector-curvature="0"
         id="path3798"
         style="fill:#f4da98;fill-opacity:1;fill-rule:nonzero;stroke:none"
         d="M 0,0 C 0,1.873 0.16,3.703 0.479,5.492 -1.353,5.898 -2.27,6.65 -2.27,7.76 c 0,0.873 0.492,1.306 1.47,1.306 0.513,0 1.141,-0.242 1.885,-0.734 1.445,5.092 3.802,9.383 7.06,12.887 -0.702,0.105 -1.413,0.178 -2.143,0.178 -7.952,0 -14.399,-6.448 -14.399,-14.401 0,-6.057 3.745,-11.232 9.043,-13.357 C 0.223,-4.273 0,-2.152 0,0" />
    </g>
    <g
       transform="matrix(0.35277777,0,0,-0.35277777,13.891896,289.76397)"
       id="g3800"
       style="display:inline;fill:#f4da98;fill-opacity:1;stroke:none">
      <path
         inkscape:connector-curvature="0"
         id="path3802"
         style="fill:#f4da98;fill-opacity:1;fill-rule:nonzero;stroke:none"
         d="m 0,0 c 0.275,-0.191 0.487,-0.359 0.638,-0.51 1.575,0.362 3.15,1.287 4.725,2.778 1.319,1.279 2.448,2.757 3.385,4.439 1.193,2.109 1.756,3.885 1.693,5.332 h 0.357 C 9.394,12.846 7.845,13.422 6.194,13.717 L 7.025,12.936 C 3.638,9.379 1.297,5.068 0,0" />
    </g>
    <g
       transform="matrix(0.35277777,0,0,-0.35277777,18.086319,285.76075)"
       id="g3804"
       style="display:inline;fill:#f4da98;fill-opacity:1;stroke:none">
      <path
         inkscape:connector-curvature="0"
         id="path3806"
         style="fill:#f4da98;fill-opacity:1;fill-rule:nonzero;stroke:none"
         d="m 0,0 c -0.115,-1.566 -0.734,-3.357 -1.863,-5.375 -0.96,-1.703 -2.098,-3.213 -3.416,-4.535 -1.535,-1.488 -3.111,-2.524 -4.726,-3.098 2.51,-2.765 3.947,-5.92 4.31,-9.451 0.934,0.619 1.937,1.172 3,1.66 l 0.606,-1.342 c -1.765,-0.808 -3.393,-1.837 -4.885,-3.093 l -0.956,1.119 0.828,0.666 c -0.147,3.98 -1.681,7.322 -4.597,10.025 l -0.638,-0.031 c -0.3,-1.787 -0.45,-3.567 -0.45,-5.332 0,-2.432 0.27,-4.731 0.798,-6.895 1.194,-0.322 2.443,-0.508 3.738,-0.508 7.953,0 14.4,6.446 14.4,14.399 C 6.149,-6.91 3.715,-2.604 0,0" />
    </g>
    <g
       aria-label="Quad"
       style="font-style:normal;font-variant:normal;font-weight:normal;font-stretch:normal;font-size:4.23333311px;line-height:1.25;font-family:DIN;-inkscape-font-specification:DIN;text-align:center;letter-spacing:0px;word-spacing:0px;text-anchor:middle;fill:#f4da98;fill-opacity:1;stroke:none;stroke-width:0.26458332"
       id="text1003"
       transform="translate(0.02961364,1.8645929)">
      <path
         d="m 12.930723,174.88147 -0.296334,-0.2921 q 0.0762,-0.1016 0.1143,-0.21167 0.0381,-0.1143 0.05503,-0.24553 0.02117,-0.13124 0.02117,-0.28787 0.0042,-0.16087 0.0042,-0.35137 0,-0.2159 -0.0042,-0.38946 -0.0042,-0.1778 -0.02963,-0.32174 -0.0254,-0.14393 -0.08467,-0.2667 -0.05927,-0.12276 -0.169333,-0.23283 -0.156633,-0.15663 -0.3556,-0.23707 -0.198967,-0.0847 -0.440267,-0.0847 -0.241299,0 -0.440266,0.0847 -0.194733,0.0804 -0.351367,0.23707 -0.110066,0.11007 -0.169333,0.23283 -0.05927,0.12277 -0.0889,0.2667 -0.0254,0.14394 -0.02963,0.32174 -0.0042,0.17356 -0.0042,0.38946 0,0.2159 0.0042,0.3937 0.0042,0.17357 0.02963,0.3175 0.02963,0.14394 0.0889,0.2667 0.05927,0.12277 0.169333,0.23284 0.156634,0.15663 0.351367,0.2413 0.198967,0.0804 0.440266,0.0804 0.1778,0 0.338667,-0.0466 0.160867,-0.0508 0.2921,-0.14393 l 0.300567,0.30057 z m -0.5588,-1.38854 q 0,0.2921 -0.01693,0.46144 -0.0127,0.16933 -0.07197,0.28363 l -0.2921,-0.2921 -0.254,0.254 0.3175,0.3175 q -0.135467,0.0974 -0.309034,0.0974 -0.135466,0 -0.253999,-0.0508 -0.1143,-0.0508 -0.194734,-0.13547 -0.05503,-0.0593 -0.09313,-0.127 -0.03387,-0.072 -0.05503,-0.17357 -0.01693,-0.10583 -0.0254,-0.254 -0.0042,-0.1524 -0.0042,-0.381 0,-0.2286 0.0042,-0.37676 0.0085,-0.1524 0.0254,-0.254 0.02117,-0.10584 0.05503,-0.17357 0.0381,-0.072 0.09313,-0.13123 0.08043,-0.0847 0.194734,-0.13547 0.118533,-0.0508 0.253999,-0.0508 0.135467,0 0.249767,0.0508 0.118533,0.0508 0.198967,0.13547 0.05503,0.0593 0.0889,0.13123 0.0381,0.0677 0.05503,0.17357 0.02117,0.1016 0.0254,0.254 0.0085,0.14816 0.0085,0.37676 z"
         style="fill:#f4da98;fill-opacity:1;stroke-width:0.26458332"
         id="path1028"
         inkscape:connector-curvature="0" />
      <path
         d="m 15.174389,175 v -2.1463 h -0.4318 v 1.3081 q 0,0.12277 -0.0381,0.2159 -0.03387,0.0889 -0.09313,0.14817 -0.05927,0.0593 -0.143934,0.0889 -0.08043,0.0254 -0.169333,0.0254 -0.182033,0 -0.309033,-0.1143 -0.122767,-0.1143 -0.122767,-0.36407 v -1.3081 h -0.4318 v 1.3716 q 0,0.18203 0.04657,0.33443 0.04657,0.14817 0.169333,0.27094 0.09737,0.0931 0.2286,0.14393 0.135467,0.0508 0.300567,0.0508 0.160866,0 0.309033,-0.0593 0.1524,-0.0593 0.262467,-0.18203 V 175 Z"
         style="fill:#f4da98;fill-opacity:1;stroke-width:0.26458332"
         id="path1030"
         inkscape:connector-curvature="0" />
      <path
         d="m 17.439217,175 v -1.4351 q 0,-0.7366 -0.884766,-0.7366 -0.2667,0 -0.4445,0.0677 -0.173567,0.0635 -0.325967,0.2413 l 0.283633,0.2667 q 0.0889,-0.1143 0.1905,-0.16086 0.1016,-0.0466 0.2794,-0.0466 0.254,0 0.359834,0.1016 0.110066,0.0974 0.110066,0.30057 v 0.1524 h -0.567266 q -0.372534,0 -0.5588,0.17356 -0.182034,0.17357 -0.182034,0.4445 0,0.28364 0.169334,0.46144 0.09737,0.0974 0.232833,0.14816 0.1397,0.0466 0.3429,0.0466 0.198967,0 0.325967,-0.0508 0.127,-0.0508 0.245533,-0.16933 V 175 Z m -0.4318,-0.7747 q 0,0.22437 -0.09313,0.3175 -0.08467,0.0847 -0.182033,0.10583 -0.09737,0.0169 -0.220134,0.0169 -0.2032,0 -0.300566,-0.0762 -0.09313,-0.0804 -0.09313,-0.2286 0,-0.14817 0.09737,-0.2286 0.09737,-0.0804 0.287867,-0.0804 h 0.503766 z"
         style="fill:#f4da98;fill-opacity:1;stroke-width:0.26458332"
         id="path1032"
         inkscape:connector-curvature="0" />
      <path
         d="m 19.759079,175 v -3.01413 h -0.4318 v 1.08373 q -0.118534,-0.1397 -0.254,-0.1905 -0.135467,-0.0508 -0.309034,-0.0508 -0.160866,0 -0.296333,0.0508 -0.135466,0.0508 -0.224366,0.1397 -0.08043,0.0804 -0.131234,0.18627 -0.04657,0.10583 -0.07197,0.22436 -0.0254,0.11854 -0.03387,0.24554 -0.0042,0.127 -0.0042,0.24976 0,0.12277 0.0042,0.24977 0.0085,0.127 0.03387,0.24977 0.0254,0.11853 0.07197,0.22436 0.0508,0.10584 0.131234,0.18627 0.0889,0.0889 0.224366,0.1397 0.1397,0.0508 0.300567,0.0508 0.1778,0 0.309033,-0.0508 0.135467,-0.055 0.258233,-0.2032 V 175 Z m -0.4318,-1.07527 q 0,0.14394 -0.01693,0.27517 -0.0127,0.127 -0.05927,0.2286 -0.04657,0.0974 -0.135467,0.15663 -0.0889,0.055 -0.232833,0.055 -0.148167,0 -0.237067,-0.055 -0.08467,-0.0593 -0.135466,-0.15663 -0.04657,-0.1016 -0.0635,-0.2286 -0.0127,-0.13123 -0.0127,-0.27517 0,-0.14393 0.0127,-0.27093 0.01693,-0.13123 0.0635,-0.2286 0.0508,-0.0974 0.135466,-0.1524 0.0889,-0.0593 0.237067,-0.0593 0.143933,0 0.232833,0.0593 0.0889,0.055 0.135467,0.1524 0.04657,0.0974 0.05927,0.2286 0.01693,0.127 0.01693,0.27093 z"
         style="fill:#f4da98;fill-opacity:1;stroke-width:0.26458332"
         id="path1034"
         inkscape:connector-curvature="0" />
    </g>
    <path
       style="display:inline;fill:#f4da98;fill-opacity:1;stroke:none;stroke-width:0;stroke-miterlimit:4;stroke-dasharray:none;stroke-opacity:1"
       inkscape:transform-center-x="7.4234112"
       inkscape:transform-center-y="5.2919366"
       d="M 13.74,247 A 5.5000001,5.5000001 0 0 1 8.2400001,252.5 5.5000001,5.5000001 0 0 1 2.7399991,247 5.5000001,5.5000001 0 0 1 8.2400001,241.5 5.5000001,5.5000001 0 0 1 13.74,247 Z"
       id="path4964-2-8-0-3"
       inkscape:connector-curvature="0" />
    <path
       style="display:inline;fill:#f4da98;fill-opacity:1;stroke:none;stroke-width:0;stroke-miterlimit:4;stroke-dasharray:none;stroke-opacity:1"
       inkscape:transform-center-x="7.4234112"
       inkscape:transform-center-y="5.2919366"
       d="m 27.74,247 a 5.5000001,5.5000001 0 0 1 -5.499999,5.5 5.5000001,5.5000001 0 0 1 -5.500002,-5.5 5.5000001,5.5000001 0 0 1 5.500002,-5.5 A 5.5000001,5.5000001 0 0 1 27.74,247 Z"
       id="path4964-2-8-0-6-6"
       inkscape:connector-curvature="0" />
    <path
       style="display:inline;fill:#f4da98;fill-opacity:1;stroke:none;stroke-width:0;stroke-miterlimit:4;stroke-dasharray:none;stroke-opacity:1"
       inkscape:transform-center-x="7.4234112"
       inkscape:transform-center-y="5.2919366"
       d="M 13.74,263 A 5.5000001,5.5000001 0 0 1 8.24,268.5 5.5000001,5.5000001 0 0 1 2.739999,263 5.5000001,5.5000001 0 0 1 8.24,257.5 a 5.5000001,5.5000001 0 0 1 5.5,5.5 z"
       id="path4964-2-8-0-6-7"
       inkscape:connector-curvature="0" />
    <path
       style="display:inline;fill:#f4da98;fill-opacity:1;stroke:none;stroke-width:0;stroke-miterlimit:4;stroke-dasharray:none;stroke-opacity:1"
       inkscape:transform-center-x="7.4234112"
       inkscape:transform-center-y="5.2919366"
       d="m 27.74,263 a 5.5000001,5.5000001 0 0 1 -5.5,5.5 5.5000001,5.5000001 0 0 1 -5.500001,-5.5 5.5000001,5.5000001 0 0 1 5.500001,-5.5 5.5000001,5.5000001 0 0 1 5.5,5.5 z"
       id="path4964-2-8-0-6-5"
       inkscape:connector-curvature="0" />
    <g
       aria-label="OUTS"
       style="font-style:normal;font-variant:normal;font-weight:normal;font-stretch:normal;font-size:3.52777767px;line-height:1.25;font-family:DIN;-inkscape-font-specification:DIN;text-align:center;letter-spacing:0px;word-spacing:0px;text-anchor:middle;fill:#f4da98;fill-opacity:1;stroke:none;stroke-width:0.26458332"
       id="text941">
      <path
         d="m 12.897558,236.41666 q 0,-0.17992 -0.0035,-0.32456 -0.0035,-0.14816 -0.0247,-0.26811 -0.02117,-0.11994 -0.07055,-0.22225 -0.04939,-0.1023 -0.141111,-0.19403 -0.130528,-0.13052 -0.296334,-0.19755 -0.165805,-0.0706 -0.366888,-0.0706 -0.201084,0 -0.366889,0.0706 -0.162278,0.067 -0.292806,0.19755 -0.09172,0.0917 -0.141111,0.19403 -0.04939,0.10231 -0.07408,0.22225 -0.02117,0.11995 -0.02469,0.26811 -0.0035,0.14464 -0.0035,0.32456 0,0.17991 0.0035,0.32808 0.0035,0.14464 0.02469,0.26458 0.02469,0.11995 0.07408,0.22225 0.04939,0.10231 0.141111,0.19403 0.130528,0.13053 0.292806,0.20109 0.165805,0.067 0.366889,0.067 0.201083,0 0.366888,-0.067 0.165806,-0.0706 0.296334,-0.20109 0.09172,-0.0917 0.141111,-0.19403 0.04939,-0.1023 0.07055,-0.22225 0.02117,-0.11994 0.0247,-0.26458 0.0035,-0.14817 0.0035,-0.32808 z m -0.381,0 q 0,0.1905 -0.0071,0.3175 -0.0035,0.12347 -0.02117,0.21166 -0.01411,0.0847 -0.04586,0.14464 -0.02822,0.0564 -0.07408,0.10584 -0.06703,0.0705 -0.165806,0.11289 -0.09525,0.0423 -0.208138,0.0423 -0.112889,0 -0.211667,-0.0423 -0.09525,-0.0423 -0.162278,-0.11289 -0.04586,-0.0494 -0.07761,-0.10584 -0.02822,-0.06 -0.04586,-0.14464 -0.01411,-0.0882 -0.02117,-0.21166 -0.0035,-0.127 -0.0035,-0.3175 0,-0.1905 0.0035,-0.31397 0.0071,-0.127 0.02117,-0.21167 0.01764,-0.0882 0.04586,-0.14464 0.03175,-0.06 0.07761,-0.10936 0.06703,-0.0706 0.162278,-0.11289 0.09878,-0.0423 0.211667,-0.0423 0.112888,0 0.208138,0.0423 0.09878,0.0423 0.165806,0.11289 0.04586,0.0494 0.07408,0.10936 0.03175,0.0564 0.04586,0.14464 0.01764,0.0847 0.02117,0.21167 0.0071,0.12347 0.0071,0.31397 z"
         style="fill:#f4da98;fill-opacity:1;stroke-width:0.26458332"
         id="path984" />
      <path
         d="m 15.225891,236.82588 v -1.66511 h -0.381 v 1.64747 q 0,0.254 -0.144639,0.39864 -0.141111,0.14464 -0.377473,0.14464 -0.236361,0 -0.377472,-0.14464 -0.141111,-0.14464 -0.141111,-0.39864 v -1.64747 h -0.381 v 1.66511 q 0,0.19403 0.06703,0.35631 0.07056,0.15875 0.1905,0.27163 0.119944,0.11289 0.28575,0.17639 0.165805,0.0635 0.356305,0.0635 0.1905,0 0.356306,-0.0635 0.165806,-0.0635 0.28575,-0.17639 0.123472,-0.11288 0.1905,-0.27163 0.07056,-0.16228 0.07056,-0.35631 z"
         style="fill:#f4da98;fill-opacity:1;stroke-width:0.26458332"
         id="path986" />
      <path
         d="m 17.384888,235.50296 v -0.34219 h -1.763889 v 0.34219 h 0.691445 v 2.16959 h 0.381 v -2.16959 z"
         style="fill:#f4da98;fill-opacity:1;stroke-width:0.26458332"
         id="path988" />
      <path
         d="m 19.388664,236.95641 q 0,-0.16228 -0.05292,-0.29281 -0.04939,-0.13053 -0.151694,-0.22225 -0.08114,-0.0705 -0.186972,-0.11289 -0.105834,-0.0459 -0.282223,-0.0741 l -0.28575,-0.0423 q -0.183444,-0.0282 -0.282222,-0.11642 -0.04939,-0.0459 -0.07408,-0.10231 -0.02117,-0.06 -0.02117,-0.13052 0,-0.16934 0.116417,-0.2787 0.119944,-0.11289 0.342194,-0.11289 0.15875,0 0.292806,0.0423 0.137583,0.0388 0.254,0.15169 l 0.243416,-0.23989 q -0.162277,-0.15169 -0.345722,-0.21872 -0.183444,-0.067 -0.433916,-0.067 -0.197556,0 -0.352778,0.0529 -0.155222,0.0529 -0.264584,0.15169 -0.105833,0.0988 -0.165805,0.23636 -0.05645,0.13406 -0.05645,0.29634 0,0.30691 0.183445,0.47978 0.169333,0.15875 0.47625,0.20108 l 0.296333,0.0423 q 0.112889,0.0176 0.169334,0.0388 0.05644,0.0212 0.105833,0.067 0.09878,0.0882 0.09878,0.26105 0,0.18345 -0.137584,0.28575 -0.134055,0.0988 -0.381,0.0988 -0.194027,0 -0.34925,-0.0494 -0.155222,-0.0529 -0.292805,-0.1905 l -0.254,0.25047 q 0.179916,0.18345 0.391583,0.25753 0.211667,0.0741 0.497417,0.0741 0.197555,0 0.363361,-0.0494 0.165805,-0.0494 0.28575,-0.14463 0.119944,-0.0952 0.186972,-0.23284 0.06703,-0.13758 0.06703,-0.31044 z"
         style="fill:#f4da98;fill-opacity:1;stroke-width:0.26458332"
         id="path990" />
    </g>
    <g
       aria-label="MULTI"
       style="font-style:normal;font-variant:normal;font-weight:normal;font-stretch:normal;font-size:3.52777767px;line-height:1.25;font-family:DIN;-inkscape-font-specification:DIN;text-align:center;letter-spacing:0px;word-spacing:0px;text-anchor:middle;fill:#f4da98;fill-opacity:1;stroke:none;stroke-width:0.26458332"
       id="text945">
      <path
         d="m 19.781146,272.83694 v -2.51177 h -0.381 l -0.719666,1.5628 -0.733778,-1.5628 h -0.381 v 2.51177 h 0.381 v -1.67922 l 0.592666,1.22414 h 0.282223 l 0.578555,-1.22414 v 1.67922 z"
         style="fill:#f4da98;fill-opacity:1;stroke-width:0.26458332"
         id="path973" />
      <path
         d="m 22.197673,271.99028 v -1.66511 h -0.381 v 1.64747 q 0,0.254 -0.144639,0.39864 -0.141111,0.14464 -0.377472,0.14464 -0.236361,0 -0.377472,-0.14464 -0.141112,-0.14464 -0.141112,-0.39864 v -1.64747 h -0.381 v 1.66511 q 0,0.19403 0.06703,0.3563 0.07056,0.15875 0.1905,0.27164 0.119945,0.11289 0.28575,0.17639 0.165806,0.0635 0.356306,0.0635 0.1905,0 0.356305,-0.0635 0.165806,-0.0635 0.28575,-0.17639 0.123473,-0.11289 0.1905,-0.27164 0.07056,-0.16227 0.07056,-0.3563 z"
         style="fill:#f4da98;fill-opacity:1;stroke-width:0.26458332"
         id="path975" />
      <path
         d="m 24.406059,272.83694 v -0.34219 h -1.210028 v -2.16958 h -0.381 v 2.51177 z"
         style="fill:#f4da98;fill-opacity:1;stroke-width:0.26458332"
         id="path977" />
      <path
         d="m 26.099384,270.66736 v -0.34219 h -1.763889 v 0.34219 h 0.691444 v 2.16958 h 0.381 v -2.16958 z"
         style="fill:#f4da98;fill-opacity:1;stroke-width:0.26458332"
         id="path979" />
      <path
         d="m 26.914299,272.83694 v -2.51177 h -0.381 v 2.51177 z"
         style="fill:#f4da98;fill-opacity:1;stroke-width:0.26458332"
         id="path981" />
    </g>
    <g
       aria-label="SUB"
       style="font-style:normal;font-variant:normal;font-weight:normal;font-stretch:normal;font-size:3.52777767px;line-height:1.25;font-family:DIN;-inkscape-font-specification:DIN;text-align:center;letter-spacing:0px;word-spacing:0px;text-anchor:middle;fill:#f4da98;fill-opacity:1;stroke:none;stroke-width:0.26458332"
       id="text949">
      <path
         d="m 6.802434,272.1314 q 0,-0.16228 -0.052917,-0.29281 -0.049389,-0.13053 -0.1516945,-0.22225 -0.081139,-0.0706 -0.1869722,-0.11289 -0.1058333,-0.0459 -0.2822222,-0.0741 l -0.28575,-0.0423 q -0.1834444,-0.0282 -0.2822222,-0.11641 -0.049389,-0.0459 -0.074083,-0.10231 -0.021167,-0.06 -0.021167,-0.13053 0,-0.16933 0.1164167,-0.27869 0.1199444,-0.11289 0.3421944,-0.11289 0.15875,0 0.2928055,0.0423 0.1375834,0.0388 0.254,0.1517 l 0.2434167,-0.23989 q -0.1622778,-0.15169 -0.3457222,-0.21872 -0.1834445,-0.067 -0.4339167,-0.067 -0.1975555,0 -0.3527777,0.0529 -0.1552223,0.0529 -0.2645834,0.15169 -0.1058333,0.0988 -0.1658055,0.23636 -0.056445,0.13406 -0.056445,0.29634 0,0.30691 0.1834445,0.47977 0.1693333,0.15875 0.47625,0.20109 l 0.2963333,0.0423 q 0.1128889,0.0176 0.1693333,0.0388 0.056444,0.0212 0.1058333,0.067 0.098778,0.0882 0.098778,0.26106 0,0.18344 -0.1375833,0.28575 -0.1340556,0.0988 -0.381,0.0988 -0.1940278,0 -0.34925,-0.0494 -0.1552222,-0.0529 -0.2928055,-0.1905 l -0.254,0.25047 q 0.1799166,0.18344 0.3915833,0.25753 0.2116667,0.0741 0.4974166,0.0741 0.1975556,0 0.3633611,-0.0494 0.1658056,-0.0494 0.28575,-0.14464 0.1199445,-0.0952 0.1869723,-0.23283 0.067028,-0.13758 0.067028,-0.31044 z"
         style="fill:#f4da98;fill-opacity:1;stroke-width:0.26458332"
         id="path966" />
      <path
         d="m 9.0778446,272.00087 v -1.66511 h -0.381 v 1.64747 q 0,0.254 -0.1446389,0.39864 -0.1411111,0.14464 -0.3774722,0.14464 -0.2363611,0 -0.3774722,-0.14464 -0.1411111,-0.14464 -0.1411111,-0.39864 v -1.64747 h -0.381 v 1.66511 q 0,0.19403 0.067028,0.3563 0.070556,0.15875 0.1905,0.27164 0.1199445,0.11289 0.28575,0.17639 0.1658056,0.0635 0.3563056,0.0635 0.1905,0 0.3563055,-0.0635 0.1658056,-0.0635 0.28575,-0.17639 0.1234722,-0.11289 0.1905,-0.27164 0.070556,-0.16227 0.070556,-0.3563 z"
         style="fill:#f4da98;fill-opacity:1;stroke-width:0.26458332"
         id="path968" />
      <path
         d="m 11.469675,272.13845 q 0,-0.11994 -0.03175,-0.21519 -0.03175,-0.0953 -0.08467,-0.16581 -0.05292,-0.0706 -0.119945,-0.11994 -0.06703,-0.0529 -0.141111,-0.0811 0.0635,-0.0247 0.123472,-0.0706 0.05997,-0.0494 0.105834,-0.11641 0.04939,-0.0706 0.07761,-0.15523 0.03175,-0.0882 0.03175,-0.1905 0,-0.32102 -0.204611,-0.50447 -0.201084,-0.18344 -0.553861,-0.18344 H 9.6952032 v 2.51177 h 1.0159998 q 0.165806,0 0.303389,-0.0459 0.141111,-0.0459 0.239889,-0.13405 0.102306,-0.0917 0.15875,-0.22225 0.05644,-0.13406 0.05644,-0.30692 z m -0.419805,-1.10067 q 0,0.17639 -0.112889,0.26812 -0.112889,0.0917 -0.296333,0.0917 h -0.564445 v -0.71967 h 0.564445 q 0.183444,0 0.296333,0.0917 0.112889,0.0917 0.112889,0.26811 z m 0.0388,1.08303 q 0,0.16934 -0.105833,0.2787 -0.105833,0.10583 -0.306917,0.10583 h -0.599722 v -0.76553 h 0.599722 q 0.201084,0 0.306917,0.10584 0.105833,0.10583 0.105833,0.27516 z"
         style="fill:#f4da98;fill-opacity:1;stroke-width:0.26458332"
         id="path970" />
    </g>
    <path
       style="display:inline;fill:#f4da98;fill-opacity:1;stroke:none;stroke-width:0;stroke-miterlimit:4;stroke-dasharray:none;stroke-opacity:1"
       inkscape:transform-center-x="7.4234112"
       inkscape:transform-center-y="5.2919366"
       d="M 13.74,279 A 5.5000001,5.5000001 0 0 1 8.2400004,284.5 5.5000001,5.5000001 0 0 1 2.7399993,279 5.5000001,5.5000001 0 0 1 8.2400004,273.5 5.5000001,5.5000001 0 0 1 13.74,279 Z"
       id="path4964-2-8-0-6-7-3"
       inkscape:connector-curvature="0" />
    <g
       aria-label="Decoder"
       style="font-style:normal;font-variant:normal;font-weight:normal;font-stretch:normal;font-size:4.23333311px;line-height:1.25;font-family:DIN;-inkscape-font-specification:DIN;text-align:center;letter-spacing:0px;word-spacing:0px;text-anchor:middle;fill:#000000;fill-opacity:1;stroke:none;stroke-width:0.26458332"
       id="text1001"
       transform="translate(23.061725,11.534186)">
      <path
         d="m -13.367416,167.14884 q 0,-0.16509 -0.0042,-0.32596 0,-0.16087 -0.0254,-0.31327 -0.0254,-0.15663 -0.0889,-0.29633 -0.0635,-0.14393 -0.186266,-0.2667 -0.143934,-0.14393 -0.3429,-0.21167 -0.198967,-0.072 -0.436034,-0.072 h -1.058333 v 3.01413 h 1.058333 q 0.237067,0 0.436034,-0.0677 0.198966,-0.072 0.3429,-0.2159 0.122766,-0.12276 0.186266,-0.27093 0.0635,-0.14817 0.0889,-0.30903 0.0254,-0.16087 0.0254,-0.3302 0.0042,-0.16934 0.0042,-0.33444 z m -0.4572,0 q 0,0.31327 -0.02117,0.55034 -0.02117,0.23283 -0.1397,0.36406 -0.186267,0.2032 -0.512233,0.2032 h -0.554567 v -2.19286 h 0.554567 q 0.325966,0 0.512233,0.2032 0.118533,0.13123 0.1397,0.34713 0.02117,0.21167 0.02117,0.52493 z"
         style="fill:#f4da98;fill-opacity:1;stroke-width:0.26458332"
         id="path1003"
         inkscape:connector-curvature="0" />
      <path
         d="m -11.030623,167.72881 v -0.1905 q 0,-0.2286 -0.0635,-0.4191 -0.05927,-0.1905 -0.1778,-0.32596 -0.1143,-0.13547 -0.283633,-0.21167 -0.169333,-0.0762 -0.385233,-0.0762 -0.414867,0 -0.664634,0.28787 -0.245533,0.28363 -0.245533,0.80856 0,0.3048 0.0762,0.51647 0.0762,0.21166 0.2032,0.3429 0.131233,0.127 0.3048,0.18626 0.1778,0.055 0.381,0.055 0.1397,0 0.249767,-0.0212 0.1143,-0.0212 0.207433,-0.0635 0.09737,-0.0423 0.1778,-0.1016 0.08467,-0.0635 0.169333,-0.14817 l -0.275166,-0.25823 q -0.1143,0.1143 -0.2286,0.16933 -0.110067,0.0508 -0.2921,0.0508 -0.2667,0 -0.4064,-0.16086 -0.1397,-0.16087 -0.1397,-0.44027 z m -0.427566,-0.30057 h -0.9652 q 0.0042,-0.0974 0.0127,-0.15663 0.0085,-0.0635 0.04233,-0.13547 0.0508,-0.12276 0.160867,-0.19473 0.1143,-0.0762 0.2667,-0.0762 0.1524,0 0.262466,0.0762 0.110067,0.072 0.160867,0.19473 0.03387,0.072 0.04233,0.13547 0.0127,0.0593 0.01693,0.15663 z"
         style="fill:#f4da98;fill-opacity:1;stroke-width:0.26458332"
         id="path1005"
         inkscape:connector-curvature="0" />
      <path
         d="m -8.9054914,168.39768 -0.2963333,-0.28364 q -0.1016,0.11007 -0.1947333,0.15664 -0.0889,0.0466 -0.2159,0.0466 -0.254,0 -0.397933,-0.1905 -0.07197,-0.0889 -0.1016,-0.21166 -0.0254,-0.12277 -0.0254,-0.31327 0,-0.1905 0.0254,-0.30903 0.02963,-0.12277 0.1016,-0.21167 0.143933,-0.1905 0.397933,-0.1905 0.127,0 0.2159,0.0466 0.093133,0.0466 0.1947333,0.15663 l 0.2963333,-0.28786 q -0.1524,-0.16087 -0.3175,-0.2286 -0.1651,-0.072 -0.3894666,-0.072 -0.1820333,0 -0.3556,0.0593 -0.169333,0.0593 -0.3048,0.1905 -0.131233,0.127 -0.2159,0.33866 -0.08043,0.20743 -0.08043,0.508 0,0.30057 0.08043,0.51223 0.08467,0.20744 0.2159,0.33867 0.135467,0.13123 0.3048,0.1905 0.1735667,0.0593 0.3556,0.0593 0.2243666,0 0.3894666,-0.072 0.1651,-0.072 0.3175,-0.23283 z"
         style="fill:#f4da98;fill-opacity:1;stroke-width:0.26458332"
         id="path1007"
         inkscape:connector-curvature="0" />
      <path
         d="m -6.7888312,167.60181 q 0,-0.27093 -0.0508,-0.47413 -0.0508,-0.20743 -0.2032,-0.3683 -0.1058333,-0.11007 -0.2667,-0.18203 -0.1566333,-0.072 -0.3767666,-0.072 -0.2201333,0 -0.3767666,0.072 -0.1566334,0.072 -0.2624667,0.18203 -0.1524,0.16087 -0.2032,0.3683 -0.0508,0.2032 -0.0508,0.47413 0,0.27517 0.0508,0.4826 0.0508,0.2032 0.2032,0.36407 0.1058333,0.11006 0.2624667,0.18203 0.1566333,0.072 0.3767666,0.072 0.2201333,0 0.3767666,-0.072 0.1608667,-0.072 0.2667,-0.18203 0.1524,-0.16087 0.2032,-0.36407 0.0508,-0.20743 0.0508,-0.4826 z m -0.4318,0 q 0,0.1778 -0.0254,0.33443 -0.0254,0.15664 -0.1227666,0.254 -0.127,0.127 -0.3175,0.127 -0.1862667,0 -0.3132666,-0.127 -0.097367,-0.0974 -0.1227667,-0.254 -0.0254,-0.15663 -0.0254,-0.33443 0,-0.1778 0.0254,-0.33443 0.0254,-0.15664 0.1227667,-0.254 0.1227666,-0.12277 0.3132666,-0.12277 0.1947333,0 0.3175,0.12277 0.097367,0.0974 0.1227666,0.254 0.0254,0.15663 0.0254,0.33443 z"
         style="fill:#f4da98;fill-opacity:1;stroke-width:0.26458332"
         id="path1009"
         inkscape:connector-curvature="0" />
      <path
         d="m -4.5494034,168.67708 v -3.01413 h -0.4318 v 1.08373 q -0.1185333,-0.1397 -0.254,-0.1905 -0.1354666,-0.0508 -0.3090333,-0.0508 -0.1608666,0 -0.2963333,0.0508 -0.1354667,0.0508 -0.2243666,0.1397 -0.080433,0.0804 -0.1312334,0.18627 -0.046567,0.10583 -0.071967,0.22436 -0.0254,0.11853 -0.033867,0.24553 -0.00423,0.127 -0.00423,0.24977 0,0.12277 0.00423,0.24977 0.00847,0.127 0.033867,0.24976 0.0254,0.11854 0.071967,0.22437 0.0508,0.10583 0.1312334,0.18627 0.0889,0.0889 0.2243666,0.1397 0.1397,0.0508 0.3005667,0.0508 0.1777999,0 0.3090333,-0.0508 0.1354666,-0.055 0.2582333,-0.2032 v 0.2286 z m -0.4318,-1.07527 q 0,0.14393 -0.016933,0.27517 -0.0127,0.127 -0.059267,0.2286 -0.046567,0.0974 -0.1354666,0.15663 -0.0889,0.055 -0.2328334,0.055 -0.1481666,0 -0.2370666,-0.055 -0.084667,-0.0593 -0.1354667,-0.15663 -0.046567,-0.1016 -0.0635,-0.2286 -0.0127,-0.13124 -0.0127,-0.27517 0,-0.14393 0.0127,-0.27093 0.016933,-0.13124 0.0635,-0.2286 0.0508,-0.0974 0.1354667,-0.1524 0.0889,-0.0593 0.2370666,-0.0593 0.1439334,0 0.2328334,0.0593 0.0889,0.055 0.1354666,0.1524 0.046567,0.0974 0.059267,0.2286 0.016933,0.127 0.016933,0.27093 z"
         style="fill:#f4da98;fill-opacity:1;stroke-width:0.26458332"
         id="path1013"
         inkscape:connector-curvature="0" />
      <path
         d="m -2.153339,167.72881 v -0.1905 q 0,-0.2286 -0.0635,-0.4191 -0.059267,-0.1905 -0.1778,-0.32596 -0.1143,-0.13547 -0.2836333,-0.21167 -0.1693333,-0.0762 -0.3852333,-0.0762 -0.4148667,0 -0.6646333,0.28787 -0.2455333,0.28363 -0.2455333,0.80856 0,0.3048 0.0762,0.51647 0.0762,0.21166 0.2032,0.3429 0.1312333,0.127 0.3047999,0.18626 0.1778,0.055 0.381,0.055 0.1397,0 0.2497667,-0.0212 0.1143,-0.0212 0.2074333,-0.0635 0.097367,-0.0423 0.1778,-0.1016 0.084667,-0.0635 0.1693333,-0.14817 l -0.2751666,-0.25823 q -0.1143,0.1143 -0.2286,0.16933 -0.1100667,0.0508 -0.2921,0.0508 -0.2667,0 -0.4064,-0.16086 -0.1397,-0.16087 -0.1397,-0.44027 z m -0.4275666,-0.30057 h -0.9652 q 0.00423,-0.0974 0.0127,-0.15663 0.00847,-0.0635 0.042333,-0.13547 0.0508,-0.12276 0.1608667,-0.19473 0.1143,-0.0762 0.2667,-0.0762 0.1524,0 0.2624666,0.0762 0.1100667,0.072 0.1608667,0.19473 0.033867,0.072 0.042333,0.13547 0.0127,0.0593 0.016934,0.15663 z"
         style="fill:#f4da98;fill-opacity:1;stroke-width:0.26458332"
         id="path1015"
         inkscape:connector-curvature="0" />
      <path
         d="m -0.074774,166.70858 q -0.11006666,-0.11007 -0.23283332,-0.15663 -0.12276666,-0.0466 -0.27939998,-0.0466 -0.18203333,0 -0.33443332,0.072 -0.15239998,0.072 -0.23706668,0.18626 v -0.23283 h -0.4233333 v 2.1463 h 0.4318 v -1.30387 q 0,-0.22437 0.1227667,-0.35136 0.12699995,-0.13124 0.30479994,-0.13124 0.11006666,0 0.17779999,0.0381 0.0719667,0.0339 0.14393332,0.10584 z"
         style="fill:#f4da98;fill-opacity:1;stroke-width:0.26458332"
         id="path1017"
         inkscape:connector-curvature="0" />
    </g>
    <g
       aria-label="INS"
       style="font-style:normal;font-variant:normal;font-weight:normal;font-stretch:normal;font-size:3.52777767px;line-height:1.25;font-family:DIN;-inkscape-font-specification:DIN;text-align:center;letter-spacing:0px;word-spacing:0px;text-anchor:middle;fill:#000000;fill-opacity:1;stroke:none;stroke-width:0.26458332"
       id="text1024">
      <path
         d="m 13.043963,221.98297 v -2.51178 h -0.381 v 2.51178 z"
         style="fill:#f4da98;fill-opacity:1;stroke-width:0.26458332"
         id="path1052" />
      <path
         d="m 15.591014,221.98297 v -2.51178 h -0.381 v 1.76389 l -1.160639,-1.76389 h -0.34925 v 2.51178 h 0.381 v -1.76742 l 1.160639,1.76742 z"
         style="fill:#f4da98;fill-opacity:1;stroke-width:0.26458332"
         id="path1054" />
      <path
         d="m 17.817036,221.26683 q 0,-0.16228 -0.05292,-0.2928 -0.04939,-0.13053 -0.151694,-0.22225 -0.08114,-0.0706 -0.186973,-0.11289 -0.105833,-0.0459 -0.282222,-0.0741 l -0.28575,-0.0423 q -0.183444,-0.0282 -0.282222,-0.11642 -0.04939,-0.0459 -0.07408,-0.1023 -0.02117,-0.06 -0.02117,-0.13053 0,-0.16933 0.116417,-0.27869 0.119944,-0.11289 0.342194,-0.11289 0.15875,0 0.292806,0.0423 0.137583,0.0388 0.254,0.1517 l 0.243416,-0.23989 q -0.162278,-0.1517 -0.345722,-0.21873 -0.183444,-0.067 -0.433917,-0.067 -0.197555,0 -0.352777,0.0529 -0.155223,0.0529 -0.264584,0.1517 -0.105833,0.0988 -0.165805,0.23636 -0.05644,0.13405 -0.05644,0.29633 0,0.30692 0.183445,0.47978 0.169333,0.15875 0.47625,0.20108 l 0.296333,0.0423 q 0.112889,0.0176 0.169333,0.0388 0.05645,0.0212 0.105834,0.067 0.09878,0.0882 0.09878,0.26106 0,0.18344 -0.137583,0.28575 -0.134055,0.0988 -0.381,0.0988 -0.194028,0 -0.34925,-0.0494 -0.155222,-0.0529 -0.292805,-0.1905 l -0.254,0.25048 q 0.179916,0.18344 0.391583,0.25752 0.211667,0.0741 0.497417,0.0741 0.197555,0 0.363361,-0.0494 0.165805,-0.0494 0.28575,-0.14464 0.119944,-0.0953 0.186972,-0.23283 0.06703,-0.13759 0.06703,-0.31045 z"
         style="fill:#f4da98;fill-opacity:1;stroke-width:0.26458332"
         id="path1056" />
    </g>
    <g
       aria-label="LT"
       style="font-style:normal;font-variant:normal;font-weight:normal;font-stretch:normal;font-size:3.52777767px;line-height:1.25;font-family:DIN;-inkscape-font-specification:DIN;text-align:center;letter-spacing:0px;word-spacing:0px;text-anchor:middle;fill:#f4da98;fill-opacity:1;stroke:none;stroke-width:0.26458332"
       id="text1028">
      <path
         d="m 8.1888513,225.37674 v -0.34219 H 6.9788235 v -2.16959 h -0.381 v 2.51178 z"
         style="fill:#f4da98;fill-opacity:1;stroke-width:0.26458332"
         id="path1047" />
      <path
         d="m 9.882176,223.20716 v -0.3422 H 8.1182871 v 0.3422 h 0.6914444 v 2.16958 h 0.381 v -2.16958 z"
         style="fill:#f4da98;fill-opacity:1;stroke-width:0.26458332"
         id="path1049" />
    </g>
    <g
       aria-label="RT"
       style="font-style:normal;font-variant:normal;font-weight:normal;font-stretch:normal;font-size:3.52777767px;line-height:1.25;font-family:DIN;-inkscape-font-specification:DIN;text-align:center;letter-spacing:0px;word-spacing:0px;text-anchor:middle;fill:#f4da98;fill-opacity:1;stroke:none;stroke-width:0.26458332"
       id="text1032">
      <path
         d="m 22.144752,225.37674 -0.578556,-1.11125 q 0.211667,-0.06 0.356306,-0.22578 0.144639,-0.16933 0.144639,-0.44097 0,-0.15875 -0.05645,-0.29281 -0.05292,-0.13758 -0.155222,-0.23283 -0.102305,-0.0988 -0.246944,-0.15169 -0.141111,-0.0565 -0.321028,-0.0565 h -0.973667 v 2.51178 h 0.381 v -1.05833 h 0.47625 l 0.529167,1.05833 z m -0.458611,-1.77447 q 0,0.18697 -0.119945,0.28928 -0.116416,0.1023 -0.306916,0.1023 h -0.564445 v -0.78669 h 0.564445 q 0.1905,0 0.306916,0.10583 0.119945,0.10231 0.119945,0.28928 z"
         style="fill:#f4da98;fill-opacity:1;stroke-width:0.26458332"
         id="path1042" />
      <path
         d="m 24.166164,223.20716 v -0.3422 h -1.763889 v 0.3422 h 0.691445 v 2.16958 h 0.381 v -2.16958 z"
         style="fill:#f4da98;fill-opacity:1;stroke-width:0.26458332"
         id="path1044" />
    </g>
    <flowRoot
       xml:space="preserve"
       id="flowRoot1034"
       style="fill:black;fill-opacity:1;stroke:none;font-family:DIN;font-style:normal;font-weight:normal;font-size:13.33333333px;line-height:1.25;letter-spacing:0px;word-spacing:0px;-inkscape-font-specification:DIN;font-stretch:normal;font-variant:normal;text-anchor:middle;text-align:center"><flowRegion
         id="flowRegion1036"><rect
           id="rect1038"
           width="108.21429"
           height="33.214287"
           x="-130.71428"
           y="176.02643" /></flowRegion><flowPara
         id="flowPara1040" /></flowRoot>    <g
       aria-label="F/S BALANCE"
       style="font-style:normal;font-variant:normal;font-weight:normal;font-stretch:normal;font-size:3.52777767px;line-height:1.25;font-family:DIN;-inkscape-font-specification:DIN;text-align:center;letter-spacing:0px;word-spacing:0px;text-anchor:middle;fill:#f4da98;fill-opacity:1;stroke:none;stroke-width:0.26458332"
       id="text1065">
      <path
         d="m 6.1083709,201.09037 v -0.3422 H 4.5032321 v 2.51178 h 0.381 v -1.06186 h 1.0442222 v -0.3422 H 4.8842321 v -0.76552 z"
         style="fill:#f4da98;fill-opacity:1;stroke-width:0.26458332"
         id="path1067" />
      <path
         d="M 7.5900343,200.48712 H 7.2443121 L 6.2388955,203.521 h 0.3457222 z"
         style="fill:#f4da98;fill-opacity:1;stroke-width:0.26458332"
         id="path1069" />
      <path
         d="m 9.4773924,202.54381 q 0,-0.16228 -0.052917,-0.29281 -0.049389,-0.13052 -0.1516944,-0.22225 -0.081139,-0.0705 -0.1869722,-0.11288 -0.1058333,-0.0459 -0.2822222,-0.0741 l -0.28575,-0.0423 q -0.1834445,-0.0282 -0.2822222,-0.11642 -0.049389,-0.0459 -0.074083,-0.1023 -0.021167,-0.06 -0.021167,-0.13053 0,-0.16933 0.1164166,-0.2787 0.1199445,-0.11288 0.3421945,-0.11288 0.15875,0 0.2928055,0.0423 0.1375833,0.0388 0.254,0.15169 l 0.2434167,-0.23989 q -0.1622778,-0.15169 -0.3457222,-0.21872 -0.1834445,-0.067 -0.4339167,-0.067 -0.1975555,0 -0.3527778,0.0529 -0.1552222,0.0529 -0.2645833,0.1517 -0.1058333,0.0988 -0.1658055,0.23636 -0.056444,0.13405 -0.056444,0.29633 0,0.30692 0.1834445,0.47978 0.1693333,0.15875 0.4762499,0.20108 l 0.2963334,0.0423 q 0.1128889,0.0176 0.1693333,0.0388 0.056444,0.0212 0.1058333,0.067 0.098778,0.0882 0.098778,0.26105 0,0.18345 -0.1375833,0.28575 -0.1340556,0.0988 -0.381,0.0988 -0.1940278,0 -0.34925,-0.0494 -0.1552222,-0.0529 -0.2928056,-0.1905 l -0.2539999,0.25047 q 0.1799166,0.18345 0.3915833,0.25753 0.2116666,0.0741 0.4974166,0.0741 0.1975556,0 0.3633611,-0.0494 0.1658056,-0.0494 0.28575,-0.14464 0.1199445,-0.0952 0.1869722,-0.23284 0.067028,-0.13758 0.067028,-0.31044 z"
         style="fill:#f4da98;fill-opacity:1;stroke-width:0.26458332"
         id="path1071" />
      <path
         d="m 12.610052,202.55087 q 0,-0.11995 -0.03175,-0.2152 -0.03175,-0.0952 -0.08467,-0.1658 -0.05292,-0.0706 -0.119944,-0.11995 -0.06703,-0.0529 -0.141111,-0.0811 0.0635,-0.0247 0.123472,-0.0705 0.05997,-0.0494 0.105833,-0.11642 0.04939,-0.0706 0.07761,-0.15522 0.03175,-0.0882 0.03175,-0.1905 0,-0.32103 -0.204612,-0.50447 -0.201083,-0.18345 -0.553861,-0.18345 H 10.83558 v 2.51178 h 1.016 q 0.165805,0 0.303389,-0.0459 0.141111,-0.0459 0.239889,-0.13406 0.102305,-0.0917 0.15875,-0.22225 0.05644,-0.13405 0.05644,-0.30691 z m -0.419805,-1.10067 q 0,0.17639 -0.112889,0.26811 -0.112889,0.0917 -0.296334,0.0917 H 11.21658 v -0.71966 h 0.564444 q 0.183445,0 0.296334,0.0917 0.112889,0.0917 0.112889,0.26811 z m 0.0388,1.08303 q 0,0.16933 -0.105833,0.27869 -0.105834,0.10583 -0.306917,0.10583 H 11.21658 v -0.76552 h 0.599722 q 0.201083,0 0.306917,0.10583 0.105833,0.10583 0.105833,0.27517 z"
         style="fill:#f4da98;fill-opacity:1;stroke-width:0.26458332"
         id="path1073" />
      <path
         d="m 15.023046,203.25995 -0.92075,-2.51178 h -0.306917 l -0.92075,2.51178 h 0.405694 l 0.172861,-0.50447 h 0.991306 l 0.172861,0.50447 z m -0.684389,-0.82903 h -0.772584 l 0.391584,-1.11478 z"
         style="fill:#f4da98;fill-opacity:1;stroke-width:0.26458332"
         id="path1075" />
      <path
         d="m 16.970372,203.25995 v -0.3422 h -1.210028 v -2.16958 h -0.381 v 2.51178 z"
         style="fill:#f4da98;fill-opacity:1;stroke-width:0.26458332"
         id="path1077" />
      <path
         d="m 19.252842,203.25995 -0.92075,-2.51178 h -0.306917 l -0.92075,2.51178 h 0.405695 l 0.172861,-0.50447 h 0.991305 l 0.172862,0.50447 z m -0.684389,-0.82903 H 17.79587 l 0.391583,-1.11478 z"
         style="fill:#f4da98;fill-opacity:1;stroke-width:0.26458332"
         id="path1079" />
      <path
         d="m 21.50003,203.25995 v -2.51178 h -0.381 v 1.76389 l -1.160639,-1.76389 h -0.34925 v 2.51178 h 0.381 v -1.76742 l 1.160639,1.76742 z"
         style="fill:#f4da98;fill-opacity:1;stroke-width:0.26458332"
         id="path1081" />
      <path
         d="m 23.863634,202.50853 h -0.384527 q -0.04586,0.1905 -0.172861,0.31045 -0.127,0.11994 -0.338667,0.11994 -0.112889,0 -0.208139,-0.0388 -0.09525,-0.0423 -0.162278,-0.11289 -0.04586,-0.0494 -0.07761,-0.10584 -0.02822,-0.06 -0.04586,-0.14464 -0.01411,-0.0882 -0.02117,-0.21519 -0.0071,-0.127 -0.0071,-0.3175 0,-0.1905 0.0071,-0.3175 0.0071,-0.127 0.02117,-0.21167 0.01764,-0.0882 0.04586,-0.14464 0.03175,-0.06 0.07761,-0.10936 0.06703,-0.0705 0.162278,-0.10936 0.09525,-0.0423 0.208139,-0.0423 0.211667,0 0.335139,0.11994 0.127,0.11995 0.172861,0.31045 h 0.388055 q -0.06703,-0.37747 -0.306916,-0.57503 -0.239889,-0.19756 -0.589139,-0.19756 -0.197556,0 -0.363361,0.0706 -0.165806,0.067 -0.296334,0.19756 -0.09172,0.0917 -0.141111,0.19402 -0.04939,0.10231 -0.07408,0.22225 -0.02117,0.11995 -0.02469,0.26811 -0.0035,0.14464 -0.0035,0.32456 0,0.17992 0.0035,0.32808 0.0035,0.14464 0.02469,0.26459 0.02469,0.11994 0.07408,0.22225 0.04939,0.1023 0.141111,0.19402 0.130528,0.13053 0.296334,0.20109 0.165805,0.067 0.363361,0.067 0.169333,0 0.3175,-0.0494 0.151694,-0.0494 0.268111,-0.14817 0.119944,-0.0988 0.197556,-0.24342 0.08114,-0.14464 0.112888,-0.33161 z"
         style="fill:#f4da98;fill-opacity:1;stroke-width:0.26458332"
         id="path1083" />
      <path
         d="m 25.976768,203.25995 v -0.3422 h -1.224139 v -0.75494 h 1.044222 v -0.33867 h -1.044222 v -0.73377 h 1.224139 v -0.3422 h -1.605139 v 2.51178 z"
         style="fill:#f4da98;fill-opacity:1;stroke-width:0.26458332"
         id="path1085" />
    </g>
    <g
       aria-label="F"
       style="font-style:normal;font-variant:normal;font-weight:normal;font-stretch:normal;font-size:2.82222223px;line-height:1.25;font-family:DIN;-inkscape-font-specification:DIN;text-align:center;letter-spacing:0px;word-spacing:0px;text-anchor:middle;fill:#f4da98;fill-opacity:1;stroke:none;stroke-width:0.26458332"
       id="text1090"
       transform="translate(1.5875)">
      <path
         d="m 6.7653887,215.56072 v -0.27376 H 5.4812776 v 2.00943 h 0.3048 v -0.84949 h 0.8353778 v -0.27376 H 5.7860776 v -0.61242 z"
         style="fill:#f4da98;fill-opacity:1;stroke-width:0.26458332"
         id="path1099"
         inkscape:connector-curvature="0" />
    </g>
    <g
       aria-label="S"
       style="font-style:normal;font-variant:normal;font-weight:normal;font-stretch:normal;font-size:2.82222223px;line-height:1.25;font-family:DIN;-inkscape-font-specification:DIN;text-align:center;letter-spacing:0px;word-spacing:0px;text-anchor:middle;fill:#f4da98;fill-opacity:1;stroke:none;stroke-width:0.26458332"
       id="text1094"
       transform="translate(-1.5875)">
      <path
         d="m 25.073513,216.72348 q 0,-0.12983 -0.04233,-0.23425 -0.03951,-0.10442 -0.121356,-0.1778 -0.06491,-0.0564 -0.149578,-0.0903 -0.08467,-0.0367 -0.225777,-0.0593 l -0.2286,-0.0339 q -0.146756,-0.0226 -0.225778,-0.0931 -0.03951,-0.0367 -0.05927,-0.0818 -0.01693,-0.048 -0.01693,-0.10442 0,-0.13547 0.09313,-0.22296 0.09596,-0.0903 0.273756,-0.0903 0.127,0 0.234244,0.0339 0.110067,0.031 0.2032,0.12135 l 0.194733,-0.19191 q -0.129822,-0.12135 -0.276577,-0.17498 -0.146756,-0.0536 -0.347134,-0.0536 -0.158044,0 -0.282222,0.0423 -0.124178,0.0423 -0.211667,0.12136 -0.08467,0.079 -0.132644,0.18909 -0.04516,0.10724 -0.04516,0.23707 0,0.24553 0.146756,0.38382 0.135467,0.127 0.381,0.16086 l 0.237067,0.0339 q 0.09031,0.0141 0.135466,0.031 0.04516,0.0169 0.08467,0.0536 0.07902,0.0705 0.07902,0.20884 0,0.14676 -0.110066,0.2286 -0.107245,0.079 -0.3048,0.079 -0.155223,0 -0.2794,-0.0395 -0.124178,-0.0423 -0.234245,-0.1524 l -0.2032,0.20038 q 0.143933,0.14676 0.313267,0.20602 0.169333,0.0593 0.397933,0.0593 0.158045,0 0.290689,-0.0395 0.132644,-0.0395 0.2286,-0.11571 0.09596,-0.0762 0.149578,-0.18627 0.05362,-0.11007 0.05362,-0.24835 z"
         style="fill:#f4da98;fill-opacity:1;stroke-width:0.26458332"
         id="path1096"
         inkscape:connector-curvature="0" />
    </g>
  </g>
  <g
     inkscape:groupmode="layer"
     id="layer3"
     inkscape:label="components"
     style="display:none">
    <circle
       style="display:inline;fill:#00ff00;fill-opacity:1;stroke:none;stroke-width:1;stroke-miterlimit:4;stroke-dasharray:none;stroke-opacity:1"
       id="path1034-5-0"
       cx="22.24"
       cy="44.5"
       r="1" />
    <circle
       style="display:inline;fill:#ff0000;fill-opacity:1;stroke:none;stroke-width:1;stroke-miterlimit:4;stroke-dasharray:none;stroke-opacity:1"
       id="path1034-8-3-6"
       cx="15.24"
       cy="24.500002"
       r="1" />
    <circle
       style="display:inline;fill:#00ff00;fill-opacity:1;stroke:none;stroke-width:1;stroke-miterlimit:4;stroke-dasharray:none;stroke-opacity:1"
       id="path1034-5-0-3"
       cx="8.2399998"
       cy="44.5"
       r="1" />
    <circle
       style="display:inline;fill:#0000ff;fill-opacity:1;stroke:none;stroke-width:1;stroke-miterlimit:4;stroke-dasharray:none;stroke-opacity:1"
       id="path1034-5-0-3-5-9-7-0"
       cx="15.24"
       cy="110.5"
       r="1" />
    <circle
       style="display:inline;fill:#ff00ff;fill-opacity:1;stroke:none;stroke-width:1;stroke-miterlimit:4;stroke-dasharray:none;stroke-opacity:1"
       id="path1034-5-0-3-5-9-7-9-3"
       cx="24.23583"
       cy="110.5"
       r="1" />
    <circle
       style="display:inline;fill:#ff00ff;fill-opacity:1;stroke:none;stroke-width:1;stroke-miterlimit:4;stroke-dasharray:none;stroke-opacity:1"
       id="path1034-5-0-3-5-9-7-9-6"
       cx="12.74"
       cy="39.208332"
       r="1" />
    <circle
       style="display:inline;fill:#ff00ff;fill-opacity:1;stroke:none;stroke-width:1;stroke-miterlimit:4;stroke-dasharray:none;stroke-opacity:1"
       id="path1034-5-0-3-5-9-7-9-6-0"
       cx="17.74"
       cy="39.208332"
       r="1" />
    <circle
       style="display:inline;fill:#ff00ff;fill-opacity:1;stroke:none;stroke-width:1;stroke-miterlimit:4;stroke-dasharray:none;stroke-opacity:1"
       id="path1034-5-0-3-5-9-7-9-6-6"
       cx="12.74"
       cy="73.208328"
       r="1" />
    <circle
       style="display:inline;fill:#ff00ff;fill-opacity:1;stroke:none;stroke-width:1;stroke-miterlimit:4;stroke-dasharray:none;stroke-opacity:1"
       id="path1034-5-0-3-5-9-7-9-6-2"
       cx="17.74"
       cy="73.208328"
       r="1" />
    <circle
       style="display:inline;fill:#ff00ff;fill-opacity:1;stroke:none;stroke-width:1;stroke-miterlimit:4;stroke-dasharray:none;stroke-opacity:1"
       id="path1034-5-0-3-5-9-7-9-6-6-1"
       cx="12.74"
       cy="89.208336"
       r="1" />
    <circle
       style="display:inline;fill:#ff00ff;fill-opacity:1;stroke:none;stroke-width:1;stroke-miterlimit:4;stroke-dasharray:none;stroke-opacity:1"
       id="path1034-5-0-3-5-9-7-9-6-2-8"
       cx="17.74"
       cy="89.208336"
       r="1" />
    <circle
       style="display:inline;fill:#0000ff;fill-opacity:1;stroke:none;stroke-width:1;stroke-miterlimit:4;stroke-dasharray:none;stroke-opacity:1"
       id="path1034-5-0-3-5-9-7-3"
       cx="8.2399998"
       cy="94.5"
       r="1" />
    <circle
       style="display:inline;fill:#0000ff;fill-opacity:1;stroke:none;stroke-width:1;stroke-miterlimit:4;stroke-dasharray:none;stroke-opacity:1"
       id="path1034-5-0-3-5-9-7-5"
       cx="22.24"
       cy="94.5"
       r="1" />
    <circle
       style="display:inline;fill:#0000ff;fill-opacity:1;stroke:none;stroke-width:1;stroke-miterlimit:4;stroke-dasharray:none;stroke-opacity:1"
       id="path1034-5-0-3-5-9-7-6"
       cx="22.24"
       cy="78.5"
       r="1" />
    <circle
       style="display:inline;fill:#0000ff;fill-opacity:1;stroke:none;stroke-width:1;stroke-miterlimit:4;stroke-dasharray:none;stroke-opacity:1"
       id="path1034-5-0-3-5-9-7-2"
       cx="8.2399998"
       cy="78.5"
       r="1" />
  </g>
</svg>
