<?xml version="1.0" encoding="UTF-8" standalone="no"?>
<!-- Created with Inkscape (http://www.inkscape.org/) -->

<svg
   xmlns:dc="http://purl.org/dc/elements/1.1/"
   xmlns:cc="http://creativecommons.org/ns#"
   xmlns:rdf="http://www.w3.org/1999/02/22-rdf-syntax-ns#"
   xmlns:svg="http://www.w3.org/2000/svg"
   xmlns="http://www.w3.org/2000/svg"
   xmlns:xlink="http://www.w3.org/1999/xlink"
   xmlns:sodipodi="http://sodipodi.sourceforge.net/DTD/sodipodi-0.dtd"
   xmlns:inkscape="http://www.inkscape.org/namespaces/inkscape"
   width="60.959999mm"
   height="128.5mm"
   viewBox="0 0 60.959999 128.5"
   version="1.1"
   id="svg2232"
   inkscape:version="0.92.5 (2060ec1f9f, 2020-04-08)"
   sodipodi:docname="Quad_Panner.svg">
  <defs
     id="defs2226">
    <linearGradient
       inkscape:collect="always"
       id="linearGradient3006">
      <stop
         style="stop-color:#646464;stop-opacity:1"
         offset="0"
         id="stop3002" />
      <stop
         style="stop-color:#353535;stop-opacity:1"
         offset="1"
         id="stop3004" />
    </linearGradient>
    <linearGradient
       inkscape:collect="always"
       xlink:href="#linearGradient4408"
       id="linearGradient4954-6"
       gradientUnits="userSpaceOnUse"
       x1="110.74702"
       y1="130.87947"
       x2="111.50298"
       y2="242.57143"
       gradientTransform="matrix(1.3318125,0,0,0.99973634,-112.41675,-125.49794)" />
    <linearGradient
       inkscape:collect="always"
       id="linearGradient4408">
      <stop
         style="stop-color:#333131;stop-opacity:1"
         offset="0"
         id="stop4404" />
      <stop
         style="stop-color:#292727;stop-opacity:1"
         offset="1"
         id="stop4406" />
    </linearGradient>
    <radialGradient
       inkscape:collect="always"
       xlink:href="#linearGradient3006"
       id="radialGradient3008"
       cx="-50.648808"
       cy="230.38168"
       fx="-50.648808"
       fy="230.38168"
       r="20"
       gradientUnits="userSpaceOnUse"
       gradientTransform="translate(81.128807,20.618309)" />
  </defs>
  <sodipodi:namedview
     id="base"
     pagecolor="#ffffff"
     bordercolor="#666666"
     borderopacity="1.0"
     inkscape:pageopacity="0.0"
     inkscape:pageshadow="2"
     inkscape:zoom="1.979899"
     inkscape:cx="268.47913"
     inkscape:cy="140.70944"
     inkscape:document-units="mm"
     inkscape:current-layer="layer1"
     showgrid="false"
     showguides="true"
     inkscape:guide-bbox="true"
     inkscape:window-width="1920"
     inkscape:window-height="1033"
     inkscape:window-x="0"
     inkscape:window-y="0"
     inkscape:window-maximized="1"
     inkscape:snap-text-baseline="true"
     inkscape:snap-bbox="true"
     inkscape:bbox-nodes="false"
     inkscape:snap-bbox-edge-midpoints="false"
     inkscape:snap-bbox-midpoints="true"
     inkscape:snap-object-midpoints="true"
     inkscape:snap-nodes="false"
     inkscape:snap-others="true">
    <sodipodi:guide
       position="9.2604168,122"
       orientation="0,1"
       id="guide2805"
       inkscape:locked="false"
       inkscape:label=""
       inkscape:color="rgb(0,0,255)" />
    <sodipodi:guide
       position="30.48,101.865"
       orientation="1,0"
       id="guide2809"
       inkscape:locked="false"
       inkscape:label=""
       inkscape:color="rgb(0,0,255)" />
    <sodipodi:guide
       position="-17.372519,84.000001"
       orientation="0,1"
       id="guide3010"
       inkscape:locked="false"
       inkscape:label=""
       inkscape:color="rgb(0,0,255)" />
    <sodipodi:guide
       position="38.486812,100"
       orientation="0,1"
       id="guide3012"
       inkscape:locked="false"
       inkscape:label=""
       inkscape:color="rgb(0,0,255)" />
    <sodipodi:guide
       position="37.480001,100"
       orientation="1,0"
       id="guide3014"
       inkscape:locked="false"
       inkscape:label=""
       inkscape:color="rgb(0,0,255)" />
    <sodipodi:guide
       position="30.48,12"
       orientation="0,1"
       id="guide3110"
       inkscape:locked="false"
       inkscape:label=""
       inkscape:color="rgb(0,0,255)" />
    <sodipodi:guide
       position="-6.4144687,46.000001"
       orientation="0,1"
       id="guide3142"
       inkscape:locked="false"
       inkscape:label=""
       inkscape:color="rgb(0,0,255)" />
    <sodipodi:guide
       position="39.781995,111"
       orientation="0,1"
       id="guide3195"
       inkscape:locked="false"
       inkscape:label=""
       inkscape:color="rgb(0,0,255)" />
    <sodipodi:guide
       position="51.480001,102.89877"
       orientation="1,0"
       id="guide3201"
       inkscape:locked="false"
       inkscape:label=""
       inkscape:color="rgb(0,0,255)" />
    <sodipodi:guide
       position="23.48,110"
       orientation="1,0"
       id="guide3296"
       inkscape:locked="false"
       inkscape:label=""
       inkscape:color="rgb(0,0,255)" />
    <sodipodi:guide
       position="9.4799998,104.90329"
       orientation="1,0"
       id="guide3298"
       inkscape:locked="false"
       inkscape:label=""
       inkscape:color="rgb(0,0,255)" />
    <sodipodi:guide
       position="41.980001,103.16604"
       orientation="1,0"
       id="guide3360"
       inkscape:locked="false"
       inkscape:label=""
       inkscape:color="rgb(0,0,255)" />
    <sodipodi:guide
       position="46.980001,108.17734"
       orientation="1,0"
       id="guide3362"
       inkscape:locked="false"
       inkscape:label=""
       inkscape:color="rgb(0,0,255)" />
    <sodipodi:guide
       position="-17.907059,68.000001"
       orientation="0,1"
       id="guide3520"
       inkscape:locked="false"
       inkscape:label=""
       inkscape:color="rgb(0,0,255)" />
    <sodipodi:guide
       position="-14.967094,24.000001"
       orientation="0,1"
       id="guide3522"
       inkscape:locked="false"
       inkscape:label=""
       inkscape:color="rgb(0,0,255)" />
    <sodipodi:guide
       position="8.4799996,53.721176"
       orientation="1,0"
       id="guide3524"
       inkscape:locked="false"
       inkscape:label=""
       inkscape:color="rgb(0,0,255)" />
    <sodipodi:guide
       position="52.48,57.46295"
       orientation="1,0"
       id="guide3526"
       inkscape:locked="false"
       inkscape:label=""
       inkscape:color="rgb(0,0,255)" />
  </sodipodi:namedview>
  <metadata
     id="metadata2229">
    <rdf:RDF>
      <cc:Work
         rdf:about="">
        <dc:format>image/svg+xml</dc:format>
        <dc:type
           rdf:resource="http://purl.org/dc/dcmitype/StillImage" />
        <dc:title />
      </cc:Work>
    </rdf:RDF>
  </metadata>
  <g
     inkscape:groupmode="layer"
     id="layer2"
     inkscape:label="BG"
     style="display:inline">
    <path
       style="display:inline;fill:url(#linearGradient4954-6);fill-opacity:1;stroke:#6e6e6e;stroke-width:0;stroke-miterlimit:4;stroke-dasharray:none;stroke-opacity:1"
       d="M 5e-7,1.036e-5 H 60.96 V 128.5 H 5e-7 Z"
       id="rect4381-3"
       inkscape:connector-curvature="0" />
    <g
       aria-label="Quad Panner"
       style="font-style:normal;font-variant:normal;font-weight:normal;font-stretch:normal;font-size:4.23333311px;line-height:1.25;font-family:DIN;-inkscape-font-specification:DIN;text-align:center;letter-spacing:0px;word-spacing:0px;text-anchor:middle;fill:#f4da98;fill-opacity:1;stroke:none;stroke-width:0.26458332"
       id="text995">
      <path
         d="m 20.756051,6.3814686 -0.296333,-0.2921 q 0.0762,-0.1016 0.1143,-0.2116667 0.0381,-0.1143 0.05503,-0.2455333 0.02117,-0.1312333 0.02117,-0.2878666 0.0042,-0.1608667 0.0042,-0.3513667 0,-0.2159 -0.0042,-0.3894666 -0.0042,-0.1778 -0.02963,-0.3217333 -0.0254,-0.1439334 -0.08467,-0.2667 -0.05927,-0.1227667 -0.169333,-0.2328333 -0.156634,-0.1566334 -0.3556,-0.2370667 -0.198967,-0.084667 -0.440267,-0.084667 -0.2413,0 -0.440267,0.084667 -0.194733,0.080433 -0.351366,0.2370667 -0.110067,0.1100666 -0.169334,0.2328333 -0.05927,0.1227666 -0.0889,0.2667 -0.0254,0.1439333 -0.02963,0.3217333 -0.0042,0.1735666 -0.0042,0.3894666 0,0.2159 0.0042,0.3937 0.0042,0.1735667 0.02963,0.3175 0.02963,0.1439333 0.0889,0.2667 0.05927,0.1227666 0.169334,0.2328333 0.156633,0.1566333 0.351366,0.2413 0.198967,0.080433 0.440267,0.080433 0.1778,0 0.338667,-0.046567 0.160866,-0.0508 0.2921,-0.1439333 l 0.300566,0.3005667 z m -0.5588,-1.3885333 q 0,0.2921 -0.01693,0.4614333 -0.0127,0.1693334 -0.07197,0.2836333 l -0.2921,-0.2920999 -0.254,0.2539999 0.3175,0.3175 q -0.135466,0.097367 -0.309033,0.097367 -0.135467,0 -0.254,-0.0508 -0.1143,-0.0508 -0.194733,-0.1354667 -0.05503,-0.059267 -0.09313,-0.127 -0.03387,-0.071967 -0.05503,-0.1735666 -0.01693,-0.1058333 -0.0254,-0.254 -0.0042,-0.1524 -0.0042,-0.381 0,-0.2286 0.0042,-0.3767666 0.0085,-0.1524 0.0254,-0.254 0.02117,-0.1058333 0.05503,-0.1735667 0.0381,-0.071967 0.09313,-0.1312333 0.08043,-0.084667 0.194733,-0.1354667 0.118533,-0.0508 0.254,-0.0508 0.135467,0 0.249767,0.0508 0.118533,0.0508 0.198966,0.1354667 0.05503,0.059267 0.0889,0.1312333 0.0381,0.067733 0.05503,0.1735667 0.02117,0.1016 0.0254,0.254 0.0085,0.1481666 0.0085,0.3767666 z"
         style="fill:#f4da98;fill-opacity:1;stroke-width:0.26458332"
         id="path997" />
      <path
         d="M 22.999717,6.5000019 V 4.353702 h -0.4318 v 1.3081 q 0,0.1227666 -0.0381,0.2158999 -0.03387,0.0889 -0.09313,0.1481667 -0.05927,0.059267 -0.143933,0.0889 -0.08043,0.0254 -0.169334,0.0254 -0.182033,0 -0.309033,-0.1143 -0.122767,-0.1143 -0.122767,-0.3640666 v -1.3081 h -0.4318 v 1.3715999 q 0,0.1820334 0.04657,0.3344334 0.04657,0.1481666 0.169333,0.2709333 0.09737,0.093133 0.2286,0.1439333 0.135467,0.0508 0.300567,0.0508 0.160867,0 0.309033,-0.059267 0.1524,-0.059267 0.262467,-0.1820333 v 0.2159 z"
         style="fill:#f4da98;fill-opacity:1;stroke-width:0.26458332"
         id="path999" />
      <path
         d="M 25.264546,6.5000019 V 5.064902 q 0,-0.7366 -0.884767,-0.7366 -0.2667,0 -0.4445,0.067733 -0.173566,0.0635 -0.325966,0.2412999 l 0.283633,0.2667 q 0.0889,-0.1143 0.1905,-0.1608666 0.1016,-0.046567 0.2794,-0.046567 0.254,0 0.359833,0.1016 0.110067,0.097367 0.110067,0.3005666 v 0.1524 h -0.567267 q -0.372533,0 -0.5588,0.1735667 -0.182033,0.1735667 -0.182033,0.4445 0,0.2836333 0.169333,0.4614333 0.09737,0.097367 0.232833,0.1481666 0.1397,0.046567 0.3429,0.046567 0.198967,0 0.325967,-0.0508 0.127,-0.0508 0.245533,-0.1693333 v 0.1947333 z m -0.4318,-0.7747 q 0,0.2243667 -0.09313,0.3175 -0.08467,0.084667 -0.182033,0.1058334 -0.09737,0.016933 -0.220133,0.016933 -0.2032,0 -0.300567,-0.0762 -0.09313,-0.080433 -0.09313,-0.2286 0,-0.1481667 0.09737,-0.2286 0.09737,-0.080433 0.287867,-0.080433 h 0.503767 z"
         style="fill:#f4da98;fill-opacity:1;stroke-width:0.26458332"
         id="path1001" />
      <path
         d="M 27.584407,6.5000019 V 3.4858687 h -0.4318 V 4.569602 q -0.118533,-0.1397 -0.254,-0.1905 -0.135466,-0.0508 -0.309033,-0.0508 -0.160867,0 -0.296333,0.0508 -0.135467,0.0508 -0.224367,0.1397 -0.08043,0.080433 -0.131233,0.1862667 -0.04657,0.1058333 -0.07197,0.2243666 -0.0254,0.1185334 -0.03387,0.2455333 -0.0042,0.127 -0.0042,0.2497667 0,0.1227667 0.0042,0.2497667 0.0085,0.1269999 0.03387,0.2497666 0.0254,0.1185333 0.07197,0.2243667 0.0508,0.1058333 0.131233,0.1862666 0.0889,0.0889 0.224367,0.1397 0.1397,0.0508 0.300566,0.0508 0.1778,0 0.309034,-0.0508 0.135466,-0.055033 0.258233,-0.2032 v 0.2286 z m -0.4318,-1.0752666 q 0,0.1439333 -0.01693,0.2751666 -0.0127,0.127 -0.05927,0.2286 -0.04657,0.097367 -0.135466,0.1566334 -0.0889,0.055033 -0.232834,0.055033 -0.148166,0 -0.237066,-0.055033 -0.08467,-0.059267 -0.135467,-0.1566334 -0.04657,-0.1016 -0.0635,-0.2286 -0.0127,-0.1312333 -0.0127,-0.2751666 0,-0.1439333 0.0127,-0.2709333 0.01693,-0.1312333 0.0635,-0.2286 0.0508,-0.097367 0.135467,-0.1524 0.0889,-0.059267 0.237066,-0.059267 0.143934,0 0.232834,0.059267 0.0889,0.055033 0.135466,0.1524 0.04657,0.097367 0.05927,0.2286 0.01693,0.127 0.01693,0.2709333 z"
         style="fill:#f4da98;fill-opacity:1;stroke-width:0.26458332"
         id="path1003" />
      <path
         d="m 31.445204,4.4002687 q 0,-0.1947333 -0.06773,-0.3640667 -0.06773,-0.1693333 -0.194733,-0.2878666 -0.127,-0.1227667 -0.3048,-0.1905 -0.1778,-0.071967 -0.397934,-0.071967 h -1.143 v 3.0141332 h 0.4572 V 5.3146686 h 0.6858 q 0.220134,0 0.397934,-0.067733 0.1778,-0.071967 0.3048,-0.1905 0.127,-0.1227666 0.194733,-0.2878666 0.06773,-0.1693334 0.06773,-0.3683 z m -0.4572,0 q 0,0.2413 -0.148166,0.3725333 -0.143934,0.127 -0.385234,0.127 h -0.6604 v -1.0033 h 0.6604 q 0.2413,0 0.385234,0.1312334 0.148166,0.1312333 0.148166,0.3725333 z"
         style="fill:#f4da98;fill-opacity:1;stroke-width:0.26458332"
         id="path1005" />
      <path
         d="M 33.485669,6.5000019 V 5.064902 q 0,-0.7366 -0.884767,-0.7366 -0.2667,0 -0.4445,0.067733 -0.173567,0.0635 -0.325967,0.2412999 l 0.283634,0.2667 q 0.0889,-0.1143 0.1905,-0.1608666 0.1016,-0.046567 0.2794,-0.046567 0.254,0 0.359833,0.1016 0.110067,0.097367 0.110067,0.3005666 v 0.1524 h -0.567267 q -0.372533,0 -0.5588,0.1735667 -0.182033,0.1735667 -0.182033,0.4445 0,0.2836333 0.169333,0.4614333 0.09737,0.097367 0.232833,0.1481666 0.1397,0.046567 0.3429,0.046567 0.198967,0 0.325967,-0.0508 0.127,-0.0508 0.245533,-0.1693333 v 0.1947333 z m -0.4318,-0.7747 q 0,0.2243667 -0.09313,0.3175 -0.08467,0.084667 -0.182033,0.1058334 -0.09737,0.016933 -0.220133,0.016933 -0.2032,0 -0.300567,-0.0762 -0.09313,-0.080433 -0.09313,-0.2286 0,-0.1481667 0.09737,-0.2286 0.09737,-0.080433 0.287867,-0.080433 h 0.503767 z"
         style="fill:#f4da98;fill-opacity:1;stroke-width:0.26458332"
         id="path1007" />
      <path
         d="M 35.890196,6.5000019 V 5.128402 q 0,-0.1820333 -0.04657,-0.3302 -0.04657,-0.1524 -0.169333,-0.2751667 -0.09737,-0.093133 -0.232833,-0.1439333 -0.131234,-0.0508 -0.296334,-0.0508 -0.160866,0 -0.313266,0.059267 -0.148167,0.059267 -0.258234,0.1820333 v -0.2159 h -0.423333 v 2.1462999 h 0.4318 V 5.191902 q 0,-0.2455333 0.131233,-0.3598333 0.131234,-0.1185334 0.313267,-0.1185334 0.182033,0 0.3048,0.1143 0.127,0.1143 0.127,0.3640667 v 1.3080999 z"
         style="fill:#f4da98;fill-opacity:1;stroke-width:0.26458332"
         id="path1009" />
      <path
         d="M 38.294725,6.5000019 V 5.128402 q 0,-0.1820333 -0.04657,-0.3302 -0.04657,-0.1524 -0.169333,-0.2751667 -0.09737,-0.093133 -0.232834,-0.1439333 -0.131233,-0.0508 -0.296333,-0.0508 -0.160867,0 -0.313267,0.059267 -0.148166,0.059267 -0.258233,0.1820333 v -0.2159 h -0.423333 v 2.1462999 h 0.4318 V 5.191902 q 0,-0.2455333 0.131233,-0.3598333 0.131233,-0.1185334 0.313267,-0.1185334 0.182033,0 0.3048,0.1143 0.127,0.1143 0.127,0.3640667 v 1.3080999 z"
         style="fill:#f4da98;fill-opacity:1;stroke-width:0.26458332"
         id="path1011" />
      <path
         d="m 40.669619,5.5517353 v -0.1905 q 0,-0.2286 -0.0635,-0.4191 -0.05927,-0.1905 -0.1778,-0.3259666 -0.1143,-0.1354667 -0.283633,-0.2116667 -0.169334,-0.0762 -0.385234,-0.0762 -0.414866,0 -0.664633,0.2878667 -0.245533,0.2836333 -0.245533,0.8085666 0,0.3048 0.0762,0.5164666 0.0762,0.2116667 0.2032,0.3429 0.131233,0.127 0.3048,0.1862667 0.1778,0.055033 0.381,0.055033 0.1397,0 0.249766,-0.021167 0.1143,-0.021167 0.207434,-0.0635 0.09737,-0.042333 0.1778,-0.1016 0.08467,-0.0635 0.169333,-0.1481666 L 40.343652,5.9327353 q -0.1143,0.1143 -0.2286,0.1693333 -0.110066,0.0508 -0.2921,0.0508 -0.2667,0 -0.4064,-0.1608667 -0.1397,-0.1608666 -0.1397,-0.4402666 z M 40.242052,5.2511686 h -0.9652 q 0.0042,-0.097367 0.0127,-0.1566333 0.0085,-0.0635 0.04233,-0.1354666 0.0508,-0.1227667 0.160866,-0.1947334 0.1143,-0.0762 0.2667,-0.0762 0.1524,0 0.262467,0.0762 0.110067,0.071967 0.160867,0.1947334 0.03387,0.071967 0.04233,0.1354666 0.0127,0.059267 0.01693,0.1566333 z"
         style="fill:#f4da98;fill-opacity:1;stroke-width:0.26458332"
         id="path1013" />
      <path
         d="m 42.748184,4.531502 q -0.110067,-0.1100667 -0.232833,-0.1566333 -0.122767,-0.046567 -0.2794,-0.046567 -0.182034,0 -0.334434,0.071967 -0.1524,0.071967 -0.237066,0.1862666 V 4.353702 h -0.423334 v 2.1462999 h 0.4318 V 5.1961353 q 0,-0.2243666 0.122767,-0.3513666 0.127,-0.1312334 0.3048,-0.1312334 0.110067,0 0.1778,0.0381 0.07197,0.033867 0.143933,0.1058334 z"
         style="fill:#f4da98;fill-opacity:1;stroke-width:0.26458332"
         id="path1015" />
    </g>
  </g>
  <g
     inkscape:label="Layer 1"
     inkscape:groupmode="layer"
     id="layer1"
     transform="translate(0,-168.5)"
     style="display:inline">
    <circle
       style="fill:url(#radialGradient3008);fill-opacity:1;stroke:none;stroke-width:0.1;stroke-miterlimit:4;stroke-dasharray:none;stroke-opacity:1"
       id="path2976"
       cx="30.48"
       cy="251"
       r="20" />
    <circle
       style="fill:none;fill-opacity:1;stroke:#000000;stroke-width:6.5;stroke-miterlimit:4;stroke-dasharray:none;stroke-opacity:1"
       id="path2976-3"
       cx="30.48"
       cy="251"
       r="23.25" />
    <g
       aria-label="FL"
       style="font-style:normal;font-variant:normal;font-weight:normal;font-stretch:normal;font-size:4.23333311px;line-height:1.25;font-family:DIN;-inkscape-font-specification:DIN;text-align:center;letter-spacing:0px;word-spacing:0px;text-anchor:middle;fill:#000000;fill-opacity:1;stroke:none;stroke-width:0.26458332"
       id="text3050"
       transform="translate(-27.999996,-2.1836667e-5)">
      <path
         d="m 37.257747,188.678 v -0.3422 h -1.605138 v 2.51178 h 0.381 v -1.06186 h 1.044222 v -0.3422 H 36.033609 V 188.678 Z"
         style="font-size:3.52777767px;fill:#f4da98;fill-opacity:1;stroke-width:0.26458332"
         id="path3466"
         inkscape:connector-curvature="0" />
      <path
         d="m 39.307383,190.84758 v -0.34219 h -1.210028 v -2.16959 h -0.381 v 2.51178 z"
         style="font-size:3.52777767px;fill:#f4da98;fill-opacity:1;stroke-width:0.26458332"
         id="path3468"
         inkscape:connector-curvature="0" />
    </g>
    <text
       xml:space="preserve"
       style="font-style:normal;font-variant:normal;font-weight:normal;font-stretch:normal;font-size:4.23333311px;line-height:1.25;font-family:DIN;-inkscape-font-specification:DIN;text-align:center;letter-spacing:0px;word-spacing:0px;text-anchor:middle;fill:#000000;fill-opacity:1;stroke:none;stroke-width:0.26458332"
       x="-13.323661"
       y="186.25298"
       id="text3056"><tspan
         sodipodi:role="line"
         id="tspan3054"
         x="-13.323661"
         y="190.30992"
         style="stroke-width:0.26458332" /></text>
    <g
       aria-label="FR"
       style="font-style:normal;font-variant:normal;font-weight:normal;font-stretch:normal;font-size:4.23333311px;line-height:1.25;font-family:DIN;-inkscape-font-specification:DIN;text-align:center;letter-spacing:0px;word-spacing:0px;text-anchor:middle;fill:#000000;fill-opacity:1;stroke:none;stroke-width:0.26458332"
       id="text3050-3"
       transform="translate(-27.999989,-4.6836667e-5)">
      <path
         d="m 51.137796,188.678 v -0.3422 h -1.605139 v 2.51178 h 0.381 v -1.06186 h 1.044222 v -0.3422 H 49.913657 V 188.678 Z"
         style="font-size:3.52777767px;fill:#f4da98;fill-opacity:1;stroke-width:0.26458332"
         id="path3453"
         inkscape:connector-curvature="0" />
      <path
         d="m 53.427321,190.84758 -0.578556,-1.11125 q 0.211667,-0.06 0.356306,-0.22578 0.144638,-0.16933 0.144638,-0.44097 0,-0.15875 -0.05644,-0.29281 -0.05292,-0.13758 -0.155222,-0.23283 -0.102306,-0.0988 -0.246945,-0.15169 -0.141111,-0.0564 -0.321027,-0.0564 h -0.973667 v 2.51178 h 0.381 v -1.05833 h 0.47625 l 0.529167,1.05833 z m -0.458612,-1.77447 q 0,0.18697 -0.119944,0.28928 -0.116417,0.1023 -0.306917,0.1023 H 51.977404 V 188.678 h 0.564444 q 0.1905,0 0.306917,0.10583 0.119944,0.10231 0.119944,0.28928 z"
         style="font-size:3.52777767px;fill:#f4da98;fill-opacity:1;stroke-width:0.26458332"
         id="path3455"
         inkscape:connector-curvature="0" />
    </g>
    <text
       xml:space="preserve"
       style="font-style:normal;font-variant:normal;font-weight:normal;font-stretch:normal;font-size:4.23333311px;line-height:1.25;font-family:DIN;-inkscape-font-specification:DIN;text-align:center;letter-spacing:0px;word-spacing:0px;text-anchor:middle;fill:#000000;fill-opacity:1;stroke:none;stroke-width:0.26458332"
       x="75.028275"
       y="206.28571"
       id="text3078"><tspan
         sodipodi:role="line"
         id="tspan3076"
         x="75.028275"
         y="210.34265"
         style="stroke-width:0.26458332" /></text>
    <g
       aria-label="SL"
       style="font-style:normal;font-variant:normal;font-weight:normal;font-stretch:normal;font-size:4.23333311px;line-height:1.25;font-family:DIN;-inkscape-font-specification:DIN;text-align:center;letter-spacing:0px;word-spacing:0px;text-anchor:middle;fill:#000000;fill-opacity:1;stroke:none;stroke-width:0.26458332"
       id="text3050-3-6"
       transform="translate(3.4122765e-6,-16.000008)">
      <path
         d="m 37.324781,206.13144 q 0,-0.16228 -0.05292,-0.2928 -0.04939,-0.13053 -0.151695,-0.22225 -0.08114,-0.0706 -0.186972,-0.11289 -0.105833,-0.0459 -0.282222,-0.0741 l -0.28575,-0.0423 q -0.183444,-0.0282 -0.282222,-0.11642 -0.04939,-0.0459 -0.07408,-0.1023 -0.02117,-0.06 -0.02117,-0.13053 0,-0.16933 0.116416,-0.27869 0.119945,-0.11289 0.342195,-0.11289 0.15875,0 0.292805,0.0423 0.137584,0.0388 0.254,0.15169 l 0.243417,-0.23988 q -0.162278,-0.1517 -0.345722,-0.21873 -0.183445,-0.067 -0.433917,-0.067 -0.197555,0 -0.352778,0.0529 -0.155222,0.0529 -0.264583,0.1517 -0.105833,0.0988 -0.165805,0.23636 -0.05645,0.13405 -0.05645,0.29633 0,0.30692 0.183445,0.47978 0.169333,0.15875 0.47625,0.20108 l 0.296333,0.0423 q 0.112889,0.0176 0.169333,0.0388 0.05645,0.0212 0.105833,0.067 0.09878,0.0882 0.09878,0.26105 0,0.18345 -0.137583,0.28575 -0.134056,0.0988 -0.381,0.0988 -0.194028,0 -0.34925,-0.0494 -0.155222,-0.0529 -0.292806,-0.1905 l -0.254,0.25048 q 0.179917,0.18344 0.391584,0.25752 0.211666,0.0741 0.497416,0.0741 0.197556,0 0.363361,-0.0494 0.165806,-0.0494 0.28575,-0.14464 0.119945,-0.0953 0.186973,-0.23283 0.06703,-0.13759 0.06703,-0.31045 z"
         style="font-size:3.52777767px;fill:#f4da98;fill-opacity:1;stroke-width:0.26458332"
         id="path3443"
         inkscape:connector-curvature="0" />
      <path
         d="m 39.427331,206.84758 v -0.34219 h -1.210028 v -2.16959 h -0.381 v 2.51178 z"
         style="font-size:3.52777767px;fill:#f4da98;fill-opacity:1;stroke-width:0.26458332"
         id="path3445"
         inkscape:connector-curvature="0" />
    </g>
    <g
       aria-label="SR"
       style="font-style:normal;font-variant:normal;font-weight:normal;font-stretch:normal;font-size:4.23333311px;line-height:1.25;font-family:DIN;-inkscape-font-specification:DIN;text-align:center;letter-spacing:0px;word-spacing:0px;text-anchor:middle;fill:#000000;fill-opacity:1;stroke:none;stroke-width:0.26458332"
       id="text3050-3-9"
       transform="translate(4.5422363e-6,-16.000012)">
      <path
         d="m 51.20483,206.13144 q 0,-0.16228 -0.05292,-0.2928 -0.04939,-0.13053 -0.151694,-0.22225 -0.08114,-0.0706 -0.186972,-0.11289 -0.105834,-0.0459 -0.282222,-0.0741 l -0.28575,-0.0423 q -0.183445,-0.0282 -0.282223,-0.11642 -0.04939,-0.0459 -0.07408,-0.1023 -0.02117,-0.06 -0.02117,-0.13053 0,-0.16933 0.116417,-0.27869 0.119944,-0.11289 0.342194,-0.11289 0.15875,0 0.292806,0.0423 0.137583,0.0388 0.254,0.15169 l 0.243417,-0.23988 q -0.162278,-0.1517 -0.345723,-0.21873 -0.183444,-0.067 -0.433916,-0.067 -0.197556,0 -0.352778,0.0529 -0.155222,0.0529 -0.264583,0.1517 -0.105834,0.0988 -0.165806,0.23636 -0.05644,0.13405 -0.05644,0.29633 0,0.30692 0.183444,0.47978 0.169333,0.15875 0.47625,0.20108 l 0.296333,0.0423 q 0.112889,0.0176 0.169334,0.0388 0.05644,0.0212 0.105833,0.067 0.09878,0.0882 0.09878,0.26105 0,0.18345 -0.137583,0.28575 -0.134056,0.0988 -0.381,0.0988 -0.194028,0 -0.34925,-0.0494 -0.155223,-0.0529 -0.292806,-0.1905 l -0.254,0.25048 q 0.179917,0.18344 0.391583,0.25752 0.211667,0.0741 0.497417,0.0741 0.197556,0 0.363361,-0.0494 0.165806,-0.0494 0.28575,-0.14464 0.119945,-0.0953 0.186972,-0.23283 0.06703,-0.13759 0.06703,-0.31045 z"
         style="font-size:3.52777767px;fill:#f4da98;fill-opacity:1;stroke-width:0.26458332"
         id="path3448"
         inkscape:connector-curvature="0" />
      <path
         d="m 53.547268,206.84758 -0.578555,-1.11125 q 0.211667,-0.06 0.356305,-0.22578 0.144639,-0.16933 0.144639,-0.44097 0,-0.15875 -0.05644,-0.29281 -0.05292,-0.13758 -0.155222,-0.23283 -0.102306,-0.0988 -0.246945,-0.15169 -0.141111,-0.0564 -0.321028,-0.0564 h -0.973666 v 2.51178 h 0.381 v -1.05833 h 0.47625 l 0.529166,1.05833 z m -0.458611,-1.77447 q 0,0.18697 -0.119944,0.28928 -0.116417,0.1023 -0.306917,0.1023 H 52.097352 V 204.678 h 0.564444 q 0.1905,0 0.306917,0.10583 0.119944,0.10231 0.119944,0.28928 z"
         style="font-size:3.52777767px;fill:#f4da98;fill-opacity:1;stroke-width:0.26458332"
         id="path3450"
         inkscape:connector-curvature="0" />
    </g>
    <g
       aria-label="RESET"
       style="font-style:normal;font-variant:normal;font-weight:normal;font-stretch:normal;font-size:4.23333311px;line-height:1.25;font-family:DIN;-inkscape-font-specification:DIN;text-align:center;letter-spacing:0px;word-spacing:0px;text-anchor:middle;fill:#000000;fill-opacity:1;stroke:none;stroke-width:0.26458332"
       id="text3050-3-9-0"
       transform="translate(1.4799982,1.4708268)">
      <path
         d="m 46.736815,278.96423 -0.578555,-1.11125 q 0.211666,-0.06 0.356305,-0.22577 0.144639,-0.16934 0.144639,-0.44098 0,-0.15875 -0.05644,-0.2928 -0.05292,-0.13759 -0.155222,-0.23284 -0.102306,-0.0988 -0.246945,-0.15169 -0.141111,-0.0564 -0.321028,-0.0564 h -0.973666 v 2.51177 h 0.381 v -1.05833 h 0.47625 l 0.529166,1.05833 z m -0.458611,-1.77447 q 0,0.18697 -0.119944,0.28928 -0.116417,0.1023 -0.306917,0.1023 h -0.564444 v -0.78669 h 0.564444 q 0.1905,0 0.306917,0.10583 0.119944,0.10231 0.119944,0.28928 z"
         style="font-size:3.52777767px;fill:#f4da98;fill-opacity:1;stroke-width:0.26458332"
         id="path3509"
         inkscape:connector-curvature="0" />
      <path
         d="m 48.821728,278.96423 v -0.34219 h -1.224139 v -0.75495 h 1.044222 v -0.33866 h -1.044222 v -0.73378 h 1.224139 v -0.34219 h -1.605139 v 2.51177 z"
         style="font-size:3.52777767px;fill:#f4da98;fill-opacity:1;stroke-width:0.26458332"
         id="path3511"
         inkscape:connector-curvature="0" />
      <path
         d="m 50.913696,278.24809 q 0,-0.16227 -0.05292,-0.2928 -0.04939,-0.13053 -0.151694,-0.22225 -0.08114,-0.0706 -0.186973,-0.11289 -0.105833,-0.0459 -0.282222,-0.0741 l -0.28575,-0.0423 q -0.183444,-0.0282 -0.282222,-0.11641 -0.04939,-0.0459 -0.07408,-0.10231 -0.02117,-0.06 -0.02117,-0.13053 0,-0.16933 0.116417,-0.27869 0.119944,-0.11289 0.342194,-0.11289 0.15875,0 0.292806,0.0423 0.137583,0.0388 0.254,0.1517 l 0.243416,-0.23989 q -0.162278,-0.1517 -0.345722,-0.21872 -0.183444,-0.067 -0.433917,-0.067 -0.197555,0 -0.352777,0.0529 -0.155223,0.0529 -0.264584,0.15169 -0.105833,0.0988 -0.165805,0.23636 -0.05644,0.13406 -0.05644,0.29633 0,0.30692 0.183445,0.47978 0.169333,0.15875 0.47625,0.20109 l 0.296333,0.0423 q 0.112889,0.0176 0.169333,0.0388 0.05645,0.0212 0.105834,0.067 0.09878,0.0882 0.09878,0.26106 0,0.18344 -0.137583,0.28575 -0.134055,0.0988 -0.381,0.0988 -0.194028,0 -0.34925,-0.0494 -0.155222,-0.0529 -0.292805,-0.1905 l -0.254,0.25047 q 0.179916,0.18344 0.391583,0.25753 0.211667,0.0741 0.497417,0.0741 0.197555,0 0.363361,-0.0494 0.165805,-0.0494 0.28575,-0.14464 0.119944,-0.0952 0.186972,-0.23283 0.06703,-0.13758 0.06703,-0.31045 z"
         style="font-size:3.52777767px;fill:#f4da98;fill-opacity:1;stroke-width:0.26458332"
         id="path3513"
         inkscape:connector-curvature="0" />
      <path
         d="m 53.030356,278.96423 v -0.34219 h -1.224139 v -0.75495 h 1.044223 v -0.33866 h -1.044223 v -0.73378 h 1.224139 v -0.34219 h -1.605139 v 2.51177 z"
         style="font-size:3.52777767px;fill:#f4da98;fill-opacity:1;stroke-width:0.26458332"
         id="path3515"
         inkscape:connector-curvature="0" />
      <path
         d="m 55.094101,276.79465 v -0.34219 h -1.763889 v 0.34219 h 0.691445 v 2.16958 h 0.381 v -2.16958 z"
         style="font-size:3.52777767px;fill:#f4da98;fill-opacity:1;stroke-width:0.26458332"
         id="path3517"
         inkscape:connector-curvature="0" />
    </g>
    <path
       style="display:inline;fill:#f4da98;fill-opacity:1;stroke:none;stroke-width:0;stroke-miterlimit:4;stroke-dasharray:none;stroke-opacity:1"
       inkscape:transform-center-x="7.4234112"
       inkscape:transform-center-y="5.2919366"
       d="m 42.980001,197 a 5.5000001,5.5000001 0 0 1 -5.500001,5.5 5.5000001,5.5000001 0 0 1 -5.5,-5.5 5.5000001,5.5000001 0 0 1 5.5,-5.5 5.5000001,5.5000001 0 0 1 5.500001,5.5 z"
       id="path4964-2-8"
       inkscape:connector-curvature="0" />
    <path
       style="display:inline;fill:#f4da98;fill-opacity:1;stroke:none;stroke-width:0;stroke-miterlimit:4;stroke-dasharray:none;stroke-opacity:1"
       inkscape:transform-center-x="7.4234112"
       inkscape:transform-center-y="5.2919366"
       d="m 56.98,213 a 5.5000001,5.5000001 0 0 1 -5.5,5.5 5.5000001,5.5000001 0 0 1 -5.5,-5.5 5.5000001,5.5000001 0 0 1 5.5,-5.5 5.5000001,5.5000001 0 0 1 5.5,5.5 z"
       id="path4964-2-8-3"
       inkscape:connector-curvature="0" />
    <path
       style="display:inline;fill:#f4da98;fill-opacity:1;stroke:none;stroke-width:0;stroke-miterlimit:4;stroke-dasharray:none;stroke-opacity:1"
       inkscape:transform-center-x="7.4234112"
       inkscape:transform-center-y="5.2919366"
       d="m 14.98,197 a 5.5000001,5.5000001 0 0 1 -5.5000008,5.5 5.5000001,5.5000001 0 0 1 -5.5,-5.5 5.5000001,5.5000001 0 0 1 5.5,-5.5 A 5.5000001,5.5000001 0 0 1 14.98,197 Z"
       id="path4964-2-8-6"
       inkscape:connector-curvature="0" />
    <path
       style="display:inline;fill:#f4da98;fill-opacity:1;stroke:none;stroke-width:0;stroke-miterlimit:4;stroke-dasharray:none;stroke-opacity:1"
       inkscape:transform-center-x="7.4234112"
       inkscape:transform-center-y="5.2919366"
       d="m 28.98,197 a 5.5000001,5.5000001 0 0 1 -5.5,5.5 5.5000001,5.5000001 0 0 1 -5.5,-5.5 5.5000001,5.5000001 0 0 1 5.5,-5.5 5.5000001,5.5000001 0 0 1 5.5,5.5 z"
       id="path4964-2-8-0"
       inkscape:connector-curvature="0" />
    <g
       aria-label="OUTS"
       style="font-style:normal;font-variant:normal;font-weight:normal;font-stretch:normal;font-size:4.23333311px;line-height:1.25;font-family:DIN;-inkscape-font-specification:DIN;text-align:center;letter-spacing:0px;word-spacing:0px;text-anchor:middle;display:inline;fill:#000000;fill-opacity:1;stroke:none;stroke-width:0.26458332"
       id="text3050-7"
       transform="translate(-13.879202,3.7039397)">
      <path
         d="m 42.016726,178.47942 q 0,-0.17992 -0.0035,-0.32456 -0.0035,-0.14817 -0.02469,-0.26811 -0.02117,-0.11994 -0.07056,-0.22225 -0.04939,-0.10231 -0.141111,-0.19403 -0.130528,-0.13053 -0.296333,-0.19755 -0.165806,-0.0706 -0.366889,-0.0706 -0.201083,0 -0.366889,0.0706 -0.162278,0.067 -0.292806,0.19755 -0.09172,0.0917 -0.141111,0.19403 -0.04939,0.10231 -0.07408,0.22225 -0.02117,0.11994 -0.02469,0.26811 -0.0035,0.14464 -0.0035,0.32456 0,0.17991 0.0035,0.32808 0.0035,0.14464 0.02469,0.26458 0.02469,0.11995 0.07408,0.22225 0.04939,0.10231 0.141111,0.19403 0.130528,0.13053 0.292806,0.20108 0.165806,0.067 0.366889,0.067 0.201083,0 0.366889,-0.067 0.165805,-0.0705 0.296333,-0.20108 0.09172,-0.0917 0.141111,-0.19403 0.04939,-0.1023 0.07056,-0.22225 0.02117,-0.11994 0.02469,-0.26458 0.0035,-0.14817 0.0035,-0.32808 z m -0.381,0 q 0,0.1905 -0.0071,0.3175 -0.0035,0.12347 -0.02117,0.21166 -0.01411,0.0847 -0.04586,0.14464 -0.02822,0.0564 -0.07408,0.10584 -0.06703,0.0705 -0.165805,0.11288 -0.09525,0.0423 -0.208139,0.0423 -0.112889,0 -0.211667,-0.0423 -0.09525,-0.0423 -0.162278,-0.11288 -0.04586,-0.0494 -0.07761,-0.10584 -0.02822,-0.06 -0.04586,-0.14464 -0.01411,-0.0882 -0.02117,-0.21166 -0.0035,-0.127 -0.0035,-0.3175 0,-0.1905 0.0035,-0.31398 0.0071,-0.127 0.02117,-0.21166 0.01764,-0.0882 0.04586,-0.14464 0.03175,-0.06 0.07761,-0.10936 0.06703,-0.0706 0.162278,-0.11289 0.09878,-0.0423 0.211667,-0.0423 0.112889,0 0.208139,0.0423 0.09878,0.0423 0.165805,0.11289 0.04586,0.0494 0.07408,0.10936 0.03175,0.0564 0.04586,0.14464 0.01764,0.0847 0.02117,0.21166 0.0071,0.12348 0.0071,0.31398 z"
         style="font-size:3.52777767px;fill:#f4da98;fill-opacity:1;stroke-width:0.26458332"
         id="path3471"
         inkscape:connector-curvature="0" />
      <path
         d="m 44.345059,178.88864 v -1.66511 h -0.381 v 1.64747 q 0,0.254 -0.144639,0.39864 -0.141111,0.14464 -0.377472,0.14464 -0.236361,0 -0.377472,-0.14464 -0.141112,-0.14464 -0.141112,-0.39864 v -1.64747 h -0.381 v 1.66511 q 0,0.19403 0.06703,0.3563 0.07056,0.15875 0.1905,0.27164 0.119945,0.11289 0.28575,0.17639 0.165806,0.0635 0.356306,0.0635 0.1905,0 0.356305,-0.0635 0.165806,-0.0635 0.28575,-0.17639 0.123473,-0.11289 0.1905,-0.27164 0.07056,-0.16227 0.07056,-0.3563 z"
         style="font-size:3.52777767px;fill:#f4da98;fill-opacity:1;stroke-width:0.26458332"
         id="path3473"
         inkscape:connector-curvature="0" />
      <path
         d="m 46.504056,177.56572 v -0.34219 h -1.763888 v 0.34219 h 0.691444 v 2.16959 h 0.381 v -2.16959 z"
         style="font-size:3.52777767px;fill:#f4da98;fill-opacity:1;stroke-width:0.26458332"
         id="path3475"
         inkscape:connector-curvature="0" />
      <path
         d="m 48.507832,179.01917 q 0,-0.16228 -0.05292,-0.29281 -0.04939,-0.13053 -0.151694,-0.22225 -0.08114,-0.0705 -0.186972,-0.11289 -0.105834,-0.0459 -0.282222,-0.0741 l -0.28575,-0.0423 q -0.183445,-0.0282 -0.282223,-0.11642 -0.04939,-0.0459 -0.07408,-0.10231 -0.02117,-0.06 -0.02117,-0.13052 0,-0.16934 0.116417,-0.2787 0.119944,-0.11289 0.342194,-0.11289 0.15875,0 0.292806,0.0423 0.137583,0.0388 0.254,0.15169 l 0.243417,-0.23989 q -0.162278,-0.15169 -0.345723,-0.21872 -0.183444,-0.067 -0.433916,-0.067 -0.197556,0 -0.352778,0.0529 -0.155222,0.0529 -0.264583,0.15169 -0.105834,0.0988 -0.165806,0.23636 -0.05644,0.13406 -0.05644,0.29634 0,0.30691 0.183444,0.47977 0.169333,0.15875 0.47625,0.20109 l 0.296333,0.0423 q 0.112889,0.0176 0.169334,0.0388 0.05644,0.0212 0.105833,0.067 0.09878,0.0882 0.09878,0.26106 0,0.18344 -0.137583,0.28575 -0.134056,0.0988 -0.381,0.0988 -0.194028,0 -0.34925,-0.0494 -0.155223,-0.0529 -0.292806,-0.1905 l -0.254,0.25047 q 0.179917,0.18345 0.391583,0.25753 0.211667,0.0741 0.497417,0.0741 0.197556,0 0.363361,-0.0494 0.165806,-0.0494 0.28575,-0.14464 0.119945,-0.0953 0.186972,-0.23283 0.06703,-0.13758 0.06703,-0.31044 z"
         style="font-size:3.52777767px;fill:#f4da98;fill-opacity:1;stroke-width:0.26458332"
         id="path3477"
         inkscape:connector-curvature="0" />
    </g>
    <path
       style="display:inline;fill:#f4da98;fill-opacity:1;stroke:none;stroke-width:0;stroke-miterlimit:4;stroke-dasharray:none;stroke-opacity:1"
       inkscape:transform-center-x="7.4234112"
       inkscape:transform-center-y="5.2919366"
       d="m 56.98,197 a 5.5000001,5.5000001 0 0 1 -5.5,5.5 5.5000001,5.5000001 0 0 1 -5.5,-5.5 5.5000001,5.5000001 0 0 1 5.5,-5.5 5.5000001,5.5000001 0 0 1 5.5,5.5 z"
       id="path4964-2-8-2"
       inkscape:connector-curvature="0" />
    <text
       xml:space="preserve"
       style="font-style:normal;font-variant:normal;font-weight:normal;font-stretch:normal;font-size:4.23333311px;line-height:1.25;font-family:DIN;-inkscape-font-specification:DIN;text-align:center;letter-spacing:0px;word-spacing:0px;text-anchor:middle;fill:#000000;fill-opacity:1;stroke:none;stroke-width:0.26458332"
       x="16.111235"
       y="206.04947"
       id="text3332"><tspan
         sodipodi:role="line"
         id="tspan3330"
         x="16.111235"
         y="210.10641"
         style="stroke-width:0.26458332" /></text>
    <g
       aria-label="MULTI"
       style="font-style:normal;font-variant:normal;font-weight:normal;font-stretch:normal;font-size:4.23333311px;line-height:1.25;font-family:DIN;-inkscape-font-specification:DIN;text-align:center;letter-spacing:0px;word-spacing:0px;text-anchor:middle;display:inline;fill:#000000;fill-opacity:1;stroke:none;stroke-width:0.26458332"
       id="text3050-3-6-2"
       transform="translate(28,-1.8136667e-5)">
      <path
         d="m 21.021146,206.83699 v -2.51178 h -0.381 l -0.719667,1.56281 -0.733777,-1.56281 h -0.381 v 2.51178 h 0.381 v -1.67922 l 0.592666,1.22414 h 0.282222 l 0.578556,-1.22414 v 1.67922 z"
         style="font-size:3.52777767px;fill:#f4da98;fill-opacity:1;stroke-width:0.26458332"
         id="path3432"
         inkscape:connector-curvature="0" />
      <path
         d="m 23.437673,205.99032 v -1.66511 h -0.381 v 1.64747 q 0,0.254 -0.144639,0.39864 -0.141111,0.14464 -0.377472,0.14464 -0.236362,0 -0.377473,-0.14464 -0.141111,-0.14464 -0.141111,-0.39864 v -1.64747 h -0.381 v 1.66511 q 0,0.19403 0.06703,0.35631 0.07056,0.15875 0.1905,0.27164 0.119944,0.11289 0.28575,0.17639 0.165806,0.0635 0.356306,0.0635 0.1905,0 0.356305,-0.0635 0.165806,-0.0635 0.28575,-0.17639 0.123472,-0.11289 0.1905,-0.27164 0.07056,-0.16228 0.07056,-0.35631 z"
         style="font-size:3.52777767px;fill:#f4da98;fill-opacity:1;stroke-width:0.26458332"
         id="path3434"
         inkscape:connector-curvature="0" />
      <path
         d="m 25.646059,206.83699 v -0.34219 h -1.210028 v -2.16959 h -0.381 v 2.51178 z"
         style="font-size:3.52777767px;fill:#f4da98;fill-opacity:1;stroke-width:0.26458332"
         id="path3436"
         inkscape:connector-curvature="0" />
      <path
         d="m 27.339383,204.66741 v -0.3422 h -1.763888 v 0.3422 h 0.691444 v 2.16958 h 0.381 v -2.16958 z"
         style="font-size:3.52777767px;fill:#f4da98;fill-opacity:1;stroke-width:0.26458332"
         id="path3438"
         inkscape:connector-curvature="0" />
      <path
         d="m 28.154299,206.83699 v -2.51178 h -0.381 v 2.51178 z"
         style="font-size:3.52777767px;fill:#f4da98;fill-opacity:1;stroke-width:0.26458332"
         id="path3440"
         inkscape:connector-curvature="0" />
    </g>
    <g
       aria-label="IN"
       style="font-style:normal;font-variant:normal;font-weight:normal;font-stretch:normal;font-size:4.23333311px;line-height:1.25;font-family:DIN;-inkscape-font-specification:DIN;text-align:center;letter-spacing:0px;word-spacing:0px;text-anchor:middle;display:inline;fill:#000000;fill-opacity:1;stroke:none;stroke-width:0.26458332"
       id="text3050-3-6-9"
       transform="translate(-13.999999,15.999975)">
      <path
         d="m 22.396973,190.84758 v -2.51178 h -0.381 v 2.51178 z"
         style="font-size:3.52777767px;fill:#f4da98;fill-opacity:1;stroke-width:0.26458332"
         id="path3461"
         inkscape:connector-curvature="0" />
      <path
         d="m 24.944024,190.84758 v -2.51178 h -0.381 v 1.76389 l -1.160639,-1.76389 h -0.34925 v 2.51178 h 0.381 v -1.76742 l 1.160639,1.76742 z"
         style="font-size:3.52777767px;fill:#f4da98;fill-opacity:1;stroke-width:0.26458332"
         id="path3463"
         inkscape:connector-curvature="0" />
    </g>
    <g
       aria-label="X"
       style="font-style:normal;font-variant:normal;font-weight:normal;font-stretch:normal;font-size:4.23333311px;line-height:1.25;font-family:DIN;-inkscape-font-specification:DIN;text-align:center;letter-spacing:0px;word-spacing:0px;text-anchor:middle;display:inline;fill:#000000;fill-opacity:1;stroke:none;stroke-width:0.26458332"
       id="text3050-3-6-9-9"
       transform="translate(14.000001,15.999975)">
      <path
         d="M 10.464249,190.84758 9.6846103,189.55994 10.411333,188.3358 H 9.9738881 L 9.4764714,189.23539 8.9825825,188.3358 H 8.5451381 l 0.7267222,1.22414 -0.7761111,1.28764 h 0.4374445 l 0.5432777,-0.96308 0.5468056,0.96308 z"
         style="font-size:3.52777767px;fill:#f4da98;fill-opacity:1;stroke-width:0.26458332"
         id="path3458"
         inkscape:connector-curvature="0" />
    </g>
    <g
       aria-label="Y"
       style="font-style:normal;font-variant:normal;font-weight:normal;font-stretch:normal;font-size:4.23333311px;line-height:1.25;font-family:DIN;-inkscape-font-specification:DIN;text-align:center;letter-spacing:0px;word-spacing:0px;text-anchor:middle;display:inline;fill:#000000;fill-opacity:1;stroke:none;stroke-width:0.26458332"
       id="text3050-3-6-9-9-1"
       transform="translate(28,-2.3136667e-5)">
      <path
         d="M 10.421917,204.3358 H 10.005639 L 9.4799999,205.44 8.954361,204.3358 H 8.5380833 l 0.7514166,1.47814 v 1.03364 h 0.381 v -1.03364 z"
         style="font-size:3.52777767px;fill:#f4da98;fill-opacity:1;stroke-width:0.26458332"
         id="path3429"
         inkscape:connector-curvature="0" />
    </g>
    <g
       transform="matrix(0.35277777,0,0,-0.35277777,28.498543,292.38842)"
       id="g3796"
       style="display:inline;fill:#f4da98;fill-opacity:1;stroke:none">
      <path
         inkscape:connector-curvature="0"
         id="path3798"
         style="fill:#f4da98;fill-opacity:1;fill-rule:nonzero;stroke:none"
         d="M 0,0 C 0,1.873 0.16,3.703 0.479,5.492 -1.353,5.898 -2.27,6.65 -2.27,7.76 c 0,0.873 0.492,1.306 1.47,1.306 0.513,0 1.141,-0.242 1.885,-0.734 1.445,5.092 3.802,9.383 7.06,12.887 -0.702,0.105 -1.413,0.178 -2.143,0.178 -7.952,0 -14.399,-6.448 -14.399,-14.401 0,-6.057 3.745,-11.232 9.043,-13.357 C 0.223,-4.273 0,-2.152 0,0" />
    </g>
    <g
       transform="matrix(0.35277777,0,0,-0.35277777,29.332226,289.76397)"
       id="g3800"
       style="display:inline;fill:#f4da98;fill-opacity:1;stroke:none">
      <path
         inkscape:connector-curvature="0"
         id="path3802"
         style="fill:#f4da98;fill-opacity:1;fill-rule:nonzero;stroke:none"
         d="m 0,0 c 0.275,-0.191 0.487,-0.359 0.638,-0.51 1.575,0.362 3.15,1.287 4.725,2.778 1.319,1.279 2.448,2.757 3.385,4.439 1.193,2.109 1.756,3.885 1.693,5.332 h 0.357 C 9.394,12.846 7.845,13.422 6.194,13.717 L 7.025,12.936 C 3.638,9.379 1.297,5.068 0,0" />
    </g>
    <g
       transform="matrix(0.35277777,0,0,-0.35277777,33.526647,285.76075)"
       id="g3804"
       style="display:inline;fill:#f4da98;fill-opacity:1;stroke:none">
      <path
         inkscape:connector-curvature="0"
         id="path3806"
         style="fill:#f4da98;fill-opacity:1;fill-rule:nonzero;stroke:none"
         d="m 0,0 c -0.115,-1.566 -0.734,-3.357 -1.863,-5.375 -0.96,-1.703 -2.098,-3.213 -3.416,-4.535 -1.535,-1.488 -3.111,-2.524 -4.726,-3.098 2.51,-2.765 3.947,-5.92 4.31,-9.451 0.934,0.619 1.937,1.172 3,1.66 l 0.606,-1.342 c -1.765,-0.808 -3.393,-1.837 -4.885,-3.093 l -0.956,1.119 0.828,0.666 c -0.147,3.98 -1.681,7.322 -4.597,10.025 l -0.638,-0.031 c -0.3,-1.787 -0.45,-3.567 -0.45,-5.332 0,-2.432 0.27,-4.731 0.798,-6.895 1.194,-0.322 2.443,-0.508 3.738,-0.508 7.953,0 14.4,6.446 14.4,14.399 C 6.149,-6.91 3.715,-2.604 0,0" />
    </g>
    <g
       style="display:inline;fill:#f4da98;fill-opacity:1;stroke:none"
       id="g883"
       transform="matrix(0.35277777,0,0,-0.35277777,28.498543,292.38842)">
      <path
         d="M 0,0 C 0,1.873 0.16,3.703 0.479,5.492 -1.353,5.898 -2.27,6.65 -2.27,7.76 c 0,0.873 0.492,1.306 1.47,1.306 0.513,0 1.141,-0.242 1.885,-0.734 1.445,5.092 3.802,9.383 7.06,12.887 -0.702,0.105 -1.413,0.178 -2.143,0.178 -7.952,0 -14.399,-6.448 -14.399,-14.401 0,-6.057 3.745,-11.232 9.043,-13.357 C 0.223,-4.273 0,-2.152 0,0"
         style="fill:#f4da98;fill-opacity:1;fill-rule:nonzero;stroke:none"
         id="path881"
         inkscape:connector-curvature="0" />
    </g>
    <g
       style="display:inline;fill:#f4da98;fill-opacity:1;stroke:none"
       id="g887"
       transform="matrix(0.35277777,0,0,-0.35277777,29.332226,289.76397)">
      <path
         d="m 0,0 c 0.275,-0.191 0.487,-0.359 0.638,-0.51 1.575,0.362 3.15,1.287 4.725,2.778 1.319,1.279 2.448,2.757 3.385,4.439 1.193,2.109 1.756,3.885 1.693,5.332 h 0.357 C 9.394,12.846 7.845,13.422 6.194,13.717 L 7.025,12.936 C 3.638,9.379 1.297,5.068 0,0"
         style="fill:#f4da98;fill-opacity:1;fill-rule:nonzero;stroke:none"
         id="path885"
         inkscape:connector-curvature="0" />
    </g>
    <g
       style="display:inline;fill:#f4da98;fill-opacity:1;stroke:none"
       id="g891"
       transform="matrix(0.35277777,0,0,-0.35277777,33.526647,285.76075)">
      <path
         d="m 0,0 c -0.115,-1.566 -0.734,-3.357 -1.863,-5.375 -0.96,-1.703 -2.098,-3.213 -3.416,-4.535 -1.535,-1.488 -3.111,-2.524 -4.726,-3.098 2.51,-2.765 3.947,-5.92 4.31,-9.451 0.934,0.619 1.937,1.172 3,1.66 l 0.606,-1.342 c -1.765,-0.808 -3.393,-1.837 -4.885,-3.093 l -0.956,1.119 0.828,0.666 c -0.147,3.98 -1.681,7.322 -4.597,10.025 l -0.638,-0.031 c -0.3,-1.787 -0.45,-3.567 -0.45,-5.332 0,-2.432 0.27,-4.731 0.798,-6.895 1.194,-0.322 2.443,-0.508 3.738,-0.508 7.953,0 14.4,6.446 14.4,14.399 C 6.149,-6.91 3.715,-2.604 0,0"
         style="fill:#f4da98;fill-opacity:1;fill-rule:nonzero;stroke:none"
         id="path889"
         inkscape:connector-curvature="0" />
    </g>
    <path
       sodipodi:type="star"
       style="display:inline;fill:#0000ff;fill-opacity:1;stroke:none;stroke-width:6.10197353;stroke-miterlimit:4;stroke-dasharray:none;stroke-opacity:1"
       id="path930"
       sodipodi:sides="3"
       sodipodi:cx="-10.950183"
       sodipodi:cy="245.51935"
       sodipodi:r1="1.6666667"
       sodipodi:r2="0.83333331"
       sodipodi:arg1="2.0943951"
       sodipodi:arg2="3.1415927"
       inkscape:flatsided="false"
       inkscape:rounded="3.469447e-18"
       inkscape:randomized="0"
       d="m -11.783516,246.96272 0,-1.44337 0,-1.44338 1.25,0.72169 1.2499998,0.72169 -1.2499998,0.72169 z"
       inkscape:transform-center-x="-1.6163246e-05"
       inkscape:transform-center-y="0.49999431"
       transform="matrix(0,1.1999999,-1.1999999,0,325.10319,240.55271)" />
    <path
       sodipodi:type="star"
       style="display:inline;fill:#0000ff;fill-opacity:1;stroke:none;stroke-width:7.32236767;stroke-miterlimit:4;stroke-dasharray:none;stroke-opacity:1"
       id="path930-3"
       sodipodi:sides="3"
       sodipodi:cx="7.4216662"
       sodipodi:cy="251"
       sodipodi:r1="1.9999999"
       sodipodi:r2="0.99999988"
       sodipodi:arg1="2.0943951"
       sodipodi:arg2="3.1415927"
       inkscape:flatsided="false"
       inkscape:rounded="3.469447e-18"
       inkscape:randomized="0"
       d="m 6.4216662,252.73205 1e-7,-1.73205 -1e-7,-1.73205 1.4999999,0.86602 L 9.421666,251 l -1.5,0.86603 z"
       inkscape:transform-center-x="-0.49999498"
       inkscape:transform-center-y="-9.9505939e-06" />
    <path
       sodipodi:type="star"
       style="display:inline;fill:#0000ff;fill-opacity:1;stroke:none;stroke-width:7.32236767;stroke-miterlimit:4;stroke-dasharray:none;stroke-opacity:1"
       id="path930-6"
       sodipodi:sides="3"
       sodipodi:cx="9.4212637"
       sodipodi:cy="-257.81274"
       sodipodi:r1="1.9999999"
       sodipodi:r2="0.99999988"
       sodipodi:arg1="2.0943951"
       sodipodi:arg2="3.1415927"
       inkscape:flatsided="false"
       inkscape:rounded="3.469447e-18"
       inkscape:randomized="0"
       d="m 8.4212638,-256.08069 0,-1.73205 0,-1.73205 1.4999999,0.86602 1.5000003,0.86603 -1.5000004,0.86602 z"
       inkscape:transform-center-x="4.1553435e-06"
       inkscape:transform-center-y="-0.49999153"
       transform="rotate(-90,285.88616,-2.4065737)" />
    <path
       sodipodi:type="star"
       style="display:inline;fill:#0000ff;fill-opacity:1;stroke:none;stroke-width:7.32236767;stroke-miterlimit:4;stroke-dasharray:none;stroke-opacity:1"
       id="path930-7"
       sodipodi:sides="3"
       sodipodi:cx="-54.038333"
       sodipodi:cy="-251"
       sodipodi:r1="1.9999999"
       sodipodi:r2="0.99999988"
       sodipodi:arg1="2.0943951"
       sodipodi:arg2="3.1415927"
       inkscape:flatsided="false"
       inkscape:rounded="3.469447e-18"
       inkscape:randomized="0"
       d="m -55.038334,-249.26795 0,-1.73205 0,-1.73205 1.5,0.86602 1.5,0.86603 -1.5,0.86603 z"
       inkscape:transform-center-x="0.49999447"
       inkscape:transform-center-y="1.7515323e-05"
       transform="scale(-1)" />
    <path
       sodipodi:type="star"
       style="display:inline;fill:#0000ff;fill-opacity:1;stroke:none;stroke-width:6.10197353;stroke-miterlimit:4;stroke-dasharray:none;stroke-opacity:1"
       id="path930-5"
       sodipodi:sides="3"
       sodipodi:cx="-10.950183"
       sodipodi:cy="245.51935"
       sodipodi:r1="1.6666667"
       sodipodi:r2="0.83333331"
       sodipodi:arg1="2.0943951"
       sodipodi:arg2="3.1415927"
       inkscape:flatsided="false"
       inkscape:rounded="3.469447e-18"
       inkscape:randomized="0"
       d="m -11.783516,246.96272 0,-1.44337 0,-1.44338 1.25,0.72169 1.2499998,0.72169 -1.2499998,0.72169 z"
       inkscape:transform-center-x="0.25881585"
       inkscape:transform-center-y="-0.25883325"
       transform="matrix(0.84852807,0.84852807,-0.84852807,0.84852807,231.42706,35.286963)" />
    <path
       sodipodi:type="star"
       style="display:inline;fill:#0000ff;fill-opacity:1;stroke:none;stroke-width:6.10197353;stroke-miterlimit:4;stroke-dasharray:none;stroke-opacity:1"
       id="path930-5-6"
       sodipodi:sides="3"
       sodipodi:cx="-10.950183"
       sodipodi:cy="245.51935"
       sodipodi:r1="1.6666667"
       sodipodi:r2="0.83333331"
       sodipodi:arg1="2.0943951"
       sodipodi:arg2="3.1415927"
       inkscape:flatsided="false"
       inkscape:rounded="3.469447e-18"
       inkscape:randomized="0"
       d="m -11.783516,246.96272 0,-1.44337 0,-1.44338 1.25,0.72169 1.2499998,0.72169 -1.2499998,0.72169 z"
       inkscape:transform-center-x="-0.25880949"
       inkscape:transform-center-y="0.25883941"
       transform="matrix(-0.84852806,-0.84852806,0.84852806,-0.84852806,-170.46706,466.71305)" />
    <path
       sodipodi:type="star"
       style="display:inline;fill:#0000ff;fill-opacity:1;stroke:none;stroke-width:7.32236767;stroke-miterlimit:4;stroke-dasharray:none;stroke-opacity:1"
       id="path930-3-2"
       sodipodi:sides="3"
       sodipodi:cx="-19.275688"
       sodipodi:cy="257.71136"
       sodipodi:r1="1.9999999"
       sodipodi:r2="0.99999988"
       sodipodi:arg1="2.0943951"
       sodipodi:arg2="3.1415927"
       inkscape:flatsided="false"
       inkscape:rounded="3.469447e-18"
       inkscape:randomized="0"
       d="m -20.275688,259.44342 0,-1.73206 0,-1.73205 1.5,0.86603 1.5,0.86602 -1.5,0.86603 z"
       inkscape:transform-center-x="0.25882886"
       inkscape:transform-center-y="0.2588171"
       transform="rotate(-45,9.4744975,223.20225)" />
    <path
       sodipodi:type="star"
       style="display:inline;fill:#0000ff;fill-opacity:1;stroke:none;stroke-width:6.10197353;stroke-miterlimit:4;stroke-dasharray:none;stroke-opacity:1"
       id="path930-36"
       sodipodi:sides="3"
       sodipodi:cx="-10.950183"
       sodipodi:cy="245.51935"
       sodipodi:r1="1.6666667"
       sodipodi:r2="0.83333331"
       sodipodi:arg1="2.0943951"
       sodipodi:arg2="3.1415927"
       inkscape:flatsided="false"
       inkscape:rounded="3.469447e-18"
       inkscape:randomized="0"
       d="m -11.783516,246.96272 0,-1.44337 0,-1.44338 1.25,0.72169 1.2499998,0.72169 -1.2499998,0.72169 z"
       inkscape:transform-center-x="-0.25883737"
       inkscape:transform-center-y="-0.25881251"
       transform="matrix(-0.84852807,0.84852807,-0.84852807,-0.84852807,246.19305,451.94706)" />
  </g>
  <g
     inkscape:groupmode="layer"
     id="layer3"
     inkscape:label="components"
     style="display:none">
    <circle
       style="fill:#0000ff;fill-opacity:1;stroke:none;stroke-width:6.5;stroke-miterlimit:4;stroke-dasharray:none;stroke-opacity:1"
       id="path3019"
       cx="23.48"
       cy="28.499998"
       r="1" />
    <circle
       style="fill:#0000ff;fill-opacity:1;stroke:none;stroke-width:6.5;stroke-miterlimit:4;stroke-dasharray:none;stroke-opacity:1"
       id="path3019-6"
       cx="9.4799995"
       cy="28.500002"
       r="1" />
    <circle
       style="fill:#0000ff;fill-opacity:1;stroke:none;stroke-width:6.5;stroke-miterlimit:4;stroke-dasharray:none;stroke-opacity:1"
       id="path3019-7"
       cx="37.48"
       cy="28.499998"
       r="1" />
    <circle
       style="fill:#0000ff;fill-opacity:1;stroke:none;stroke-width:6.5;stroke-miterlimit:4;stroke-dasharray:none;stroke-opacity:1"
       id="path3019-5"
       cx="51.48"
       cy="28.499998"
       r="1" />
    <circle
       style="fill:#ff0000;fill-opacity:1;stroke:none;stroke-width:6.5;stroke-miterlimit:4;stroke-dasharray:none;stroke-opacity:1"
       id="path3019-5-2"
       cx="51.48"
       cy="116.5"
       r="1" />
    <circle
       style="fill:#ff0000;fill-opacity:1;stroke:none;stroke-width:6.5;stroke-miterlimit:4;stroke-dasharray:none;stroke-opacity:1"
       id="path3019-5-2-7"
       cx="30.48"
       cy="82.5"
       r="1" />
    <circle
       style="display:inline;fill:#ff00ff;fill-opacity:1;stroke:none;stroke-width:6.5;stroke-miterlimit:4;stroke-dasharray:none;stroke-opacity:1"
       id="path3019-62"
       cx="23.48"
       cy="17.500002"
       r="1" />
    <circle
       style="display:inline;fill:#ff00ff;fill-opacity:1;stroke:none;stroke-width:6.5;stroke-miterlimit:4;stroke-dasharray:none;stroke-opacity:1"
       id="path3019-62-6"
       cx="9.4799995"
       cy="17.500002"
       r="1" />
    <circle
       style="display:inline;fill:#ff00ff;fill-opacity:1;stroke:none;stroke-width:6.5;stroke-miterlimit:4;stroke-dasharray:none;stroke-opacity:1"
       id="path3019-62-1"
       cx="37.48"
       cy="17.500002"
       r="1" />
    <circle
       style="display:inline;fill:#ff00ff;fill-opacity:1;stroke:none;stroke-width:6.5;stroke-miterlimit:4;stroke-dasharray:none;stroke-opacity:1"
       id="path3019-62-8"
       cx="51.48"
       cy="17.500002"
       r="1" />
    <circle
       style="display:inline;fill:#00ff00;fill-opacity:1;stroke:none;stroke-width:6.5;stroke-miterlimit:4;stroke-dasharray:none;stroke-opacity:1"
       id="path3019-75"
       cx="37.48"
       cy="44.5"
       r="1" />
    <circle
       style="display:inline;fill:#0000ff;fill-opacity:1;stroke:none;stroke-width:6.5;stroke-miterlimit:4;stroke-dasharray:none;stroke-opacity:1"
       id="path3019-7-9"
       cx="51.48"
       cy="44.5"
       r="1" />
    <circle
       style="display:inline;fill:#00ff00;fill-opacity:1;stroke:none;stroke-width:6.5;stroke-miterlimit:4;stroke-dasharray:none;stroke-opacity:1"
       id="path3019-75-1"
       cx="9.4799995"
       cy="44.5"
       r="1" />
    <circle
       style="display:inline;fill:#00ff00;fill-opacity:1;stroke:none;stroke-width:6.5;stroke-miterlimit:4;stroke-dasharray:none;stroke-opacity:1"
       id="path3019-75-2"
       cx="23.48"
       cy="44.5"
       r="1" />
    <circle
       style="display:inline;fill:#ff00ff;fill-opacity:1;stroke:none;stroke-width:6.5;stroke-miterlimit:4;stroke-dasharray:none;stroke-opacity:1"
       id="path3019-62-8-4"
       cx="8.4799995"
       cy="60.5"
       r="1" />
    <circle
       style="display:inline;fill:#ff00ff;fill-opacity:1;stroke:none;stroke-width:6.5;stroke-miterlimit:4;stroke-dasharray:none;stroke-opacity:1"
       id="path3019-62-8-7"
       cx="52.48"
       cy="60.5"
       r="1" />
    <circle
       style="display:inline;fill:#ff00ff;fill-opacity:1;stroke:none;stroke-width:6.5;stroke-miterlimit:4;stroke-dasharray:none;stroke-opacity:1"
       id="path3019-62-8-8"
       cx="8.4799995"
       cy="104.5"
       r="1" />
    <circle
       style="display:inline;fill:#ff00ff;fill-opacity:1;stroke:none;stroke-width:6.5;stroke-miterlimit:4;stroke-dasharray:none;stroke-opacity:1"
       id="path3019-62-8-45"
       cx="52.48"
       cy="104.5"
       r="1" />
  </g>
</svg>
